<?xml version="1.0" encoding="UTF-8" standalone="no"?>
<!DOCTYPE svg PUBLIC "-//W3C//DTD SVG 1.1//EN"
 "http://www.w3.org/Graphics/SVG/1.1/DTD/svg11.dtd">
<!-- Generated by graphviz version 14.1.2 (20260124.0452)
 -->
<!-- Title: src/Autonomous/Steps/AdvanceCycleStep.hpp Pages: 1 -->
<svg width="1088pt" height="315pt"
 viewBox="0.00 0.00 1088.00 315.00" xmlns="http://www.w3.org/2000/svg" xmlns:xlink="http://www.w3.org/1999/xlink">
<g id="graph0" class="graph" transform="scale(1 1) rotate(0) translate(4 310.75)">
<title>src/Autonomous/Steps/AdvanceCycleStep.hpp</title>
<!-- Node1 -->
<g id="Node000001" class="node">
<title>Node1</title>
<g id="a_Node000001"><a xlink:title="Instantaneous AutoStep that advances the Strategy craft cycle by one.">
<polygon fill="#999999" stroke="#666666" points="757.75,-306.75 636,-306.75 636,-276.25 757.75,-276.25 757.75,-306.75"/>
<text xml:space="preserve" text-anchor="start" x="644" y="-293.25" font-family="Helvetica,sans-Serif" font-size="10.00">src/Autonomous/Steps</text>
<text xml:space="preserve" text-anchor="middle" x="696.88" y="-282" font-family="Helvetica,sans-Serif" font-size="10.00">/AdvanceCycleStep.hpp</text>
</a>
</g>
</g>
<!-- Node2 -->
<g id="Node000002" class="node">
<title>Node2</title>
<g id="a_Node000002"><a xlink:href="_auto_step_8h.html" target="_top" xlink:title="Abstract interface that every autonomous step must implement.">
<polygon fill="white" stroke="#666666" points="690.12,-240.25 567.62,-240.25 567.62,-221 690.12,-221 690.12,-240.25"/>
<text xml:space="preserve" text-anchor="middle" x="628.88" y="-226.75" font-family="Helvetica,sans-Serif" font-size="10.00">Autonomous/AutoStep.h</text>
</a>
</g>
</g>
<!-- Node1&#45;&gt;Node2 -->
<g id="edge1_Node000001_Node000002" class="edge">
<title>Node1&#45;&gt;Node2</title>
<g id="a_edge1_Node000001_Node000002"><a xlink:title=" ">
<path fill="none" stroke="#63b8ff" d="M680.07,-275.95C670.31,-267.5 657.99,-256.83 647.88,-248.08"/>
<polygon fill="#63b8ff" stroke="#63b8ff" points="650.35,-245.59 640.5,-241.69 645.77,-250.88 650.35,-245.59"/>
</a>
</g>
</g>
<!-- Node3 -->
<g id="Node000003" class="node">
<title>Node3</title>
<g id="a_Node000003"><a xlink:href="_drive_8hpp.html" target="_top" xlink:title="Differential&#45;drive subsystem: closed&#45;loop wheel control, line following, wall&#45;distance holding,...">
<polygon fill="white" stroke="#666666" points="822,-240.25 707.75,-240.25 707.75,-221 822,-221 822,-240.25"/>
<text xml:space="preserve" text-anchor="middle" x="764.88" y="-226.75" font-family="Helvetica,sans-Serif" font-size="10.00">subsystems/Drive.hpp</text>
</a>
</g>
</g>
<!-- Node1&#45;&gt;Node3 -->
<g id="edge2_Node000001_Node000003" class="edge">
<title>Node1&#45;&gt;Node3</title>
<g id="a_edge2_Node000001_Node000003"><a xlink:title=" ">
<path fill="none" stroke="#63b8ff" d="M713.68,-275.95C723.44,-267.5 735.76,-256.83 745.87,-248.08"/>
<polygon fill="#63b8ff" stroke="#63b8ff" points="747.98,-250.88 753.25,-241.69 743.4,-245.59 747.98,-250.88"/>
</a>
</g>
</g>
<!-- Node4 -->
<g id="Node000004" class="node">
<title>Node4</title>
<g id="a_Node000004"><a xlink:title=" ">
<polygon fill="#e0e0e0" stroke="#999999" points="679.5,-19.25 622.25,-19.25 622.25,0 679.5,0 679.5,-19.25"/>
<text xml:space="preserve" text-anchor="middle" x="650.88" y="-5.75" font-family="Helvetica,sans-Serif" font-size="10.00">Arduino.h</text>
</a>
</g>
</g>
<!-- Node3&#45;&gt;Node4 -->
<g id="edge3_Node000003_Node000004" class="edge">
<title>Node3&#45;&gt;Node4</title>
<g id="a_edge3_Node000003_Node000004"><a xlink:title=" ">
<path fill="none" stroke="#63b8ff" d="M739.22,-220.56C722.68,-213.41 702.05,-201.81 689.88,-185 685.31,-178.7 663.94,-75.14 654.91,-30.66"/>
<polygon fill="#63b8ff" stroke="#63b8ff" points="658.39,-30.18 652.97,-21.07 651.53,-31.57 658.39,-30.18"/>
</a>
</g>
</g>
<!-- Node5 -->
<g id="Node000005" class="node">
<title>Node5</title>
<g id="a_Node000005"><a xlink:href="_config_8hpp.html" target="_top" xlink:title="Central configuration: pin assignments, physical constants, and PID gains.">
<polygon fill="white" stroke="#666666" points="434.5,-185 371.25,-185 371.25,-165.75 434.5,-165.75 434.5,-185"/>
<text xml:space="preserve" text-anchor="middle" x="402.88" y="-171.5" font-family="Helvetica,sans-Serif" font-size="10.00">Config.hpp</text>
</a>
</g>
</g>
<!-- Node3&#45;&gt;Node5 -->
<g id="edge4_Node000003_Node000005" class="edge">
<title>Node3&#45;&gt;Node5</title>
<g id="a_edge4_Node000003_Node000005"><a xlink:title=" ">
<path fill="none" stroke="#63b8ff" d="M707.52,-221.19C634.73,-210.48 510.85,-192.26 445.75,-182.68"/>
<polygon fill="#63b8ff" stroke="#63b8ff" points="446.59,-179.27 436.18,-181.27 445.57,-186.19 446.59,-179.27"/>
</a>
</g>
</g>
<!-- Node11 -->
<g id="Node000011" class="node">
<title>Node11</title>
<g id="a_Node000011"><a xlink:href="_encoder_wrapper_8hpp.html" target="_top" xlink:title="Quadrature encoder wrapper providing position, velocity, and acceleration.">
<polygon fill="white" stroke="#666666" points="1080.38,-74.5 935.38,-74.5 935.38,-55.25 1080.38,-55.25 1080.38,-74.5"/>
<text xml:space="preserve" text-anchor="middle" x="1007.88" y="-61" font-family="Helvetica,sans-Serif" font-size="10.00">Devices/EncoderWrapper.hpp</text>
</a>
</g>
</g>
<!-- Node3&#45;&gt;Node11 -->
<g id="edge15_Node000003_Node000011" class="edge">
<title>Node3&#45;&gt;Node11</title>
<g id="a_edge15_Node000003_Node000011"><a xlink:title=" ">
<path fill="none" stroke="#63b8ff" d="M822.27,-227.64C895.28,-223.95 1015.87,-213.6 1048.88,-185 1074.54,-162.76 1080.88,-140.97 1065.88,-110.5 1059.71,-97.98 1048.16,-87.99 1036.98,-80.66"/>
<polygon fill="#63b8ff" stroke="#63b8ff" points="1039.07,-77.83 1028.69,-75.69 1035.47,-83.84 1039.07,-77.83"/>
</a>
</g>
</g>
<!-- Node13 -->
<g id="Node000013" class="node">
<title>Node13</title>
<g id="a_Node000013"><a xlink:href="_line_sensor_8hpp.html" target="_top" xlink:title="8&#45;channel reflective line sensor driver using the Pololu QTR&#45;MD&#45;08RC.">
<polygon fill="white" stroke="#666666" points="642.75,-185 521,-185 521,-165.75 642.75,-165.75 642.75,-185"/>
<text xml:space="preserve" text-anchor="middle" x="581.88" y="-171.5" font-family="Helvetica,sans-Serif" font-size="10.00">Devices/LineSensor.hpp</text>
</a>
</g>
</g>
<!-- Node3&#45;&gt;Node13 -->
<g id="edge18_Node000003_Node000013" class="edge">
<title>Node3&#45;&gt;Node13</title>
<g id="a_edge18_Node000003_Node000013"><a xlink:title=" ">
<path fill="none" stroke="#63b8ff" d="M733.83,-220.59C703.6,-211.79 657.42,-198.36 623.91,-188.61"/>
<polygon fill="#63b8ff" stroke="#63b8ff" points="625.1,-185.31 614.52,-185.88 623.15,-192.03 625.1,-185.31"/>
</a>
</g>
</g>
<!-- Node15 -->
<g id="Node000015" class="node">
<title>Node15</title>
<g id="a_Node000015"><a xlink:href="_distance_sensor_8hpp.html" target="_top" xlink:title="Driver for the Sharp GP2Y0A51SK0F short&#45;range IR distance sensor (2–15 cm).">
<polygon fill="white" stroke="#666666" points="623.25,-74.5 480.5,-74.5 480.5,-55.25 623.25,-55.25 623.25,-74.5"/>
<text xml:space="preserve" text-anchor="middle" x="551.88" y="-61" font-family="Helvetica,sans-Serif" font-size="10.00">Devices/DistanceSensor.hpp</text>
</a>
</g>
</g>
<!-- Node3&#45;&gt;Node15 -->
<g id="edge21_Node000003_Node000015" class="edge">
<title>Node3&#45;&gt;Node15</title>
<g id="a_edge21_Node000003_Node000015"><a xlink:title=" ">
<path fill="none" stroke="#63b8ff" d="M707.42,-221.39C634.73,-210.69 518.16,-192.5 511.88,-185 486.74,-155.05 516.4,-108.65 536.45,-83.52"/>
<polygon fill="#63b8ff" stroke="#63b8ff" points="539.1,-85.8 542.81,-75.88 533.72,-81.32 539.1,-85.8"/>
</a>
</g>
</g>
<!-- Node16 -->
<g id="Node000016" class="node">
<title>Node16</title>
<g id="a_Node000016"><a xlink:href="_odometry_8hpp.html" target="_top" xlink:title="Differential&#45;drive pose tracker using wheel&#45;encoder odometry.">
<polygon fill="white" stroke="#666666" points="1056.38,-129.75 959.38,-129.75 959.38,-110.5 1056.38,-110.5 1056.38,-129.75"/>
<text xml:space="preserve" text-anchor="middle" x="1007.88" y="-116.25" font-family="Helvetica,sans-Serif" font-size="10.00">utils/Odometry.hpp</text>
</a>
</g>
</g>
<!-- Node3&#45;&gt;Node16 -->
<g id="edge23_Node000003_Node000016" class="edge">
<title>Node3&#45;&gt;Node16</title>
<g id="a_edge23_Node000003_Node000016"><a xlink:title=" ">
<path fill="none" stroke="#63b8ff" d="M822.29,-228.39C892.58,-225.52 1005.57,-216.07 1031.88,-185 1043.2,-171.63 1033.43,-152.39 1023.16,-138.53"/>
<polygon fill="#63b8ff" stroke="#63b8ff" points="1026.18,-136.69 1017.17,-131.1 1020.73,-141.09 1026.18,-136.69"/>
</a>
</g>
</g>
<!-- Node17 -->
<g id="Node000017" class="node">
<title>Node17</title>
<g id="a_Node000017"><a xlink:href="_ramsete_controller_8hpp.html" target="_top" xlink:title="Ramsete nonlinear trajectory&#45;tracking controller for a differential&#45;drive robot.">
<polygon fill="white" stroke="#666666" points="1023.25,-185 886.5,-185 886.5,-165.75 1023.25,-165.75 1023.25,-185"/>
<text xml:space="preserve" text-anchor="middle" x="954.88" y="-171.5" font-family="Helvetica,sans-Serif" font-size="10.00">utils/RamseteController.hpp</text>
</a>
</g>
</g>
<!-- Node3&#45;&gt;Node17 -->
<g id="edge25_Node000003_Node000017" class="edge">
<title>Node3&#45;&gt;Node17</title>
<g id="a_edge25_Node000003_Node000017"><a xlink:title=" ">
<path fill="none" stroke="#63b8ff" d="M797.11,-220.59C828.63,-211.76 876.85,-198.24 911.69,-188.48"/>
<polygon fill="#63b8ff" stroke="#63b8ff" points="912.34,-191.93 921.03,-185.86 910.46,-185.19 912.34,-191.93"/>
</a>
</g>
</g>
<!-- Node18 -->
<g id="Node000018" class="node">
<title>Node18</title>
<g id="a_Node000018"><a xlink:href="_odometry_plotting_8hpp.html" target="_top" xlink:title="Template helper functions for emitting JSON odometry telemetry over a serial port.">
<polygon fill="white" stroke="#666666" points="830.62,-185 699.12,-185 699.12,-165.75 830.62,-165.75 830.62,-185"/>
<text xml:space="preserve" text-anchor="middle" x="764.88" y="-171.5" font-family="Helvetica,sans-Serif" font-size="10.00">utils/OdometryPlotting.hpp</text>
</a>
</g>
</g>
<!-- Node3&#45;&gt;Node18 -->
<g id="edge28_Node000003_Node000018" class="edge">
<title>Node3&#45;&gt;Node18</title>
<g id="a_edge28_Node000003_Node000018"><a xlink:title=" ">
<path fill="none" stroke="#63b8ff" d="M764.88,-220.83C764.88,-214.32 764.88,-205.17 764.88,-196.87"/>
<polygon fill="#63b8ff" stroke="#63b8ff" points="768.38,-196.87 764.88,-186.87 761.38,-196.87 768.38,-196.87"/>
</a>
</g>
</g>
<!-- Node19 -->
<g id="Node000019" class="node">
<title>Node19</title>
<g id="a_Node000019"><a xlink:href="_subsystem_8h.html" target="_top" xlink:title="Abstract base class for all robot subsystems.">
<polygon fill="white" stroke="#666666" points="862.75,-129.75 789,-129.75 789,-110.5 862.75,-110.5 862.75,-129.75"/>
<text xml:space="preserve" text-anchor="middle" x="825.88" y="-116.25" font-family="Helvetica,sans-Serif" font-size="10.00">Subsystem.h</text>
</a>
</g>
</g>
<!-- Node3&#45;&gt;Node19 -->
<g id="edge30_Node000003_Node000019" class="edge">
<title>Node3&#45;&gt;Node19</title>
<g id="a_edge30_Node000003_Node000019"><a xlink:title=" ">
<path fill="none" stroke="#63b8ff" d="M793.66,-220.6C810.36,-213.71 829.99,-202.39 839.88,-185 847.77,-171.12 842.76,-153.22 836.65,-139.9"/>
<polygon fill="#63b8ff" stroke="#63b8ff" points="839.92,-138.59 832.21,-131.32 833.7,-141.81 839.92,-138.59"/>
</a>
</g>
</g>
<!-- Node5&#45;&gt;Node4 -->
<g id="edge5_Node000005_Node000004" class="edge">
<title>Node5&#45;&gt;Node4</title>
<g id="a_edge5_Node000005_Node000004"><a xlink:title=" ">
<path fill="none" stroke="#63b8ff" d="M409.66,-165.39C416.21,-156.54 426.22,-142.54 433.88,-129.75 452.97,-97.86 442.78,-78.38 471.88,-55.25 511.83,-23.48 571.42,-13.97 610.71,-11.32"/>
<polygon fill="#63b8ff" stroke="#63b8ff" points="610.65,-14.83 620.45,-10.79 610.27,-7.84 610.65,-14.83"/>
</a>
</g>
</g>
<!-- Node6 -->
<g id="Node000006" class="node">
<title>Node6</title>
<g id="a_Node000006"><a xlink:href="_dual_motor_controller_8hpp.html" target="_top" xlink:title="Dual closed&#45;loop motor controller wrapping an L298N driver with two independent PID loops.">
<polygon fill="white" stroke="#666666" points="324.88,-129.75 164.88,-129.75 164.88,-110.5 324.88,-110.5 324.88,-129.75"/>
<text xml:space="preserve" text-anchor="middle" x="244.88" y="-116.25" font-family="Helvetica,sans-Serif" font-size="10.00">Devices/DualMotorController.hpp</text>
</a>
</g>
</g>
<!-- Node5&#45;&gt;Node6 -->
<g id="edge6_Node000005_Node000006" class="edge">
<title>Node5&#45;&gt;Node6</title>
<g id="a_edge6_Node000005_Node000006"><a xlink:title=" ">
<path fill="none" stroke="#63b8ff" d="M376.07,-165.34C350.42,-156.7 311.49,-143.57 282.69,-133.87"/>
<polygon fill="#63b8ff" stroke="#63b8ff" points="283.84,-130.56 273.24,-130.69 281.6,-137.2 283.84,-130.56"/>
</a>
</g>
</g>
<!-- Node7 -->
<g id="Node000007" class="node">
<title>Node7</title>
<g id="a_Node000007"><a xlink:href="_p_i_d_8hpp.html" target="_top" xlink:title="PID controller classes with optional nonlinear extensions and feedforward support.">
<polygon fill="white" stroke="#666666" points="424.38,-74.5 351.38,-74.5 351.38,-55.25 424.38,-55.25 424.38,-74.5"/>
<text xml:space="preserve" text-anchor="middle" x="387.88" y="-61" font-family="Helvetica,sans-Serif" font-size="10.00">utils/PID.hpp</text>
</a>
</g>
</g>
<!-- Node5&#45;&gt;Node7 -->
<g id="edge13_Node000005_Node000007" class="edge">
<title>Node5&#45;&gt;Node7</title>
<g id="a_edge13_Node000005_Node000007"><a xlink:title=" ">
<path fill="none" stroke="#63b8ff" d="M394.1,-165.37C386.55,-156.95 376.22,-143.61 371.88,-129.75 367.22,-114.88 372.05,-97.74 377.59,-84.96"/>
<polygon fill="#63b8ff" stroke="#63b8ff" points="380.73,-86.53 381.97,-76 374.44,-83.46 380.73,-86.53"/>
</a>
</g>
</g>
<!-- Node10 -->
<g id="Node000010" class="node">
<title>Node10</title>
<g id="a_Node000010"><a xlink:title=" ">
<polygon fill="#e0e0e0" stroke="#999999" points="424.38,-129.75 381.38,-129.75 381.38,-110.5 424.38,-110.5 424.38,-129.75"/>
<text xml:space="preserve" text-anchor="middle" x="402.88" y="-116.25" font-family="Helvetica,sans-Serif" font-size="10.00">cmath</text>
</a>
</g>
</g>
<!-- Node5&#45;&gt;Node10 -->
<g id="edge14_Node000005_Node000010" class="edge">
<title>Node5&#45;&gt;Node10</title>
<g id="a_edge14_Node000005_Node000010"><a xlink:title=" ">
<path fill="none" stroke="#63b8ff" d="M402.88,-165.58C402.88,-159.07 402.88,-149.92 402.88,-141.62"/>
<polygon fill="#63b8ff" stroke="#63b8ff" points="406.38,-141.62 402.88,-131.62 399.38,-141.62 406.38,-141.62"/>
</a>
</g>
</g>
<!-- Node6&#45;&gt;Node4 -->
<g id="edge7_Node000006_Node000004" class="edge">
<title>Node6&#45;&gt;Node4</title>
<g id="a_edge7_Node000006_Node000004"><a xlink:title=" ">
<path fill="none" stroke="#63b8ff" d="M222,-110.18C194.87,-98.32 155.6,-76.42 174.88,-55.25 203.99,-23.28 501.16,-13.79 610.65,-11.36"/>
<polygon fill="#63b8ff" stroke="#63b8ff" points="610.42,-14.87 620.34,-11.16 610.27,-7.87 610.42,-14.87"/>
</a>
</g>
</g>
<!-- Node6&#45;&gt;Node7 -->
<g id="edge8_Node000006_Node000007" class="edge">
<title>Node6&#45;&gt;Node7</title>
<g id="a_edge8_Node000006_Node000007"><a xlink:title=" ">
<path fill="none" stroke="#63b8ff" d="M269.13,-110.09C292.14,-101.52 326.97,-88.56 352.96,-78.88"/>
<polygon fill="#63b8ff" stroke="#63b8ff" points="353.93,-82.25 362.08,-75.48 351.49,-75.69 353.93,-82.25"/>
</a>
</g>
</g>
<!-- Node8 -->
<g id="Node000008" class="node">
<title>Node8</title>
<g id="a_Node000008"><a xlink:title=" ">
<polygon fill="#e0e0e0" stroke="#999999" points="333.62,-74.5 184.12,-74.5 184.12,-55.25 333.62,-55.25 333.62,-74.5"/>
<text xml:space="preserve" text-anchor="middle" x="258.88" y="-61" font-family="Helvetica,sans-Serif" font-size="10.00">DualTB9051FTGMotorShield.h</text>
</a>
</g>
</g>
<!-- Node6&#45;&gt;Node8 -->
<g id="edge10_Node000006_Node000008" class="edge">
<title>Node6&#45;&gt;Node8</title>
<g id="a_edge10_Node000006_Node000008"><a xlink:title=" ">
<path fill="none" stroke="#63b8ff" d="M247.19,-110.33C248.94,-103.67 251.42,-94.24 253.64,-85.78"/>
<polygon fill="#63b8ff" stroke="#63b8ff" points="256.97,-86.88 256.13,-76.32 250.2,-85.1 256.97,-86.88"/>
</a>
</g>
</g>
<!-- Node9 -->
<g id="Node000009" class="node">
<title>Node9</title>
<g id="a_Node000009"><a xlink:href="_l298_n_motor_driver_mega_8h.html" target="_top" xlink:title=" ">
<polygon fill="white" stroke="#666666" points="127.75,-74.5 0,-74.5 0,-55.25 127.75,-55.25 127.75,-74.5"/>
<text xml:space="preserve" text-anchor="middle" x="63.88" y="-61" font-family="Helvetica,sans-Serif" font-size="10.00">L298NMotorDriverMega.h</text>
</a>
</g>
</g>
<!-- Node6&#45;&gt;Node9 -->
<g id="edge11_Node000006_Node000009" class="edge">
<title>Node6&#45;&gt;Node9</title>
<g id="a_edge11_Node000006_Node000009"><a xlink:title=" ">
<path fill="none" stroke="#63b8ff" d="M214.17,-110.09C184.27,-101.29 138.6,-87.86 105.45,-78.11"/>
<polygon fill="#63b8ff" stroke="#63b8ff" points="106.76,-74.84 96.18,-75.38 104.79,-81.56 106.76,-74.84"/>
</a>
</g>
</g>
<!-- Node7&#45;&gt;Node4 -->
<g id="edge9_Node000007_Node000004" class="edge">
<title>Node7&#45;&gt;Node4</title>
<g id="a_edge9_Node000007_Node000004"><a xlink:title=" ">
<path fill="none" stroke="#63b8ff" d="M424.72,-56.41C473.77,-46.48 560.2,-28.98 610.82,-18.73"/>
<polygon fill="#63b8ff" stroke="#63b8ff" points="611.38,-22.19 620.48,-16.78 609.99,-15.33 611.38,-22.19"/>
</a>
</g>
</g>
<!-- Node9&#45;&gt;Node4 -->
<g id="edge12_Node000009_Node000004" class="edge">
<title>Node9&#45;&gt;Node4</title>
<g id="a_edge12_Node000009_Node000004"><a xlink:title=" ">
<path fill="none" stroke="#63b8ff" d="M128.14,-56.65C132.78,-56.17 137.4,-55.69 141.88,-55.25 316.18,-37.97 524.43,-20.8 610.55,-13.85"/>
<polygon fill="#63b8ff" stroke="#63b8ff" points="610.68,-17.35 620.36,-13.06 610.11,-10.37 610.68,-17.35"/>
</a>
</g>
</g>
<!-- Node11&#45;&gt;Node4 -->
<g id="edge16_Node000011_Node000004" class="edge">
<title>Node11&#45;&gt;Node4</title>
<g id="a_edge16_Node000011_Node000004"><a xlink:title=" ">
<path fill="none" stroke="#63b8ff" d="M946.91,-54.78C873.76,-43.87 753.2,-25.89 690.9,-16.6"/>
<polygon fill="#63b8ff" stroke="#63b8ff" points="691.52,-13.15 681.11,-15.14 690.49,-20.07 691.52,-13.15"/>
</a>
</g>
</g>
<!-- Node12 -->
<g id="Node000012" class="node">
<title>Node12</title>
<g id="a_Node000012"><a xlink:title=" ">
<polygon fill="#e0e0e0" stroke="#999999" points="1037.62,-19.25 978.12,-19.25 978.12,0 1037.62,0 1037.62,-19.25"/>
<text xml:space="preserve" text-anchor="middle" x="1007.88" y="-5.75" font-family="Helvetica,sans-Serif" font-size="10.00">Encoder.h</text>
</a>
</g>
</g>
<!-- Node11&#45;&gt;Node12 -->
<g id="edge17_Node000011_Node000012" class="edge">
<title>Node11&#45;&gt;Node12</title>
<g id="a_edge17_Node000011_Node000012"><a xlink:title=" ">
<path fill="none" stroke="#63b8ff" d="M1007.88,-55.08C1007.88,-48.57 1007.88,-39.42 1007.88,-31.12"/>
<polygon fill="#63b8ff" stroke="#63b8ff" points="1011.38,-31.12 1007.88,-21.12 1004.38,-31.12 1011.38,-31.12"/>
</a>
</g>
</g>
<!-- Node13&#45;&gt;Node4 -->
<g id="edge19_Node000013_Node000004" class="edge">
<title>Node13&#45;&gt;Node4</title>
<g id="a_edge19_Node000013_Node000004"><a xlink:title=" ">
<path fill="none" stroke="#63b8ff" d="M576.65,-165.48C569.79,-152.53 559.74,-128.1 569.88,-110.5 585.77,-82.89 612.16,-99.54 631.88,-74.5 641.85,-61.83 646.59,-44.03 648.85,-30.44"/>
<polygon fill="#63b8ff" stroke="#63b8ff" points="652.27,-31.27 650.1,-20.9 645.33,-30.36 652.27,-31.27"/>
</a>
</g>
</g>
<!-- Node14 -->
<g id="Node000014" class="node">
<title>Node14</title>
<g id="a_Node000014"><a xlink:title=" ">
<polygon fill="#e0e0e0" stroke="#999999" points="660.5,-129.75 579.25,-129.75 579.25,-110.5 660.5,-110.5 660.5,-129.75"/>
<text xml:space="preserve" text-anchor="middle" x="619.88" y="-116.25" font-family="Helvetica,sans-Serif" font-size="10.00">QTRSensors.h</text>
</a>
</g>
</g>
<!-- Node13&#45;&gt;Node14 -->
<g id="edge20_Node000013_Node000014" class="edge">
<title>Node13&#45;&gt;Node14</title>
<g id="a_edge20_Node000013_Node000014"><a xlink:title=" ">
<path fill="none" stroke="#63b8ff" d="M588.15,-165.58C593.23,-158.46 600.57,-148.18 606.91,-139.3"/>
<polygon fill="#63b8ff" stroke="#63b8ff" points="609.62,-141.51 612.58,-131.34 603.93,-137.45 609.62,-141.51"/>
</a>
</g>
</g>
<!-- Node15&#45;&gt;Node4 -->
<g id="edge22_Node000015_Node000004" class="edge">
<title>Node15&#45;&gt;Node4</title>
<g id="a_edge22_Node000015_Node000004"><a xlink:title=" ">
<path fill="none" stroke="#63b8ff" d="M568.67,-54.84C583.89,-46.66 606.57,-34.46 624.26,-24.94"/>
<polygon fill="#63b8ff" stroke="#63b8ff" points="625.52,-28.24 632.67,-20.42 622.2,-22.07 625.52,-28.24"/>
</a>
</g>
</g>
<!-- Node16&#45;&gt;Node11 -->
<g id="edge24_Node000016_Node000011" class="edge">
<title>Node16&#45;&gt;Node11</title>
<g id="a_edge24_Node000016_Node000011"><a xlink:title=" ">
<path fill="none" stroke="#63b8ff" d="M1007.88,-110.33C1007.88,-103.82 1007.88,-94.67 1007.88,-86.37"/>
<polygon fill="#63b8ff" stroke="#63b8ff" points="1011.38,-86.37 1007.88,-76.37 1004.38,-86.37 1011.38,-86.37"/>
</a>
</g>
</g>
<!-- Node17&#45;&gt;Node4 -->
<g id="edge26_Node000017_Node000004" class="edge">
<title>Node17&#45;&gt;Node4</title>
<g id="a_edge26_Node000017_Node000004"><a xlink:title=" ">
<path fill="none" stroke="#63b8ff" d="M944.21,-165.42C928.73,-152.61 898.94,-128.58 871.88,-110.5 830.94,-83.15 820.57,-75.89 775.88,-55.25 748.12,-42.43 715.56,-30.92 690.63,-22.79"/>
<polygon fill="#63b8ff" stroke="#63b8ff" points="691.79,-19.49 681.19,-19.77 689.65,-26.15 691.79,-19.49"/>
</a>
</g>
</g>
<!-- Node17&#45;&gt;Node16 -->
<g id="edge27_Node000017_Node000016" class="edge">
<title>Node17&#45;&gt;Node16</title>
<g id="a_edge27_Node000017_Node000016"><a xlink:title=" ">
<path fill="none" stroke="#63b8ff" d="M963.63,-165.58C971.02,-158.15 981.84,-147.29 990.92,-138.16"/>
<polygon fill="#63b8ff" stroke="#63b8ff" points="993.29,-140.74 997.87,-131.18 988.33,-135.8 993.29,-140.74"/>
</a>
</g>
</g>
<!-- Node18&#45;&gt;Node4 -->
<g id="edge29_Node000018_Node000004" class="edge">
<title>Node18&#45;&gt;Node4</title>
<g id="a_edge29_Node000018_Node000004"><a xlink:title=" ">
<path fill="none" stroke="#63b8ff" d="M761.55,-165.33C753.61,-144.46 732,-91.96 702.88,-55.25 694.36,-44.52 682.98,-34.41 673.03,-26.53"/>
<polygon fill="#63b8ff" stroke="#63b8ff" points="675.37,-23.91 665.29,-20.64 671.13,-29.48 675.37,-23.91"/>
</a>
</g>
</g>
<!-- Node19&#45;&gt;Node4 -->
<g id="edge31_Node000019_Node000004" class="edge">
<title>Node19&#45;&gt;Node4</title>
<g id="a_edge31_Node000019_Node000004"><a xlink:title=" ">
<path fill="none" stroke="#63b8ff" d="M816.86,-110.43C802.92,-97.3 774.89,-72.14 747.88,-55.25 728.17,-42.93 704.49,-31.97 685.47,-24"/>
<polygon fill="#63b8ff" stroke="#63b8ff" points="686.85,-20.78 676.27,-20.23 684.2,-27.26 686.85,-20.78"/>
</a>
</g>
</g>
</g>
</svg>
