<?xml version="1.0" encoding="UTF-8" standalone="no"?>
<!DOCTYPE svg PUBLIC "-//W3C//DTD SVG 1.1//EN"
 "http://www.w3.org/Graphics/SVG/1.1/DTD/svg11.dtd">
<!-- Generated by graphviz version 14.1.2 (20260124.0452)
 -->
<!-- Title: src/Autonomous/AutoStep.h Pages: 1 -->
<svg width="2419pt" height="282pt"
 viewBox="0.00 0.00 2419.00 282.00" xmlns="http://www.w3.org/2000/svg" xmlns:xlink="http://www.w3.org/1999/xlink">
<g id="graph0" class="graph" transform="scale(1 1) rotate(0) translate(4 278)">
<title>src/Autonomous/AutoStep.h</title>
<!-- Node1 -->
<g id="Node000001" class="node">
<title>Node1</title>
<g id="a_Node000001"><a xlink:title=" ">
<polygon fill="#999999" stroke="#666666" points="1470.78,-274 1331.78,-274 1331.78,-254.75 1470.78,-254.75 1470.78,-274"/>
<text xml:space="preserve" text-anchor="middle" x="1401.28" y="-260.5" font-family="Helvetica,sans-Serif" font-size="10.00">src/Autonomous/AutoStep.h</text>
</a>
</g>
</g>
<!-- Node2 -->
<g id="Node000002" class="node">
<title>Node2</title>
<g id="a_Node000002"><a xlink:href="_autonomous_routine_8hpp.html" target="_top" xlink:title=" ">
<polygon fill="white" stroke="#666666" points="2410.78,-152.25 2265.78,-152.25 2265.78,-121.75 2410.78,-121.75 2410.78,-152.25"/>
<text xml:space="preserve" text-anchor="start" x="2273.78" y="-138.75" font-family="Helvetica,sans-Serif" font-size="10.00">src/Autonomous/Autonomous</text>
<text xml:space="preserve" text-anchor="middle" x="2338.28" y="-127.5" font-family="Helvetica,sans-Serif" font-size="10.00">Routine.hpp</text>
</a>
</g>
</g>
<!-- Node1&#45;&gt;Node2 -->
<g id="edge1_Node000001_Node000002" class="edge">
<title>Node1&#45;&gt;Node2</title>
<g id="a_edge1_Node000001_Node000002"><a xlink:title=" ">
<path fill="none" stroke="#63b8ff" d="M1482.23,-259.68C1593.65,-253.86 1788.1,-240.9 1855.28,-218.75 1880.36,-210.48 1881.21,-196.57 1906.28,-188.25 2055.1,-138.83 2101.95,-173.85 2257.28,-152.25 2259.96,-151.88 2262.7,-151.48 2265.46,-151.07"/>
<polygon fill="#63b8ff" stroke="#63b8ff" points="1482.38,-256.17 1472.57,-260.17 1482.73,-263.16 1482.38,-256.17"/>
</a>
</g>
</g>
<!-- Node4 -->
<g id="Node000004" class="node">
<title>Node4</title>
<g id="a_Node000004"><a xlink:href="_strategy_controller_step_8hpp.html" target="_top" xlink:title=" ">
<polygon fill="white" stroke="#666666" points="774.65,-30.5 637.9,-30.5 637.9,0 774.65,0 774.65,-30.5"/>
<text xml:space="preserve" text-anchor="start" x="645.9" y="-17" font-family="Helvetica,sans-Serif" font-size="10.00">src/Autonomous/Steps</text>
<text xml:space="preserve" text-anchor="middle" x="706.28" y="-5.75" font-family="Helvetica,sans-Serif" font-size="10.00">/StrategyControllerStep.hpp</text>
</a>
</g>
</g>
<!-- Node1&#45;&gt;Node4 -->
<g id="edge50_Node000001_Node000004" class="edge">
<title>Node1&#45;&gt;Node4</title>
<g id="a_edge50_Node000001_Node000004"><a xlink:title=" ">
<path fill="none" stroke="#63b8ff" d="M1320.26,-263.8C1033.18,-264.91 79.14,-265.1 34.28,-218.75 -145.38,-33.14 433.37,-16.07 637.62,-15.69"/>
<polygon fill="#63b8ff" stroke="#63b8ff" points="1319.91,-267.3 1329.89,-263.76 1319.88,-260.3 1319.91,-267.3"/>
</a>
</g>
</g>
<!-- Node6 -->
<g id="Node000006" class="node">
<title>Node6</title>
<g id="a_Node000006"><a xlink:href="_deferred_step_8hpp.html" target="_top" xlink:title=" ">
<polygon fill="white" stroke="#666666" points="783.65,-213.12 616.9,-213.12 616.9,-193.88 783.65,-193.88 783.65,-213.12"/>
<text xml:space="preserve" text-anchor="middle" x="700.28" y="-199.62" font-family="Helvetica,sans-Serif" font-size="10.00">src/Autonomous/DeferredStep.hpp</text>
</a>
</g>
</g>
<!-- Node1&#45;&gt;Node6 -->
<g id="edge5_Node000001_Node000006" class="edge">
<title>Node1&#45;&gt;Node6</title>
<g id="a_edge5_Node000001_Node000006"><a xlink:title=" ">
<path fill="none" stroke="#63b8ff" d="M1320.38,-259.52C1203.54,-253.49 980.86,-240.23 792.28,-218.75 779.91,-217.34 766.66,-215.49 754.18,-213.59"/>
<polygon fill="#63b8ff" stroke="#63b8ff" points="1320.02,-263.01 1330.18,-260.03 1320.37,-256.02 1320.02,-263.01"/>
</a>
</g>
</g>
<!-- Node7 -->
<g id="Node000007" class="node">
<title>Node7</title>
<g id="a_Node000007"><a xlink:href="_planner_8hpp.html" target="_top" xlink:title=" ">
<polygon fill="white" stroke="#666666" points="932.9,-146.62 791.65,-146.62 791.65,-127.38 932.9,-127.38 932.9,-146.62"/>
<text xml:space="preserve" text-anchor="middle" x="862.28" y="-133.12" font-family="Helvetica,sans-Serif" font-size="10.00">src/Autonomous/Planner.hpp</text>
</a>
</g>
</g>
<!-- Node1&#45;&gt;Node7 -->
<g id="edge9_Node000001_Node000007" class="edge">
<title>Node1&#45;&gt;Node7</title>
<g id="a_edge9_Node000001_Node000007"><a xlink:title=" ">
<path fill="none" stroke="#63b8ff" d="M1319.93,-261.77C1122.53,-257.49 632.45,-244.33 608.28,-218.75 551.46,-158.64 697.82,-143.11 791.33,-139.2"/>
<polygon fill="#63b8ff" stroke="#63b8ff" points="1319.79,-265.27 1329.86,-261.99 1319.94,-258.27 1319.79,-265.27"/>
</a>
</g>
</g>
<!-- Node9 -->
<g id="Node000009" class="node">
<title>Node9</title>
<g id="a_Node000009"><a xlink:href="_replan_step_8hpp.html" target="_top" xlink:title=" ">
<polygon fill="white" stroke="#666666" points="1402.28,-146.62 1242.28,-146.62 1242.28,-127.38 1402.28,-127.38 1402.28,-146.62"/>
<text xml:space="preserve" text-anchor="middle" x="1322.28" y="-133.12" font-family="Helvetica,sans-Serif" font-size="10.00">src/Autonomous/ReplanStep.hpp</text>
</a>
</g>
</g>
<!-- Node1&#45;&gt;Node9 -->
<g id="edge10_Node000001_Node000009" class="edge">
<title>Node1&#45;&gt;Node9</title>
<g id="a_edge10_Node000001_Node000009"><a xlink:title=" ">
<path fill="none" stroke="#63b8ff" d="M1482.36,-258.76C1553.55,-251.66 1640.28,-233.68 1602.28,-188.25 1598.67,-183.94 1458.67,-160.36 1378.03,-147.09"/>
<polygon fill="#63b8ff" stroke="#63b8ff" points="1482.23,-255.26 1472.59,-259.67 1482.87,-262.23 1482.23,-255.26"/>
</a>
</g>
</g>
<!-- Node10 -->
<g id="Node000010" class="node">
<title>Node10</title>
<g id="a_Node000010"><a xlink:href="_accelerate_straight_line_8hpp.html" target="_top" xlink:title=" ">
<polygon fill="white" stroke="#666666" points="1556.28,-152.25 1420.28,-152.25 1420.28,-121.75 1556.28,-121.75 1556.28,-152.25"/>
<text xml:space="preserve" text-anchor="start" x="1428.28" y="-138.75" font-family="Helvetica,sans-Serif" font-size="10.00">src/Autonomous/Steps</text>
<text xml:space="preserve" text-anchor="middle" x="1488.28" y="-127.5" font-family="Helvetica,sans-Serif" font-size="10.00">/AccelerateStraightLine.hpp</text>
</a>
</g>
</g>
<!-- Node1&#45;&gt;Node10 -->
<g id="edge12_Node000001_Node000010" class="edge">
<title>Node1&#45;&gt;Node10</title>
<g id="a_edge12_Node000001_Node000010"><a xlink:title=" ">
<path fill="none" stroke="#63b8ff" d="M1482.37,-257.51C1537.58,-251.63 1603.71,-240.24 1621.28,-218.75 1646.41,-188.01 1598.82,-165.94 1553.75,-152.73"/>
<polygon fill="#63b8ff" stroke="#63b8ff" points="1482.24,-254 1472.64,-258.49 1482.94,-260.97 1482.24,-254"/>
</a>
</g>
</g>
<!-- Node11 -->
<g id="Node000011" class="node">
<title>Node11</title>
<g id="a_Node000011"><a xlink:href="_advance_cycle_step_8hpp.html" target="_top" xlink:title=" ">
<polygon fill="white" stroke="#666666" points="923.15,-218.75 801.4,-218.75 801.4,-188.25 923.15,-188.25 923.15,-218.75"/>
<text xml:space="preserve" text-anchor="start" x="809.4" y="-205.25" font-family="Helvetica,sans-Serif" font-size="10.00">src/Autonomous/Steps</text>
<text xml:space="preserve" text-anchor="middle" x="862.28" y="-194" font-family="Helvetica,sans-Serif" font-size="10.00">/AdvanceCycleStep.hpp</text>
</a>
</g>
</g>
<!-- Node1&#45;&gt;Node11 -->
<g id="edge14_Node000001_Node000011" class="edge">
<title>Node1&#45;&gt;Node11</title>
<g id="a_edge14_Node000001_Node000011"><a xlink:title=" ">
<path fill="none" stroke="#63b8ff" d="M1320.08,-258.27C1226.32,-251.77 1067.6,-238.9 932.28,-218.75 929.33,-218.31 926.32,-217.83 923.29,-217.32"/>
<polygon fill="#63b8ff" stroke="#63b8ff" points="1319.74,-261.76 1329.96,-258.95 1320.22,-254.77 1319.74,-261.76"/>
</a>
</g>
</g>
<!-- Node12 -->
<g id="Node000012" class="node">
<title>Node12</title>
<g id="a_Node000012"><a xlink:href="_composite_step_8hpp.html" target="_top" xlink:title=" ">
<polygon fill="white" stroke="#666666" points="1593.15,-218.75 1477.4,-218.75 1477.4,-188.25 1593.15,-188.25 1593.15,-218.75"/>
<text xml:space="preserve" text-anchor="start" x="1485.4" y="-205.25" font-family="Helvetica,sans-Serif" font-size="10.00">src/Autonomous/Steps</text>
<text xml:space="preserve" text-anchor="middle" x="1535.28" y="-194" font-family="Helvetica,sans-Serif" font-size="10.00">/CompositeStep.hpp</text>
</a>
</g>
</g>
<!-- Node1&#45;&gt;Node12 -->
<g id="edge16_Node000001_Node000012" class="edge">
<title>Node1&#45;&gt;Node12</title>
<g id="a_edge16_Node000001_Node000012"><a xlink:title=" ">
<path fill="none" stroke="#63b8ff" d="M1432.43,-249.69C1453.23,-240.55 1480.57,-228.54 1501.83,-219.19"/>
<polygon fill="#63b8ff" stroke="#63b8ff" points="1431.05,-246.47 1423.3,-253.7 1433.87,-252.88 1431.05,-246.47"/>
</a>
</g>
</g>
<!-- Node13 -->
<g id="Node000013" class="node">
<title>Node13</title>
<g id="a_Node000013"><a xlink:href="_delay_step_8hpp.html" target="_top" xlink:title=" ">
<polygon fill="white" stroke="#666666" points="1690.15,-152.25 1574.4,-152.25 1574.4,-121.75 1690.15,-121.75 1690.15,-152.25"/>
<text xml:space="preserve" text-anchor="start" x="1582.4" y="-138.75" font-family="Helvetica,sans-Serif" font-size="10.00">src/Autonomous/Steps</text>
<text xml:space="preserve" text-anchor="middle" x="1632.28" y="-127.5" font-family="Helvetica,sans-Serif" font-size="10.00">/DelayStep.hpp</text>
</a>
</g>
</g>
<!-- Node1&#45;&gt;Node13 -->
<g id="edge19_Node000001_Node000013" class="edge">
<title>Node1&#45;&gt;Node13</title>
<g id="a_edge19_Node000001_Node000013"><a xlink:title=" ">
<path fill="none" stroke="#63b8ff" d="M1482.2,-258.94C1542.82,-253.72 1618.56,-242.53 1638.28,-218.75 1653.62,-200.25 1645.79,-170.43 1638.9,-152.68"/>
<polygon fill="#63b8ff" stroke="#63b8ff" points="1482.27,-255.42 1472.59,-259.72 1482.84,-262.4 1482.27,-255.42"/>
</a>
</g>
</g>
<!-- Node14 -->
<g id="Node000014" class="node">
<title>Node14</title>
<g id="a_Node000014"><a xlink:href="_detect_block_8hpp.html" target="_top" xlink:title=" ">
<polygon fill="white" stroke="#666666" points="1057.15,-218.75 941.4,-218.75 941.4,-188.25 1057.15,-188.25 1057.15,-218.75"/>
<text xml:space="preserve" text-anchor="start" x="949.4" y="-205.25" font-family="Helvetica,sans-Serif" font-size="10.00">src/Autonomous/Steps</text>
<text xml:space="preserve" text-anchor="middle" x="999.28" y="-194" font-family="Helvetica,sans-Serif" font-size="10.00">/DetectBlock.hpp</text>
</a>
</g>
</g>
<!-- Node1&#45;&gt;Node14 -->
<g id="edge21_Node000001_Node000014" class="edge">
<title>Node1&#45;&gt;Node14</title>
<g id="a_edge21_Node000001_Node000014"><a xlink:title=" ">
<path fill="none" stroke="#63b8ff" d="M1320.37,-254.37C1252.35,-246.38 1152.67,-233.67 1066.28,-218.75 1063.35,-218.24 1060.35,-217.7 1057.33,-217.13"/>
<polygon fill="#63b8ff" stroke="#63b8ff" points="1319.58,-257.8 1329.92,-255.49 1320.39,-250.85 1319.58,-257.8"/>
</a>
</g>
</g>
<!-- Node15 -->
<g id="Node000015" class="node">
<title>Node15</title>
<g id="a_Node000015"><a xlink:href="_drive_arc_8hpp.html" target="_top" xlink:title=" ">
<polygon fill="white" stroke="#666666" points="159.15,-218.75 43.4,-218.75 43.4,-188.25 159.15,-188.25 159.15,-218.75"/>
<text xml:space="preserve" text-anchor="start" x="51.4" y="-205.25" font-family="Helvetica,sans-Serif" font-size="10.00">src/Autonomous/Steps</text>
<text xml:space="preserve" text-anchor="middle" x="101.28" y="-194" font-family="Helvetica,sans-Serif" font-size="10.00">/DriveArc.hpp</text>
</a>
</g>
</g>
<!-- Node1&#45;&gt;Node15 -->
<g id="edge23_Node000001_Node000015" class="edge">
<title>Node1&#45;&gt;Node15</title>
<g id="a_edge23_Node000001_Node000015"><a xlink:title=" ">
<path fill="none" stroke="#63b8ff" d="M1320.07,-262.27C1082.61,-258.76 392.21,-246.4 168.28,-218.75 165.44,-218.4 162.55,-217.99 159.64,-217.54"/>
<polygon fill="#63b8ff" stroke="#63b8ff" points="1319.8,-265.77 1329.85,-262.42 1319.9,-258.77 1319.8,-265.77"/>
</a>
</g>
</g>
<!-- Node16 -->
<g id="Node000016" class="node">
<title>Node16</title>
<g id="a_Node000016"><a xlink:href="_drive_distance_8hpp.html" target="_top" xlink:title=" ">
<polygon fill="white" stroke="#666666" points="1191.15,-218.75 1075.4,-218.75 1075.4,-188.25 1191.15,-188.25 1191.15,-218.75"/>
<text xml:space="preserve" text-anchor="start" x="1083.4" y="-205.25" font-family="Helvetica,sans-Serif" font-size="10.00">src/Autonomous/Steps</text>
<text xml:space="preserve" text-anchor="middle" x="1133.28" y="-194" font-family="Helvetica,sans-Serif" font-size="10.00">/DriveDistance.hpp</text>
</a>
</g>
</g>
<!-- Node1&#45;&gt;Node16 -->
<g id="edge25_Node000001_Node000016" class="edge">
<title>Node1&#45;&gt;Node16</title>
<g id="a_edge25_Node000001_Node000016"><a xlink:title=" ">
<path fill="none" stroke="#63b8ff" d="M1348.94,-251.88C1303.71,-241.94 1238.41,-227.6 1191.53,-217.3"/>
<polygon fill="#63b8ff" stroke="#63b8ff" points="1347.99,-255.25 1358.51,-253.98 1349.49,-248.42 1347.99,-255.25"/>
</a>
</g>
</g>
<!-- Node17 -->
<g id="Node000017" class="node">
<title>Node17</title>
<g id="a_Node000017"><a xlink:href="_drive_line_until_wall_8hpp.html" target="_top" xlink:title=" ">
<polygon fill="white" stroke="#666666" points="1826.28,-152.25 1708.28,-152.25 1708.28,-121.75 1826.28,-121.75 1826.28,-152.25"/>
<text xml:space="preserve" text-anchor="start" x="1716.28" y="-138.75" font-family="Helvetica,sans-Serif" font-size="10.00">src/Autonomous/Steps</text>
<text xml:space="preserve" text-anchor="middle" x="1767.28" y="-127.5" font-family="Helvetica,sans-Serif" font-size="10.00">/DriveLineUntilWall.hpp</text>
</a>
</g>
</g>
<!-- Node1&#45;&gt;Node17 -->
<g id="edge28_Node000001_Node000017" class="edge">
<title>Node1&#45;&gt;Node17</title>
<g id="a_edge28_Node000001_Node000017"><a xlink:title=" ">
<path fill="none" stroke="#63b8ff" d="M1482.45,-258.61C1533.92,-253.33 1600.98,-242.2 1656.28,-218.75 1694.45,-202.56 1732.01,-171.07 1752.16,-152.56"/>
<polygon fill="#63b8ff" stroke="#63b8ff" points="1482.18,-255.12 1472.56,-259.56 1482.85,-262.09 1482.18,-255.12"/>
</a>
</g>
</g>
<!-- Node18 -->
<g id="Node000018" class="node">
<title>Node18</title>
<g id="a_Node000018"><a xlink:href="_drive_radius_angle_8hpp.html" target="_top" xlink:title=" ">
<polygon fill="white" stroke="#666666" points="1960.53,-152.25 1844.03,-152.25 1844.03,-121.75 1960.53,-121.75 1960.53,-152.25"/>
<text xml:space="preserve" text-anchor="start" x="1852.03" y="-138.75" font-family="Helvetica,sans-Serif" font-size="10.00">src/Autonomous/Steps</text>
<text xml:space="preserve" text-anchor="middle" x="1902.28" y="-127.5" font-family="Helvetica,sans-Serif" font-size="10.00">/DriveRadiusAngle.hpp</text>
</a>
</g>
</g>
<!-- Node1&#45;&gt;Node18 -->
<g id="edge30_Node000001_Node000018" class="edge">
<title>Node1&#45;&gt;Node18</title>
<g id="a_edge30_Node000001_Node000018"><a xlink:title=" ">
<path fill="none" stroke="#63b8ff" d="M1482.29,-256.05C1542.13,-249.45 1625.18,-237.8 1696.28,-218.75 1760.28,-201.6 1831.56,-170.9 1871.25,-152.69"/>
<polygon fill="#63b8ff" stroke="#63b8ff" points="1482.09,-252.55 1472.52,-257.1 1482.84,-259.51 1482.09,-252.55"/>
</a>
</g>
</g>
<!-- Node19 -->
<g id="Node000019" class="node">
<title>Node19</title>
<g id="a_Node000019"><a xlink:href="_drive_radius_at_velocity_8hpp.html" target="_top" xlink:title=" ">
<polygon fill="white" stroke="#666666" points="2113.9,-152.25 1978.65,-152.25 1978.65,-121.75 2113.9,-121.75 2113.9,-152.25"/>
<text xml:space="preserve" text-anchor="start" x="1986.65" y="-138.75" font-family="Helvetica,sans-Serif" font-size="10.00">src/Autonomous/Steps</text>
<text xml:space="preserve" text-anchor="middle" x="2046.28" y="-127.5" font-family="Helvetica,sans-Serif" font-size="10.00">/DriveRadiusAtVelocity.hpp</text>
</a>
</g>
</g>
<!-- Node1&#45;&gt;Node19 -->
<g id="edge32_Node000001_Node000019" class="edge">
<title>Node1&#45;&gt;Node19</title>
<g id="a_edge32_Node000001_Node000019"><a xlink:title=" ">
<path fill="none" stroke="#63b8ff" d="M1482.51,-258.4C1554.48,-252.74 1662,-241.19 1753.28,-218.75 1791.03,-209.47 1798.07,-199.55 1835.28,-188.25 1882.48,-173.91 1936.62,-161.09 1978.24,-151.99"/>
<polygon fill="#63b8ff" stroke="#63b8ff" points="1482.48,-254.89 1472.78,-259.14 1483.01,-261.87 1482.48,-254.89"/>
</a>
</g>
</g>
<!-- Node20 -->
<g id="Node000020" class="node">
<title>Node20</title>
<g id="a_Node000020"><a xlink:href="_drive_until_wall_8hpp.html" target="_top" xlink:title=" ">
<polygon fill="white" stroke="#666666" points="2031.15,-218.75 1915.4,-218.75 1915.4,-188.25 2031.15,-188.25 2031.15,-218.75"/>
<text xml:space="preserve" text-anchor="start" x="1923.4" y="-205.25" font-family="Helvetica,sans-Serif" font-size="10.00">src/Autonomous/Steps</text>
<text xml:space="preserve" text-anchor="middle" x="1973.28" y="-194" font-family="Helvetica,sans-Serif" font-size="10.00">/DriveUntilWall.hpp</text>
</a>
</g>
</g>
<!-- Node1&#45;&gt;Node20 -->
<g id="edge34_Node000001_Node000020" class="edge">
<title>Node1&#45;&gt;Node20</title>
<g id="a_edge34_Node000001_Node000020"><a xlink:title=" ">
<path fill="none" stroke="#63b8ff" d="M1482.54,-258.79C1581.72,-252.58 1754.39,-239.78 1901.28,-218.75 1905.82,-218.1 1910.5,-217.35 1915.21,-216.54"/>
<polygon fill="#63b8ff" stroke="#63b8ff" points="1482.38,-255.29 1472.62,-259.4 1482.82,-262.28 1482.38,-255.29"/>
</a>
</g>
</g>
<!-- Node21 -->
<g id="Node000021" class="node">
<title>Node21</title>
<g id="a_Node000021"><a xlink:href="_fire_step_8hpp.html" target="_top" xlink:title=" ">
<polygon fill="white" stroke="#666666" points="2248.15,-152.25 2132.4,-152.25 2132.4,-121.75 2248.15,-121.75 2248.15,-152.25"/>
<text xml:space="preserve" text-anchor="start" x="2140.4" y="-138.75" font-family="Helvetica,sans-Serif" font-size="10.00">src/Autonomous/Steps</text>
<text xml:space="preserve" text-anchor="middle" x="2190.28" y="-127.5" font-family="Helvetica,sans-Serif" font-size="10.00">/FireStep.hpp</text>
</a>
</g>
</g>
<!-- Node1&#45;&gt;Node21 -->
<g id="edge35_Node000001_Node000021" class="edge">
<title>Node1&#45;&gt;Node21</title>
<g id="a_edge35_Node000001_Node000021"><a xlink:title=" ">
<path fill="none" stroke="#63b8ff" d="M1482.41,-262.29C1565.64,-259.37 1698.15,-249.7 1808.28,-218.75 1839,-210.12 1842.7,-197.4 1873.28,-188.25 1980.82,-156.06 2012.76,-171.94 2123.28,-152.25 2126.2,-151.73 2129.2,-151.17 2132.22,-150.6"/>
<polygon fill="#63b8ff" stroke="#63b8ff" points="1482.4,-258.79 1472.52,-262.61 1482.62,-265.78 1482.4,-258.79"/>
</a>
</g>
</g>
<!-- Node22 -->
<g id="Node000022" class="node">
<title>Node22</title>
<g id="a_Node000022"><a xlink:href="_follow_line_step_8hpp.html" target="_top" xlink:title=" ">
<polygon fill="white" stroke="#666666" points="1325.15,-218.75 1209.4,-218.75 1209.4,-188.25 1325.15,-188.25 1325.15,-218.75"/>
<text xml:space="preserve" text-anchor="start" x="1217.4" y="-205.25" font-family="Helvetica,sans-Serif" font-size="10.00">src/Autonomous/Steps</text>
<text xml:space="preserve" text-anchor="middle" x="1267.28" y="-194" font-family="Helvetica,sans-Serif" font-size="10.00">/FollowLineStep.hpp</text>
</a>
</g>
</g>
<!-- Node1&#45;&gt;Node22 -->
<g id="edge37_Node000001_Node000022" class="edge">
<title>Node1&#45;&gt;Node22</title>
<g id="a_edge37_Node000001_Node000022"><a xlink:title=" ">
<path fill="none" stroke="#63b8ff" d="M1370.12,-249.69C1349.32,-240.55 1321.98,-228.54 1300.72,-219.19"/>
<polygon fill="#63b8ff" stroke="#63b8ff" points="1368.68,-252.88 1379.25,-253.7 1371.5,-246.47 1368.68,-252.88"/>
</a>
</g>
</g>
<!-- Node23 -->
<g id="Node000023" class="node">
<title>Node23</title>
<g id="a_Node000023"><a xlink:href="_index_block_8hpp.html" target="_top" xlink:title=" ">
<polygon fill="white" stroke="#666666" points="293.15,-218.75 177.4,-218.75 177.4,-188.25 293.15,-188.25 293.15,-218.75"/>
<text xml:space="preserve" text-anchor="start" x="185.4" y="-205.25" font-family="Helvetica,sans-Serif" font-size="10.00">src/Autonomous/Steps</text>
<text xml:space="preserve" text-anchor="middle" x="235.28" y="-194" font-family="Helvetica,sans-Serif" font-size="10.00">/IndexBlock.hpp</text>
</a>
</g>
</g>
<!-- Node1&#45;&gt;Node23 -->
<g id="edge40_Node000001_Node000023" class="edge">
<title>Node1&#45;&gt;Node23</title>
<g id="a_edge40_Node000001_Node000023"><a xlink:title=" ">
<path fill="none" stroke="#63b8ff" d="M1319.95,-261.86C1100.42,-257.47 499.11,-243.5 302.28,-218.75 299.44,-218.39 296.55,-217.98 293.64,-217.52"/>
<polygon fill="#63b8ff" stroke="#63b8ff" points="1319.78,-265.35 1329.85,-262.05 1319.92,-258.35 1319.78,-265.35"/>
</a>
</g>
</g>
<!-- Node24 -->
<g id="Node000024" class="node">
<title>Node24</title>
<g id="a_Node000024"><a xlink:href="_mine_block_8hpp.html" target="_top" xlink:title=" ">
<polygon fill="white" stroke="#666666" points="1459.15,-218.75 1343.4,-218.75 1343.4,-188.25 1459.15,-188.25 1459.15,-218.75"/>
<text xml:space="preserve" text-anchor="start" x="1351.4" y="-205.25" font-family="Helvetica,sans-Serif" font-size="10.00">src/Autonomous/Steps</text>
<text xml:space="preserve" text-anchor="middle" x="1401.28" y="-194" font-family="Helvetica,sans-Serif" font-size="10.00">/MineBlock.hpp</text>
</a>
</g>
</g>
<!-- Node1&#45;&gt;Node24 -->
<g id="edge42_Node000001_Node000024" class="edge">
<title>Node1&#45;&gt;Node24</title>
<g id="a_edge42_Node000001_Node000024"><a xlink:title=" ">
<path fill="none" stroke="#63b8ff" d="M1401.28,-243.17C1401.28,-235.24 1401.28,-226.31 1401.28,-219.03"/>
<polygon fill="#63b8ff" stroke="#63b8ff" points="1397.78,-242.92 1401.28,-252.92 1404.78,-242.92 1397.78,-242.92"/>
</a>
</g>
</g>
<!-- Node25 -->
<g id="Node000025" class="node">
<title>Node25</title>
<g id="a_Node000025"><a xlink:href="_parallel_step_8hpp.html" target="_top" xlink:title=" ">
<polygon fill="white" stroke="#666666" points="2165.15,-218.75 2049.4,-218.75 2049.4,-188.25 2165.15,-188.25 2165.15,-218.75"/>
<text xml:space="preserve" text-anchor="start" x="2057.4" y="-205.25" font-family="Helvetica,sans-Serif" font-size="10.00">src/Autonomous/Steps</text>
<text xml:space="preserve" text-anchor="middle" x="2107.28" y="-194" font-family="Helvetica,sans-Serif" font-size="10.00">/ParallelStep.hpp</text>
</a>
</g>
</g>
<!-- Node1&#45;&gt;Node25 -->
<g id="edge45_Node000001_Node000025" class="edge">
<title>Node1&#45;&gt;Node25</title>
<g id="a_edge45_Node000001_Node000025"><a xlink:title=" ">
<path fill="none" stroke="#63b8ff" d="M1482.52,-261.34C1604.28,-257.46 1841.04,-246.75 2040.28,-218.75 2043.22,-218.34 2046.23,-217.87 2049.26,-217.36"/>
<polygon fill="#63b8ff" stroke="#63b8ff" points="1482.51,-257.84 1472.62,-261.64 1482.72,-264.83 1482.51,-257.84"/>
</a>
</g>
</g>
<!-- Node26 -->
<g id="Node000026" class="node">
<title>Node26</title>
<g id="a_Node000026"><a xlink:href="_place_on_table_8hpp.html" target="_top" xlink:title=" ">
<polygon fill="white" stroke="#666666" points="427.15,-218.75 311.4,-218.75 311.4,-188.25 427.15,-188.25 427.15,-218.75"/>
<text xml:space="preserve" text-anchor="start" x="319.4" y="-205.25" font-family="Helvetica,sans-Serif" font-size="10.00">src/Autonomous/Steps</text>
<text xml:space="preserve" text-anchor="middle" x="369.28" y="-194" font-family="Helvetica,sans-Serif" font-size="10.00">/PlaceOnTable.hpp</text>
</a>
</g>
</g>
<!-- Node1&#45;&gt;Node26 -->
<g id="edge46_Node000001_Node000026" class="edge">
<title>Node1&#45;&gt;Node26</title>
<g id="a_edge46_Node000001_Node000026"><a xlink:title=" ">
<path fill="none" stroke="#63b8ff" d="M1320.19,-264.08C1153.78,-264.55 761.9,-260.62 436.28,-218.75 433.44,-218.39 430.56,-217.96 427.64,-217.5"/>
<polygon fill="#63b8ff" stroke="#63b8ff" points="1319.8,-267.58 1329.79,-264.05 1319.78,-260.58 1319.8,-267.58"/>
</a>
</g>
</g>
<!-- Node27 -->
<g id="Node000027" class="node">
<title>Node27</title>
<g id="a_Node000027"><a xlink:href="_reject_sequence_8hpp.html" target="_top" xlink:title=" ">
<polygon fill="white" stroke="#666666" points="561.15,-218.75 445.4,-218.75 445.4,-188.25 561.15,-188.25 561.15,-218.75"/>
<text xml:space="preserve" text-anchor="start" x="453.4" y="-205.25" font-family="Helvetica,sans-Serif" font-size="10.00">src/Autonomous/Steps</text>
<text xml:space="preserve" text-anchor="middle" x="503.28" y="-194" font-family="Helvetica,sans-Serif" font-size="10.00">/RejectSequence.hpp</text>
</a>
</g>
</g>
<!-- Node1&#45;&gt;Node27 -->
<g id="edge48_Node000001_Node000027" class="edge">
<title>Node1&#45;&gt;Node27</title>
<g id="a_edge48_Node000001_Node000027"><a xlink:title=" ">
<path fill="none" stroke="#63b8ff" d="M1320.12,-262.79C1171.7,-260.87 846.78,-252.78 575.28,-218.75 570.72,-218.18 566.03,-217.49 561.32,-216.72"/>
<polygon fill="#63b8ff" stroke="#63b8ff" points="1319.8,-266.28 1329.85,-262.91 1319.89,-259.29 1319.8,-266.28"/>
</a>
</g>
</g>
<!-- Node3 -->
<g id="Node000003" class="node">
<title>Node3</title>
<g id="a_Node000003"><a xlink:href="_robot_8hpp.html" target="_top" xlink:title=" ">
<polygon fill="white" stroke="#666666" points="1444.03,-85.75 1366.53,-85.75 1366.53,-66.5 1444.03,-66.5 1444.03,-85.75"/>
<text xml:space="preserve" text-anchor="middle" x="1405.28" y="-72.25" font-family="Helvetica,sans-Serif" font-size="10.00">src/Robot.hpp</text>
</a>
</g>
</g>
<!-- Node2&#45;&gt;Node3 -->
<g id="edge2_Node000002_Node000003" class="edge">
<title>Node2&#45;&gt;Node3</title>
<g id="a_edge2_Node000002_Node000003"><a xlink:title=" ">
<path fill="none" stroke="#63b8ff" d="M2254.2,-121.49C1936.41,-86.1 1564.31,-78.93 1444.48,-77.48"/>
<polygon fill="#63b8ff" stroke="#63b8ff" points="2253.65,-124.95 2263.97,-122.59 2254.43,-117.99 2253.65,-124.95"/>
</a>
</g>
</g>
<!-- Node3&#45;&gt;Node4 -->
<g id="edge3_Node000003_Node000004" class="edge">
<title>Node3&#45;&gt;Node4</title>
<g id="a_edge3_Node000003_Node000004"><a xlink:title=" ">
<path fill="none" stroke="#63b8ff" d="M1354.89,-70.88C1231.74,-60.51 915.31,-33.86 775.02,-22.04"/>
<polygon fill="#63b8ff" stroke="#63b8ff" points="1354.43,-74.35 1364.69,-71.71 1355.02,-67.38 1354.43,-74.35"/>
</a>
</g>
</g>
<!-- Node5 -->
<g id="Node000005" class="node">
<title>Node5</title>
<g id="a_Node000005"><a xlink:href="main_8cpp.html" target="_top" xlink:title=" ">
<polygon fill="white" stroke="#666666" points="1441.4,-24.88 1369.15,-24.88 1369.15,-5.63 1441.4,-5.63 1441.4,-24.88"/>
<text xml:space="preserve" text-anchor="middle" x="1405.28" y="-11.38" font-family="Helvetica,sans-Serif" font-size="10.00">src/main.cpp</text>
</a>
</g>
</g>
<!-- Node3&#45;&gt;Node5 -->
<g id="edge4_Node000003_Node000005" class="edge">
<title>Node3&#45;&gt;Node5</title>
<g id="a_edge4_Node000003_Node000005"><a xlink:title=" ">
<path fill="none" stroke="#63b8ff" d="M1405.28,-54.7C1405.28,-44.67 1405.28,-33.08 1405.28,-25.28"/>
<polygon fill="#63b8ff" stroke="#63b8ff" points="1401.78,-54.67 1405.28,-64.67 1408.78,-54.67 1401.78,-54.67"/>
</a>
</g>
</g>
<!-- Node6&#45;&gt;Node7 -->
<g id="edge6_Node000006_Node000007" class="edge">
<title>Node6&#45;&gt;Node7</title>
<g id="a_edge6_Node000006_Node000007"><a xlink:title=" ">
<path fill="none" stroke="#63b8ff" d="M733.65,-189.21C765.29,-176.62 811.96,-158.03 839.52,-147.06"/>
<polygon fill="#63b8ff" stroke="#63b8ff" points="732.54,-185.88 724.55,-192.84 735.13,-192.39 732.54,-185.88"/>
</a>
</g>
</g>
<!-- Node7&#45;&gt;Node3 -->
<g id="edge8_Node000007_Node000003" class="edge">
<title>Node7&#45;&gt;Node3</title>
<g id="a_edge8_Node000007_Node000003"><a xlink:title=" ">
<path fill="none" stroke="#63b8ff" d="M944.45,-127.09C1063.27,-114.21 1278.42,-90.88 1366.3,-81.35"/>
<polygon fill="#63b8ff" stroke="#63b8ff" points="944.33,-123.58 934.77,-128.14 945.09,-130.54 944.33,-123.58"/>
</a>
</g>
</g>
<!-- Node8 -->
<g id="Node000008" class="node">
<title>Node8</title>
<g id="a_Node000008"><a xlink:href="_planner_8cpp.html" target="_top" xlink:title=" ">
<polygon fill="white" stroke="#666666" points="932.9,-85.75 791.65,-85.75 791.65,-66.5 932.9,-66.5 932.9,-85.75"/>
<text xml:space="preserve" text-anchor="middle" x="862.28" y="-72.25" font-family="Helvetica,sans-Serif" font-size="10.00">src/Autonomous/Planner.cpp</text>
</a>
</g>
</g>
<!-- Node7&#45;&gt;Node8 -->
<g id="edge7_Node000007_Node000008" class="edge">
<title>Node7&#45;&gt;Node8</title>
<g id="a_edge7_Node000007_Node000008"><a xlink:title=" ">
<path fill="none" stroke="#63b8ff" d="M862.28,-115.57C862.28,-105.54 862.28,-93.96 862.28,-86.15"/>
<polygon fill="#63b8ff" stroke="#63b8ff" points="858.78,-115.54 862.28,-125.54 865.78,-115.54 858.78,-115.54"/>
</a>
</g>
</g>
<!-- Node9&#45;&gt;Node3 -->
<g id="edge11_Node000009_Node000003" class="edge">
<title>Node9&#45;&gt;Node3</title>
<g id="a_edge11_Node000009_Node000003"><a xlink:title=" ">
<path fill="none" stroke="#63b8ff" d="M1344.21,-120.44C1359.63,-109.51 1379.71,-95.26 1392.55,-86.15"/>
<polygon fill="#63b8ff" stroke="#63b8ff" points="1342.25,-117.54 1336.12,-126.18 1346.3,-123.25 1342.25,-117.54"/>
</a>
</g>
</g>
<!-- Node10&#45;&gt;Node3 -->
<g id="edge13_Node000010_Node000003" class="edge">
<title>Node10&#45;&gt;Node3</title>
<g id="a_edge13_Node000010_Node000003"><a xlink:title=" ">
<path fill="none" stroke="#63b8ff" d="M1458.53,-114.9C1444.64,-105.05 1428.83,-93.83 1418.07,-86.2"/>
<polygon fill="#63b8ff" stroke="#63b8ff" points="1456.34,-117.64 1466.52,-120.57 1460.39,-111.93 1456.34,-117.64"/>
</a>
</g>
</g>
<!-- Node11&#45;&gt;Node7 -->
<g id="edge15_Node000011_Node000007" class="edge">
<title>Node11&#45;&gt;Node7</title>
<g id="a_edge15_Node000011_Node000007"><a xlink:title=" ">
<path fill="none" stroke="#63b8ff" d="M862.28,-176.59C862.28,-166.01 862.28,-154.5 862.28,-146.82"/>
<polygon fill="#63b8ff" stroke="#63b8ff" points="858.78,-176.35 862.28,-186.35 865.78,-176.35 858.78,-176.35"/>
</a>
</g>
</g>
<!-- Node12&#45;&gt;Node3 -->
<g id="edge18_Node000012_Node000003" class="edge">
<title>Node12&#45;&gt;Node3</title>
<g id="a_edge18_Node000012_Node000003"><a xlink:title=" ">
<path fill="none" stroke="#63b8ff" d="M1466.05,-188.26C1399.84,-180.12 1265.74,-190.07 1233.28,-152.25 1193.48,-105.89 1304.25,-87.14 1366.37,-80.43"/>
<polygon fill="#63b8ff" stroke="#63b8ff" points="1465.31,-191.69 1475.71,-189.71 1466.35,-184.76 1465.31,-191.69"/>
</a>
</g>
</g>
<!-- Node12&#45;&gt;Node7 -->
<g id="edge17_Node000012_Node000007" class="edge">
<title>Node12&#45;&gt;Node7</title>
<g id="a_edge17_Node000012_Node000007"><a xlink:title=" ">
<path fill="none" stroke="#63b8ff" d="M1466.01,-188.05C1267.37,-159.42 1044.39,-146.24 933.05,-140.95"/>
<polygon fill="#63b8ff" stroke="#63b8ff" points="1465.35,-191.49 1475.75,-189.47 1466.36,-184.56 1465.35,-191.49"/>
</a>
</g>
</g>
<!-- Node13&#45;&gt;Node3 -->
<g id="edge20_Node000013_Node000003" class="edge">
<title>Node13&#45;&gt;Node3</title>
<g id="a_edge20_Node000013_Node000003"><a xlink:title=" ">
<path fill="none" stroke="#63b8ff" d="M1564.61,-118.45C1523.79,-107.86 1473.46,-94.81 1440.42,-86.24"/>
<polygon fill="#63b8ff" stroke="#63b8ff" points="1563.56,-121.79 1574.11,-120.92 1565.31,-115.02 1563.56,-121.79"/>
</a>
</g>
</g>
<!-- Node14&#45;&gt;Node7 -->
<g id="edge22_Node000014_Node000007" class="edge">
<title>Node14&#45;&gt;Node7</title>
<g id="a_edge22_Node000014_Node000007"><a xlink:title=" ">
<path fill="none" stroke="#63b8ff" d="M958.06,-183.1C932.62,-171.12 901.17,-156.31 881.41,-147.01"/>
<polygon fill="#63b8ff" stroke="#63b8ff" points="956.28,-186.13 966.82,-187.22 959.26,-179.79 956.28,-186.13"/>
</a>
</g>
</g>
<!-- Node15&#45;&gt;Node7 -->
<g id="edge24_Node000015_Node000007" class="edge">
<title>Node15&#45;&gt;Node7</title>
<g id="a_edge24_Node000015_Node000007"><a xlink:title=" ">
<path fill="none" stroke="#63b8ff" d="M170.35,-188.1C403.06,-155.76 667.55,-143.98 791.5,-139.92"/>
<polygon fill="#63b8ff" stroke="#63b8ff" points="170.21,-184.58 160.79,-189.44 171.18,-191.51 170.21,-184.58"/>
</a>
</g>
</g>
<!-- Node16&#45;&gt;Node3 -->
<g id="edge27_Node000016_Node000003" class="edge">
<title>Node16&#45;&gt;Node3</title>
<g id="a_edge27_Node000016_Node000003"><a xlink:title=" ">
<path fill="none" stroke="#63b8ff" d="M1141.56,-177.22C1148.87,-158.98 1161.34,-135.26 1180.28,-121.75 1209.61,-100.82 1309.94,-87.18 1366.21,-80.98"/>
<polygon fill="#63b8ff" stroke="#63b8ff" points="1138.29,-175.99 1138.11,-186.58 1144.85,-178.41 1138.29,-175.99"/>
</a>
</g>
</g>
<!-- Node16&#45;&gt;Node7 -->
<g id="edge26_Node000016_Node000007" class="edge">
<title>Node16&#45;&gt;Node7</title>
<g id="a_edge26_Node000016_Node000007"><a xlink:title=" ">
<path fill="none" stroke="#63b8ff" d="M1063.98,-186.01C1011.94,-173.62 942.64,-157.13 900.3,-147.05"/>
<polygon fill="#63b8ff" stroke="#63b8ff" points="1063.13,-189.4 1073.67,-188.31 1064.75,-182.59 1063.13,-189.4"/>
</a>
</g>
</g>
<!-- Node17&#45;&gt;Node3 -->
<g id="edge29_Node000017_Node000003" class="edge">
<title>Node17&#45;&gt;Node3</title>
<g id="a_edge29_Node000017_Node000003"><a xlink:title=" ">
<path fill="none" stroke="#63b8ff" d="M1696.85,-121.37C1600.43,-104.21 1498.74,-89.77 1444.39,-82.35"/>
<polygon fill="#63b8ff" stroke="#63b8ff" points="1696.02,-124.78 1706.49,-123.1 1697.26,-117.89 1696.02,-124.78"/>
</a>
</g>
</g>
<!-- Node18&#45;&gt;Node3 -->
<g id="edge31_Node000018_Node000003" class="edge">
<title>Node18&#45;&gt;Node3</title>
<g id="a_edge31_Node000018_Node000003"><a xlink:title=" ">
<path fill="none" stroke="#63b8ff" d="M1832.72,-121.45C1683.67,-98.47 1518.16,-85.11 1444.29,-79.78"/>
<polygon fill="#63b8ff" stroke="#63b8ff" points="1831.96,-124.88 1842.38,-122.96 1833.04,-117.96 1831.96,-124.88"/>
</a>
</g>
</g>
<!-- Node19&#45;&gt;Node3 -->
<g id="edge33_Node000019_Node000003" class="edge">
<title>Node19&#45;&gt;Node3</title>
<g id="a_edge33_Node000019_Node000003"><a xlink:title=" ">
<path fill="none" stroke="#63b8ff" d="M1967.16,-121.57C1764.54,-95.44 1534.65,-83.02 1444.4,-78.82"/>
<polygon fill="#63b8ff" stroke="#63b8ff" points="1966.45,-125.01 1976.82,-122.83 1967.35,-118.07 1966.45,-125.01"/>
</a>
</g>
</g>
<!-- Node21&#45;&gt;Node3 -->
<g id="edge36_Node000021_Node000003" class="edge">
<title>Node21&#45;&gt;Node3</title>
<g id="a_edge36_Node000021_Node000003"><a xlink:title=" ">
<path fill="none" stroke="#63b8ff" d="M2120.92,-121.58C1857.06,-86.37 1551.23,-79.08 1444.39,-77.53"/>
<polygon fill="#63b8ff" stroke="#63b8ff" points="2120.38,-125.04 2130.76,-122.91 2121.32,-118.1 2120.38,-125.04"/>
</a>
</g>
</g>
<!-- Node22&#45;&gt;Node3 -->
<g id="edge39_Node000022_Node000003" class="edge">
<title>Node22&#45;&gt;Node3</title>
<g id="a_edge39_Node000022_Node000003"><a xlink:title=" ">
<path fill="none" stroke="#63b8ff" d="M1226.25,-182.32C1199.5,-166.46 1172.58,-143.5 1190.28,-121.75 1212.05,-94.99 1310.51,-83.76 1366.33,-79.48"/>
<polygon fill="#63b8ff" stroke="#63b8ff" points="1224.26,-185.22 1234.69,-187.08 1227.7,-179.12 1224.26,-185.22"/>
</a>
</g>
</g>
<!-- Node22&#45;&gt;Node7 -->
<g id="edge38_Node000022_Node000007" class="edge">
<title>Node22&#45;&gt;Node7</title>
<g id="a_edge38_Node000022_Node000007"><a xlink:title=" ">
<path fill="none" stroke="#63b8ff" d="M1197.91,-187.89C1099.97,-170.45 998.02,-155.97 932.07,-147.09"/>
<polygon fill="#63b8ff" stroke="#63b8ff" points="1197.26,-191.33 1207.72,-189.65 1198.5,-184.44 1197.26,-191.33"/>
</a>
</g>
</g>
<!-- Node23&#45;&gt;Node7 -->
<g id="edge41_Node000023_Node000007" class="edge">
<title>Node23&#45;&gt;Node7</title>
<g id="a_edge41_Node000023_Node000007"><a xlink:title=" ">
<path fill="none" stroke="#63b8ff" d="M304.63,-188.02C485.46,-161.35 686.77,-147.58 791.23,-141.63"/>
<polygon fill="#63b8ff" stroke="#63b8ff" points="304.17,-184.55 294.8,-189.49 305.21,-191.47 304.17,-184.55"/>
</a>
</g>
</g>
<!-- Node24&#45;&gt;Node3 -->
<g id="edge44_Node000024_Node000003" class="edge">
<title>Node24&#45;&gt;Node3</title>
<g id="a_edge44_Node000024_Node000003"><a xlink:title=" ">
<path fill="none" stroke="#63b8ff" d="M1331.95,-187.29C1275.52,-174.57 1204.51,-157.67 1200.28,-152.25 1191.93,-141.57 1191.77,-132.31 1200.28,-121.75 1220.73,-96.37 1312.81,-84.66 1366.34,-79.92"/>
<polygon fill="#63b8ff" stroke="#63b8ff" points="1331.02,-190.66 1341.54,-189.44 1332.55,-183.83 1331.02,-190.66"/>
</a>
</g>
</g>
<!-- Node24&#45;&gt;Node7 -->
<g id="edge43_Node000024_Node000007" class="edge">
<title>Node24&#45;&gt;Node7</title>
<g id="a_edge43_Node000024_Node000007"><a xlink:title=" ">
<path fill="none" stroke="#63b8ff" d="M1332.2,-188.03C1184.77,-165.01 1023.72,-150.46 933.35,-143.26"/>
<polygon fill="#63b8ff" stroke="#63b8ff" points="1331.32,-191.43 1341.74,-189.54 1332.41,-184.52 1331.32,-191.43"/>
</a>
</g>
</g>
<!-- Node26&#45;&gt;Node7 -->
<g id="edge47_Node000026_Node000007" class="edge">
<title>Node26&#45;&gt;Node7</title>
<g id="a_edge47_Node000026_Node000007"><a xlink:title=" ">
<path fill="none" stroke="#63b8ff" d="M438.67,-187.95C568.86,-166.87 709.16,-152.15 791.52,-144.33"/>
<polygon fill="#63b8ff" stroke="#63b8ff" points="438.11,-184.5 428.81,-189.57 439.25,-191.41 438.11,-184.5"/>
</a>
</g>
</g>
<!-- Node27&#45;&gt;Node7 -->
<g id="edge49_Node000027_Node000007" class="edge">
<title>Node27&#45;&gt;Node7</title>
<g id="a_edge49_Node000027_Node000007"><a xlink:title=" ">
<path fill="none" stroke="#63b8ff" d="M572.72,-188.73C573.58,-188.57 574.43,-188.41 575.28,-188.25 656.33,-173.13 750.52,-156.9 808.26,-147.09"/>
<polygon fill="#63b8ff" stroke="#63b8ff" points="572.07,-185.29 562.9,-190.6 573.38,-192.17 572.07,-185.29"/>
</a>
</g>
</g>
</g>
</svg>
