<?xml version="1.0" encoding="UTF-8" standalone="no"?>
<!DOCTYPE svg PUBLIC "-//W3C//DTD SVG 1.1//EN"
 "http://www.w3.org/Graphics/SVG/1.1/DTD/svg11.dtd">
<!-- Generated by graphviz version 14.1.2 (20260124.0452)
 -->
<!-- Title: include/Config.hpp Pages: 1 -->
<svg width="2065pt" height="337pt"
 viewBox="0.00 0.00 2065.00 337.00" xmlns="http://www.w3.org/2000/svg" xmlns:xlink="http://www.w3.org/1999/xlink">
<g id="graph0" class="graph" transform="scale(1 1) rotate(0) translate(4 333.25)">
<title>include/Config.hpp</title>
<!-- Node1 -->
<g id="Node000001" class="node">
<title>Node1</title>
<g id="a_Node000001"><a xlink:title=" ">
<polygon fill="#999999" stroke="#666666" points="895,-329.25 798,-329.25 798,-310 895,-310 895,-329.25"/>
<text xml:space="preserve" text-anchor="middle" x="846.5" y="-315.75" font-family="Helvetica,sans-Serif" font-size="10.00">include/Config.hpp</text>
</a>
</g>
</g>
<!-- Node2 -->
<g id="Node000002" class="node">
<title>Node2</title>
<g id="a_Node000002"><a xlink:href="_autonomous_routine_8hpp.html" target="_top" xlink:title=" ">
<polygon fill="white" stroke="#666666" points="145,-152.25 0,-152.25 0,-121.75 145,-121.75 145,-152.25"/>
<text xml:space="preserve" text-anchor="start" x="8" y="-138.75" font-family="Helvetica,sans-Serif" font-size="10.00">src/Autonomous/Autonomous</text>
<text xml:space="preserve" text-anchor="middle" x="72.5" y="-127.5" font-family="Helvetica,sans-Serif" font-size="10.00">Routine.hpp</text>
</a>
</g>
</g>
<!-- Node1&#45;&gt;Node2 -->
<g id="edge1_Node000001_Node000002" class="edge">
<title>Node1&#45;&gt;Node2</title>
<g id="a_edge1_Node000001_Node000002"><a xlink:title=" ">
<path fill="none" stroke="#63b8ff" d="M786.22,-317.62C646.05,-314.78 301.64,-304.81 190.5,-274 138.54,-259.6 113.41,-262.92 82.5,-218.75 68.73,-199.07 68.84,-169.92 70.47,-152.55"/>
<polygon fill="#63b8ff" stroke="#63b8ff" points="785.97,-321.12 796.04,-317.81 786.11,-314.12 785.97,-321.12"/>
</a>
</g>
</g>
<!-- Node3 -->
<g id="Node000003" class="node">
<title>Node3</title>
<g id="a_Node000003"><a xlink:href="_robot_8hpp.html" target="_top" xlink:title=" ">
<polygon fill="white" stroke="#666666" points="880.25,-85.75 802.75,-85.75 802.75,-66.5 880.25,-66.5 880.25,-85.75"/>
<text xml:space="preserve" text-anchor="middle" x="841.5" y="-72.25" font-family="Helvetica,sans-Serif" font-size="10.00">src/Robot.hpp</text>
</a>
</g>
</g>
<!-- Node1&#45;&gt;Node3 -->
<g id="edge10_Node000001_Node000003" class="edge">
<title>Node1&#45;&gt;Node3</title>
<g id="a_edge10_Node000001_Node000003"><a xlink:title=" ">
<path fill="none" stroke="#63b8ff" d="M786.28,-317.56C611.62,-312.57 126.48,-284.09 276.5,-121.75 312.1,-83.22 680.45,-77.92 802.47,-77.22"/>
<polygon fill="#63b8ff" stroke="#63b8ff" points="785.97,-321.05 796.06,-317.82 786.16,-314.06 785.97,-321.05"/>
</a>
</g>
</g>
<!-- Node6 -->
<g id="Node000006" class="node">
<title>Node6</title>
<g id="a_Node000006"><a xlink:href="_composite_step_8hpp.html" target="_top" xlink:title=" ">
<polygon fill="white" stroke="#666666" points="207.38,-218.75 91.62,-218.75 91.62,-188.25 207.38,-188.25 207.38,-218.75"/>
<text xml:space="preserve" text-anchor="start" x="99.62" y="-205.25" font-family="Helvetica,sans-Serif" font-size="10.00">src/Autonomous/Steps</text>
<text xml:space="preserve" text-anchor="middle" x="149.5" y="-194" font-family="Helvetica,sans-Serif" font-size="10.00">/CompositeStep.hpp</text>
</a>
</g>
</g>
<!-- Node1&#45;&gt;Node6 -->
<g id="edge5_Node000001_Node000006" class="edge">
<title>Node1&#45;&gt;Node6</title>
<g id="a_edge5_Node000001_Node000006"><a xlink:title=" ">
<path fill="none" stroke="#63b8ff" d="M786.36,-316.66C639.75,-311.55 272.22,-296.62 221.5,-274 194.68,-262.04 171.9,-235.58 159.5,-218.98"/>
<polygon fill="#63b8ff" stroke="#63b8ff" points="786.15,-320.16 796.26,-317 786.39,-313.16 786.15,-320.16"/>
</a>
</g>
</g>
<!-- Node9 -->
<g id="Node000009" class="node">
<title>Node9</title>
<g id="a_Node000009"><a xlink:href="_drive_8hpp.html" target="_top" xlink:title=" ">
<polygon fill="white" stroke="#666666" points="911.88,-274 781.12,-274 781.12,-254.75 911.88,-254.75 911.88,-274"/>
<text xml:space="preserve" text-anchor="middle" x="846.5" y="-260.5" font-family="Helvetica,sans-Serif" font-size="10.00">src/subsystems/Drive.hpp</text>
</a>
</g>
</g>
<!-- Node1&#45;&gt;Node9 -->
<g id="edge11_Node000001_Node000009" class="edge">
<title>Node1&#45;&gt;Node9</title>
<g id="a_edge11_Node000001_Node000009"><a xlink:title=" ">
<path fill="none" stroke="#63b8ff" d="M846.5,-298.38C846.5,-290.09 846.5,-280.92 846.5,-274.36"/>
<polygon fill="#63b8ff" stroke="#63b8ff" points="843,-298.32 846.5,-308.32 850,-298.32 843,-298.32"/>
</a>
</g>
</g>
<!-- Node24 -->
<g id="Node000024" class="node">
<title>Node24</title>
<g id="a_Node000024"><a xlink:href="_miner_8hpp.html" target="_top" xlink:title=" ">
<polygon fill="white" stroke="#666666" points="1778.88,-274 1648.12,-274 1648.12,-254.75 1778.88,-254.75 1778.88,-274"/>
<text xml:space="preserve" text-anchor="middle" x="1713.5" y="-260.5" font-family="Helvetica,sans-Serif" font-size="10.00">src/subsystems/Miner.hpp</text>
</a>
</g>
</g>
<!-- Node1&#45;&gt;Node24 -->
<g id="edge44_Node000001_Node000024" class="edge">
<title>Node1&#45;&gt;Node24</title>
<g id="a_edge44_Node000001_Node000024"><a xlink:title=" ">
<path fill="none" stroke="#63b8ff" d="M906.56,-314.94C1063.42,-305.3 1484.57,-279.44 1647.69,-269.42"/>
<polygon fill="#63b8ff" stroke="#63b8ff" points="906.56,-311.43 896.79,-315.54 906.99,-318.42 906.56,-311.43"/>
</a>
</g>
</g>
<!-- Node25 -->
<g id="Node000025" class="node">
<title>Node25</title>
<g id="a_Node000025"><a xlink:href="_shooter_8hpp.html" target="_top" xlink:title=" ">
<polygon fill="white" stroke="#666666" points="2053.75,-213.12 1913.25,-213.12 1913.25,-193.88 2053.75,-193.88 2053.75,-213.12"/>
<text xml:space="preserve" text-anchor="middle" x="1983.5" y="-199.62" font-family="Helvetica,sans-Serif" font-size="10.00">src/subsystems/Shooter.hpp</text>
</a>
</g>
</g>
<!-- Node1&#45;&gt;Node25 -->
<g id="edge48_Node000001_Node000025" class="edge">
<title>Node1&#45;&gt;Node25</title>
<g id="a_edge48_Node000001_Node000025"><a xlink:title=" ">
<path fill="none" stroke="#63b8ff" d="M906.8,-319.05C1087.17,-319.81 1620.29,-318.15 1787.5,-274 1805.8,-269.17 1807.98,-261.92 1825.5,-254.75 1867.33,-237.64 1917.28,-222.61 1949.65,-213.55"/>
<polygon fill="#63b8ff" stroke="#63b8ff" points="906.97,-315.55 896.95,-319.01 906.94,-322.55 906.97,-315.55"/>
</a>
</g>
</g>
<!-- Node28 -->
<g id="Node000028" class="node">
<title>Node28</title>
<g id="a_Node000028"><a xlink:href="_odometry_8cpp.html" target="_top" xlink:title=" ">
<polygon fill="white" stroke="#666666" points="1948.25,-274 1834.75,-274 1834.75,-254.75 1948.25,-254.75 1948.25,-274"/>
<text xml:space="preserve" text-anchor="middle" x="1891.5" y="-260.5" font-family="Helvetica,sans-Serif" font-size="10.00">src/utils/Odometry.cpp</text>
</a>
</g>
</g>
<!-- Node1&#45;&gt;Node28 -->
<g id="edge55_Node000001_Node000028" class="edge">
<title>Node1&#45;&gt;Node28</title>
<g id="a_edge55_Node000001_Node000028"><a xlink:title=" ">
<path fill="none" stroke="#63b8ff" d="M906.91,-317.43C1059.98,-314.07 1475.46,-302.82 1820.5,-274 1825.08,-273.62 1829.82,-273.17 1834.57,-272.67"/>
<polygon fill="#63b8ff" stroke="#63b8ff" points="906.92,-313.93 897,-317.65 907.07,-320.93 906.92,-313.93"/>
</a>
</g>
</g>
<!-- Node2&#45;&gt;Node3 -->
<g id="edge2_Node000002_Node000003" class="edge">
<title>Node2&#45;&gt;Node3</title>
<g id="a_edge2_Node000002_Node000003"><a xlink:title=" ">
<path fill="none" stroke="#63b8ff" d="M156.25,-123.91C162.75,-123.13 169.23,-122.39 175.5,-121.75 412.98,-97.4 699.51,-83.34 802.38,-78.78"/>
<polygon fill="#63b8ff" stroke="#63b8ff" points="156.28,-120.38 146.79,-125.09 157.15,-127.33 156.28,-120.38"/>
</a>
</g>
</g>
<!-- Node4 -->
<g id="Node000004" class="node">
<title>Node4</title>
<g id="a_Node000004"><a xlink:href="_strategy_controller_step_8hpp.html" target="_top" xlink:title=" ">
<polygon fill="white" stroke="#666666" points="848.88,-30.5 712.12,-30.5 712.12,0 848.88,0 848.88,-30.5"/>
<text xml:space="preserve" text-anchor="start" x="720.12" y="-17" font-family="Helvetica,sans-Serif" font-size="10.00">src/Autonomous/Steps</text>
<text xml:space="preserve" text-anchor="middle" x="780.5" y="-5.75" font-family="Helvetica,sans-Serif" font-size="10.00">/StrategyControllerStep.hpp</text>
</a>
</g>
</g>
<!-- Node3&#45;&gt;Node4 -->
<g id="edge3_Node000003_Node000004" class="edge">
<title>Node3&#45;&gt;Node4</title>
<g id="a_edge3_Node000003_Node000004"><a xlink:title=" ">
<path fill="none" stroke="#63b8ff" d="M824.01,-58.25C815.02,-49.57 804.17,-39.1 795.56,-30.78"/>
<polygon fill="#63b8ff" stroke="#63b8ff" points="821.52,-60.71 831.15,-65.13 826.38,-55.67 821.52,-60.71"/>
</a>
</g>
</g>
<!-- Node5 -->
<g id="Node000005" class="node">
<title>Node5</title>
<g id="a_Node000005"><a xlink:href="main_8cpp.html" target="_top" xlink:title=" ">
<polygon fill="white" stroke="#666666" points="939.62,-24.88 867.38,-24.88 867.38,-5.63 939.62,-5.63 939.62,-24.88"/>
<text xml:space="preserve" text-anchor="middle" x="903.5" y="-11.38" font-family="Helvetica,sans-Serif" font-size="10.00">src/main.cpp</text>
</a>
</g>
</g>
<!-- Node3&#45;&gt;Node5 -->
<g id="edge4_Node000003_Node000005" class="edge">
<title>Node3&#45;&gt;Node5</title>
<g id="a_edge4_Node000003_Node000005"><a xlink:title=" ">
<path fill="none" stroke="#63b8ff" d="M859.22,-58.3C870.54,-47.55 884.77,-34.04 893.99,-25.28"/>
<polygon fill="#63b8ff" stroke="#63b8ff" points="856.86,-55.72 852.01,-65.14 861.68,-60.79 856.86,-55.72"/>
</a>
</g>
</g>
<!-- Node6&#45;&gt;Node3 -->
<g id="edge9_Node000006_Node000003" class="edge">
<title>Node6&#45;&gt;Node3</title>
<g id="a_edge9_Node000006_Node000003"><a xlink:title=" ">
<path fill="none" stroke="#63b8ff" d="M163.51,-178.52C176.07,-159.5 196.36,-134.12 221.5,-121.75 273.49,-96.17 674.55,-82.1 802.44,-78.24"/>
<polygon fill="#63b8ff" stroke="#63b8ff" points="160.69,-176.44 158.32,-186.77 166.61,-180.17 160.69,-176.44"/>
</a>
</g>
</g>
<!-- Node7 -->
<g id="Node000007" class="node">
<title>Node7</title>
<g id="a_Node000007"><a xlink:href="_planner_8hpp.html" target="_top" xlink:title=" ">
<polygon fill="white" stroke="#666666" points="1227.12,-146.62 1085.88,-146.62 1085.88,-127.38 1227.12,-127.38 1227.12,-146.62"/>
<text xml:space="preserve" text-anchor="middle" x="1156.5" y="-133.12" font-family="Helvetica,sans-Serif" font-size="10.00">src/Autonomous/Planner.hpp</text>
</a>
</g>
</g>
<!-- Node6&#45;&gt;Node7 -->
<g id="edge6_Node000006_Node000007" class="edge">
<title>Node6&#45;&gt;Node7</title>
<g id="a_edge6_Node000006_Node000007"><a xlink:title=" ">
<path fill="none" stroke="#63b8ff" d="M219.01,-198.05C402.82,-186.27 900.24,-154.41 1085.61,-142.54"/>
<polygon fill="#63b8ff" stroke="#63b8ff" points="218.89,-194.55 209.14,-198.68 219.34,-201.53 218.89,-194.55"/>
</a>
</g>
</g>
<!-- Node7&#45;&gt;Node3 -->
<g id="edge8_Node000007_Node000003" class="edge">
<title>Node7&#45;&gt;Node3</title>
<g id="a_edge8_Node000007_Node000003"><a xlink:title=" ">
<path fill="none" stroke="#63b8ff" d="M1096.94,-124.87C1033.5,-113.01 934.9,-94.58 880.63,-84.44"/>
<polygon fill="#63b8ff" stroke="#63b8ff" points="1096.01,-128.25 1106.48,-126.65 1097.3,-121.37 1096.01,-128.25"/>
</a>
</g>
</g>
<!-- Node8 -->
<g id="Node000008" class="node">
<title>Node8</title>
<g id="a_Node000008"><a xlink:href="_planner_8cpp.html" target="_top" xlink:title=" ">
<polygon fill="white" stroke="#666666" points="1227.12,-85.75 1085.88,-85.75 1085.88,-66.5 1227.12,-66.5 1227.12,-85.75"/>
<text xml:space="preserve" text-anchor="middle" x="1156.5" y="-72.25" font-family="Helvetica,sans-Serif" font-size="10.00">src/Autonomous/Planner.cpp</text>
</a>
</g>
</g>
<!-- Node7&#45;&gt;Node8 -->
<g id="edge7_Node000007_Node000008" class="edge">
<title>Node7&#45;&gt;Node8</title>
<g id="a_edge7_Node000007_Node000008"><a xlink:title=" ">
<path fill="none" stroke="#63b8ff" d="M1156.5,-115.57C1156.5,-105.54 1156.5,-93.96 1156.5,-86.15"/>
<polygon fill="#63b8ff" stroke="#63b8ff" points="1153,-115.54 1156.5,-125.54 1160,-115.54 1153,-115.54"/>
</a>
</g>
</g>
<!-- Node9&#45;&gt;Node3 -->
<g id="edge43_Node000009_Node000003" class="edge">
<title>Node9&#45;&gt;Node3</title>
<g id="a_edge43_Node000009_Node000003"><a xlink:title=" ">
<path fill="none" stroke="#63b8ff" d="M769.61,-263.63C648.26,-262.86 418.8,-256.28 347.5,-218.75 303.64,-195.67 258.91,-158.19 292.5,-121.75 326.94,-84.4 682.48,-78.31 802.32,-77.32"/>
<polygon fill="#63b8ff" stroke="#63b8ff" points="769.47,-267.13 779.49,-263.68 769.51,-260.13 769.47,-267.13"/>
</a>
</g>
</g>
<!-- Node9&#45;&gt;Node7 -->
<g id="edge12_Node000009_Node000007" class="edge">
<title>Node9&#45;&gt;Node7</title>
<g id="a_edge12_Node000009_Node000007"><a xlink:title=" ">
<path fill="none" stroke="#63b8ff" d="M896.3,-251.35C922.31,-243.96 954.12,-233.12 980.5,-218.75 999.52,-208.39 999.63,-198.87 1018.5,-188.25 1051.83,-169.49 1093.48,-155.46 1122.26,-147.06"/>
<polygon fill="#63b8ff" stroke="#63b8ff" points="895.71,-247.88 887,-253.91 897.57,-254.63 895.71,-247.88"/>
</a>
</g>
</g>
<!-- Node10 -->
<g id="Node000010" class="node">
<title>Node10</title>
<g id="a_Node000010"><a xlink:href="_accelerate_straight_line_8hpp.html" target="_top" xlink:title=" ">
<polygon fill="white" stroke="#666666" points="437.5,-152.25 301.5,-152.25 301.5,-121.75 437.5,-121.75 437.5,-152.25"/>
<text xml:space="preserve" text-anchor="start" x="309.5" y="-138.75" font-family="Helvetica,sans-Serif" font-size="10.00">src/Autonomous/Steps</text>
<text xml:space="preserve" text-anchor="middle" x="369.5" y="-127.5" font-family="Helvetica,sans-Serif" font-size="10.00">/AccelerateStraightLine.hpp</text>
</a>
</g>
</g>
<!-- Node9&#45;&gt;Node10 -->
<g id="edge13_Node000009_Node000010" class="edge">
<title>Node9&#45;&gt;Node10</title>
<g id="a_edge13_Node000009_Node000010"><a xlink:title=" ">
<path fill="none" stroke="#63b8ff" d="M769.19,-261.87C638.99,-258.53 387.46,-248.29 360.5,-218.75 344.15,-200.83 353.83,-170.54 361.95,-152.59"/>
<polygon fill="#63b8ff" stroke="#63b8ff" points="769.04,-265.37 779.13,-262.12 769.22,-258.37 769.04,-265.37"/>
</a>
</g>
</g>
<!-- Node11 -->
<g id="Node000011" class="node">
<title>Node11</title>
<g id="a_Node000011"><a xlink:href="_advance_cycle_step_8hpp.html" target="_top" xlink:title=" ">
<polygon fill="white" stroke="#666666" points="1149.38,-218.75 1027.62,-218.75 1027.62,-188.25 1149.38,-188.25 1149.38,-218.75"/>
<text xml:space="preserve" text-anchor="start" x="1035.62" y="-205.25" font-family="Helvetica,sans-Serif" font-size="10.00">src/Autonomous/Steps</text>
<text xml:space="preserve" text-anchor="middle" x="1088.5" y="-194" font-family="Helvetica,sans-Serif" font-size="10.00">/AdvanceCycleStep.hpp</text>
</a>
</g>
</g>
<!-- Node9&#45;&gt;Node11 -->
<g id="edge15_Node000009_Node000011" class="edge">
<title>Node9&#45;&gt;Node11</title>
<g id="a_edge15_Node000009_Node000011"><a xlink:title=" ">
<path fill="none" stroke="#63b8ff" d="M894.65,-251.66C932.99,-242.33 986.87,-229.22 1028.1,-219.19"/>
<polygon fill="#63b8ff" stroke="#63b8ff" points="894.14,-248.18 885.25,-253.95 895.8,-254.98 894.14,-248.18"/>
</a>
</g>
</g>
<!-- Node12 -->
<g id="Node000012" class="node">
<title>Node12</title>
<g id="a_Node000012"><a xlink:href="_detect_block_8hpp.html" target="_top" xlink:title=" ">
<polygon fill="white" stroke="#666666" points="1283.38,-218.75 1167.62,-218.75 1167.62,-188.25 1283.38,-188.25 1283.38,-218.75"/>
<text xml:space="preserve" text-anchor="start" x="1175.62" y="-205.25" font-family="Helvetica,sans-Serif" font-size="10.00">src/Autonomous/Steps</text>
<text xml:space="preserve" text-anchor="middle" x="1225.5" y="-194" font-family="Helvetica,sans-Serif" font-size="10.00">/DetectBlock.hpp</text>
</a>
</g>
</g>
<!-- Node9&#45;&gt;Node12 -->
<g id="edge17_Node000009_Node000012" class="edge">
<title>Node9&#45;&gt;Node12</title>
<g id="a_edge17_Node000009_Node000012"><a xlink:title=" ">
<path fill="none" stroke="#63b8ff" d="M923.22,-253.87C986.52,-245.68 1078.58,-232.95 1158.5,-218.75 1161.43,-218.23 1164.42,-217.68 1167.44,-217.1"/>
<polygon fill="#63b8ff" stroke="#63b8ff" points="923.11,-250.35 913.64,-255.1 924.01,-257.3 923.11,-250.35"/>
</a>
</g>
</g>
<!-- Node13 -->
<g id="Node000013" class="node">
<title>Node13</title>
<g id="a_Node000013"><a xlink:href="_drive_arc_8hpp.html" target="_top" xlink:title=" ">
<polygon fill="white" stroke="#666666" points="1417.38,-218.75 1301.62,-218.75 1301.62,-188.25 1417.38,-188.25 1417.38,-218.75"/>
<text xml:space="preserve" text-anchor="start" x="1309.62" y="-205.25" font-family="Helvetica,sans-Serif" font-size="10.00">src/Autonomous/Steps</text>
<text xml:space="preserve" text-anchor="middle" x="1359.5" y="-194" font-family="Helvetica,sans-Serif" font-size="10.00">/DriveArc.hpp</text>
</a>
</g>
</g>
<!-- Node9&#45;&gt;Node13 -->
<g id="edge19_Node000009_Node000013" class="edge">
<title>Node9&#45;&gt;Node13</title>
<g id="a_edge19_Node000009_Node000013"><a xlink:title=" ">
<path fill="none" stroke="#63b8ff" d="M923.52,-258.25C1012.68,-251.72 1163.78,-238.82 1292.5,-218.75 1295.44,-218.29 1298.44,-217.79 1301.47,-217.25"/>
<polygon fill="#63b8ff" stroke="#63b8ff" points="923.39,-254.75 913.67,-258.96 923.89,-261.73 923.39,-254.75"/>
</a>
</g>
</g>
<!-- Node14 -->
<g id="Node000014" class="node">
<title>Node14</title>
<g id="a_Node000014"><a xlink:href="_drive_distance_8hpp.html" target="_top" xlink:title=" ">
<polygon fill="white" stroke="#666666" points="569.38,-218.75 453.62,-218.75 453.62,-188.25 569.38,-188.25 569.38,-218.75"/>
<text xml:space="preserve" text-anchor="start" x="461.62" y="-205.25" font-family="Helvetica,sans-Serif" font-size="10.00">src/Autonomous/Steps</text>
<text xml:space="preserve" text-anchor="middle" x="511.5" y="-194" font-family="Helvetica,sans-Serif" font-size="10.00">/DriveDistance.hpp</text>
</a>
</g>
</g>
<!-- Node9&#45;&gt;Node14 -->
<g id="edge21_Node000009_Node000014" class="edge">
<title>Node9&#45;&gt;Node14</title>
<g id="a_edge21_Node000009_Node000014"><a xlink:title=" ">
<path fill="none" stroke="#63b8ff" d="M775.82,-252.49C721.7,-243.94 645.24,-231.4 578.5,-218.75 575.58,-218.2 572.59,-217.62 569.57,-217.02"/>
<polygon fill="#63b8ff" stroke="#63b8ff" points="775.1,-255.92 785.53,-254.01 776.19,-249 775.1,-255.92"/>
</a>
</g>
</g>
<!-- Node15 -->
<g id="Node000015" class="node">
<title>Node15</title>
<g id="a_Node000015"><a xlink:href="_drive_line_until_wall_8hpp.html" target="_top" xlink:title=" ">
<polygon fill="white" stroke="#666666" points="573.5,-152.25 455.5,-152.25 455.5,-121.75 573.5,-121.75 573.5,-152.25"/>
<text xml:space="preserve" text-anchor="start" x="463.5" y="-138.75" font-family="Helvetica,sans-Serif" font-size="10.00">src/Autonomous/Steps</text>
<text xml:space="preserve" text-anchor="middle" x="514.5" y="-127.5" font-family="Helvetica,sans-Serif" font-size="10.00">/DriveLineUntilWall.hpp</text>
</a>
</g>
</g>
<!-- Node9&#45;&gt;Node15 -->
<g id="edge24_Node000009_Node000015" class="edge">
<title>Node9&#45;&gt;Node15</title>
<g id="a_edge24_Node000009_Node000015"><a xlink:title=" ">
<path fill="none" stroke="#63b8ff" d="M769.79,-261.73C641.99,-258.18 396.81,-247.64 370.5,-218.75 361.37,-208.73 362.65,-199.3 370.5,-188.25 380.85,-173.68 420.33,-160.5 455.34,-151.3"/>
<polygon fill="#63b8ff" stroke="#63b8ff" points="769.43,-265.22 779.52,-261.99 769.62,-258.22 769.43,-265.22"/>
</a>
</g>
</g>
<!-- Node16 -->
<g id="Node000016" class="node">
<title>Node16</title>
<g id="a_Node000016"><a xlink:href="_drive_radius_angle_8hpp.html" target="_top" xlink:title=" ">
<polygon fill="white" stroke="#666666" points="707.75,-152.25 591.25,-152.25 591.25,-121.75 707.75,-121.75 707.75,-152.25"/>
<text xml:space="preserve" text-anchor="start" x="599.25" y="-138.75" font-family="Helvetica,sans-Serif" font-size="10.00">src/Autonomous/Steps</text>
<text xml:space="preserve" text-anchor="middle" x="649.5" y="-127.5" font-family="Helvetica,sans-Serif" font-size="10.00">/DriveRadiusAngle.hpp</text>
</a>
</g>
</g>
<!-- Node9&#45;&gt;Node16 -->
<g id="edge26_Node000009_Node000016" class="edge">
<title>Node9&#45;&gt;Node16</title>
<g id="a_edge26_Node000009_Node000016"><a xlink:title=" ">
<path fill="none" stroke="#63b8ff" d="M769.42,-261.11C649.25,-256.77 428.46,-245.25 404.5,-218.75 311.92,-116.36 281.9,-214.61 582.5,-152.25 585.29,-151.67 588.15,-151.07 591.04,-150.47"/>
<polygon fill="#63b8ff" stroke="#63b8ff" points="769.09,-264.6 779.21,-261.45 769.34,-257.6 769.09,-264.6"/>
</a>
</g>
</g>
<!-- Node17 -->
<g id="Node000017" class="node">
<title>Node17</title>
<g id="a_Node000017"><a xlink:href="_drive_radius_at_velocity_8hpp.html" target="_top" xlink:title=" ">
<polygon fill="white" stroke="#666666" points="861.12,-152.25 725.88,-152.25 725.88,-121.75 861.12,-121.75 861.12,-152.25"/>
<text xml:space="preserve" text-anchor="start" x="733.88" y="-138.75" font-family="Helvetica,sans-Serif" font-size="10.00">src/Autonomous/Steps</text>
<text xml:space="preserve" text-anchor="middle" x="793.5" y="-127.5" font-family="Helvetica,sans-Serif" font-size="10.00">/DriveRadiusAtVelocity.hpp</text>
</a>
</g>
</g>
<!-- Node9&#45;&gt;Node17 -->
<g id="edge28_Node000009_Node000017" class="edge">
<title>Node9&#45;&gt;Node17</title>
<g id="a_edge28_Node000009_Node000017"><a xlink:title=" ">
<path fill="none" stroke="#63b8ff" d="M769.27,-260.25C658.58,-254.98 465.73,-242.47 444.5,-218.75 380.34,-147.07 327.37,-213.97 716.5,-152.25 719.45,-151.78 722.47,-151.29 725.51,-150.78"/>
<polygon fill="#63b8ff" stroke="#63b8ff" points="769.04,-263.75 779.19,-260.72 769.37,-256.75 769.04,-263.75"/>
</a>
</g>
</g>
<!-- Node18 -->
<g id="Node000018" class="node">
<title>Node18</title>
<g id="a_Node000018"><a xlink:href="_drive_until_wall_8hpp.html" target="_top" xlink:title=" ">
<polygon fill="white" stroke="#666666" points="837.38,-218.75 721.62,-218.75 721.62,-188.25 837.38,-188.25 837.38,-218.75"/>
<text xml:space="preserve" text-anchor="start" x="729.62" y="-205.25" font-family="Helvetica,sans-Serif" font-size="10.00">src/Autonomous/Steps</text>
<text xml:space="preserve" text-anchor="middle" x="779.5" y="-194" font-family="Helvetica,sans-Serif" font-size="10.00">/DriveUntilWall.hpp</text>
</a>
</g>
</g>
<!-- Node9&#45;&gt;Node18 -->
<g id="edge30_Node000009_Node000018" class="edge">
<title>Node9&#45;&gt;Node18</title>
<g id="a_edge30_Node000009_Node000018"><a xlink:title=" ">
<path fill="none" stroke="#63b8ff" d="M827.91,-247.04C817.92,-238.26 805.7,-227.52 796.04,-219.03"/>
<polygon fill="#63b8ff" stroke="#63b8ff" points="825.36,-249.46 835.19,-253.43 829.99,-244.2 825.36,-249.46"/>
</a>
</g>
</g>
<!-- Node19 -->
<g id="Node000019" class="node">
<title>Node19</title>
<g id="a_Node000019"><a xlink:href="_follow_line_step_8hpp.html" target="_top" xlink:title=" ">
<polygon fill="white" stroke="#666666" points="703.38,-218.75 587.62,-218.75 587.62,-188.25 703.38,-188.25 703.38,-218.75"/>
<text xml:space="preserve" text-anchor="start" x="595.62" y="-205.25" font-family="Helvetica,sans-Serif" font-size="10.00">src/Autonomous/Steps</text>
<text xml:space="preserve" text-anchor="middle" x="645.5" y="-194" font-family="Helvetica,sans-Serif" font-size="10.00">/FollowLineStep.hpp</text>
</a>
</g>
</g>
<!-- Node9&#45;&gt;Node19 -->
<g id="edge31_Node000009_Node000019" class="edge">
<title>Node9&#45;&gt;Node19</title>
<g id="a_edge31_Node000009_Node000019"><a xlink:title=" ">
<path fill="none" stroke="#63b8ff" d="M804.85,-251.18C773.13,-241.88 729.32,-229.05 695.67,-219.19"/>
<polygon fill="#63b8ff" stroke="#63b8ff" points="803.5,-254.43 814.08,-253.88 805.47,-247.71 803.5,-254.43"/>
</a>
</g>
</g>
<!-- Node20 -->
<g id="Node000020" class="node">
<title>Node20</title>
<g id="a_Node000020"><a xlink:href="_index_block_8hpp.html" target="_top" xlink:title=" ">
<polygon fill="white" stroke="#666666" points="1551.38,-218.75 1435.62,-218.75 1435.62,-188.25 1551.38,-188.25 1551.38,-218.75"/>
<text xml:space="preserve" text-anchor="start" x="1443.62" y="-205.25" font-family="Helvetica,sans-Serif" font-size="10.00">src/Autonomous/Steps</text>
<text xml:space="preserve" text-anchor="middle" x="1493.5" y="-194" font-family="Helvetica,sans-Serif" font-size="10.00">/IndexBlock.hpp</text>
</a>
</g>
</g>
<!-- Node9&#45;&gt;Node20 -->
<g id="edge34_Node000009_Node000020" class="edge">
<title>Node9&#45;&gt;Node20</title>
<g id="a_edge34_Node000009_Node000020"><a xlink:title=" ">
<path fill="none" stroke="#63b8ff" d="M923.49,-260.71C1034.92,-256.11 1247.41,-244.57 1426.5,-218.75 1429.44,-218.33 1432.45,-217.85 1435.48,-217.33"/>
<polygon fill="#63b8ff" stroke="#63b8ff" points="923.41,-257.21 913.56,-261.11 923.69,-264.2 923.41,-257.21"/>
</a>
</g>
</g>
<!-- Node21 -->
<g id="Node000021" class="node">
<title>Node21</title>
<g id="a_Node000021"><a xlink:href="_mine_block_8hpp.html" target="_top" xlink:title=" ">
<polygon fill="white" stroke="#666666" points="1857.38,-218.75 1741.62,-218.75 1741.62,-188.25 1857.38,-188.25 1857.38,-218.75"/>
<text xml:space="preserve" text-anchor="start" x="1749.62" y="-205.25" font-family="Helvetica,sans-Serif" font-size="10.00">src/Autonomous/Steps</text>
<text xml:space="preserve" text-anchor="middle" x="1799.5" y="-194" font-family="Helvetica,sans-Serif" font-size="10.00">/MineBlock.hpp</text>
</a>
</g>
</g>
<!-- Node9&#45;&gt;Node21 -->
<g id="edge36_Node000009_Node000021" class="edge">
<title>Node9&#45;&gt;Node21</title>
<g id="a_edge36_Node000009_Node000021"><a xlink:title=" ">
<path fill="none" stroke="#63b8ff" d="M923.61,-261.44C1072.76,-257.23 1411.08,-245.39 1694.5,-218.75 1709.7,-217.32 1726.08,-215.32 1741.28,-213.27"/>
<polygon fill="#63b8ff" stroke="#63b8ff" points="923.75,-257.94 913.85,-261.71 923.94,-264.93 923.75,-257.94"/>
</a>
</g>
</g>
<!-- Node22 -->
<g id="Node000022" class="node">
<title>Node22</title>
<g id="a_Node000022"><a xlink:href="_place_on_table_8hpp.html" target="_top" xlink:title=" ">
<polygon fill="white" stroke="#666666" points="1685.38,-218.75 1569.62,-218.75 1569.62,-188.25 1685.38,-188.25 1685.38,-218.75"/>
<text xml:space="preserve" text-anchor="start" x="1577.62" y="-205.25" font-family="Helvetica,sans-Serif" font-size="10.00">src/Autonomous/Steps</text>
<text xml:space="preserve" text-anchor="middle" x="1627.5" y="-194" font-family="Helvetica,sans-Serif" font-size="10.00">/PlaceOnTable.hpp</text>
</a>
</g>
</g>
<!-- Node9&#45;&gt;Node22 -->
<g id="edge39_Node000009_Node000022" class="edge">
<title>Node9&#45;&gt;Node22</title>
<g id="a_edge39_Node000009_Node000022"><a xlink:title=" ">
<path fill="none" stroke="#63b8ff" d="M923.78,-262.26C1055.17,-259.55 1330.26,-250.25 1560.5,-218.75 1563.45,-218.35 1566.45,-217.89 1569.49,-217.38"/>
<polygon fill="#63b8ff" stroke="#63b8ff" points="923.72,-258.76 913.8,-262.46 923.86,-265.76 923.72,-258.76"/>
</a>
</g>
</g>
<!-- Node23 -->
<g id="Node000023" class="node">
<title>Node23</title>
<g id="a_Node000023"><a xlink:href="_reject_sequence_8hpp.html" target="_top" xlink:title=" ">
<polygon fill="white" stroke="#666666" points="971.38,-218.75 855.62,-218.75 855.62,-188.25 971.38,-188.25 971.38,-218.75"/>
<text xml:space="preserve" text-anchor="start" x="863.62" y="-205.25" font-family="Helvetica,sans-Serif" font-size="10.00">src/Autonomous/Steps</text>
<text xml:space="preserve" text-anchor="middle" x="913.5" y="-194" font-family="Helvetica,sans-Serif" font-size="10.00">/RejectSequence.hpp</text>
</a>
</g>
</g>
<!-- Node9&#45;&gt;Node23 -->
<g id="edge41_Node000009_Node000023" class="edge">
<title>Node9&#45;&gt;Node23</title>
<g id="a_edge41_Node000009_Node000023"><a xlink:title=" ">
<path fill="none" stroke="#63b8ff" d="M865.09,-247.04C875.08,-238.26 887.3,-227.52 896.96,-219.03"/>
<polygon fill="#63b8ff" stroke="#63b8ff" points="863.01,-244.2 857.81,-253.43 867.64,-249.46 863.01,-244.2"/>
</a>
</g>
</g>
<!-- Node10&#45;&gt;Node3 -->
<g id="edge14_Node000010_Node000003" class="edge">
<title>Node10&#45;&gt;Node3</title>
<g id="a_edge14_Node000010_Node000003"><a xlink:title=" ">
<path fill="none" stroke="#63b8ff" d="M448.88,-121.46C584.48,-101.62 733.24,-87 802.42,-80.62"/>
<polygon fill="#63b8ff" stroke="#63b8ff" points="448.77,-117.94 439.39,-122.86 449.79,-124.86 448.77,-117.94"/>
</a>
</g>
</g>
<!-- Node11&#45;&gt;Node7 -->
<g id="edge16_Node000011_Node000007" class="edge">
<title>Node11&#45;&gt;Node7</title>
<g id="a_edge16_Node000011_Node000007"><a xlink:title=" ">
<path fill="none" stroke="#63b8ff" d="M1112.27,-179.96C1124.31,-168.53 1138.24,-155.32 1147.2,-146.82"/>
<polygon fill="#63b8ff" stroke="#63b8ff" points="1109.88,-177.4 1105.03,-186.82 1114.69,-182.48 1109.88,-177.4"/>
</a>
</g>
</g>
<!-- Node12&#45;&gt;Node7 -->
<g id="edge18_Node000012_Node000007" class="edge">
<title>Node12&#45;&gt;Node7</title>
<g id="a_edge18_Node000012_Node000007"><a xlink:title=" ">
<path fill="none" stroke="#63b8ff" d="M1201.74,-180.29C1189.44,-168.79 1175.12,-155.4 1165.94,-146.82"/>
<polygon fill="#63b8ff" stroke="#63b8ff" points="1199.04,-182.56 1208.74,-186.83 1203.82,-177.44 1199.04,-182.56"/>
</a>
</g>
</g>
<!-- Node13&#45;&gt;Node7 -->
<g id="edge20_Node000013_Node000007" class="edge">
<title>Node13&#45;&gt;Node7</title>
<g id="a_edge20_Node000013_Node000007"><a xlink:title=" ">
<path fill="none" stroke="#63b8ff" d="M1302.69,-184.45C1264.39,-172.28 1215.49,-156.74 1185.08,-147.08"/>
<polygon fill="#63b8ff" stroke="#63b8ff" points="1301.15,-187.63 1311.74,-187.32 1303.27,-180.96 1301.15,-187.63"/>
</a>
</g>
</g>
<!-- Node14&#45;&gt;Node3 -->
<g id="edge23_Node000014_Node000003" class="edge">
<title>Node14&#45;&gt;Node3</title>
<g id="a_edge23_Node000014_Node000003"><a xlink:title=" ">
<path fill="none" stroke="#63b8ff" d="M580.58,-188.32C659.94,-179.51 829.22,-198.93 870.5,-152.25 887.91,-132.56 864.11,-101.27 850.24,-86.04"/>
<polygon fill="#63b8ff" stroke="#63b8ff" points="580.48,-184.8 571.05,-189.63 581.43,-191.73 580.48,-184.8"/>
</a>
</g>
</g>
<!-- Node14&#45;&gt;Node7 -->
<g id="edge22_Node000014_Node000007" class="edge">
<title>Node14&#45;&gt;Node7</title>
<g id="a_edge22_Node000014_Node000007"><a xlink:title=" ">
<path fill="none" stroke="#63b8ff" d="M580.72,-188.05C768.46,-160.61 978.19,-147.06 1085.43,-141.36"/>
<polygon fill="#63b8ff" stroke="#63b8ff" points="580.4,-184.56 571.02,-189.48 581.43,-191.48 580.4,-184.56"/>
</a>
</g>
</g>
<!-- Node15&#45;&gt;Node3 -->
<g id="edge25_Node000015_Node000003" class="edge">
<title>Node15&#45;&gt;Node3</title>
<g id="a_edge25_Node000015_Node000003"><a xlink:title=" ">
<path fill="none" stroke="#63b8ff" d="M584.98,-121.32C668.03,-105.61 753.77,-91.33 802.37,-83.42"/>
<polygon fill="#63b8ff" stroke="#63b8ff" points="584.47,-117.85 575.3,-123.16 585.78,-124.73 584.47,-117.85"/>
</a>
</g>
</g>
<!-- Node16&#45;&gt;Node3 -->
<g id="edge27_Node000016_Node000003" class="edge">
<title>Node16&#45;&gt;Node3</title>
<g id="a_edge27_Node000016_Node000003"><a xlink:title=" ">
<path fill="none" stroke="#63b8ff" d="M708.28,-117.97C742.53,-107.47 784.25,-94.68 811.77,-86.24"/>
<polygon fill="#63b8ff" stroke="#63b8ff" points="707.44,-114.57 698.9,-120.85 709.49,-121.27 707.44,-114.57"/>
</a>
</g>
</g>
<!-- Node17&#45;&gt;Node3 -->
<g id="edge29_Node000017_Node000003" class="edge">
<title>Node17&#45;&gt;Node3</title>
<g id="a_edge29_Node000017_Node000003"><a xlink:title=" ">
<path fill="none" stroke="#63b8ff" d="M812.57,-112.61C820.12,-103.34 828.36,-93.25 834.1,-86.2"/>
<polygon fill="#63b8ff" stroke="#63b8ff" points="809.93,-110.31 806.32,-120.27 815.35,-114.73 809.93,-110.31"/>
</a>
</g>
</g>
<!-- Node19&#45;&gt;Node3 -->
<g id="edge33_Node000019_Node000003" class="edge">
<title>Node19&#45;&gt;Node3</title>
<g id="a_edge33_Node000019_Node000003"><a xlink:title=" ">
<path fill="none" stroke="#63b8ff" d="M714.68,-188.2C770.52,-180.35 877.76,-183.29 903.5,-152.25 912.15,-141.81 909.68,-133.81 903.5,-121.75 895.03,-105.23 877.29,-93.43 862.94,-86.13"/>
<polygon fill="#63b8ff" stroke="#63b8ff" points="714.37,-184.71 705.08,-189.81 715.52,-191.61 714.37,-184.71"/>
</a>
</g>
</g>
<!-- Node19&#45;&gt;Node7 -->
<g id="edge32_Node000019_Node000007" class="edge">
<title>Node19&#45;&gt;Node7</title>
<g id="a_edge32_Node000019_Node000007"><a xlink:title=" ">
<path fill="none" stroke="#63b8ff" d="M714.63,-188.01C851.52,-166.17 999.87,-151.49 1085.46,-143.9"/>
<polygon fill="#63b8ff" stroke="#63b8ff" points="714.35,-184.51 705.03,-189.56 715.46,-191.42 714.35,-184.51"/>
</a>
</g>
</g>
<!-- Node20&#45;&gt;Node7 -->
<g id="edge35_Node000020_Node000007" class="edge">
<title>Node20&#45;&gt;Node7</title>
<g id="a_edge35_Node000020_Node000007"><a xlink:title=" ">
<path fill="none" stroke="#63b8ff" d="M1424.44,-187.87C1342.86,-171.7 1259.6,-156.47 1207.58,-147.11"/>
<polygon fill="#63b8ff" stroke="#63b8ff" points="1423.44,-191.24 1433.93,-189.76 1424.8,-184.37 1423.44,-191.24"/>
</a>
</g>
</g>
<!-- Node21&#45;&gt;Node3 -->
<g id="edge38_Node000021_Node000003" class="edge">
<title>Node21&#45;&gt;Node3</title>
<g id="a_edge38_Node000021_Node000003"><a xlink:title=" ">
<path fill="none" stroke="#63b8ff" d="M1730.46,-190.47C1725.74,-189.7 1721.05,-188.96 1716.5,-188.25 1503.67,-155.25 1450.19,-148.62 1236.5,-121.75 1106.23,-105.37 951.43,-88.69 880.5,-81.2"/>
<polygon fill="#63b8ff" stroke="#63b8ff" points="1729.56,-193.87 1740,-192.05 1730.7,-186.96 1729.56,-193.87"/>
</a>
</g>
</g>
<!-- Node21&#45;&gt;Node7 -->
<g id="edge37_Node000021_Node000007" class="edge">
<title>Node21&#45;&gt;Node7</title>
<g id="a_edge37_Node000021_Node000007"><a xlink:title=" ">
<path fill="none" stroke="#63b8ff" d="M1730.07,-188.62C1729.21,-188.5 1728.35,-188.37 1727.5,-188.25 1548.44,-162.73 1335.82,-148.12 1227.55,-141.79"/>
<polygon fill="#63b8ff" stroke="#63b8ff" points="1729.51,-192.08 1739.94,-190.21 1730.62,-185.17 1729.51,-192.08"/>
</a>
</g>
</g>
<!-- Node22&#45;&gt;Node7 -->
<g id="edge40_Node000022_Node000007" class="edge">
<title>Node22&#45;&gt;Node7</title>
<g id="a_edge40_Node000022_Node000007"><a xlink:title=" ">
<path fill="none" stroke="#63b8ff" d="M1558.44,-188C1436.53,-167.83 1306.09,-153.1 1227.56,-144.97"/>
<polygon fill="#63b8ff" stroke="#63b8ff" points="1557.52,-191.39 1567.96,-189.59 1558.67,-184.49 1557.52,-191.39"/>
</a>
</g>
</g>
<!-- Node23&#45;&gt;Node7 -->
<g id="edge42_Node000023_Node000007" class="edge">
<title>Node23&#45;&gt;Node7</title>
<g id="a_edge42_Node000023_Node000007"><a xlink:title=" ">
<path fill="none" stroke="#63b8ff" d="M980.04,-184.84C1026.1,-172.61 1085.5,-156.85 1122.29,-147.08"/>
<polygon fill="#63b8ff" stroke="#63b8ff" points="979.17,-181.45 970.41,-187.39 980.97,-188.21 979.17,-181.45"/>
</a>
</g>
</g>
<!-- Node24&#45;&gt;Node3 -->
<g id="edge47_Node000024_Node000003" class="edge">
<title>Node24&#45;&gt;Node3</title>
<g id="a_edge47_Node000024_Node000003"><a xlink:title=" ">
<path fill="none" stroke="#63b8ff" d="M1787.9,-252.08C1839.9,-241.09 1895.3,-221.14 1866.5,-188.25 1800.24,-112.59 1060.29,-84.13 880.63,-78.31"/>
<polygon fill="#63b8ff" stroke="#63b8ff" points="1787.48,-248.59 1778.37,-253.99 1788.86,-255.45 1787.48,-248.59"/>
</a>
</g>
</g>
<!-- Node24&#45;&gt;Node7 -->
<g id="edge45_Node000024_Node000007" class="edge">
<title>Node24&#45;&gt;Node7</title>
<g id="a_edge45_Node000024_Node000007"><a xlink:title=" ">
<path fill="none" stroke="#63b8ff" d="M1714.33,-242.89C1713.83,-225.59 1710.05,-201.56 1694.5,-188.25 1677.01,-173.27 1369.78,-151.71 1227.61,-142.47"/>
<polygon fill="#63b8ff" stroke="#63b8ff" points="1710.83,-242.74 1714.25,-252.77 1717.83,-242.8 1710.83,-242.74"/>
</a>
</g>
</g>
<!-- Node24&#45;&gt;Node21 -->
<g id="edge46_Node000024_Node000021" class="edge">
<title>Node24&#45;&gt;Node21</title>
<g id="a_edge46_Node000024_Node000021"><a xlink:title=" ">
<path fill="none" stroke="#63b8ff" d="M1735.81,-248.1C1748.91,-239.14 1765.37,-227.87 1778.27,-219.03"/>
<polygon fill="#63b8ff" stroke="#63b8ff" points="1734.08,-245.04 1727.81,-253.58 1738.04,-250.82 1734.08,-245.04"/>
</a>
</g>
</g>
<!-- Node25&#45;&gt;Node3 -->
<g id="edge54_Node000025_Node000003" class="edge">
<title>Node25&#45;&gt;Node3</title>
<g id="a_edge54_Node000025_Node000003"><a xlink:title=" ">
<path fill="none" stroke="#63b8ff" d="M2010.39,-187.59C2037.16,-170.95 2071.46,-143.5 2050.5,-121.75 2050.5,-121.75 1088.35,-86.24 880.7,-78.57"/>
<polygon fill="#63b8ff" stroke="#63b8ff" points="2008.73,-184.51 2001.93,-192.63 2012.31,-190.52 2008.73,-184.51"/>
</a>
</g>
</g>
<!-- Node25&#45;&gt;Node7 -->
<g id="edge49_Node000025_Node000007" class="edge">
<title>Node25&#45;&gt;Node7</title>
<g id="a_edge49_Node000025_Node000007"><a xlink:title=" ">
<path fill="none" stroke="#63b8ff" d="M1902.26,-192.07C1890.28,-190.69 1878.08,-189.36 1866.5,-188.25 1632.95,-165.78 1355.26,-149 1227.39,-141.83"/>
<polygon fill="#63b8ff" stroke="#63b8ff" points="1901.81,-195.54 1912.15,-193.23 1902.63,-188.59 1901.81,-195.54"/>
</a>
</g>
</g>
<!-- Node26 -->
<g id="Node000026" class="node">
<title>Node26</title>
<g id="a_Node000026"><a xlink:href="_delay_step_8hpp.html" target="_top" xlink:title=" ">
<polygon fill="white" stroke="#666666" points="1907.38,-152.25 1791.62,-152.25 1791.62,-121.75 1907.38,-121.75 1907.38,-152.25"/>
<text xml:space="preserve" text-anchor="start" x="1799.62" y="-138.75" font-family="Helvetica,sans-Serif" font-size="10.00">src/Autonomous/Steps</text>
<text xml:space="preserve" text-anchor="middle" x="1849.5" y="-127.5" font-family="Helvetica,sans-Serif" font-size="10.00">/DelayStep.hpp</text>
</a>
</g>
</g>
<!-- Node25&#45;&gt;Node26 -->
<g id="edge50_Node000025_Node000026" class="edge">
<title>Node25&#45;&gt;Node26</title>
<g id="a_edge50_Node000025_Node000026"><a xlink:title=" ">
<path fill="none" stroke="#63b8ff" d="M1954.51,-188.54C1932.49,-177.95 1902.29,-163.41 1879.93,-152.65"/>
<polygon fill="#63b8ff" stroke="#63b8ff" points="1952.69,-191.56 1963.22,-192.74 1955.73,-185.25 1952.69,-191.56"/>
</a>
</g>
</g>
<!-- Node27 -->
<g id="Node000027" class="node">
<title>Node27</title>
<g id="a_Node000027"><a xlink:href="_fire_step_8hpp.html" target="_top" xlink:title=" ">
<polygon fill="white" stroke="#666666" points="2041.38,-152.25 1925.62,-152.25 1925.62,-121.75 2041.38,-121.75 2041.38,-152.25"/>
<text xml:space="preserve" text-anchor="start" x="1933.62" y="-138.75" font-family="Helvetica,sans-Serif" font-size="10.00">src/Autonomous/Steps</text>
<text xml:space="preserve" text-anchor="middle" x="1983.5" y="-127.5" font-family="Helvetica,sans-Serif" font-size="10.00">/FireStep.hpp</text>
</a>
</g>
</g>
<!-- Node25&#45;&gt;Node27 -->
<g id="edge52_Node000025_Node000027" class="edge">
<title>Node25&#45;&gt;Node27</title>
<g id="a_edge52_Node000025_Node000027"><a xlink:title=" ">
<path fill="none" stroke="#63b8ff" d="M1983.5,-182.12C1983.5,-172.44 1983.5,-161.1 1983.5,-152.34"/>
<polygon fill="#63b8ff" stroke="#63b8ff" points="1980,-182.02 1983.5,-192.02 1987,-182.02 1980,-182.02"/>
</a>
</g>
</g>
<!-- Node26&#45;&gt;Node3 -->
<g id="edge51_Node000026_Node000003" class="edge">
<title>Node26&#45;&gt;Node3</title>
<g id="a_edge51_Node000026_Node000003"><a xlink:title=" ">
<path fill="none" stroke="#63b8ff" d="M1780.08,-122.08C1779.21,-121.96 1778.35,-121.85 1777.5,-121.75 1687.62,-110.77 1046.21,-85.14 880.5,-78.64"/>
<polygon fill="#63b8ff" stroke="#63b8ff" points="1779.56,-125.54 1789.96,-123.53 1780.58,-118.61 1779.56,-125.54"/>
</a>
</g>
</g>
<!-- Node27&#45;&gt;Node3 -->
<g id="edge53_Node000027_Node000003" class="edge">
<title>Node27&#45;&gt;Node3</title>
<g id="a_edge53_Node000027_Node000003"><a xlink:title=" ">
<path fill="none" stroke="#63b8ff" d="M1914.01,-121.91C1799.83,-112.75 1059.64,-85.17 880.48,-78.56"/>
<polygon fill="#63b8ff" stroke="#63b8ff" points="1913.34,-125.36 1923.63,-122.84 1914.01,-118.39 1913.34,-125.36"/>
</a>
</g>
</g>
</g>
</svg>
