<?xml version="1.0" encoding="UTF-8" standalone="no"?>
<!DOCTYPE svg PUBLIC "-//W3C//DTD SVG 1.1//EN"
 "http://www.w3.org/Graphics/SVG/1.1/DTD/svg11.dtd">
<!-- Generated by graphviz version 14.1.2 (20260124.0452)
 -->
<!-- Title: src/Autonomous/Steps/DelayStep.hpp Pages: 1 -->
<svg width="1017pt" height="315pt"
 viewBox="0.00 0.00 1017.00 315.00" xmlns="http://www.w3.org/2000/svg" xmlns:xlink="http://www.w3.org/1999/xlink">
<g id="graph0" class="graph" transform="scale(1 1) rotate(0) translate(4 310.75)">
<title>src/Autonomous/Steps/DelayStep.hpp</title>
<!-- Node1 -->
<g id="Node000001" class="node">
<title>Node1</title>
<g id="a_Node000001"><a xlink:title="AutoStep that blocks for a fixed number of milliseconds.">
<polygon fill="#999999" stroke="#666666" points="647.25,-306.75 531.5,-306.75 531.5,-276.25 647.25,-276.25 647.25,-306.75"/>
<text xml:space="preserve" text-anchor="start" x="539.5" y="-293.25" font-family="Helvetica,sans-Serif" font-size="10.00">src/Autonomous/Steps</text>
<text xml:space="preserve" text-anchor="middle" x="589.38" y="-282" font-family="Helvetica,sans-Serif" font-size="10.00">/DelayStep.hpp</text>
</a>
</g>
</g>
<!-- Node2 -->
<g id="Node000002" class="node">
<title>Node2</title>
<g id="a_Node000002"><a xlink:href="_auto_step_8h.html" target="_top" xlink:title="Abstract interface that every autonomous step must implement.">
<polygon fill="white" stroke="#666666" points="580.62,-240.25 458.12,-240.25 458.12,-221 580.62,-221 580.62,-240.25"/>
<text xml:space="preserve" text-anchor="middle" x="519.38" y="-226.75" font-family="Helvetica,sans-Serif" font-size="10.00">Autonomous/AutoStep.h</text>
</a>
</g>
</g>
<!-- Node1&#45;&gt;Node2 -->
<g id="edge1_Node000001_Node000002" class="edge">
<title>Node1&#45;&gt;Node2</title>
<g id="a_edge1_Node000001_Node000002"><a xlink:title=" ">
<path fill="none" stroke="#63b8ff" d="M572.07,-275.95C562.03,-267.5 549.35,-256.83 538.94,-248.08"/>
<polygon fill="#63b8ff" stroke="#63b8ff" points="541.23,-245.43 531.32,-241.68 536.72,-250.79 541.23,-245.43"/>
</a>
</g>
</g>
<!-- Node3 -->
<g id="Node000003" class="node">
<title>Node3</title>
<g id="a_Node000003"><a xlink:href="_shooter_8hpp.html" target="_top" xlink:title="Rack&#45;and&#45;pinion block shooter subsystem.">
<polygon fill="white" stroke="#666666" points="722.38,-240.25 598.38,-240.25 598.38,-221 722.38,-221 722.38,-240.25"/>
<text xml:space="preserve" text-anchor="middle" x="660.38" y="-226.75" font-family="Helvetica,sans-Serif" font-size="10.00">subsystems/Shooter.hpp</text>
</a>
</g>
</g>
<!-- Node1&#45;&gt;Node3 -->
<g id="edge2_Node000001_Node000003" class="edge">
<title>Node1&#45;&gt;Node3</title>
<g id="a_edge2_Node000001_Node000003"><a xlink:title=" ">
<path fill="none" stroke="#63b8ff" d="M606.93,-275.95C617.22,-267.41 630.24,-256.62 640.85,-247.81"/>
<polygon fill="#63b8ff" stroke="#63b8ff" points="642.8,-250.74 648.26,-241.67 638.33,-245.36 642.8,-250.74"/>
</a>
</g>
</g>
<!-- Node4 -->
<g id="Node000004" class="node">
<title>Node4</title>
<g id="a_Node000004"><a xlink:title=" ">
<polygon fill="#e0e0e0" stroke="#999999" points="675,-19.25 617.75,-19.25 617.75,0 675,0 675,-19.25"/>
<text xml:space="preserve" text-anchor="middle" x="646.38" y="-5.75" font-family="Helvetica,sans-Serif" font-size="10.00">Arduino.h</text>
</a>
</g>
</g>
<!-- Node3&#45;&gt;Node4 -->
<g id="edge3_Node000003_Node000004" class="edge">
<title>Node3&#45;&gt;Node4</title>
<g id="a_edge3_Node000003_Node000004"><a xlink:title=" ">
<path fill="none" stroke="#63b8ff" d="M722.84,-225.26C757.32,-220.08 799.15,-208.91 829.38,-185 879.06,-145.7 928.9,-103.94 888.38,-55.25 863.15,-24.94 748.46,-15.14 686.46,-12.03"/>
<polygon fill="#63b8ff" stroke="#63b8ff" points="686.83,-8.54 676.68,-11.58 686.5,-15.54 686.83,-8.54"/>
</a>
</g>
</g>
<!-- Node5 -->
<g id="Node000005" class="node">
<title>Node5</title>
<g id="a_Node000005"><a xlink:href="_subsystem_8h.html" target="_top" xlink:title="Abstract base class for all robot subsystems.">
<polygon fill="white" stroke="#666666" points="1009.25,-74.5 935.5,-74.5 935.5,-55.25 1009.25,-55.25 1009.25,-74.5"/>
<text xml:space="preserve" text-anchor="middle" x="972.38" y="-61" font-family="Helvetica,sans-Serif" font-size="10.00">Subsystem.h</text>
</a>
</g>
</g>
<!-- Node3&#45;&gt;Node5 -->
<g id="edge4_Node000003_Node000005" class="edge">
<title>Node3&#45;&gt;Node5</title>
<g id="a_edge4_Node000003_Node000005"><a xlink:title=" ">
<path fill="none" stroke="#63b8ff" d="M722.75,-225.77C789.96,-220.45 891.33,-208.7 921.38,-185 952.64,-160.34 965.05,-112.85 969.73,-85.87"/>
<polygon fill="#63b8ff" stroke="#63b8ff" points="973.15,-86.68 971.19,-76.27 966.23,-85.63 973.15,-86.68"/>
</a>
</g>
</g>
<!-- Node6 -->
<g id="Node000006" class="node">
<title>Node6</title>
<g id="a_Node000006"><a xlink:href="_servo_control_8hpp.html" target="_top" xlink:title="Buffered servo wrapper that defers writes until update() is called.">
<polygon fill="white" stroke="#666666" points="130.75,-185 0,-185 0,-165.75 130.75,-165.75 130.75,-185"/>
<text xml:space="preserve" text-anchor="middle" x="65.38" y="-171.5" font-family="Helvetica,sans-Serif" font-size="10.00">Devices/ServoControl.hpp</text>
</a>
</g>
</g>
<!-- Node3&#45;&gt;Node6 -->
<g id="edge6_Node000003_Node000006" class="edge">
<title>Node3&#45;&gt;Node6</title>
<g id="a_edge6_Node000003_Node000006"><a xlink:title=" ">
<path fill="none" stroke="#63b8ff" d="M598.05,-221.91C595.12,-221.59 592.22,-221.29 589.38,-221 393.45,-201.27 340.99,-204.49 142.54,-185.28"/>
<polygon fill="#63b8ff" stroke="#63b8ff" points="142.93,-181.8 132.64,-184.31 142.25,-188.77 142.93,-181.8"/>
</a>
</g>
</g>
<!-- Node8 -->
<g id="Node000008" class="node">
<title>Node8</title>
<g id="a_Node000008"><a xlink:href="_encoder_wrapper_8hpp.html" target="_top" xlink:title="Quadrature encoder wrapper providing position, velocity, and acceleration.">
<polygon fill="white" stroke="#666666" points="293.88,-185 148.88,-185 148.88,-165.75 293.88,-165.75 293.88,-185"/>
<text xml:space="preserve" text-anchor="middle" x="221.38" y="-171.5" font-family="Helvetica,sans-Serif" font-size="10.00">Devices/EncoderWrapper.hpp</text>
</a>
</g>
</g>
<!-- Node3&#45;&gt;Node8 -->
<g id="edge9_Node000003_Node000008" class="edge">
<title>Node3&#45;&gt;Node8</title>
<g id="a_edge9_Node000003_Node000008"><a xlink:title=" ">
<path fill="none" stroke="#63b8ff" d="M598.04,-222.05C595.11,-221.7 592.21,-221.34 589.38,-221 491.99,-209.18 380.11,-195.62 305.53,-186.57"/>
<polygon fill="#63b8ff" stroke="#63b8ff" points="306.19,-183.13 295.84,-185.4 305.35,-190.08 306.19,-183.13"/>
</a>
</g>
</g>
<!-- Node10 -->
<g id="Node000010" class="node">
<title>Node10</title>
<g id="a_Node000010"><a xlink:href="_p_i_d_8hpp.html" target="_top" xlink:title="PID controller classes with optional nonlinear extensions and feedforward support.">
<polygon fill="white" stroke="#666666" points="682.88,-74.5 609.88,-74.5 609.88,-55.25 682.88,-55.25 682.88,-74.5"/>
<text xml:space="preserve" text-anchor="middle" x="646.38" y="-61" font-family="Helvetica,sans-Serif" font-size="10.00">utils/PID.hpp</text>
</a>
</g>
</g>
<!-- Node3&#45;&gt;Node10 -->
<g id="edge12_Node000003_Node000010" class="edge">
<title>Node3&#45;&gt;Node10</title>
<g id="a_edge12_Node000003_Node000010"><a xlink:title=" ">
<path fill="none" stroke="#63b8ff" d="M652.13,-220.59C637.66,-204.06 608.19,-167.17 597.38,-129.75 595,-121.53 593.92,-118.33 597.38,-110.5 602.54,-98.82 612.43,-88.88 621.99,-81.36"/>
<polygon fill="#63b8ff" stroke="#63b8ff" points="623.96,-84.26 630.02,-75.57 619.86,-78.58 623.96,-84.26"/>
</a>
</g>
</g>
<!-- Node11 -->
<g id="Node000011" class="node">
<title>Node11</title>
<g id="a_Node000011"><a xlink:href="_config_8hpp.html" target="_top" xlink:title="Central configuration: pin assignments, physical constants, and PID gains.">
<polygon fill="white" stroke="#666666" points="522,-185 458.75,-185 458.75,-165.75 522,-165.75 522,-185"/>
<text xml:space="preserve" text-anchor="middle" x="490.38" y="-171.5" font-family="Helvetica,sans-Serif" font-size="10.00">Config.hpp</text>
</a>
</g>
</g>
<!-- Node3&#45;&gt;Node11 -->
<g id="edge14_Node000003_Node000011" class="edge">
<title>Node3&#45;&gt;Node11</title>
<g id="a_edge14_Node000003_Node000011"><a xlink:title=" ">
<path fill="none" stroke="#63b8ff" d="M631.54,-220.59C603.7,-211.87 561.3,-198.59 530.24,-188.86"/>
<polygon fill="#63b8ff" stroke="#63b8ff" points="531.39,-185.55 520.8,-185.9 529.3,-192.23 531.39,-185.55"/>
</a>
</g>
</g>
<!-- Node16 -->
<g id="Node000016" class="node">
<title>Node16</title>
<g id="a_Node000016"><a xlink:href="_solenoid_8hpp.html" target="_top" xlink:title="Simple digital solenoid driver (currently unused in primary code path).">
<polygon fill="white" stroke="#666666" points="800,-185 688.75,-185 688.75,-165.75 800,-165.75 800,-185"/>
<text xml:space="preserve" text-anchor="middle" x="744.38" y="-171.5" font-family="Helvetica,sans-Serif" font-size="10.00">Devices/Solenoid.hpp</text>
</a>
</g>
</g>
<!-- Node3&#45;&gt;Node16 -->
<g id="edge24_Node000003_Node000016" class="edge">
<title>Node3&#45;&gt;Node16</title>
<g id="a_edge24_Node000003_Node000016"><a xlink:title=" ">
<path fill="none" stroke="#63b8ff" d="M674.62,-220.59C687.17,-212.64 705.71,-200.89 720.52,-191.5"/>
<polygon fill="#63b8ff" stroke="#63b8ff" points="722.21,-194.57 728.78,-186.26 718.46,-188.66 722.21,-194.57"/>
</a>
</g>
</g>
<!-- Node17 -->
<g id="Node000017" class="node">
<title>Node17</title>
<g id="a_Node000017"><a xlink:href="_motor_controller_8hpp.html" target="_top" xlink:title="Unified single&#45;channel motor controller supporting TB9051FTG and L298N drivers.">
<polygon fill="white" stroke="#666666" points="746.25,-129.75 606.5,-129.75 606.5,-110.5 746.25,-110.5 746.25,-129.75"/>
<text xml:space="preserve" text-anchor="middle" x="676.38" y="-116.25" font-family="Helvetica,sans-Serif" font-size="10.00">Devices/MotorController.hpp</text>
</a>
</g>
</g>
<!-- Node3&#45;&gt;Node17 -->
<g id="edge26_Node000003_Node000017" class="edge">
<title>Node3&#45;&gt;Node17</title>
<g id="a_edge26_Node000003_Node000017"><a xlink:title=" ">
<path fill="none" stroke="#63b8ff" d="M661.68,-220.75C664.23,-203.5 669.89,-165.08 673.4,-141.31"/>
<polygon fill="#63b8ff" stroke="#63b8ff" points="676.83,-142.03 674.83,-131.62 669.91,-141.01 676.83,-142.03"/>
</a>
</g>
</g>
<!-- Node18 -->
<g id="Node000018" class="node">
<title>Node18</title>
<g id="a_Node000018"><a xlink:href="_button_8hpp.html" target="_top" xlink:title="Simple digital button (or limit&#45;switch) driver.">
<polygon fill="white" stroke="#666666" points="879.5,-74.5 777.25,-74.5 777.25,-55.25 879.5,-55.25 879.5,-74.5"/>
<text xml:space="preserve" text-anchor="middle" x="828.38" y="-61" font-family="Helvetica,sans-Serif" font-size="10.00">Devices/Button.hpp</text>
</a>
</g>
</g>
<!-- Node3&#45;&gt;Node18 -->
<g id="edge29_Node000003_Node000018" class="edge">
<title>Node3&#45;&gt;Node18</title>
<g id="a_edge29_Node000003_Node000018"><a xlink:title=" ">
<path fill="none" stroke="#63b8ff" d="M722.65,-226.06C753.11,-220.99 787.77,-209.69 809.38,-185 833.44,-157.51 833.53,-112.17 831.14,-86.07"/>
<polygon fill="#63b8ff" stroke="#63b8ff" points="834.66,-86 830.04,-76.47 827.71,-86.8 834.66,-86"/>
</a>
</g>
</g>
<!-- Node5&#45;&gt;Node4 -->
<g id="edge5_Node000005_Node000004" class="edge">
<title>Node5&#45;&gt;Node4</title>
<g id="a_edge5_Node000005_Node000004"><a xlink:title=" ">
<path fill="none" stroke="#63b8ff" d="M935.06,-57.53C930.45,-56.76 925.8,-55.98 921.38,-55.25 837.8,-41.4 739.86,-25.61 686.33,-17.02"/>
<polygon fill="#63b8ff" stroke="#63b8ff" points="687.21,-13.62 676.78,-15.49 686.1,-20.53 687.21,-13.62"/>
</a>
</g>
</g>
<!-- Node6&#45;&gt;Node4 -->
<g id="edge7_Node000006_Node000004" class="edge">
<title>Node6&#45;&gt;Node4</title>
<g id="a_edge7_Node000006_Node000004"><a xlink:title=" ">
<path fill="none" stroke="#63b8ff" d="M55.65,-165.59C42.66,-152.78 22.67,-128.52 35.38,-110.5 77.52,-50.73 119,-71.21 190.38,-55.25 341.19,-21.53 525.72,-13.29 605.93,-11.28"/>
<polygon fill="#63b8ff" stroke="#63b8ff" points="606.01,-14.77 615.93,-11.05 605.85,-7.78 606.01,-14.77"/>
</a>
</g>
</g>
<!-- Node7 -->
<g id="Node000007" class="node">
<title>Node7</title>
<g id="a_Node000007"><a xlink:title=" ">
<polygon fill="#e0e0e0" stroke="#999999" points="118.62,-129.75 44.12,-129.75 44.12,-110.5 118.62,-110.5 118.62,-129.75"/>
<text xml:space="preserve" text-anchor="middle" x="81.38" y="-116.25" font-family="Helvetica,sans-Serif" font-size="10.00">PWMServo.h</text>
</a>
</g>
</g>
<!-- Node6&#45;&gt;Node7 -->
<g id="edge8_Node000006_Node000007" class="edge">
<title>Node6&#45;&gt;Node7</title>
<g id="a_edge8_Node000006_Node000007"><a xlink:title=" ">
<path fill="none" stroke="#63b8ff" d="M68.02,-165.58C70.02,-158.92 72.85,-149.49 75.39,-141.03"/>
<polygon fill="#63b8ff" stroke="#63b8ff" points="78.71,-142.14 78.24,-131.56 72.01,-140.13 78.71,-142.14"/>
</a>
</g>
</g>
<!-- Node8&#45;&gt;Node4 -->
<g id="edge10_Node000008_Node000004" class="edge">
<title>Node8&#45;&gt;Node4</title>
<g id="a_edge10_Node000008_Node000004"><a xlink:title=" ">
<path fill="none" stroke="#63b8ff" d="M203.29,-165.42C183.01,-154.04 154.3,-133.16 165.38,-110.5 182.94,-74.58 199.32,-70.26 236.38,-55.25 302.82,-28.33 516.2,-16.22 605.98,-12.22"/>
<polygon fill="#63b8ff" stroke="#63b8ff" points="605.94,-15.73 615.78,-11.8 605.64,-8.73 605.94,-15.73"/>
</a>
</g>
</g>
<!-- Node9 -->
<g id="Node000009" class="node">
<title>Node9</title>
<g id="a_Node000009"><a xlink:title=" ">
<polygon fill="#e0e0e0" stroke="#999999" points="234.12,-129.75 174.62,-129.75 174.62,-110.5 234.12,-110.5 234.12,-129.75"/>
<text xml:space="preserve" text-anchor="middle" x="204.38" y="-116.25" font-family="Helvetica,sans-Serif" font-size="10.00">Encoder.h</text>
</a>
</g>
</g>
<!-- Node8&#45;&gt;Node9 -->
<g id="edge11_Node000008_Node000009" class="edge">
<title>Node8&#45;&gt;Node9</title>
<g id="a_edge11_Node000008_Node000009"><a xlink:title=" ">
<path fill="none" stroke="#63b8ff" d="M218.57,-165.58C216.44,-158.92 213.43,-149.49 210.73,-141.03"/>
<polygon fill="#63b8ff" stroke="#63b8ff" points="214.08,-140.01 207.7,-131.55 207.41,-142.14 214.08,-140.01"/>
</a>
</g>
</g>
<!-- Node10&#45;&gt;Node4 -->
<g id="edge13_Node000010_Node000004" class="edge">
<title>Node10&#45;&gt;Node4</title>
<g id="a_edge13_Node000010_Node000004"><a xlink:title=" ">
<path fill="none" stroke="#63b8ff" d="M646.38,-55.08C646.38,-48.57 646.38,-39.42 646.38,-31.12"/>
<polygon fill="#63b8ff" stroke="#63b8ff" points="649.88,-31.12 646.38,-21.12 642.88,-31.12 649.88,-31.12"/>
</a>
</g>
</g>
<!-- Node11&#45;&gt;Node4 -->
<g id="edge15_Node000011_Node000004" class="edge">
<title>Node11&#45;&gt;Node4</title>
<g id="a_edge15_Node000011_Node000004"><a xlink:title=" ">
<path fill="none" stroke="#63b8ff" d="M458.5,-175.28C414.53,-174.94 334.66,-168.45 281.38,-129.75 252.22,-108.58 225.36,-82.12 249.38,-55.25 272.89,-28.94 509.91,-16.26 606.12,-12.17"/>
<polygon fill="#63b8ff" stroke="#63b8ff" points="606.04,-15.67 615.88,-11.76 605.75,-8.68 606.04,-15.67"/>
</a>
</g>
</g>
<!-- Node11&#45;&gt;Node10 -->
<g id="edge22_Node000011_Node000010" class="edge">
<title>Node11&#45;&gt;Node10</title>
<g id="a_edge22_Node000011_Node000010"><a xlink:title=" ">
<path fill="none" stroke="#63b8ff" d="M499.43,-165.42C512.87,-152.4 539.25,-127.88 564.38,-110.5 581.1,-98.93 601.14,-87.97 617.22,-79.82"/>
<polygon fill="#63b8ff" stroke="#63b8ff" points="618.39,-83.14 625.78,-75.56 615.27,-76.88 618.39,-83.14"/>
</a>
</g>
</g>
<!-- Node12 -->
<g id="Node000012" class="node">
<title>Node12</title>
<g id="a_Node000012"><a xlink:href="_dual_motor_controller_8hpp.html" target="_top" xlink:title="Dual closed&#45;loop motor controller wrapping an L298N driver with two independent PID loops.">
<polygon fill="white" stroke="#666666" points="450.38,-129.75 290.38,-129.75 290.38,-110.5 450.38,-110.5 450.38,-129.75"/>
<text xml:space="preserve" text-anchor="middle" x="370.38" y="-116.25" font-family="Helvetica,sans-Serif" font-size="10.00">Devices/DualMotorController.hpp</text>
</a>
</g>
</g>
<!-- Node11&#45;&gt;Node12 -->
<g id="edge16_Node000011_Node000012" class="edge">
<title>Node11&#45;&gt;Node12</title>
<g id="a_edge16_Node000011_Node000012"><a xlink:title=" ">
<path fill="none" stroke="#63b8ff" d="M470.02,-165.34C451.14,-156.97 422.79,-144.38 401.15,-134.78"/>
<polygon fill="#63b8ff" stroke="#63b8ff" points="402.77,-131.67 392.21,-130.82 399.94,-138.07 402.77,-131.67"/>
</a>
</g>
</g>
<!-- Node15 -->
<g id="Node000015" class="node">
<title>Node15</title>
<g id="a_Node000015"><a xlink:title=" ">
<polygon fill="#e0e0e0" stroke="#999999" points="511.88,-129.75 468.88,-129.75 468.88,-110.5 511.88,-110.5 511.88,-129.75"/>
<text xml:space="preserve" text-anchor="middle" x="490.38" y="-116.25" font-family="Helvetica,sans-Serif" font-size="10.00">cmath</text>
</a>
</g>
</g>
<!-- Node11&#45;&gt;Node15 -->
<g id="edge23_Node000011_Node000015" class="edge">
<title>Node11&#45;&gt;Node15</title>
<g id="a_edge23_Node000011_Node000015"><a xlink:title=" ">
<path fill="none" stroke="#63b8ff" d="M490.38,-165.58C490.38,-159.07 490.38,-149.92 490.38,-141.62"/>
<polygon fill="#63b8ff" stroke="#63b8ff" points="493.88,-141.62 490.38,-131.62 486.88,-141.62 493.88,-141.62"/>
</a>
</g>
</g>
<!-- Node12&#45;&gt;Node4 -->
<g id="edge17_Node000012_Node000004" class="edge">
<title>Node12&#45;&gt;Node4</title>
<g id="a_edge17_Node000012_Node000004"><a xlink:title=" ">
<path fill="none" stroke="#63b8ff" d="M376.55,-110.07C386.68,-95.97 408.22,-68.98 433.38,-55.25 488.33,-25.27 561.38,-15.4 606.07,-12.17"/>
<polygon fill="#63b8ff" stroke="#63b8ff" points="606.08,-15.68 615.83,-11.55 605.63,-8.7 606.08,-15.68"/>
</a>
</g>
</g>
<!-- Node12&#45;&gt;Node10 -->
<g id="edge18_Node000012_Node000010" class="edge">
<title>Node12&#45;&gt;Node10</title>
<g id="a_edge18_Node000012_Node000010"><a xlink:title=" ">
<path fill="none" stroke="#63b8ff" d="M417.51,-110.03C468.03,-100.28 547.82,-84.89 598.59,-75.09"/>
<polygon fill="#63b8ff" stroke="#63b8ff" points="598.95,-78.59 608.11,-73.26 597.62,-71.72 598.95,-78.59"/>
</a>
</g>
</g>
<!-- Node13 -->
<g id="Node000013" class="node">
<title>Node13</title>
<g id="a_Node000013"><a xlink:title=" ">
<polygon fill="#e0e0e0" stroke="#999999" points="592.12,-74.5 442.62,-74.5 442.62,-55.25 592.12,-55.25 592.12,-74.5"/>
<text xml:space="preserve" text-anchor="middle" x="517.38" y="-61" font-family="Helvetica,sans-Serif" font-size="10.00">DualTB9051FTGMotorShield.h</text>
</a>
</g>
</g>
<!-- Node12&#45;&gt;Node13 -->
<g id="edge19_Node000012_Node000013" class="edge">
<title>Node12&#45;&gt;Node13</title>
<g id="a_edge19_Node000012_Node000013"><a xlink:title=" ">
<path fill="none" stroke="#63b8ff" d="M395.31,-110.09C419.07,-101.49 455.08,-88.44 481.84,-78.75"/>
<polygon fill="#63b8ff" stroke="#63b8ff" points="482.68,-82.16 490.89,-75.47 480.3,-75.58 482.68,-82.16"/>
</a>
</g>
</g>
<!-- Node14 -->
<g id="Node000014" class="node">
<title>Node14</title>
<g id="a_Node000014"><a xlink:href="_l298_n_motor_driver_mega_8h.html" target="_top" xlink:title=" ">
<polygon fill="white" stroke="#666666" points="386.25,-74.5 258.5,-74.5 258.5,-55.25 386.25,-55.25 386.25,-74.5"/>
<text xml:space="preserve" text-anchor="middle" x="322.38" y="-61" font-family="Helvetica,sans-Serif" font-size="10.00">L298NMotorDriverMega.h</text>
</a>
</g>
</g>
<!-- Node12&#45;&gt;Node14 -->
<g id="edge20_Node000012_Node000014" class="edge">
<title>Node12&#45;&gt;Node14</title>
<g id="a_edge20_Node000012_Node000014"><a xlink:title=" ">
<path fill="none" stroke="#63b8ff" d="M362.45,-110.33C355.82,-102.98 346.16,-92.26 337.99,-83.19"/>
<polygon fill="#63b8ff" stroke="#63b8ff" points="340.78,-81.07 331.49,-75.98 335.58,-85.75 340.78,-81.07"/>
</a>
</g>
</g>
<!-- Node14&#45;&gt;Node4 -->
<g id="edge21_Node000014_Node000004" class="edge">
<title>Node14&#45;&gt;Node4</title>
<g id="a_edge21_Node000014_Node000004"><a xlink:title=" ">
<path fill="none" stroke="#63b8ff" d="M377.7,-54.78C442.63,-44.11 548.72,-26.67 606.24,-17.22"/>
<polygon fill="#63b8ff" stroke="#63b8ff" points="606.61,-20.71 615.91,-15.63 605.48,-13.8 606.61,-20.71"/>
</a>
</g>
</g>
<!-- Node16&#45;&gt;Node4 -->
<g id="edge25_Node000016_Node000004" class="edge">
<title>Node16&#45;&gt;Node4</title>
<g id="a_edge25_Node000016_Node000004"><a xlink:title=" ">
<path fill="none" stroke="#63b8ff" d="M748.77,-165.42C754.33,-152.81 762.39,-129.26 755.38,-110.5 740.8,-71.49 700.9,-41.8 673.65,-25.3"/>
<polygon fill="#63b8ff" stroke="#63b8ff" points="675.61,-22.39 665.21,-20.39 672.09,-28.44 675.61,-22.39"/>
</a>
</g>
</g>
<!-- Node17&#45;&gt;Node4 -->
<g id="edge27_Node000017_Node000004" class="edge">
<title>Node17&#45;&gt;Node4</title>
<g id="a_edge27_Node000017_Node000004"><a xlink:title=" ">
<path fill="none" stroke="#63b8ff" d="M682.13,-110.17C689.47,-97.55 700.3,-73.99 692.38,-55.25 687.61,-43.99 678.47,-34.18 669.58,-26.65"/>
<polygon fill="#63b8ff" stroke="#63b8ff" points="671.84,-23.97 661.8,-20.58 667.53,-29.49 671.84,-23.97"/>
</a>
</g>
</g>
<!-- Node17&#45;&gt;Node10 -->
<g id="edge28_Node000017_Node000010" class="edge">
<title>Node17&#45;&gt;Node10</title>
<g id="a_edge28_Node000017_Node000010"><a xlink:title=" ">
<path fill="none" stroke="#63b8ff" d="M671.42,-110.33C667.49,-103.36 661.86,-93.37 656.94,-84.62"/>
<polygon fill="#63b8ff" stroke="#63b8ff" points="660.14,-83.17 652.18,-76.18 654.04,-86.61 660.14,-83.17"/>
</a>
</g>
</g>
<!-- Node18&#45;&gt;Node4 -->
<g id="edge30_Node000018_Node000004" class="edge">
<title>Node18&#45;&gt;Node4</title>
<g id="a_edge30_Node000018_Node000004"><a xlink:title=" ">
<path fill="none" stroke="#63b8ff" d="M797.5,-54.84C766.79,-45.86 719.56,-32.04 686.08,-22.24"/>
<polygon fill="#63b8ff" stroke="#63b8ff" points="687.33,-18.96 676.75,-19.51 685.36,-25.68 687.33,-18.96"/>
</a>
</g>
</g>
</g>
</svg>
