<?xml version="1.0" encoding="UTF-8" standalone="no"?>
<!DOCTYPE svg PUBLIC "-//W3C//DTD SVG 1.1//EN"
 "http://www.w3.org/Graphics/SVG/1.1/DTD/svg11.dtd">
<!-- Generated by graphviz version 14.1.2 (20260124.0452)
 -->
<!-- Title: src/Devices/DualMotorController.hpp Pages: 1 -->
<svg width="408pt" height="138pt"
 viewBox="0.00 0.00 408.00 138.00" xmlns="http://www.w3.org/2000/svg" xmlns:xlink="http://www.w3.org/1999/xlink">
<g id="graph0" class="graph" transform="scale(1 1) rotate(0) translate(4 133.75)">
<title>src/Devices/DualMotorController.hpp</title>
<!-- Node1 -->
<g id="Node000001" class="node">
<title>Node1</title>
<g id="a_Node000001"><a xlink:title=" ">
<polygon fill="#999999" stroke="#666666" points="202.13,-129.75 25.63,-129.75 25.63,-110.5 202.13,-110.5 202.13,-129.75"/>
<text xml:space="preserve" text-anchor="middle" x="113.88" y="-116.25" font-family="Helvetica,sans-Serif" font-size="10.00">src/Devices/DualMotorController.hpp</text>
</a>
</g>
</g>
<!-- Node2 -->
<g id="Node000002" class="node">
<title>Node2</title>
<g id="a_Node000002"><a xlink:title=" ">
<polygon fill="#e0e0e0" stroke="#999999" points="78.5,-19.25 21.25,-19.25 21.25,0 78.5,0 78.5,-19.25"/>
<text xml:space="preserve" text-anchor="middle" x="49.88" y="-5.75" font-family="Helvetica,sans-Serif" font-size="10.00">Arduino.h</text>
</a>
</g>
</g>
<!-- Node1&#45;&gt;Node2 -->
<g id="edge1_Node000001_Node000002" class="edge">
<title>Node1&#45;&gt;Node2</title>
<g id="a_edge1_Node000001_Node000002"><a xlink:title=" ">
<path fill="none" stroke="#63b8ff" d="M58.27,-110.05C37.63,-103.69 16.25,-92.88 3.88,-74.5 -7.46,-57.67 9.84,-38.87 26.36,-26.05"/>
<polygon fill="#63b8ff" stroke="#63b8ff" points="28,-29.18 34.05,-20.48 23.9,-23.51 28,-29.18"/>
</a>
</g>
</g>
<!-- Node3 -->
<g id="Node000003" class="node">
<title>Node3</title>
<g id="a_Node000003"><a xlink:href="_p_i_d_8hpp.html" target="_top" xlink:title=" ">
<polygon fill="white" stroke="#666666" points="86.38,-74.5 13.38,-74.5 13.38,-55.25 86.38,-55.25 86.38,-74.5"/>
<text xml:space="preserve" text-anchor="middle" x="49.88" y="-61" font-family="Helvetica,sans-Serif" font-size="10.00">utils/PID.hpp</text>
</a>
</g>
</g>
<!-- Node1&#45;&gt;Node3 -->
<g id="edge2_Node000001_Node000003" class="edge">
<title>Node1&#45;&gt;Node3</title>
<g id="a_edge2_Node000001_Node000003"><a xlink:title=" ">
<path fill="none" stroke="#63b8ff" d="M103.02,-110.09C93.77,-102.4 80.26,-91.15 69.17,-81.93"/>
<polygon fill="#63b8ff" stroke="#63b8ff" points="71.66,-79.45 61.74,-75.74 67.19,-84.83 71.66,-79.45"/>
</a>
</g>
</g>
<!-- Node4 -->
<g id="Node000004" class="node">
<title>Node4</title>
<g id="a_Node000004"><a xlink:title=" ">
<polygon fill="#e0e0e0" stroke="#999999" points="253.63,-74.5 104.13,-74.5 104.13,-55.25 253.63,-55.25 253.63,-74.5"/>
<text xml:space="preserve" text-anchor="middle" x="178.88" y="-61" font-family="Helvetica,sans-Serif" font-size="10.00">DualTB9051FTGMotorShield.h</text>
</a>
</g>
</g>
<!-- Node1&#45;&gt;Node4 -->
<g id="edge4_Node000001_Node000004" class="edge">
<title>Node1&#45;&gt;Node4</title>
<g id="a_edge4_Node000001_Node000004"><a xlink:title=" ">
<path fill="none" stroke="#63b8ff" d="M124.91,-110.09C134.3,-102.4 148.03,-91.15 159.29,-81.93"/>
<polygon fill="#63b8ff" stroke="#63b8ff" points="161.33,-84.78 166.84,-75.73 156.89,-79.36 161.33,-84.78"/>
</a>
</g>
</g>
<!-- Node5 -->
<g id="Node000005" class="node">
<title>Node5</title>
<g id="a_Node000005"><a xlink:href="_l298_n_motor_driver_mega_8h.html" target="_top" xlink:title=" ">
<polygon fill="white" stroke="#666666" points="399.75,-74.5 272,-74.5 272,-55.25 399.75,-55.25 399.75,-74.5"/>
<text xml:space="preserve" text-anchor="middle" x="335.88" y="-61" font-family="Helvetica,sans-Serif" font-size="10.00">L298NMotorDriverMega.h</text>
</a>
</g>
</g>
<!-- Node1&#45;&gt;Node5 -->
<g id="edge5_Node000001_Node000005" class="edge">
<title>Node1&#45;&gt;Node5</title>
<g id="a_edge5_Node000001_Node000005"><a xlink:title=" ">
<path fill="none" stroke="#63b8ff" d="M151.79,-110.03C189.14,-101.07 246.38,-87.34 287.11,-77.57"/>
<polygon fill="#63b8ff" stroke="#63b8ff" points="287.74,-81.02 296.65,-75.28 286.11,-74.21 287.74,-81.02"/>
</a>
</g>
</g>
<!-- Node3&#45;&gt;Node2 -->
<g id="edge3_Node000003_Node000002" class="edge">
<title>Node3&#45;&gt;Node2</title>
<g id="a_edge3_Node000003_Node000002"><a xlink:title=" ">
<path fill="none" stroke="#63b8ff" d="M49.88,-55.08C49.88,-48.57 49.88,-39.42 49.88,-31.12"/>
<polygon fill="#63b8ff" stroke="#63b8ff" points="53.38,-31.12 49.88,-21.12 46.38,-31.12 53.38,-31.12"/>
</a>
</g>
</g>
<!-- Node5&#45;&gt;Node2 -->
<g id="edge6_Node000005_Node000002" class="edge">
<title>Node5&#45;&gt;Node2</title>
<g id="a_edge6_Node000005_Node000002"><a xlink:title=" ">
<path fill="none" stroke="#63b8ff" d="M287.04,-54.78C231.42,-44.43 141.58,-27.7 89.92,-18.08"/>
<polygon fill="#63b8ff" stroke="#63b8ff" points="90.84,-14.69 80.37,-16.3 89.56,-21.57 90.84,-14.69"/>
</a>
</g>
</g>
</g>
</svg>
