<?xml version="1.0" encoding="UTF-8" standalone="no"?>
<!DOCTYPE svg PUBLIC "-//W3C//DTD SVG 1.1//EN"
 "http://www.w3.org/Graphics/SVG/1.1/DTD/svg11.dtd">
<!-- Generated by graphviz version 14.1.2 (20260124.0452)
 -->
<!-- Title: src/Devices/DualMotorController.hpp Pages: 1 -->
<svg width="2465pt" height="404pt"
 viewBox="0.00 0.00 2465.00 404.00" xmlns="http://www.w3.org/2000/svg" xmlns:xlink="http://www.w3.org/1999/xlink">
<g id="graph0" class="graph" transform="scale(1 1) rotate(0) translate(4 399.75)">
<title>src/Devices/DualMotorController.hpp</title>
<!-- Node1 -->
<g id="Node000001" class="node">
<title>Node1</title>
<g id="a_Node000001"><a xlink:title="Dual closed&#45;loop motor controller wrapping an L298N driver with two independent PID loops.">
<polygon fill="#999999" stroke="#666666" points="1308.75,-395.75 1132.25,-395.75 1132.25,-376.5 1308.75,-376.5 1308.75,-395.75"/>
<text xml:space="preserve" text-anchor="middle" x="1220.5" y="-382.25" font-family="Helvetica,sans-Serif" font-size="10.00">src/Devices/DualMotorController.hpp</text>
</a>
</g>
</g>
<!-- Node2 -->
<g id="Node000002" class="node">
<title>Node2</title>
<g id="a_Node000002"><a xlink:href="_config_8hpp.html" target="_top" xlink:title="Central configuration: pin assignments, physical constants, and PID gains.">
<polygon fill="white" stroke="#666666" points="1269,-340.5 1172,-340.5 1172,-321.25 1269,-321.25 1269,-340.5"/>
<text xml:space="preserve" text-anchor="middle" x="1220.5" y="-327" font-family="Helvetica,sans-Serif" font-size="10.00">include/Config.hpp</text>
</a>
</g>
</g>
<!-- Node1&#45;&gt;Node2 -->
<g id="edge1_Node000001_Node000002" class="edge">
<title>Node1&#45;&gt;Node2</title>
<g id="a_edge1_Node000001_Node000002"><a xlink:title=" ">
<path fill="none" stroke="#63b8ff" d="M1220.5,-364.88C1220.5,-356.59 1220.5,-347.42 1220.5,-340.86"/>
<polygon fill="#63b8ff" stroke="#63b8ff" points="1217,-364.82 1220.5,-374.82 1224,-364.82 1217,-364.82"/>
</a>
</g>
</g>
<!-- Node3 -->
<g id="Node000003" class="node">
<title>Node3</title>
<g id="a_Node000003"><a xlink:href="_autonomous_routine_8hpp.html" target="_top" xlink:title="Sequential container that drives an ordered list of AutoStep objects.">
<polygon fill="white" stroke="#666666" points="145,-285.25 0,-285.25 0,-254.75 145,-254.75 145,-285.25"/>
<text xml:space="preserve" text-anchor="start" x="8" y="-271.75" font-family="Helvetica,sans-Serif" font-size="10.00">src/Autonomous/Autonomous</text>
<text xml:space="preserve" text-anchor="middle" x="72.5" y="-260.5" font-family="Helvetica,sans-Serif" font-size="10.00">Routine.hpp</text>
</a>
</g>
</g>
<!-- Node2&#45;&gt;Node3 -->
<g id="edge2_Node000002_Node000003" class="edge">
<title>Node2&#45;&gt;Node3</title>
<g id="a_edge2_Node000002_Node000003"><a xlink:title=" ">
<path fill="none" stroke="#63b8ff" d="M1160.57,-329.88C998.68,-329.33 539.2,-324.19 159.5,-285.25 154.78,-284.77 149.93,-284.19 145.04,-283.55"/>
<polygon fill="#63b8ff" stroke="#63b8ff" points="1160.18,-333.37 1170.19,-329.9 1160.2,-326.37 1160.18,-333.37"/>
</a>
</g>
</g>
<!-- Node4 -->
<g id="Node000004" class="node">
<title>Node4</title>
<g id="a_Node000004"><a xlink:href="_robot_8hpp.html" target="_top" xlink:title="Top&#45;level robot class that owns all subsystems and the autonomous scheduler.">
<polygon fill="white" stroke="#666666" points="1608.25,-85.75 1530.75,-85.75 1530.75,-66.5 1608.25,-66.5 1608.25,-85.75"/>
<text xml:space="preserve" text-anchor="middle" x="1569.5" y="-72.25" font-family="Helvetica,sans-Serif" font-size="10.00">src/Robot.hpp</text>
</a>
</g>
</g>
<!-- Node2&#45;&gt;Node4 -->
<g id="edge11_Node000002_Node000004" class="edge">
<title>Node2&#45;&gt;Node4</title>
<g id="a_edge11_Node000002_Node000004"><a xlink:title=" ">
<path fill="none" stroke="#63b8ff" d="M1160.29,-326.49C1056.03,-320.33 835.24,-306 649.5,-285.25 443.15,-262.2 94,-371.04 192.5,-188.25 218,-140.94 242.28,-138.02 293.5,-121.75 409.41,-84.93 1265.98,-90.63 1387.5,-85.75 1436.81,-83.77 1493.6,-81 1530.45,-79.14"/>
<polygon fill="#63b8ff" stroke="#63b8ff" points="1159.81,-329.97 1170,-327.06 1160.22,-322.98 1159.81,-329.97"/>
</a>
</g>
</g>
<!-- Node7 -->
<g id="Node000007" class="node">
<title>Node7</title>
<g id="a_Node000007"><a xlink:href="_composite_step_8hpp.html" target="_top" xlink:title="AutoStep that runs a heap&#45;owned sequence of child steps in order.">
<polygon fill="white" stroke="#666666" points="317.38,-218.75 201.62,-218.75 201.62,-188.25 317.38,-188.25 317.38,-218.75"/>
<text xml:space="preserve" text-anchor="start" x="209.62" y="-205.25" font-family="Helvetica,sans-Serif" font-size="10.00">src/Autonomous/Steps</text>
<text xml:space="preserve" text-anchor="middle" x="259.5" y="-194" font-family="Helvetica,sans-Serif" font-size="10.00">/CompositeStep.hpp</text>
</a>
</g>
</g>
<!-- Node2&#45;&gt;Node7 -->
<g id="edge6_Node000002_Node000007" class="edge">
<title>Node2&#45;&gt;Node7</title>
<g id="a_edge6_Node000002_Node000007"><a xlink:title=" ">
<path fill="none" stroke="#63b8ff" d="M1160.34,-322.03C987.06,-299.42 488.32,-234.35 317.62,-212.08"/>
<polygon fill="#63b8ff" stroke="#63b8ff" points="1159.65,-325.47 1170.02,-323.29 1160.56,-318.53 1159.65,-325.47"/>
</a>
</g>
</g>
<!-- Node10 -->
<g id="Node000010" class="node">
<title>Node10</title>
<g id="a_Node000010"><a xlink:href="_drive_8hpp.html" target="_top" xlink:title="Differential&#45;drive subsystem: closed&#45;loop wheel control, line following, wall&#45;distance holding,...">
<polygon fill="white" stroke="#666666" points="1285.88,-279.62 1155.12,-279.62 1155.12,-260.38 1285.88,-260.38 1285.88,-279.62"/>
<text xml:space="preserve" text-anchor="middle" x="1220.5" y="-266.12" font-family="Helvetica,sans-Serif" font-size="10.00">src/subsystems/Drive.hpp</text>
</a>
</g>
</g>
<!-- Node2&#45;&gt;Node10 -->
<g id="edge12_Node000002_Node000010" class="edge">
<title>Node2&#45;&gt;Node10</title>
<g id="a_edge12_Node000002_Node000010"><a xlink:title=" ">
<path fill="none" stroke="#63b8ff" d="M1220.5,-309.45C1220.5,-299.42 1220.5,-287.83 1220.5,-280.03"/>
<polygon fill="#63b8ff" stroke="#63b8ff" points="1217,-309.42 1220.5,-319.42 1224,-309.42 1217,-309.42"/>
</a>
</g>
</g>
<!-- Node27 -->
<g id="Node000027" class="node">
<title>Node27</title>
<g id="a_Node000027"><a xlink:href="_miner_8hpp.html" target="_top" xlink:title="Miner subsystem: servo&#45;driven block&#45;pressing mechanism and ramp deployment.">
<polygon fill="white" stroke="#666666" points="2070.88,-279.62 1940.12,-279.62 1940.12,-260.38 2070.88,-260.38 2070.88,-279.62"/>
<text xml:space="preserve" text-anchor="middle" x="2005.5" y="-266.12" font-family="Helvetica,sans-Serif" font-size="10.00">src/subsystems/Miner.hpp</text>
</a>
</g>
</g>
<!-- Node2&#45;&gt;Node27 -->
<g id="edge49_Node000002_Node000027" class="edge">
<title>Node2&#45;&gt;Node27</title>
<g id="a_edge49_Node000002_Node000027"><a xlink:title=" ">
<path fill="none" stroke="#63b8ff" d="M1280.53,-325.37C1424.73,-314.56 1789.77,-287.18 1939.69,-275.94"/>
<polygon fill="#63b8ff" stroke="#63b8ff" points="1280.53,-321.86 1270.82,-326.1 1281.05,-328.84 1280.53,-321.86"/>
</a>
</g>
</g>
<!-- Node28 -->
<g id="Node000028" class="node">
<title>Node28</title>
<g id="a_Node000028"><a xlink:href="_shooter_8hpp.html" target="_top" xlink:title="Rack&#45;and&#45;pinion block shooter subsystem.">
<polygon fill="white" stroke="#666666" points="2335.75,-213.12 2195.25,-213.12 2195.25,-193.88 2335.75,-193.88 2335.75,-213.12"/>
<text xml:space="preserve" text-anchor="middle" x="2265.5" y="-199.62" font-family="Helvetica,sans-Serif" font-size="10.00">src/subsystems/Shooter.hpp</text>
</a>
</g>
</g>
<!-- Node2&#45;&gt;Node28 -->
<g id="edge55_Node000002_Node000028" class="edge">
<title>Node2&#45;&gt;Node28</title>
<g id="a_edge55_Node000002_Node000028"><a xlink:title=" ">
<path fill="none" stroke="#63b8ff" d="M1280.52,-328.89C1463.34,-325.58 2005.43,-313.48 2079.5,-285.25 2099.74,-277.54 2098.51,-265.17 2117.5,-254.75 2152.59,-235.5 2196.38,-221.75 2227.19,-213.55"/>
<polygon fill="#63b8ff" stroke="#63b8ff" points="1280.71,-325.38 1270.77,-329.06 1280.83,-332.38 1280.71,-325.38"/>
</a>
</g>
</g>
<!-- Node31 -->
<g id="Node000031" class="node">
<title>Node31</title>
<g id="a_Node000031"><a xlink:href="_odometry_8cpp.html" target="_top" xlink:title="Implementation of the differential&#45;drive odometry integrator.">
<polygon fill="white" stroke="#666666" points="2240.25,-279.62 2126.75,-279.62 2126.75,-260.38 2240.25,-260.38 2240.25,-279.62"/>
<text xml:space="preserve" text-anchor="middle" x="2183.5" y="-266.12" font-family="Helvetica,sans-Serif" font-size="10.00">src/utils/Odometry.cpp</text>
</a>
</g>
</g>
<!-- Node2&#45;&gt;Node31 -->
<g id="edge63_Node000002_Node000031" class="edge">
<title>Node2&#45;&gt;Node31</title>
<g id="a_edge63_Node000002_Node000031"><a xlink:title=" ">
<path fill="none" stroke="#63b8ff" d="M1280.23,-329.93C1424.08,-329.41 1800.9,-324.1 2112.5,-285.25 2122.61,-283.99 2133.42,-282.1 2143.49,-280.11"/>
<polygon fill="#63b8ff" stroke="#63b8ff" points="1280.57,-326.43 1270.58,-329.96 1280.59,-333.43 1280.57,-326.43"/>
</a>
</g>
</g>
<!-- Node3&#45;&gt;Node4 -->
<g id="edge3_Node000003_Node000004" class="edge">
<title>Node3&#45;&gt;Node4</title>
<g id="a_edge3_Node000003_Node000004"><a xlink:title=" ">
<path fill="none" stroke="#63b8ff" d="M79.15,-243.74C89.73,-209.24 114.01,-148.6 159.5,-121.75 218.28,-87.06 1319.3,-88.37 1387.5,-85.75 1436.81,-83.86 1493.61,-81.07 1530.46,-79.18"/>
<polygon fill="#63b8ff" stroke="#63b8ff" points="75.92,-242.32 76.5,-252.9 82.64,-244.27 75.92,-242.32"/>
</a>
</g>
</g>
<!-- Node5 -->
<g id="Node000005" class="node">
<title>Node5</title>
<g id="a_Node000005"><a xlink:href="_strategy_controller_step_8hpp.html" target="_top" xlink:title="High&#45;level AutoStep that runs the full strategy loop inline.">
<polygon fill="white" stroke="#666666" points="1575.88,-30.5 1439.12,-30.5 1439.12,0 1575.88,0 1575.88,-30.5"/>
<text xml:space="preserve" text-anchor="start" x="1447.12" y="-17" font-family="Helvetica,sans-Serif" font-size="10.00">src/Autonomous/Steps</text>
<text xml:space="preserve" text-anchor="middle" x="1507.5" y="-5.75" font-family="Helvetica,sans-Serif" font-size="10.00">/StrategyControllerStep.hpp</text>
</a>
</g>
</g>
<!-- Node4&#45;&gt;Node5 -->
<g id="edge4_Node000004_Node000005" class="edge">
<title>Node4&#45;&gt;Node5</title>
<g id="a_edge4_Node000004_Node000005"><a xlink:title=" ">
<path fill="none" stroke="#63b8ff" d="M1552.01,-58.52C1542.82,-49.79 1531.65,-39.18 1522.8,-30.78"/>
<polygon fill="#63b8ff" stroke="#63b8ff" points="1549.32,-60.79 1558.99,-65.14 1554.14,-55.72 1549.32,-60.79"/>
</a>
</g>
</g>
<!-- Node6 -->
<g id="Node000006" class="node">
<title>Node6</title>
<g id="a_Node000006"><a xlink:href="main_8cpp.html" target="_top" xlink:title="Arduino entry point — instantiates the Robot and drives the main loop.">
<polygon fill="white" stroke="#666666" points="1666.62,-24.88 1594.38,-24.88 1594.38,-5.63 1666.62,-5.63 1666.62,-24.88"/>
<text xml:space="preserve" text-anchor="middle" x="1630.5" y="-11.38" font-family="Helvetica,sans-Serif" font-size="10.00">src/main.cpp</text>
</a>
</g>
</g>
<!-- Node4&#45;&gt;Node6 -->
<g id="edge5_Node000004_Node000006" class="edge">
<title>Node4&#45;&gt;Node6</title>
<g id="a_edge5_Node000004_Node000006"><a xlink:title=" ">
<path fill="none" stroke="#63b8ff" d="M1586.93,-58.3C1598.07,-47.55 1612.07,-34.04 1621.15,-25.28"/>
<polygon fill="#63b8ff" stroke="#63b8ff" points="1584.62,-55.67 1579.85,-65.13 1589.48,-60.71 1584.62,-55.67"/>
</a>
</g>
</g>
<!-- Node7&#45;&gt;Node4 -->
<g id="edge10_Node000007_Node000004" class="edge">
<title>Node7&#45;&gt;Node4</title>
<g id="a_edge10_Node000007_Node000004"><a xlink:title=" ">
<path fill="none" stroke="#63b8ff" d="M274.3,-178.51C287.66,-159.29 309.21,-133.65 335.5,-121.75 442.06,-73.53 1270.64,-90.52 1387.5,-85.75 1436.81,-83.74 1493.6,-80.98 1530.45,-79.12"/>
<polygon fill="#63b8ff" stroke="#63b8ff" points="271.54,-176.34 268.92,-186.6 277.37,-180.21 271.54,-176.34"/>
</a>
</g>
</g>
<!-- Node8 -->
<g id="Node000008" class="node">
<title>Node8</title>
<g id="a_Node000008"><a xlink:href="_planner_8hpp.html" target="_top" xlink:title="High&#45;level autonomous planner used with ReplanStep.">
<polygon fill="white" stroke="#666666" points="1378.12,-146.62 1236.88,-146.62 1236.88,-127.38 1378.12,-127.38 1378.12,-146.62"/>
<text xml:space="preserve" text-anchor="middle" x="1307.5" y="-133.12" font-family="Helvetica,sans-Serif" font-size="10.00">src/Autonomous/Planner.hpp</text>
</a>
</g>
</g>
<!-- Node7&#45;&gt;Node8 -->
<g id="edge7_Node000007_Node000008" class="edge">
<title>Node7&#45;&gt;Node8</title>
<g id="a_edge7_Node000007_Node000008"><a xlink:title=" ">
<path fill="none" stroke="#63b8ff" d="M328.77,-194.87C352.16,-192.49 378.44,-190.02 402.5,-188.25 735.76,-163.67 820.16,-175.65 1153.5,-152.25 1180.69,-150.34 1210.52,-147.71 1236.64,-145.22"/>
<polygon fill="#63b8ff" stroke="#63b8ff" points="328.63,-191.37 319.04,-195.88 329.35,-198.33 328.63,-191.37"/>
</a>
</g>
</g>
<!-- Node8&#45;&gt;Node4 -->
<g id="edge9_Node000008_Node000004" class="edge">
<title>Node8&#45;&gt;Node4</title>
<g id="a_edge9_Node000008_Node000004"><a xlink:title=" ">
<path fill="none" stroke="#63b8ff" d="M1358.82,-124.47C1409.14,-113.16 1484.74,-96.17 1530.38,-85.92"/>
<polygon fill="#63b8ff" stroke="#63b8ff" points="1358.33,-120.99 1349.34,-126.6 1359.86,-127.82 1358.33,-120.99"/>
</a>
</g>
</g>
<!-- Node9 -->
<g id="Node000009" class="node">
<title>Node9</title>
<g id="a_Node000009"><a xlink:href="_planner_8cpp.html" target="_top" xlink:title="Implementation of the autonomous Planner state machine.">
<polygon fill="white" stroke="#666666" points="1378.12,-85.75 1236.88,-85.75 1236.88,-66.5 1378.12,-66.5 1378.12,-85.75"/>
<text xml:space="preserve" text-anchor="middle" x="1307.5" y="-72.25" font-family="Helvetica,sans-Serif" font-size="10.00">src/Autonomous/Planner.cpp</text>
</a>
</g>
</g>
<!-- Node8&#45;&gt;Node9 -->
<g id="edge8_Node000008_Node000009" class="edge">
<title>Node8&#45;&gt;Node9</title>
<g id="a_edge8_Node000008_Node000009"><a xlink:title=" ">
<path fill="none" stroke="#63b8ff" d="M1307.5,-115.57C1307.5,-105.54 1307.5,-93.96 1307.5,-86.15"/>
<polygon fill="#63b8ff" stroke="#63b8ff" points="1304,-115.54 1307.5,-125.54 1311,-115.54 1304,-115.54"/>
</a>
</g>
</g>
<!-- Node10&#45;&gt;Node4 -->
<g id="edge48_Node000010_Node000004" class="edge">
<title>Node10&#45;&gt;Node4</title>
<g id="a_edge48_Node000010_Node000004"><a xlink:title=" ">
<path fill="none" stroke="#63b8ff" d="M1297.25,-266.3C1423.76,-261.06 1664.74,-247.41 1690.5,-218.75 1699.56,-208.67 1695.95,-200.66 1690.5,-188.25 1668.93,-139.16 1613.79,-102.24 1586.01,-86.09"/>
<polygon fill="#63b8ff" stroke="#63b8ff" points="1297.48,-262.79 1287.63,-266.7 1297.76,-269.79 1297.48,-262.79"/>
</a>
</g>
</g>
<!-- Node10&#45;&gt;Node8 -->
<g id="edge13_Node000010_Node000008" class="edge">
<title>Node10&#45;&gt;Node8</title>
<g id="a_edge13_Node000010_Node000008"><a xlink:title=" ">
<path fill="none" stroke="#63b8ff" d="M1232.6,-250.78C1251.49,-222.34 1287.28,-168.45 1301.48,-147.07"/>
<polygon fill="#63b8ff" stroke="#63b8ff" points="1229.93,-248.47 1227.32,-258.74 1235.77,-252.34 1229.93,-248.47"/>
</a>
</g>
</g>
<!-- Node11 -->
<g id="Node000011" class="node">
<title>Node11</title>
<g id="a_Node000011"><a xlink:href="_accelerate_straight_line_8hpp.html" target="_top" xlink:title="AutoStep that drives straight while ramping speed up to a target velocity.">
<polygon fill="white" stroke="#666666" points="1144.5,-152.25 1008.5,-152.25 1008.5,-121.75 1144.5,-121.75 1144.5,-152.25"/>
<text xml:space="preserve" text-anchor="start" x="1016.5" y="-138.75" font-family="Helvetica,sans-Serif" font-size="10.00">src/Autonomous/Steps</text>
<text xml:space="preserve" text-anchor="middle" x="1076.5" y="-127.5" font-family="Helvetica,sans-Serif" font-size="10.00">/AccelerateStraightLine.hpp</text>
</a>
</g>
</g>
<!-- Node10&#45;&gt;Node11 -->
<g id="edge14_Node000010_Node000011" class="edge">
<title>Node10&#45;&gt;Node11</title>
<g id="a_edge14_Node000010_Node000011"><a xlink:title=" ">
<path fill="none" stroke="#63b8ff" d="M1143.53,-267.03C1007.73,-262.75 737.13,-250.33 708.5,-218.75 699.39,-208.71 699.59,-198.46 708.5,-188.25 713.4,-182.63 903.4,-158.89 1008.41,-146.16"/>
<polygon fill="#63b8ff" stroke="#63b8ff" points="1143.04,-270.52 1153.14,-267.32 1143.26,-263.52 1143.04,-270.52"/>
</a>
</g>
</g>
<!-- Node12 -->
<g id="Node000012" class="node">
<title>Node12</title>
<g id="a_Node000012"><a xlink:href="_advance_cycle_step_8hpp.html" target="_top" xlink:title="Instantaneous AutoStep that advances the Strategy craft cycle by one.">
<polygon fill="white" stroke="#666666" points="1413.38,-218.75 1291.62,-218.75 1291.62,-188.25 1413.38,-188.25 1413.38,-218.75"/>
<text xml:space="preserve" text-anchor="start" x="1299.62" y="-205.25" font-family="Helvetica,sans-Serif" font-size="10.00">src/Autonomous/Steps</text>
<text xml:space="preserve" text-anchor="middle" x="1352.5" y="-194" font-family="Helvetica,sans-Serif" font-size="10.00">/AdvanceCycleStep.hpp</text>
</a>
</g>
</g>
<!-- Node10&#45;&gt;Node12 -->
<g id="edge16_Node000010_Node000012" class="edge">
<title>Node10&#45;&gt;Node12</title>
<g id="a_edge16_Node000010_Node000012"><a xlink:title=" ">
<path fill="none" stroke="#63b8ff" d="M1249.36,-254.9C1271.02,-244.31 1300.59,-229.86 1322.52,-219.15"/>
<polygon fill="#63b8ff" stroke="#63b8ff" points="1247.94,-251.7 1240.49,-259.23 1251.01,-257.99 1247.94,-251.7"/>
</a>
</g>
</g>
<!-- Node13 -->
<g id="Node000013" class="node">
<title>Node13</title>
<g id="a_Node000013"><a xlink:href="_deploy_ramp_8hpp.html" target="_top" xlink:title="Instantaneous AutoStep that deploys the miner&#39;s block&#45;collection ramp.">
<polygon fill="white" stroke="#666666" points="2063.38,-218.75 1947.62,-218.75 1947.62,-188.25 2063.38,-188.25 2063.38,-218.75"/>
<text xml:space="preserve" text-anchor="start" x="1955.62" y="-205.25" font-family="Helvetica,sans-Serif" font-size="10.00">src/Autonomous/Steps</text>
<text xml:space="preserve" text-anchor="middle" x="2005.5" y="-194" font-family="Helvetica,sans-Serif" font-size="10.00">/DeployRamp.hpp</text>
</a>
</g>
</g>
<!-- Node10&#45;&gt;Node13 -->
<g id="edge18_Node000010_Node000013" class="edge">
<title>Node10&#45;&gt;Node13</title>
<g id="a_edge18_Node000010_Node000013"><a xlink:title=" ">
<path fill="none" stroke="#63b8ff" d="M1297.63,-266.72C1428.76,-262.15 1703.37,-249.51 1933.5,-218.75 1938.05,-218.14 1942.74,-217.42 1947.44,-216.64"/>
<polygon fill="#63b8ff" stroke="#63b8ff" points="1297.54,-263.23 1287.66,-267.06 1297.78,-270.22 1297.54,-263.23"/>
</a>
</g>
</g>
<!-- Node14 -->
<g id="Node000014" class="node">
<title>Node14</title>
<g id="a_Node000014"><a xlink:href="_detect_block_8hpp.html" target="_top" xlink:title="AutoStep that samples the color sensor and updates Strategy with the detected block type.">
<polygon fill="white" stroke="#666666" points="1547.38,-218.75 1431.62,-218.75 1431.62,-188.25 1547.38,-188.25 1547.38,-218.75"/>
<text xml:space="preserve" text-anchor="start" x="1439.62" y="-205.25" font-family="Helvetica,sans-Serif" font-size="10.00">src/Autonomous/Steps</text>
<text xml:space="preserve" text-anchor="middle" x="1489.5" y="-194" font-family="Helvetica,sans-Serif" font-size="10.00">/DetectBlock.hpp</text>
</a>
</g>
</g>
<!-- Node10&#45;&gt;Node14 -->
<g id="edge20_Node000010_Node000014" class="edge">
<title>Node10&#45;&gt;Node14</title>
<g id="a_edge20_Node000010_Node000014"><a xlink:title=" ">
<path fill="none" stroke="#63b8ff" d="M1269.54,-257.24C1315.08,-246.32 1382.92,-230.05 1431.21,-218.48"/>
<polygon fill="#63b8ff" stroke="#63b8ff" points="1268.85,-253.81 1259.94,-259.54 1270.48,-260.61 1268.85,-253.81"/>
</a>
</g>
</g>
<!-- Node15 -->
<g id="Node000015" class="node">
<title>Node15</title>
<g id="a_Node000015"><a xlink:href="_drive_arc_8hpp.html" target="_top" xlink:title="AutoStep that drives the robot along a circular arc.">
<polygon fill="white" stroke="#666666" points="1681.38,-218.75 1565.62,-218.75 1565.62,-188.25 1681.38,-188.25 1681.38,-218.75"/>
<text xml:space="preserve" text-anchor="start" x="1573.62" y="-205.25" font-family="Helvetica,sans-Serif" font-size="10.00">src/Autonomous/Steps</text>
<text xml:space="preserve" text-anchor="middle" x="1623.5" y="-194" font-family="Helvetica,sans-Serif" font-size="10.00">/DriveArc.hpp</text>
</a>
</g>
</g>
<!-- Node10&#45;&gt;Node15 -->
<g id="edge22_Node000010_Node000015" class="edge">
<title>Node10&#45;&gt;Node15</title>
<g id="a_edge22_Node000010_Node000015"><a xlink:title=" ">
<path fill="none" stroke="#63b8ff" d="M1297.44,-258.86C1365.68,-249.53 1467.98,-234.77 1556.5,-218.75 1559.43,-218.22 1562.42,-217.66 1565.44,-217.08"/>
<polygon fill="#63b8ff" stroke="#63b8ff" points="1297.3,-255.34 1287.87,-260.16 1298.25,-262.28 1297.3,-255.34"/>
</a>
</g>
</g>
<!-- Node16 -->
<g id="Node000016" class="node">
<title>Node16</title>
<g id="a_Node000016"><a xlink:href="_drive_distance_8hpp.html" target="_top" xlink:title="AutoStep that drives straight for a specified distance at a fixed velocity.">
<polygon fill="white" stroke="#666666" points="833.38,-218.75 717.62,-218.75 717.62,-188.25 833.38,-188.25 833.38,-218.75"/>
<text xml:space="preserve" text-anchor="start" x="725.62" y="-205.25" font-family="Helvetica,sans-Serif" font-size="10.00">src/Autonomous/Steps</text>
<text xml:space="preserve" text-anchor="middle" x="775.5" y="-194" font-family="Helvetica,sans-Serif" font-size="10.00">/DriveDistance.hpp</text>
</a>
</g>
</g>
<!-- Node10&#45;&gt;Node16 -->
<g id="edge24_Node000010_Node000016" class="edge">
<title>Node10&#45;&gt;Node16</title>
<g id="a_edge24_Node000010_Node000016"><a xlink:title=" ">
<path fill="none" stroke="#63b8ff" d="M1143.27,-260.51C1066.69,-251.67 946.13,-236.63 842.5,-218.75 839.57,-218.24 836.57,-217.7 833.55,-217.13"/>
<polygon fill="#63b8ff" stroke="#63b8ff" points="1142.87,-263.98 1153.21,-261.65 1143.67,-257.03 1142.87,-263.98"/>
</a>
</g>
</g>
<!-- Node17 -->
<g id="Node000017" class="node">
<title>Node17</title>
<g id="a_Node000017"><a xlink:href="_drive_line_until_wall_8hpp.html" target="_top" xlink:title="AutoStep that follows a line until the distance sensor reads a target wall distance.">
<polygon fill="white" stroke="#666666" points="1806.5,-152.25 1688.5,-152.25 1688.5,-121.75 1806.5,-121.75 1806.5,-152.25"/>
<text xml:space="preserve" text-anchor="start" x="1696.5" y="-138.75" font-family="Helvetica,sans-Serif" font-size="10.00">src/Autonomous/Steps</text>
<text xml:space="preserve" text-anchor="middle" x="1747.5" y="-127.5" font-family="Helvetica,sans-Serif" font-size="10.00">/DriveLineUntilWall.hpp</text>
</a>
</g>
</g>
<!-- Node10&#45;&gt;Node17 -->
<g id="edge27_Node000010_Node000017" class="edge">
<title>Node10&#45;&gt;Node17</title>
<g id="a_edge27_Node000010_Node000017"><a xlink:title=" ">
<path fill="none" stroke="#63b8ff" d="M1297.23,-265.99C1429.96,-260.12 1691.38,-245.3 1723.5,-218.75 1743.11,-202.54 1747.15,-171.06 1747.73,-152.56"/>
<polygon fill="#63b8ff" stroke="#63b8ff" points="1297.31,-262.49 1287.47,-266.42 1297.62,-269.48 1297.31,-262.49"/>
</a>
</g>
</g>
<!-- Node18 -->
<g id="Node000018" class="node">
<title>Node18</title>
<g id="a_Node000018"><a xlink:href="_drive_radius_angle_8hpp.html" target="_top" xlink:title="AutoStep that drives along an arc for a specified heading change (degrees).">
<polygon fill="white" stroke="#666666" points="460.75,-152.25 344.25,-152.25 344.25,-121.75 460.75,-121.75 460.75,-152.25"/>
<text xml:space="preserve" text-anchor="start" x="352.25" y="-138.75" font-family="Helvetica,sans-Serif" font-size="10.00">src/Autonomous/Steps</text>
<text xml:space="preserve" text-anchor="middle" x="402.5" y="-127.5" font-family="Helvetica,sans-Serif" font-size="10.00">/DriveRadiusAngle.hpp</text>
</a>
</g>
</g>
<!-- Node10&#45;&gt;Node18 -->
<g id="edge29_Node000010_Node000018" class="edge">
<title>Node10&#45;&gt;Node18</title>
<g id="a_edge29_Node000010_Node000018"><a xlink:title=" ">
<path fill="none" stroke="#63b8ff" d="M1143.41,-267.16C942.59,-261.98 417.05,-245.9 391.5,-218.75 374.82,-201.03 385.52,-170.67 394.34,-152.65"/>
<polygon fill="#63b8ff" stroke="#63b8ff" points="1143.14,-270.65 1153.22,-267.41 1143.31,-263.65 1143.14,-270.65"/>
</a>
</g>
</g>
<!-- Node19 -->
<g id="Node000019" class="node">
<title>Node19</title>
<g id="a_Node000019"><a xlink:href="_drive_radius_at_velocity_8hpp.html" target="_top" xlink:title="AutoStep that drives along a constant&#45;radius arc for a specified arc length.">
<polygon fill="white" stroke="#666666" points="807.12,-152.25 671.88,-152.25 671.88,-121.75 807.12,-121.75 807.12,-152.25"/>
<text xml:space="preserve" text-anchor="start" x="679.88" y="-138.75" font-family="Helvetica,sans-Serif" font-size="10.00">src/Autonomous/Steps</text>
<text xml:space="preserve" text-anchor="middle" x="739.5" y="-127.5" font-family="Helvetica,sans-Serif" font-size="10.00">/DriveRadiusAtVelocity.hpp</text>
</a>
</g>
</g>
<!-- Node10&#45;&gt;Node19 -->
<g id="edge31_Node000010_Node000019" class="edge">
<title>Node10&#45;&gt;Node19</title>
<g id="a_edge31_Node000010_Node000019"><a xlink:title=" ">
<path fill="none" stroke="#63b8ff" d="M1143.43,-267.09C944.53,-261.79 427.66,-245.51 402.5,-218.75 393.21,-208.88 393.65,-198.52 402.5,-188.25 436.53,-148.76 583.44,-139.83 671.67,-138.1"/>
<polygon fill="#63b8ff" stroke="#63b8ff" points="1143.33,-270.59 1153.42,-267.36 1143.52,-263.59 1143.33,-270.59"/>
</a>
</g>
</g>
<!-- Node20 -->
<g id="Node000020" class="node">
<title>Node20</title>
<g id="a_Node000020"><a xlink:href="_drive_until_wall_8hpp.html" target="_top" xlink:title="AutoStep that drives straight toward a wall until the distance sensor reaches a setpoint.">
<polygon fill="white" stroke="#666666" points="527.38,-218.75 411.62,-218.75 411.62,-188.25 527.38,-188.25 527.38,-218.75"/>
<text xml:space="preserve" text-anchor="start" x="419.62" y="-205.25" font-family="Helvetica,sans-Serif" font-size="10.00">src/Autonomous/Steps</text>
<text xml:space="preserve" text-anchor="middle" x="469.5" y="-194" font-family="Helvetica,sans-Serif" font-size="10.00">/DriveUntilWall.hpp</text>
</a>
</g>
</g>
<!-- Node10&#45;&gt;Node20 -->
<g id="edge33_Node000010_Node000020" class="edge">
<title>Node10&#45;&gt;Node20</title>
<g id="a_edge33_Node000010_Node000020"><a xlink:title=" ">
<path fill="none" stroke="#63b8ff" d="M1143.5,-266.76C1016.49,-262.3 755.34,-249.91 536.5,-218.75 533.56,-218.33 530.55,-217.86 527.52,-217.35"/>
<polygon fill="#63b8ff" stroke="#63b8ff" points="1143,-270.25 1153.12,-267.09 1143.24,-263.25 1143,-270.25"/>
</a>
</g>
</g>
<!-- Node21 -->
<g id="Node000021" class="node">
<title>Node21</title>
<g id="a_Node000021"><a xlink:href="_follow_line_step_8hpp.html" target="_top" xlink:title="AutoStep that follows a line for a specified distance.">
<polygon fill="white" stroke="#666666" points="661.38,-218.75 545.62,-218.75 545.62,-188.25 661.38,-188.25 661.38,-218.75"/>
<text xml:space="preserve" text-anchor="start" x="553.62" y="-205.25" font-family="Helvetica,sans-Serif" font-size="10.00">src/Autonomous/Steps</text>
<text xml:space="preserve" text-anchor="middle" x="603.5" y="-194" font-family="Helvetica,sans-Serif" font-size="10.00">/FollowLineStep.hpp</text>
</a>
</g>
</g>
<!-- Node10&#45;&gt;Node21 -->
<g id="edge34_Node000010_Node000021" class="edge">
<title>Node10&#45;&gt;Node21</title>
<g id="a_edge34_Node000010_Node000021"><a xlink:title=" ">
<path fill="none" stroke="#63b8ff" d="M1143.61,-264.43C1037.8,-257.56 841.54,-242.77 675.5,-218.75 670.96,-218.09 666.27,-217.34 661.57,-216.53"/>
<polygon fill="#63b8ff" stroke="#63b8ff" points="1143.09,-267.9 1153.3,-265.05 1143.54,-260.91 1143.09,-267.9"/>
</a>
</g>
</g>
<!-- Node22 -->
<g id="Node000022" class="node">
<title>Node22</title>
<g id="a_Node000022"><a xlink:href="_index_block_8hpp.html" target="_top" xlink:title="AutoStep that routes a newly acquired block to the correct hopper slot.">
<polygon fill="white" stroke="#666666" points="967.38,-218.75 851.62,-218.75 851.62,-188.25 967.38,-188.25 967.38,-218.75"/>
<text xml:space="preserve" text-anchor="start" x="859.62" y="-205.25" font-family="Helvetica,sans-Serif" font-size="10.00">src/Autonomous/Steps</text>
<text xml:space="preserve" text-anchor="middle" x="909.5" y="-194" font-family="Helvetica,sans-Serif" font-size="10.00">/IndexBlock.hpp</text>
</a>
</g>
</g>
<!-- Node10&#45;&gt;Node22 -->
<g id="edge37_Node000010_Node000022" class="edge">
<title>Node10&#45;&gt;Node22</title>
<g id="a_edge37_Node000010_Node000022"><a xlink:title=" ">
<path fill="none" stroke="#63b8ff" d="M1164.87,-257.65C1115.4,-247.53 1041.1,-232.27 976.5,-218.75 973.59,-218.14 970.61,-217.51 967.6,-216.88"/>
<polygon fill="#63b8ff" stroke="#63b8ff" points="1163.98,-261.04 1174.47,-259.61 1165.38,-254.18 1163.98,-261.04"/>
</a>
</g>
</g>
<!-- Node23 -->
<g id="Node000023" class="node">
<title>Node23</title>
<g id="a_Node000023"><a xlink:href="_mine_block_8hpp.html" target="_top" xlink:title="AutoStep that commands the Miner to complete a fixed number of press cycles.">
<polygon fill="white" stroke="#666666" points="1891.38,-218.75 1775.62,-218.75 1775.62,-188.25 1891.38,-188.25 1891.38,-218.75"/>
<text xml:space="preserve" text-anchor="start" x="1783.62" y="-205.25" font-family="Helvetica,sans-Serif" font-size="10.00">src/Autonomous/Steps</text>
<text xml:space="preserve" text-anchor="middle" x="1833.5" y="-194" font-family="Helvetica,sans-Serif" font-size="10.00">/MineBlock.hpp</text>
</a>
</g>
</g>
<!-- Node10&#45;&gt;Node23 -->
<g id="edge39_Node000010_Node000023" class="edge">
<title>Node10&#45;&gt;Node23</title>
<g id="a_edge39_Node000010_Node000023"><a xlink:title=" ">
<path fill="none" stroke="#63b8ff" d="M1297.58,-264.34C1402.78,-257.42 1597.06,-242.59 1761.5,-218.75 1766.04,-218.09 1770.73,-217.34 1775.43,-216.53"/>
<polygon fill="#63b8ff" stroke="#63b8ff" points="1297.39,-260.85 1287.64,-264.99 1297.85,-267.83 1297.39,-260.85"/>
</a>
</g>
</g>
<!-- Node24 -->
<g id="Node000024" class="node">
<title>Node24</title>
<g id="a_Node000024"><a xlink:href="_mine_block_autofire_8hpp.html" target="_top" xlink:title="AutoStep that mines and simultaneously autofires the shooter for a time window.">
<polygon fill="white" stroke="#666666" points="2089.12,-152.25 1971.88,-152.25 1971.88,-121.75 2089.12,-121.75 2089.12,-152.25"/>
<text xml:space="preserve" text-anchor="start" x="1979.88" y="-138.75" font-family="Helvetica,sans-Serif" font-size="10.00">src/Autonomous/Steps</text>
<text xml:space="preserve" text-anchor="middle" x="2030.5" y="-127.5" font-family="Helvetica,sans-Serif" font-size="10.00">/MineBlockAutofire.hpp</text>
</a>
</g>
</g>
<!-- Node10&#45;&gt;Node24 -->
<g id="edge42_Node000010_Node000024" class="edge">
<title>Node10&#45;&gt;Node24</title>
<g id="a_edge42_Node000010_Node000024"><a xlink:title=" ">
<path fill="none" stroke="#63b8ff" d="M1297.33,-269.02C1451.4,-268.12 1792.57,-261.24 1900.5,-218.75 1920.65,-210.82 1920.48,-200.26 1938.5,-188.25 1958.49,-174.92 1982.32,-161.98 2000.72,-152.57"/>
<polygon fill="#63b8ff" stroke="#63b8ff" points="1297.62,-265.51 1287.64,-269.06 1297.65,-272.51 1297.62,-265.51"/>
</a>
</g>
</g>
<!-- Node25 -->
<g id="Node000025" class="node">
<title>Node25</title>
<g id="a_Node000025"><a xlink:href="_place_on_table_8hpp.html" target="_top" xlink:title="AutoStep stub that places a block on the crafting table.">
<polygon fill="white" stroke="#666666" points="1101.38,-218.75 985.62,-218.75 985.62,-188.25 1101.38,-188.25 1101.38,-218.75"/>
<text xml:space="preserve" text-anchor="start" x="993.62" y="-205.25" font-family="Helvetica,sans-Serif" font-size="10.00">src/Autonomous/Steps</text>
<text xml:space="preserve" text-anchor="middle" x="1043.5" y="-194" font-family="Helvetica,sans-Serif" font-size="10.00">/PlaceOnTable.hpp</text>
</a>
</g>
</g>
<!-- Node10&#45;&gt;Node25 -->
<g id="edge44_Node000010_Node000025" class="edge">
<title>Node10&#45;&gt;Node25</title>
<g id="a_edge44_Node000010_Node000025"><a xlink:title=" ">
<path fill="none" stroke="#63b8ff" d="M1184.94,-256.04C1155.67,-245.38 1114.18,-230.25 1083.7,-219.15"/>
<polygon fill="#63b8ff" stroke="#63b8ff" points="1183.5,-259.24 1194.09,-259.38 1185.9,-252.66 1183.5,-259.24"/>
</a>
</g>
</g>
<!-- Node26 -->
<g id="Node000026" class="node">
<title>Node26</title>
<g id="a_Node000026"><a xlink:href="_reject_sequence_8hpp.html" target="_top" xlink:title="AutoStep stub that executes the block&#45;rejection sequence.">
<polygon fill="white" stroke="#666666" points="1235.38,-218.75 1119.62,-218.75 1119.62,-188.25 1235.38,-188.25 1235.38,-218.75"/>
<text xml:space="preserve" text-anchor="start" x="1127.62" y="-205.25" font-family="Helvetica,sans-Serif" font-size="10.00">src/Autonomous/Steps</text>
<text xml:space="preserve" text-anchor="middle" x="1177.5" y="-194" font-family="Helvetica,sans-Serif" font-size="10.00">/RejectSequence.hpp</text>
</a>
</g>
</g>
<!-- Node10&#45;&gt;Node26 -->
<g id="edge46_Node000010_Node000026" class="edge">
<title>Node10&#45;&gt;Node26</title>
<g id="a_edge46_Node000010_Node000026"><a xlink:title=" ">
<path fill="none" stroke="#63b8ff" d="M1208.2,-250.55C1201.49,-240.48 1193.3,-228.19 1187.06,-218.84"/>
<polygon fill="#63b8ff" stroke="#63b8ff" points="1205.22,-252.39 1213.68,-258.77 1211.05,-248.51 1205.22,-252.39"/>
</a>
</g>
</g>
<!-- Node11&#45;&gt;Node4 -->
<g id="edge15_Node000011_Node000004" class="edge">
<title>Node11&#45;&gt;Node4</title>
<g id="a_edge15_Node000011_Node000004"><a xlink:title=" ">
<path fill="none" stroke="#63b8ff" d="M1156.12,-125.13C1165.02,-123.97 1173.95,-122.82 1182.5,-121.75 1309.68,-105.87 1460.63,-89.05 1530.47,-81.38"/>
<polygon fill="#63b8ff" stroke="#63b8ff" points="1155.86,-121.64 1146.4,-126.41 1156.77,-128.58 1155.86,-121.64"/>
</a>
</g>
</g>
<!-- Node12&#45;&gt;Node8 -->
<g id="edge17_Node000012_Node000008" class="edge">
<title>Node12&#45;&gt;Node8</title>
<g id="a_edge17_Node000012_Node000008"><a xlink:title=" ">
<path fill="none" stroke="#63b8ff" d="M1335.84,-178.62C1328.09,-167.52 1319.35,-154.99 1313.66,-146.82"/>
<polygon fill="#63b8ff" stroke="#63b8ff" points="1332.83,-180.42 1341.42,-186.62 1338.57,-176.42 1332.83,-180.42"/>
</a>
</g>
</g>
<!-- Node13&#45;&gt;Node4 -->
<g id="edge19_Node000013_Node000004" class="edge">
<title>Node13&#45;&gt;Node4</title>
<g id="a_edge19_Node000013_Node000004"><a xlink:title=" ">
<path fill="none" stroke="#63b8ff" d="M1971.15,-182.41C1938.01,-163.9 1885.87,-137.06 1837.5,-121.75 1758.35,-96.7 1661.36,-85 1608.47,-80.14"/>
<polygon fill="#63b8ff" stroke="#63b8ff" points="1969.06,-185.25 1979.49,-187.12 1972.5,-179.15 1969.06,-185.25"/>
</a>
</g>
</g>
<!-- Node14&#45;&gt;Node8 -->
<g id="edge21_Node000014_Node000008" class="edge">
<title>Node14&#45;&gt;Node8</title>
<g id="a_edge21_Node000014_Node000008"><a xlink:title=" ">
<path fill="none" stroke="#63b8ff" d="M1437.47,-184.06C1403.33,-171.96 1360.16,-156.66 1333.19,-147.1"/>
<polygon fill="#63b8ff" stroke="#63b8ff" points="1436.18,-187.32 1446.77,-187.36 1438.52,-180.72 1436.18,-187.32"/>
</a>
</g>
</g>
<!-- Node15&#45;&gt;Node8 -->
<g id="edge23_Node000015_Node000008" class="edge">
<title>Node15&#45;&gt;Node8</title>
<g id="a_edge23_Node000015_Node000008"><a xlink:title=" ">
<path fill="none" stroke="#63b8ff" d="M1554.18,-187.78C1478.04,-172.04 1401.07,-156.61 1353.42,-147.12"/>
<polygon fill="#63b8ff" stroke="#63b8ff" points="1553.42,-191.2 1563.92,-189.8 1554.84,-184.34 1553.42,-191.2"/>
</a>
</g>
</g>
<!-- Node16&#45;&gt;Node4 -->
<g id="edge26_Node000016_Node000004" class="edge">
<title>Node16&#45;&gt;Node4</title>
<g id="a_edge26_Node000016_Node000004"><a xlink:title=" ">
<path fill="none" stroke="#63b8ff" d="M844.89,-188C981.94,-166.84 1022.34,-186.17 1153.5,-152.25 1187.94,-143.34 1193.13,-130.91 1227.5,-121.75 1334.83,-93.16 1466.19,-82.57 1530.39,-78.91"/>
<polygon fill="#63b8ff" stroke="#63b8ff" points="844.36,-184.54 835.04,-189.57 845.46,-191.45 844.36,-184.54"/>
</a>
</g>
</g>
<!-- Node16&#45;&gt;Node8 -->
<g id="edge25_Node000016_Node000008" class="edge">
<title>Node16&#45;&gt;Node8</title>
<g id="a_edge25_Node000016_Node000008"><a xlink:title=" ">
<path fill="none" stroke="#63b8ff" d="M844.89,-188C1006.87,-163.51 1051.04,-171.75 1210.5,-152.25 1222.83,-150.74 1236.02,-148.93 1248.57,-147.12"/>
<polygon fill="#63b8ff" stroke="#63b8ff" points="844.38,-184.54 835.03,-189.51 845.44,-191.46 844.38,-184.54"/>
</a>
</g>
</g>
<!-- Node17&#45;&gt;Node4 -->
<g id="edge28_Node000017_Node000004" class="edge">
<title>Node17&#45;&gt;Node4</title>
<g id="a_edge28_Node000017_Node000004"><a xlink:title=" ">
<path fill="none" stroke="#63b8ff" d="M1692.18,-117.7C1660.59,-107.25 1622.36,-94.61 1597.06,-86.24"/>
<polygon fill="#63b8ff" stroke="#63b8ff" points="1691.01,-121 1701.61,-120.82 1693.21,-114.36 1691.01,-121"/>
</a>
</g>
</g>
<!-- Node18&#45;&gt;Node4 -->
<g id="edge30_Node000018_Node000004" class="edge">
<title>Node18&#45;&gt;Node4</title>
<g id="a_edge30_Node000018_Node000004"><a xlink:title=" ">
<path fill="none" stroke="#63b8ff" d="M472.27,-132.07C524.61,-129.15 598.04,-125.1 662.5,-121.75 998.64,-104.27 1404.95,-84.91 1530.6,-78.96"/>
<polygon fill="#63b8ff" stroke="#63b8ff" points="472.4,-128.56 462.61,-132.61 472.79,-135.55 472.4,-128.56"/>
</a>
</g>
</g>
<!-- Node19&#45;&gt;Node4 -->
<g id="edge32_Node000019_Node000004" class="edge">
<title>Node19&#45;&gt;Node4</title>
<g id="a_edge32_Node000019_Node000004"><a xlink:title=" ">
<path fill="none" stroke="#63b8ff" d="M818.71,-129.51C849.81,-127 885.83,-124.17 918.5,-121.75 1150.67,-104.55 1429.59,-86.21 1530.6,-79.64"/>
<polygon fill="#63b8ff" stroke="#63b8ff" points="818.68,-126 808.99,-130.29 819.24,-132.97 818.68,-126"/>
</a>
</g>
</g>
<!-- Node21&#45;&gt;Node4 -->
<g id="edge36_Node000021_Node000004" class="edge">
<title>Node21&#45;&gt;Node4</title>
<g id="a_edge36_Node000021_Node000004"><a xlink:title=" ">
<path fill="none" stroke="#63b8ff" d="M672.55,-185.73C751.22,-167.25 883.87,-138 999.5,-121.75 1102.59,-107.26 1419.4,-86.56 1530.5,-79.55"/>
<polygon fill="#63b8ff" stroke="#63b8ff" points="672.22,-182.21 663.29,-187.91 673.83,-189.02 672.22,-182.21"/>
</a>
</g>
</g>
<!-- Node21&#45;&gt;Node8 -->
<g id="edge35_Node000021_Node000008" class="edge">
<title>Node21&#45;&gt;Node8</title>
<g id="a_edge35_Node000021_Node000008"><a xlink:title=" ">
<path fill="none" stroke="#63b8ff" d="M672.96,-192.53C684.81,-190.99 697,-189.5 708.5,-188.25 905.77,-166.9 955.82,-169.39 1153.5,-152.25 1180.65,-149.9 1210.48,-147.17 1236.6,-144.73"/>
<polygon fill="#63b8ff" stroke="#63b8ff" points="672.7,-189.04 663.25,-193.82 673.62,-195.98 672.7,-189.04"/>
</a>
</g>
</g>
<!-- Node22&#45;&gt;Node8 -->
<g id="edge38_Node000022_Node000008" class="edge">
<title>Node22&#45;&gt;Node8</title>
<g id="a_edge38_Node000022_Node000008"><a xlink:title=" ">
<path fill="none" stroke="#63b8ff" d="M978.79,-187.98C1028.1,-179.69 1165.4,-159.14 1246.31,-147.09"/>
<polygon fill="#63b8ff" stroke="#63b8ff" points="978.31,-184.51 969.05,-189.67 979.51,-191.41 978.31,-184.51"/>
</a>
</g>
</g>
<!-- Node23&#45;&gt;Node4 -->
<g id="edge41_Node000023_Node000004" class="edge">
<title>Node23&#45;&gt;Node4</title>
<g id="a_edge41_Node000023_Node000004"><a xlink:title=" ">
<path fill="none" stroke="#63b8ff" d="M1834.7,-176.58C1834.06,-158.71 1830.06,-135.74 1815.5,-121.75 1786.47,-93.86 1670.35,-82.96 1608.59,-79.07"/>
<polygon fill="#63b8ff" stroke="#63b8ff" points="1831.2,-176.46 1834.7,-186.46 1838.2,-176.46 1831.2,-176.46"/>
</a>
</g>
</g>
<!-- Node23&#45;&gt;Node8 -->
<g id="edge40_Node000023_Node000008" class="edge">
<title>Node23&#45;&gt;Node8</title>
<g id="a_edge40_Node000023_Node000008"><a xlink:title=" ">
<path fill="none" stroke="#63b8ff" d="M1764,-193.98C1663.79,-181.69 1479.7,-159.12 1378.61,-146.72"/>
<polygon fill="#63b8ff" stroke="#63b8ff" points="1763.35,-197.42 1773.7,-195.17 1764.2,-190.48 1763.35,-197.42"/>
</a>
</g>
</g>
<!-- Node24&#45;&gt;Node4 -->
<g id="edge43_Node000024_Node000004" class="edge">
<title>Node24&#45;&gt;Node4</title>
<g id="a_edge43_Node000024_Node000004"><a xlink:title=" ">
<path fill="none" stroke="#63b8ff" d="M1960.33,-127.04C1861.95,-114.47 1686.34,-92.05 1608.5,-82.11"/>
<polygon fill="#63b8ff" stroke="#63b8ff" points="1959.78,-130.5 1970.14,-128.29 1960.67,-123.55 1959.78,-130.5"/>
</a>
</g>
</g>
<!-- Node25&#45;&gt;Node8 -->
<g id="edge45_Node000025_Node000008" class="edge">
<title>Node25&#45;&gt;Node8</title>
<g id="a_edge45_Node000025_Node000008"><a xlink:title=" ">
<path fill="none" stroke="#63b8ff" d="M1112.93,-185.54C1163.43,-173.2 1229.82,-156.98 1270.54,-147.03"/>
<polygon fill="#63b8ff" stroke="#63b8ff" points="1112.12,-182.13 1103.23,-187.91 1113.78,-188.93 1112.12,-182.13"/>
</a>
</g>
</g>
<!-- Node26&#45;&gt;Node8 -->
<g id="edge47_Node000026_Node000008" class="edge">
<title>Node26&#45;&gt;Node8</title>
<g id="a_edge47_Node000026_Node000008"><a xlink:title=" ">
<path fill="none" stroke="#63b8ff" d="M1217.25,-182.78C1241.28,-170.85 1270.76,-156.23 1289.34,-147.01"/>
<polygon fill="#63b8ff" stroke="#63b8ff" points="1215.76,-179.61 1208.35,-187.19 1218.87,-185.88 1215.76,-179.61"/>
</a>
</g>
</g>
<!-- Node27&#45;&gt;Node4 -->
<g id="edge54_Node000027_Node000004" class="edge">
<title>Node27&#45;&gt;Node4</title>
<g id="a_edge54_Node000027_Node000004"><a xlink:title=" ">
<path fill="none" stroke="#63b8ff" d="M2069.04,-256.43C2089.63,-249.03 2110.28,-237.3 2122.5,-218.75 2140.2,-191.88 2102.93,-125.15 2098.5,-121.75 2059.83,-92.09 1723.98,-80.98 1608.39,-78.01"/>
<polygon fill="#63b8ff" stroke="#63b8ff" points="2068.19,-253.03 2059.77,-259.46 2070.36,-259.69 2068.19,-253.03"/>
</a>
</g>
</g>
<!-- Node27&#45;&gt;Node8 -->
<g id="edge50_Node000027_Node000008" class="edge">
<title>Node27&#45;&gt;Node8</title>
<g id="a_edge50_Node000027_Node000008"><a xlink:title=" ">
<path fill="none" stroke="#63b8ff" d="M2032.27,-254.21C2058.94,-237.66 2093.15,-210.3 2072.5,-188.25 2060.71,-175.66 1566.03,-150.49 1378.54,-141.39"/>
<polygon fill="#63b8ff" stroke="#63b8ff" points="2030.66,-251.09 2023.85,-259.21 2034.24,-257.11 2030.66,-251.09"/>
</a>
</g>
</g>
<!-- Node27&#45;&gt;Node13 -->
<g id="edge51_Node000027_Node000013" class="edge">
<title>Node27&#45;&gt;Node13</title>
<g id="a_edge51_Node000027_Node000013"><a xlink:title=" ">
<path fill="none" stroke="#63b8ff" d="M2005.5,-248.62C2005.5,-238.94 2005.5,-227.6 2005.5,-218.84"/>
<polygon fill="#63b8ff" stroke="#63b8ff" points="2002,-248.52 2005.5,-258.52 2009,-248.52 2002,-248.52"/>
</a>
</g>
</g>
<!-- Node27&#45;&gt;Node23 -->
<g id="edge52_Node000027_Node000023" class="edge">
<title>Node27&#45;&gt;Node23</title>
<g id="a_edge52_Node000027_Node000023"><a xlink:title=" ">
<path fill="none" stroke="#63b8ff" d="M1970.57,-255.9C1942.15,-245.24 1902.05,-230.21 1872.56,-219.15"/>
<polygon fill="#63b8ff" stroke="#63b8ff" points="1969.21,-259.13 1979.8,-259.36 1971.67,-252.58 1969.21,-259.13"/>
</a>
</g>
</g>
<!-- Node27&#45;&gt;Node24 -->
<g id="edge53_Node000027_Node000024" class="edge">
<title>Node27&#45;&gt;Node24</title>
<g id="a_edge53_Node000027_Node000024"><a xlink:title=" ">
<path fill="none" stroke="#63b8ff" d="M2055.9,-256.02C2074.84,-248.42 2094.45,-236.67 2105.5,-218.75 2112.62,-207.21 2111.88,-200.21 2105.5,-188.25 2097.09,-172.49 2081.29,-160.8 2066.36,-152.68"/>
<polygon fill="#63b8ff" stroke="#63b8ff" points="2054.82,-252.69 2046.62,-259.4 2057.22,-259.26 2054.82,-252.69"/>
</a>
</g>
</g>
<!-- Node28&#45;&gt;Node4 -->
<g id="edge62_Node000028_Node000004" class="edge">
<title>Node28&#45;&gt;Node4</title>
<g id="a_edge62_Node000028_Node000004"><a xlink:title=" ">
<path fill="none" stroke="#63b8ff" d="M2244.42,-186.8C2213.2,-163.58 2158.04,-122.69 2155.5,-121.75 2054.68,-84.42 1722.71,-78.31 1608.5,-77.32"/>
<polygon fill="#63b8ff" stroke="#63b8ff" points="2241.93,-189.31 2252.04,-192.47 2246.11,-183.69 2241.93,-189.31"/>
</a>
</g>
</g>
<!-- Node28&#45;&gt;Node8 -->
<g id="edge56_Node000028_Node000008" class="edge">
<title>Node28&#45;&gt;Node8</title>
<g id="a_edge56_Node000028_Node000008"><a xlink:title=" ">
<path fill="none" stroke="#63b8ff" d="M2183.72,-194.8C2158.63,-192.56 2130.94,-190.18 2105.5,-188.25 1837.32,-167.87 1517.98,-149.55 1378.54,-141.85"/>
<polygon fill="#63b8ff" stroke="#63b8ff" points="2183.26,-198.28 2193.53,-195.69 2183.89,-191.31 2183.26,-198.28"/>
</a>
</g>
</g>
<!-- Node28&#45;&gt;Node24 -->
<g id="edge61_Node000028_Node000024" class="edge">
<title>Node28&#45;&gt;Node24</title>
<g id="a_edge61_Node000028_Node000024"><a xlink:title=" ">
<path fill="none" stroke="#63b8ff" d="M2221.34,-190.38C2182.35,-179.68 2125.41,-164.05 2083.87,-152.65"/>
<polygon fill="#63b8ff" stroke="#63b8ff" points="2220.3,-193.72 2230.87,-192.99 2222.15,-186.97 2220.3,-193.72"/>
</a>
</g>
</g>
<!-- Node29 -->
<g id="Node000029" class="node">
<title>Node29</title>
<g id="a_Node000029"><a xlink:href="_delay_step_8hpp.html" target="_top" xlink:title="AutoStep that blocks for a fixed number of milliseconds.">
<polygon fill="white" stroke="#666666" points="2323.38,-152.25 2207.62,-152.25 2207.62,-121.75 2323.38,-121.75 2323.38,-152.25"/>
<text xml:space="preserve" text-anchor="start" x="2215.62" y="-138.75" font-family="Helvetica,sans-Serif" font-size="10.00">src/Autonomous/Steps</text>
<text xml:space="preserve" text-anchor="middle" x="2265.5" y="-127.5" font-family="Helvetica,sans-Serif" font-size="10.00">/DelayStep.hpp</text>
</a>
</g>
</g>
<!-- Node28&#45;&gt;Node29 -->
<g id="edge57_Node000028_Node000029" class="edge">
<title>Node28&#45;&gt;Node29</title>
<g id="a_edge57_Node000028_Node000029"><a xlink:title=" ">
<path fill="none" stroke="#63b8ff" d="M2265.5,-182.12C2265.5,-172.44 2265.5,-161.1 2265.5,-152.34"/>
<polygon fill="#63b8ff" stroke="#63b8ff" points="2262,-182.02 2265.5,-192.02 2269,-182.02 2262,-182.02"/>
</a>
</g>
</g>
<!-- Node30 -->
<g id="Node000030" class="node">
<title>Node30</title>
<g id="a_Node000030"><a xlink:href="_fire_step_8hpp.html" target="_top" xlink:title="AutoStep that fires the shooter for a fixed duration, then stops it.">
<polygon fill="white" stroke="#666666" points="2457.38,-152.25 2341.62,-152.25 2341.62,-121.75 2457.38,-121.75 2457.38,-152.25"/>
<text xml:space="preserve" text-anchor="start" x="2349.62" y="-138.75" font-family="Helvetica,sans-Serif" font-size="10.00">src/Autonomous/Steps</text>
<text xml:space="preserve" text-anchor="middle" x="2399.5" y="-127.5" font-family="Helvetica,sans-Serif" font-size="10.00">/FireStep.hpp</text>
</a>
</g>
</g>
<!-- Node28&#45;&gt;Node30 -->
<g id="edge59_Node000028_Node000030" class="edge">
<title>Node28&#45;&gt;Node30</title>
<g id="a_edge59_Node000028_Node000030"><a xlink:title=" ">
<path fill="none" stroke="#63b8ff" d="M2294.49,-188.54C2316.51,-177.95 2346.71,-163.41 2369.07,-152.65"/>
<polygon fill="#63b8ff" stroke="#63b8ff" points="2293.27,-185.25 2285.78,-192.74 2296.31,-191.56 2293.27,-185.25"/>
</a>
</g>
</g>
<!-- Node29&#45;&gt;Node4 -->
<g id="edge58_Node000029_Node000004" class="edge">
<title>Node29&#45;&gt;Node4</title>
<g id="a_edge58_Node000029_Node000004"><a xlink:title=" ">
<path fill="none" stroke="#63b8ff" d="M2196.07,-122.1C2195.21,-121.98 2194.35,-121.86 2193.5,-121.75 1973.63,-92.25 1707.39,-81.42 1608.73,-78.24"/>
<polygon fill="#63b8ff" stroke="#63b8ff" points="2195.53,-125.56 2205.95,-123.64 2196.6,-118.64 2195.53,-125.56"/>
</a>
</g>
</g>
<!-- Node30&#45;&gt;Node4 -->
<g id="edge60_Node000030_Node000004" class="edge">
<title>Node30&#45;&gt;Node4</title>
<g id="a_edge60_Node000030_Node000004"><a xlink:title=" ">
<path fill="none" stroke="#63b8ff" d="M2329.86,-121.54C2048.19,-84.45 1719.94,-78.36 1608.61,-77.33"/>
<polygon fill="#63b8ff" stroke="#63b8ff" points="2329.25,-124.99 2339.63,-122.84 2330.18,-118.05 2329.25,-124.99"/>
</a>
</g>
</g>
</g>
</svg>
