<?xml version="1.0" encoding="UTF-8" standalone="no"?>
<!DOCTYPE svg PUBLIC "-//W3C//DTD SVG 1.1//EN"
 "http://www.w3.org/Graphics/SVG/1.1/DTD/svg11.dtd">
<!-- Generated by graphviz version 14.1.2 (20260124.0452)
 -->
<!-- Title: src/Devices/EncoderWrapper.hpp Pages: 1 -->
<svg width="2082pt" height="448pt"
 viewBox="0.00 0.00 2082.00 448.00" xmlns="http://www.w3.org/2000/svg" xmlns:xlink="http://www.w3.org/1999/xlink">
<g id="graph0" class="graph" transform="scale(1 1) rotate(0) translate(4 443.75)">
<title>src/Devices/EncoderWrapper.hpp</title>
<!-- Node1 -->
<g id="Node000001" class="node">
<title>Node1</title>
<g id="a_Node000001"><a xlink:title="Quadrature encoder wrapper providing position, velocity, and acceleration.">
<polygon fill="#999999" stroke="#666666" points="634.62,-439.75 473.12,-439.75 473.12,-420.5 634.62,-420.5 634.62,-439.75"/>
<text xml:space="preserve" text-anchor="middle" x="553.88" y="-426.25" font-family="Helvetica,sans-Serif" font-size="10.00">src/Devices/EncoderWrapper.hpp</text>
</a>
</g>
</g>
<!-- Node2 -->
<g id="Node000002" class="node">
<title>Node2</title>
<g id="a_Node000002"><a xlink:href="_drive_8hpp.html" target="_top" xlink:title="Differential&#45;drive subsystem: closed&#45;loop wheel control, line following, wall&#45;distance holding,...">
<polygon fill="white" stroke="#666666" points="1288.25,-274 1157.5,-274 1157.5,-254.75 1288.25,-254.75 1288.25,-274"/>
<text xml:space="preserve" text-anchor="middle" x="1222.88" y="-260.5" font-family="Helvetica,sans-Serif" font-size="10.00">src/subsystems/Drive.hpp</text>
</a>
</g>
</g>
<!-- Node1&#45;&gt;Node2 -->
<g id="edge1_Node000001_Node000002" class="edge">
<title>Node1&#45;&gt;Node2</title>
<g id="a_edge1_Node000001_Node000002"><a xlink:title=" ">
<path fill="none" stroke="#63b8ff" d="M595.69,-416.87C673.99,-394.13 848.28,-344.61 996.88,-310 1056.47,-296.12 1125.56,-282.89 1171.5,-274.49"/>
<polygon fill="#63b8ff" stroke="#63b8ff" points="594.92,-413.44 586.3,-419.6 596.88,-420.16 594.92,-413.44"/>
</a>
</g>
</g>
<!-- Node24 -->
<g id="Node000024" class="node">
<title>Node24</title>
<g id="a_Node000024"><a xlink:href="_miner_8hpp.html" target="_top" xlink:title="Miner subsystem: servo&#45;driven block&#45;pressing mechanism and ramp deployment.">
<polygon fill="white" stroke="#666666" points="426.25,-274 295.5,-274 295.5,-254.75 426.25,-254.75 426.25,-274"/>
<text xml:space="preserve" text-anchor="middle" x="360.88" y="-260.5" font-family="Helvetica,sans-Serif" font-size="10.00">src/subsystems/Miner.hpp</text>
</a>
</g>
</g>
<!-- Node1&#45;&gt;Node24 -->
<g id="edge42_Node000001_Node000024" class="edge">
<title>Node1&#45;&gt;Node24</title>
<g id="a_edge42_Node000001_Node000024"><a xlink:title=" ">
<path fill="none" stroke="#63b8ff" d="M534.58,-412.75C494.25,-378.54 402.22,-300.45 371.26,-274.18"/>
<polygon fill="#63b8ff" stroke="#63b8ff" points="532.18,-415.31 542.07,-419.11 536.71,-409.97 532.18,-415.31"/>
</a>
</g>
</g>
<!-- Node25 -->
<g id="Node000025" class="node">
<title>Node25</title>
<g id="a_Node000025"><a xlink:href="_shooter_8hpp.html" target="_top" xlink:title="Rack&#45;and&#45;pinion block shooter subsystem.">
<polygon fill="white" stroke="#666666" points="214.12,-213.12 73.62,-213.12 73.62,-193.88 214.12,-193.88 214.12,-213.12"/>
<text xml:space="preserve" text-anchor="middle" x="143.88" y="-199.62" font-family="Helvetica,sans-Serif" font-size="10.00">src/subsystems/Shooter.hpp</text>
</a>
</g>
</g>
<!-- Node1&#45;&gt;Node25 -->
<g id="edge48_Node000001_Node000025" class="edge">
<title>Node1&#45;&gt;Node25</title>
<g id="a_edge48_Node000001_Node000025"><a xlink:title=" ">
<path fill="none" stroke="#63b8ff" d="M527.32,-414.58C449.42,-371.9 223.04,-247.87 160.21,-213.45"/>
<polygon fill="#63b8ff" stroke="#63b8ff" points="525.52,-417.58 535.97,-419.31 528.88,-411.44 525.52,-417.58"/>
</a>
</g>
</g>
<!-- Node28 -->
<g id="Node000028" class="node">
<title>Node28</title>
<g id="a_Node000028"><a xlink:href="_odometry_8hpp.html" target="_top" xlink:title="Differential&#45;drive pose tracker using wheel&#45;encoder odometry.">
<polygon fill="white" stroke="#666666" points="1085.62,-384.5 972.12,-384.5 972.12,-365.25 1085.62,-365.25 1085.62,-384.5"/>
<text xml:space="preserve" text-anchor="middle" x="1028.88" y="-371" font-family="Helvetica,sans-Serif" font-size="10.00">src/utils/Odometry.hpp</text>
</a>
</g>
</g>
<!-- Node1&#45;&gt;Node28 -->
<g id="edge56_Node000001_Node000028" class="edge">
<title>Node1&#45;&gt;Node28</title>
<g id="a_edge56_Node000001_Node000028"><a xlink:title=" ">
<path fill="none" stroke="#63b8ff" d="M646.21,-418.77C742.78,-407.95 891.29,-391.3 971.96,-382.26"/>
<polygon fill="#63b8ff" stroke="#63b8ff" points="646.04,-415.27 636.49,-419.86 646.82,-422.23 646.04,-415.27"/>
</a>
</g>
</g>
<!-- Node3 -->
<g id="Node000003" class="node">
<title>Node3</title>
<g id="a_Node000003"><a xlink:href="_planner_8hpp.html" target="_top" xlink:title="High&#45;level autonomous planner used with ReplanStep.">
<polygon fill="white" stroke="#666666" points="1089.5,-146.62 948.25,-146.62 948.25,-127.38 1089.5,-127.38 1089.5,-146.62"/>
<text xml:space="preserve" text-anchor="middle" x="1018.88" y="-133.12" font-family="Helvetica,sans-Serif" font-size="10.00">src/Autonomous/Planner.hpp</text>
</a>
</g>
</g>
<!-- Node2&#45;&gt;Node3 -->
<g id="edge2_Node000002_Node000003" class="edge">
<title>Node2&#45;&gt;Node3</title>
<g id="a_edge2_Node000002_Node000003"><a xlink:title=" ">
<path fill="none" stroke="#63b8ff" d="M1299.75,-262.61C1440.6,-260.39 1728.44,-251.82 1758.88,-218.75 1768.05,-208.78 1768.17,-198.11 1758.88,-188.25 1712.22,-138.77 1215.64,-157.99 1147.88,-152.25 1129.02,-150.65 1108.64,-148.57 1089.78,-146.49"/>
<polygon fill="#63b8ff" stroke="#63b8ff" points="1300.1,-259.1 1290.16,-262.75 1300.21,-266.1 1300.1,-259.1"/>
</a>
</g>
</g>
<!-- Node5 -->
<g id="Node000005" class="node">
<title>Node5</title>
<g id="a_Node000005"><a xlink:href="_robot_8hpp.html" target="_top" xlink:title="Top&#45;level robot class that owns all subsystems and the autonomous scheduler.">
<polygon fill="white" stroke="#666666" points="690.62,-85.75 613.12,-85.75 613.12,-66.5 690.62,-66.5 690.62,-85.75"/>
<text xml:space="preserve" text-anchor="middle" x="651.88" y="-72.25" font-family="Helvetica,sans-Serif" font-size="10.00">src/Robot.hpp</text>
</a>
</g>
</g>
<!-- Node2&#45;&gt;Node5 -->
<g id="edge41_Node000002_Node000005" class="edge">
<title>Node2&#45;&gt;Node5</title>
<g id="a_edge41_Node000002_Node000005"><a xlink:title=" ">
<path fill="none" stroke="#63b8ff" d="M1300.01,-262.65C1456.79,-260.49 1801.4,-251.96 1842.88,-218.75 1877.23,-191.23 1893.42,-153.44 1862.88,-121.75 1857.67,-116.34 898.01,-85.07 690.95,-78.38"/>
<polygon fill="#63b8ff" stroke="#63b8ff" points="1300.06,-259.15 1290.11,-262.78 1300.16,-266.15 1300.06,-259.15"/>
</a>
</g>
</g>
<!-- Node8 -->
<g id="Node000008" class="node">
<title>Node8</title>
<g id="a_Node000008"><a xlink:href="_accelerate_straight_line_8hpp.html" target="_top" xlink:title="AutoStep that drives straight while ramping speed up to a target velocity.">
<polygon fill="white" stroke="#666666" points="719.88,-152.25 583.88,-152.25 583.88,-121.75 719.88,-121.75 719.88,-152.25"/>
<text xml:space="preserve" text-anchor="start" x="591.88" y="-138.75" font-family="Helvetica,sans-Serif" font-size="10.00">src/Autonomous/Steps</text>
<text xml:space="preserve" text-anchor="middle" x="651.88" y="-127.5" font-family="Helvetica,sans-Serif" font-size="10.00">/AccelerateStraightLine.hpp</text>
</a>
</g>
</g>
<!-- Node2&#45;&gt;Node8 -->
<g id="edge7_Node000002_Node000008" class="edge">
<title>Node2&#45;&gt;Node8</title>
<g id="a_edge7_Node000002_Node000008"><a xlink:title=" ">
<path fill="none" stroke="#63b8ff" d="M1146.11,-261.61C1005.34,-257.7 716.94,-246.4 680.88,-218.75 660.31,-202.98 654.3,-171.34 652.56,-152.69"/>
<polygon fill="#63b8ff" stroke="#63b8ff" points="1145.61,-265.09 1155.7,-261.87 1145.8,-258.1 1145.61,-265.09"/>
</a>
</g>
</g>
<!-- Node9 -->
<g id="Node000009" class="node">
<title>Node9</title>
<g id="a_Node000009"><a xlink:href="_advance_cycle_step_8hpp.html" target="_top" xlink:title="Instantaneous AutoStep that advances the Strategy craft cycle by one.">
<polygon fill="white" stroke="#666666" points="1079.75,-218.75 958,-218.75 958,-188.25 1079.75,-188.25 1079.75,-218.75"/>
<text xml:space="preserve" text-anchor="start" x="966" y="-205.25" font-family="Helvetica,sans-Serif" font-size="10.00">src/Autonomous/Steps</text>
<text xml:space="preserve" text-anchor="middle" x="1018.88" y="-194" font-family="Helvetica,sans-Serif" font-size="10.00">/AdvanceCycleStep.hpp</text>
</a>
</g>
</g>
<!-- Node2&#45;&gt;Node9 -->
<g id="edge9_Node000002_Node000009" class="edge">
<title>Node2&#45;&gt;Node9</title>
<g id="a_edge9_Node000002_Node000009"><a xlink:title=" ">
<path fill="none" stroke="#63b8ff" d="M1180.61,-251.18C1148.41,-241.88 1103.95,-229.05 1069.79,-219.19"/>
<polygon fill="#63b8ff" stroke="#63b8ff" points="1179.41,-254.47 1189.99,-253.89 1181.36,-247.75 1179.41,-254.47"/>
</a>
</g>
</g>
<!-- Node10 -->
<g id="Node000010" class="node">
<title>Node10</title>
<g id="a_Node000010"><a xlink:href="_deploy_ramp_8hpp.html" target="_top" xlink:title="Instantaneous AutoStep that deploys the miner&#39;s block&#45;collection ramp.">
<polygon fill="white" stroke="#666666" points="595.75,-218.75 480,-218.75 480,-188.25 595.75,-188.25 595.75,-218.75"/>
<text xml:space="preserve" text-anchor="start" x="488" y="-205.25" font-family="Helvetica,sans-Serif" font-size="10.00">src/Autonomous/Steps</text>
<text xml:space="preserve" text-anchor="middle" x="537.88" y="-194" font-family="Helvetica,sans-Serif" font-size="10.00">/DeployRamp.hpp</text>
</a>
</g>
</g>
<!-- Node2&#45;&gt;Node10 -->
<g id="edge11_Node000002_Node000010" class="edge">
<title>Node2&#45;&gt;Node10</title>
<g id="a_edge11_Node000002_Node000010"><a xlink:title=" ">
<path fill="none" stroke="#63b8ff" d="M1146.03,-260.81C1029.61,-256.24 801.76,-244.62 609.88,-218.75 605.33,-218.14 600.64,-217.41 595.93,-216.63"/>
<polygon fill="#63b8ff" stroke="#63b8ff" points="1145.64,-264.3 1155.77,-261.18 1145.91,-257.3 1145.64,-264.3"/>
</a>
</g>
</g>
<!-- Node11 -->
<g id="Node000011" class="node">
<title>Node11</title>
<g id="a_Node000011"><a xlink:href="_detect_block_8hpp.html" target="_top" xlink:title="AutoStep that samples the color sensor and updates Strategy with the detected block type.">
<polygon fill="white" stroke="#666666" points="1213.75,-218.75 1098,-218.75 1098,-188.25 1213.75,-188.25 1213.75,-218.75"/>
<text xml:space="preserve" text-anchor="start" x="1106" y="-205.25" font-family="Helvetica,sans-Serif" font-size="10.00">src/Autonomous/Steps</text>
<text xml:space="preserve" text-anchor="middle" x="1155.88" y="-194" font-family="Helvetica,sans-Serif" font-size="10.00">/DetectBlock.hpp</text>
</a>
</g>
</g>
<!-- Node2&#45;&gt;Node11 -->
<g id="edge13_Node000002_Node000011" class="edge">
<title>Node2&#45;&gt;Node11</title>
<g id="a_edge13_Node000002_Node000011"><a xlink:title=" ">
<path fill="none" stroke="#63b8ff" d="M1204.28,-247.04C1194.29,-238.26 1182.07,-227.52 1172.41,-219.03"/>
<polygon fill="#63b8ff" stroke="#63b8ff" points="1201.74,-249.46 1211.56,-253.43 1206.36,-244.2 1201.74,-249.46"/>
</a>
</g>
</g>
<!-- Node12 -->
<g id="Node000012" class="node">
<title>Node12</title>
<g id="a_Node000012"><a xlink:href="_drive_arc_8hpp.html" target="_top" xlink:title="AutoStep that drives the robot along a circular arc.">
<polygon fill="white" stroke="#666666" points="1347.75,-218.75 1232,-218.75 1232,-188.25 1347.75,-188.25 1347.75,-218.75"/>
<text xml:space="preserve" text-anchor="start" x="1240" y="-205.25" font-family="Helvetica,sans-Serif" font-size="10.00">src/Autonomous/Steps</text>
<text xml:space="preserve" text-anchor="middle" x="1289.88" y="-194" font-family="Helvetica,sans-Serif" font-size="10.00">/DriveArc.hpp</text>
</a>
</g>
</g>
<!-- Node2&#45;&gt;Node12 -->
<g id="edge15_Node000002_Node000012" class="edge">
<title>Node2&#45;&gt;Node12</title>
<g id="a_edge15_Node000002_Node000012"><a xlink:title=" ">
<path fill="none" stroke="#63b8ff" d="M1241.47,-247.04C1251.46,-238.26 1263.68,-227.52 1273.34,-219.03"/>
<polygon fill="#63b8ff" stroke="#63b8ff" points="1239.39,-244.2 1234.19,-253.43 1244.01,-249.46 1239.39,-244.2"/>
</a>
</g>
</g>
<!-- Node13 -->
<g id="Node000013" class="node">
<title>Node13</title>
<g id="a_Node000013"><a xlink:href="_drive_distance_8hpp.html" target="_top" xlink:title="AutoStep that drives straight for a specified distance at a fixed velocity.">
<polygon fill="white" stroke="#666666" points="939.75,-218.75 824,-218.75 824,-188.25 939.75,-188.25 939.75,-218.75"/>
<text xml:space="preserve" text-anchor="start" x="832" y="-205.25" font-family="Helvetica,sans-Serif" font-size="10.00">src/Autonomous/Steps</text>
<text xml:space="preserve" text-anchor="middle" x="881.88" y="-194" font-family="Helvetica,sans-Serif" font-size="10.00">/DriveDistance.hpp</text>
</a>
</g>
</g>
<!-- Node2&#45;&gt;Node13 -->
<g id="edge17_Node000002_Node000013" class="edge">
<title>Node2&#45;&gt;Node13</title>
<g id="a_edge17_Node000002_Node000013"><a xlink:title=" ">
<path fill="none" stroke="#63b8ff" d="M1150.68,-252.59C1095.34,-244.08 1017.12,-231.56 948.88,-218.75 945.95,-218.2 942.96,-217.62 939.95,-217.03"/>
<polygon fill="#63b8ff" stroke="#63b8ff" points="1149.87,-256 1160.29,-254.06 1150.93,-249.09 1149.87,-256"/>
</a>
</g>
</g>
<!-- Node14 -->
<g id="Node000014" class="node">
<title>Node14</title>
<g id="a_Node000014"><a xlink:href="_drive_line_until_wall_8hpp.html" target="_top" xlink:title="AutoStep that follows a line until the distance sensor reads a target wall distance.">
<polygon fill="white" stroke="#666666" points="1274.88,-152.25 1156.88,-152.25 1156.88,-121.75 1274.88,-121.75 1274.88,-152.25"/>
<text xml:space="preserve" text-anchor="start" x="1164.88" y="-138.75" font-family="Helvetica,sans-Serif" font-size="10.00">src/Autonomous/Steps</text>
<text xml:space="preserve" text-anchor="middle" x="1215.88" y="-127.5" font-family="Helvetica,sans-Serif" font-size="10.00">/DriveLineUntilWall.hpp</text>
</a>
</g>
</g>
<!-- Node2&#45;&gt;Node14 -->
<g id="edge20_Node000002_Node000014" class="edge">
<title>Node2&#45;&gt;Node14</title>
<g id="a_edge20_Node000002_Node000014"><a xlink:title=" ">
<path fill="none" stroke="#63b8ff" d="M1299.82,-263.01C1447.53,-261.51 1759.16,-254.14 1791.88,-218.75 1801.08,-208.8 1801.03,-198.24 1791.88,-188.25 1774.57,-169.37 1418.65,-148.65 1275.11,-141.03"/>
<polygon fill="#63b8ff" stroke="#63b8ff" points="1300.1,-259.51 1290.13,-263.1 1300.16,-266.51 1300.1,-259.51"/>
</a>
</g>
</g>
<!-- Node15 -->
<g id="Node000015" class="node">
<title>Node15</title>
<g id="a_Node000015"><a xlink:href="_drive_radius_angle_8hpp.html" target="_top" xlink:title="AutoStep that drives along an arc for a specified heading change (degrees).">
<polygon fill="white" stroke="#666666" points="1603.12,-152.25 1486.62,-152.25 1486.62,-121.75 1603.12,-121.75 1603.12,-152.25"/>
<text xml:space="preserve" text-anchor="start" x="1494.62" y="-138.75" font-family="Helvetica,sans-Serif" font-size="10.00">src/Autonomous/Steps</text>
<text xml:space="preserve" text-anchor="middle" x="1544.88" y="-127.5" font-family="Helvetica,sans-Serif" font-size="10.00">/DriveRadiusAngle.hpp</text>
</a>
</g>
</g>
<!-- Node2&#45;&gt;Node15 -->
<g id="edge22_Node000002_Node000015" class="edge">
<title>Node2&#45;&gt;Node15</title>
<g id="a_edge22_Node000002_Node000015"><a xlink:title=" ">
<path fill="none" stroke="#63b8ff" d="M1300.12,-263.2C1451.4,-262.06 1774.99,-255.31 1808.88,-218.75 1818.09,-208.81 1817.52,-198.69 1808.88,-188.25 1795.86,-172.52 1677.27,-154.82 1603.53,-145.19"/>
<polygon fill="#63b8ff" stroke="#63b8ff" points="1300.15,-259.7 1290.17,-263.27 1300.2,-266.7 1300.15,-259.7"/>
</a>
</g>
</g>
<!-- Node16 -->
<g id="Node000016" class="node">
<title>Node16</title>
<g id="a_Node000016"><a xlink:href="_drive_radius_at_velocity_8hpp.html" target="_top" xlink:title="AutoStep that drives along a constant&#45;radius arc for a specified arc length.">
<polygon fill="white" stroke="#666666" points="1853.5,-152.25 1718.25,-152.25 1718.25,-121.75 1853.5,-121.75 1853.5,-152.25"/>
<text xml:space="preserve" text-anchor="start" x="1726.25" y="-138.75" font-family="Helvetica,sans-Serif" font-size="10.00">src/Autonomous/Steps</text>
<text xml:space="preserve" text-anchor="middle" x="1785.88" y="-127.5" font-family="Helvetica,sans-Serif" font-size="10.00">/DriveRadiusAtVelocity.hpp</text>
</a>
</g>
</g>
<!-- Node2&#45;&gt;Node16 -->
<g id="edge24_Node000002_Node000016" class="edge">
<title>Node2&#45;&gt;Node16</title>
<g id="a_edge24_Node000002_Node000016"><a xlink:title=" ">
<path fill="none" stroke="#63b8ff" d="M1299.87,-263.39C1454.43,-262.6 1790.79,-256.53 1825.88,-218.75 1843.97,-199.26 1820.4,-170.05 1802.51,-152.62"/>
<polygon fill="#63b8ff" stroke="#63b8ff" points="1300.11,-259.89 1290.12,-263.43 1300.14,-266.89 1300.11,-259.89"/>
</a>
</g>
</g>
<!-- Node17 -->
<g id="Node000017" class="node">
<title>Node17</title>
<g id="a_Node000017"><a xlink:href="_drive_until_wall_8hpp.html" target="_top" xlink:title="AutoStep that drives straight toward a wall until the distance sensor reaches a setpoint.">
<polygon fill="white" stroke="#666666" points="2073.75,-218.75 1958,-218.75 1958,-188.25 2073.75,-188.25 2073.75,-218.75"/>
<text xml:space="preserve" text-anchor="start" x="1966" y="-205.25" font-family="Helvetica,sans-Serif" font-size="10.00">src/Autonomous/Steps</text>
<text xml:space="preserve" text-anchor="middle" x="2015.88" y="-194" font-family="Helvetica,sans-Serif" font-size="10.00">/DriveUntilWall.hpp</text>
</a>
</g>
</g>
<!-- Node2&#45;&gt;Node17 -->
<g id="edge26_Node000002_Node000017" class="edge">
<title>Node2&#45;&gt;Node17</title>
<g id="a_edge26_Node000002_Node000017"><a xlink:title=" ">
<path fill="none" stroke="#63b8ff" d="M1299.44,-261.99C1431.47,-258.86 1710.32,-248.95 1943.88,-218.75 1948.42,-218.16 1953.12,-217.46 1957.83,-216.68"/>
<polygon fill="#63b8ff" stroke="#63b8ff" points="1299.7,-258.48 1289.79,-262.21 1299.86,-265.48 1299.7,-258.48"/>
</a>
</g>
</g>
<!-- Node18 -->
<g id="Node000018" class="node">
<title>Node18</title>
<g id="a_Node000018"><a xlink:href="_follow_line_step_8hpp.html" target="_top" xlink:title="AutoStep that follows a line for a specified distance.">
<polygon fill="white" stroke="#666666" points="805.75,-218.75 690,-218.75 690,-188.25 805.75,-188.25 805.75,-218.75"/>
<text xml:space="preserve" text-anchor="start" x="698" y="-205.25" font-family="Helvetica,sans-Serif" font-size="10.00">src/Autonomous/Steps</text>
<text xml:space="preserve" text-anchor="middle" x="747.88" y="-194" font-family="Helvetica,sans-Serif" font-size="10.00">/FollowLineStep.hpp</text>
</a>
</g>
</g>
<!-- Node2&#45;&gt;Node18 -->
<g id="edge27_Node000002_Node000018" class="edge">
<title>Node2&#45;&gt;Node18</title>
<g id="a_edge27_Node000002_Node000018"><a xlink:title=" ">
<path fill="none" stroke="#63b8ff" d="M1145.98,-257.29C1063.73,-250.24 929.61,-237.18 814.88,-218.75 811.94,-218.28 808.94,-217.76 805.91,-217.22"/>
<polygon fill="#63b8ff" stroke="#63b8ff" points="1145.47,-260.76 1155.73,-258.12 1146.06,-253.78 1145.47,-260.76"/>
</a>
</g>
</g>
<!-- Node19 -->
<g id="Node000019" class="node">
<title>Node19</title>
<g id="a_Node000019"><a xlink:href="_index_block_8hpp.html" target="_top" xlink:title="AutoStep that routes a newly acquired block to the correct hopper slot.">
<polygon fill="white" stroke="#666666" points="1481.75,-218.75 1366,-218.75 1366,-188.25 1481.75,-188.25 1481.75,-218.75"/>
<text xml:space="preserve" text-anchor="start" x="1374" y="-205.25" font-family="Helvetica,sans-Serif" font-size="10.00">src/Autonomous/Steps</text>
<text xml:space="preserve" text-anchor="middle" x="1423.88" y="-194" font-family="Helvetica,sans-Serif" font-size="10.00">/IndexBlock.hpp</text>
</a>
</g>
</g>
<!-- Node2&#45;&gt;Node19 -->
<g id="edge30_Node000002_Node000019" class="edge">
<title>Node2&#45;&gt;Node19</title>
<g id="a_edge30_Node000002_Node000019"><a xlink:title=" ">
<path fill="none" stroke="#63b8ff" d="M1264.52,-251.18C1296.25,-241.88 1340.05,-229.05 1373.71,-219.19"/>
<polygon fill="#63b8ff" stroke="#63b8ff" points="1263.91,-247.71 1255.29,-253.88 1265.87,-254.43 1263.91,-247.71"/>
</a>
</g>
</g>
<!-- Node20 -->
<g id="Node000020" class="node">
<title>Node20</title>
<g id="a_Node000020"><a xlink:href="_mine_block_8hpp.html" target="_top" xlink:title="AutoStep that commands the Miner to complete a fixed number of press cycles.">
<polygon fill="white" stroke="#666666" points="461.75,-218.75 346,-218.75 346,-188.25 461.75,-188.25 461.75,-218.75"/>
<text xml:space="preserve" text-anchor="start" x="354" y="-205.25" font-family="Helvetica,sans-Serif" font-size="10.00">src/Autonomous/Steps</text>
<text xml:space="preserve" text-anchor="middle" x="403.88" y="-194" font-family="Helvetica,sans-Serif" font-size="10.00">/MineBlock.hpp</text>
</a>
</g>
</g>
<!-- Node2&#45;&gt;Node20 -->
<g id="edge32_Node000002_Node000020" class="edge">
<title>Node2&#45;&gt;Node20</title>
<g id="a_edge32_Node000002_Node000020"><a xlink:title=" ">
<path fill="none" stroke="#63b8ff" d="M1146.04,-262.62C1009.54,-260.43 716.06,-251.91 470.88,-218.75 467.93,-218.35 464.92,-217.9 461.89,-217.4"/>
<polygon fill="#63b8ff" stroke="#63b8ff" points="1145.61,-266.11 1155.66,-262.77 1145.71,-259.11 1145.61,-266.11"/>
</a>
</g>
</g>
<!-- Node21 -->
<g id="Node000021" class="node">
<title>Node21</title>
<g id="a_Node000021"><a xlink:href="_mine_block_autofire_8hpp.html" target="_top" xlink:title="AutoStep that mines and simultaneously autofires the shooter for a time window.">
<polygon fill="white" stroke="#666666" points="465.5,-152.25 348.25,-152.25 348.25,-121.75 465.5,-121.75 465.5,-152.25"/>
<text xml:space="preserve" text-anchor="start" x="356.25" y="-138.75" font-family="Helvetica,sans-Serif" font-size="10.00">src/Autonomous/Steps</text>
<text xml:space="preserve" text-anchor="middle" x="406.88" y="-127.5" font-family="Helvetica,sans-Serif" font-size="10.00">/MineBlockAutofire.hpp</text>
</a>
</g>
</g>
<!-- Node2&#45;&gt;Node21 -->
<g id="edge35_Node000002_Node000021" class="edge">
<title>Node2&#45;&gt;Node21</title>
<g id="a_edge35_Node000002_Node000021"><a xlink:title=" ">
<path fill="none" stroke="#63b8ff" d="M1146.13,-261.57C1013.24,-257.75 745.96,-246.75 656.88,-218.75 631.31,-210.72 629.66,-198.42 604.88,-188.25 559.76,-169.73 505.99,-156.61 465.88,-148.43"/>
<polygon fill="#63b8ff" stroke="#63b8ff" points="1145.79,-265.07 1155.88,-261.85 1145.99,-258.07 1145.79,-265.07"/>
</a>
</g>
</g>
<!-- Node22 -->
<g id="Node000022" class="node">
<title>Node22</title>
<g id="a_Node000022"><a xlink:href="_place_on_table_8hpp.html" target="_top" xlink:title="AutoStep stub that places a block on the crafting table.">
<polygon fill="white" stroke="#666666" points="1615.75,-218.75 1500,-218.75 1500,-188.25 1615.75,-188.25 1615.75,-218.75"/>
<text xml:space="preserve" text-anchor="start" x="1508" y="-205.25" font-family="Helvetica,sans-Serif" font-size="10.00">src/Autonomous/Steps</text>
<text xml:space="preserve" text-anchor="middle" x="1557.88" y="-194" font-family="Helvetica,sans-Serif" font-size="10.00">/PlaceOnTable.hpp</text>
</a>
</g>
</g>
<!-- Node2&#45;&gt;Node22 -->
<g id="edge37_Node000002_Node000022" class="edge">
<title>Node2&#45;&gt;Node22</title>
<g id="a_edge37_Node000002_Node000022"><a xlink:title=" ">
<path fill="none" stroke="#63b8ff" d="M1293.55,-252.49C1347.68,-243.94 1424.14,-231.4 1490.88,-218.75 1493.8,-218.2 1496.79,-217.62 1499.8,-217.02"/>
<polygon fill="#63b8ff" stroke="#63b8ff" points="1293.18,-249 1283.85,-254.01 1294.27,-255.92 1293.18,-249"/>
</a>
</g>
</g>
<!-- Node23 -->
<g id="Node000023" class="node">
<title>Node23</title>
<g id="a_Node000023"><a xlink:href="_reject_sequence_8hpp.html" target="_top" xlink:title="AutoStep stub that executes the block&#45;rejection sequence.">
<polygon fill="white" stroke="#666666" points="1749.75,-218.75 1634,-218.75 1634,-188.25 1749.75,-188.25 1749.75,-218.75"/>
<text xml:space="preserve" text-anchor="start" x="1642" y="-205.25" font-family="Helvetica,sans-Serif" font-size="10.00">src/Autonomous/Steps</text>
<text xml:space="preserve" text-anchor="middle" x="1691.88" y="-194" font-family="Helvetica,sans-Serif" font-size="10.00">/RejectSequence.hpp</text>
</a>
</g>
</g>
<!-- Node2&#45;&gt;Node23 -->
<g id="edge39_Node000002_Node000023" class="edge">
<title>Node2&#45;&gt;Node23</title>
<g id="a_edge39_Node000002_Node000023"><a xlink:title=" ">
<path fill="none" stroke="#63b8ff" d="M1299.7,-257.12C1380.83,-249.99 1512.32,-236.92 1624.88,-218.75 1627.81,-218.28 1630.81,-217.76 1633.84,-217.21"/>
<polygon fill="#63b8ff" stroke="#63b8ff" points="1299.76,-253.61 1290.1,-257.96 1300.37,-260.58 1299.76,-253.61"/>
</a>
</g>
</g>
<!-- Node4 -->
<g id="Node000004" class="node">
<title>Node4</title>
<g id="a_Node000004"><a xlink:href="_planner_8cpp.html" target="_top" xlink:title="Implementation of the autonomous Planner state machine.">
<polygon fill="white" stroke="#666666" points="1089.5,-85.75 948.25,-85.75 948.25,-66.5 1089.5,-66.5 1089.5,-85.75"/>
<text xml:space="preserve" text-anchor="middle" x="1018.88" y="-72.25" font-family="Helvetica,sans-Serif" font-size="10.00">src/Autonomous/Planner.cpp</text>
</a>
</g>
</g>
<!-- Node3&#45;&gt;Node4 -->
<g id="edge3_Node000003_Node000004" class="edge">
<title>Node3&#45;&gt;Node4</title>
<g id="a_edge3_Node000003_Node000004"><a xlink:title=" ">
<path fill="none" stroke="#63b8ff" d="M1018.88,-115.57C1018.88,-105.54 1018.88,-93.96 1018.88,-86.15"/>
<polygon fill="#63b8ff" stroke="#63b8ff" points="1015.38,-115.54 1018.88,-125.54 1022.38,-115.54 1015.38,-115.54"/>
</a>
</g>
</g>
<!-- Node3&#45;&gt;Node5 -->
<g id="edge4_Node000003_Node000005" class="edge">
<title>Node3&#45;&gt;Node5</title>
<g id="a_edge4_Node000003_Node000005"><a xlink:title=" ">
<path fill="none" stroke="#63b8ff" d="M951.41,-125.18C875,-112.92 753.09,-93.36 690.99,-83.4"/>
<polygon fill="#63b8ff" stroke="#63b8ff" points="950.41,-128.56 960.84,-126.69 951.52,-121.65 950.41,-128.56"/>
</a>
</g>
</g>
<!-- Node6 -->
<g id="Node000006" class="node">
<title>Node6</title>
<g id="a_Node000006"><a xlink:href="_strategy_controller_step_8hpp.html" target="_top" xlink:title="High&#45;level AutoStep that runs the full strategy loop inline.">
<polygon fill="white" stroke="#666666" points="659.25,-30.5 522.5,-30.5 522.5,0 659.25,0 659.25,-30.5"/>
<text xml:space="preserve" text-anchor="start" x="530.5" y="-17" font-family="Helvetica,sans-Serif" font-size="10.00">src/Autonomous/Steps</text>
<text xml:space="preserve" text-anchor="middle" x="590.88" y="-5.75" font-family="Helvetica,sans-Serif" font-size="10.00">/StrategyControllerStep.hpp</text>
</a>
</g>
</g>
<!-- Node5&#45;&gt;Node6 -->
<g id="edge5_Node000005_Node000006" class="edge">
<title>Node5&#45;&gt;Node6</title>
<g id="a_edge5_Node000005_Node000006"><a xlink:title=" ">
<path fill="none" stroke="#63b8ff" d="M634.39,-58.25C625.4,-49.57 614.55,-39.1 605.93,-30.78"/>
<polygon fill="#63b8ff" stroke="#63b8ff" points="631.9,-60.71 641.52,-65.13 636.76,-55.67 631.9,-60.71"/>
</a>
</g>
</g>
<!-- Node7 -->
<g id="Node000007" class="node">
<title>Node7</title>
<g id="a_Node000007"><a xlink:href="main_8cpp.html" target="_top" xlink:title="Arduino entry point — instantiates the Robot and drives the main loop.">
<polygon fill="white" stroke="#666666" points="750,-24.88 677.75,-24.88 677.75,-5.63 750,-5.63 750,-24.88"/>
<text xml:space="preserve" text-anchor="middle" x="713.88" y="-11.38" font-family="Helvetica,sans-Serif" font-size="10.00">src/main.cpp</text>
</a>
</g>
</g>
<!-- Node5&#45;&gt;Node7 -->
<g id="edge6_Node000005_Node000007" class="edge">
<title>Node5&#45;&gt;Node7</title>
<g id="a_edge6_Node000005_Node000007"><a xlink:title=" ">
<path fill="none" stroke="#63b8ff" d="M669.59,-58.3C680.91,-47.55 695.14,-34.04 704.37,-25.28"/>
<polygon fill="#63b8ff" stroke="#63b8ff" points="667.23,-55.72 662.39,-65.14 672.05,-60.79 667.23,-55.72"/>
</a>
</g>
</g>
<!-- Node8&#45;&gt;Node5 -->
<g id="edge8_Node000008_Node000005" class="edge">
<title>Node8&#45;&gt;Node5</title>
<g id="a_edge8_Node000008_Node000005"><a xlink:title=" ">
<path fill="none" stroke="#63b8ff" d="M651.88,-109.98C651.88,-101.48 651.88,-92.59 651.88,-86.2"/>
<polygon fill="#63b8ff" stroke="#63b8ff" points="648.38,-109.93 651.88,-119.93 655.38,-109.93 648.38,-109.93"/>
</a>
</g>
</g>
<!-- Node9&#45;&gt;Node3 -->
<g id="edge10_Node000009_Node000003" class="edge">
<title>Node9&#45;&gt;Node3</title>
<g id="a_edge10_Node000009_Node000003"><a xlink:title=" ">
<path fill="none" stroke="#63b8ff" d="M1018.88,-176.59C1018.88,-166.01 1018.88,-154.5 1018.88,-146.82"/>
<polygon fill="#63b8ff" stroke="#63b8ff" points="1015.38,-176.35 1018.88,-186.35 1022.38,-176.35 1015.38,-176.35"/>
</a>
</g>
</g>
<!-- Node10&#45;&gt;Node5 -->
<g id="edge12_Node000010_Node000005" class="edge">
<title>Node10&#45;&gt;Node5</title>
<g id="a_edge12_Node000010_Node000005"><a xlink:title=" ">
<path fill="none" stroke="#63b8ff" d="M545.07,-176.93C550.91,-159.77 560.55,-137.51 574.88,-121.75 589.63,-105.51 611.71,-93.56 628.44,-86.13"/>
<polygon fill="#63b8ff" stroke="#63b8ff" points="541.75,-175.82 542.08,-186.41 548.43,-177.93 541.75,-175.82"/>
</a>
</g>
</g>
<!-- Node11&#45;&gt;Node3 -->
<g id="edge14_Node000011_Node000003" class="edge">
<title>Node11&#45;&gt;Node3</title>
<g id="a_edge14_Node000011_Node000003"><a xlink:title=" ">
<path fill="none" stroke="#63b8ff" d="M1114.66,-183.1C1089.22,-171.12 1057.77,-156.31 1038.01,-147.01"/>
<polygon fill="#63b8ff" stroke="#63b8ff" points="1112.88,-186.13 1123.42,-187.22 1115.86,-179.79 1112.88,-186.13"/>
</a>
</g>
</g>
<!-- Node12&#45;&gt;Node3 -->
<g id="edge16_Node000012_Node000003" class="edge">
<title>Node12&#45;&gt;Node3</title>
<g id="a_edge16_Node000012_Node000003"><a xlink:title=" ">
<path fill="none" stroke="#63b8ff" d="M1220.58,-186.01C1168.54,-173.62 1099.24,-157.13 1056.9,-147.05"/>
<polygon fill="#63b8ff" stroke="#63b8ff" points="1219.73,-189.4 1230.27,-188.31 1221.35,-182.59 1219.73,-189.4"/>
</a>
</g>
</g>
<!-- Node13&#45;&gt;Node3 -->
<g id="edge18_Node000013_Node000003" class="edge">
<title>Node13&#45;&gt;Node3</title>
<g id="a_edge18_Node000013_Node000003"><a xlink:title=" ">
<path fill="none" stroke="#63b8ff" d="M923.09,-183.1C948.53,-171.12 979.98,-156.31 999.74,-147.01"/>
<polygon fill="#63b8ff" stroke="#63b8ff" points="921.89,-179.79 914.33,-187.22 924.87,-186.13 921.89,-179.79"/>
</a>
</g>
</g>
<!-- Node13&#45;&gt;Node5 -->
<g id="edge19_Node000013_Node000005" class="edge">
<title>Node13&#45;&gt;Node5</title>
<g id="a_edge19_Node000013_Node000005"><a xlink:title=" ">
<path fill="none" stroke="#63b8ff" d="M850.48,-181.8C824.13,-164.79 785.22,-140.52 749.88,-121.75 724.28,-108.16 693.75,-94.67 673.65,-86.14"/>
<polygon fill="#63b8ff" stroke="#63b8ff" points="848.37,-184.6 858.67,-187.11 852.19,-178.73 848.37,-184.6"/>
</a>
</g>
</g>
<!-- Node14&#45;&gt;Node5 -->
<g id="edge21_Node000014_Node000005" class="edge">
<title>Node14&#45;&gt;Node5</title>
<g id="a_edge21_Node000014_Node000005"><a xlink:title=" ">
<path fill="none" stroke="#63b8ff" d="M1145.39,-127.16C1130.06,-125.31 1113.93,-123.42 1098.88,-121.75 948.3,-105.07 768.87,-88.01 691.07,-80.75"/>
<polygon fill="#63b8ff" stroke="#63b8ff" points="1144.53,-130.59 1154.88,-128.32 1145.38,-123.64 1144.53,-130.59"/>
</a>
</g>
</g>
<!-- Node15&#45;&gt;Node5 -->
<g id="edge23_Node000015_Node000005" class="edge">
<title>Node15&#45;&gt;Node5</title>
<g id="a_edge23_Node000015_Node000005"><a xlink:title=" ">
<path fill="none" stroke="#63b8ff" d="M1474.96,-131.39C1296.61,-119.63 829.06,-88.81 690.87,-79.7"/>
<polygon fill="#63b8ff" stroke="#63b8ff" points="1474.56,-134.87 1484.77,-132.04 1475.02,-127.89 1474.56,-134.87"/>
</a>
</g>
</g>
<!-- Node16&#45;&gt;Node5 -->
<g id="edge25_Node000016_Node000005" class="edge">
<title>Node16&#45;&gt;Node5</title>
<g id="a_edge25_Node000016_Node000005"><a xlink:title=" ">
<path fill="none" stroke="#63b8ff" d="M1706.97,-128.95C1677.19,-126.44 1642.99,-123.75 1611.88,-121.75 1254.31,-98.8 821.09,-82.95 690.77,-78.44"/>
<polygon fill="#63b8ff" stroke="#63b8ff" points="1706.39,-132.41 1716.65,-129.77 1706.98,-125.43 1706.39,-132.41"/>
</a>
</g>
</g>
<!-- Node18&#45;&gt;Node3 -->
<g id="edge28_Node000018_Node000003" class="edge">
<title>Node18&#45;&gt;Node3</title>
<g id="a_edge28_Node000018_Node000003"><a xlink:title=" ">
<path fill="none" stroke="#63b8ff" d="M817.17,-186.01C869.21,-173.62 938.51,-157.13 980.85,-147.05"/>
<polygon fill="#63b8ff" stroke="#63b8ff" points="816.4,-182.59 807.48,-188.31 818.02,-189.4 816.4,-182.59"/>
</a>
</g>
</g>
<!-- Node18&#45;&gt;Node5 -->
<g id="edge29_Node000018_Node000005" class="edge">
<title>Node18&#45;&gt;Node5</title>
<g id="a_edge29_Node000018_Node000005"><a xlink:title=" ">
<path fill="none" stroke="#63b8ff" d="M746.99,-176.57C745.23,-159.54 740.61,-137.57 728.88,-121.75 716.35,-104.87 695.41,-93.33 678.52,-86.22"/>
<polygon fill="#63b8ff" stroke="#63b8ff" points="743.49,-176.71 747.71,-186.43 750.47,-176.2 743.49,-176.71"/>
</a>
</g>
</g>
<!-- Node19&#45;&gt;Node3 -->
<g id="edge31_Node000019_Node000003" class="edge">
<title>Node19&#45;&gt;Node3</title>
<g id="a_edge31_Node000019_Node000003"><a xlink:title=" ">
<path fill="none" stroke="#63b8ff" d="M1354.51,-187.89C1256.57,-170.45 1154.62,-155.97 1088.67,-147.09"/>
<polygon fill="#63b8ff" stroke="#63b8ff" points="1353.86,-191.33 1364.32,-189.65 1355.1,-184.44 1353.86,-191.33"/>
</a>
</g>
</g>
<!-- Node20&#45;&gt;Node3 -->
<g id="edge33_Node000020_Node000003" class="edge">
<title>Node20&#45;&gt;Node3</title>
<g id="a_edge33_Node000020_Node000003"><a xlink:title=" ">
<path fill="none" stroke="#63b8ff" d="M473.22,-188.02C649.58,-161.83 845.51,-147.93 948.05,-141.81"/>
<polygon fill="#63b8ff" stroke="#63b8ff" points="472.77,-184.55 463.4,-189.49 473.81,-191.47 472.77,-184.55"/>
</a>
</g>
</g>
<!-- Node20&#45;&gt;Node5 -->
<g id="edge34_Node000020_Node000005" class="edge">
<title>Node20&#45;&gt;Node5</title>
<g id="a_edge34_Node000020_Node000005"><a xlink:title=" ">
<path fill="none" stroke="#63b8ff" d="M438.84,-182.18C468.34,-165.3 511.88,-141.03 550.88,-121.75 577.68,-108.5 609.32,-94.82 629.95,-86.17"/>
<polygon fill="#63b8ff" stroke="#63b8ff" points="437.26,-179.05 430.33,-187.07 440.74,-185.12 437.26,-179.05"/>
</a>
</g>
</g>
<!-- Node21&#45;&gt;Node5 -->
<g id="edge36_Node000021_Node000005" class="edge">
<title>Node21&#45;&gt;Node5</title>
<g id="a_edge36_Node000021_Node000005"><a xlink:title=" ">
<path fill="none" stroke="#63b8ff" d="M476.94,-119.16C521.52,-108.45 577.52,-94.99 613.98,-86.23"/>
<polygon fill="#63b8ff" stroke="#63b8ff" points="476.25,-115.73 467.34,-121.47 477.88,-122.54 476.25,-115.73"/>
</a>
</g>
</g>
<!-- Node22&#45;&gt;Node3 -->
<g id="edge38_Node000022_Node000003" class="edge">
<title>Node22&#45;&gt;Node3</title>
<g id="a_edge38_Node000022_Node000003"><a xlink:title=" ">
<path fill="none" stroke="#63b8ff" d="M1488.76,-188.02C1337.58,-164.47 1296.7,-168.28 1147.88,-152.25 1129.06,-150.22 1108.7,-147.99 1089.84,-145.91"/>
<polygon fill="#63b8ff" stroke="#63b8ff" points="1487.92,-191.43 1498.34,-189.53 1489.01,-184.52 1487.92,-191.43"/>
</a>
</g>
</g>
<!-- Node23&#45;&gt;Node3 -->
<g id="edge40_Node000023_Node000003" class="edge">
<title>Node23&#45;&gt;Node3</title>
<g id="a_edge40_Node000023_Node000003"><a xlink:title=" ">
<path fill="none" stroke="#63b8ff" d="M1622.75,-188.08C1412.5,-158.53 1355.95,-171.59 1147.88,-152.25 1129.03,-150.5 1108.66,-148.36 1089.8,-146.28"/>
<polygon fill="#63b8ff" stroke="#63b8ff" points="1621.96,-191.51 1632.36,-189.45 1622.95,-184.58 1621.96,-191.51"/>
</a>
</g>
</g>
<!-- Node24&#45;&gt;Node3 -->
<g id="edge43_Node000024_Node000003" class="edge">
<title>Node24&#45;&gt;Node3</title>
<g id="a_edge43_Node000024_Node000003"><a xlink:title=" ">
<path fill="none" stroke="#63b8ff" d="M346.35,-245.48C334.61,-228.74 322.23,-204.01 336.88,-188.25 347.19,-177.15 775.18,-151.77 947.8,-141.97"/>
<polygon fill="#63b8ff" stroke="#63b8ff" points="343.26,-247.19 352.08,-253.07 348.86,-242.98 343.26,-247.19"/>
</a>
</g>
</g>
<!-- Node24&#45;&gt;Node5 -->
<g id="edge47_Node000024_Node000005" class="edge">
<title>Node24&#45;&gt;Node5</title>
<g id="a_edge47_Node000024_Node000005"><a xlink:title=" ">
<path fill="none" stroke="#63b8ff" d="M327.26,-249.12C314.75,-241.97 301.89,-231.96 294.88,-218.75 272.67,-176.94 298.87,-147.05 338.88,-121.75 383.7,-93.4 539.21,-82.42 612.76,-78.74"/>
<polygon fill="#63b8ff" stroke="#63b8ff" points="325.28,-252.04 335.77,-253.56 328.52,-245.83 325.28,-252.04"/>
</a>
</g>
</g>
<!-- Node24&#45;&gt;Node10 -->
<g id="edge44_Node000024_Node000010" class="edge">
<title>Node24&#45;&gt;Node10</title>
<g id="a_edge44_Node000024_Node000010"><a xlink:title=" ">
<path fill="none" stroke="#63b8ff" d="M399.02,-250.69C426.83,-241.44 464.58,-228.88 493.7,-219.19"/>
<polygon fill="#63b8ff" stroke="#63b8ff" points="397.96,-247.35 389.58,-253.83 400.17,-253.99 397.96,-247.35"/>
</a>
</g>
</g>
<!-- Node24&#45;&gt;Node20 -->
<g id="edge45_Node000024_Node000020" class="edge">
<title>Node24&#45;&gt;Node20</title>
<g id="a_edge45_Node000024_Node000020"><a xlink:title=" ">
<path fill="none" stroke="#63b8ff" d="M374,-245.4C380.17,-236.95 387.44,-227 393.26,-219.03"/>
<polygon fill="#63b8ff" stroke="#63b8ff" points="371.37,-243.07 368.3,-253.21 377.02,-247.2 371.37,-243.07"/>
</a>
</g>
</g>
<!-- Node24&#45;&gt;Node21 -->
<g id="edge46_Node000024_Node000021" class="edge">
<title>Node24&#45;&gt;Node21</title>
<g id="a_edge46_Node000024_Node000021"><a xlink:title=" ">
<path fill="none" stroke="#63b8ff" d="M331.93,-248.26C321.04,-240.93 309.86,-231.03 303.88,-218.75 297.94,-206.56 296.69,-199.75 303.88,-188.25 314.31,-171.54 332.08,-160.25 349.95,-152.67"/>
<polygon fill="#63b8ff" stroke="#63b8ff" points="330.04,-251.21 340.39,-253.46 333.71,-245.24 330.04,-251.21"/>
</a>
</g>
</g>
<!-- Node25&#45;&gt;Node3 -->
<g id="edge49_Node000025_Node000003" class="edge">
<title>Node25&#45;&gt;Node3</title>
<g id="a_edge49_Node000025_Node000003"><a xlink:title=" ">
<path fill="none" stroke="#63b8ff" d="M225.67,-194.92C250.75,-192.67 278.44,-190.28 303.88,-188.25 539.56,-169.47 819.25,-150.89 947.8,-142.55"/>
<polygon fill="#63b8ff" stroke="#63b8ff" points="225.5,-191.42 215.85,-195.8 226.12,-198.39 225.5,-191.42"/>
</a>
</g>
</g>
<!-- Node25&#45;&gt;Node5 -->
<g id="edge55_Node000025_Node000005" class="edge">
<title>Node25&#45;&gt;Node5</title>
<g id="a_edge55_Node000025_Node000005"><a xlink:title=" ">
<path fill="none" stroke="#63b8ff" d="M142.54,-182.2C142.54,-163.53 145.83,-136.56 162.88,-121.75 196.58,-92.47 502.61,-81.23 612.67,-78.11"/>
<polygon fill="#63b8ff" stroke="#63b8ff" points="139.04,-182.17 142.89,-192.04 146.04,-181.92 139.04,-182.17"/>
</a>
</g>
</g>
<!-- Node25&#45;&gt;Node21 -->
<g id="edge54_Node000025_Node000021" class="edge">
<title>Node25&#45;&gt;Node21</title>
<g id="a_edge54_Node000025_Node000021"><a xlink:title=" ">
<path fill="none" stroke="#63b8ff" d="M191.96,-190.71C235.85,-179.94 300.87,-164 347.9,-152.46"/>
<polygon fill="#63b8ff" stroke="#63b8ff" points="191.35,-187.25 182.47,-193.04 193.01,-194.05 191.35,-187.25"/>
</a>
</g>
</g>
<!-- Node26 -->
<g id="Node000026" class="node">
<title>Node26</title>
<g id="a_Node000026"><a xlink:href="_delay_step_8hpp.html" target="_top" xlink:title="AutoStep that blocks for a fixed number of milliseconds.">
<polygon fill="white" stroke="#666666" points="287.75,-152.25 172,-152.25 172,-121.75 287.75,-121.75 287.75,-152.25"/>
<text xml:space="preserve" text-anchor="start" x="180" y="-138.75" font-family="Helvetica,sans-Serif" font-size="10.00">src/Autonomous/Steps</text>
<text xml:space="preserve" text-anchor="middle" x="229.88" y="-127.5" font-family="Helvetica,sans-Serif" font-size="10.00">/DelayStep.hpp</text>
</a>
</g>
</g>
<!-- Node25&#45;&gt;Node26 -->
<g id="edge50_Node000025_Node000026" class="edge">
<title>Node25&#45;&gt;Node26</title>
<g id="a_edge50_Node000025_Node000026"><a xlink:title=" ">
<path fill="none" stroke="#63b8ff" d="M164.68,-186.9C178.6,-176.46 196.79,-162.81 210.42,-152.59"/>
<polygon fill="#63b8ff" stroke="#63b8ff" points="162.94,-183.82 157.04,-192.62 167.14,-189.42 162.94,-183.82"/>
</a>
</g>
</g>
<!-- Node27 -->
<g id="Node000027" class="node">
<title>Node27</title>
<g id="a_Node000027"><a xlink:href="_fire_step_8hpp.html" target="_top" xlink:title="AutoStep that fires the shooter for a fixed duration, then stops it.">
<polygon fill="white" stroke="#666666" points="115.75,-152.25 0,-152.25 0,-121.75 115.75,-121.75 115.75,-152.25"/>
<text xml:space="preserve" text-anchor="start" x="8" y="-138.75" font-family="Helvetica,sans-Serif" font-size="10.00">src/Autonomous/Steps</text>
<text xml:space="preserve" text-anchor="middle" x="57.88" y="-127.5" font-family="Helvetica,sans-Serif" font-size="10.00">/FireStep.hpp</text>
</a>
</g>
</g>
<!-- Node25&#45;&gt;Node27 -->
<g id="edge52_Node000025_Node000027" class="edge">
<title>Node25&#45;&gt;Node27</title>
<g id="a_edge52_Node000025_Node000027"><a xlink:title=" ">
<path fill="none" stroke="#63b8ff" d="M123.07,-186.9C109.15,-176.46 90.96,-162.81 77.33,-152.59"/>
<polygon fill="#63b8ff" stroke="#63b8ff" points="120.61,-189.42 130.71,-192.62 124.81,-183.82 120.61,-189.42"/>
</a>
</g>
</g>
<!-- Node26&#45;&gt;Node5 -->
<g id="edge51_Node000026_Node000005" class="edge">
<title>Node26&#45;&gt;Node5</title>
<g id="a_edge51_Node000026_Node000005"><a xlink:title=" ">
<path fill="none" stroke="#63b8ff" d="M299.31,-122.17C300.17,-122.03 301.03,-121.89 301.88,-121.75 414.18,-103.5 547.78,-88.24 612.64,-81.24"/>
<polygon fill="#63b8ff" stroke="#63b8ff" points="298.71,-118.72 289.46,-123.89 299.92,-125.62 298.71,-118.72"/>
</a>
</g>
</g>
<!-- Node27&#45;&gt;Node5 -->
<g id="edge53_Node000027_Node000005" class="edge">
<title>Node27&#45;&gt;Node5</title>
<g id="a_edge53_Node000027_Node000005"><a xlink:title=" ">
<path fill="none" stroke="#63b8ff" d="M127.31,-122.12C128.17,-121.99 129.02,-121.87 129.88,-121.75 309.32,-96.4 525.65,-83.48 612.75,-78.99"/>
<polygon fill="#63b8ff" stroke="#63b8ff" points="126.76,-118.66 117.43,-123.7 127.86,-125.58 126.76,-118.66"/>
</a>
</g>
</g>
<!-- Node28&#45;&gt;Node2 -->
<g id="edge57_Node000028_Node000002" class="edge">
<title>Node28&#45;&gt;Node2</title>
<g id="a_edge57_Node000028_Node000002"><a xlink:title=" ">
<path fill="none" stroke="#63b8ff" d="M1013.85,-356.15C1004.07,-342.35 994.97,-323.38 1005.88,-310 1024.74,-286.86 1100.53,-275.37 1157.27,-269.92"/>
<polygon fill="#63b8ff" stroke="#63b8ff" points="1010.99,-358.17 1019.89,-363.92 1016.52,-353.88 1010.99,-358.17"/>
</a>
</g>
</g>
<!-- Node29 -->
<g id="Node000029" class="node">
<title>Node29</title>
<g id="a_Node000029"><a xlink:href="_odometry_8cpp.html" target="_top" xlink:title="Implementation of the differential&#45;drive odometry integrator.">
<polygon fill="white" stroke="#666666" points="1128.62,-329.25 1015.12,-329.25 1015.12,-310 1128.62,-310 1128.62,-329.25"/>
<text xml:space="preserve" text-anchor="middle" x="1071.88" y="-315.75" font-family="Helvetica,sans-Serif" font-size="10.00">src/utils/Odometry.cpp</text>
</a>
</g>
</g>
<!-- Node28&#45;&gt;Node29 -->
<g id="edge58_Node000028_Node000029" class="edge">
<title>Node28&#45;&gt;Node29</title>
<g id="a_edge58_Node000028_Node000029"><a xlink:title=" ">
<path fill="none" stroke="#63b8ff" d="M1043.13,-356.22C1050.33,-347.31 1058.76,-336.87 1064.62,-329.61"/>
<polygon fill="#63b8ff" stroke="#63b8ff" points="1040.49,-353.93 1036.93,-363.9 1045.93,-358.32 1040.49,-353.93"/>
</a>
</g>
</g>
<!-- Node30 -->
<g id="Node000030" class="node">
<title>Node30</title>
<g id="a_Node000030"><a xlink:href="_ramsete_controller_8hpp.html" target="_top" xlink:title="Ramsete nonlinear trajectory&#45;tracking controller for a differential&#45;drive robot.">
<polygon fill="white" stroke="#666666" points="1299.5,-329.25 1146.25,-329.25 1146.25,-310 1299.5,-310 1299.5,-329.25"/>
<text xml:space="preserve" text-anchor="middle" x="1222.88" y="-315.75" font-family="Helvetica,sans-Serif" font-size="10.00">src/utils/RamseteController.hpp</text>
</a>
</g>
</g>
<!-- Node28&#45;&gt;Node30 -->
<g id="edge59_Node000028_Node000030" class="edge">
<title>Node28&#45;&gt;Node30</title>
<g id="a_edge59_Node000028_Node000030"><a xlink:title=" ">
<path fill="none" stroke="#63b8ff" d="M1072.8,-361.82C1108.32,-352.07 1157.56,-338.55 1189.8,-329.7"/>
<polygon fill="#63b8ff" stroke="#63b8ff" points="1071.96,-358.42 1063.24,-364.44 1073.81,-365.17 1071.96,-358.42"/>
</a>
</g>
</g>
<!-- Node30&#45;&gt;Node2 -->
<g id="edge60_Node000030_Node000002" class="edge">
<title>Node30&#45;&gt;Node2</title>
<g id="a_edge60_Node000030_Node000002"><a xlink:title=" ">
<path fill="none" stroke="#63b8ff" d="M1222.88,-298.38C1222.88,-290.09 1222.88,-280.92 1222.88,-274.36"/>
<polygon fill="#63b8ff" stroke="#63b8ff" points="1219.38,-298.32 1222.88,-308.32 1226.38,-298.32 1219.38,-298.32"/>
</a>
</g>
</g>
</g>
</svg>
