<?xml version="1.0" encoding="UTF-8" standalone="no"?>
<!DOCTYPE svg PUBLIC "-//W3C//DTD SVG 1.1//EN"
 "http://www.w3.org/Graphics/SVG/1.1/DTD/svg11.dtd">
<!-- Generated by graphviz version 14.1.2 (20260124.0452)
 -->
<!-- Title: src/Devices/EncoderWrapper.hpp Pages: 1 -->
<svg width="170pt" height="83pt"
 viewBox="0.00 0.00 170.00 83.00" xmlns="http://www.w3.org/2000/svg" xmlns:xlink="http://www.w3.org/1999/xlink">
<g id="graph0" class="graph" transform="scale(1 1) rotate(0) translate(4 78.5)">
<title>src/Devices/EncoderWrapper.hpp</title>
<!-- Node1 -->
<g id="Node000001" class="node">
<title>Node1</title>
<g id="a_Node000001"><a xlink:title="Quadrature encoder wrapper providing position, velocity, and acceleration.">
<polygon fill="#999999" stroke="#666666" points="161.5,-74.5 0,-74.5 0,-55.25 161.5,-55.25 161.5,-74.5"/>
<text xml:space="preserve" text-anchor="middle" x="80.75" y="-61" font-family="Helvetica,sans-Serif" font-size="10.00">src/Devices/EncoderWrapper.hpp</text>
</a>
</g>
</g>
<!-- Node2 -->
<g id="Node000002" class="node">
<title>Node2</title>
<g id="a_Node000002"><a xlink:title=" ">
<polygon fill="#e0e0e0" stroke="#999999" points="71.38,-19.25 14.13,-19.25 14.13,0 71.38,0 71.38,-19.25"/>
<text xml:space="preserve" text-anchor="middle" x="42.75" y="-5.75" font-family="Helvetica,sans-Serif" font-size="10.00">Arduino.h</text>
</a>
</g>
</g>
<!-- Node1&#45;&gt;Node2 -->
<g id="edge1_Node000001_Node000002" class="edge">
<title>Node1&#45;&gt;Node2</title>
<g id="a_edge1_Node000001_Node000002"><a xlink:title=" ">
<path fill="none" stroke="#63b8ff" d="M74.48,-55.08C69.39,-47.96 62.05,-37.68 55.72,-28.8"/>
<polygon fill="#63b8ff" stroke="#63b8ff" points="58.7,-26.95 50.04,-20.84 53,-31.01 58.7,-26.95"/>
</a>
</g>
</g>
<!-- Node3 -->
<g id="Node000003" class="node">
<title>Node3</title>
<g id="a_Node000003"><a xlink:title=" ">
<polygon fill="#e0e0e0" stroke="#999999" points="148.5,-19.25 89,-19.25 89,0 148.5,0 148.5,-19.25"/>
<text xml:space="preserve" text-anchor="middle" x="118.75" y="-5.75" font-family="Helvetica,sans-Serif" font-size="10.00">Encoder.h</text>
</a>
</g>
</g>
<!-- Node1&#45;&gt;Node3 -->
<g id="edge2_Node000001_Node000003" class="edge">
<title>Node1&#45;&gt;Node3</title>
<g id="a_edge2_Node000001_Node000003"><a xlink:title=" ">
<path fill="none" stroke="#63b8ff" d="M87.02,-55.08C92.11,-47.96 99.45,-37.68 105.78,-28.8"/>
<polygon fill="#63b8ff" stroke="#63b8ff" points="108.5,-31.01 111.46,-20.84 102.8,-26.95 108.5,-31.01"/>
</a>
</g>
</g>
</g>
</svg>
