<?xml version="1.0" encoding="UTF-8" standalone="no"?>
<!DOCTYPE svg PUBLIC "-//W3C//DTD SVG 1.1//EN"
 "http://www.w3.org/Graphics/SVG/1.1/DTD/svg11.dtd">
<!-- Generated by graphviz version 14.1.2 (20260124.0452)
 -->
<!-- Title: lib/L298NMotorDriverMega/L298NMotorDriverMega.cpp Pages: 1 -->
<svg width="189pt" height="149pt"
 viewBox="0.00 0.00 189.00 149.00" xmlns="http://www.w3.org/2000/svg" xmlns:xlink="http://www.w3.org/1999/xlink">
<g id="graph0" class="graph" transform="scale(1 1) rotate(0) translate(4 145)">
<title>lib/L298NMotorDriverMega/L298NMotorDriverMega.cpp</title>
<!-- Node1 -->
<g id="Node000001" class="node">
<title>Node1</title>
<g id="a_Node000001"><a xlink:title=" ">
<polygon fill="#999999" stroke="#666666" points="180.5,-141 39.25,-141 39.25,-110.5 180.5,-110.5 180.5,-141"/>
<text xml:space="preserve" text-anchor="start" x="47.25" y="-127.5" font-family="Helvetica,sans-Serif" font-size="10.00">lib/L298NMotorDriverMega</text>
<text xml:space="preserve" text-anchor="middle" x="109.88" y="-116.25" font-family="Helvetica,sans-Serif" font-size="10.00">/L298NMotorDriverMega.cpp</text>
</a>
</g>
</g>
<!-- Node2 -->
<g id="Node000002" class="node">
<title>Node2</title>
<g id="a_Node000002"><a xlink:href="_l298_n_motor_driver_mega_8h.html" target="_top" xlink:title=" ">
<polygon fill="white" stroke="#666666" points="127.75,-74.5 0,-74.5 0,-55.25 127.75,-55.25 127.75,-74.5"/>
<text xml:space="preserve" text-anchor="middle" x="63.88" y="-61" font-family="Helvetica,sans-Serif" font-size="10.00">L298NMotorDriverMega.h</text>
</a>
</g>
</g>
<!-- Node1&#45;&gt;Node2 -->
<g id="edge1_Node000001_Node000002" class="edge">
<title>Node1&#45;&gt;Node2</title>
<g id="a_edge1_Node000001_Node000002"><a xlink:title=" ">
<path fill="none" stroke="#63b8ff" d="M98.5,-110.2C92.31,-102.27 84.58,-92.38 78.01,-83.96"/>
<polygon fill="#63b8ff" stroke="#63b8ff" points="80.81,-81.87 71.9,-76.14 75.3,-86.18 80.81,-81.87"/>
</a>
</g>
</g>
<!-- Node3 -->
<g id="Node000003" class="node">
<title>Node3</title>
<g id="a_Node000003"><a xlink:title=" ">
<polygon fill="#e0e0e0" stroke="#999999" points="138.5,-19.25 81.25,-19.25 81.25,0 138.5,0 138.5,-19.25"/>
<text xml:space="preserve" text-anchor="middle" x="109.88" y="-5.75" font-family="Helvetica,sans-Serif" font-size="10.00">Arduino.h</text>
</a>
</g>
</g>
<!-- Node1&#45;&gt;Node3 -->
<g id="edge3_Node000001_Node000003" class="edge">
<title>Node1&#45;&gt;Node3</title>
<g id="a_edge3_Node000001_Node000003"><a xlink:title=" ">
<path fill="none" stroke="#63b8ff" d="M121.5,-110.12C131.09,-96.25 142.3,-74.7 136.88,-55.25 134.27,-45.9 129.1,-36.55 123.99,-28.84"/>
<polygon fill="#63b8ff" stroke="#63b8ff" points="126.84,-26.81 118.16,-20.73 121.15,-30.9 126.84,-26.81"/>
</a>
</g>
</g>
<!-- Node2&#45;&gt;Node3 -->
<g id="edge2_Node000002_Node000003" class="edge">
<title>Node2&#45;&gt;Node3</title>
<g id="a_edge2_Node000002_Node000003"><a xlink:title=" ">
<path fill="none" stroke="#63b8ff" d="M71.47,-55.08C77.76,-47.8 86.89,-37.23 94.67,-28.23"/>
<polygon fill="#63b8ff" stroke="#63b8ff" points="97.24,-30.61 101.12,-20.75 91.94,-26.03 97.24,-30.61"/>
</a>
</g>
</g>
</g>
</svg>
