<?xml version="1.0" encoding="UTF-8" standalone="no"?>
<!DOCTYPE svg PUBLIC "-//W3C//DTD SVG 1.1//EN"
 "http://www.w3.org/Graphics/SVG/1.1/DTD/svg11.dtd">
<!-- Generated by graphviz version 14.1.2 (20260124.0452)
 -->
<!-- Title: src/subsystems/Miner.hpp Pages: 1 -->
<svg width="381pt" height="282pt"
 viewBox="0.00 0.00 381.00 282.00" xmlns="http://www.w3.org/2000/svg" xmlns:xlink="http://www.w3.org/1999/xlink">
<g id="graph0" class="graph" transform="scale(1 1) rotate(0) translate(4 278)">
<title>src/subsystems/Miner.hpp</title>
<!-- Node1 -->
<g id="Node000001" class="node">
<title>Node1</title>
<g id="a_Node000001"><a xlink:title="Miner subsystem: servo&#45;driven block&#45;pressing mechanism and ramp deployment.">
<polygon fill="#999999" stroke="#666666" points="299,-274 168.25,-274 168.25,-254.75 299,-254.75 299,-274"/>
<text xml:space="preserve" text-anchor="middle" x="233.62" y="-260.5" font-family="Helvetica,sans-Serif" font-size="10.00">src/subsystems/Miner.hpp</text>
</a>
</g>
</g>
<!-- Node2 -->
<g id="Node000002" class="node">
<title>Node2</title>
<g id="a_Node000002"><a xlink:href="_planner_8hpp.html" target="_top" xlink:title="High&#45;level autonomous planner used with ReplanStep.">
<polygon fill="white" stroke="#666666" points="141.25,-146.62 0,-146.62 0,-127.38 141.25,-127.38 141.25,-146.62"/>
<text xml:space="preserve" text-anchor="middle" x="70.62" y="-133.12" font-family="Helvetica,sans-Serif" font-size="10.00">src/Autonomous/Planner.hpp</text>
</a>
</g>
</g>
<!-- Node1&#45;&gt;Node2 -->
<g id="edge1_Node000001_Node000002" class="edge">
<title>Node1&#45;&gt;Node2</title>
<g id="a_edge1_Node000001_Node000002"><a xlink:title=" ">
<path fill="none" stroke="#63b8ff" d="M156.77,-256.2C106.86,-249.77 48.27,-238.26 32.62,-218.75 14.3,-195.91 43.74,-162.78 60.41,-147"/>
<polygon fill="#63b8ff" stroke="#63b8ff" points="156.07,-259.64 166.43,-257.39 156.93,-252.69 156.07,-259.64"/>
</a>
</g>
</g>
<!-- Node4 -->
<g id="Node000004" class="node">
<title>Node4</title>
<g id="a_Node000004"><a xlink:href="_robot_8hpp.html" target="_top" xlink:title="Top&#45;level robot class that owns all subsystems and the autonomous scheduler.">
<polygon fill="white" stroke="#666666" points="246.38,-85.75 168.88,-85.75 168.88,-66.5 246.38,-66.5 246.38,-85.75"/>
<text xml:space="preserve" text-anchor="middle" x="207.62" y="-72.25" font-family="Helvetica,sans-Serif" font-size="10.00">src/Robot.hpp</text>
</a>
</g>
</g>
<!-- Node1&#45;&gt;Node4 -->
<g id="edge13_Node000001_Node000004" class="edge">
<title>Node1&#45;&gt;Node4</title>
<g id="a_edge13_Node000001_Node000004"><a xlink:title=" ">
<path fill="none" stroke="#63b8ff" d="M267.85,-249.83C284.11,-242.3 303.12,-231.79 317.62,-218.75 352.97,-186.98 391.21,-159.72 362.62,-121.75 348.69,-103.24 287.99,-90.01 246.82,-82.97"/>
<polygon fill="#63b8ff" stroke="#63b8ff" points="266.75,-246.49 259.02,-253.74 269.58,-252.89 266.75,-246.49"/>
</a>
</g>
</g>
<!-- Node7 -->
<g id="Node000007" class="node">
<title>Node7</title>
<g id="a_Node000007"><a xlink:href="_deploy_ramp_8hpp.html" target="_top" xlink:title="Instantaneous AutoStep that deploys the miner&#39;s block&#45;collection ramp.">
<polygon fill="white" stroke="#666666" points="291.5,-218.75 175.75,-218.75 175.75,-188.25 291.5,-188.25 291.5,-218.75"/>
<text xml:space="preserve" text-anchor="start" x="183.75" y="-205.25" font-family="Helvetica,sans-Serif" font-size="10.00">src/Autonomous/Steps</text>
<text xml:space="preserve" text-anchor="middle" x="233.62" y="-194" font-family="Helvetica,sans-Serif" font-size="10.00">/DeployRamp.hpp</text>
</a>
</g>
</g>
<!-- Node1&#45;&gt;Node7 -->
<g id="edge6_Node000001_Node000007" class="edge">
<title>Node1&#45;&gt;Node7</title>
<g id="a_edge6_Node000001_Node000007"><a xlink:title=" ">
<path fill="none" stroke="#63b8ff" d="M233.62,-243.17C233.62,-235.24 233.62,-226.31 233.62,-219.03"/>
<polygon fill="#63b8ff" stroke="#63b8ff" points="230.13,-242.92 233.63,-252.92 237.13,-242.92 230.13,-242.92"/>
</a>
</g>
</g>
<!-- Node8 -->
<g id="Node000008" class="node">
<title>Node8</title>
<g id="a_Node000008"><a xlink:href="_mine_block_8hpp.html" target="_top" xlink:title="AutoStep that commands the Miner to complete a fixed number of press cycles.">
<polygon fill="white" stroke="#666666" points="157.5,-218.75 41.75,-218.75 41.75,-188.25 157.5,-188.25 157.5,-218.75"/>
<text xml:space="preserve" text-anchor="start" x="49.75" y="-205.25" font-family="Helvetica,sans-Serif" font-size="10.00">src/Autonomous/Steps</text>
<text xml:space="preserve" text-anchor="middle" x="99.62" y="-194" font-family="Helvetica,sans-Serif" font-size="10.00">/MineBlock.hpp</text>
</a>
</g>
</g>
<!-- Node1&#45;&gt;Node8 -->
<g id="edge8_Node000001_Node000008" class="edge">
<title>Node1&#45;&gt;Node8</title>
<g id="a_edge8_Node000001_Node000008"><a xlink:title=" ">
<path fill="none" stroke="#63b8ff" d="M202.47,-249.69C181.67,-240.55 154.33,-228.54 133.07,-219.19"/>
<polygon fill="#63b8ff" stroke="#63b8ff" points="201.03,-252.88 211.6,-253.7 203.85,-246.47 201.03,-252.88"/>
</a>
</g>
</g>
<!-- Node9 -->
<g id="Node000009" class="node">
<title>Node9</title>
<g id="a_Node000009"><a xlink:href="_mine_block_autofire_8hpp.html" target="_top" xlink:title="AutoStep that mines and simultaneously autofires the shooter for a time window.">
<polygon fill="white" stroke="#666666" points="353.25,-152.25 236,-152.25 236,-121.75 353.25,-121.75 353.25,-152.25"/>
<text xml:space="preserve" text-anchor="start" x="244" y="-138.75" font-family="Helvetica,sans-Serif" font-size="10.00">src/Autonomous/Steps</text>
<text xml:space="preserve" text-anchor="middle" x="294.62" y="-127.5" font-family="Helvetica,sans-Serif" font-size="10.00">/MineBlockAutofire.hpp</text>
</a>
</g>
</g>
<!-- Node1&#45;&gt;Node9 -->
<g id="edge11_Node000001_Node000009" class="edge">
<title>Node1&#45;&gt;Node9</title>
<g id="a_edge11_Node000001_Node000009"><a xlink:title=" ">
<path fill="none" stroke="#63b8ff" d="M267.73,-249.24C280.44,-242.1 293.49,-232.07 300.62,-218.75 311.77,-197.93 305.71,-169.66 300.22,-152.68"/>
<polygon fill="#63b8ff" stroke="#63b8ff" points="266.39,-245.99 259.09,-253.66 269.58,-252.22 266.39,-245.99"/>
</a>
</g>
</g>
<!-- Node3 -->
<g id="Node000003" class="node">
<title>Node3</title>
<g id="a_Node000003"><a xlink:href="_planner_8cpp.html" target="_top" xlink:title="Implementation of the autonomous Planner state machine.">
<polygon fill="white" stroke="#666666" points="141.25,-85.75 0,-85.75 0,-66.5 141.25,-66.5 141.25,-85.75"/>
<text xml:space="preserve" text-anchor="middle" x="70.62" y="-72.25" font-family="Helvetica,sans-Serif" font-size="10.00">src/Autonomous/Planner.cpp</text>
</a>
</g>
</g>
<!-- Node2&#45;&gt;Node3 -->
<g id="edge2_Node000002_Node000003" class="edge">
<title>Node2&#45;&gt;Node3</title>
<g id="a_edge2_Node000002_Node000003"><a xlink:title=" ">
<path fill="none" stroke="#63b8ff" d="M70.62,-115.57C70.62,-105.54 70.62,-93.96 70.62,-86.15"/>
<polygon fill="#63b8ff" stroke="#63b8ff" points="67.13,-115.54 70.63,-125.54 74.13,-115.54 67.13,-115.54"/>
</a>
</g>
</g>
<!-- Node2&#45;&gt;Node4 -->
<g id="edge3_Node000002_Node000004" class="edge">
<title>Node2&#45;&gt;Node4</title>
<g id="a_edge3_Node000002_Node000004"><a xlink:title=" ">
<path fill="none" stroke="#63b8ff" d="M102.17,-122.44C128.13,-111.29 164.21,-95.78 186.72,-86.11"/>
<polygon fill="#63b8ff" stroke="#63b8ff" points="100.93,-119.17 93.12,-126.33 103.69,-125.6 100.93,-119.17"/>
</a>
</g>
</g>
<!-- Node5 -->
<g id="Node000005" class="node">
<title>Node5</title>
<g id="a_Node000005"><a xlink:href="_strategy_controller_step_8hpp.html" target="_top" xlink:title="High&#45;level AutoStep that runs the full strategy loop inline.">
<polygon fill="white" stroke="#666666" points="214,-30.5 77.25,-30.5 77.25,0 214,0 214,-30.5"/>
<text xml:space="preserve" text-anchor="start" x="85.25" y="-17" font-family="Helvetica,sans-Serif" font-size="10.00">src/Autonomous/Steps</text>
<text xml:space="preserve" text-anchor="middle" x="145.62" y="-5.75" font-family="Helvetica,sans-Serif" font-size="10.00">/StrategyControllerStep.hpp</text>
</a>
</g>
</g>
<!-- Node4&#45;&gt;Node5 -->
<g id="edge4_Node000004_Node000005" class="edge">
<title>Node4&#45;&gt;Node5</title>
<g id="a_edge4_Node000004_Node000005"><a xlink:title=" ">
<path fill="none" stroke="#63b8ff" d="M190.14,-58.52C180.94,-49.79 169.78,-39.18 160.93,-30.78"/>
<polygon fill="#63b8ff" stroke="#63b8ff" points="187.45,-60.79 197.11,-65.14 192.27,-55.72 187.45,-60.79"/>
</a>
</g>
</g>
<!-- Node6 -->
<g id="Node000006" class="node">
<title>Node6</title>
<g id="a_Node000006"><a xlink:href="main_8cpp.html" target="_top" xlink:title="Arduino entry point — instantiates the Robot and drives the main loop.">
<polygon fill="white" stroke="#666666" points="304.75,-24.88 232.5,-24.88 232.5,-5.63 304.75,-5.63 304.75,-24.88"/>
<text xml:space="preserve" text-anchor="middle" x="268.62" y="-11.38" font-family="Helvetica,sans-Serif" font-size="10.00">src/main.cpp</text>
</a>
</g>
</g>
<!-- Node4&#45;&gt;Node6 -->
<g id="edge5_Node000004_Node000006" class="edge">
<title>Node4&#45;&gt;Node6</title>
<g id="a_edge5_Node000004_Node000006"><a xlink:title=" ">
<path fill="none" stroke="#63b8ff" d="M225.06,-58.3C236.19,-47.55 250.19,-34.04 259.27,-25.28"/>
<polygon fill="#63b8ff" stroke="#63b8ff" points="222.74,-55.67 217.98,-65.13 227.6,-60.71 222.74,-55.67"/>
</a>
</g>
</g>
<!-- Node7&#45;&gt;Node4 -->
<g id="edge7_Node000007_Node000004" class="edge">
<title>Node7&#45;&gt;Node4</title>
<g id="a_edge7_Node000007_Node000004"><a xlink:title=" ">
<path fill="none" stroke="#63b8ff" d="M228.36,-177.11C222.51,-148.9 213.37,-104.83 209.48,-86.07"/>
<polygon fill="#63b8ff" stroke="#63b8ff" points="224.88,-177.55 230.34,-186.64 231.73,-176.13 224.88,-177.55"/>
</a>
</g>
</g>
<!-- Node8&#45;&gt;Node2 -->
<g id="edge9_Node000008_Node000002" class="edge">
<title>Node8&#45;&gt;Node2</title>
<g id="a_edge9_Node000008_Node000002"><a xlink:title=" ">
<path fill="none" stroke="#63b8ff" d="M88.43,-177.61C83.56,-166.76 78.15,-154.74 74.59,-146.82"/>
<polygon fill="#63b8ff" stroke="#63b8ff" points="85.13,-178.8 92.42,-186.48 91.52,-175.93 85.13,-178.8"/>
</a>
</g>
</g>
<!-- Node8&#45;&gt;Node4 -->
<g id="edge10_Node000008_Node000004" class="edge">
<title>Node8&#45;&gt;Node4</title>
<g id="a_edge10_Node000008_Node000004"><a xlink:title=" ">
<path fill="none" stroke="#63b8ff" d="M123.7,-180.16C132.46,-171.69 142.26,-161.77 150.62,-152.25 170.51,-129.62 191.26,-100.71 201.35,-86.24"/>
<polygon fill="#63b8ff" stroke="#63b8ff" points="121.3,-177.62 116.48,-187.05 126.13,-182.69 121.3,-177.62"/>
</a>
</g>
</g>
<!-- Node9&#45;&gt;Node4 -->
<g id="edge12_Node000009_Node000004" class="edge">
<title>Node9&#45;&gt;Node4</title>
<g id="a_edge12_Node000009_Node000004"><a xlink:title=" ">
<path fill="none" stroke="#63b8ff" d="M263.87,-115.19C249.21,-105.26 232.42,-93.91 221.04,-86.2"/>
<polygon fill="#63b8ff" stroke="#63b8ff" points="261.62,-117.89 271.87,-120.6 265.55,-112.1 261.62,-117.89"/>
</a>
</g>
</g>
</g>
</svg>
