<?xml version="1.0" encoding="UTF-8" standalone="no"?>
<!DOCTYPE svg PUBLIC "-//W3C//DTD SVG 1.1//EN"
 "http://www.w3.org/Graphics/SVG/1.1/DTD/svg11.dtd">
<!-- Generated by graphviz version 14.1.2 (20260124.0452)
 -->
<!-- Title: src/Autonomous/Steps/MineBlock.hpp Pages: 1 -->
<svg width="303pt" height="216pt"
 viewBox="0.00 0.00 303.00 216.00" xmlns="http://www.w3.org/2000/svg" xmlns:xlink="http://www.w3.org/1999/xlink">
<g id="graph0" class="graph" transform="scale(1 1) rotate(0) translate(4 211.5)">
<title>src/Autonomous/Steps/MineBlock.hpp</title>
<!-- Node1 -->
<g id="Node000001" class="node">
<title>Node1</title>
<g id="a_Node000001"><a xlink:title="AutoStep that commands the Miner to complete a fixed number of press cycles.">
<polygon fill="#999999" stroke="#666666" points="205.5,-207.5 89.75,-207.5 89.75,-177 205.5,-177 205.5,-207.5"/>
<text xml:space="preserve" text-anchor="start" x="97.75" y="-194" font-family="Helvetica,sans-Serif" font-size="10.00">src/Autonomous/Steps</text>
<text xml:space="preserve" text-anchor="middle" x="147.62" y="-182.75" font-family="Helvetica,sans-Serif" font-size="10.00">/MineBlock.hpp</text>
</a>
</g>
</g>
<!-- Node2 -->
<g id="Node000002" class="node">
<title>Node2</title>
<g id="a_Node000002"><a xlink:href="_planner_8hpp.html" target="_top" xlink:title="High&#45;level autonomous planner used with ReplanStep.">
<polygon fill="white" stroke="#666666" points="169.25,-141 28,-141 28,-121.75 169.25,-121.75 169.25,-141"/>
<text xml:space="preserve" text-anchor="middle" x="98.62" y="-127.5" font-family="Helvetica,sans-Serif" font-size="10.00">src/Autonomous/Planner.hpp</text>
</a>
</g>
</g>
<!-- Node1&#45;&gt;Node2 -->
<g id="edge1_Node000001_Node000002" class="edge">
<title>Node1&#45;&gt;Node2</title>
<g id="a_edge1_Node000001_Node000002"><a xlink:title=" ">
<path fill="none" stroke="#63b8ff" d="M128.15,-167.86C120.45,-158.59 112.04,-148.5 106.18,-141.45"/>
<polygon fill="#63b8ff" stroke="#63b8ff" points="125.46,-170.09 134.54,-175.53 130.84,-165.61 125.46,-170.09"/>
</a>
</g>
</g>
<!-- Node4 -->
<g id="Node000004" class="node">
<title>Node4</title>
<g id="a_Node000004"><a xlink:href="_robot_8hpp.html" target="_top" xlink:title="Top&#45;level robot class that owns all subsystems and the autonomous scheduler.">
<polygon fill="white" stroke="#666666" points="236.38,-85.75 158.88,-85.75 158.88,-66.5 236.38,-66.5 236.38,-85.75"/>
<text xml:space="preserve" text-anchor="middle" x="197.62" y="-72.25" font-family="Helvetica,sans-Serif" font-size="10.00">src/Robot.hpp</text>
</a>
</g>
</g>
<!-- Node1&#45;&gt;Node4 -->
<g id="edge6_Node000001_Node000004" class="edge">
<title>Node1&#45;&gt;Node4</title>
<g id="a_edge6_Node000001_Node000004"><a xlink:title=" ">
<path fill="none" stroke="#63b8ff" d="M164.16,-167.33C169.28,-159.22 174.62,-149.95 178.62,-141 187.04,-122.2 192.94,-98.67 195.75,-86.07"/>
<polygon fill="#63b8ff" stroke="#63b8ff" points="161.3,-165.32 158.75,-175.6 167.16,-169.15 161.3,-165.32"/>
</a>
</g>
</g>
<!-- Node3 -->
<g id="Node000003" class="node">
<title>Node3</title>
<g id="a_Node000003"><a xlink:href="_planner_8cpp.html" target="_top" xlink:title="Implementation of the autonomous Planner state machine.">
<polygon fill="white" stroke="#666666" points="141.25,-85.75 0,-85.75 0,-66.5 141.25,-66.5 141.25,-85.75"/>
<text xml:space="preserve" text-anchor="middle" x="70.62" y="-72.25" font-family="Helvetica,sans-Serif" font-size="10.00">src/Autonomous/Planner.cpp</text>
</a>
</g>
</g>
<!-- Node2&#45;&gt;Node3 -->
<g id="edge2_Node000002_Node000003" class="edge">
<title>Node2&#45;&gt;Node3</title>
<g id="a_edge2_Node000002_Node000003"><a xlink:title=" ">
<path fill="none" stroke="#63b8ff" d="M88.74,-111.58C84.19,-102.92 79,-93.06 75.35,-86.11"/>
<polygon fill="#63b8ff" stroke="#63b8ff" points="85.55,-113.02 93.3,-120.24 91.74,-109.76 85.55,-113.02"/>
</a>
</g>
</g>
<!-- Node2&#45;&gt;Node4 -->
<g id="edge3_Node000002_Node000004" class="edge">
<title>Node2&#45;&gt;Node4</title>
<g id="a_edge3_Node000002_Node000004"><a xlink:title=" ">
<path fill="none" stroke="#63b8ff" d="M125.15,-116.11C142.82,-106.61 165.5,-94.4 180.75,-86.2"/>
<polygon fill="#63b8ff" stroke="#63b8ff" points="123.9,-112.81 116.75,-120.62 127.22,-118.97 123.9,-112.81"/>
</a>
</g>
</g>
<!-- Node5 -->
<g id="Node000005" class="node">
<title>Node5</title>
<g id="a_Node000005"><a xlink:href="_strategy_controller_step_8hpp.html" target="_top" xlink:title="High&#45;level AutoStep that runs the full strategy loop inline.">
<polygon fill="white" stroke="#666666" points="204,-30.5 67.25,-30.5 67.25,0 204,0 204,-30.5"/>
<text xml:space="preserve" text-anchor="start" x="75.25" y="-17" font-family="Helvetica,sans-Serif" font-size="10.00">src/Autonomous/Steps</text>
<text xml:space="preserve" text-anchor="middle" x="135.62" y="-5.75" font-family="Helvetica,sans-Serif" font-size="10.00">/StrategyControllerStep.hpp</text>
</a>
</g>
</g>
<!-- Node4&#45;&gt;Node5 -->
<g id="edge4_Node000004_Node000005" class="edge">
<title>Node4&#45;&gt;Node5</title>
<g id="a_edge4_Node000004_Node000005"><a xlink:title=" ">
<path fill="none" stroke="#63b8ff" d="M180.14,-58.52C170.94,-49.79 159.78,-39.18 150.93,-30.78"/>
<polygon fill="#63b8ff" stroke="#63b8ff" points="177.45,-60.79 187.11,-65.14 182.27,-55.72 177.45,-60.79"/>
</a>
</g>
</g>
<!-- Node6 -->
<g id="Node000006" class="node">
<title>Node6</title>
<g id="a_Node000006"><a xlink:href="main_8cpp.html" target="_top" xlink:title="Arduino entry point — instantiates the Robot and drives the main loop.">
<polygon fill="white" stroke="#666666" points="294.75,-24.88 222.5,-24.88 222.5,-5.63 294.75,-5.63 294.75,-24.88"/>
<text xml:space="preserve" text-anchor="middle" x="258.62" y="-11.38" font-family="Helvetica,sans-Serif" font-size="10.00">src/main.cpp</text>
</a>
</g>
</g>
<!-- Node4&#45;&gt;Node6 -->
<g id="edge5_Node000004_Node000006" class="edge">
<title>Node4&#45;&gt;Node6</title>
<g id="a_edge5_Node000004_Node000006"><a xlink:title=" ">
<path fill="none" stroke="#63b8ff" d="M215.06,-58.3C226.19,-47.55 240.19,-34.04 249.27,-25.28"/>
<polygon fill="#63b8ff" stroke="#63b8ff" points="212.74,-55.67 207.98,-65.13 217.6,-60.71 212.74,-55.67"/>
</a>
</g>
</g>
</g>
</svg>
