<?xml version="1.0" encoding="UTF-8" standalone="no"?>
<!DOCTYPE svg PUBLIC "-//W3C//DTD SVG 1.1//EN"
 "http://www.w3.org/Graphics/SVG/1.1/DTD/svg11.dtd">
<!-- Generated by graphviz version 14.1.2 (20260124.0452)
 -->
<!-- Title: src/Autonomous/Steps/MineBlockAutofire.hpp Pages: 1 -->
<svg width="1492pt" height="315pt"
 viewBox="0.00 0.00 1492.00 315.00" xmlns="http://www.w3.org/2000/svg" xmlns:xlink="http://www.w3.org/1999/xlink">
<g id="graph0" class="graph" transform="scale(1 1) rotate(0) translate(4 310.75)">
<title>src/Autonomous/Steps/MineBlockAutofire.hpp</title>
<!-- Node1 -->
<g id="Node000001" class="node">
<title>Node1</title>
<g id="a_Node000001"><a xlink:title="AutoStep that mines and simultaneously autofires the shooter for a time window.">
<polygon fill="#999999" stroke="#666666" points="732.12,-306.75 614.88,-306.75 614.88,-276.25 732.12,-276.25 732.12,-306.75"/>
<text xml:space="preserve" text-anchor="start" x="622.88" y="-293.25" font-family="Helvetica,sans-Serif" font-size="10.00">src/Autonomous/Steps</text>
<text xml:space="preserve" text-anchor="middle" x="673.5" y="-282" font-family="Helvetica,sans-Serif" font-size="10.00">/MineBlockAutofire.hpp</text>
</a>
</g>
</g>
<!-- Node2 -->
<g id="Node000002" class="node">
<title>Node2</title>
<g id="a_Node000002"><a xlink:href="_auto_step_8h.html" target="_top" xlink:title="Abstract interface that every autonomous step must implement.">
<polygon fill="white" stroke="#666666" points="459.75,-240.25 337.25,-240.25 337.25,-221 459.75,-221 459.75,-240.25"/>
<text xml:space="preserve" text-anchor="middle" x="398.5" y="-226.75" font-family="Helvetica,sans-Serif" font-size="10.00">Autonomous/AutoStep.h</text>
</a>
</g>
</g>
<!-- Node1&#45;&gt;Node2 -->
<g id="edge1_Node000001_Node000002" class="edge">
<title>Node1&#45;&gt;Node2</title>
<g id="a_edge1_Node000001_Node000002"><a xlink:title=" ">
<path fill="none" stroke="#63b8ff" d="M614.51,-277.87C566.25,-267.54 498.58,-253.05 451.91,-243.06"/>
<polygon fill="#63b8ff" stroke="#63b8ff" points="452.8,-239.67 442.29,-241 451.34,-246.52 452.8,-239.67"/>
</a>
</g>
</g>
<!-- Node3 -->
<g id="Node000003" class="node">
<title>Node3</title>
<g id="a_Node000003"><a xlink:href="_drive_8hpp.html" target="_top" xlink:title="Differential&#45;drive subsystem: closed&#45;loop wheel control, line following, wall&#45;distance holding,...">
<polygon fill="white" stroke="#666666" points="591.62,-240.25 477.38,-240.25 477.38,-221 591.62,-221 591.62,-240.25"/>
<text xml:space="preserve" text-anchor="middle" x="534.5" y="-226.75" font-family="Helvetica,sans-Serif" font-size="10.00">subsystems/Drive.hpp</text>
</a>
</g>
</g>
<!-- Node1&#45;&gt;Node3 -->
<g id="edge2_Node000001_Node000003" class="edge">
<title>Node1&#45;&gt;Node3</title>
<g id="a_edge2_Node000001_Node000003"><a xlink:title=" ">
<path fill="none" stroke="#63b8ff" d="M638.78,-275.8C616.5,-266.35 587.78,-254.19 566.12,-245.02"/>
<polygon fill="#63b8ff" stroke="#63b8ff" points="567.78,-241.92 557.21,-241.24 565.05,-248.37 567.78,-241.92"/>
</a>
</g>
</g>
<!-- Node20 -->
<g id="Node000020" class="node">
<title>Node20</title>
<g id="a_Node000020"><a xlink:href="_miner_8hpp.html" target="_top" xlink:title="Miner subsystem: servo&#45;driven block&#45;pressing mechanism and ramp deployment.">
<polygon fill="white" stroke="#666666" points="840.62,-240.25 726.38,-240.25 726.38,-221 840.62,-221 840.62,-240.25"/>
<text xml:space="preserve" text-anchor="middle" x="783.5" y="-226.75" font-family="Helvetica,sans-Serif" font-size="10.00">subsystems/Miner.hpp</text>
</a>
</g>
</g>
<!-- Node1&#45;&gt;Node20 -->
<g id="edge32_Node000001_Node000020" class="edge">
<title>Node1&#45;&gt;Node20</title>
<g id="a_edge32_Node000001_Node000020"><a xlink:title=" ">
<path fill="none" stroke="#63b8ff" d="M700.97,-275.8C718.05,-266.66 739.89,-254.97 756.81,-245.91"/>
<polygon fill="#63b8ff" stroke="#63b8ff" points="758.13,-249.17 765.3,-241.37 754.83,-243 758.13,-249.17"/>
</a>
</g>
</g>
<!-- Node24 -->
<g id="Node000024" class="node">
<title>Node24</title>
<g id="a_Node000024"><a xlink:href="_shooter_8hpp.html" target="_top" xlink:title="Rack&#45;and&#45;pinion block shooter subsystem.">
<polygon fill="white" stroke="#666666" points="1097.5,-240.25 973.5,-240.25 973.5,-221 1097.5,-221 1097.5,-240.25"/>
<text xml:space="preserve" text-anchor="middle" x="1035.5" y="-226.75" font-family="Helvetica,sans-Serif" font-size="10.00">subsystems/Shooter.hpp</text>
</a>
</g>
</g>
<!-- Node1&#45;&gt;Node24 -->
<g id="edge43_Node000001_Node000024" class="edge">
<title>Node1&#45;&gt;Node24</title>
<g id="a_edge43_Node000001_Node000024"><a xlink:title=" ">
<path fill="none" stroke="#63b8ff" d="M732.47,-280.91C797.18,-270.38 900.86,-253.52 968.57,-242.51"/>
<polygon fill="#63b8ff" stroke="#63b8ff" points="968.73,-246.03 978.04,-240.97 967.61,-239.12 968.73,-246.03"/>
</a>
</g>
</g>
<!-- Node4 -->
<g id="Node000004" class="node">
<title>Node4</title>
<g id="a_Node000004"><a xlink:title=" ">
<polygon fill="#e0e0e0" stroke="#999999" points="769.12,-19.25 711.88,-19.25 711.88,0 769.12,0 769.12,-19.25"/>
<text xml:space="preserve" text-anchor="middle" x="740.5" y="-5.75" font-family="Helvetica,sans-Serif" font-size="10.00">Arduino.h</text>
</a>
</g>
</g>
<!-- Node3&#45;&gt;Node4 -->
<g id="edge3_Node000003_Node000004" class="edge">
<title>Node3&#45;&gt;Node4</title>
<g id="a_edge3_Node000003_Node000004"><a xlink:title=" ">
<path fill="none" stroke="#63b8ff" d="M494.12,-220.54C426.25,-204.35 294.15,-168.52 268.5,-129.75 263.78,-122.61 263.63,-117.53 268.5,-110.5 317.8,-39.3 595.41,-17.96 700.33,-12.39"/>
<polygon fill="#63b8ff" stroke="#63b8ff" points="700.35,-15.89 710.16,-11.89 700,-8.9 700.35,-15.89"/>
</a>
</g>
</g>
<!-- Node5 -->
<g id="Node000005" class="node">
<title>Node5</title>
<g id="a_Node000005"><a xlink:href="_config_8hpp.html" target="_top" xlink:title="Central configuration: pin assignments, physical constants, and PID gains.">
<polygon fill="white" stroke="#666666" points="845.12,-185 781.88,-185 781.88,-165.75 845.12,-165.75 845.12,-185"/>
<text xml:space="preserve" text-anchor="middle" x="813.5" y="-171.5" font-family="Helvetica,sans-Serif" font-size="10.00">Config.hpp</text>
</a>
</g>
</g>
<!-- Node3&#45;&gt;Node5 -->
<g id="edge4_Node000003_Node000005" class="edge">
<title>Node3&#45;&gt;Node5</title>
<g id="a_edge4_Node000003_Node000005"><a xlink:title=" ">
<path fill="none" stroke="#63b8ff" d="M582.14,-220.53C634.99,-210.45 719.5,-194.32 770.43,-184.6"/>
<polygon fill="#63b8ff" stroke="#63b8ff" points="771.03,-188.04 780.2,-182.73 769.72,-181.17 771.03,-188.04"/>
</a>
</g>
</g>
<!-- Node11 -->
<g id="Node000011" class="node">
<title>Node11</title>
<g id="a_Node000011"><a xlink:href="_encoder_wrapper_8hpp.html" target="_top" xlink:title="Quadrature encoder wrapper providing position, velocity, and acceleration.">
<polygon fill="white" stroke="#666666" points="145,-74.5 0,-74.5 0,-55.25 145,-55.25 145,-74.5"/>
<text xml:space="preserve" text-anchor="middle" x="72.5" y="-61" font-family="Helvetica,sans-Serif" font-size="10.00">Devices/EncoderWrapper.hpp</text>
</a>
</g>
</g>
<!-- Node3&#45;&gt;Node11 -->
<g id="edge15_Node000003_Node000011" class="edge">
<title>Node3&#45;&gt;Node11</title>
<g id="a_edge15_Node000003_Node000011"><a xlink:title=" ">
<path fill="none" stroke="#63b8ff" d="M476.92,-221.95C474.08,-221.62 471.26,-221.3 468.5,-221 376.69,-211.01 131.02,-236.7 54.5,-185 25.19,-165.2 12.72,-143.08 26.5,-110.5 31.26,-99.24 40.41,-89.43 49.3,-81.9"/>
<polygon fill="#63b8ff" stroke="#63b8ff" points="51.34,-84.74 57.08,-75.83 47.04,-79.22 51.34,-84.74"/>
</a>
</g>
</g>
<!-- Node13 -->
<g id="Node000013" class="node">
<title>Node13</title>
<g id="a_Node000013"><a xlink:href="_line_sensor_8hpp.html" target="_top" xlink:title="8&#45;channel reflective line sensor driver using the Pololu QTR&#45;MD&#45;08RC.">
<polygon fill="white" stroke="#666666" points="595.38,-185 473.62,-185 473.62,-165.75 595.38,-165.75 595.38,-185"/>
<text xml:space="preserve" text-anchor="middle" x="534.5" y="-171.5" font-family="Helvetica,sans-Serif" font-size="10.00">Devices/LineSensor.hpp</text>
</a>
</g>
</g>
<!-- Node3&#45;&gt;Node13 -->
<g id="edge18_Node000003_Node000013" class="edge">
<title>Node3&#45;&gt;Node13</title>
<g id="a_edge18_Node000003_Node000013"><a xlink:title=" ">
<path fill="none" stroke="#63b8ff" d="M534.5,-220.83C534.5,-214.32 534.5,-205.17 534.5,-196.87"/>
<polygon fill="#63b8ff" stroke="#63b8ff" points="538,-196.87 534.5,-186.87 531,-196.87 538,-196.87"/>
</a>
</g>
</g>
<!-- Node15 -->
<g id="Node000015" class="node">
<title>Node15</title>
<g id="a_Node000015"><a xlink:href="_distance_sensor_8hpp.html" target="_top" xlink:title="Driver for the Sharp GP2Y0A51SK0F short&#45;range IR distance sensor (2–15 cm).">
<polygon fill="white" stroke="#666666" points="419.88,-129.75 277.12,-129.75 277.12,-110.5 419.88,-110.5 419.88,-129.75"/>
<text xml:space="preserve" text-anchor="middle" x="348.5" y="-116.25" font-family="Helvetica,sans-Serif" font-size="10.00">Devices/DistanceSensor.hpp</text>
</a>
</g>
</g>
<!-- Node3&#45;&gt;Node15 -->
<g id="edge21_Node000003_Node000015" class="edge">
<title>Node3&#45;&gt;Node15</title>
<g id="a_edge21_Node000003_Node000015"><a xlink:title=" ">
<path fill="none" stroke="#63b8ff" d="M509.1,-220.64C487.72,-212.61 456.69,-199.84 431.5,-185 407.67,-170.96 382.85,-151.05 366.63,-137.2"/>
<polygon fill="#63b8ff" stroke="#63b8ff" points="369.14,-134.74 359.29,-130.83 364.55,-140.03 369.14,-134.74"/>
</a>
</g>
</g>
<!-- Node16 -->
<g id="Node000016" class="node">
<title>Node16</title>
<g id="a_Node000016"><a xlink:href="_odometry_8hpp.html" target="_top" xlink:title="Differential&#45;drive pose tracker using wheel&#45;encoder odometry.">
<polygon fill="white" stroke="#666666" points="133,-129.75 36,-129.75 36,-110.5 133,-110.5 133,-129.75"/>
<text xml:space="preserve" text-anchor="middle" x="84.5" y="-116.25" font-family="Helvetica,sans-Serif" font-size="10.00">utils/Odometry.hpp</text>
</a>
</g>
</g>
<!-- Node3&#45;&gt;Node16 -->
<g id="edge23_Node000003_Node000016" class="edge">
<title>Node3&#45;&gt;Node16</title>
<g id="a_edge23_Node000003_Node000016"><a xlink:title=" ">
<path fill="none" stroke="#63b8ff" d="M476.92,-221.96C474.08,-221.62 471.26,-221.3 468.5,-221 423.7,-216.08 94.92,-218.25 64.5,-185 53.01,-172.44 61.21,-153.35 70.34,-139.31"/>
<polygon fill="#63b8ff" stroke="#63b8ff" points="73.04,-141.55 76,-131.37 67.34,-137.48 73.04,-141.55"/>
</a>
</g>
</g>
<!-- Node17 -->
<g id="Node000017" class="node">
<title>Node17</title>
<g id="a_Node000017"><a xlink:href="_ramsete_controller_8hpp.html" target="_top" xlink:title="Ramsete nonlinear trajectory&#45;tracking controller for a differential&#45;drive robot.">
<polygon fill="white" stroke="#666666" points="209.88,-185 73.12,-185 73.12,-165.75 209.88,-165.75 209.88,-185"/>
<text xml:space="preserve" text-anchor="middle" x="141.5" y="-171.5" font-family="Helvetica,sans-Serif" font-size="10.00">utils/RamseteController.hpp</text>
</a>
</g>
</g>
<!-- Node3&#45;&gt;Node17 -->
<g id="edge25_Node000003_Node000017" class="edge">
<title>Node3&#45;&gt;Node17</title>
<g id="a_edge25_Node000003_Node000017"><a xlink:title=" ">
<path fill="none" stroke="#63b8ff" d="M476.93,-221.82C409.1,-212.63 296.04,-197.31 220.16,-187.03"/>
<polygon fill="#63b8ff" stroke="#63b8ff" points="220.66,-183.57 210.28,-185.69 219.72,-190.51 220.66,-183.57"/>
</a>
</g>
</g>
<!-- Node18 -->
<g id="Node000018" class="node">
<title>Node18</title>
<g id="a_Node000018"><a xlink:href="_odometry_plotting_8hpp.html" target="_top" xlink:title="Template helper functions for emitting JSON odometry telemetry over a serial port.">
<polygon fill="white" stroke="#666666" points="636.25,-74.5 504.75,-74.5 504.75,-55.25 636.25,-55.25 636.25,-74.5"/>
<text xml:space="preserve" text-anchor="middle" x="570.5" y="-61" font-family="Helvetica,sans-Serif" font-size="10.00">utils/OdometryPlotting.hpp</text>
</a>
</g>
</g>
<!-- Node3&#45;&gt;Node18 -->
<g id="edge28_Node000003_Node000018" class="edge">
<title>Node3&#45;&gt;Node18</title>
<g id="a_edge28_Node000003_Node000018"><a xlink:title=" ">
<path fill="none" stroke="#63b8ff" d="M560.36,-220.57C576.19,-213.54 595.14,-202.06 604.5,-185 610.71,-173.68 609.96,-140.71 599.5,-110.5 596.22,-101.03 590.51,-91.57 585.03,-83.82"/>
<polygon fill="#63b8ff" stroke="#63b8ff" points="587.9,-81.82 579.07,-75.95 582.32,-86.04 587.9,-81.82"/>
</a>
</g>
</g>
<!-- Node19 -->
<g id="Node000019" class="node">
<title>Node19</title>
<g id="a_Node000019"><a xlink:href="_subsystem_8h.html" target="_top" xlink:title="Abstract base class for all robot subsystems.">
<polygon fill="white" stroke="#666666" points="725.38,-185 651.62,-185 651.62,-165.75 725.38,-165.75 725.38,-185"/>
<text xml:space="preserve" text-anchor="middle" x="688.5" y="-171.5" font-family="Helvetica,sans-Serif" font-size="10.00">Subsystem.h</text>
</a>
</g>
</g>
<!-- Node3&#45;&gt;Node19 -->
<g id="edge30_Node000003_Node000019" class="edge">
<title>Node3&#45;&gt;Node19</title>
<g id="a_edge30_Node000003_Node000019"><a xlink:title=" ">
<path fill="none" stroke="#63b8ff" d="M560.62,-220.59C585.62,-211.95 623.58,-198.82 651.65,-189.12"/>
<polygon fill="#63b8ff" stroke="#63b8ff" points="652.51,-192.52 660.82,-185.95 650.22,-185.91 652.51,-192.52"/>
</a>
</g>
</g>
<!-- Node5&#45;&gt;Node4 -->
<g id="edge5_Node000005_Node000004" class="edge">
<title>Node5&#45;&gt;Node4</title>
<g id="a_edge5_Node000005_Node000004"><a xlink:title=" ">
<path fill="none" stroke="#63b8ff" d="M797.87,-165.5C785.66,-157.71 769.32,-145.21 760.5,-129.75 742.71,-98.58 739.77,-55.84 739.77,-30.93"/>
<polygon fill="#63b8ff" stroke="#63b8ff" points="743.27,-31.27 739.95,-21.2 736.27,-31.14 743.27,-31.27"/>
</a>
</g>
</g>
<!-- Node6 -->
<g id="Node000006" class="node">
<title>Node6</title>
<g id="a_Node000006"><a xlink:href="_dual_motor_controller_8hpp.html" target="_top" xlink:title="Dual closed&#45;loop motor controller wrapping an L298N driver with two independent PID loops.">
<polygon fill="white" stroke="#666666" points="990.5,-129.75 830.5,-129.75 830.5,-110.5 990.5,-110.5 990.5,-129.75"/>
<text xml:space="preserve" text-anchor="middle" x="910.5" y="-116.25" font-family="Helvetica,sans-Serif" font-size="10.00">Devices/DualMotorController.hpp</text>
</a>
</g>
</g>
<!-- Node5&#45;&gt;Node6 -->
<g id="edge6_Node000005_Node000006" class="edge">
<title>Node5&#45;&gt;Node6</title>
<g id="a_edge6_Node000005_Node000006"><a xlink:title=" ">
<path fill="none" stroke="#63b8ff" d="M829.95,-165.34C844.73,-157.23 866.68,-145.18 883.93,-135.71"/>
<polygon fill="#63b8ff" stroke="#63b8ff" points="885.56,-138.81 892.64,-130.93 882.19,-132.68 885.56,-138.81"/>
</a>
</g>
</g>
<!-- Node7 -->
<g id="Node000007" class="node">
<title>Node7</title>
<g id="a_Node000007"><a xlink:href="_p_i_d_8hpp.html" target="_top" xlink:title="PID controller classes with optional nonlinear extensions and feedforward support.">
<polygon fill="white" stroke="#666666" points="1193,-74.5 1120,-74.5 1120,-55.25 1193,-55.25 1193,-74.5"/>
<text xml:space="preserve" text-anchor="middle" x="1156.5" y="-61" font-family="Helvetica,sans-Serif" font-size="10.00">utils/PID.hpp</text>
</a>
</g>
</g>
<!-- Node5&#45;&gt;Node7 -->
<g id="edge13_Node000005_Node000007" class="edge">
<title>Node5&#45;&gt;Node7</title>
<g id="a_edge13_Node000005_Node000007"><a xlink:title=" ">
<path fill="none" stroke="#63b8ff" d="M845.47,-167.46C890.75,-157.53 971.21,-139.38 999.5,-129.75 1019.32,-123 1023.19,-118.6 1042.5,-110.5 1068.95,-99.41 1099.18,-87.62 1121.87,-78.94"/>
<polygon fill="#63b8ff" stroke="#63b8ff" points="1122.83,-82.32 1130.93,-75.48 1120.34,-75.77 1122.83,-82.32"/>
</a>
</g>
</g>
<!-- Node10 -->
<g id="Node000010" class="node">
<title>Node10</title>
<g id="a_Node000010"><a xlink:title=" ">
<polygon fill="#e0e0e0" stroke="#999999" points="812,-129.75 769,-129.75 769,-110.5 812,-110.5 812,-129.75"/>
<text xml:space="preserve" text-anchor="middle" x="790.5" y="-116.25" font-family="Helvetica,sans-Serif" font-size="10.00">cmath</text>
</a>
</g>
</g>
<!-- Node5&#45;&gt;Node10 -->
<g id="edge14_Node000005_Node000010" class="edge">
<title>Node5&#45;&gt;Node10</title>
<g id="a_edge14_Node000005_Node000010"><a xlink:title=" ">
<path fill="none" stroke="#63b8ff" d="M809.7,-165.58C806.76,-158.76 802.56,-149.06 798.85,-140.45"/>
<polygon fill="#63b8ff" stroke="#63b8ff" points="802.16,-139.29 794.98,-131.5 795.73,-142.07 802.16,-139.29"/>
</a>
</g>
</g>
<!-- Node6&#45;&gt;Node4 -->
<g id="edge7_Node000006_Node000004" class="edge">
<title>Node6&#45;&gt;Node4</title>
<g id="a_edge7_Node000006_Node000004"><a xlink:title=" ">
<path fill="none" stroke="#63b8ff" d="M875.82,-110.04C852.34,-102.82 821.37,-91.15 797.5,-74.5 779.65,-62.05 763.57,-42.94 753.07,-28.86"/>
<polygon fill="#63b8ff" stroke="#63b8ff" points="756.03,-26.98 747.36,-20.9 750.35,-31.07 756.03,-26.98"/>
</a>
</g>
</g>
<!-- Node6&#45;&gt;Node7 -->
<g id="edge8_Node000006_Node000007" class="edge">
<title>Node6&#45;&gt;Node7</title>
<g id="a_edge8_Node000006_Node000007"><a xlink:title=" ">
<path fill="none" stroke="#63b8ff" d="M952.51,-110.03C995.9,-100.64 1063.5,-86.01 1108.86,-76.19"/>
<polygon fill="#63b8ff" stroke="#63b8ff" points="1109.37,-79.66 1118.4,-74.12 1107.89,-72.82 1109.37,-79.66"/>
</a>
</g>
</g>
<!-- Node8 -->
<g id="Node000008" class="node">
<title>Node8</title>
<g id="a_Node000008"><a xlink:title=" ">
<polygon fill="#e0e0e0" stroke="#999999" points="1102.25,-74.5 952.75,-74.5 952.75,-55.25 1102.25,-55.25 1102.25,-74.5"/>
<text xml:space="preserve" text-anchor="middle" x="1027.5" y="-61" font-family="Helvetica,sans-Serif" font-size="10.00">DualTB9051FTGMotorShield.h</text>
</a>
</g>
</g>
<!-- Node6&#45;&gt;Node8 -->
<g id="edge10_Node000006_Node000008" class="edge">
<title>Node6&#45;&gt;Node8</title>
<g id="a_edge10_Node000006_Node000008"><a xlink:title=" ">
<path fill="none" stroke="#63b8ff" d="M930.35,-110.09C948.67,-101.75 976.15,-89.25 997.21,-79.66"/>
<polygon fill="#63b8ff" stroke="#63b8ff" points="998.53,-82.91 1006.18,-75.58 995.63,-76.54 998.53,-82.91"/>
</a>
</g>
</g>
<!-- Node9 -->
<g id="Node000009" class="node">
<title>Node9</title>
<g id="a_Node000009"><a xlink:href="_l298_n_motor_driver_mega_8h.html" target="_top" xlink:title=" ">
<polygon fill="white" stroke="#666666" points="934.38,-74.5 806.62,-74.5 806.62,-55.25 934.38,-55.25 934.38,-74.5"/>
<text xml:space="preserve" text-anchor="middle" x="870.5" y="-61" font-family="Helvetica,sans-Serif" font-size="10.00">L298NMotorDriverMega.h</text>
</a>
</g>
</g>
<!-- Node6&#45;&gt;Node9 -->
<g id="edge11_Node000006_Node000009" class="edge">
<title>Node6&#45;&gt;Node9</title>
<g id="a_edge11_Node000006_Node000009"><a xlink:title=" ">
<path fill="none" stroke="#63b8ff" d="M903.89,-110.33C898.54,-103.21 890.82,-92.93 884.15,-84.05"/>
<polygon fill="#63b8ff" stroke="#63b8ff" points="886.96,-81.96 878.16,-76.07 881.37,-86.17 886.96,-81.96"/>
</a>
</g>
</g>
<!-- Node7&#45;&gt;Node4 -->
<g id="edge9_Node000007_Node000004" class="edge">
<title>Node7&#45;&gt;Node4</title>
<g id="a_edge9_Node000007_Node000004"><a xlink:title=" ">
<path fill="none" stroke="#63b8ff" d="M1119.7,-56.61C1116.93,-56.12 1114.17,-55.67 1111.5,-55.25 991.52,-36.56 848.66,-21.34 780.52,-14.51"/>
<polygon fill="#63b8ff" stroke="#63b8ff" points="781.26,-11.07 770.96,-13.56 780.57,-18.04 781.26,-11.07"/>
</a>
</g>
</g>
<!-- Node9&#45;&gt;Node4 -->
<g id="edge12_Node000009_Node000004" class="edge">
<title>Node9&#45;&gt;Node4</title>
<g id="a_edge12_Node000009_Node000004"><a xlink:title=" ">
<path fill="none" stroke="#63b8ff" d="M848.45,-54.84C827.81,-46.39 796.72,-33.65 773.2,-24.02"/>
<polygon fill="#63b8ff" stroke="#63b8ff" points="774.64,-20.83 764.06,-20.28 771.99,-27.31 774.64,-20.83"/>
</a>
</g>
</g>
<!-- Node11&#45;&gt;Node4 -->
<g id="edge16_Node000011_Node000004" class="edge">
<title>Node11&#45;&gt;Node4</title>
<g id="a_edge16_Node000011_Node000004"><a xlink:title=" ">
<path fill="none" stroke="#63b8ff" d="M145.12,-56.55C149.99,-56.1 154.81,-55.66 159.5,-55.25 362.45,-37.4 605.64,-20.02 700.17,-13.41"/>
<polygon fill="#63b8ff" stroke="#63b8ff" points="700.22,-16.92 709.95,-12.73 699.73,-9.94 700.22,-16.92"/>
</a>
</g>
</g>
<!-- Node12 -->
<g id="Node000012" class="node">
<title>Node12</title>
<g id="a_Node000012"><a xlink:title=" ">
<polygon fill="#e0e0e0" stroke="#999999" points="102.25,-19.25 42.75,-19.25 42.75,0 102.25,0 102.25,-19.25"/>
<text xml:space="preserve" text-anchor="middle" x="72.5" y="-5.75" font-family="Helvetica,sans-Serif" font-size="10.00">Encoder.h</text>
</a>
</g>
</g>
<!-- Node11&#45;&gt;Node12 -->
<g id="edge17_Node000011_Node000012" class="edge">
<title>Node11&#45;&gt;Node12</title>
<g id="a_edge17_Node000011_Node000012"><a xlink:title=" ">
<path fill="none" stroke="#63b8ff" d="M72.5,-55.08C72.5,-48.57 72.5,-39.42 72.5,-31.12"/>
<polygon fill="#63b8ff" stroke="#63b8ff" points="76,-31.12 72.5,-21.12 69,-31.12 76,-31.12"/>
</a>
</g>
</g>
<!-- Node13&#45;&gt;Node4 -->
<g id="edge19_Node000013_Node000004" class="edge">
<title>Node13&#45;&gt;Node4</title>
<g id="a_edge19_Node000013_Node000004"><a xlink:title=" ">
<path fill="none" stroke="#63b8ff" d="M544.82,-165.44C558.07,-152.85 578.05,-129.31 566.5,-110.5 547.98,-80.35 514.02,-104.65 495.5,-74.5 491.02,-67.21 490.02,-61.82 495.5,-55.25 521.13,-24.53 637.75,-14.9 700.4,-11.93"/>
<polygon fill="#63b8ff" stroke="#63b8ff" points="700.46,-15.43 710.29,-11.5 700.15,-8.44 700.46,-15.43"/>
</a>
</g>
</g>
<!-- Node14 -->
<g id="Node000014" class="node">
<title>Node14</title>
<g id="a_Node000014"><a xlink:title=" ">
<polygon fill="#e0e0e0" stroke="#999999" points="557.12,-129.75 475.88,-129.75 475.88,-110.5 557.12,-110.5 557.12,-129.75"/>
<text xml:space="preserve" text-anchor="middle" x="516.5" y="-116.25" font-family="Helvetica,sans-Serif" font-size="10.00">QTRSensors.h</text>
</a>
</g>
</g>
<!-- Node13&#45;&gt;Node14 -->
<g id="edge20_Node000013_Node000014" class="edge">
<title>Node13&#45;&gt;Node14</title>
<g id="a_edge20_Node000013_Node000014"><a xlink:title=" ">
<path fill="none" stroke="#63b8ff" d="M531.53,-165.58C529.25,-158.84 526.01,-149.27 523.13,-140.74"/>
<polygon fill="#63b8ff" stroke="#63b8ff" points="526.54,-139.9 520.02,-131.54 519.91,-142.14 526.54,-139.9"/>
</a>
</g>
</g>
<!-- Node15&#45;&gt;Node4 -->
<g id="edge22_Node000015_Node000004" class="edge">
<title>Node15&#45;&gt;Node4</title>
<g id="a_edge22_Node000015_Node000004"><a xlink:title=" ">
<path fill="none" stroke="#63b8ff" d="M361.12,-110.07C381.43,-95.97 423.08,-68.97 462.5,-55.25 544,-26.88 645.31,-16.42 700.34,-12.65"/>
<polygon fill="#63b8ff" stroke="#63b8ff" points="700.41,-16.16 710.17,-12.03 699.97,-9.17 700.41,-16.16"/>
</a>
</g>
</g>
<!-- Node16&#45;&gt;Node11 -->
<g id="edge24_Node000016_Node000011" class="edge">
<title>Node16&#45;&gt;Node11</title>
<g id="a_edge24_Node000016_Node000011"><a xlink:title=" ">
<path fill="none" stroke="#63b8ff" d="M82.52,-110.33C81.03,-103.74 78.94,-94.46 77.05,-86.07"/>
<polygon fill="#63b8ff" stroke="#63b8ff" points="80.47,-85.32 74.86,-76.34 73.64,-86.86 80.47,-85.32"/>
</a>
</g>
</g>
<!-- Node17&#45;&gt;Node4 -->
<g id="edge26_Node000017_Node000004" class="edge">
<title>Node17&#45;&gt;Node4</title>
<g id="a_edge26_Node000017_Node000004"><a xlink:title=" ">
<path fill="none" stroke="#63b8ff" d="M142.7,-165.26C146.26,-142.28 159.01,-81.96 197.5,-55.25 238.54,-26.77 581.59,-14.91 700.28,-11.63"/>
<polygon fill="#63b8ff" stroke="#63b8ff" points="700.28,-15.13 710.18,-11.36 700.09,-8.13 700.28,-15.13"/>
</a>
</g>
</g>
<!-- Node17&#45;&gt;Node16 -->
<g id="edge27_Node000017_Node000016" class="edge">
<title>Node17&#45;&gt;Node16</title>
<g id="a_edge27_Node000017_Node000016"><a xlink:title=" ">
<path fill="none" stroke="#63b8ff" d="M131.83,-165.34C123.76,-157.8 112.03,-146.85 102.28,-137.73"/>
<polygon fill="#63b8ff" stroke="#63b8ff" points="104.83,-135.33 95.13,-131.06 100.05,-140.44 104.83,-135.33"/>
</a>
</g>
</g>
<!-- Node18&#45;&gt;Node4 -->
<g id="edge29_Node000018_Node000004" class="edge">
<title>Node18&#45;&gt;Node4</title>
<g id="a_edge29_Node000018_Node000004"><a xlink:title=" ">
<path fill="none" stroke="#63b8ff" d="M599.34,-54.84C627.18,-46.12 669.57,-32.84 700.64,-23.11"/>
<polygon fill="#63b8ff" stroke="#63b8ff" points="701.58,-26.48 710.08,-20.15 699.49,-19.8 701.58,-26.48"/>
</a>
</g>
</g>
<!-- Node19&#45;&gt;Node4 -->
<g id="edge31_Node000019_Node000004" class="edge">
<title>Node19&#45;&gt;Node4</title>
<g id="a_edge31_Node000019_Node000004"><a xlink:title=" ">
<path fill="none" stroke="#63b8ff" d="M686.1,-165.47C681.04,-144.92 671.14,-93.02 688.5,-55.25 693.96,-43.37 704.31,-33.47 714.35,-26.03"/>
<polygon fill="#63b8ff" stroke="#63b8ff" points="716.15,-29.04 722.46,-20.53 712.22,-23.25 716.15,-29.04"/>
</a>
</g>
</g>
<!-- Node20&#45;&gt;Node4 -->
<g id="edge33_Node000020_Node000004" class="edge">
<title>Node20&#45;&gt;Node4</title>
<g id="a_edge33_Node000020_Node000004"><a xlink:title=" ">
<path fill="none" stroke="#63b8ff" d="M779.47,-220.79C769.16,-197.48 742.19,-132.19 736.5,-74.5 735.06,-59.9 736.17,-43.38 737.58,-30.79"/>
<polygon fill="#63b8ff" stroke="#63b8ff" points="741,-31.61 738.82,-21.24 734.06,-30.71 741,-31.61"/>
</a>
</g>
</g>
<!-- Node20&#45;&gt;Node5 -->
<g id="edge40_Node000020_Node000005" class="edge">
<title>Node20&#45;&gt;Node5</title>
<g id="a_edge40_Node000020_Node000005"><a xlink:title=" ">
<path fill="none" stroke="#63b8ff" d="M788.45,-220.83C792.38,-213.86 798.01,-203.87 802.94,-195.12"/>
<polygon fill="#63b8ff" stroke="#63b8ff" points="805.84,-197.11 807.7,-186.68 799.74,-193.67 805.84,-197.11"/>
</a>
</g>
</g>
<!-- Node20&#45;&gt;Node7 -->
<g id="edge39_Node000020_Node000007" class="edge">
<title>Node20&#45;&gt;Node7</title>
<g id="a_edge39_Node000020_Node000007"><a xlink:title=" ">
<path fill="none" stroke="#63b8ff" d="M797.65,-220.65C822.51,-205 873.21,-173.64 892.5,-165.75 953.16,-140.93 974.31,-153.22 1035.5,-129.75 1054.27,-122.55 1101.09,-96.96 1130.68,-80.44"/>
<polygon fill="#63b8ff" stroke="#63b8ff" points="1132.39,-83.49 1139.4,-75.55 1128.97,-77.39 1132.39,-83.49"/>
</a>
</g>
</g>
<!-- Node20&#45;&gt;Node11 -->
<g id="edge38_Node000020_Node000011" class="edge">
<title>Node20&#45;&gt;Node11</title>
<g id="a_edge38_Node000020_Node000011"><a xlink:title=" ">
<path fill="none" stroke="#63b8ff" d="M725.9,-225.77C655.7,-220.29 533.77,-208.22 431.5,-185 308.26,-157.02 167.43,-103.79 105.11,-79.08"/>
<polygon fill="#63b8ff" stroke="#63b8ff" points="106.74,-75.97 96.15,-75.51 104.15,-82.47 106.74,-75.97"/>
</a>
</g>
</g>
<!-- Node20&#45;&gt;Node19 -->
<g id="edge34_Node000020_Node000019" class="edge">
<title>Node20&#45;&gt;Node19</title>
<g id="a_edge34_Node000020_Node000019"><a xlink:title=" ">
<path fill="none" stroke="#63b8ff" d="M767.38,-220.59C752.92,-212.48 731.42,-200.43 714.52,-190.96"/>
<polygon fill="#63b8ff" stroke="#63b8ff" points="716.45,-188.03 706.01,-186.19 713.03,-194.14 716.45,-188.03"/>
</a>
</g>
</g>
<!-- Node21 -->
<g id="Node000021" class="node">
<title>Node21</title>
<g id="a_Node000021"><a xlink:href="_servo_control_8hpp.html" target="_top" xlink:title="Buffered servo wrapper that defers writes until update() is called.">
<polygon fill="white" stroke="#666666" points="1031.88,-185 901.12,-185 901.12,-165.75 1031.88,-165.75 1031.88,-185"/>
<text xml:space="preserve" text-anchor="middle" x="966.5" y="-171.5" font-family="Helvetica,sans-Serif" font-size="10.00">Devices/ServoControl.hpp</text>
</a>
</g>
</g>
<!-- Node20&#45;&gt;Node21 -->
<g id="edge35_Node000020_Node000021" class="edge">
<title>Node20&#45;&gt;Node21</title>
<g id="a_edge35_Node000020_Node000021"><a xlink:title=" ">
<path fill="none" stroke="#63b8ff" d="M814.54,-220.59C844.78,-211.79 890.95,-198.36 924.47,-188.61"/>
<polygon fill="#63b8ff" stroke="#63b8ff" points="925.23,-192.03 933.85,-185.88 923.27,-185.31 925.23,-192.03"/>
</a>
</g>
</g>
<!-- Node23 -->
<g id="Node000023" class="node">
<title>Node23</title>
<g id="a_Node000023"><a xlink:href="_solenoid_8hpp.html" target="_top" xlink:title="Simple digital solenoid driver (currently unused in primary code path).">
<polygon fill="white" stroke="#666666" points="1161.12,-185 1049.88,-185 1049.88,-165.75 1161.12,-165.75 1161.12,-185"/>
<text xml:space="preserve" text-anchor="middle" x="1105.5" y="-171.5" font-family="Helvetica,sans-Serif" font-size="10.00">Devices/Solenoid.hpp</text>
</a>
</g>
</g>
<!-- Node20&#45;&gt;Node23 -->
<g id="edge41_Node000020_Node000023" class="edge">
<title>Node20&#45;&gt;Node23</title>
<g id="a_edge41_Node000020_Node000023"><a xlink:title=" ">
<path fill="none" stroke="#63b8ff" d="M838.49,-220.53C894.09,-211.34 980.06,-197.12 1039.35,-187.31"/>
<polygon fill="#63b8ff" stroke="#63b8ff" points="1039.68,-190.81 1048.98,-185.72 1038.54,-183.9 1039.68,-190.81"/>
</a>
</g>
</g>
<!-- Node21&#45;&gt;Node4 -->
<g id="edge36_Node000021_Node000004" class="edge">
<title>Node21&#45;&gt;Node4</title>
<g id="a_edge36_Node000021_Node000004"><a xlink:title=" ">
<path fill="none" stroke="#63b8ff" d="M1032.33,-165.33C1082.27,-157.45 1145.89,-144.93 1167.5,-129.75 1197.44,-108.72 1227.09,-82.33 1202.5,-55.25 1174.37,-24.27 887.74,-14.19 780.61,-11.48"/>
<polygon fill="#63b8ff" stroke="#63b8ff" points="780.93,-7.99 770.85,-11.25 780.76,-14.99 780.93,-7.99"/>
</a>
</g>
</g>
<!-- Node22 -->
<g id="Node000022" class="node">
<title>Node22</title>
<g id="a_Node000022"><a xlink:title=" ">
<polygon fill="#e0e0e0" stroke="#999999" points="1158.75,-129.75 1084.25,-129.75 1084.25,-110.5 1158.75,-110.5 1158.75,-129.75"/>
<text xml:space="preserve" text-anchor="middle" x="1121.5" y="-116.25" font-family="Helvetica,sans-Serif" font-size="10.00">PWMServo.h</text>
</a>
</g>
</g>
<!-- Node21&#45;&gt;Node22 -->
<g id="edge37_Node000021_Node000022" class="edge">
<title>Node21&#45;&gt;Node22</title>
<g id="a_edge37_Node000021_Node000022"><a xlink:title=" ">
<path fill="none" stroke="#63b8ff" d="M992.79,-165.34C1017.96,-156.7 1056.15,-143.57 1084.41,-133.87"/>
<polygon fill="#63b8ff" stroke="#63b8ff" points="1085.33,-137.25 1093.65,-130.69 1083.05,-130.63 1085.33,-137.25"/>
</a>
</g>
</g>
<!-- Node23&#45;&gt;Node4 -->
<g id="edge42_Node000023_Node000004" class="edge">
<title>Node23&#45;&gt;Node4</title>
<g id="a_edge42_Node000023_Node000004"><a xlink:title=" ">
<path fill="none" stroke="#63b8ff" d="M1133.7,-165.33C1152.52,-158.13 1176.79,-146.47 1193.5,-129.75 1218.51,-104.73 1245.33,-81.39 1221.5,-55.25 1192.03,-22.92 891.08,-13.65 780.76,-11.32"/>
<polygon fill="#63b8ff" stroke="#63b8ff" points="781.06,-7.83 770.99,-11.13 780.92,-14.83 781.06,-7.83"/>
</a>
</g>
</g>
<!-- Node24&#45;&gt;Node4 -->
<g id="edge44_Node000024_Node000004" class="edge">
<title>Node24&#45;&gt;Node4</title>
<g id="a_edge44_Node000024_Node000004"><a xlink:title=" ">
<path fill="none" stroke="#63b8ff" d="M1097.85,-229.2C1166.22,-226.94 1278.21,-217.91 1368.5,-185 1436.9,-160.07 1518.38,-108.28 1468.5,-55.25 1444.77,-30.02 929.69,-15.32 780.6,-11.58"/>
<polygon fill="#63b8ff" stroke="#63b8ff" points="780.9,-8.09 770.82,-11.34 780.73,-15.08 780.9,-8.09"/>
</a>
</g>
</g>
<!-- Node24&#45;&gt;Node5 -->
<g id="edge49_Node000024_Node000005" class="edge">
<title>Node24&#45;&gt;Node5</title>
<g id="a_edge49_Node000024_Node000005"><a xlink:title=" ">
<path fill="none" stroke="#63b8ff" d="M997.59,-220.53C958.42,-211.14 897.4,-196.5 856.47,-186.68"/>
<polygon fill="#63b8ff" stroke="#63b8ff" points="857.51,-183.33 846.96,-184.4 855.87,-190.14 857.51,-183.33"/>
</a>
</g>
</g>
<!-- Node24&#45;&gt;Node7 -->
<g id="edge48_Node000024_Node000007" class="edge">
<title>Node24&#45;&gt;Node7</title>
<g id="a_edge48_Node000024_Node000007"><a xlink:title=" ">
<path fill="none" stroke="#63b8ff" d="M1097.77,-224.94C1124.69,-219.45 1153.8,-208.11 1170.5,-185 1191.87,-155.43 1177.44,-110.55 1166.2,-85.16"/>
<polygon fill="#63b8ff" stroke="#63b8ff" points="1169.47,-83.91 1162.04,-76.36 1163.14,-86.9 1169.47,-83.91"/>
</a>
</g>
</g>
<!-- Node24&#45;&gt;Node11 -->
<g id="edge47_Node000024_Node000011" class="edge">
<title>Node24&#45;&gt;Node11</title>
<g id="a_edge47_Node000024_Node000011"><a xlink:title=" ">
<path fill="none" stroke="#63b8ff" d="M973.03,-226.41C829.19,-218.78 485.24,-199.17 464.5,-185 434.13,-164.26 458.37,-131.95 428.5,-110.5 386.28,-80.19 247.85,-70.43 156.57,-67.31"/>
<polygon fill="#63b8ff" stroke="#63b8ff" points="156.75,-63.82 146.64,-67 156.52,-70.81 156.75,-63.82"/>
</a>
</g>
</g>
<!-- Node24&#45;&gt;Node19 -->
<g id="edge45_Node000024_Node000019" class="edge">
<title>Node24&#45;&gt;Node19</title>
<g id="a_edge45_Node000024_Node000019"><a xlink:title=" ">
<path fill="none" stroke="#63b8ff" d="M976.24,-220.53C908.64,-210.16 799.37,-193.39 736.74,-183.78"/>
<polygon fill="#63b8ff" stroke="#63b8ff" points="737.52,-180.36 727.1,-182.3 736.46,-187.28 737.52,-180.36"/>
</a>
</g>
</g>
<!-- Node24&#45;&gt;Node21 -->
<g id="edge46_Node000024_Node000021" class="edge">
<title>Node24&#45;&gt;Node21</title>
<g id="a_edge46_Node000024_Node000021"><a xlink:title=" ">
<path fill="none" stroke="#63b8ff" d="M1023.8,-220.59C1013.72,-212.82 998.96,-201.42 986.94,-192.15"/>
<polygon fill="#63b8ff" stroke="#63b8ff" points="989.29,-189.54 979.23,-186.2 985.01,-195.08 989.29,-189.54"/>
</a>
</g>
</g>
<!-- Node24&#45;&gt;Node23 -->
<g id="edge50_Node000024_Node000023" class="edge">
<title>Node24&#45;&gt;Node23</title>
<g id="a_edge50_Node000024_Node000023"><a xlink:title=" ">
<path fill="none" stroke="#63b8ff" d="M1047.37,-220.59C1057.59,-212.82 1072.57,-201.42 1084.76,-192.15"/>
<polygon fill="#63b8ff" stroke="#63b8ff" points="1086.76,-195.03 1092.6,-186.19 1082.52,-189.46 1086.76,-195.03"/>
</a>
</g>
</g>
<!-- Node25 -->
<g id="Node000025" class="node">
<title>Node25</title>
<g id="a_Node000025"><a xlink:href="_motor_controller_8hpp.html" target="_top" xlink:title="Unified single&#45;channel motor controller supporting TB9051FTG and L298N drivers.">
<polygon fill="white" stroke="#666666" points="1430.38,-129.75 1290.62,-129.75 1290.62,-110.5 1430.38,-110.5 1430.38,-129.75"/>
<text xml:space="preserve" text-anchor="middle" x="1360.5" y="-116.25" font-family="Helvetica,sans-Serif" font-size="10.00">Devices/MotorController.hpp</text>
</a>
</g>
</g>
<!-- Node24&#45;&gt;Node25 -->
<g id="edge51_Node000024_Node000025" class="edge">
<title>Node24&#45;&gt;Node25</title>
<g id="a_edge51_Node000024_Node000025"><a xlink:title=" ">
<path fill="none" stroke="#63b8ff" d="M1075.29,-220.56C1109.6,-212.39 1160.29,-199.46 1203.5,-185 1248.43,-169.96 1298.95,-148.57 1330.25,-134.77"/>
<polygon fill="#63b8ff" stroke="#63b8ff" points="1331.38,-138.1 1339.1,-130.84 1328.54,-131.7 1331.38,-138.1"/>
</a>
</g>
</g>
<!-- Node26 -->
<g id="Node000026" class="node">
<title>Node26</title>
<g id="a_Node000026"><a xlink:href="_button_8hpp.html" target="_top" xlink:title="Simple digital button (or limit&#45;switch) driver.">
<polygon fill="white" stroke="#666666" points="1459.62,-74.5 1357.38,-74.5 1357.38,-55.25 1459.62,-55.25 1459.62,-74.5"/>
<text xml:space="preserve" text-anchor="middle" x="1408.5" y="-61" font-family="Helvetica,sans-Serif" font-size="10.00">Devices/Button.hpp</text>
</a>
</g>
</g>
<!-- Node24&#45;&gt;Node26 -->
<g id="edge54_Node000024_Node000026" class="edge">
<title>Node24&#45;&gt;Node26</title>
<g id="a_edge54_Node000024_Node000026"><a xlink:title=" ">
<path fill="none" stroke="#63b8ff" d="M1097.6,-223.64C1200.37,-212.3 1398.56,-183.83 1439.5,-129.75 1450.49,-115.24 1438.49,-96.22 1426.36,-82.72"/>
<polygon fill="#63b8ff" stroke="#63b8ff" points="1429.15,-80.56 1419.67,-75.83 1424.13,-85.44 1429.15,-80.56"/>
</a>
</g>
</g>
<!-- Node25&#45;&gt;Node4 -->
<g id="edge52_Node000025_Node000004" class="edge">
<title>Node25&#45;&gt;Node4</title>
<g id="a_edge52_Node000025_Node000004"><a xlink:title=" ">
<path fill="none" stroke="#63b8ff" d="M1352.23,-110.15C1338.24,-95.65 1308.31,-67.46 1276.5,-55.25 1185.97,-20.49 889.48,-12.76 780.85,-11.08"/>
<polygon fill="#63b8ff" stroke="#63b8ff" points="781.01,-7.58 770.96,-10.94 780.91,-14.58 781.01,-7.58"/>
</a>
</g>
</g>
<!-- Node25&#45;&gt;Node7 -->
<g id="edge53_Node000025_Node000007" class="edge">
<title>Node25&#45;&gt;Node7</title>
<g id="a_edge53_Node000025_Node000007"><a xlink:title=" ">
<path fill="none" stroke="#63b8ff" d="M1325.89,-110.09C1291.9,-101.22 1239.82,-87.62 1202.39,-77.85"/>
<polygon fill="#63b8ff" stroke="#63b8ff" points="1203.3,-74.47 1192.74,-75.33 1201.53,-81.25 1203.3,-74.47"/>
</a>
</g>
</g>
<!-- Node26&#45;&gt;Node4 -->
<g id="edge55_Node000026_Node000004" class="edge">
<title>Node26&#45;&gt;Node4</title>
<g id="a_edge55_Node000026_Node000004"><a xlink:title=" ">
<path fill="none" stroke="#63b8ff" d="M1356.99,-58.37C1346.26,-57.29 1335.01,-56.19 1324.5,-55.25 1120.29,-36.97 875.49,-19.8 780.71,-13.33"/>
<polygon fill="#63b8ff" stroke="#63b8ff" points="781.11,-9.85 770.9,-12.67 780.64,-16.84 781.11,-9.85"/>
</a>
</g>
</g>
</g>
</svg>
