<?xml version="1.0" encoding="UTF-8" standalone="no"?>
<!DOCTYPE svg PUBLIC "-//W3C//DTD SVG 1.1//EN"
 "http://www.w3.org/Graphics/SVG/1.1/DTD/svg11.dtd">
<!-- Generated by graphviz version 14.1.2 (20260124.0452)
 -->
<!-- Title: src/Devices/MotorController.hpp Pages: 1 -->
<svg width="635pt" height="271pt"
 viewBox="0.00 0.00 635.00 271.00" xmlns="http://www.w3.org/2000/svg" xmlns:xlink="http://www.w3.org/1999/xlink">
<g id="graph0" class="graph" transform="scale(1 1) rotate(0) translate(4 266.75)">
<title>src/Devices/MotorController.hpp</title>
<!-- Node1 -->
<g id="Node000001" class="node">
<title>Node1</title>
<g id="a_Node000001"><a xlink:title="Unified single&#45;channel motor controller supporting TB9051FTG and L298N drivers.">
<polygon fill="#999999" stroke="#666666" points="156.25,-262.75 0,-262.75 0,-243.5 156.25,-243.5 156.25,-262.75"/>
<text xml:space="preserve" text-anchor="middle" x="78.12" y="-249.25" font-family="Helvetica,sans-Serif" font-size="10.00">src/Devices/MotorController.hpp</text>
</a>
</g>
</g>
<!-- Node2 -->
<g id="Node000002" class="node">
<title>Node2</title>
<g id="a_Node000002"><a xlink:href="_robot_8hpp.html" target="_top" xlink:title="Top&#45;level robot class that owns all subsystems and the autonomous scheduler.">
<polygon fill="white" stroke="#666666" points="245.88,-85.75 168.38,-85.75 168.38,-66.5 245.88,-66.5 245.88,-85.75"/>
<text xml:space="preserve" text-anchor="middle" x="207.12" y="-72.25" font-family="Helvetica,sans-Serif" font-size="10.00">src/Robot.hpp</text>
</a>
</g>
</g>
<!-- Node1&#45;&gt;Node2 -->
<g id="edge1_Node000001_Node000002" class="edge">
<title>Node1&#45;&gt;Node2</title>
<g id="a_edge1_Node000001_Node000002"><a xlink:title=" ">
<path fill="none" stroke="#63b8ff" d="M68.38,-232.92C55.97,-205.45 38.88,-154.65 63.12,-121.75 87.04,-89.3 134.29,-79.75 168.15,-77.28"/>
<polygon fill="#63b8ff" stroke="#63b8ff" points="65.15,-234.27 72.62,-241.78 71.46,-231.24 65.15,-234.27"/>
</a>
</g>
</g>
<!-- Node5 -->
<g id="Node000005" class="node">
<title>Node5</title>
<g id="a_Node000005"><a xlink:href="_shooter_8hpp.html" target="_top" xlink:title="Rack&#45;and&#45;pinion block shooter subsystem.">
<polygon fill="white" stroke="#666666" points="277.38,-207.5 136.88,-207.5 136.88,-188.25 277.38,-188.25 277.38,-207.5"/>
<text xml:space="preserve" text-anchor="middle" x="207.12" y="-194" font-family="Helvetica,sans-Serif" font-size="10.00">src/subsystems/Shooter.hpp</text>
</a>
</g>
</g>
<!-- Node1&#45;&gt;Node5 -->
<g id="edge4_Node000001_Node000005" class="edge">
<title>Node1&#45;&gt;Node5</title>
<g id="a_edge4_Node000001_Node000005"><a xlink:title=" ">
<path fill="none" stroke="#63b8ff" d="M110.45,-238.78C133.76,-229.16 164.62,-216.42 185.13,-207.95"/>
<polygon fill="#63b8ff" stroke="#63b8ff" points="109.32,-235.46 101.41,-242.51 111.99,-241.93 109.32,-235.46"/>
</a>
</g>
</g>
<!-- Node3 -->
<g id="Node000003" class="node">
<title>Node3</title>
<g id="a_Node000003"><a xlink:href="_strategy_controller_step_8hpp.html" target="_top" xlink:title="High&#45;level AutoStep that runs the full strategy loop inline.">
<polygon fill="white" stroke="#666666" points="214.5,-30.5 77.75,-30.5 77.75,0 214.5,0 214.5,-30.5"/>
<text xml:space="preserve" text-anchor="start" x="85.75" y="-17" font-family="Helvetica,sans-Serif" font-size="10.00">src/Autonomous/Steps</text>
<text xml:space="preserve" text-anchor="middle" x="146.12" y="-5.75" font-family="Helvetica,sans-Serif" font-size="10.00">/StrategyControllerStep.hpp</text>
</a>
</g>
</g>
<!-- Node2&#45;&gt;Node3 -->
<g id="edge2_Node000002_Node000003" class="edge">
<title>Node2&#45;&gt;Node3</title>
<g id="a_edge2_Node000002_Node000003"><a xlink:title=" ">
<path fill="none" stroke="#63b8ff" d="M189.64,-58.25C180.65,-49.57 169.8,-39.1 161.18,-30.78"/>
<polygon fill="#63b8ff" stroke="#63b8ff" points="187.15,-60.71 196.77,-65.13 192.01,-55.67 187.15,-60.71"/>
</a>
</g>
</g>
<!-- Node4 -->
<g id="Node000004" class="node">
<title>Node4</title>
<g id="a_Node000004"><a xlink:href="main_8cpp.html" target="_top" xlink:title="Arduino entry point — instantiates the Robot and drives the main loop.">
<polygon fill="white" stroke="#666666" points="305.25,-24.88 233,-24.88 233,-5.63 305.25,-5.63 305.25,-24.88"/>
<text xml:space="preserve" text-anchor="middle" x="269.12" y="-11.38" font-family="Helvetica,sans-Serif" font-size="10.00">src/main.cpp</text>
</a>
</g>
</g>
<!-- Node2&#45;&gt;Node4 -->
<g id="edge3_Node000002_Node000004" class="edge">
<title>Node2&#45;&gt;Node4</title>
<g id="a_edge3_Node000002_Node000004"><a xlink:title=" ">
<path fill="none" stroke="#63b8ff" d="M224.84,-58.3C236.16,-47.55 250.39,-34.04 259.62,-25.28"/>
<polygon fill="#63b8ff" stroke="#63b8ff" points="222.48,-55.72 217.64,-65.14 227.3,-60.79 222.48,-55.72"/>
</a>
</g>
</g>
<!-- Node5&#45;&gt;Node2 -->
<g id="edge14_Node000005_Node000002" class="edge">
<title>Node5&#45;&gt;Node2</title>
<g id="a_edge14_Node000005_Node000002"><a xlink:title=" ">
<path fill="none" stroke="#63b8ff" d="M125.56,-186.9C105.21,-180.33 85.64,-169.62 73.12,-152.25 45.67,-114.17 119.3,-92.94 168,-83.39"/>
<polygon fill="#63b8ff" stroke="#63b8ff" points="124.54,-190.25 135.12,-189.64 126.47,-183.52 124.54,-190.25"/>
</a>
</g>
</g>
<!-- Node6 -->
<g id="Node000006" class="node">
<title>Node6</title>
<g id="a_Node000006"><a xlink:href="_planner_8hpp.html" target="_top" xlink:title="High&#45;level autonomous planner used with ReplanStep.">
<polygon fill="white" stroke="#666666" points="626.75,-146.62 485.5,-146.62 485.5,-127.38 626.75,-127.38 626.75,-146.62"/>
<text xml:space="preserve" text-anchor="middle" x="556.12" y="-133.12" font-family="Helvetica,sans-Serif" font-size="10.00">src/Autonomous/Planner.hpp</text>
</a>
</g>
</g>
<!-- Node5&#45;&gt;Node6 -->
<g id="edge5_Node000005_Node000006" class="edge">
<title>Node5&#45;&gt;Node6</title>
<g id="a_edge5_Node000005_Node000006"><a xlink:title=" ">
<path fill="none" stroke="#63b8ff" d="M275.07,-185.93C329.7,-177.06 408.39,-164.13 477.12,-152.25 486.6,-150.61 496.71,-148.82 506.42,-147.08"/>
<polygon fill="#63b8ff" stroke="#63b8ff" points="274.6,-182.46 265.29,-187.51 275.72,-189.37 274.6,-182.46"/>
</a>
</g>
</g>
<!-- Node8 -->
<g id="Node000008" class="node">
<title>Node8</title>
<g id="a_Node000008"><a xlink:href="_delay_step_8hpp.html" target="_top" xlink:title="AutoStep that blocks for a fixed number of milliseconds.">
<polygon fill="white" stroke="#666666" points="198,-152.25 82.25,-152.25 82.25,-121.75 198,-121.75 198,-152.25"/>
<text xml:space="preserve" text-anchor="start" x="90.25" y="-138.75" font-family="Helvetica,sans-Serif" font-size="10.00">src/Autonomous/Steps</text>
<text xml:space="preserve" text-anchor="middle" x="140.12" y="-127.5" font-family="Helvetica,sans-Serif" font-size="10.00">/DelayStep.hpp</text>
</a>
</g>
</g>
<!-- Node5&#45;&gt;Node8 -->
<g id="edge8_Node000005_Node000008" class="edge">
<title>Node5&#45;&gt;Node8</title>
<g id="a_edge8_Node000005_Node000008"><a xlink:title=" ">
<path fill="none" stroke="#63b8ff" d="M188.53,-180.54C178.54,-171.76 166.32,-161.02 156.66,-152.53"/>
<polygon fill="#63b8ff" stroke="#63b8ff" points="185.99,-182.96 195.81,-186.93 190.61,-177.7 185.99,-182.96"/>
</a>
</g>
</g>
<!-- Node9 -->
<g id="Node000009" class="node">
<title>Node9</title>
<g id="a_Node000009"><a xlink:href="_fire_step_8hpp.html" target="_top" xlink:title="AutoStep that fires the shooter for a fixed duration, then stops it.">
<polygon fill="white" stroke="#666666" points="332,-152.25 216.25,-152.25 216.25,-121.75 332,-121.75 332,-152.25"/>
<text xml:space="preserve" text-anchor="start" x="224.25" y="-138.75" font-family="Helvetica,sans-Serif" font-size="10.00">src/Autonomous/Steps</text>
<text xml:space="preserve" text-anchor="middle" x="274.12" y="-127.5" font-family="Helvetica,sans-Serif" font-size="10.00">/FireStep.hpp</text>
</a>
</g>
</g>
<!-- Node5&#45;&gt;Node9 -->
<g id="edge10_Node000005_Node000009" class="edge">
<title>Node5&#45;&gt;Node9</title>
<g id="a_edge10_Node000005_Node000009"><a xlink:title=" ">
<path fill="none" stroke="#63b8ff" d="M225.72,-180.54C235.71,-171.76 247.93,-161.02 257.59,-152.53"/>
<polygon fill="#63b8ff" stroke="#63b8ff" points="223.64,-177.7 218.44,-186.93 228.26,-182.96 223.64,-177.7"/>
</a>
</g>
</g>
<!-- Node10 -->
<g id="Node000010" class="node">
<title>Node10</title>
<g id="a_Node000010"><a xlink:href="_mine_block_autofire_8hpp.html" target="_top" xlink:title="AutoStep that mines and simultaneously autofires the shooter for a time window.">
<polygon fill="white" stroke="#666666" points="467.75,-152.25 350.5,-152.25 350.5,-121.75 467.75,-121.75 467.75,-152.25"/>
<text xml:space="preserve" text-anchor="start" x="358.5" y="-138.75" font-family="Helvetica,sans-Serif" font-size="10.00">src/Autonomous/Steps</text>
<text xml:space="preserve" text-anchor="middle" x="409.12" y="-127.5" font-family="Helvetica,sans-Serif" font-size="10.00">/MineBlockAutofire.hpp</text>
</a>
</g>
</g>
<!-- Node5&#45;&gt;Node10 -->
<g id="edge12_Node000005_Node000010" class="edge">
<title>Node5&#45;&gt;Node10</title>
<g id="a_edge12_Node000005_Node000010"><a xlink:title=" ">
<path fill="none" stroke="#63b8ff" d="M248.98,-184.68C280.86,-175.38 324.89,-162.55 358.71,-152.69"/>
<polygon fill="#63b8ff" stroke="#63b8ff" points="248.32,-181.22 239.7,-187.38 250.28,-187.94 248.32,-181.22"/>
</a>
</g>
</g>
<!-- Node6&#45;&gt;Node2 -->
<g id="edge7_Node000006_Node000002" class="edge">
<title>Node6&#45;&gt;Node2</title>
<g id="a_edge7_Node000006_Node000002"><a xlink:title=" ">
<path fill="none" stroke="#63b8ff" d="M495.38,-124.95C489.22,-123.86 483.05,-122.77 477.12,-121.75 394.96,-107.55 298.56,-91.85 246.05,-83.38"/>
<polygon fill="#63b8ff" stroke="#63b8ff" points="494.47,-128.34 504.93,-126.65 495.7,-121.45 494.47,-128.34"/>
</a>
</g>
</g>
<!-- Node7 -->
<g id="Node000007" class="node">
<title>Node7</title>
<g id="a_Node000007"><a xlink:href="_planner_8cpp.html" target="_top" xlink:title="Implementation of the autonomous Planner state machine.">
<polygon fill="white" stroke="#666666" points="626.75,-85.75 485.5,-85.75 485.5,-66.5 626.75,-66.5 626.75,-85.75"/>
<text xml:space="preserve" text-anchor="middle" x="556.12" y="-72.25" font-family="Helvetica,sans-Serif" font-size="10.00">src/Autonomous/Planner.cpp</text>
</a>
</g>
</g>
<!-- Node6&#45;&gt;Node7 -->
<g id="edge6_Node000006_Node000007" class="edge">
<title>Node6&#45;&gt;Node7</title>
<g id="a_edge6_Node000006_Node000007"><a xlink:title=" ">
<path fill="none" stroke="#63b8ff" d="M556.12,-115.57C556.12,-105.54 556.12,-93.96 556.12,-86.15"/>
<polygon fill="#63b8ff" stroke="#63b8ff" points="552.63,-115.54 556.13,-125.54 559.63,-115.54 552.63,-115.54"/>
</a>
</g>
</g>
<!-- Node8&#45;&gt;Node2 -->
<g id="edge9_Node000008_Node000002" class="edge">
<title>Node8&#45;&gt;Node2</title>
<g id="a_edge9_Node000008_Node000002"><a xlink:title=" ">
<path fill="none" stroke="#63b8ff" d="M165.11,-114.05C176.08,-104.4 188.36,-93.61 196.8,-86.2"/>
<polygon fill="#63b8ff" stroke="#63b8ff" points="163.03,-111.22 157.82,-120.45 167.65,-116.48 163.03,-111.22"/>
</a>
</g>
</g>
<!-- Node9&#45;&gt;Node2 -->
<g id="edge11_Node000009_Node000002" class="edge">
<title>Node9&#45;&gt;Node2</title>
<g id="a_edge11_Node000009_Node000002"><a xlink:title=" ">
<path fill="none" stroke="#63b8ff" d="M249.14,-114.05C238.17,-104.4 225.89,-93.61 217.45,-86.2"/>
<polygon fill="#63b8ff" stroke="#63b8ff" points="246.6,-116.48 256.43,-120.45 251.22,-111.22 246.6,-116.48"/>
</a>
</g>
</g>
<!-- Node10&#45;&gt;Node2 -->
<g id="edge13_Node000010_Node000002" class="edge">
<title>Node10&#45;&gt;Node2</title>
<g id="a_edge13_Node000010_Node000002"><a xlink:title=" ">
<path fill="none" stroke="#63b8ff" d="M347.75,-118.11C311.63,-107.58 267.48,-94.72 238.4,-86.24"/>
<polygon fill="#63b8ff" stroke="#63b8ff" points="346.64,-121.43 357.22,-120.87 348.6,-114.71 346.64,-121.43"/>
</a>
</g>
</g>
</g>
</svg>
