<?xml version="1.0" encoding="UTF-8" standalone="no"?>
<!DOCTYPE svg PUBLIC "-//W3C//DTD SVG 1.1//EN"
 "http://www.w3.org/Graphics/SVG/1.1/DTD/svg11.dtd">
<!-- Generated by graphviz version 14.1.2 (20260124.0452)
 -->
<!-- Title: src/utils/Odometry.hpp Pages: 1 -->
<svg width="153pt" height="138pt"
 viewBox="0.00 0.00 153.00 138.00" xmlns="http://www.w3.org/2000/svg" xmlns:xlink="http://www.w3.org/1999/xlink">
<g id="graph0" class="graph" transform="scale(1 1) rotate(0) translate(4 133.75)">
<title>src/utils/Odometry.hpp</title>
<!-- Node1 -->
<g id="Node000001" class="node">
<title>Node1</title>
<g id="a_Node000001"><a xlink:title="Differential&#45;drive pose tracker using wheel&#45;encoder odometry.">
<polygon fill="#999999" stroke="#666666" points="129.25,-129.75 15.75,-129.75 15.75,-110.5 129.25,-110.5 129.25,-129.75"/>
<text xml:space="preserve" text-anchor="middle" x="72.5" y="-116.25" font-family="Helvetica,sans-Serif" font-size="10.00">src/utils/Odometry.hpp</text>
</a>
</g>
</g>
<!-- Node2 -->
<g id="Node000002" class="node">
<title>Node2</title>
<g id="a_Node000002"><a xlink:href="_encoder_wrapper_8hpp.html" target="_top" xlink:title="Quadrature encoder wrapper providing position, velocity, and acceleration.">
<polygon fill="white" stroke="#666666" points="145,-74.5 0,-74.5 0,-55.25 145,-55.25 145,-74.5"/>
<text xml:space="preserve" text-anchor="middle" x="72.5" y="-61" font-family="Helvetica,sans-Serif" font-size="10.00">Devices/EncoderWrapper.hpp</text>
</a>
</g>
</g>
<!-- Node1&#45;&gt;Node2 -->
<g id="edge1_Node000001_Node000002" class="edge">
<title>Node1&#45;&gt;Node2</title>
<g id="a_edge1_Node000001_Node000002"><a xlink:title=" ">
<path fill="none" stroke="#63b8ff" d="M72.5,-110.33C72.5,-103.82 72.5,-94.67 72.5,-86.37"/>
<polygon fill="#63b8ff" stroke="#63b8ff" points="76,-86.37 72.5,-76.37 69,-86.37 76,-86.37"/>
</a>
</g>
</g>
<!-- Node3 -->
<g id="Node000003" class="node">
<title>Node3</title>
<g id="a_Node000003"><a xlink:title=" ">
<polygon fill="#e0e0e0" stroke="#999999" points="63.12,-19.25 5.88,-19.25 5.88,0 63.12,0 63.12,-19.25"/>
<text xml:space="preserve" text-anchor="middle" x="34.5" y="-5.75" font-family="Helvetica,sans-Serif" font-size="10.00">Arduino.h</text>
</a>
</g>
</g>
<!-- Node2&#45;&gt;Node3 -->
<g id="edge2_Node000002_Node000003" class="edge">
<title>Node2&#45;&gt;Node3</title>
<g id="a_edge2_Node000002_Node000003"><a xlink:title=" ">
<path fill="none" stroke="#63b8ff" d="M66.23,-55.08C61.14,-47.96 53.8,-37.68 47.47,-28.8"/>
<polygon fill="#63b8ff" stroke="#63b8ff" points="50.45,-26.95 41.79,-20.84 44.75,-31.01 50.45,-26.95"/>
</a>
</g>
</g>
<!-- Node4 -->
<g id="Node000004" class="node">
<title>Node4</title>
<g id="a_Node000004"><a xlink:title=" ">
<polygon fill="#e0e0e0" stroke="#999999" points="140.25,-19.25 80.75,-19.25 80.75,0 140.25,0 140.25,-19.25"/>
<text xml:space="preserve" text-anchor="middle" x="110.5" y="-5.75" font-family="Helvetica,sans-Serif" font-size="10.00">Encoder.h</text>
</a>
</g>
</g>
<!-- Node2&#45;&gt;Node4 -->
<g id="edge3_Node000002_Node000004" class="edge">
<title>Node2&#45;&gt;Node4</title>
<g id="a_edge3_Node000002_Node000004"><a xlink:title=" ">
<path fill="none" stroke="#63b8ff" d="M78.77,-55.08C83.86,-47.96 91.2,-37.68 97.53,-28.8"/>
<polygon fill="#63b8ff" stroke="#63b8ff" points="100.25,-31.01 103.21,-20.84 94.55,-26.95 100.25,-31.01"/>
</a>
</g>
</g>
</g>
</svg>
