<?xml version="1.0" encoding="UTF-8" standalone="no"?>
<!DOCTYPE svg PUBLIC "-//W3C//DTD SVG 1.1//EN"
 "http://www.w3.org/Graphics/SVG/1.1/DTD/svg11.dtd">
<!-- Generated by graphviz version 14.1.2 (20260124.0452)
 -->
<!-- Title: src/Autonomous/Steps/ParallelStep.hpp Pages: 1 -->
<svg width="192pt" height="94pt"
 viewBox="0.00 0.00 192.00 94.00" xmlns="http://www.w3.org/2000/svg" xmlns:xlink="http://www.w3.org/1999/xlink">
<g id="graph0" class="graph" transform="scale(1 1) rotate(0) translate(4 89.75)">
<title>src/Autonomous/Steps/ParallelStep.hpp</title>
<!-- Node1 -->
<g id="Node000001" class="node">
<title>Node1</title>
<g id="a_Node000001"><a xlink:title=" ">
<polygon fill="#999999" stroke="#666666" points="169.12,-85.75 53.38,-85.75 53.38,-55.25 169.12,-55.25 169.12,-85.75"/>
<text xml:space="preserve" text-anchor="start" x="61.38" y="-72.25" font-family="Helvetica,sans-Serif" font-size="10.00">src/Autonomous/Steps</text>
<text xml:space="preserve" text-anchor="middle" x="111.25" y="-61" font-family="Helvetica,sans-Serif" font-size="10.00">/ParallelStep.hpp</text>
</a>
</g>
</g>
<!-- Node2 -->
<g id="Node000002" class="node">
<title>Node2</title>
<g id="a_Node000002"><a xlink:href="_auto_step_8h.html" target="_top" xlink:title=" ">
<polygon fill="white" stroke="#666666" points="122.5,-19.25 0,-19.25 0,0 122.5,0 122.5,-19.25"/>
<text xml:space="preserve" text-anchor="middle" x="61.25" y="-5.75" font-family="Helvetica,sans-Serif" font-size="10.00">Autonomous/AutoStep.h</text>
</a>
</g>
</g>
<!-- Node1&#45;&gt;Node2 -->
<g id="edge1_Node000001_Node000002" class="edge">
<title>Node1&#45;&gt;Node2</title>
<g id="a_edge1_Node000001_Node000002"><a xlink:title=" ">
<path fill="none" stroke="#63b8ff" d="M98.89,-54.95C92.08,-46.93 83.58,-36.92 76.38,-28.44"/>
<polygon fill="#63b8ff" stroke="#63b8ff" points="79.08,-26.21 69.94,-20.85 73.74,-30.74 79.08,-26.21"/>
</a>
</g>
</g>
<!-- Node3 -->
<g id="Node000003" class="node">
<title>Node3</title>
<g id="a_Node000003"><a xlink:title=" ">
<polygon fill="#e0e0e0" stroke="#999999" points="183.75,-19.25 140.75,-19.25 140.75,0 183.75,0 183.75,-19.25"/>
<text xml:space="preserve" text-anchor="middle" x="162.25" y="-5.75" font-family="Helvetica,sans-Serif" font-size="10.00">vector</text>
</a>
</g>
</g>
<!-- Node1&#45;&gt;Node3 -->
<g id="edge2_Node000001_Node000003" class="edge">
<title>Node1&#45;&gt;Node3</title>
<g id="a_edge2_Node000001_Node000003"><a xlink:title=" ">
<path fill="none" stroke="#63b8ff" d="M123.86,-54.95C130.88,-46.84 139.66,-36.7 147.06,-28.16"/>
<polygon fill="#63b8ff" stroke="#63b8ff" points="149.49,-30.7 153.4,-20.85 144.2,-26.11 149.49,-30.7"/>
</a>
</g>
</g>
</g>
</svg>
