<?xml version="1.0" encoding="UTF-8" standalone="no"?>
<!DOCTYPE svg PUBLIC "-//W3C//DTD SVG 1.1//EN"
 "http://www.w3.org/Graphics/SVG/1.1/DTD/svg11.dtd">
<!-- Generated by graphviz version 14.1.2 (20260124.0452)
 -->
<!-- Title: src/utils/RamseteController.hpp Pages: 1 -->
<svg width="1971pt" height="337pt"
 viewBox="0.00 0.00 1971.00 337.00" xmlns="http://www.w3.org/2000/svg" xmlns:xlink="http://www.w3.org/1999/xlink">
<g id="graph0" class="graph" transform="scale(1 1) rotate(0) translate(4 333.25)">
<title>src/utils/RamseteController.hpp</title>
<!-- Node1 -->
<g id="Node000001" class="node">
<title>Node1</title>
<g id="a_Node000001"><a xlink:title="Ramsete nonlinear trajectory&#45;tracking controller for a differential&#45;drive robot.">
<polygon fill="#999999" stroke="#666666" points="1183.5,-329.25 1030.25,-329.25 1030.25,-310 1183.5,-310 1183.5,-329.25"/>
<text xml:space="preserve" text-anchor="middle" x="1106.88" y="-315.75" font-family="Helvetica,sans-Serif" font-size="10.00">src/utils/RamseteController.hpp</text>
</a>
</g>
</g>
<!-- Node2 -->
<g id="Node000002" class="node">
<title>Node2</title>
<g id="a_Node000002"><a xlink:href="_drive_8hpp.html" target="_top" xlink:title="Differential&#45;drive subsystem: closed&#45;loop wheel control, line following, wall&#45;distance holding,...">
<polygon fill="white" stroke="#666666" points="1172.25,-274 1041.5,-274 1041.5,-254.75 1172.25,-254.75 1172.25,-274"/>
<text xml:space="preserve" text-anchor="middle" x="1106.88" y="-260.5" font-family="Helvetica,sans-Serif" font-size="10.00">src/subsystems/Drive.hpp</text>
</a>
</g>
</g>
<!-- Node1&#45;&gt;Node2 -->
<g id="edge1_Node000001_Node000002" class="edge">
<title>Node1&#45;&gt;Node2</title>
<g id="a_edge1_Node000001_Node000002"><a xlink:title=" ">
<path fill="none" stroke="#63b8ff" d="M1106.88,-298.38C1106.88,-290.09 1106.88,-280.92 1106.88,-274.36"/>
<polygon fill="#63b8ff" stroke="#63b8ff" points="1103.38,-298.32 1106.88,-308.32 1110.38,-298.32 1103.38,-298.32"/>
</a>
</g>
</g>
<!-- Node3 -->
<g id="Node000003" class="node">
<title>Node3</title>
<g id="a_Node000003"><a xlink:href="_planner_8hpp.html" target="_top" xlink:title="High&#45;level autonomous planner used with ReplanStep.">
<polygon fill="white" stroke="#666666" points="708.5,-146.62 567.25,-146.62 567.25,-127.38 708.5,-127.38 708.5,-146.62"/>
<text xml:space="preserve" text-anchor="middle" x="637.88" y="-133.12" font-family="Helvetica,sans-Serif" font-size="10.00">src/Autonomous/Planner.hpp</text>
</a>
</g>
</g>
<!-- Node2&#45;&gt;Node3 -->
<g id="edge2_Node000002_Node000003" class="edge">
<title>Node2&#45;&gt;Node3</title>
<g id="a_edge2_Node000002_Node000003"><a xlink:title=" ">
<path fill="none" stroke="#63b8ff" d="M1029.87,-261.96C832.42,-257.97 321.84,-245.12 296.88,-218.75 287.56,-208.9 288.02,-198.51 296.88,-188.25 331.05,-148.68 477.46,-139.71 566.96,-138.01"/>
<polygon fill="#63b8ff" stroke="#63b8ff" points="1029.71,-265.46 1039.77,-262.16 1029.85,-258.46 1029.71,-265.46"/>
</a>
</g>
</g>
<!-- Node5 -->
<g id="Node000005" class="node">
<title>Node5</title>
<g id="a_Node000005"><a xlink:href="_robot_8hpp.html" target="_top" xlink:title="Top&#45;level robot class that owns all subsystems and the autonomous scheduler.">
<polygon fill="white" stroke="#666666" points="1240.62,-85.75 1163.12,-85.75 1163.12,-66.5 1240.62,-66.5 1240.62,-85.75"/>
<text xml:space="preserve" text-anchor="middle" x="1201.88" y="-72.25" font-family="Helvetica,sans-Serif" font-size="10.00">src/Robot.hpp</text>
</a>
</g>
</g>
<!-- Node2&#45;&gt;Node5 -->
<g id="edge41_Node000002_Node000005" class="edge">
<title>Node2&#45;&gt;Node5</title>
<g id="a_edge41_Node000002_Node000005"><a xlink:title=" ">
<path fill="none" stroke="#63b8ff" d="M1183.38,-254.95C1205.5,-248.55 1227.32,-237.55 1240.88,-218.75 1291.42,-148.64 1158.55,-197.96 1124.88,-152.25 1116.83,-141.34 1118.11,-133.5 1124.88,-121.75 1134.98,-104.21 1154.91,-92.94 1171.96,-86.11"/>
<polygon fill="#63b8ff" stroke="#63b8ff" points="1182.81,-251.48 1173.99,-257.36 1184.55,-258.26 1182.81,-251.48"/>
</a>
</g>
</g>
<!-- Node8 -->
<g id="Node000008" class="node">
<title>Node8</title>
<g id="a_Node000008"><a xlink:href="_accelerate_straight_line_8hpp.html" target="_top" xlink:title="AutoStep that drives straight while ramping speed up to a target velocity.">
<polygon fill="white" stroke="#666666" points="1269.88,-152.25 1133.88,-152.25 1133.88,-121.75 1269.88,-121.75 1269.88,-152.25"/>
<text xml:space="preserve" text-anchor="start" x="1141.88" y="-138.75" font-family="Helvetica,sans-Serif" font-size="10.00">src/Autonomous/Steps</text>
<text xml:space="preserve" text-anchor="middle" x="1201.88" y="-127.5" font-family="Helvetica,sans-Serif" font-size="10.00">/AccelerateStraightLine.hpp</text>
</a>
</g>
</g>
<!-- Node2&#45;&gt;Node8 -->
<g id="edge7_Node000002_Node000008" class="edge">
<title>Node2&#45;&gt;Node8</title>
<g id="a_edge7_Node000002_Node000008"><a xlink:title=" ">
<path fill="none" stroke="#63b8ff" d="M1182.96,-252.23C1221.39,-244.88 1262.31,-233.81 1273.88,-218.75 1292.52,-194.47 1258.23,-168.37 1230.86,-152.61"/>
<polygon fill="#63b8ff" stroke="#63b8ff" points="1182.37,-248.78 1173.17,-254.02 1183.63,-255.66 1182.37,-248.78"/>
</a>
</g>
</g>
<!-- Node9 -->
<g id="Node000009" class="node">
<title>Node9</title>
<g id="a_Node000009"><a xlink:href="_advance_cycle_step_8hpp.html" target="_top" xlink:title="Instantaneous AutoStep that advances the Strategy craft cycle by one.">
<polygon fill="white" stroke="#666666" points="427.75,-218.75 306,-218.75 306,-188.25 427.75,-188.25 427.75,-218.75"/>
<text xml:space="preserve" text-anchor="start" x="314" y="-205.25" font-family="Helvetica,sans-Serif" font-size="10.00">src/Autonomous/Steps</text>
<text xml:space="preserve" text-anchor="middle" x="366.88" y="-194" font-family="Helvetica,sans-Serif" font-size="10.00">/AdvanceCycleStep.hpp</text>
</a>
</g>
</g>
<!-- Node2&#45;&gt;Node9 -->
<g id="edge9_Node000002_Node000009" class="edge">
<title>Node2&#45;&gt;Node9</title>
<g id="a_edge9_Node000002_Node000009"><a xlink:title=" ">
<path fill="none" stroke="#63b8ff" d="M1030.13,-261.61C905.26,-257.99 650.59,-247.49 436.88,-218.75 433.93,-218.35 430.91,-217.91 427.88,-217.42"/>
<polygon fill="#63b8ff" stroke="#63b8ff" points="1029.83,-265.11 1039.92,-261.89 1030.03,-258.11 1029.83,-265.11"/>
</a>
</g>
</g>
<!-- Node10 -->
<g id="Node000010" class="node">
<title>Node10</title>
<g id="a_Node000010"><a xlink:href="_deploy_ramp_8hpp.html" target="_top" xlink:title="Instantaneous AutoStep that deploys the miner&#39;s block&#45;collection ramp.">
<polygon fill="white" stroke="#666666" points="1403.75,-152.25 1288,-152.25 1288,-121.75 1403.75,-121.75 1403.75,-152.25"/>
<text xml:space="preserve" text-anchor="start" x="1296" y="-138.75" font-family="Helvetica,sans-Serif" font-size="10.00">src/Autonomous/Steps</text>
<text xml:space="preserve" text-anchor="middle" x="1345.88" y="-127.5" font-family="Helvetica,sans-Serif" font-size="10.00">/DeployRamp.hpp</text>
</a>
</g>
</g>
<!-- Node2&#45;&gt;Node10 -->
<g id="edge11_Node000002_Node000010" class="edge">
<title>Node2&#45;&gt;Node10</title>
<g id="a_edge11_Node000002_Node000010"><a xlink:title=" ">
<path fill="none" stroke="#63b8ff" d="M1183.69,-257.4C1218.84,-251.64 1259.53,-240.44 1290.88,-218.75 1315,-202.05 1331.64,-171.04 1339.89,-152.69"/>
<polygon fill="#63b8ff" stroke="#63b8ff" points="1183.35,-253.91 1173.99,-258.86 1184.4,-260.83 1183.35,-253.91"/>
</a>
</g>
</g>
<!-- Node11 -->
<g id="Node000011" class="node">
<title>Node11</title>
<g id="a_Node000011"><a xlink:href="_detect_block_8hpp.html" target="_top" xlink:title="AutoStep that samples the color sensor and updates Strategy with the detected block type.">
<polygon fill="white" stroke="#666666" points="561.75,-218.75 446,-218.75 446,-188.25 561.75,-188.25 561.75,-218.75"/>
<text xml:space="preserve" text-anchor="start" x="454" y="-205.25" font-family="Helvetica,sans-Serif" font-size="10.00">src/Autonomous/Steps</text>
<text xml:space="preserve" text-anchor="middle" x="503.88" y="-194" font-family="Helvetica,sans-Serif" font-size="10.00">/DetectBlock.hpp</text>
</a>
</g>
</g>
<!-- Node2&#45;&gt;Node11 -->
<g id="edge13_Node000002_Node000011" class="edge">
<title>Node2&#45;&gt;Node11</title>
<g id="a_edge13_Node000002_Node000011"><a xlink:title=" ">
<path fill="none" stroke="#63b8ff" d="M1030.02,-260.04C925.63,-254.8 733.38,-242.7 570.88,-218.75 567.93,-218.32 564.93,-217.83 561.9,-217.31"/>
<polygon fill="#63b8ff" stroke="#63b8ff" points="1029.72,-263.53 1039.88,-260.52 1030.06,-256.53 1029.72,-263.53"/>
</a>
</g>
</g>
<!-- Node12 -->
<g id="Node000012" class="node">
<title>Node12</title>
<g id="a_Node000012"><a xlink:href="_drive_arc_8hpp.html" target="_top" xlink:title="AutoStep that drives the robot along a circular arc.">
<polygon fill="white" stroke="#666666" points="695.75,-218.75 580,-218.75 580,-188.25 695.75,-188.25 695.75,-218.75"/>
<text xml:space="preserve" text-anchor="start" x="588" y="-205.25" font-family="Helvetica,sans-Serif" font-size="10.00">src/Autonomous/Steps</text>
<text xml:space="preserve" text-anchor="middle" x="637.88" y="-194" font-family="Helvetica,sans-Serif" font-size="10.00">/DriveArc.hpp</text>
</a>
</g>
</g>
<!-- Node2&#45;&gt;Node12 -->
<g id="edge15_Node000002_Node000012" class="edge">
<title>Node2&#45;&gt;Node12</title>
<g id="a_edge15_Node000002_Node000012"><a xlink:title=" ">
<path fill="none" stroke="#63b8ff" d="M1030.05,-257.12C948.92,-249.99 817.43,-236.92 704.88,-218.75 701.94,-218.28 698.94,-217.76 695.91,-217.21"/>
<polygon fill="#63b8ff" stroke="#63b8ff" points="1029.38,-260.58 1039.65,-257.96 1029.99,-253.61 1029.38,-260.58"/>
</a>
</g>
</g>
<!-- Node13 -->
<g id="Node000013" class="node">
<title>Node13</title>
<g id="a_Node000013"><a xlink:href="_drive_distance_8hpp.html" target="_top" xlink:title="AutoStep that drives straight for a specified distance at a fixed velocity.">
<polygon fill="white" stroke="#666666" points="963.75,-218.75 848,-218.75 848,-188.25 963.75,-188.25 963.75,-218.75"/>
<text xml:space="preserve" text-anchor="start" x="856" y="-205.25" font-family="Helvetica,sans-Serif" font-size="10.00">src/Autonomous/Steps</text>
<text xml:space="preserve" text-anchor="middle" x="905.88" y="-194" font-family="Helvetica,sans-Serif" font-size="10.00">/DriveDistance.hpp</text>
</a>
</g>
</g>
<!-- Node2&#45;&gt;Node13 -->
<g id="edge17_Node000002_Node000013" class="edge">
<title>Node2&#45;&gt;Node13</title>
<g id="a_edge17_Node000002_Node000013"><a xlink:title=" ">
<path fill="none" stroke="#63b8ff" d="M1065.23,-251.18C1033.5,-241.88 989.7,-229.05 956.04,-219.19"/>
<polygon fill="#63b8ff" stroke="#63b8ff" points="1063.88,-254.43 1074.46,-253.88 1065.84,-247.71 1063.88,-254.43"/>
</a>
</g>
</g>
<!-- Node14 -->
<g id="Node000014" class="node">
<title>Node14</title>
<g id="a_Node000014"><a xlink:href="_drive_line_until_wall_8hpp.html" target="_top" xlink:title="AutoStep that follows a line until the distance sensor reads a target wall distance.">
<polygon fill="white" stroke="#666666" points="1539.88,-152.25 1421.88,-152.25 1421.88,-121.75 1539.88,-121.75 1539.88,-152.25"/>
<text xml:space="preserve" text-anchor="start" x="1429.88" y="-138.75" font-family="Helvetica,sans-Serif" font-size="10.00">src/Autonomous/Steps</text>
<text xml:space="preserve" text-anchor="middle" x="1480.88" y="-127.5" font-family="Helvetica,sans-Serif" font-size="10.00">/DriveLineUntilWall.hpp</text>
</a>
</g>
</g>
<!-- Node2&#45;&gt;Node14 -->
<g id="edge20_Node000002_Node000014" class="edge">
<title>Node2&#45;&gt;Node14</title>
<g id="a_edge20_Node000002_Node000014"><a xlink:title=" ">
<path fill="none" stroke="#63b8ff" d="M1182.77,-252.38C1224.03,-245.19 1275.53,-234.22 1319.88,-218.75 1370.66,-201.03 1425.88,-170.67 1456.65,-152.65"/>
<polygon fill="#63b8ff" stroke="#63b8ff" points="1182.19,-248.93 1172.92,-254.06 1183.36,-255.83 1182.19,-248.93"/>
</a>
</g>
</g>
<!-- Node15 -->
<g id="Node000015" class="node">
<title>Node15</title>
<g id="a_Node000015"><a xlink:href="_drive_radius_angle_8hpp.html" target="_top" xlink:title="AutoStep that drives along an arc for a specified heading change (degrees).">
<polygon fill="white" stroke="#666666" points="1674.12,-152.25 1557.62,-152.25 1557.62,-121.75 1674.12,-121.75 1674.12,-152.25"/>
<text xml:space="preserve" text-anchor="start" x="1565.62" y="-138.75" font-family="Helvetica,sans-Serif" font-size="10.00">src/Autonomous/Steps</text>
<text xml:space="preserve" text-anchor="middle" x="1615.88" y="-127.5" font-family="Helvetica,sans-Serif" font-size="10.00">/DriveRadiusAngle.hpp</text>
</a>
</g>
</g>
<!-- Node2&#45;&gt;Node15 -->
<g id="edge22_Node000002_Node000015" class="edge">
<title>Node2&#45;&gt;Node15</title>
<g id="a_edge22_Node000002_Node000015"><a xlink:title=" ">
<path fill="none" stroke="#63b8ff" d="M1183.83,-255.4C1236.44,-248.69 1307.34,-237.18 1367.88,-218.75 1399.56,-209.1 1404.73,-199.51 1435.88,-188.25 1475.69,-173.85 1521.69,-161.08 1557.22,-152.01"/>
<polygon fill="#63b8ff" stroke="#63b8ff" points="1183.55,-251.9 1174.06,-256.61 1184.41,-258.85 1183.55,-251.9"/>
</a>
</g>
</g>
<!-- Node16 -->
<g id="Node000016" class="node">
<title>Node16</title>
<g id="a_Node000016"><a xlink:href="_drive_radius_at_velocity_8hpp.html" target="_top" xlink:title="AutoStep that drives along a constant&#45;radius arc for a specified arc length.">
<polygon fill="white" stroke="#666666" points="1827.5,-152.25 1692.25,-152.25 1692.25,-121.75 1827.5,-121.75 1827.5,-152.25"/>
<text xml:space="preserve" text-anchor="start" x="1700.25" y="-138.75" font-family="Helvetica,sans-Serif" font-size="10.00">src/Autonomous/Steps</text>
<text xml:space="preserve" text-anchor="middle" x="1759.88" y="-127.5" font-family="Helvetica,sans-Serif" font-size="10.00">/DriveRadiusAtVelocity.hpp</text>
</a>
</g>
</g>
<!-- Node2&#45;&gt;Node16 -->
<g id="edge24_Node000002_Node000016" class="edge">
<title>Node2&#45;&gt;Node16</title>
<g id="a_edge24_Node000002_Node000016"><a xlink:title=" ">
<path fill="none" stroke="#63b8ff" d="M1183.67,-259.55C1247.21,-254.68 1339.15,-243.65 1415.88,-218.75 1443.58,-209.76 1446.3,-197.61 1473.88,-188.25 1563.13,-157.94 1590.09,-168.83 1682.88,-152.25 1685.82,-151.72 1688.83,-151.18 1691.86,-150.63"/>
<polygon fill="#63b8ff" stroke="#63b8ff" points="1183.77,-256.03 1174.05,-260.25 1184.28,-263.01 1183.77,-256.03"/>
</a>
</g>
</g>
<!-- Node17 -->
<g id="Node000017" class="node">
<title>Node17</title>
<g id="a_Node000017"><a xlink:href="_drive_until_wall_8hpp.html" target="_top" xlink:title="AutoStep that drives straight toward a wall until the distance sensor reaches a setpoint.">
<polygon fill="white" stroke="#666666" points="1631.75,-218.75 1516,-218.75 1516,-188.25 1631.75,-188.25 1631.75,-218.75"/>
<text xml:space="preserve" text-anchor="start" x="1524" y="-205.25" font-family="Helvetica,sans-Serif" font-size="10.00">src/Autonomous/Steps</text>
<text xml:space="preserve" text-anchor="middle" x="1573.88" y="-194" font-family="Helvetica,sans-Serif" font-size="10.00">/DriveUntilWall.hpp</text>
</a>
</g>
</g>
<!-- Node2&#45;&gt;Node17 -->
<g id="edge26_Node000002_Node000017" class="edge">
<title>Node2&#45;&gt;Node17</title>
<g id="a_edge26_Node000002_Node000017"><a xlink:title=" ">
<path fill="none" stroke="#63b8ff" d="M1183.86,-256.58C1263.65,-249.1 1391.86,-235.82 1501.88,-218.75 1506.41,-218.05 1511.09,-217.26 1515.79,-216.43"/>
<polygon fill="#63b8ff" stroke="#63b8ff" points="1183.59,-253.09 1173.95,-257.5 1184.23,-260.06 1183.59,-253.09"/>
</a>
</g>
</g>
<!-- Node18 -->
<g id="Node000018" class="node">
<title>Node18</title>
<g id="a_Node000018"><a xlink:href="_follow_line_step_8hpp.html" target="_top" xlink:title="AutoStep that follows a line for a specified distance.">
<polygon fill="white" stroke="#666666" points="1097.75,-218.75 982,-218.75 982,-188.25 1097.75,-188.25 1097.75,-218.75"/>
<text xml:space="preserve" text-anchor="start" x="990" y="-205.25" font-family="Helvetica,sans-Serif" font-size="10.00">src/Autonomous/Steps</text>
<text xml:space="preserve" text-anchor="middle" x="1039.88" y="-194" font-family="Helvetica,sans-Serif" font-size="10.00">/FollowLineStep.hpp</text>
</a>
</g>
</g>
<!-- Node2&#45;&gt;Node18 -->
<g id="edge27_Node000002_Node000018" class="edge">
<title>Node2&#45;&gt;Node18</title>
<g id="a_edge27_Node000002_Node000018"><a xlink:title=" ">
<path fill="none" stroke="#63b8ff" d="M1088.28,-247.04C1078.29,-238.26 1066.07,-227.52 1056.41,-219.03"/>
<polygon fill="#63b8ff" stroke="#63b8ff" points="1085.74,-249.46 1095.56,-253.43 1090.36,-244.2 1085.74,-249.46"/>
</a>
</g>
</g>
<!-- Node19 -->
<g id="Node000019" class="node">
<title>Node19</title>
<g id="a_Node000019"><a xlink:href="_index_block_8hpp.html" target="_top" xlink:title="AutoStep that routes a newly acquired block to the correct hopper slot.">
<polygon fill="white" stroke="#666666" points="829.75,-218.75 714,-218.75 714,-188.25 829.75,-188.25 829.75,-218.75"/>
<text xml:space="preserve" text-anchor="start" x="722" y="-205.25" font-family="Helvetica,sans-Serif" font-size="10.00">src/Autonomous/Steps</text>
<text xml:space="preserve" text-anchor="middle" x="771.88" y="-194" font-family="Helvetica,sans-Serif" font-size="10.00">/IndexBlock.hpp</text>
</a>
</g>
</g>
<!-- Node2&#45;&gt;Node19 -->
<g id="edge30_Node000002_Node000019" class="edge">
<title>Node2&#45;&gt;Node19</title>
<g id="a_edge30_Node000002_Node000019"><a xlink:title=" ">
<path fill="none" stroke="#63b8ff" d="M1036.2,-252.49C982.07,-243.94 905.61,-231.4 838.88,-218.75 835.95,-218.2 832.96,-217.62 829.95,-217.02"/>
<polygon fill="#63b8ff" stroke="#63b8ff" points="1035.48,-255.92 1045.9,-254.01 1036.57,-249 1035.48,-255.92"/>
</a>
</g>
</g>
<!-- Node20 -->
<g id="Node000020" class="node">
<title>Node20</title>
<g id="a_Node000020"><a xlink:href="_mine_block_8hpp.html" target="_top" xlink:title="AutoStep that commands the Miner to complete a fixed number of press cycles.">
<polygon fill="white" stroke="#666666" points="1231.75,-218.75 1116,-218.75 1116,-188.25 1231.75,-188.25 1231.75,-218.75"/>
<text xml:space="preserve" text-anchor="start" x="1124" y="-205.25" font-family="Helvetica,sans-Serif" font-size="10.00">src/Autonomous/Steps</text>
<text xml:space="preserve" text-anchor="middle" x="1173.88" y="-194" font-family="Helvetica,sans-Serif" font-size="10.00">/MineBlock.hpp</text>
</a>
</g>
</g>
<!-- Node2&#45;&gt;Node20 -->
<g id="edge32_Node000002_Node000020" class="edge">
<title>Node2&#45;&gt;Node20</title>
<g id="a_edge32_Node000002_Node000020"><a xlink:title=" ">
<path fill="none" stroke="#63b8ff" d="M1125.47,-247.04C1135.46,-238.26 1147.68,-227.52 1157.34,-219.03"/>
<polygon fill="#63b8ff" stroke="#63b8ff" points="1123.39,-244.2 1118.19,-253.43 1128.01,-249.46 1123.39,-244.2"/>
</a>
</g>
</g>
<!-- Node21 -->
<g id="Node000021" class="node">
<title>Node21</title>
<g id="a_Node000021"><a xlink:href="_mine_block_autofire_8hpp.html" target="_top" xlink:title="AutoStep that mines and simultaneously autofires the shooter for a time window.">
<polygon fill="white" stroke="#666666" points="1962.5,-152.25 1845.25,-152.25 1845.25,-121.75 1962.5,-121.75 1962.5,-152.25"/>
<text xml:space="preserve" text-anchor="start" x="1853.25" y="-138.75" font-family="Helvetica,sans-Serif" font-size="10.00">src/Autonomous/Steps</text>
<text xml:space="preserve" text-anchor="middle" x="1903.88" y="-127.5" font-family="Helvetica,sans-Serif" font-size="10.00">/MineBlockAutofire.hpp</text>
</a>
</g>
</g>
<!-- Node2&#45;&gt;Node21 -->
<g id="edge35_Node000002_Node000021" class="edge">
<title>Node2&#45;&gt;Node21</title>
<g id="a_edge35_Node000002_Node000021"><a xlink:title=" ">
<path fill="none" stroke="#63b8ff" d="M1183.8,-263.22C1256.66,-260.86 1368.12,-251.48 1458.88,-218.75 1482.65,-210.18 1483.02,-196.62 1506.88,-188.25 1646.1,-139.42 1691.2,-175.63 1836.88,-152.25 1839.58,-151.82 1842.33,-151.35 1845.11,-150.85"/>
<polygon fill="#63b8ff" stroke="#63b8ff" points="1183.85,-259.71 1173.96,-263.49 1184.05,-266.71 1183.85,-259.71"/>
</a>
</g>
</g>
<!-- Node22 -->
<g id="Node000022" class="node">
<title>Node22</title>
<g id="a_Node000022"><a xlink:href="_place_on_table_8hpp.html" target="_top" xlink:title="AutoStep stub that places a block on the crafting table.">
<polygon fill="white" stroke="#666666" points="115.75,-218.75 0,-218.75 0,-188.25 115.75,-188.25 115.75,-218.75"/>
<text xml:space="preserve" text-anchor="start" x="8" y="-205.25" font-family="Helvetica,sans-Serif" font-size="10.00">src/Autonomous/Steps</text>
<text xml:space="preserve" text-anchor="middle" x="57.88" y="-194" font-family="Helvetica,sans-Serif" font-size="10.00">/PlaceOnTable.hpp</text>
</a>
</g>
</g>
<!-- Node2&#45;&gt;Node22 -->
<g id="edge37_Node000002_Node000022" class="edge">
<title>Node2&#45;&gt;Node22</title>
<g id="a_edge37_Node000002_Node000022"><a xlink:title=" ">
<path fill="none" stroke="#63b8ff" d="M1029.99,-264.16C863.99,-264.91 459.96,-261.7 124.88,-218.75 122.04,-218.39 119.16,-217.97 116.24,-217.5"/>
<polygon fill="#63b8ff" stroke="#63b8ff" points="1029.55,-267.66 1039.54,-264.11 1029.52,-260.66 1029.55,-267.66"/>
</a>
</g>
</g>
<!-- Node23 -->
<g id="Node000023" class="node">
<title>Node23</title>
<g id="a_Node000023"><a xlink:href="_reject_sequence_8hpp.html" target="_top" xlink:title="AutoStep stub that executes the block&#45;rejection sequence.">
<polygon fill="white" stroke="#666666" points="249.75,-218.75 134,-218.75 134,-188.25 249.75,-188.25 249.75,-218.75"/>
<text xml:space="preserve" text-anchor="start" x="142" y="-205.25" font-family="Helvetica,sans-Serif" font-size="10.00">src/Autonomous/Steps</text>
<text xml:space="preserve" text-anchor="middle" x="191.88" y="-194" font-family="Helvetica,sans-Serif" font-size="10.00">/RejectSequence.hpp</text>
</a>
</g>
</g>
<!-- Node2&#45;&gt;Node23 -->
<g id="edge39_Node000002_Node000023" class="edge">
<title>Node2&#45;&gt;Node23</title>
<g id="a_edge39_Node000002_Node000023"><a xlink:title=" ">
<path fill="none" stroke="#63b8ff" d="M1029.77,-262.96C881.07,-261.35 544.52,-253.77 263.88,-218.75 259.32,-218.18 254.63,-217.49 249.92,-216.73"/>
<polygon fill="#63b8ff" stroke="#63b8ff" points="1029.46,-266.46 1039.5,-263.06 1029.53,-259.46 1029.46,-266.46"/>
</a>
</g>
</g>
<!-- Node4 -->
<g id="Node000004" class="node">
<title>Node4</title>
<g id="a_Node000004"><a xlink:href="_planner_8cpp.html" target="_top" xlink:title="Implementation of the autonomous Planner state machine.">
<polygon fill="white" stroke="#666666" points="708.5,-85.75 567.25,-85.75 567.25,-66.5 708.5,-66.5 708.5,-85.75"/>
<text xml:space="preserve" text-anchor="middle" x="637.88" y="-72.25" font-family="Helvetica,sans-Serif" font-size="10.00">src/Autonomous/Planner.cpp</text>
</a>
</g>
</g>
<!-- Node3&#45;&gt;Node4 -->
<g id="edge3_Node000003_Node000004" class="edge">
<title>Node3&#45;&gt;Node4</title>
<g id="a_edge3_Node000003_Node000004"><a xlink:title=" ">
<path fill="none" stroke="#63b8ff" d="M637.88,-115.57C637.88,-105.54 637.88,-93.96 637.88,-86.15"/>
<polygon fill="#63b8ff" stroke="#63b8ff" points="634.38,-115.54 637.88,-125.54 641.38,-115.54 634.38,-115.54"/>
</a>
</g>
</g>
<!-- Node3&#45;&gt;Node5 -->
<g id="edge4_Node000003_Node000005" class="edge">
<title>Node3&#45;&gt;Node5</title>
<g id="a_edge4_Node000003_Node000005"><a xlink:title=" ">
<path fill="none" stroke="#63b8ff" d="M719.97,-127.43C843.23,-114.56 1071.41,-90.74 1162.66,-81.22"/>
<polygon fill="#63b8ff" stroke="#63b8ff" points="719.82,-123.93 710.24,-128.45 720.55,-130.89 719.82,-123.93"/>
</a>
</g>
</g>
<!-- Node6 -->
<g id="Node000006" class="node">
<title>Node6</title>
<g id="a_Node000006"><a xlink:href="_strategy_controller_step_8hpp.html" target="_top" xlink:title="High&#45;level AutoStep that runs the full strategy loop inline.">
<polygon fill="white" stroke="#666666" points="1208.25,-30.5 1071.5,-30.5 1071.5,0 1208.25,0 1208.25,-30.5"/>
<text xml:space="preserve" text-anchor="start" x="1079.5" y="-17" font-family="Helvetica,sans-Serif" font-size="10.00">src/Autonomous/Steps</text>
<text xml:space="preserve" text-anchor="middle" x="1139.88" y="-5.75" font-family="Helvetica,sans-Serif" font-size="10.00">/StrategyControllerStep.hpp</text>
</a>
</g>
</g>
<!-- Node5&#45;&gt;Node6 -->
<g id="edge5_Node000005_Node000006" class="edge">
<title>Node5&#45;&gt;Node6</title>
<g id="a_edge5_Node000005_Node000006"><a xlink:title=" ">
<path fill="none" stroke="#63b8ff" d="M1184.39,-58.52C1175.19,-49.79 1164.03,-39.18 1155.18,-30.78"/>
<polygon fill="#63b8ff" stroke="#63b8ff" points="1181.7,-60.79 1191.36,-65.14 1186.52,-55.72 1181.7,-60.79"/>
</a>
</g>
</g>
<!-- Node7 -->
<g id="Node000007" class="node">
<title>Node7</title>
<g id="a_Node000007"><a xlink:href="main_8cpp.html" target="_top" xlink:title="Arduino entry point — instantiates the Robot and drives the main loop.">
<polygon fill="white" stroke="#666666" points="1299,-24.88 1226.75,-24.88 1226.75,-5.63 1299,-5.63 1299,-24.88"/>
<text xml:space="preserve" text-anchor="middle" x="1262.88" y="-11.38" font-family="Helvetica,sans-Serif" font-size="10.00">src/main.cpp</text>
</a>
</g>
</g>
<!-- Node5&#45;&gt;Node7 -->
<g id="edge6_Node000005_Node000007" class="edge">
<title>Node5&#45;&gt;Node7</title>
<g id="a_edge6_Node000005_Node000007"><a xlink:title=" ">
<path fill="none" stroke="#63b8ff" d="M1219.31,-58.3C1230.44,-47.55 1244.44,-34.04 1253.52,-25.28"/>
<polygon fill="#63b8ff" stroke="#63b8ff" points="1216.99,-55.67 1212.23,-65.13 1221.85,-60.71 1216.99,-55.67"/>
</a>
</g>
</g>
<!-- Node8&#45;&gt;Node5 -->
<g id="edge8_Node000008_Node000005" class="edge">
<title>Node8&#45;&gt;Node5</title>
<g id="a_edge8_Node000008_Node000005"><a xlink:title=" ">
<path fill="none" stroke="#63b8ff" d="M1201.88,-109.98C1201.88,-101.48 1201.88,-92.59 1201.88,-86.2"/>
<polygon fill="#63b8ff" stroke="#63b8ff" points="1198.38,-109.93 1201.88,-119.93 1205.38,-109.93 1198.38,-109.93"/>
</a>
</g>
</g>
<!-- Node9&#45;&gt;Node3 -->
<g id="edge10_Node000009_Node000003" class="edge">
<title>Node9&#45;&gt;Node3</title>
<g id="a_edge10_Node000009_Node000003"><a xlink:title=" ">
<path fill="none" stroke="#63b8ff" d="M439.14,-185.3C490.85,-172.99 558.39,-156.92 599.92,-147.03"/>
<polygon fill="#63b8ff" stroke="#63b8ff" points="438.42,-181.87 429.5,-187.59 440.04,-188.68 438.42,-181.87"/>
</a>
</g>
</g>
<!-- Node10&#45;&gt;Node5 -->
<g id="edge12_Node000010_Node000005" class="edge">
<title>Node10&#45;&gt;Node5</title>
<g id="a_edge12_Node000010_Node000005"><a xlink:title=" ">
<path fill="none" stroke="#63b8ff" d="M1299.4,-117C1274.1,-106.66 1243.97,-94.33 1223.96,-86.15"/>
<polygon fill="#63b8ff" stroke="#63b8ff" points="1297.93,-120.18 1308.51,-120.72 1300.58,-113.7 1297.93,-120.18"/>
</a>
</g>
</g>
<!-- Node11&#45;&gt;Node3 -->
<g id="edge14_Node000011_Node000003" class="edge">
<title>Node11&#45;&gt;Node3</title>
<g id="a_edge14_Node000011_Node000003"><a xlink:title=" ">
<path fill="none" stroke="#63b8ff" d="M544.52,-182.94C569.35,-170.99 599.92,-156.27 619.16,-147.01"/>
<polygon fill="#63b8ff" stroke="#63b8ff" points="543.14,-179.72 535.65,-187.21 546.17,-186.02 543.14,-179.72"/>
</a>
</g>
</g>
<!-- Node12&#45;&gt;Node3 -->
<g id="edge16_Node000012_Node000003" class="edge">
<title>Node12&#45;&gt;Node3</title>
<g id="a_edge16_Node000012_Node000003"><a xlink:title=" ">
<path fill="none" stroke="#63b8ff" d="M637.88,-176.59C637.88,-166.01 637.88,-154.5 637.88,-146.82"/>
<polygon fill="#63b8ff" stroke="#63b8ff" points="634.38,-176.35 637.88,-186.35 641.38,-176.35 634.38,-176.35"/>
</a>
</g>
</g>
<!-- Node13&#45;&gt;Node3 -->
<g id="edge18_Node000013_Node000003" class="edge">
<title>Node13&#45;&gt;Node3</title>
<g id="a_edge18_Node000013_Node000003"><a xlink:title=" ">
<path fill="none" stroke="#63b8ff" d="M836.72,-185.86C785.41,-173.51 717.4,-157.14 675.68,-147.1"/>
<polygon fill="#63b8ff" stroke="#63b8ff" points="835.71,-189.21 846.25,-188.15 837.35,-182.41 835.71,-189.21"/>
</a>
</g>
</g>
<!-- Node13&#45;&gt;Node5 -->
<g id="edge19_Node000013_Node000005" class="edge">
<title>Node13&#45;&gt;Node5</title>
<g id="a_edge19_Node000013_Node000005"><a xlink:title=" ">
<path fill="none" stroke="#63b8ff" d="M939.45,-181.94C969.24,-164.3 1014.37,-139.07 1055.88,-121.75 1092.08,-106.65 1135.22,-94.09 1165.18,-86.19"/>
<polygon fill="#63b8ff" stroke="#63b8ff" points="937.66,-178.93 930.88,-187.06 941.25,-184.94 937.66,-178.93"/>
</a>
</g>
</g>
<!-- Node14&#45;&gt;Node5 -->
<g id="edge21_Node000014_Node000005" class="edge">
<title>Node14&#45;&gt;Node5</title>
<g id="a_edge21_Node000014_Node000005"><a xlink:title=" ">
<path fill="none" stroke="#63b8ff" d="M1410.53,-121.16C1356.76,-109.81 1284.64,-94.59 1240.81,-85.34"/>
<polygon fill="#63b8ff" stroke="#63b8ff" points="1409.72,-124.56 1420.23,-123.2 1411.16,-117.71 1409.72,-124.56"/>
</a>
</g>
</g>
<!-- Node15&#45;&gt;Node5 -->
<g id="edge23_Node000015_Node000005" class="edge">
<title>Node15&#45;&gt;Node5</title>
<g id="a_edge23_Node000015_Node000005"><a xlink:title=" ">
<path fill="none" stroke="#63b8ff" d="M1546.21,-121.38C1429.6,-101.9 1303.49,-87.69 1241.06,-81.11"/>
<polygon fill="#63b8ff" stroke="#63b8ff" points="1545.53,-124.82 1555.97,-123.03 1546.69,-117.91 1545.53,-124.82"/>
</a>
</g>
</g>
<!-- Node16&#45;&gt;Node5 -->
<g id="edge25_Node000016_Node000005" class="edge">
<title>Node16&#45;&gt;Node5</title>
<g id="a_edge25_Node000016_Node000005"><a xlink:title=" ">
<path fill="none" stroke="#63b8ff" d="M1680.51,-121.51C1510.86,-98.47 1321.3,-84.79 1240.98,-79.55"/>
<polygon fill="#63b8ff" stroke="#63b8ff" points="1680.03,-124.98 1690.41,-122.87 1680.98,-118.04 1680.03,-124.98"/>
</a>
</g>
</g>
<!-- Node18&#45;&gt;Node3 -->
<g id="edge28_Node000018_Node000003" class="edge">
<title>Node18&#45;&gt;Node3</title>
<g id="a_edge28_Node000018_Node000003"><a xlink:title=" ">
<path fill="none" stroke="#63b8ff" d="M970.58,-187.9C873.3,-170.51 772.07,-155.99 706.73,-147.08"/>
<polygon fill="#63b8ff" stroke="#63b8ff" points="969.86,-191.33 980.32,-189.66 971.1,-184.44 969.86,-191.33"/>
</a>
</g>
</g>
<!-- Node18&#45;&gt;Node5 -->
<g id="edge29_Node000018_Node000005" class="edge">
<title>Node18&#45;&gt;Node5</title>
<g id="a_edge29_Node000018_Node000005"><a xlink:title=" ">
<path fill="none" stroke="#63b8ff" d="M1047.91,-177.23C1054.69,-159.55 1066.03,-136.53 1082.88,-121.75 1105.43,-101.96 1137.61,-90.6 1162.82,-84.3"/>
<polygon fill="#63b8ff" stroke="#63b8ff" points="1044.66,-175.92 1044.6,-186.52 1051.25,-178.27 1044.66,-175.92"/>
</a>
</g>
</g>
<!-- Node19&#45;&gt;Node3 -->
<g id="edge31_Node000019_Node000003" class="edge">
<title>Node19&#45;&gt;Node3</title>
<g id="a_edge31_Node000019_Node000003"><a xlink:title=" ">
<path fill="none" stroke="#63b8ff" d="M731.23,-182.94C706.4,-170.99 675.83,-156.27 656.59,-147.01"/>
<polygon fill="#63b8ff" stroke="#63b8ff" points="729.58,-186.02 740.1,-187.21 732.61,-179.72 729.58,-186.02"/>
</a>
</g>
</g>
<!-- Node20&#45;&gt;Node3 -->
<g id="edge33_Node000020_Node000003" class="edge">
<title>Node20&#45;&gt;Node3</title>
<g id="a_edge33_Node000020_Node000003"><a xlink:title=" ">
<path fill="none" stroke="#63b8ff" d="M1104.88,-188.04C958.53,-165.14 798.77,-150.57 708.89,-143.32"/>
<polygon fill="#63b8ff" stroke="#63b8ff" points="1103.92,-191.43 1114.34,-189.54 1105.01,-184.52 1103.92,-191.43"/>
</a>
</g>
</g>
<!-- Node20&#45;&gt;Node5 -->
<g id="edge34_Node000020_Node000005" class="edge">
<title>Node20&#45;&gt;Node5</title>
<g id="a_edge34_Node000020_Node000005"><a xlink:title=" ">
<path fill="none" stroke="#63b8ff" d="M1123.38,-182.44C1110.88,-174.92 1099.02,-165.01 1091.88,-152.25 1085.25,-140.42 1084.3,-132.99 1091.88,-121.75 1107.65,-98.33 1138.04,-87.2 1162.89,-81.91"/>
<polygon fill="#63b8ff" stroke="#63b8ff" points="1121.69,-185.5 1132.14,-187.24 1125.05,-179.36 1121.69,-185.5"/>
</a>
</g>
</g>
<!-- Node21&#45;&gt;Node5 -->
<g id="edge36_Node000021_Node000005" class="edge">
<title>Node21&#45;&gt;Node5</title>
<g id="a_edge36_Node000021_Node000005"><a xlink:title=" ">
<path fill="none" stroke="#63b8ff" d="M1833.52,-121.4C1604.09,-89.9 1339.35,-80.53 1241.09,-77.98"/>
<polygon fill="#63b8ff" stroke="#63b8ff" points="1832.88,-124.84 1843.27,-122.75 1833.85,-117.91 1832.88,-124.84"/>
</a>
</g>
</g>
<!-- Node22&#45;&gt;Node3 -->
<g id="edge38_Node000022_Node000003" class="edge">
<title>Node22&#45;&gt;Node3</title>
<g id="a_edge38_Node000022_Node000003"><a xlink:title=" ">
<path fill="none" stroke="#63b8ff" d="M127.12,-188.02C290.16,-163.29 470,-149.04 567.03,-142.42"/>
<polygon fill="#63b8ff" stroke="#63b8ff" points="126.76,-184.54 117.4,-189.51 127.82,-191.45 126.76,-184.54"/>
</a>
</g>
</g>
<!-- Node23&#45;&gt;Node3 -->
<g id="edge40_Node000023_Node000003" class="edge">
<title>Node23&#45;&gt;Node3</title>
<g id="a_edge40_Node000023_Node000003"><a xlink:title=" ">
<path fill="none" stroke="#63b8ff" d="M261.31,-188.68C262.17,-188.53 263.03,-188.39 263.88,-188.25 369.06,-170.79 491.66,-155.22 567.02,-146.2"/>
<polygon fill="#63b8ff" stroke="#63b8ff" points="260.71,-185.23 251.47,-190.42 261.92,-192.13 260.71,-185.23"/>
</a>
</g>
</g>
</g>
</svg>
