<?xml version="1.0" encoding="UTF-8" standalone="no"?>
<!DOCTYPE svg PUBLIC "-//W3C//DTD SVG 1.1//EN"
 "http://www.w3.org/Graphics/SVG/1.1/DTD/svg11.dtd">
<!-- Generated by graphviz version 14.1.2 (20260124.0452)
 -->
<!-- Title: src/utils/RamseteController.hpp Pages: 1 -->
<svg width="220pt" height="193pt"
 viewBox="0.00 0.00 220.00 193.00" xmlns="http://www.w3.org/2000/svg" xmlns:xlink="http://www.w3.org/1999/xlink">
<g id="graph0" class="graph" transform="scale(1 1) rotate(0) translate(4 189)">
<title>src/utils/RamseteController.hpp</title>
<!-- Node1 -->
<g id="Node000001" class="node">
<title>Node1</title>
<g id="a_Node000001"><a xlink:title=" ">
<polygon fill="#999999" stroke="#666666" points="153.25,-185 0,-185 0,-165.75 153.25,-165.75 153.25,-185"/>
<text xml:space="preserve" text-anchor="middle" x="76.62" y="-171.5" font-family="Helvetica,sans-Serif" font-size="10.00">src/utils/RamseteController.hpp</text>
</a>
</g>
</g>
<!-- Node2 -->
<g id="Node000002" class="node">
<title>Node2</title>
<g id="a_Node000002"><a xlink:title=" ">
<polygon fill="#e0e0e0" stroke="#999999" points="80.25,-19.25 23,-19.25 23,0 80.25,0 80.25,-19.25"/>
<text xml:space="preserve" text-anchor="middle" x="51.62" y="-5.75" font-family="Helvetica,sans-Serif" font-size="10.00">Arduino.h</text>
</a>
</g>
</g>
<!-- Node1&#45;&gt;Node2 -->
<g id="edge1_Node000001_Node000002" class="edge">
<title>Node1&#45;&gt;Node2</title>
<g id="a_edge1_Node000001_Node000002"><a xlink:title=" ">
<path fill="none" stroke="#63b8ff" d="M74.78,-165.32C71.25,-147.83 63.5,-108.15 58.62,-74.5 56.54,-60.08 54.76,-43.74 53.52,-31.2"/>
<polygon fill="#63b8ff" stroke="#63b8ff" points="57,-30.88 52.57,-21.25 50.03,-31.54 57,-30.88"/>
</a>
</g>
</g>
<!-- Node3 -->
<g id="Node000003" class="node">
<title>Node3</title>
<g id="a_Node000003"><a xlink:href="_odometry_8hpp.html" target="_top" xlink:title=" ">
<polygon fill="white" stroke="#666666" points="176.12,-129.75 79.12,-129.75 79.12,-110.5 176.12,-110.5 176.12,-129.75"/>
<text xml:space="preserve" text-anchor="middle" x="127.62" y="-116.25" font-family="Helvetica,sans-Serif" font-size="10.00">utils/Odometry.hpp</text>
</a>
</g>
</g>
<!-- Node1&#45;&gt;Node3 -->
<g id="edge2_Node000001_Node000003" class="edge">
<title>Node1&#45;&gt;Node3</title>
<g id="a_edge2_Node000001_Node000003"><a xlink:title=" ">
<path fill="none" stroke="#63b8ff" d="M85.05,-165.58C92.16,-158.15 102.57,-147.29 111.31,-138.16"/>
<polygon fill="#63b8ff" stroke="#63b8ff" points="113.58,-140.85 117.97,-131.2 108.53,-136 113.58,-140.85"/>
</a>
</g>
</g>
<!-- Node4 -->
<g id="Node000004" class="node">
<title>Node4</title>
<g id="a_Node000004"><a xlink:href="_encoder_wrapper_8hpp.html" target="_top" xlink:title=" ">
<polygon fill="white" stroke="#666666" points="212.12,-74.5 67.12,-74.5 67.12,-55.25 212.12,-55.25 212.12,-74.5"/>
<text xml:space="preserve" text-anchor="middle" x="139.62" y="-61" font-family="Helvetica,sans-Serif" font-size="10.00">Devices/EncoderWrapper.hpp</text>
</a>
</g>
</g>
<!-- Node3&#45;&gt;Node4 -->
<g id="edge3_Node000003_Node000004" class="edge">
<title>Node3&#45;&gt;Node4</title>
<g id="a_edge3_Node000003_Node000004"><a xlink:title=" ">
<path fill="none" stroke="#63b8ff" d="M129.61,-110.33C131.09,-103.74 133.18,-94.46 135.07,-86.07"/>
<polygon fill="#63b8ff" stroke="#63b8ff" points="138.48,-86.86 137.27,-76.34 131.65,-85.32 138.48,-86.86"/>
</a>
</g>
</g>
<!-- Node4&#45;&gt;Node2 -->
<g id="edge4_Node000004_Node000002" class="edge">
<title>Node4&#45;&gt;Node2</title>
<g id="a_edge4_Node000004_Node000002"><a xlink:title=" ">
<path fill="none" stroke="#63b8ff" d="M124.7,-54.84C111.42,-46.81 91.76,-34.91 76.17,-25.48"/>
<polygon fill="#63b8ff" stroke="#63b8ff" points="78.29,-22.67 67.92,-20.49 74.66,-28.66 78.29,-22.67"/>
</a>
</g>
</g>
<!-- Node5 -->
<g id="Node000005" class="node">
<title>Node5</title>
<g id="a_Node000005"><a xlink:title=" ">
<polygon fill="#e0e0e0" stroke="#999999" points="169.38,-19.25 109.88,-19.25 109.88,0 169.38,0 169.38,-19.25"/>
<text xml:space="preserve" text-anchor="middle" x="139.62" y="-5.75" font-family="Helvetica,sans-Serif" font-size="10.00">Encoder.h</text>
</a>
</g>
</g>
<!-- Node4&#45;&gt;Node5 -->
<g id="edge5_Node000004_Node000005" class="edge">
<title>Node4&#45;&gt;Node5</title>
<g id="a_edge5_Node000004_Node000005"><a xlink:title=" ">
<path fill="none" stroke="#63b8ff" d="M139.62,-55.08C139.62,-48.57 139.62,-39.42 139.62,-31.12"/>
<polygon fill="#63b8ff" stroke="#63b8ff" points="143.13,-31.12 139.63,-21.12 136.13,-31.12 143.13,-31.12"/>
</a>
</g>
</g>
</g>
</svg>
