<?xml version="1.0" encoding="UTF-8" standalone="no"?>
<!DOCTYPE svg PUBLIC "-//W3C//DTD SVG 1.1//EN"
 "http://www.w3.org/Graphics/SVG/1.1/DTD/svg11.dtd">
<!-- Generated by graphviz version 14.1.2 (20260124.0452)
 -->
<!-- Title: src/Devices/ServoControl.hpp Pages: 1 -->
<svg width="161pt" height="83pt"
 viewBox="0.00 0.00 161.00 83.00" xmlns="http://www.w3.org/2000/svg" xmlns:xlink="http://www.w3.org/1999/xlink">
<g id="graph0" class="graph" transform="scale(1 1) rotate(0) translate(4 78.5)">
<title>src/Devices/ServoControl.hpp</title>
<!-- Node1 -->
<g id="Node000001" class="node">
<title>Node1</title>
<g id="a_Node000001"><a xlink:title=" ">
<polygon fill="#999999" stroke="#666666" points="147.25,-74.5 0,-74.5 0,-55.25 147.25,-55.25 147.25,-74.5"/>
<text xml:space="preserve" text-anchor="middle" x="73.62" y="-61" font-family="Helvetica,sans-Serif" font-size="10.00">src/Devices/ServoControl.hpp</text>
</a>
</g>
</g>
<!-- Node2 -->
<g id="Node000002" class="node">
<title>Node2</title>
<g id="a_Node000002"><a xlink:title=" ">
<polygon fill="#e0e0e0" stroke="#999999" points="60.25,-19.25 3,-19.25 3,0 60.25,0 60.25,-19.25"/>
<text xml:space="preserve" text-anchor="middle" x="31.62" y="-5.75" font-family="Helvetica,sans-Serif" font-size="10.00">Arduino.h</text>
</a>
</g>
</g>
<!-- Node1&#45;&gt;Node2 -->
<g id="edge1_Node000001_Node000002" class="edge">
<title>Node1&#45;&gt;Node2</title>
<g id="a_edge1_Node000001_Node000002"><a xlink:title=" ">
<path fill="none" stroke="#63b8ff" d="M66.69,-55.08C61.01,-47.88 52.79,-37.46 45.73,-28.51"/>
<polygon fill="#63b8ff" stroke="#63b8ff" points="48.59,-26.48 39.65,-20.8 43.09,-30.82 48.59,-26.48"/>
</a>
</g>
</g>
<!-- Node3 -->
<g id="Node000003" class="node">
<title>Node3</title>
<g id="a_Node000003"><a xlink:title=" ">
<polygon fill="#e0e0e0" stroke="#999999" points="152.88,-19.25 78.38,-19.25 78.38,0 152.88,0 152.88,-19.25"/>
<text xml:space="preserve" text-anchor="middle" x="115.62" y="-5.75" font-family="Helvetica,sans-Serif" font-size="10.00">PWMServo.h</text>
</a>
</g>
</g>
<!-- Node1&#45;&gt;Node3 -->
<g id="edge2_Node000001_Node000003" class="edge">
<title>Node1&#45;&gt;Node3</title>
<g id="a_edge2_Node000001_Node000003"><a xlink:title=" ">
<path fill="none" stroke="#63b8ff" d="M80.56,-55.08C86.24,-47.88 94.46,-37.46 101.52,-28.51"/>
<polygon fill="#63b8ff" stroke="#63b8ff" points="104.16,-30.82 107.6,-20.8 98.66,-26.48 104.16,-30.82"/>
</a>
</g>
</g>
</g>
</svg>
