<?xml version="1.0" encoding="UTF-8" standalone="no"?>
<!DOCTYPE svg PUBLIC "-//W3C//DTD SVG 1.1//EN"
 "http://www.w3.org/Graphics/SVG/1.1/DTD/svg11.dtd">
<!-- Generated by graphviz version 14.1.2 (20260124.0452)
 -->
<!-- Title: src/subsystems/Shooter.hpp Pages: 1 -->
<svg width="591pt" height="216pt"
 viewBox="0.00 0.00 591.00 216.00" xmlns="http://www.w3.org/2000/svg" xmlns:xlink="http://www.w3.org/1999/xlink">
<g id="graph0" class="graph" transform="scale(1 1) rotate(0) translate(4 211.5)">
<title>src/subsystems/Shooter.hpp</title>
<!-- Node1 -->
<g id="Node000001" class="node">
<title>Node1</title>
<g id="a_Node000001"><a xlink:title="Rack&#45;and&#45;pinion block shooter subsystem.">
<polygon fill="#999999" stroke="#666666" points="325.88,-207.5 185.38,-207.5 185.38,-188.25 325.88,-188.25 325.88,-207.5"/>
<text xml:space="preserve" text-anchor="middle" x="255.62" y="-194" font-family="Helvetica,sans-Serif" font-size="10.00">src/subsystems/Shooter.hpp</text>
</a>
</g>
</g>
<!-- Node2 -->
<g id="Node000002" class="node">
<title>Node2</title>
<g id="a_Node000002"><a xlink:href="_planner_8hpp.html" target="_top" xlink:title="High&#45;level autonomous planner used with ReplanStep.">
<polygon fill="white" stroke="#666666" points="141.25,-146.62 0,-146.62 0,-127.38 141.25,-127.38 141.25,-146.62"/>
<text xml:space="preserve" text-anchor="middle" x="70.62" y="-133.12" font-family="Helvetica,sans-Serif" font-size="10.00">src/Autonomous/Planner.hpp</text>
</a>
</g>
</g>
<!-- Node1&#45;&gt;Node2 -->
<g id="edge1_Node000001_Node000002" class="edge">
<title>Node1&#45;&gt;Node2</title>
<g id="a_edge1_Node000001_Node000002"><a xlink:title=" ">
<path fill="none" stroke="#63b8ff" d="M216.31,-184.36C181.17,-173.18 130.54,-157.07 99.16,-147.08"/>
<polygon fill="#63b8ff" stroke="#63b8ff" points="215.09,-187.65 225.68,-187.35 217.21,-180.98 215.09,-187.65"/>
</a>
</g>
</g>
<!-- Node4 -->
<g id="Node000004" class="node">
<title>Node4</title>
<g id="a_Node000004"><a xlink:href="_robot_8hpp.html" target="_top" xlink:title="Top&#45;level robot class that owns all subsystems and the autonomous scheduler.">
<polygon fill="white" stroke="#666666" points="294.38,-85.75 216.88,-85.75 216.88,-66.5 294.38,-66.5 294.38,-85.75"/>
<text xml:space="preserve" text-anchor="middle" x="255.62" y="-72.25" font-family="Helvetica,sans-Serif" font-size="10.00">src/Robot.hpp</text>
</a>
</g>
</g>
<!-- Node1&#45;&gt;Node4 -->
<g id="edge12_Node000001_Node000004" class="edge">
<title>Node1&#45;&gt;Node4</title>
<g id="a_edge12_Node000001_Node000004"><a xlink:title=" ">
<path fill="none" stroke="#63b8ff" d="M221.52,-182.74C208.81,-175.6 195.76,-165.57 188.62,-152.25 182.23,-140.3 182.23,-133.7 188.62,-121.75 197.66,-104.87 216.22,-93.28 231.51,-86.15"/>
<polygon fill="#63b8ff" stroke="#63b8ff" points="219.67,-185.72 230.16,-187.16 222.86,-179.49 219.67,-185.72"/>
</a>
</g>
</g>
<!-- Node7 -->
<g id="Node000007" class="node">
<title>Node7</title>
<g id="a_Node000007"><a xlink:href="_delay_step_8hpp.html" target="_top" xlink:title="AutoStep that blocks for a fixed number of milliseconds.">
<polygon fill="white" stroke="#666666" points="313.5,-152.25 197.75,-152.25 197.75,-121.75 313.5,-121.75 313.5,-152.25"/>
<text xml:space="preserve" text-anchor="start" x="205.75" y="-138.75" font-family="Helvetica,sans-Serif" font-size="10.00">src/Autonomous/Steps</text>
<text xml:space="preserve" text-anchor="middle" x="255.62" y="-127.5" font-family="Helvetica,sans-Serif" font-size="10.00">/DelayStep.hpp</text>
</a>
</g>
</g>
<!-- Node1&#45;&gt;Node7 -->
<g id="edge6_Node000001_Node000007" class="edge">
<title>Node1&#45;&gt;Node7</title>
<g id="a_edge6_Node000001_Node000007"><a xlink:title=" ">
<path fill="none" stroke="#63b8ff" d="M255.62,-176.67C255.62,-168.74 255.62,-159.81 255.62,-152.53"/>
<polygon fill="#63b8ff" stroke="#63b8ff" points="252.13,-176.42 255.63,-186.42 259.13,-176.42 252.13,-176.42"/>
</a>
</g>
</g>
<!-- Node8 -->
<g id="Node000008" class="node">
<title>Node8</title>
<g id="a_Node000008"><a xlink:href="_fire_step_8hpp.html" target="_top" xlink:title="AutoStep that fires the shooter for a fixed duration, then stops it.">
<polygon fill="white" stroke="#666666" points="447.5,-152.25 331.75,-152.25 331.75,-121.75 447.5,-121.75 447.5,-152.25"/>
<text xml:space="preserve" text-anchor="start" x="339.75" y="-138.75" font-family="Helvetica,sans-Serif" font-size="10.00">src/Autonomous/Steps</text>
<text xml:space="preserve" text-anchor="middle" x="389.62" y="-127.5" font-family="Helvetica,sans-Serif" font-size="10.00">/FireStep.hpp</text>
</a>
</g>
</g>
<!-- Node1&#45;&gt;Node8 -->
<g id="edge8_Node000001_Node000008" class="edge">
<title>Node1&#45;&gt;Node8</title>
<g id="a_edge8_Node000001_Node000008"><a xlink:title=" ">
<path fill="none" stroke="#63b8ff" d="M286.78,-183.19C307.58,-174.05 334.92,-162.04 356.18,-152.69"/>
<polygon fill="#63b8ff" stroke="#63b8ff" points="285.4,-179.97 277.65,-187.2 288.22,-186.38 285.4,-179.97"/>
</a>
</g>
</g>
<!-- Node9 -->
<g id="Node000009" class="node">
<title>Node9</title>
<g id="a_Node000009"><a xlink:href="_mine_block_autofire_8hpp.html" target="_top" xlink:title="AutoStep that mines and simultaneously autofires the shooter for a time window.">
<polygon fill="white" stroke="#666666" points="583.25,-152.25 466,-152.25 466,-121.75 583.25,-121.75 583.25,-152.25"/>
<text xml:space="preserve" text-anchor="start" x="474" y="-138.75" font-family="Helvetica,sans-Serif" font-size="10.00">src/Autonomous/Steps</text>
<text xml:space="preserve" text-anchor="middle" x="524.62" y="-127.5" font-family="Helvetica,sans-Serif" font-size="10.00">/MineBlockAutofire.hpp</text>
</a>
</g>
</g>
<!-- Node1&#45;&gt;Node9 -->
<g id="edge10_Node000001_Node000009" class="edge">
<title>Node1&#45;&gt;Node9</title>
<g id="a_edge10_Node000001_Node000009"><a xlink:title=" ">
<path fill="none" stroke="#63b8ff" d="M308.11,-185.39C353.36,-175.48 418.62,-161.2 465.66,-150.91"/>
<polygon fill="#63b8ff" stroke="#63b8ff" points="307.57,-181.92 298.55,-187.48 309.06,-188.76 307.57,-181.92"/>
</a>
</g>
</g>
<!-- Node3 -->
<g id="Node000003" class="node">
<title>Node3</title>
<g id="a_Node000003"><a xlink:href="_planner_8cpp.html" target="_top" xlink:title="Implementation of the autonomous Planner state machine.">
<polygon fill="white" stroke="#666666" points="141.25,-85.75 0,-85.75 0,-66.5 141.25,-66.5 141.25,-85.75"/>
<text xml:space="preserve" text-anchor="middle" x="70.62" y="-72.25" font-family="Helvetica,sans-Serif" font-size="10.00">src/Autonomous/Planner.cpp</text>
</a>
</g>
</g>
<!-- Node2&#45;&gt;Node3 -->
<g id="edge2_Node000002_Node000003" class="edge">
<title>Node2&#45;&gt;Node3</title>
<g id="a_edge2_Node000002_Node000003"><a xlink:title=" ">
<path fill="none" stroke="#63b8ff" d="M70.62,-115.57C70.62,-105.54 70.62,-93.96 70.62,-86.15"/>
<polygon fill="#63b8ff" stroke="#63b8ff" points="67.13,-115.54 70.63,-125.54 74.13,-115.54 67.13,-115.54"/>
</a>
</g>
</g>
<!-- Node2&#45;&gt;Node4 -->
<g id="edge3_Node000002_Node000004" class="edge">
<title>Node2&#45;&gt;Node4</title>
<g id="a_edge3_Node000002_Node000004"><a xlink:title=" ">
<path fill="none" stroke="#63b8ff" d="M109.94,-123.49C145.08,-112.31 195.71,-96.19 227.09,-86.21"/>
<polygon fill="#63b8ff" stroke="#63b8ff" points="109.04,-120.1 100.57,-126.47 111.16,-126.77 109.04,-120.1"/>
</a>
</g>
</g>
<!-- Node5 -->
<g id="Node000005" class="node">
<title>Node5</title>
<g id="a_Node000005"><a xlink:href="_strategy_controller_step_8hpp.html" target="_top" xlink:title="High&#45;level AutoStep that runs the full strategy loop inline.">
<polygon fill="white" stroke="#666666" points="262,-30.5 125.25,-30.5 125.25,0 262,0 262,-30.5"/>
<text xml:space="preserve" text-anchor="start" x="133.25" y="-17" font-family="Helvetica,sans-Serif" font-size="10.00">src/Autonomous/Steps</text>
<text xml:space="preserve" text-anchor="middle" x="193.62" y="-5.75" font-family="Helvetica,sans-Serif" font-size="10.00">/StrategyControllerStep.hpp</text>
</a>
</g>
</g>
<!-- Node4&#45;&gt;Node5 -->
<g id="edge4_Node000004_Node000005" class="edge">
<title>Node4&#45;&gt;Node5</title>
<g id="a_edge4_Node000004_Node000005"><a xlink:title=" ">
<path fill="none" stroke="#63b8ff" d="M238.14,-58.52C228.94,-49.79 217.78,-39.18 208.93,-30.78"/>
<polygon fill="#63b8ff" stroke="#63b8ff" points="235.45,-60.79 245.11,-65.14 240.27,-55.72 235.45,-60.79"/>
</a>
</g>
</g>
<!-- Node6 -->
<g id="Node000006" class="node">
<title>Node6</title>
<g id="a_Node000006"><a xlink:href="main_8cpp.html" target="_top" xlink:title="Arduino entry point — instantiates the Robot and drives the main loop.">
<polygon fill="white" stroke="#666666" points="352.75,-24.88 280.5,-24.88 280.5,-5.63 352.75,-5.63 352.75,-24.88"/>
<text xml:space="preserve" text-anchor="middle" x="316.62" y="-11.38" font-family="Helvetica,sans-Serif" font-size="10.00">src/main.cpp</text>
</a>
</g>
</g>
<!-- Node4&#45;&gt;Node6 -->
<g id="edge5_Node000004_Node000006" class="edge">
<title>Node4&#45;&gt;Node6</title>
<g id="a_edge5_Node000004_Node000006"><a xlink:title=" ">
<path fill="none" stroke="#63b8ff" d="M273.06,-58.3C284.19,-47.55 298.19,-34.04 307.27,-25.28"/>
<polygon fill="#63b8ff" stroke="#63b8ff" points="270.74,-55.67 265.98,-65.13 275.6,-60.71 270.74,-55.67"/>
</a>
</g>
</g>
<!-- Node7&#45;&gt;Node4 -->
<g id="edge7_Node000007_Node000004" class="edge">
<title>Node7&#45;&gt;Node4</title>
<g id="a_edge7_Node000007_Node000004"><a xlink:title=" ">
<path fill="none" stroke="#63b8ff" d="M255.62,-109.98C255.62,-101.48 255.62,-92.59 255.62,-86.2"/>
<polygon fill="#63b8ff" stroke="#63b8ff" points="252.13,-109.93 255.63,-119.93 259.13,-109.93 252.13,-109.93"/>
</a>
</g>
</g>
<!-- Node8&#45;&gt;Node4 -->
<g id="edge9_Node000008_Node000004" class="edge">
<title>Node8&#45;&gt;Node4</title>
<g id="a_edge9_Node000008_Node000004"><a xlink:title=" ">
<path fill="none" stroke="#63b8ff" d="M345.75,-116.72C322.34,-106.44 294.63,-94.26 276.18,-86.15"/>
<polygon fill="#63b8ff" stroke="#63b8ff" points="344.21,-119.87 354.77,-120.69 347.02,-113.46 344.21,-119.87"/>
</a>
</g>
</g>
<!-- Node9&#45;&gt;Node4 -->
<g id="edge11_Node000009_Node000004" class="edge">
<title>Node9&#45;&gt;Node4</title>
<g id="a_edge11_Node000009_Node000004"><a xlink:title=" ">
<path fill="none" stroke="#63b8ff" d="M454.64,-120.68C403.62,-109.52 336.37,-94.8 294.58,-85.65"/>
<polygon fill="#63b8ff" stroke="#63b8ff" points="453.6,-124.04 464.11,-122.76 455.09,-117.2 453.6,-124.04"/>
</a>
</g>
</g>
</g>
</svg>
