<?xml version="1.0" encoding="UTF-8" standalone="no"?>
<!DOCTYPE svg PUBLIC "-//W3C//DTD SVG 1.1//EN"
 "http://www.w3.org/Graphics/SVG/1.1/DTD/svg11.dtd">
<!-- Generated by graphviz version 14.1.2 (20260124.0452)
 -->
<!-- Title: src/Devices/Solenoid.hpp Pages: 1 -->
<svg width="532pt" height="337pt"
 viewBox="0.00 0.00 532.00 337.00" xmlns="http://www.w3.org/2000/svg" xmlns:xlink="http://www.w3.org/1999/xlink">
<g id="graph0" class="graph" transform="scale(1 1) rotate(0) translate(4 333.25)">
<title>src/Devices/Solenoid.hpp</title>
<!-- Node1 -->
<g id="Node000001" class="node">
<title>Node1</title>
<g id="a_Node000001"><a xlink:title=" ">
<polygon fill="#999999" stroke="#666666" points="274.5,-329.25 146.75,-329.25 146.75,-310 274.5,-310 274.5,-329.25"/>
<text xml:space="preserve" text-anchor="middle" x="210.62" y="-315.75" font-family="Helvetica,sans-Serif" font-size="10.00">src/Devices/Solenoid.hpp</text>
</a>
</g>
</g>
<!-- Node2 -->
<g id="Node000002" class="node">
<title>Node2</title>
<g id="a_Node000002"><a xlink:href="_miner_8hpp.html" target="_top" xlink:title=" ">
<polygon fill="white" stroke="#666666" points="230,-274 99.25,-274 99.25,-254.75 230,-254.75 230,-274"/>
<text xml:space="preserve" text-anchor="middle" x="164.62" y="-260.5" font-family="Helvetica,sans-Serif" font-size="10.00">src/subsystems/Miner.hpp</text>
</a>
</g>
</g>
<!-- Node1&#45;&gt;Node2 -->
<g id="edge1_Node000001_Node000002" class="edge">
<title>Node1&#45;&gt;Node2</title>
<g id="a_edge1_Node000001_Node000002"><a xlink:title=" ">
<path fill="none" stroke="#63b8ff" d="M195.62,-301.26C187.87,-292.28 178.72,-281.7 172.39,-274.36"/>
<polygon fill="#63b8ff" stroke="#63b8ff" points="192.85,-303.41 202.04,-308.69 198.15,-298.83 192.85,-303.41"/>
</a>
</g>
</g>
<!-- Node9 -->
<g id="Node000009" class="node">
<title>Node9</title>
<g id="a_Node000009"><a xlink:href="_shooter_8hpp.html" target="_top" xlink:title=" ">
<polygon fill="white" stroke="#666666" points="375.88,-213.12 235.38,-213.12 235.38,-193.88 375.88,-193.88 375.88,-213.12"/>
<text xml:space="preserve" text-anchor="middle" x="305.62" y="-199.62" font-family="Helvetica,sans-Serif" font-size="10.00">src/subsystems/Shooter.hpp</text>
</a>
</g>
</g>
<!-- Node1&#45;&gt;Node9 -->
<g id="edge11_Node000001_Node000009" class="edge">
<title>Node1&#45;&gt;Node9</title>
<g id="a_edge11_Node000001_Node000009"><a xlink:title=" ">
<path fill="none" stroke="#63b8ff" d="M225.34,-300.94C245.93,-276.21 282.56,-232.21 298.21,-213.41"/>
<polygon fill="#63b8ff" stroke="#63b8ff" points="222.76,-298.58 219.05,-308.51 228.14,-303.06 222.76,-298.58"/>
</a>
</g>
</g>
<!-- Node3 -->
<g id="Node000003" class="node">
<title>Node3</title>
<g id="a_Node000003"><a xlink:href="_planner_8hpp.html" target="_top" xlink:title=" ">
<polygon fill="white" stroke="#666666" points="141.25,-146.62 0,-146.62 0,-127.38 141.25,-127.38 141.25,-146.62"/>
<text xml:space="preserve" text-anchor="middle" x="70.62" y="-133.12" font-family="Helvetica,sans-Serif" font-size="10.00">src/Autonomous/Planner.hpp</text>
</a>
</g>
</g>
<!-- Node2&#45;&gt;Node3 -->
<g id="edge2_Node000002_Node000003" class="edge">
<title>Node2&#45;&gt;Node3</title>
<g id="a_edge2_Node000002_Node000003"><a xlink:title=" ">
<path fill="none" stroke="#63b8ff" d="M98.36,-250.61C81.3,-244 64.87,-233.97 54.62,-218.75 39.54,-196.35 55.45,-163.01 64.81,-147.09"/>
<polygon fill="#63b8ff" stroke="#63b8ff" points="96.99,-253.84 107.59,-253.8 99.28,-247.22 96.99,-253.84"/>
</a>
</g>
</g>
<!-- Node5 -->
<g id="Node000005" class="node">
<title>Node5</title>
<g id="a_Node000005"><a xlink:href="_robot_8hpp.html" target="_top" xlink:title=" ">
<polygon fill="white" stroke="#666666" points="265.38,-85.75 187.88,-85.75 187.88,-66.5 265.38,-66.5 265.38,-85.75"/>
<text xml:space="preserve" text-anchor="middle" x="226.62" y="-72.25" font-family="Helvetica,sans-Serif" font-size="10.00">src/Robot.hpp</text>
</a>
</g>
</g>
<!-- Node2&#45;&gt;Node5 -->
<g id="edge10_Node000002_Node000005" class="edge">
<title>Node2&#45;&gt;Node5</title>
<g id="a_edge10_Node000002_Node000005"><a xlink:title=" ">
<path fill="none" stroke="#63b8ff" d="M175.98,-244.6C180.36,-236.8 185.14,-227.53 188.62,-218.75 207.88,-170.24 220.66,-108.61 224.99,-85.97"/>
<polygon fill="#63b8ff" stroke="#63b8ff" points="173.01,-242.73 170.99,-253.14 179.06,-246.26 173.01,-242.73"/>
</a>
</g>
</g>
<!-- Node8 -->
<g id="Node000008" class="node">
<title>Node8</title>
<g id="a_Node000008"><a xlink:href="_mine_block_8hpp.html" target="_top" xlink:title=" ">
<polygon fill="white" stroke="#666666" points="179.5,-218.75 63.75,-218.75 63.75,-188.25 179.5,-188.25 179.5,-218.75"/>
<text xml:space="preserve" text-anchor="start" x="71.75" y="-205.25" font-family="Helvetica,sans-Serif" font-size="10.00">src/Autonomous/Steps</text>
<text xml:space="preserve" text-anchor="middle" x="121.62" y="-194" font-family="Helvetica,sans-Serif" font-size="10.00">/MineBlock.hpp</text>
</a>
</g>
</g>
<!-- Node2&#45;&gt;Node8 -->
<g id="edge7_Node000002_Node000008" class="edge">
<title>Node2&#45;&gt;Node8</title>
<g id="a_edge7_Node000002_Node000008"><a xlink:title=" ">
<path fill="none" stroke="#63b8ff" d="M151.5,-245.4C145.33,-236.95 138.06,-227 132.24,-219.03"/>
<polygon fill="#63b8ff" stroke="#63b8ff" points="148.48,-247.2 157.2,-253.21 154.13,-243.07 148.48,-247.2"/>
</a>
</g>
</g>
<!-- Node4 -->
<g id="Node000004" class="node">
<title>Node4</title>
<g id="a_Node000004"><a xlink:href="_planner_8cpp.html" target="_top" xlink:title=" ">
<polygon fill="white" stroke="#666666" points="141.25,-85.75 0,-85.75 0,-66.5 141.25,-66.5 141.25,-85.75"/>
<text xml:space="preserve" text-anchor="middle" x="70.62" y="-72.25" font-family="Helvetica,sans-Serif" font-size="10.00">src/Autonomous/Planner.cpp</text>
</a>
</g>
</g>
<!-- Node3&#45;&gt;Node4 -->
<g id="edge3_Node000003_Node000004" class="edge">
<title>Node3&#45;&gt;Node4</title>
<g id="a_edge3_Node000003_Node000004"><a xlink:title=" ">
<path fill="none" stroke="#63b8ff" d="M70.62,-115.57C70.62,-105.54 70.62,-93.96 70.62,-86.15"/>
<polygon fill="#63b8ff" stroke="#63b8ff" points="67.13,-115.54 70.63,-125.54 74.13,-115.54 67.13,-115.54"/>
</a>
</g>
</g>
<!-- Node3&#45;&gt;Node5 -->
<g id="edge4_Node000003_Node000005" class="edge">
<title>Node3&#45;&gt;Node5</title>
<g id="a_edge4_Node000003_Node000005"><a xlink:title=" ">
<path fill="none" stroke="#63b8ff" d="M105.33,-122.9C134.88,-111.75 176.56,-96.02 202.56,-86.21"/>
<polygon fill="#63b8ff" stroke="#63b8ff" points="104.19,-119.59 96.07,-126.4 106.67,-126.14 104.19,-119.59"/>
</a>
</g>
</g>
<!-- Node6 -->
<g id="Node000006" class="node">
<title>Node6</title>
<g id="a_Node000006"><a xlink:href="_strategy_controller_step_8hpp.html" target="_top" xlink:title=" ">
<polygon fill="white" stroke="#666666" points="233,-30.5 96.25,-30.5 96.25,0 233,0 233,-30.5"/>
<text xml:space="preserve" text-anchor="start" x="104.25" y="-17" font-family="Helvetica,sans-Serif" font-size="10.00">src/Autonomous/Steps</text>
<text xml:space="preserve" text-anchor="middle" x="164.62" y="-5.75" font-family="Helvetica,sans-Serif" font-size="10.00">/StrategyControllerStep.hpp</text>
</a>
</g>
</g>
<!-- Node5&#45;&gt;Node6 -->
<g id="edge5_Node000005_Node000006" class="edge">
<title>Node5&#45;&gt;Node6</title>
<g id="a_edge5_Node000005_Node000006"><a xlink:title=" ">
<path fill="none" stroke="#63b8ff" d="M209.14,-58.52C199.94,-49.79 188.78,-39.18 179.93,-30.78"/>
<polygon fill="#63b8ff" stroke="#63b8ff" points="206.45,-60.79 216.11,-65.14 211.27,-55.72 206.45,-60.79"/>
</a>
</g>
</g>
<!-- Node7 -->
<g id="Node000007" class="node">
<title>Node7</title>
<g id="a_Node000007"><a xlink:href="main_8cpp.html" target="_top" xlink:title=" ">
<polygon fill="white" stroke="#666666" points="323.75,-24.88 251.5,-24.88 251.5,-5.63 323.75,-5.63 323.75,-24.88"/>
<text xml:space="preserve" text-anchor="middle" x="287.62" y="-11.38" font-family="Helvetica,sans-Serif" font-size="10.00">src/main.cpp</text>
</a>
</g>
</g>
<!-- Node5&#45;&gt;Node7 -->
<g id="edge6_Node000005_Node000007" class="edge">
<title>Node5&#45;&gt;Node7</title>
<g id="a_edge6_Node000005_Node000007"><a xlink:title=" ">
<path fill="none" stroke="#63b8ff" d="M244.06,-58.3C255.19,-47.55 269.19,-34.04 278.27,-25.28"/>
<polygon fill="#63b8ff" stroke="#63b8ff" points="241.74,-55.67 236.98,-65.13 246.6,-60.71 241.74,-55.67"/>
</a>
</g>
</g>
<!-- Node8&#45;&gt;Node3 -->
<g id="edge8_Node000008_Node000003" class="edge">
<title>Node8&#45;&gt;Node3</title>
<g id="a_edge8_Node000008_Node000003"><a xlink:title=" ">
<path fill="none" stroke="#63b8ff" d="M103.01,-178.95C94.16,-167.77 84.13,-155.07 77.6,-146.82"/>
<polygon fill="#63b8ff" stroke="#63b8ff" points="100.17,-181 109.11,-186.68 105.66,-176.66 100.17,-181"/>
</a>
</g>
</g>
<!-- Node8&#45;&gt;Node5 -->
<g id="edge9_Node000008_Node000005" class="edge">
<title>Node8&#45;&gt;Node5</title>
<g id="a_edge9_Node000008_Node000005"><a xlink:title=" ">
<path fill="none" stroke="#63b8ff" d="M141.01,-179.35C164.52,-151.28 203,-105.33 219.13,-86.07"/>
<polygon fill="#63b8ff" stroke="#63b8ff" points="138.38,-177.04 134.64,-186.96 143.75,-181.54 138.38,-177.04"/>
</a>
</g>
</g>
<!-- Node9&#45;&gt;Node3 -->
<g id="edge12_Node000009_Node000003" class="edge">
<title>Node9&#45;&gt;Node3</title>
<g id="a_edge12_Node000009_Node000003"><a xlink:title=" ">
<path fill="none" stroke="#63b8ff" d="M261.36,-190.35C215.48,-177.76 144.84,-158.37 103.63,-147.06"/>
<polygon fill="#63b8ff" stroke="#63b8ff" points="260.42,-193.72 270.99,-192.99 262.28,-186.97 260.42,-193.72"/>
</a>
</g>
</g>
<!-- Node9&#45;&gt;Node5 -->
<g id="edge17_Node000009_Node000005" class="edge">
<title>Node9&#45;&gt;Node5</title>
<g id="a_edge17_Node000009_Node000005"><a xlink:title=" ">
<path fill="none" stroke="#63b8ff" d="M290.04,-185.31C281.93,-175.92 272.17,-163.86 264.62,-152.25 249.81,-129.46 236.46,-100.13 230.27,-85.79"/>
<polygon fill="#63b8ff" stroke="#63b8ff" points="287.2,-187.38 296.44,-192.56 292.45,-182.75 287.2,-187.38"/>
</a>
</g>
</g>
<!-- Node10 -->
<g id="Node000010" class="node">
<title>Node10</title>
<g id="a_Node000010"><a xlink:href="_delay_step_8hpp.html" target="_top" xlink:title=" ">
<polygon fill="white" stroke="#666666" points="389.5,-152.25 273.75,-152.25 273.75,-121.75 389.5,-121.75 389.5,-152.25"/>
<text xml:space="preserve" text-anchor="start" x="281.75" y="-138.75" font-family="Helvetica,sans-Serif" font-size="10.00">src/Autonomous/Steps</text>
<text xml:space="preserve" text-anchor="middle" x="331.62" y="-127.5" font-family="Helvetica,sans-Serif" font-size="10.00">/DelayStep.hpp</text>
</a>
</g>
</g>
<!-- Node9&#45;&gt;Node10 -->
<g id="edge13_Node000009_Node000010" class="edge">
<title>Node9&#45;&gt;Node10</title>
<g id="a_edge13_Node000009_Node000010"><a xlink:title=" ">
<path fill="none" stroke="#63b8ff" d="M313.45,-183.09C317.43,-173.21 322.19,-161.4 325.84,-152.34"/>
<polygon fill="#63b8ff" stroke="#63b8ff" points="310.3,-181.54 309.81,-192.13 316.79,-184.16 310.3,-181.54"/>
</a>
</g>
</g>
<!-- Node11 -->
<g id="Node000011" class="node">
<title>Node11</title>
<g id="a_Node000011"><a xlink:href="_fire_step_8hpp.html" target="_top" xlink:title=" ">
<polygon fill="white" stroke="#666666" points="523.5,-152.25 407.75,-152.25 407.75,-121.75 523.5,-121.75 523.5,-152.25"/>
<text xml:space="preserve" text-anchor="start" x="415.75" y="-138.75" font-family="Helvetica,sans-Serif" font-size="10.00">src/Autonomous/Steps</text>
<text xml:space="preserve" text-anchor="middle" x="465.62" y="-127.5" font-family="Helvetica,sans-Serif" font-size="10.00">/FireStep.hpp</text>
</a>
</g>
</g>
<!-- Node9&#45;&gt;Node11 -->
<g id="edge15_Node000009_Node000011" class="edge">
<title>Node9&#45;&gt;Node11</title>
<g id="a_edge15_Node000009_Node000011"><a xlink:title=" ">
<path fill="none" stroke="#63b8ff" d="M338.82,-189.12C365.22,-178.48 402.1,-163.61 429.29,-152.65"/>
<polygon fill="#63b8ff" stroke="#63b8ff" points="337.58,-185.84 329.61,-192.83 340.2,-192.34 337.58,-185.84"/>
</a>
</g>
</g>
<!-- Node10&#45;&gt;Node5 -->
<g id="edge14_Node000010_Node000005" class="edge">
<title>Node10&#45;&gt;Node5</title>
<g id="a_edge14_Node000010_Node000005"><a xlink:title=" ">
<path fill="none" stroke="#63b8ff" d="M295.5,-115.74C277.54,-105.67 256.73,-94.01 242.73,-86.15"/>
<polygon fill="#63b8ff" stroke="#63b8ff" points="293.65,-118.72 304.08,-120.55 297.07,-112.61 293.65,-118.72"/>
</a>
</g>
</g>
<!-- Node11&#45;&gt;Node5 -->
<g id="edge16_Node000011_Node000005" class="edge">
<title>Node11&#45;&gt;Node5</title>
<g id="a_edge16_Node000011_Node000005"><a xlink:title=" ">
<path fill="none" stroke="#63b8ff" d="M396.39,-118.95C352.97,-108.25 298.72,-94.89 263.4,-86.18"/>
<polygon fill="#63b8ff" stroke="#63b8ff" points="395.45,-122.32 406,-121.31 397.12,-115.52 395.45,-122.32"/>
</a>
</g>
</g>
</g>
</svg>
