<?xml version="1.0" encoding="UTF-8" standalone="no"?>
<!DOCTYPE svg PUBLIC "-//W3C//DTD SVG 1.1//EN"
 "http://www.w3.org/Graphics/SVG/1.1/DTD/svg11.dtd">
<!-- Generated by graphviz version 14.1.2 (20260124.0452)
 -->
<!-- Title: Miner::stop Pages: 1 -->
<svg width="398pt" height="27pt"
 viewBox="0.00 0.00 398.00 27.00" xmlns="http://www.w3.org/2000/svg" xmlns:xlink="http://www.w3.org/1999/xlink">
<g id="graph0" class="graph" transform="scale(1 1) rotate(0) translate(4 23.25)">
<title>Miner::stop</title>
<!-- Node1 -->
<g id="Node000001" class="node">
<title>Node1</title>
<g id="a_Node000001"><a xlink:title=" ">
<polygon fill="#999999" stroke="#666666" points="64.75,-19.25 0,-19.25 0,0 64.75,0 64.75,-19.25"/>
<text xml:space="preserve" text-anchor="middle" x="32.38" y="-5.75" font-family="Helvetica,sans-Serif" font-size="10.00">Miner::stop</text>
</a>
</g>
</g>
<!-- Node2 -->
<g id="Node000002" class="node">
<title>Node2</title>
<g id="a_Node000002"><a xlink:href="class_miner.html#a26f3ff0ceeae35f37c087bbb17767f17" target="_top" xlink:title=" ">
<polygon fill="white" stroke="#666666" points="226.25,-19.25 100.75,-19.25 100.75,0 226.25,0 226.25,-19.25"/>
<text xml:space="preserve" text-anchor="middle" x="163.5" y="-5.75" font-family="Helvetica,sans-Serif" font-size="10.00">Miner::stopMiningInternal</text>
</a>
</g>
</g>
<!-- Node1&#45;&gt;Node2 -->
<g id="edge1_Node000001_Node000002" class="edge">
<title>Node1&#45;&gt;Node2</title>
<g id="a_edge1_Node000001_Node000002"><a xlink:title=" ">
<path fill="none" stroke="#63b8ff" d="M64.96,-9.62C72.35,-9.62 80.53,-9.62 88.92,-9.62"/>
<polygon fill="#63b8ff" stroke="#63b8ff" points="88.92,-13.13 98.92,-9.63 88.92,-6.13 88.92,-13.13"/>
</a>
</g>
</g>
<!-- Node3 -->
<g id="Node000003" class="node">
<title>Node3</title>
<g id="a_Node000003"><a xlink:href="class_miner.html#a437a0fdc0f9be6b0ffc27da25ab928b1" target="_top" xlink:title=" ">
<polygon fill="white" stroke="#666666" points="390,-19.25 262.25,-19.25 262.25,0 390,0 390,-19.25"/>
<text xml:space="preserve" text-anchor="middle" x="326.12" y="-5.75" font-family="Helvetica,sans-Serif" font-size="10.00">Miner::setServoToRetract</text>
</a>
</g>
</g>
<!-- Node2&#45;&gt;Node3 -->
<g id="edge2_Node000002_Node000003" class="edge">
<title>Node2&#45;&gt;Node3</title>
<g id="a_edge2_Node000002_Node000003"><a xlink:title=" ">
<path fill="none" stroke="#63b8ff" d="M226.6,-9.62C234.46,-9.62 242.57,-9.62 250.6,-9.62"/>
<polygon fill="#63b8ff" stroke="#63b8ff" points="250.35,-13.13 260.35,-9.63 250.35,-6.13 250.35,-13.13"/>
</a>
</g>
</g>
</g>
</svg>
