<?xml version="1.0" encoding="UTF-8" standalone="no"?>
<!DOCTYPE svg PUBLIC "-//W3C//DTD SVG 1.1//EN"
 "http://www.w3.org/Graphics/SVG/1.1/DTD/svg11.dtd">
<!-- Generated by graphviz version 14.1.2 (20260124.0452)
 -->
<!-- Title: Robot Pages: 1 -->
<svg width="751pt" height="601pt"
 viewBox="0.00 0.00 751.00 601.00" xmlns="http://www.w3.org/2000/svg" xmlns:xlink="http://www.w3.org/1999/xlink">
<g id="graph0" class="graph" transform="scale(1 1) rotate(0) translate(4 597.29)">
<title>Robot</title>
<!-- Node1 -->
<g id="Node000001" class="node">
<title>Node1</title>
<g id="a_Node000001"><a xlink:title=" ">
<polygon fill="#999999" stroke="#666666" points="742.5,-458.93 700.25,-458.93 700.25,-439.68 742.5,-439.68 742.5,-458.93"/>
<text xml:space="preserve" text-anchor="middle" x="721.38" y="-445.43" font-family="Helvetica,sans-Serif" font-size="10.00">Robot</text>
</a>
</g>
</g>
<!-- Node2 -->
<g id="Node000002" class="node">
<title>Node2</title>
<g id="a_Node000002"><a xlink:href="class_drive.html" target="_top" xlink:title=" ">
<polygon fill="white" stroke="#666666" points="572.38,-217.93 533.12,-217.93 533.12,-198.68 572.38,-198.68 572.38,-217.93"/>
<text xml:space="preserve" text-anchor="middle" x="552.75" y="-204.43" font-family="Helvetica,sans-Serif" font-size="10.00">Drive</text>
</a>
</g>
</g>
<!-- Node2&#45;&gt;Node1 -->
<g id="edge1_Node000001_Node000002" class="edge">
<title>Node2&#45;&gt;Node1</title>
<g id="a_edge1_Node000001_Node000002"><a xlink:title=" ">
<path fill="none" stroke="#9a32cd" stroke-dasharray="5,2" d="M567.21,-227.78C600.92,-276.54 688.1,-402.63 713.4,-439.22"/>
<polygon fill="#9a32cd" stroke="#9a32cd" points="570.12,-225.84 561.56,-219.6 564.37,-229.82 570.12,-225.84"/>
</a>
</g>
<text xml:space="preserve" text-anchor="start" x="642.12" y="-395.82" font-family="Helvetica,sans-Serif" font-size="10.00" fill="grey">drive</text>
</g>
<!-- Node3 -->
<g id="Node000003" class="node">
<title>Node3</title>
<g id="a_Node000003"><a xlink:href="class_subsystem.html" target="_top" xlink:title=" ">
<polygon fill="white" stroke="#666666" points="360.25,-535.93 294.75,-535.93 294.75,-516.68 360.25,-516.68 360.25,-535.93"/>
<text xml:space="preserve" text-anchor="middle" x="327.5" y="-522.43" font-family="Helvetica,sans-Serif" font-size="10.00">Subsystem</text>
</a>
</g>
</g>
<!-- Node3&#45;&gt;Node1 -->
<g id="edge25_Node000001_Node000003" class="edge">
<title>Node3&#45;&gt;Node1</title>
<g id="a_edge25_Node000001_Node000003"><a xlink:title=" ">
<path fill="none" stroke="#9a32cd" stroke-dasharray="5,2" d="M359.34,-540.74C370.89,-545.41 384.29,-549.98 397,-552.31 522.26,-575.28 580.3,-601.62 682.25,-525.31 704.35,-508.77 714.51,-475.84 718.38,-459.29"/>
<polygon fill="#9a32cd" stroke="#9a32cd" points="360.89,-537.59 350.31,-536.89 358.14,-544.03 360.89,-537.59"/>
</a>
</g>
<text xml:space="preserve" text-anchor="start" x="526.12" y="-580.79" font-family="Helvetica,sans-Serif" font-size="10.00" fill="grey">subsystems</text>
</g>
<!-- Node3&#45;&gt;Node2 -->
<g id="edge2_Node000002_Node000003" class="edge">
<title>Node3&#45;&gt;Node2</title>
<g id="a_edge2_Node000002_Node000003"><a xlink:title=" ">
<path fill="none" stroke="#63b8ff" d="M358.2,-509.85C366.14,-504.05 373.92,-496.81 379,-488.31 406.21,-442.77 362.71,-410.79 397,-370.31 422.85,-339.8 452.05,-368.23 482.5,-342.31 523.18,-307.69 543,-243.15 549.37,-218.36"/>
<polygon fill="#63b8ff" stroke="#63b8ff" points="356.27,-506.93 349.86,-515.36 360.13,-512.76 356.27,-506.93"/>
</a>
</g>
</g>
<!-- Node14 -->
<g id="Node000014" class="node">
<title>Node14</title>
<g id="a_Node000014"><a xlink:href="class_miner.html" target="_top" xlink:title=" ">
<polygon fill="white" stroke="#666666" points="572.75,-478.93 532.75,-478.93 532.75,-459.68 572.75,-459.68 572.75,-478.93"/>
<text xml:space="preserve" text-anchor="middle" x="552.75" y="-465.43" font-family="Helvetica,sans-Serif" font-size="10.00">Miner</text>
</a>
</g>
</g>
<!-- Node3&#45;&gt;Node14 -->
<g id="edge14_Node000014_Node000003" class="edge">
<title>Node3&#45;&gt;Node14</title>
<g id="a_edge14_Node000014_Node000003"><a xlink:title=" ">
<path fill="none" stroke="#63b8ff" d="M372.09,-527.65C403.54,-527.36 446.61,-524.33 482.5,-512.31 483.23,-512.06 515.32,-492.06 535.56,-479.43"/>
<polygon fill="#63b8ff" stroke="#63b8ff" points="372.16,-524.15 362.15,-527.64 372.15,-531.15 372.16,-524.15"/>
</a>
</g>
</g>
<!-- Node16 -->
<g id="Node000016" class="node">
<title>Node16</title>
<g id="a_Node000016"><a xlink:href="class_shooter.html" target="_top" xlink:title=" ">
<polygon fill="white" stroke="#666666" points="577.62,-438.93 527.88,-438.93 527.88,-419.68 577.62,-419.68 577.62,-438.93"/>
<text xml:space="preserve" text-anchor="middle" x="552.75" y="-425.43" font-family="Helvetica,sans-Serif" font-size="10.00">Shooter</text>
</a>
</g>
</g>
<!-- Node3&#45;&gt;Node16 -->
<g id="edge17_Node000016_Node000003" class="edge">
<title>Node3&#45;&gt;Node16</title>
<g id="a_edge17_Node000016_Node000003"><a xlink:title=" ">
<path fill="none" stroke="#63b8ff" d="M371.9,-519.51C411.27,-512.61 465.66,-501.01 482.5,-487.31 496.68,-475.77 487.16,-462.82 500.5,-450.31 508,-443.27 518.19,-438.45 527.5,-435.22"/>
<polygon fill="#63b8ff" stroke="#63b8ff" points="371.49,-516.03 362.22,-521.16 372.67,-522.93 371.49,-516.03"/>
</a>
</g>
</g>
<!-- Node18 -->
<g id="Node000018" class="node">
<title>Node18</title>
<g id="a_Node000018"><a xlink:href="class_serial_coms.html" target="_top" xlink:title=" ">
<polygon fill="white" stroke="#666666" points="586.25,-529.93 519.25,-529.93 519.25,-510.68 586.25,-510.68 586.25,-529.93"/>
<text xml:space="preserve" text-anchor="middle" x="552.75" y="-516.43" font-family="Helvetica,sans-Serif" font-size="10.00">SerialComs</text>
</a>
</g>
</g>
<!-- Node3&#45;&gt;Node18 -->
<g id="edge22_Node000018_Node000003" class="edge">
<title>Node3&#45;&gt;Node18</title>
<g id="a_edge22_Node000018_Node000003"><a xlink:title=" ">
<path fill="none" stroke="#63b8ff" d="M371.58,-534.3C379.98,-535.55 388.75,-536.65 397,-537.31 434.88,-540.33 444.77,-541.87 482.5,-537.31 494.54,-535.85 507.52,-533.02 518.94,-530.08"/>
<polygon fill="#63b8ff" stroke="#63b8ff" points="372.35,-530.88 361.93,-532.76 371.25,-537.79 372.35,-530.88"/>
</a>
</g>
</g>
<!-- Node4 -->
<g id="Node000004" class="node">
<title>Node4</title>
<g id="a_Node000004"><a xlink:href="class_encoder_wrapper.html" target="_top" xlink:title=" ">
<polygon fill="white" stroke="#666666" points="371.5,-337.93 283.5,-337.93 283.5,-318.68 371.5,-318.68 371.5,-337.93"/>
<text xml:space="preserve" text-anchor="middle" x="327.5" y="-324.43" font-family="Helvetica,sans-Serif" font-size="10.00">EncoderWrapper</text>
</a>
</g>
</g>
<!-- Node4&#45;&gt;Node2 -->
<g id="edge3_Node000002_Node000004" class="edge">
<title>Node4&#45;&gt;Node2</title>
<g id="a_edge3_Node000002_Node000004"><a xlink:title=" ">
<path fill="none" stroke="#9a32cd" stroke-dasharray="5,2" d="M345.21,-310.3C358.18,-297.31 377.24,-280.29 397,-269.81 431.82,-251.35 445.98,-261.11 482.5,-246.31 501.69,-238.53 522.34,-226.71 536.04,-218.32"/>
<polygon fill="#9a32cd" stroke="#9a32cd" points="342.75,-307.81 338.32,-317.43 347.78,-312.67 342.75,-307.81"/>
</a>
</g>
<text xml:space="preserve" text-anchor="start" x="409.75" y="-289.81" font-family="Helvetica,sans-Serif" font-size="10.00" fill="grey">_leftEncoder</text>
<text xml:space="preserve" text-anchor="start" x="409.75" y="-274.56" font-family="Helvetica,sans-Serif" font-size="10.00" fill="grey">_rightEncoder</text>
</g>
<!-- Node4&#45;&gt;Node16 -->
<g id="edge20_Node000016_Node000004" class="edge">
<title>Node4&#45;&gt;Node16</title>
<g id="a_edge20_Node000016_Node000004"><a xlink:title=" ">
<path fill="none" stroke="#9a32cd" stroke-dasharray="5,2" d="M361.04,-343.03C407.1,-363.87 490.07,-401.4 529.62,-419.3"/>
<polygon fill="#9a32cd" stroke="#9a32cd" points="362.65,-339.92 352.1,-338.99 359.77,-346.3 362.65,-339.92"/>
</a>
</g>
<text xml:space="preserve" text-anchor="start" x="422.5" y="-401.39" font-family="Helvetica,sans-Serif" font-size="10.00" fill="grey">encoder</text>
</g>
<!-- Node5 -->
<g id="Node000005" class="node">
<title>Node5</title>
<g id="a_Node000005"><a xlink:href="class_line_sensor.html" target="_top" xlink:title=" ">
<polygon fill="white" stroke="#666666" points="359.88,-157.93 295.12,-157.93 295.12,-138.68 359.88,-138.68 359.88,-157.93"/>
<text xml:space="preserve" text-anchor="middle" x="327.5" y="-144.43" font-family="Helvetica,sans-Serif" font-size="10.00">LineSensor</text>
</a>
</g>
</g>
<!-- Node5&#45;&gt;Node2 -->
<g id="edge4_Node000002_Node000005" class="edge">
<title>Node5&#45;&gt;Node2</title>
<g id="a_edge4_Node000002_Node000005"><a xlink:title=" ">
<path fill="none" stroke="#9a32cd" stroke-dasharray="5,2" d="M371.59,-146.97C403.14,-147.29 446.54,-150.45 482.5,-163.06 505,-170.95 527.44,-187.63 540.43,-198.39"/>
<polygon fill="#9a32cd" stroke="#9a32cd" points="371.63,-143.47 361.63,-146.98 371.63,-150.47 371.63,-143.47"/>
</a>
</g>
<text xml:space="preserve" text-anchor="start" x="414.25" y="-167.81" font-family="Helvetica,sans-Serif" font-size="10.00" fill="grey">_lineSensor</text>
</g>
<!-- Node6 -->
<g id="Node000006" class="node">
<title>Node6</title>
<g id="a_Node000006"><a xlink:href="class_dual_motor_controller.html" target="_top" xlink:title=" ">
<polygon fill="white" stroke="#666666" points="379,-268.93 276,-268.93 276,-249.68 379,-249.68 379,-268.93"/>
<text xml:space="preserve" text-anchor="middle" x="327.5" y="-255.43" font-family="Helvetica,sans-Serif" font-size="10.00">DualMotorController</text>
</a>
</g>
</g>
<!-- Node6&#45;&gt;Node2 -->
<g id="edge5_Node000002_Node000006" class="edge">
<title>Node6&#45;&gt;Node2</title>
<g id="a_edge5_Node000002_Node000006"><a xlink:title=" ">
<path fill="none" stroke="#9a32cd" stroke-dasharray="5,2" d="M357.69,-244.24C369.6,-238.67 383.68,-232.81 397,-229.06 444.75,-215.61 503.31,-210.79 532.82,-209.13"/>
<polygon fill="#9a32cd" stroke="#9a32cd" points="356.28,-241.03 348.81,-248.54 359.33,-247.33 356.28,-241.03"/>
</a>
</g>
<text xml:space="preserve" text-anchor="start" x="403.75" y="-233.81" font-family="Helvetica,sans-Serif" font-size="10.00" fill="grey">_motorController</text>
</g>
<!-- Node6&#45;&gt;Node16 -->
<g id="edge19_Node000016_Node000006" class="edge">
<title>Node6&#45;&gt;Node16</title>
<g id="a_edge19_Node000016_Node000006"><a xlink:title=" ">
<path fill="none" stroke="#9a32cd" stroke-dasharray="5,2" d="M352.62,-275.65C365.52,-284.08 381.83,-294.26 397,-302.31 433.69,-321.79 449.77,-314.48 482.5,-340.06 512.02,-363.13 536.04,-401.45 546.33,-419.43"/>
<polygon fill="#9a32cd" stroke="#9a32cd" points="354.63,-272.78 344.36,-270.18 350.76,-278.62 354.63,-272.78"/>
</a>
</g>
<text xml:space="preserve" text-anchor="start" x="427.38" y="-344.81" font-family="Helvetica,sans-Serif" font-size="10.00" fill="grey">motor</text>
</g>
<!-- Node7 -->
<g id="Node000007" class="node">
<title>Node7</title>
<g id="a_Node000007"><a xlink:href="class_l298_n_motor_driver_mega.html" target="_top" xlink:title=" ">
<polygon fill="white" stroke="#666666" points="189.75,-248.93 70.25,-248.93 70.25,-229.68 189.75,-229.68 189.75,-248.93"/>
<text xml:space="preserve" text-anchor="middle" x="130" y="-235.43" font-family="Helvetica,sans-Serif" font-size="10.00">L298NMotorDriverMega</text>
</a>
</g>
</g>
<!-- Node7&#45;&gt;Node6 -->
<g id="edge6_Node000006_Node000007" class="edge">
<title>Node7&#45;&gt;Node6</title>
<g id="a_edge6_Node000006_Node000007"><a xlink:title=" ">
<path fill="none" stroke="#9a32cd" stroke-dasharray="5,2" d="M201.35,-236.37C219.85,-236.52 239.74,-237.49 258,-240.06 271.09,-241.9 285.2,-245.57 297.2,-249.21"/>
<polygon fill="#9a32cd" stroke="#9a32cd" points="201.55,-232.87 191.56,-236.38 201.56,-239.87 201.55,-232.87"/>
</a>
</g>
<text xml:space="preserve" text-anchor="start" x="210.75" y="-244.81" font-family="Helvetica,sans-Serif" font-size="10.00" fill="grey">dualDriver</text>
</g>
<!-- Node8 -->
<g id="Node000008" class="node">
<title>Node8</title>
<g id="a_Node000008"><a xlink:href="class_p_i_d_controller.html" target="_top" xlink:title=" ">
<polygon fill="white" stroke="#666666" points="167.62,-288.93 92.38,-288.93 92.38,-269.68 167.62,-269.68 167.62,-288.93"/>
<text xml:space="preserve" text-anchor="middle" x="130" y="-275.43" font-family="Helvetica,sans-Serif" font-size="10.00">PIDController</text>
</a>
</g>
</g>
<!-- Node8&#45;&gt;Node6 -->
<g id="edge7_Node000006_Node000008" class="edge">
<title>Node8&#45;&gt;Node6</title>
<g id="a_edge7_Node000006_Node000008"><a xlink:title=" ">
<path fill="none" stroke="#9a32cd" stroke-dasharray="5,2" d="M178.97,-274.4C208.26,-271.41 245.68,-267.58 275.51,-264.53"/>
<polygon fill="#9a32cd" stroke="#9a32cd" points="178.87,-270.89 169.28,-275.39 179.58,-277.86 178.87,-270.89"/>
</a>
</g>
<text xml:space="preserve" text-anchor="start" x="221.25" y="-291.1" font-family="Helvetica,sans-Serif" font-size="10.00" fill="grey">_pid1</text>
<text xml:space="preserve" text-anchor="start" x="221.25" y="-275.85" font-family="Helvetica,sans-Serif" font-size="10.00" fill="grey">_pid2</text>
</g>
<!-- Node9 -->
<g id="Node000009" class="node">
<title>Node9</title>
<g id="a_Node000009"><a xlink:href="class_p_i_d.html" target="_top" xlink:title=" ">
<polygon fill="white" stroke="#666666" points="33.25,-288.93 0,-288.93 0,-269.68 33.25,-269.68 33.25,-288.93"/>
<text xml:space="preserve" text-anchor="middle" x="16.62" y="-275.43" font-family="Helvetica,sans-Serif" font-size="10.00">PID</text>
</a>
</g>
</g>
<!-- Node9&#45;&gt;Node8 -->
<g id="edge8_Node000008_Node000009" class="edge">
<title>Node9&#45;&gt;Node8</title>
<g id="a_edge8_Node000008_Node000009"><a xlink:title=" ">
<path fill="none" stroke="#63b8ff" d="M45.01,-279.31C59.14,-279.31 76.58,-279.31 91.9,-279.31"/>
<polygon fill="#63b8ff" stroke="#63b8ff" points="45.1,-275.81 35.1,-279.31 45.1,-282.81 45.1,-275.81"/>
</a>
</g>
</g>
<!-- Node10 -->
<g id="Node000010" class="node">
<title>Node10</title>
<g id="a_Node000010"><a xlink:href="class_sharp_g_p2_y0_a51.html" target="_top" xlink:title=" ">
<polygon fill="white" stroke="#666666" points="372.62,-197.93 282.38,-197.93 282.38,-178.68 372.62,-178.68 372.62,-197.93"/>
<text xml:space="preserve" text-anchor="middle" x="327.5" y="-184.43" font-family="Helvetica,sans-Serif" font-size="10.00">SharpGP2Y0A51</text>
</a>
</g>
</g>
<!-- Node10&#45;&gt;Node2 -->
<g id="edge9_Node000002_Node000010" class="edge">
<title>Node10&#45;&gt;Node2</title>
<g id="a_edge9_Node000002_Node000010"><a xlink:title=" ">
<path fill="none" stroke="#9a32cd" stroke-dasharray="5,2" d="M384.16,-185.03C413.54,-184.19 450.12,-184.56 482.5,-189.06 499.8,-191.46 518.89,-196.99 532.64,-201.51"/>
<polygon fill="#9a32cd" stroke="#9a32cd" points="384.25,-181.52 374.38,-185.37 384.49,-188.52 384.25,-181.52"/>
</a>
</g>
<text xml:space="preserve" text-anchor="start" x="413.88" y="-193.81" font-family="Helvetica,sans-Serif" font-size="10.00" fill="grey">_distSensor</text>
</g>
<!-- Node11 -->
<g id="Node000011" class="node">
<title>Node11</title>
<g id="a_Node000011"><a xlink:href="class_odometry.html" target="_top" xlink:title=" ">
<polygon fill="white" stroke="#666666" points="356.88,-61.93 298.12,-61.93 298.12,-42.68 356.88,-42.68 356.88,-61.93"/>
<text xml:space="preserve" text-anchor="middle" x="327.5" y="-48.43" font-family="Helvetica,sans-Serif" font-size="10.00">Odometry</text>
</a>
</g>
</g>
<!-- Node11&#45;&gt;Node2 -->
<g id="edge10_Node000002_Node000011" class="edge">
<title>Node11&#45;&gt;Node2</title>
<g id="a_edge10_Node000002_Node000011"><a xlink:title=" ">
<path fill="none" stroke="#9a32cd" stroke-dasharray="5,2" d="M368.37,-46.53C402.02,-43.88 449.81,-45.6 482.5,-69.81 498.66,-81.77 491.8,-93.19 500.5,-111.31 516,-143.59 536.37,-180.77 546.1,-198.25"/>
<polygon fill="#9a32cd" stroke="#9a32cd" points="368.23,-43.03 358.61,-47.48 368.9,-50 368.23,-43.03"/>
</a>
</g>
<text xml:space="preserve" text-anchor="start" x="400" y="-89.81" font-family="Helvetica,sans-Serif" font-size="10.00" fill="grey">_desiredOdometry</text>
<text xml:space="preserve" text-anchor="start" x="400" y="-74.56" font-family="Helvetica,sans-Serif" font-size="10.00" fill="grey">_odometry</text>
</g>
<!-- Node12 -->
<g id="Node000012" class="node">
<title>Node12</title>
<g id="a_Node000012"><a xlink:href="struct_odometry_1_1_pose2_d.html" target="_top" xlink:title=" ">
<polygon fill="white" stroke="#666666" points="180,-61.93 80,-61.93 80,-42.68 180,-42.68 180,-61.93"/>
<text xml:space="preserve" text-anchor="middle" x="130" y="-48.43" font-family="Helvetica,sans-Serif" font-size="10.00">Odometry::Pose2D</text>
</a>
</g>
</g>
<!-- Node12&#45;&gt;Node11 -->
<g id="edge11_Node000011_Node000012" class="edge">
<title>Node12&#45;&gt;Node11</title>
<g id="a_edge11_Node000011_Node000012"><a xlink:title=" ">
<path fill="none" stroke="#9a32cd" stroke-dasharray="5,2" d="M191.53,-52.31C226.93,-52.31 270,-52.31 297.81,-52.31"/>
<polygon fill="#9a32cd" stroke="#9a32cd" points="191.85,-48.81 181.85,-52.31 191.85,-55.81 191.85,-48.81"/>
</a>
</g>
<text xml:space="preserve" text-anchor="start" x="219.75" y="-57.06" font-family="Helvetica,sans-Serif" font-size="10.00" fill="grey">_pose</text>
</g>
<!-- Node13 -->
<g id="Node000013" class="node">
<title>Node13</title>
<g id="a_Node000013"><a xlink:href="class_ramsete_controller.html" target="_top" xlink:title=" ">
<polygon fill="white" stroke="#666666" points="376.38,-117.93 278.62,-117.93 278.62,-98.68 376.38,-98.68 376.38,-117.93"/>
<text xml:space="preserve" text-anchor="middle" x="327.5" y="-104.43" font-family="Helvetica,sans-Serif" font-size="10.00">RamseteController</text>
</a>
</g>
</g>
<!-- Node13&#45;&gt;Node2 -->
<g id="edge12_Node000002_Node000013" class="edge">
<title>Node13&#45;&gt;Node2</title>
<g id="a_edge12_Node000002_Node000013"><a xlink:title=" ">
<path fill="none" stroke="#9a32cd" stroke-dasharray="5,2" d="M387.83,-105.58C417.8,-106.6 453.78,-111.63 482.5,-127.06 513.52,-143.73 536.64,-180.41 546.5,-198.22"/>
<polygon fill="#9a32cd" stroke="#9a32cd" points="388.25,-102.09 378.18,-105.4 388.12,-109.09 388.25,-102.09"/>
</a>
</g>
<text xml:space="preserve" text-anchor="start" x="419.5" y="-131.81" font-family="Helvetica,sans-Serif" font-size="10.00" fill="grey">_ramsete</text>
</g>
<!-- Node14&#45;&gt;Node1 -->
<g id="edge13_Node000001_Node000014" class="edge">
<title>Node14&#45;&gt;Node1</title>
<g id="a_edge13_Node000001_Node000014"><a xlink:title=" ">
<path fill="none" stroke="#9a32cd" stroke-dasharray="5,2" d="M584.61,-465.61C618.17,-461.58 670.88,-455.25 699.76,-451.78"/>
<polygon fill="#9a32cd" stroke="#9a32cd" points="584.2,-462.13 574.69,-466.8 585.04,-469.08 584.2,-462.13"/>
</a>
</g>
<text xml:space="preserve" text-anchor="start" x="640.62" y="-465.26" font-family="Helvetica,sans-Serif" font-size="10.00" fill="grey">miner</text>
</g>
<!-- Node15 -->
<g id="Node000015" class="node">
<title>Node15</title>
<g id="a_Node000015"><a xlink:href="class_servo_control.html" target="_top" xlink:title=" ">
<polygon fill="white" stroke="#666666" points="364,-478.93 291,-478.93 291,-459.68 364,-459.68 364,-478.93"/>
<text xml:space="preserve" text-anchor="middle" x="327.5" y="-465.43" font-family="Helvetica,sans-Serif" font-size="10.00">ServoControl</text>
</a>
</g>
</g>
<!-- Node15&#45;&gt;Node14 -->
<g id="edge15_Node000014_Node000015" class="edge">
<title>Node15&#45;&gt;Node14</title>
<g id="a_edge15_Node000014_Node000015"><a xlink:title=" ">
<path fill="none" stroke="#9a32cd" stroke-dasharray="5,2" d="M375.87,-469.31C424.57,-469.31 497.99,-469.31 532.52,-469.31"/>
<polygon fill="#9a32cd" stroke="#9a32cd" points="375.88,-465.81 365.88,-469.31 375.88,-472.81 375.88,-465.81"/>
</a>
</g>
<text xml:space="preserve" text-anchor="start" x="427.75" y="-474.06" font-family="Helvetica,sans-Serif" font-size="10.00" fill="grey">servo</text>
</g>
<!-- Node16&#45;&gt;Node1 -->
<g id="edge16_Node000001_Node000016" class="edge">
<title>Node16&#45;&gt;Node1</title>
<g id="a_edge16_Node000001_Node000016"><a xlink:title=" ">
<path fill="none" stroke="#9a32cd" stroke-dasharray="5,2" d="M588.96,-426.84C615.03,-425.85 651.25,-426.26 682.25,-433.06 688.43,-434.42 694.87,-436.76 700.66,-439.25"/>
<polygon fill="#9a32cd" stroke="#9a32cd" points="589.09,-423.33 579.27,-427.3 589.42,-430.32 589.09,-423.33"/>
</a>
</g>
<text xml:space="preserve" text-anchor="start" x="636.5" y="-437.81" font-family="Helvetica,sans-Serif" font-size="10.00" fill="grey">shooter</text>
</g>
<!-- Node17 -->
<g id="Node000017" class="node">
<title>Node17</title>
<g id="a_Node000017"><a xlink:href="class_button.html" target="_top" xlink:title=" ">
<polygon fill="white" stroke="#666666" points="349.75,-438.93 305.25,-438.93 305.25,-419.68 349.75,-419.68 349.75,-438.93"/>
<text xml:space="preserve" text-anchor="middle" x="327.5" y="-425.43" font-family="Helvetica,sans-Serif" font-size="10.00">Button</text>
</a>
</g>
</g>
<!-- Node17&#45;&gt;Node16 -->
<g id="edge18_Node000016_Node000017" class="edge">
<title>Node17&#45;&gt;Node16</title>
<g id="a_edge18_Node000016_Node000017"><a xlink:title=" ">
<path fill="none" stroke="#9a32cd" stroke-dasharray="5,2" d="M361.41,-429.31C406.68,-429.31 487.13,-429.31 527.38,-429.31"/>
<polygon fill="#9a32cd" stroke="#9a32cd" points="361.42,-425.81 351.42,-429.31 361.42,-432.81 361.42,-425.81"/>
</a>
</g>
<text xml:space="preserve" text-anchor="start" x="411.25" y="-434.06" font-family="Helvetica,sans-Serif" font-size="10.00" fill="grey">block_switch</text>
</g>
<!-- Node18&#45;&gt;Node1 -->
<g id="edge21_Node000001_Node000018" class="edge">
<title>Node18&#45;&gt;Node1</title>
<g id="a_edge21_Node000001_Node000018"><a xlink:title=" ">
<path fill="none" stroke="#9a32cd" stroke-dasharray="5,2" d="M597.51,-511.67C623.2,-505.48 655.73,-495.67 682.25,-481.31 693.04,-475.46 703.59,-466.26 710.85,-459.22"/>
<polygon fill="#9a32cd" stroke="#9a32cd" points="597.03,-508.19 588.07,-513.84 598.6,-515.01 597.03,-508.19"/>
</a>
</g>
<text xml:space="preserve" text-anchor="start" x="627.88" y="-509.15" font-family="Helvetica,sans-Serif" font-size="10.00" fill="grey">serialComs</text>
</g>
<!-- Node19 -->
<g id="Node000019" class="node">
<title>Node19</title>
<g id="a_Node000019"><a xlink:href="class_autonomous_routine.html" target="_top" xlink:title=" ">
<polygon fill="white" stroke="#666666" points="605,-101.93 500.5,-101.93 500.5,-82.68 605,-82.68 605,-101.93"/>
<text xml:space="preserve" text-anchor="middle" x="552.75" y="-88.43" font-family="Helvetica,sans-Serif" font-size="10.00">AutonomousRoutine</text>
</a>
</g>
</g>
<!-- Node19&#45;&gt;Node1 -->
<g id="edge23_Node000001_Node000019" class="edge">
<title>Node19&#45;&gt;Node1</title>
<g id="a_edge23_Node000001_Node000019"><a xlink:title=" ">
<path fill="none" stroke="#9a32cd" stroke-dasharray="5,2" d="M568.71,-110.93C595.39,-145.03 651.28,-220.69 682.25,-293.06 704.77,-345.68 715.67,-414.22 719.12,-439.44"/>
<polygon fill="#9a32cd" stroke="#9a32cd" points="571.6,-108.94 562.65,-103.27 566.11,-113.29 571.6,-108.94"/>
</a>
</g>
<text xml:space="preserve" text-anchor="start" x="626" y="-297.81" font-family="Helvetica,sans-Serif" font-size="10.00" fill="grey">autonomous</text>
</g>
<!-- Node20 -->
<g id="Node000020" class="node">
<title>Node20</title>
<g id="a_Node000020"><a xlink:href="class_auto_step.html" target="_top" xlink:title=" ">
<polygon fill="white" stroke="#666666" points="355.75,-21.93 299.25,-21.93 299.25,-2.68 355.75,-2.68 355.75,-21.93"/>
<text xml:space="preserve" text-anchor="middle" x="327.5" y="-8.43" font-family="Helvetica,sans-Serif" font-size="10.00">AutoStep</text>
</a>
</g>
</g>
<!-- Node20&#45;&gt;Node19 -->
<g id="edge24_Node000019_Node000020" class="edge">
<title>Node20&#45;&gt;Node19</title>
<g id="a_edge24_Node000019_Node000020"><a xlink:title=" ">
<path fill="none" stroke="#9a32cd" stroke-dasharray="5,2" d="M367.33,-3.98C399.66,1.02 446.12,3.57 482.5,-13.06 514.24,-27.57 537.17,-64.54 546.76,-82.38"/>
<polygon fill="#9a32cd" stroke="#9a32cd" points="366.86,-0.5 357.59,-5.64 368.04,-7.4 366.86,-0.5"/>
</a>
</g>
<text xml:space="preserve" text-anchor="start" x="425.12" y="-17.81" font-family="Helvetica,sans-Serif" font-size="10.00" fill="grey">_steps</text>
</g>
</g>
</svg>
