<?xml version="1.0" encoding="UTF-8" standalone="no"?>
<!DOCTYPE svg PUBLIC "-//W3C//DTD SVG 1.1//EN"
 "http://www.w3.org/Graphics/SVG/1.1/DTD/svg11.dtd">
<!-- Generated by graphviz version 14.1.2 (20260124.0452)
 -->
<!-- Title: Robot::update Pages: 1 -->
<svg width="581pt" height="152pt"
 viewBox="0.00 0.00 581.00 152.00" xmlns="http://www.w3.org/2000/svg" xmlns:xlink="http://www.w3.org/1999/xlink">
<g id="graph0" class="graph" transform="scale(1 1) rotate(0) translate(4 147.88)">
<title>Robot::update</title>
<!-- Node1 -->
<g id="Node000001" class="node">
<title>Node1</title>
<g id="a_Node000001"><a xlink:title=" ">
<polygon fill="#999999" stroke="#666666" points="77.5,-67.88 0,-67.88 0,-48.62 77.5,-48.62 77.5,-67.88"/>
<text xml:space="preserve" text-anchor="middle" x="38.75" y="-54.38" font-family="Helvetica,sans-Serif" font-size="10.00">Robot::update</text>
</a>
</g>
</g>
<!-- Node1&#45;&gt;Node1 -->
<g id="edge8_Node000001_Node000001" class="edge">
<title>Node1&#45;&gt;Node1</title>
<g id="a_edge8_Node000001_Node000001"><a xlink:title=" ">
<path fill="none" stroke="#63b8ff" d="M15.05,-68.16C4.24,-76.77 12.14,-85.88 38.75,-85.88 53.72,-85.88 62.77,-82.99 65.89,-78.94"/>
<polygon fill="#63b8ff" stroke="#63b8ff" points="69.29,-78.06 62.91,-69.6 62.62,-80.2 69.29,-78.06"/>
</a>
</g>
</g>
<!-- Node2 -->
<g id="Node000002" class="node">
<title>Node2</title>
<g id="a_Node000002"><a xlink:href="class_robot.html#aa5c02bb23e784c3d8198aad35b053492" target="_top" xlink:title=" ">
<polygon fill="white" stroke="#666666" points="266.75,-86.88 113.5,-86.88 113.5,-67.62 266.75,-67.62 266.75,-86.88"/>
<text xml:space="preserve" text-anchor="middle" x="190.12" y="-73.38" font-family="Helvetica,sans-Serif" font-size="10.00">Robot::processCommandString</text>
</a>
</g>
</g>
<!-- Node1&#45;&gt;Node2 -->
<g id="edge1_Node000001_Node000002" class="edge">
<title>Node1&#45;&gt;Node2</title>
<g id="a_edge1_Node000001_Node000002"><a xlink:title=" ">
<path fill="none" stroke="#63b8ff" d="M77.83,-63.09C85.26,-64.04 93.33,-65.06 101.62,-66.12"/>
<polygon fill="#63b8ff" stroke="#63b8ff" points="101.15,-69.59 111.51,-67.38 102.03,-62.64 101.15,-69.59"/>
</a>
</g>
</g>
<!-- Node7 -->
<g id="Node000007" class="node">
<title>Node7</title>
<g id="a_Node000007"><a xlink:href="class_robot.html#aa30787f35cda4828c6548061d6f5bb97" target="_top" xlink:title=" ">
<polygon fill="white" stroke="#666666" points="250.25,-49.88 130,-49.88 130,-30.62 250.25,-30.62 250.25,-49.88"/>
<text xml:space="preserve" text-anchor="middle" x="190.12" y="-36.38" font-family="Helvetica,sans-Serif" font-size="10.00">Robot::updateUsbSerial</text>
</a>
</g>
</g>
<!-- Node1&#45;&gt;Node7 -->
<g id="edge9_Node000001_Node000007" class="edge">
<title>Node1&#45;&gt;Node7</title>
<g id="a_edge9_Node000001_Node000007"><a xlink:title=" ">
<path fill="none" stroke="#63b8ff" d="M77.83,-53.66C90.24,-52.17 104.45,-50.45 118.46,-48.76"/>
<polygon fill="#63b8ff" stroke="#63b8ff" points="118.61,-52.27 128.12,-47.6 117.78,-45.32 118.61,-52.27"/>
</a>
</g>
</g>
<!-- Node3 -->
<g id="Node000003" class="node">
<title>Node3</title>
<g id="a_Node000003"><a xlink:href="class_robot.html#a2a309b38abaed08fcd6dc60b09f65ca2" target="_top" xlink:title=" ">
<polygon fill="white" stroke="#666666" points="460.12,-143.88 310.62,-143.88 310.62,-124.62 460.12,-124.62 460.12,-143.88"/>
<text xml:space="preserve" text-anchor="middle" x="385.38" y="-130.38" font-family="Helvetica,sans-Serif" font-size="10.00">Robot::handleGlobalCommand</text>
</a>
</g>
</g>
<!-- Node2&#45;&gt;Node3 -->
<g id="edge2_Node000002_Node000003" class="edge">
<title>Node2&#45;&gt;Node3</title>
<g id="a_edge2_Node000002_Node000003"><a xlink:title=" ">
<path fill="none" stroke="#63b8ff" d="M225.32,-87.37C247.41,-93.91 276.78,-102.59 302.75,-110.25 314.56,-113.73 327.33,-117.49 339.19,-120.98"/>
<polygon fill="#63b8ff" stroke="#63b8ff" points="338.18,-124.33 348.77,-123.79 340.16,-117.61 338.18,-124.33"/>
</a>
</g>
</g>
<!-- Node4 -->
<g id="Node000004" class="node">
<title>Node4</title>
<g id="a_Node000004"><a xlink:href="class_robot.html#a3defa2b851d1a9267d6dbe251373ba7d" target="_top" xlink:title=" ">
<polygon fill="white" stroke="#666666" points="573.25,-105.88 504,-105.88 504,-86.62 573.25,-86.62 573.25,-105.88"/>
<text xml:space="preserve" text-anchor="middle" x="538.62" y="-92.38" font-family="Helvetica,sans-Serif" font-size="10.00">Robot::reply</text>
</a>
</g>
</g>
<!-- Node2&#45;&gt;Node4 -->
<g id="edge7_Node000002_Node000004" class="edge">
<title>Node2&#45;&gt;Node4</title>
<g id="a_edge7_Node000002_Node000004"><a xlink:title=" ">
<path fill="none" stroke="#63b8ff" d="M267.17,-81.42C336.12,-85.2 435.46,-90.65 492.58,-93.78"/>
<polygon fill="#63b8ff" stroke="#63b8ff" points="492.07,-97.26 502.25,-94.31 492.46,-90.27 492.07,-97.26"/>
</a>
</g>
</g>
<!-- Node5 -->
<g id="Node000005" class="node">
<title>Node5</title>
<g id="a_Node000005"><a xlink:href="class_robot.html#aa0975008ed9aee31a6ff43d8289bedb5" target="_top" xlink:title=" ">
<polygon fill="white" stroke="#666666" points="468,-67.88 302.75,-67.88 302.75,-48.62 468,-48.62 468,-67.88"/>
<text xml:space="preserve" text-anchor="middle" x="385.38" y="-54.38" font-family="Helvetica,sans-Serif" font-size="10.00">Robot::handleSerialTestCommand</text>
</a>
</g>
</g>
<!-- Node2&#45;&gt;Node5 -->
<g id="edge4_Node000002_Node000005" class="edge">
<title>Node2&#45;&gt;Node5</title>
<g id="a_edge4_Node000002_Node000005"><a xlink:title=" ">
<path fill="none" stroke="#63b8ff" d="M267.23,-69.77C275.05,-69 283.06,-68.21 291.05,-67.43"/>
<polygon fill="#63b8ff" stroke="#63b8ff" points="291.18,-70.93 300.78,-66.47 290.49,-63.96 291.18,-70.93"/>
</a>
</g>
</g>
<!-- Node6 -->
<g id="Node000006" class="node">
<title>Node6</title>
<g id="a_Node000006"><a xlink:href="class_robot.html#a422a0be216adcf84334fd65325b20413" target="_top" xlink:title=" ">
<polygon fill="white" stroke="#666666" points="462.75,-30.5 308,-30.5 308,0 462.75,0 462.75,-30.5"/>
<text xml:space="preserve" text-anchor="start" x="316" y="-17" font-family="Helvetica,sans-Serif" font-size="10.00">Robot::parseCmdWithUpToTwo</text>
<text xml:space="preserve" text-anchor="middle" x="385.38" y="-5.75" font-family="Helvetica,sans-Serif" font-size="10.00">Floats</text>
</a>
</g>
</g>
<!-- Node2&#45;&gt;Node6 -->
<g id="edge6_Node000002_Node000006" class="edge">
<title>Node2&#45;&gt;Node6</title>
<g id="a_edge6_Node000002_Node000006"><a xlink:title=" ">
<path fill="none" stroke="#63b8ff" d="M241.75,-67.23C250.22,-64.98 258.82,-62.33 266.75,-59.25 283.81,-52.62 285.87,-46.32 302.75,-39.25 306.59,-37.64 310.57,-36.1 314.61,-34.63"/>
<polygon fill="#63b8ff" stroke="#63b8ff" points="315.68,-37.96 323.99,-31.38 313.39,-31.34 315.68,-37.96"/>
</a>
</g>
</g>
<!-- Node3&#45;&gt;Node4 -->
<g id="edge3_Node000003_Node000004" class="edge">
<title>Node3&#45;&gt;Node4</title>
<g id="a_edge3_Node000003_Node000004"><a xlink:title=" ">
<path fill="none" stroke="#63b8ff" d="M426.51,-124.17C446.98,-119.02 471.95,-112.75 493.02,-107.46"/>
<polygon fill="#63b8ff" stroke="#63b8ff" points="493.65,-110.91 502.49,-105.08 491.94,-104.12 493.65,-110.91"/>
</a>
</g>
</g>
<!-- Node5&#45;&gt;Node4 -->
<g id="edge5_Node000005_Node000004" class="edge">
<title>Node5&#45;&gt;Node4</title>
<g id="a_edge5_Node000005_Node000004"><a xlink:title=" ">
<path fill="none" stroke="#63b8ff" d="M426.51,-68.33C446.98,-73.48 471.95,-79.75 493.02,-85.04"/>
<polygon fill="#63b8ff" stroke="#63b8ff" points="491.94,-88.38 502.49,-87.42 493.65,-81.59 491.94,-88.38"/>
</a>
</g>
</g>
</g>
</svg>
