<?xml version="1.0" encoding="UTF-8" standalone="no"?>
<!DOCTYPE svg PUBLIC "-//W3C//DTD SVG 1.1//EN"
 "http://www.w3.org/Graphics/SVG/1.1/DTD/svg11.dtd">
<!-- Generated by graphviz version 14.1.2 (20260124.0452)
 -->
<!-- Title: Robot::processCommandString Pages: 1 -->
<svg width="468pt" height="152pt"
 viewBox="0.00 0.00 468.00 152.00" xmlns="http://www.w3.org/2000/svg" xmlns:xlink="http://www.w3.org/1999/xlink">
<g id="graph0" class="graph" transform="scale(1 1) rotate(0) translate(4 147.88)">
<title>Robot::processCommandString</title>
<!-- Node1 -->
<g id="Node000001" class="node">
<title>Node1</title>
<g id="a_Node000001"><a xlink:title=" ">
<polygon fill="#999999" stroke="#666666" points="153.25,-86.88 0,-86.88 0,-67.62 153.25,-67.62 153.25,-86.88"/>
<text xml:space="preserve" text-anchor="middle" x="76.62" y="-73.38" font-family="Helvetica,sans-Serif" font-size="10.00">Robot::processCommandString</text>
</a>
</g>
</g>
<!-- Node2 -->
<g id="Node000002" class="node">
<title>Node2</title>
<g id="a_Node000002"><a xlink:href="class_robot.html#a2a309b38abaed08fcd6dc60b09f65ca2" target="_top" xlink:title=" ">
<polygon fill="white" stroke="#666666" points="346.62,-143.88 197.12,-143.88 197.12,-124.62 346.62,-124.62 346.62,-143.88"/>
<text xml:space="preserve" text-anchor="middle" x="271.88" y="-130.38" font-family="Helvetica,sans-Serif" font-size="10.00">Robot::handleGlobalCommand</text>
</a>
</g>
</g>
<!-- Node1&#45;&gt;Node2 -->
<g id="edge1_Node000001_Node000002" class="edge">
<title>Node1&#45;&gt;Node2</title>
<g id="a_edge1_Node000001_Node000002"><a xlink:title=" ">
<path fill="none" stroke="#63b8ff" d="M111.82,-87.37C133.91,-93.91 163.28,-102.59 189.25,-110.25 201.06,-113.73 213.83,-117.49 225.69,-120.98"/>
<polygon fill="#63b8ff" stroke="#63b8ff" points="224.68,-124.33 235.27,-123.79 226.66,-117.61 224.68,-124.33"/>
</a>
</g>
</g>
<!-- Node3 -->
<g id="Node000003" class="node">
<title>Node3</title>
<g id="a_Node000003"><a xlink:href="class_robot.html#a3defa2b851d1a9267d6dbe251373ba7d" target="_top" xlink:title=" ">
<polygon fill="white" stroke="#666666" points="459.75,-105.88 390.5,-105.88 390.5,-86.62 459.75,-86.62 459.75,-105.88"/>
<text xml:space="preserve" text-anchor="middle" x="425.12" y="-92.38" font-family="Helvetica,sans-Serif" font-size="10.00">Robot::reply</text>
</a>
</g>
</g>
<!-- Node1&#45;&gt;Node3 -->
<g id="edge6_Node000001_Node000003" class="edge">
<title>Node1&#45;&gt;Node3</title>
<g id="a_edge6_Node000001_Node000003"><a xlink:title=" ">
<path fill="none" stroke="#63b8ff" d="M153.67,-81.42C222.62,-85.2 321.96,-90.65 379.08,-93.78"/>
<polygon fill="#63b8ff" stroke="#63b8ff" points="378.57,-97.26 388.75,-94.31 378.96,-90.27 378.57,-97.26"/>
</a>
</g>
</g>
<!-- Node4 -->
<g id="Node000004" class="node">
<title>Node4</title>
<g id="a_Node000004"><a xlink:href="class_robot.html#aa0975008ed9aee31a6ff43d8289bedb5" target="_top" xlink:title=" ">
<polygon fill="white" stroke="#666666" points="354.5,-67.88 189.25,-67.88 189.25,-48.62 354.5,-48.62 354.5,-67.88"/>
<text xml:space="preserve" text-anchor="middle" x="271.88" y="-54.38" font-family="Helvetica,sans-Serif" font-size="10.00">Robot::handleSerialTestCommand</text>
</a>
</g>
</g>
<!-- Node1&#45;&gt;Node4 -->
<g id="edge3_Node000001_Node000004" class="edge">
<title>Node1&#45;&gt;Node4</title>
<g id="a_edge3_Node000001_Node000004"><a xlink:title=" ">
<path fill="none" stroke="#63b8ff" d="M153.73,-69.77C161.55,-69 169.56,-68.21 177.55,-67.43"/>
<polygon fill="#63b8ff" stroke="#63b8ff" points="177.68,-70.93 187.28,-66.47 176.99,-63.96 177.68,-70.93"/>
</a>
</g>
</g>
<!-- Node5 -->
<g id="Node000005" class="node">
<title>Node5</title>
<g id="a_Node000005"><a xlink:href="class_robot.html#a422a0be216adcf84334fd65325b20413" target="_top" xlink:title=" ">
<polygon fill="white" stroke="#666666" points="349.25,-30.5 194.5,-30.5 194.5,0 349.25,0 349.25,-30.5"/>
<text xml:space="preserve" text-anchor="start" x="202.5" y="-17" font-family="Helvetica,sans-Serif" font-size="10.00">Robot::parseCmdWithUpToTwo</text>
<text xml:space="preserve" text-anchor="middle" x="271.88" y="-5.75" font-family="Helvetica,sans-Serif" font-size="10.00">Floats</text>
</a>
</g>
</g>
<!-- Node1&#45;&gt;Node5 -->
<g id="edge5_Node000001_Node000005" class="edge">
<title>Node1&#45;&gt;Node5</title>
<g id="a_edge5_Node000001_Node000005"><a xlink:title=" ">
<path fill="none" stroke="#63b8ff" d="M105.96,-67.24C128.46,-59.37 160.76,-48.28 189.25,-39.25 194.57,-37.56 200.1,-35.85 205.65,-34.16"/>
<polygon fill="#63b8ff" stroke="#63b8ff" points="206.32,-37.61 214.88,-31.38 204.3,-30.91 206.32,-37.61"/>
</a>
</g>
</g>
<!-- Node2&#45;&gt;Node3 -->
<g id="edge2_Node000002_Node000003" class="edge">
<title>Node2&#45;&gt;Node3</title>
<g id="a_edge2_Node000002_Node000003"><a xlink:title=" ">
<path fill="none" stroke="#63b8ff" d="M313.01,-124.17C333.48,-119.02 358.45,-112.75 379.52,-107.46"/>
<polygon fill="#63b8ff" stroke="#63b8ff" points="380.15,-110.91 388.99,-105.08 378.44,-104.12 380.15,-110.91"/>
</a>
</g>
</g>
<!-- Node4&#45;&gt;Node3 -->
<g id="edge4_Node000004_Node000003" class="edge">
<title>Node4&#45;&gt;Node3</title>
<g id="a_edge4_Node000004_Node000003"><a xlink:title=" ">
<path fill="none" stroke="#63b8ff" d="M313.01,-68.33C333.48,-73.48 358.45,-79.75 379.52,-85.04"/>
<polygon fill="#63b8ff" stroke="#63b8ff" points="378.44,-88.38 388.99,-87.42 380.15,-81.59 378.44,-88.38"/>
</a>
</g>
</g>
</g>
</svg>
