<?xml version="1.0" encoding="UTF-8" standalone="no"?>
<!DOCTYPE svg PUBLIC "-//W3C//DTD SVG 1.1//EN"
 "http://www.w3.org/Graphics/SVG/1.1/DTD/svg11.dtd">
<!-- Generated by graphviz version 14.1.2 (20260124.0452)
 -->
<!-- Title: Shooter::update Pages: 1 -->
<svg width="421pt" height="64pt"
 viewBox="0.00 0.00 421.00 64.00" xmlns="http://www.w3.org/2000/svg" xmlns:xlink="http://www.w3.org/1999/xlink">
<g id="graph0" class="graph" transform="scale(1 1) rotate(0) translate(4 60.25)">
<title>Shooter::update</title>
<!-- Node1 -->
<g id="Node000001" class="node">
<title>Node1</title>
<g id="a_Node000001"><a xlink:title=" ">
<polygon fill="#999999" stroke="#666666" points="85,-37.25 0,-37.25 0,-18 85,-18 85,-37.25"/>
<text xml:space="preserve" text-anchor="middle" x="42.5" y="-23.75" font-family="Helvetica,sans-Serif" font-size="10.00">Shooter::update</text>
</a>
</g>
</g>
<!-- Node2 -->
<g id="Node000002" class="node">
<title>Node2</title>
<g id="a_Node000002"><a xlink:href="class_shooter.html#aba382aed6deb0a552a92f315351ac5e4" target="_top" xlink:title=" ">
<polygon fill="white" stroke="#666666" points="242,-37.25 121,-37.25 121,-18 242,-18 242,-37.25"/>
<text xml:space="preserve" text-anchor="middle" x="181.5" y="-23.75" font-family="Helvetica,sans-Serif" font-size="10.00">Shooter::handleAutoFire</text>
</a>
</g>
</g>
<!-- Node1&#45;&gt;Node2 -->
<g id="edge1_Node000001_Node000002" class="edge">
<title>Node1&#45;&gt;Node2</title>
<g id="a_edge1_Node000001_Node000002"><a xlink:title=" ">
<path fill="none" stroke="#63b8ff" d="M85.35,-27.62C92.89,-27.62 100.94,-27.62 109.05,-27.62"/>
<polygon fill="#63b8ff" stroke="#63b8ff" points="108.99,-31.13 118.99,-27.63 108.99,-24.13 108.99,-31.13"/>
</a>
</g>
</g>
<!-- Node3 -->
<g id="Node000003" class="node">
<title>Node3</title>
<g id="a_Node000003"><a xlink:href="class_shooter.html#a30a31145ab7b3148a0adb2d0c0152713" target="_top" xlink:title=" ">
<polygon fill="white" stroke="#666666" points="408.75,-56.25 282.5,-56.25 282.5,-37 408.75,-37 408.75,-56.25"/>
<text xml:space="preserve" text-anchor="middle" x="345.62" y="-42.75" font-family="Helvetica,sans-Serif" font-size="10.00">Shooter::nextFirePosition</text>
</a>
</g>
</g>
<!-- Node2&#45;&gt;Node3 -->
<g id="edge2_Node000002_Node000003" class="edge">
<title>Node2&#45;&gt;Node3</title>
<g id="a_edge2_Node000002_Node000003"><a xlink:title=" ">
<path fill="none" stroke="#63b8ff" d="M242.41,-34.65C251.74,-35.74 261.48,-36.88 271.08,-38.01"/>
<polygon fill="#63b8ff" stroke="#63b8ff" points="270.4,-41.45 280.74,-39.14 271.22,-34.5 270.4,-41.45"/>
</a>
</g>
</g>
<!-- Node4 -->
<g id="Node000004" class="node">
<title>Node4</title>
<g id="a_Node000004"><a xlink:href="class_shooter.html#a1ed9592886f4679cb2805c9857defcf9" target="_top" xlink:title=" ">
<polygon fill="white" stroke="#666666" points="413.25,-19.25 278,-19.25 278,0 413.25,0 413.25,-19.25"/>
<text xml:space="preserve" text-anchor="middle" x="345.62" y="-5.75" font-family="Helvetica,sans-Serif" font-size="10.00">Shooter::nextPrimePosition</text>
</a>
</g>
</g>
<!-- Node2&#45;&gt;Node4 -->
<g id="edge3_Node000002_Node000004" class="edge">
<title>Node2&#45;&gt;Node4</title>
<g id="a_edge3_Node000002_Node000004"><a xlink:title=" ">
<path fill="none" stroke="#63b8ff" d="M242.41,-20.97C250.19,-20.11 258.26,-19.21 266.29,-18.32"/>
<polygon fill="#63b8ff" stroke="#63b8ff" points="266.53,-21.82 276.08,-17.23 265.76,-14.86 266.53,-21.82"/>
</a>
</g>
</g>
</g>
</svg>
