<?xml version="1.0" encoding="UTF-8" standalone="no"?>
<!DOCTYPE svg PUBLIC "-//W3C//DTD SVG 1.1//EN"
 "http://www.w3.org/Graphics/SVG/1.1/DTD/svg11.dtd">
<!-- Generated by graphviz version 14.1.2 (20260124.0452)
 -->
<!-- Title: SharpGP2Y0A51::init Pages: 1 -->
<svg width="513pt" height="27pt"
 viewBox="0.00 0.00 513.00 27.00" xmlns="http://www.w3.org/2000/svg" xmlns:xlink="http://www.w3.org/1999/xlink">
<g id="graph0" class="graph" transform="scale(1 1) rotate(0) translate(4 23.25)">
<title>SharpGP2Y0A51::init</title>
<!-- Node1 -->
<g id="Node000001" class="node">
<title>Node1</title>
<g id="a_Node000001"><a xlink:title=" ">
<polygon fill="#999999" stroke="#666666" points="109,-19.25 0,-19.25 0,0 109,0 109,-19.25"/>
<text xml:space="preserve" text-anchor="middle" x="54.5" y="-5.75" font-family="Helvetica,sans-Serif" font-size="10.00">SharpGP2Y0A51::init</text>
</a>
</g>
</g>
<!-- Node2 -->
<g id="Node000002" class="node">
<title>Node2</title>
<g id="a_Node000002"><a xlink:href="class_sharp_g_p2_y0_a51.html#a5c043dee546d9eb940a74f20e7d9fb30" target="_top" xlink:title=" ">
<polygon fill="white" stroke="#666666" points="313.25,-19.25 145,-19.25 145,0 313.25,0 313.25,-19.25"/>
<text xml:space="preserve" text-anchor="middle" x="229.12" y="-5.75" font-family="Helvetica,sans-Serif" font-size="10.00">SharpGP2Y0A51::readVoltageRaw</text>
</a>
</g>
</g>
<!-- Node1&#45;&gt;Node2 -->
<g id="edge1_Node000001_Node000002" class="edge">
<title>Node1&#45;&gt;Node2</title>
<g id="a_edge1_Node000001_Node000002"><a xlink:title=" ">
<path fill="none" stroke="#63b8ff" d="M109.17,-9.62C116.93,-9.62 125.1,-9.62 133.37,-9.62"/>
<polygon fill="#63b8ff" stroke="#63b8ff" points="133.18,-13.13 143.18,-9.63 133.18,-6.13 133.18,-13.13"/>
</a>
</g>
</g>
<!-- Node3 -->
<g id="Node000003" class="node">
<title>Node3</title>
<g id="a_Node000003"><a xlink:href="class_sharp_g_p2_y0_a51.html#a4bea79a192282ae5a5890d3f2aab8210" target="_top" xlink:title=" ">
<polygon fill="white" stroke="#666666" points="504.75,-19.25 349.25,-19.25 349.25,0 504.75,0 504.75,-19.25"/>
<text xml:space="preserve" text-anchor="middle" x="427" y="-5.75" font-family="Helvetica,sans-Serif" font-size="10.00">SharpGP2Y0A51::adcToVoltage</text>
</a>
</g>
</g>
<!-- Node2&#45;&gt;Node3 -->
<g id="edge2_Node000002_Node000003" class="edge">
<title>Node2&#45;&gt;Node3</title>
<g id="a_edge2_Node000002_Node000003"><a xlink:title=" ">
<path fill="none" stroke="#63b8ff" d="M313.48,-9.62C321.47,-9.62 329.61,-9.62 337.65,-9.62"/>
<polygon fill="#63b8ff" stroke="#63b8ff" points="337.42,-13.13 347.42,-9.63 337.42,-6.13 337.42,-13.13"/>
</a>
</g>
</g>
</g>
</svg>
