<?xml version="1.0" encoding="UTF-8" standalone="no"?>
<!DOCTYPE svg PUBLIC "-//W3C//DTD SVG 1.1//EN"
 "http://www.w3.org/Graphics/SVG/1.1/DTD/svg11.dtd">
<!-- Generated by graphviz version 14.1.2 (20260124.0452)
 -->
<!-- Title: Miner::mine Pages: 1 -->
<svg width="444pt" height="103pt"
 viewBox="0.00 0.00 444.00 103.00" xmlns="http://www.w3.org/2000/svg" xmlns:xlink="http://www.w3.org/1999/xlink">
<g id="graph0" class="graph" transform="scale(1 1) rotate(0) translate(4 99.25)">
<title>Miner::mine</title>
<!-- Node1 -->
<g id="Node000001" class="node">
<title>Node1</title>
<g id="a_Node000001"><a xlink:title="Drive the miner servo to the press&#45;down angle.">
<polygon fill="#999999" stroke="#666666" points="67,-57.25 0,-57.25 0,-38 67,-38 67,-57.25"/>
<text xml:space="preserve" text-anchor="middle" x="33.5" y="-43.75" font-family="Helvetica,sans-Serif" font-size="10.00">Miner::mine</text>
</a>
</g>
</g>
<!-- Node2 -->
<g id="Node000002" class="node">
<title>Node2</title>
<g id="a_Node000002"><a xlink:href="class_miner.html#a6fbd323fb3ceceabde90ca2c3ecb5b16" target="_top" xlink:title=" ">
<polygon fill="white" stroke="#666666" points="248,-95.25 103,-95.25 103,-76 248,-76 248,-95.25"/>
<text xml:space="preserve" text-anchor="middle" x="175.5" y="-81.75" font-family="Helvetica,sans-Serif" font-size="10.00">Miner::setMinerServoToPress</text>
</a>
</g>
</g>
<!-- Node1&#45;&gt;Node2 -->
<g id="edge1_Node000001_Node000002" class="edge">
<title>Node1&#45;&gt;Node2</title>
<g id="a_edge1_Node000001_Node000002"><a xlink:title=" ">
<path fill="none" stroke="#63b8ff" d="M67.32,-56.53C84.97,-61.32 107.06,-67.32 126.59,-72.62"/>
<polygon fill="#63b8ff" stroke="#63b8ff" points="125.41,-75.93 135.98,-75.17 127.24,-69.17 125.41,-75.93"/>
</a>
</g>
</g>
<!-- Node3 -->
<g id="Node000003" class="node">
<title>Node3</title>
<g id="a_Node000003"><a xlink:href="class_miner.html#a9f02a17fa9cd96b2bdd5796b42cbb807" target="_top" xlink:title="Retract the miner servo to clear the dispenser for the next block.">
<polygon fill="white" stroke="#666666" points="435.75,-38.25 284,-38.25 284,-19 435.75,-19 435.75,-38.25"/>
<text xml:space="preserve" text-anchor="middle" x="359.88" y="-24.75" font-family="Helvetica,sans-Serif" font-size="10.00">Miner::setMinerServoToRetract</text>
</a>
</g>
</g>
<!-- Node1&#45;&gt;Node3 -->
<g id="edge2_Node000001_Node000003" class="edge">
<title>Node1&#45;&gt;Node3</title>
<g id="a_edge2_Node000001_Node000003"><a xlink:title=" ">
<path fill="none" stroke="#63b8ff" d="M67.39,-45.7C114.97,-42.91 204.68,-37.66 272.06,-33.71"/>
<polygon fill="#63b8ff" stroke="#63b8ff" points="272.23,-37.21 282.01,-33.13 271.82,-30.22 272.23,-37.21"/>
</a>
</g>
</g>
<!-- Node4 -->
<g id="Node000004" class="node">
<title>Node4</title>
<g id="a_Node000004"><a xlink:href="class_miner.html#a26f3ff0ceeae35f37c087bbb17767f17" target="_top" xlink:title="Internal: transition to OFF mode, reset timers, and immediately retract the miner servo.">
<polygon fill="white" stroke="#666666" points="238.25,-19.25 112.75,-19.25 112.75,0 238.25,0 238.25,-19.25"/>
<text xml:space="preserve" text-anchor="middle" x="175.5" y="-5.75" font-family="Helvetica,sans-Serif" font-size="10.00">Miner::stopMiningInternal</text>
</a>
</g>
</g>
<!-- Node1&#45;&gt;Node4 -->
<g id="edge3_Node000001_Node000004" class="edge">
<title>Node1&#45;&gt;Node4</title>
<g id="a_edge3_Node000001_Node000004"><a xlink:title=" ">
<path fill="none" stroke="#63b8ff" d="M67.32,-38.72C84.97,-33.93 107.06,-27.93 126.59,-22.63"/>
<polygon fill="#63b8ff" stroke="#63b8ff" points="127.24,-26.08 135.98,-20.08 125.41,-19.32 127.24,-26.08"/>
</a>
</g>
</g>
<!-- Node4&#45;&gt;Node3 -->
<g id="edge4_Node000004_Node000003" class="edge">
<title>Node4&#45;&gt;Node3</title>
<g id="a_edge4_Node000004_Node000003"><a xlink:title=" ">
<path fill="none" stroke="#63b8ff" d="M238.5,-16.08C249.42,-17.22 260.96,-18.42 272.41,-19.62"/>
<polygon fill="#63b8ff" stroke="#63b8ff" points="271.98,-23.09 282.29,-20.65 272.7,-16.13 271.98,-23.09"/>
</a>
</g>
</g>
</g>
</svg>
