<?xml version="1.0" encoding="UTF-8" standalone="no"?>
<!DOCTYPE svg PUBLIC "-//W3C//DTD SVG 1.1//EN"
 "http://www.w3.org/Graphics/SVG/1.1/DTD/svg11.dtd">
<!-- Generated by graphviz version 14.1.2 (20260124.0452)
 -->
<!-- Title: Drive Pages: 1 -->
<svg width="548pt" height="346pt"
 viewBox="0.00 0.00 548.00 346.00" xmlns="http://www.w3.org/2000/svg" xmlns:xlink="http://www.w3.org/1999/xlink">
<g id="graph0" class="graph" transform="scale(1 1) rotate(0) translate(4 342.35)">
<title>Drive</title>
<!-- Node1 -->
<g id="Node000001" class="node">
<title>Node1</title>
<g id="a_Node000001"><a xlink:title=" ">
<polygon fill="#999999" stroke="#666666" points="539.75,-183.31 500.5,-183.31 500.5,-164.06 539.75,-164.06 539.75,-183.31"/>
<text xml:space="preserve" text-anchor="middle" x="520.12" y="-169.81" font-family="Helvetica,sans-Serif" font-size="10.00">Drive</text>
</a>
</g>
</g>
<!-- Node2 -->
<g id="Node000002" class="node">
<title>Node2</title>
<g id="a_Node000002"><a xlink:href="class_subsystem.html" target="_top" xlink:title="Polymorphic interface for a robot subsystem.">
<polygon fill="white" stroke="#666666" points="360.25,-338.31 294.75,-338.31 294.75,-319.06 360.25,-319.06 360.25,-338.31"/>
<text xml:space="preserve" text-anchor="middle" x="327.5" y="-324.81" font-family="Helvetica,sans-Serif" font-size="10.00">Subsystem</text>
</a>
</g>
</g>
<!-- Node2&#45;&gt;Node1 -->
<g id="edge1_Node000001_Node000002" class="edge">
<title>Node2&#45;&gt;Node1</title>
<g id="a_edge1_Node000001_Node000002"><a xlink:title=" ">
<path fill="none" stroke="#63b8ff" d="M371.59,-336.72C405.63,-340.46 452.29,-339.45 482.5,-313.69 502.67,-296.49 514.47,-212.54 518,-183.55"/>
<polygon fill="#63b8ff" stroke="#63b8ff" points="372.44,-333.3 362.07,-335.49 371.54,-340.24 372.44,-333.3"/>
</a>
</g>
</g>
<!-- Node3 -->
<g id="Node000003" class="node">
<title>Node3</title>
<g id="a_Node000003"><a xlink:href="class_encoder_wrapper.html" target="_top" xlink:title="Quadrature encoder driver with velocity and acceleration estimation.">
<polygon fill="white" stroke="#666666" points="371.5,-290.31 283.5,-290.31 283.5,-271.06 371.5,-271.06 371.5,-290.31"/>
<text xml:space="preserve" text-anchor="middle" x="327.5" y="-276.81" font-family="Helvetica,sans-Serif" font-size="10.00">EncoderWrapper</text>
</a>
</g>
</g>
<!-- Node3&#45;&gt;Node1 -->
<g id="edge2_Node000001_Node000003" class="edge">
<title>Node3&#45;&gt;Node1</title>
<g id="a_edge2_Node000001_Node000003"><a xlink:title=" ">
<path fill="none" stroke="#9a32cd" stroke-dasharray="5,2" d="M383.27,-278.46C421.08,-275.89 467.19,-270.4 482.5,-258.69 506.88,-240.04 515.27,-201.9 517.96,-183.74"/>
<polygon fill="#9a32cd" stroke="#9a32cd" points="383.12,-274.96 373.36,-279.07 383.56,-281.94 383.12,-274.96"/>
</a>
</g>
<text xml:space="preserve" text-anchor="start" x="409.75" y="-297.21" font-family="Helvetica,sans-Serif" font-size="10.00" fill="grey">_leftEncoder</text>
<text xml:space="preserve" text-anchor="start" x="409.75" y="-281.96" font-family="Helvetica,sans-Serif" font-size="10.00" fill="grey">_rightEncoder</text>
</g>
<!-- Node4 -->
<g id="Node000004" class="node">
<title>Node4</title>
<g id="a_Node000004"><a xlink:href="class_line_sensor.html" target="_top" xlink:title="Pololu QTR&#45;MD&#45;08RC 8&#45;channel line sensor driver.">
<polygon fill="white" stroke="#666666" points="359.88,-253.31 295.12,-253.31 295.12,-234.06 359.88,-234.06 359.88,-253.31"/>
<text xml:space="preserve" text-anchor="middle" x="327.5" y="-239.81" font-family="Helvetica,sans-Serif" font-size="10.00">LineSensor</text>
</a>
</g>
</g>
<!-- Node4&#45;&gt;Node1 -->
<g id="edge3_Node000001_Node000004" class="edge">
<title>Node4&#45;&gt;Node1</title>
<g id="a_edge3_Node000001_Node000004"><a xlink:title=" ">
<path fill="none" stroke="#9a32cd" stroke-dasharray="5,2" d="M371.71,-243.39C404.11,-241.45 448.52,-235 482.5,-215.69 495.96,-208.04 506.9,-193.55 513.21,-183.75"/>
<polygon fill="#9a32cd" stroke="#9a32cd" points="371.7,-239.89 361.88,-243.85 372.03,-246.88 371.7,-239.89"/>
</a>
</g>
<text xml:space="preserve" text-anchor="start" x="414.25" y="-245.68" font-family="Helvetica,sans-Serif" font-size="10.00" fill="grey">_lineSensor</text>
</g>
<!-- Node5 -->
<g id="Node000005" class="node">
<title>Node5</title>
<g id="a_Node000005"><a xlink:href="class_dual_motor_controller.html" target="_top" xlink:title="Dual&#45;channel closed&#45;loop motor controller.">
<polygon fill="white" stroke="#666666" points="379,-216.31 276,-216.31 276,-197.06 379,-197.06 379,-216.31"/>
<text xml:space="preserve" text-anchor="middle" x="327.5" y="-202.81" font-family="Helvetica,sans-Serif" font-size="10.00">DualMotorController</text>
</a>
</g>
</g>
<!-- Node5&#45;&gt;Node1 -->
<g id="edge4_Node000001_Node000005" class="edge">
<title>Node5&#45;&gt;Node1</title>
<g id="a_edge4_Node000001_Node000005"><a xlink:title=" ">
<path fill="none" stroke="#9a32cd" stroke-dasharray="5,2" d="M390.39,-195.97C428.64,-189.35 475.11,-181.31 500.44,-176.92"/>
<polygon fill="#9a32cd" stroke="#9a32cd" points="390.08,-192.48 380.82,-197.63 391.28,-199.37 390.08,-192.48"/>
</a>
</g>
<text xml:space="preserve" text-anchor="start" x="403.75" y="-198.86" font-family="Helvetica,sans-Serif" font-size="10.00" fill="grey">_motorController</text>
</g>
<!-- Node6 -->
<g id="Node000006" class="node">
<title>Node6</title>
<g id="a_Node000006"><a xlink:href="class_l298_n_motor_driver_mega.html" target="_top" xlink:title=" ">
<polygon fill="white" stroke="#666666" points="189.75,-245.31 70.25,-245.31 70.25,-226.06 189.75,-226.06 189.75,-245.31"/>
<text xml:space="preserve" text-anchor="middle" x="130" y="-231.81" font-family="Helvetica,sans-Serif" font-size="10.00">L298NMotorDriverMega</text>
</a>
</g>
</g>
<!-- Node6&#45;&gt;Node5 -->
<g id="edge5_Node000005_Node000006" class="edge">
<title>Node6&#45;&gt;Node5</title>
<g id="a_edge5_Node000005_Node000006"><a xlink:title=" ">
<path fill="none" stroke="#9a32cd" stroke-dasharray="5,2" d="M201.3,-225.26C225.92,-221.61 253.07,-217.58 275.77,-214.21"/>
<polygon fill="#9a32cd" stroke="#9a32cd" points="201.06,-221.76 191.68,-226.69 202.09,-228.68 201.06,-221.76"/>
</a>
</g>
<text xml:space="preserve" text-anchor="start" x="210.75" y="-228.54" font-family="Helvetica,sans-Serif" font-size="10.00" fill="grey">dualDriver</text>
</g>
<!-- Node7 -->
<g id="Node000007" class="node">
<title>Node7</title>
<g id="a_Node000007"><a xlink:href="class_p_i_d_controller.html" target="_top" xlink:title="Full&#45;featured PID controller with anti&#45;windup, output filtering, and optional nonlinear extensions.">
<polygon fill="white" stroke="#666666" points="167.62,-173.31 92.38,-173.31 92.38,-154.06 167.62,-154.06 167.62,-173.31"/>
<text xml:space="preserve" text-anchor="middle" x="130" y="-159.81" font-family="Helvetica,sans-Serif" font-size="10.00">PIDController</text>
</a>
</g>
</g>
<!-- Node7&#45;&gt;Node1 -->
<g id="edge12_Node000001_Node000007" class="edge">
<title>Node7&#45;&gt;Node1</title>
<g id="a_edge12_Node000001_Node000007"><a xlink:title=" ">
<path fill="none" stroke="#9a32cd" stroke-dasharray="5,2" d="M179.44,-159.17C229.46,-155.18 309.75,-150.64 379,-155.19 422.58,-158.05 473.3,-165.88 500.17,-170.38"/>
<polygon fill="#9a32cd" stroke="#9a32cd" points="179.2,-155.68 169.52,-159.99 179.77,-162.66 179.2,-155.68"/>
</a>
</g>
<text xml:space="preserve" text-anchor="start" x="282.5" y="-175.19" font-family="Helvetica,sans-Serif" font-size="10.00" fill="grey">_distanceSensorPID</text>
<text xml:space="preserve" text-anchor="start" x="282.5" y="-159.94" font-family="Helvetica,sans-Serif" font-size="10.00" fill="grey">_lineSensorPID</text>
</g>
<!-- Node7&#45;&gt;Node5 -->
<g id="edge6_Node000005_Node000007" class="edge">
<title>Node7&#45;&gt;Node5</title>
<g id="a_edge6_Node000005_Node000007"><a xlink:title=" ">
<path fill="none" stroke="#9a32cd" stroke-dasharray="5,2" d="M179.4,-167.23C203.31,-169.67 232.45,-173.69 258,-180.19 273.94,-184.24 291.21,-190.94 304.42,-196.59"/>
<polygon fill="#9a32cd" stroke="#9a32cd" points="179.91,-163.76 169.63,-166.29 179.25,-170.73 179.91,-163.76"/>
</a>
</g>
<text xml:space="preserve" text-anchor="start" x="221.25" y="-200.19" font-family="Helvetica,sans-Serif" font-size="10.00" fill="grey">_pid1</text>
<text xml:space="preserve" text-anchor="start" x="221.25" y="-184.94" font-family="Helvetica,sans-Serif" font-size="10.00" fill="grey">_pid2</text>
</g>
<!-- Node8 -->
<g id="Node000008" class="node">
<title>Node8</title>
<g id="a_Node000008"><a xlink:href="class_p_i_d.html" target="_top" xlink:title="Lightweight PID controller base class.">
<polygon fill="white" stroke="#666666" points="33.25,-173.31 0,-173.31 0,-154.06 33.25,-154.06 33.25,-173.31"/>
<text xml:space="preserve" text-anchor="middle" x="16.62" y="-159.81" font-family="Helvetica,sans-Serif" font-size="10.00">PID</text>
</a>
</g>
</g>
<!-- Node8&#45;&gt;Node7 -->
<g id="edge7_Node000007_Node000008" class="edge">
<title>Node8&#45;&gt;Node7</title>
<g id="a_edge7_Node000007_Node000008"><a xlink:title=" ">
<path fill="none" stroke="#63b8ff" d="M45.01,-163.69C59.14,-163.69 76.58,-163.69 91.9,-163.69"/>
<polygon fill="#63b8ff" stroke="#63b8ff" points="45.1,-160.19 35.1,-163.69 45.1,-167.19 45.1,-160.19"/>
</a>
</g>
</g>
<!-- Node9 -->
<g id="Node000009" class="node">
<title>Node9</title>
<g id="a_Node000009"><a xlink:href="class_sharp_g_p2_y0_a51.html" target="_top" xlink:title="Sharp GP2Y0A51 analog IR distance sensor driver.">
<polygon fill="white" stroke="#666666" points="372.62,-110.31 282.38,-110.31 282.38,-91.06 372.62,-91.06 372.62,-110.31"/>
<text xml:space="preserve" text-anchor="middle" x="327.5" y="-96.81" font-family="Helvetica,sans-Serif" font-size="10.00">SharpGP2Y0A51</text>
</a>
</g>
</g>
<!-- Node9&#45;&gt;Node1 -->
<g id="edge8_Node000001_Node000009" class="edge">
<title>Node9&#45;&gt;Node1</title>
<g id="a_edge8_Node000001_Node000009"><a xlink:title=" ">
<path fill="none" stroke="#9a32cd" stroke-dasharray="5,2" d="M384.02,-94.52C415.12,-93.75 453.38,-97.49 482.5,-115.44 500.6,-126.6 511.24,-150.4 516.04,-163.87"/>
<polygon fill="#9a32cd" stroke="#9a32cd" points="384.27,-91.01 374.43,-94.93 384.57,-98 384.27,-91.01"/>
</a>
</g>
<text xml:space="preserve" text-anchor="start" x="413.88" y="-120.19" font-family="Helvetica,sans-Serif" font-size="10.00" fill="grey">_distSensor</text>
</g>
<!-- Node10 -->
<g id="Node000010" class="node">
<title>Node10</title>
<g id="a_Node000010"><a xlink:href="class_odometry.html" target="_top" xlink:title="Tracks robot pose by integrating encoder wheel displacements.">
<polygon fill="white" stroke="#666666" points="356.88,-68.31 298.12,-68.31 298.12,-49.06 356.88,-49.06 356.88,-68.31"/>
<text xml:space="preserve" text-anchor="middle" x="327.5" y="-54.81" font-family="Helvetica,sans-Serif" font-size="10.00">Odometry</text>
</a>
</g>
</g>
<!-- Node10&#45;&gt;Node1 -->
<g id="edge9_Node000001_Node000010" class="edge">
<title>Node10&#45;&gt;Node1</title>
<g id="a_edge9_Node000001_Node000010"><a xlink:title=" ">
<path fill="none" stroke="#9a32cd" stroke-dasharray="5,2" d="M367.97,-46.6C401.67,-38.85 449.74,-34.21 482.5,-58.19 516.79,-83.29 519.77,-140.69 519.5,-163.79"/>
<polygon fill="#9a32cd" stroke="#9a32cd" points="367.46,-43.12 358.6,-48.94 369.16,-49.91 367.46,-43.12"/>
</a>
</g>
<text xml:space="preserve" text-anchor="start" x="400" y="-78.19" font-family="Helvetica,sans-Serif" font-size="10.00" fill="grey">_desiredOdometry</text>
<text xml:space="preserve" text-anchor="start" x="400" y="-62.94" font-family="Helvetica,sans-Serif" font-size="10.00" fill="grey">_odometry</text>
</g>
<!-- Node11 -->
<g id="Node000011" class="node">
<title>Node11</title>
<g id="a_Node000011"><a xlink:href="struct_odometry_1_1_pose2_d.html" target="_top" xlink:title="2&#45;D robot pose.">
<polygon fill="white" stroke="#666666" points="180,-68.31 80,-68.31 80,-49.06 180,-49.06 180,-68.31"/>
<text xml:space="preserve" text-anchor="middle" x="130" y="-54.81" font-family="Helvetica,sans-Serif" font-size="10.00">Odometry::Pose2D</text>
</a>
</g>
</g>
<!-- Node11&#45;&gt;Node10 -->
<g id="edge10_Node000010_Node000011" class="edge">
<title>Node11&#45;&gt;Node10</title>
<g id="a_edge10_Node000010_Node000011"><a xlink:title=" ">
<path fill="none" stroke="#9a32cd" stroke-dasharray="5,2" d="M191.53,-58.69C226.93,-58.69 270,-58.69 297.81,-58.69"/>
<polygon fill="#9a32cd" stroke="#9a32cd" points="191.85,-55.19 181.85,-58.69 191.85,-62.19 191.85,-55.19"/>
</a>
</g>
<text xml:space="preserve" text-anchor="start" x="219.75" y="-63.44" font-family="Helvetica,sans-Serif" font-size="10.00" fill="grey">_pose</text>
</g>
<!-- Node12 -->
<g id="Node000012" class="node">
<title>Node12</title>
<g id="a_Node000012"><a xlink:href="class_ramsete_controller.html" target="_top" xlink:title=" ">
<polygon fill="white" stroke="#666666" points="376.38,-28.31 278.62,-28.31 278.62,-9.06 376.38,-9.06 376.38,-28.31"/>
<text xml:space="preserve" text-anchor="middle" x="327.5" y="-14.81" font-family="Helvetica,sans-Serif" font-size="10.00">RamseteController</text>
</a>
</g>
</g>
<!-- Node12&#45;&gt;Node1 -->
<g id="edge11_Node000001_Node000012" class="edge">
<title>Node12&#45;&gt;Node1</title>
<g id="a_edge11_Node000001_Node000012"><a xlink:title=" ">
<path fill="none" stroke="#9a32cd" stroke-dasharray="5,2" d="M370.58,-5.94C404.45,1.54 451.37,5.29 482.5,-19.44 505.45,-37.67 515.57,-132.35 518.31,-163.64"/>
<polygon fill="#9a32cd" stroke="#9a32cd" points="370.01,-2.48 361.11,-8.23 371.65,-9.28 370.01,-2.48"/>
</a>
</g>
<text xml:space="preserve" text-anchor="start" x="419.5" y="-24.19" font-family="Helvetica,sans-Serif" font-size="10.00" fill="grey">_ramsete</text>
</g>
</g>
</svg>
