<?xml version="1.0" encoding="UTF-8" standalone="no"?>
<!DOCTYPE svg PUBLIC "-//W3C//DTD SVG 1.1//EN"
 "http://www.w3.org/Graphics/SVG/1.1/DTD/svg11.dtd">
<!-- Generated by graphviz version 14.1.2 (20260124.0452)
 -->
<!-- Title: Planner::planThunk Pages: 1 -->
<svg width="559pt" height="107pt"
 viewBox="0.00 0.00 559.00 107.00" xmlns="http://www.w3.org/2000/svg" xmlns:xlink="http://www.w3.org/1999/xlink">
<g id="graph0" class="graph" transform="scale(1 1) rotate(0) translate(4 102.88)">
<title>Planner::planThunk</title>
<!-- Node1 -->
<g id="Node000001" class="node">
<title>Node1</title>
<g id="a_Node000001"><a xlink:title="Thunk adaptor for use as a ReplanStep::PlanFn.">
<polygon fill="#999999" stroke="#666666" points="100,-79.88 0,-79.88 0,-60.62 100,-60.62 100,-79.88"/>
<text xml:space="preserve" text-anchor="middle" x="50" y="-66.38" font-family="Helvetica,sans-Serif" font-size="10.00">Planner::planThunk</text>
</a>
</g>
</g>
<!-- Node2 -->
<g id="Node000002" class="node">
<title>Node2</title>
<g id="a_Node000002"><a xlink:href="class_planner.html#a43c10b9425c5af3f0f08943bbcf939a0" target="_top" xlink:title="Construct the planner and bind it to the robot&#39;s subsystems.">
<polygon fill="white" stroke="#666666" points="227,-98.88 139,-98.88 139,-79.62 227,-79.62 227,-98.88"/>
<text xml:space="preserve" text-anchor="middle" x="183" y="-85.38" font-family="Helvetica,sans-Serif" font-size="10.00">Planner::Planner</text>
</a>
</g>
</g>
<!-- Node1&#45;&gt;Node2 -->
<g id="edge1_Node000001_Node000002" class="edge">
<title>Node1&#45;&gt;Node2</title>
<g id="a_edge1_Node000001_Node000002"><a xlink:title=" ">
<path fill="none" stroke="#63b8ff" d="M100.15,-77.38C109.03,-78.67 118.35,-80.02 127.37,-81.33"/>
<polygon fill="#63b8ff" stroke="#63b8ff" points="126.71,-84.77 137.1,-82.74 127.71,-77.84 126.71,-84.77"/>
</a>
</g>
</g>
<!-- Node3 -->
<g id="Node000003" class="node">
<title>Node3</title>
<g id="a_Node000003"><a xlink:href="class_planner.html#a50d07a4dcbaebf75dbc237d9bf8e4cab" target="_top" xlink:title="Return the next step to execute, or nullptr when the routine is done.">
<polygon fill="white" stroke="#666666" points="230,-61.88 136,-61.88 136,-42.62 230,-42.62 230,-61.88"/>
<text xml:space="preserve" text-anchor="middle" x="183" y="-48.38" font-family="Helvetica,sans-Serif" font-size="10.00">Planner::planNext</text>
</a>
</g>
</g>
<!-- Node1&#45;&gt;Node3 -->
<g id="edge2_Node000001_Node000003" class="edge">
<title>Node1&#45;&gt;Node3</title>
<g id="a_edge2_Node000001_Node000003"><a xlink:title=" ">
<path fill="none" stroke="#63b8ff" d="M100.15,-63.5C108.05,-62.41 116.28,-61.28 124.35,-60.17"/>
<polygon fill="#63b8ff" stroke="#63b8ff" points="124.68,-63.66 134.11,-58.83 123.72,-56.72 124.68,-63.66"/>
</a>
</g>
</g>
<!-- Node4 -->
<g id="Node000004" class="node">
<title>Node4</title>
<g id="a_Node000004"><a xlink:href="class_strategy.html#a2c7a2f138418db83f7854fe41ef5a608" target="_top" xlink:title="Access the global Strategy singleton.">
<polygon fill="white" stroke="#666666" points="380.25,-98.88 270.5,-98.88 270.5,-79.62 380.25,-79.62 380.25,-98.88"/>
<text xml:space="preserve" text-anchor="middle" x="325.38" y="-85.38" font-family="Helvetica,sans-Serif" font-size="10.00">Strategy::getInstance</text>
</a>
</g>
</g>
<!-- Node3&#45;&gt;Node4 -->
<g id="edge3_Node000003_Node000004" class="edge">
<title>Node3&#45;&gt;Node4</title>
<g id="a_edge3_Node000003_Node000004"><a xlink:title=" ">
<path fill="none" stroke="#63b8ff" d="M222.36,-62.36C238.61,-66.64 257.74,-71.69 275.02,-76.24"/>
<polygon fill="#63b8ff" stroke="#63b8ff" points="274.04,-79.6 284.6,-78.77 275.82,-72.83 274.04,-79.6"/>
</a>
</g>
</g>
<!-- Node5 -->
<g id="Node000005" class="node">
<title>Node5</title>
<g id="a_Node000005"><a xlink:href="class_strategy.html#a7d2dd7244d23d87e8a92f71d4604f09c" target="_top" xlink:title="Return the current scoring cycle target.">
<polygon fill="white" stroke="#666666" points="381.75,-61.88 269,-61.88 269,-42.62 381.75,-42.62 381.75,-61.88"/>
<text xml:space="preserve" text-anchor="middle" x="325.38" y="-48.38" font-family="Helvetica,sans-Serif" font-size="10.00">Strategy::getNextItem</text>
</a>
</g>
</g>
<!-- Node3&#45;&gt;Node5 -->
<g id="edge4_Node000003_Node000005" class="edge">
<title>Node3&#45;&gt;Node5</title>
<g id="a_edge4_Node000003_Node000005"><a xlink:title=" ">
<path fill="none" stroke="#63b8ff" d="M230.35,-52.25C239,-52.25 248.2,-52.25 257.32,-52.25"/>
<polygon fill="#63b8ff" stroke="#63b8ff" points="257.28,-55.75 267.28,-52.25 257.28,-48.75 257.28,-55.75"/>
</a>
</g>
</g>
<!-- Node6 -->
<g id="Node000006" class="node">
<title>Node6</title>
<g id="a_Node000006"><a xlink:href="class_strategy.html#a092d38e843967a4aadeb79f42550acd9" target="_top" xlink:title="Return whether the robot has collected the full set of blocks needed to score.">
<polygon fill="white" stroke="#666666" points="384.75,-24.88 266,-24.88 266,-5.63 384.75,-5.63 384.75,-24.88"/>
<text xml:space="preserve" text-anchor="middle" x="325.38" y="-11.38" font-family="Helvetica,sans-Serif" font-size="10.00">Strategy::readyToScore</text>
</a>
</g>
</g>
<!-- Node3&#45;&gt;Node6 -->
<g id="edge5_Node000003_Node000006" class="edge">
<title>Node3&#45;&gt;Node6</title>
<g id="a_edge5_Node000003_Node000006"><a xlink:title=" ">
<path fill="none" stroke="#63b8ff" d="M222.36,-42.14C238.61,-37.86 257.74,-32.81 275.02,-28.26"/>
<polygon fill="#63b8ff" stroke="#63b8ff" points="275.82,-31.67 284.6,-25.73 274.04,-24.9 275.82,-31.67"/>
</a>
</g>
</g>
<!-- Node7 -->
<g id="Node000007" class="node">
<title>Node7</title>
<g id="a_Node000007"><a xlink:href="class_strategy.html#a1943002dce146e4c4ab5aeebae9f9235" target="_top" xlink:title="Return the highest block type that can be mined with the current pickaxe.">
<polygon fill="white" stroke="#666666" points="550.75,-30.5 420.75,-30.5 420.75,0 550.75,0 550.75,-30.5"/>
<text xml:space="preserve" text-anchor="start" x="428.75" y="-17" font-family="Helvetica,sans-Serif" font-size="10.00">Strategy::getMaxMineable</text>
<text xml:space="preserve" text-anchor="middle" x="485.75" y="-5.75" font-family="Helvetica,sans-Serif" font-size="10.00">Block</text>
</a>
</g>
</g>
<!-- Node6&#45;&gt;Node7 -->
<g id="edge6_Node000006_Node000007" class="edge">
<title>Node6&#45;&gt;Node7</title>
<g id="a_edge6_Node000006_Node000007"><a xlink:title=" ">
<path fill="none" stroke="#63b8ff" d="M384.9,-15.25C392.74,-15.25 400.88,-15.25 408.97,-15.25"/>
<polygon fill="#63b8ff" stroke="#63b8ff" points="408.83,-18.75 418.83,-15.25 408.83,-11.75 408.83,-18.75"/>
</a>
</g>
</g>
</g>
</svg>
