<?xml version="1.0" encoding="UTF-8" standalone="no"?>
<!DOCTYPE svg PUBLIC "-//W3C//DTD SVG 1.1//EN"
 "http://www.w3.org/Graphics/SVG/1.1/DTD/svg11.dtd">
<!-- Generated by graphviz version 14.1.2 (20260124.0452)
 -->
<!-- Title: AutoStep Pages: 1 -->
<svg width="216pt" height="841pt"
 viewBox="0.00 0.00 216.00 841.00" xmlns="http://www.w3.org/2000/svg" xmlns:xlink="http://www.w3.org/1999/xlink">
<g id="graph0" class="graph" transform="scale(1 1) rotate(0) translate(4 837.25)">
<title>AutoStep</title>
<!-- Node1 -->
<g id="Node000001" class="node">
<title>Node1</title>
<g id="a_Node000001"><a xlink:title="Pure&#45;virtual base class for all autonomous steps.">
<polygon fill="#999999" stroke="#666666" points="56.5,-426.25 0,-426.25 0,-407 56.5,-407 56.5,-426.25"/>
<text xml:space="preserve" text-anchor="middle" x="28.25" y="-412.75" font-family="Helvetica,sans-Serif" font-size="10.00">AutoStep</text>
</a>
</g>
</g>
<!-- Node2 -->
<g id="Node000002" class="node">
<title>Node2</title>
<g id="a_Node000002"><a xlink:href="class_accelerate_straight_line.html" target="_top" xlink:title="Drive straight with a linear velocity ramp&#45;up phase.">
<polygon fill="white" stroke="#666666" points="207.12,-833.25 92.88,-833.25 92.88,-814 207.12,-814 207.12,-833.25"/>
<text xml:space="preserve" text-anchor="middle" x="150" y="-819.75" font-family="Helvetica,sans-Serif" font-size="10.00">AccelerateStraightLine</text>
</a>
</g>
</g>
<!-- Node1&#45;&gt;Node2 -->
<g id="edge1_Node000001_Node000002" class="edge">
<title>Node1&#45;&gt;Node2</title>
<g id="a_edge1_Node000001_Node000002"><a xlink:title=" ">
<path fill="none" stroke="#63b8ff" d="M29.86,-438.02C32.38,-511.14 44.23,-749.66 92.5,-805.62 95.26,-808.82 98.58,-811.46 102.22,-813.63"/>
<polygon fill="#63b8ff" stroke="#63b8ff" points="33.37,-438.11 29.55,-428.23 26.37,-438.33 33.37,-438.11"/>
</a>
</g>
</g>
<!-- Node3 -->
<g id="Node000003" class="node">
<title>Node3</title>
<g id="a_Node000003"><a xlink:href="class_advance_cycle_step.html" target="_top" xlink:title="Calls Strategy::advanceCycle() once in start() and immediately finishes.">
<polygon fill="white" stroke="#666666" points="200,-796.25 100,-796.25 100,-777 200,-777 200,-796.25"/>
<text xml:space="preserve" text-anchor="middle" x="150" y="-782.75" font-family="Helvetica,sans-Serif" font-size="10.00">AdvanceCycleStep</text>
</a>
</g>
</g>
<!-- Node1&#45;&gt;Node3 -->
<g id="edge2_Node000001_Node000003" class="edge">
<title>Node1&#45;&gt;Node3</title>
<g id="a_edge2_Node000001_Node000003"><a xlink:title=" ">
<path fill="none" stroke="#63b8ff" d="M30.25,-437.72C33.9,-505.87 48.65,-718.64 92.5,-768.62 95.28,-771.8 98.62,-774.42 102.27,-776.58"/>
<polygon fill="#63b8ff" stroke="#63b8ff" points="33.76,-437.75 29.76,-427.94 26.77,-438.1 33.76,-437.75"/>
</a>
</g>
</g>
<!-- Node4 -->
<g id="Node000004" class="node">
<title>Node4</title>
<g id="a_Node000004"><a xlink:href="class_composite_step.html" target="_top" xlink:title="Sequences heap&#45;allocated child AutoStep objects, deleting each upon completion.">
<polygon fill="white" stroke="#666666" points="191.75,-759.25 108.25,-759.25 108.25,-740 191.75,-740 191.75,-759.25"/>
<text xml:space="preserve" text-anchor="middle" x="150" y="-745.75" font-family="Helvetica,sans-Serif" font-size="10.00">CompositeStep</text>
</a>
</g>
</g>
<!-- Node1&#45;&gt;Node4 -->
<g id="edge3_Node000001_Node000004" class="edge">
<title>Node1&#45;&gt;Node4</title>
<g id="a_edge3_Node000001_Node000004"><a xlink:title=" ">
<path fill="none" stroke="#63b8ff" d="M30.76,-437.95C35.66,-501.46 53.16,-687.69 92.5,-731.62 96.69,-736.3 102.09,-739.77 107.89,-742.35"/>
<polygon fill="#63b8ff" stroke="#63b8ff" points="34.26,-437.88 30.03,-428.16 27.28,-438.39 34.26,-437.88"/>
</a>
</g>
</g>
<!-- Node5 -->
<g id="Node000005" class="node">
<title>Node5</title>
<g id="a_Node000005"><a xlink:href="class_deferred_step.html" target="_top" xlink:title="Wraps a lazily&#45;constructed child step that is created by a factory at start() time.">
<polygon fill="white" stroke="#666666" points="186.88,-722.25 113.12,-722.25 113.12,-703 186.88,-703 186.88,-722.25"/>
<text xml:space="preserve" text-anchor="middle" x="150" y="-708.75" font-family="Helvetica,sans-Serif" font-size="10.00">DeferredStep</text>
</a>
</g>
</g>
<!-- Node1&#45;&gt;Node5 -->
<g id="edge4_Node000001_Node000005" class="edge">
<title>Node1&#45;&gt;Node5</title>
<g id="a_edge4_Node000001_Node000005"><a xlink:title=" ">
<path fill="none" stroke="#63b8ff" d="M31.39,-438.07C37.64,-496.5 57.63,-656.67 92.5,-694.62 97.86,-700.46 105.11,-704.42 112.63,-707.09"/>
<polygon fill="#63b8ff" stroke="#63b8ff" points="34.88,-437.75 30.37,-428.16 27.91,-438.47 34.88,-437.75"/>
</a>
</g>
</g>
<!-- Node6 -->
<g id="Node000006" class="node">
<title>Node6</title>
<g id="a_Node000006"><a xlink:href="class_delay_step.html" target="_top" xlink:title="Waits for a configurable duration (ms) then completes.">
<polygon fill="white" stroke="#666666" points="180.88,-685.25 119.12,-685.25 119.12,-666 180.88,-666 180.88,-685.25"/>
<text xml:space="preserve" text-anchor="middle" x="150" y="-671.75" font-family="Helvetica,sans-Serif" font-size="10.00">DelayStep</text>
</a>
</g>
</g>
<!-- Node1&#45;&gt;Node6 -->
<g id="edge5_Node000001_Node000006" class="edge">
<title>Node1&#45;&gt;Node6</title>
<g id="a_edge5_Node000001_Node000006"><a xlink:title=" ">
<path fill="none" stroke="#63b8ff" d="M28.44,-438C27.9,-484.41 33.28,-595.26 92.5,-657.62 99.38,-664.87 109.15,-669.2 118.65,-671.8"/>
<polygon fill="#63b8ff" stroke="#63b8ff" points="31.94,-438.3 28.68,-428.22 24.94,-438.13 31.94,-438.3"/>
</a>
</g>
</g>
<!-- Node7 -->
<g id="Node000007" class="node">
<title>Node7</title>
<g id="a_Node000007"><a xlink:href="class_deploy_ramp.html" target="_top" xlink:title="Calls Miner::deployRamp() in start() and finishes immediately.">
<polygon fill="white" stroke="#666666" points="186.5,-648.25 113.5,-648.25 113.5,-629 186.5,-629 186.5,-648.25"/>
<text xml:space="preserve" text-anchor="middle" x="150" y="-634.75" font-family="Helvetica,sans-Serif" font-size="10.00">DeployRamp</text>
</a>
</g>
</g>
<!-- Node1&#45;&gt;Node7 -->
<g id="edge6_Node000001_Node000007" class="edge">
<title>Node1&#45;&gt;Node7</title>
<g id="a_edge6_Node000001_Node000007"><a xlink:title=" ">
<path fill="none" stroke="#63b8ff" d="M29.68,-438.05C31.69,-479.19 41.96,-569.69 92.5,-620.62 98.16,-626.33 105.61,-630.22 113.24,-632.89"/>
<polygon fill="#63b8ff" stroke="#63b8ff" points="33.19,-438.13 29.34,-428.26 26.19,-438.38 33.19,-438.13"/>
</a>
</g>
</g>
<!-- Node8 -->
<g id="Node000008" class="node">
<title>Node8</title>
<g id="a_Node000008"><a xlink:href="class_detect_block_step.html" target="_top" xlink:title="Poll the color sensor for a configurable window, then finish.">
<polygon fill="white" stroke="#666666" points="195.12,-611.25 104.88,-611.25 104.88,-592 195.12,-592 195.12,-611.25"/>
<text xml:space="preserve" text-anchor="middle" x="150" y="-597.75" font-family="Helvetica,sans-Serif" font-size="10.00">DetectBlockStep</text>
</a>
</g>
</g>
<!-- Node1&#45;&gt;Node8 -->
<g id="edge7_Node000001_Node000008" class="edge">
<title>Node1&#45;&gt;Node8</title>
<g id="a_edge7_Node000001_Node000008"><a xlink:title=" ">
<path fill="none" stroke="#63b8ff" d="M31.38,-437.77C36.06,-472.99 50.41,-543.74 92.5,-583.62 96.01,-586.95 100.14,-589.67 104.54,-591.88"/>
<polygon fill="#63b8ff" stroke="#63b8ff" points="34.88,-437.55 30.24,-428.03 27.93,-438.37 34.88,-437.55"/>
</a>
</g>
</g>
<!-- Node9 -->
<g id="Node000009" class="node">
<title>Node9</title>
<g id="a_Node000009"><a xlink:href="class_drive_arc.html" target="_top" xlink:title="Commands the drive to follow a radius&#45;constrained arc until an angle or distance target is met.">
<polygon fill="white" stroke="#666666" points="177.12,-574.25 122.88,-574.25 122.88,-555 177.12,-555 177.12,-574.25"/>
<text xml:space="preserve" text-anchor="middle" x="150" y="-560.75" font-family="Helvetica,sans-Serif" font-size="10.00">DriveArc</text>
</a>
</g>
</g>
<!-- Node1&#45;&gt;Node9 -->
<g id="edge8_Node000001_Node000009" class="edge">
<title>Node1&#45;&gt;Node9</title>
<g id="a_edge8_Node000001_Node000009"><a xlink:title=" ">
<path fill="none" stroke="#63b8ff" d="M34.03,-437.9C41.56,-466.64 58.93,-517.59 92.5,-546.62 100.91,-553.9 112.28,-558.24 122.61,-560.83"/>
<polygon fill="#63b8ff" stroke="#63b8ff" points="37.43,-437.1 31.66,-428.22 30.63,-438.76 37.43,-437.1"/>
</a>
</g>
</g>
<!-- Node10 -->
<g id="Node000010" class="node">
<title>Node10</title>
<g id="a_Node000010"><a xlink:href="class_drive_distance.html" target="_top" xlink:title="Drive in a straight line for targetDistance meters at targetVelocity m/s.">
<polygon fill="white" stroke="#666666" points="189.12,-537.25 110.88,-537.25 110.88,-518 189.12,-518 189.12,-537.25"/>
<text xml:space="preserve" text-anchor="middle" x="150" y="-523.75" font-family="Helvetica,sans-Serif" font-size="10.00">DriveDistance</text>
</a>
</g>
</g>
<!-- Node1&#45;&gt;Node10 -->
<g id="edge9_Node000001_Node000010" class="edge">
<title>Node1&#45;&gt;Node10</title>
<g id="a_edge9_Node000001_Node000010"><a xlink:title=" ">
<path fill="none" stroke="#63b8ff" d="M38.16,-437.05C48.36,-458.16 67.01,-490.61 92.5,-509.62 97.86,-513.63 104.15,-516.76 110.53,-519.2"/>
<polygon fill="#63b8ff" stroke="#63b8ff" points="41.36,-435.65 34,-428.03 35,-438.58 41.36,-435.65"/>
</a>
</g>
</g>
<!-- Node11 -->
<g id="Node000011" class="node">
<title>Node11</title>
<g id="a_Node000011"><a xlink:href="class_drive_line_to_wall_step.html" target="_top" xlink:title="Follow a line autonomously until the distance sensor indicates a wall at _target cm.">
<polygon fill="white" stroke="#666666" points="203.38,-500.25 96.62,-500.25 96.62,-481 203.38,-481 203.38,-500.25"/>
<text xml:space="preserve" text-anchor="middle" x="150" y="-486.75" font-family="Helvetica,sans-Serif" font-size="10.00">DriveLineToWallStep</text>
</a>
</g>
</g>
<!-- Node1&#45;&gt;Node11 -->
<g id="edge10_Node000001_Node000011" class="edge">
<title>Node1&#45;&gt;Node11</title>
<g id="a_edge10_Node000001_Node000011"><a xlink:title=" ">
<path fill="none" stroke="#63b8ff" d="M45.85,-434.87C57.8,-447.05 74.85,-462.6 92.5,-472.62 97.96,-475.73 104.03,-478.37 110.1,-480.6"/>
<polygon fill="#63b8ff" stroke="#63b8ff" points="48.59,-432.67 39.17,-427.83 43.51,-437.49 48.59,-432.67"/>
</a>
</g>
</g>
<!-- Node12 -->
<g id="Node000012" class="node">
<title>Node12</title>
<g id="a_Node000012"><a xlink:href="class_drive_radius_angle.html" target="_top" xlink:title="Follow a constant&#45;radius arc until the accumulated heading changes by angleToTurnDeg.">
<polygon fill="white" stroke="#666666" points="197.38,-463.25 102.62,-463.25 102.62,-444 197.38,-444 197.38,-463.25"/>
<text xml:space="preserve" text-anchor="middle" x="150" y="-449.75" font-family="Helvetica,sans-Serif" font-size="10.00">DriveRadiusAngle</text>
</a>
</g>
</g>
<!-- Node1&#45;&gt;Node12 -->
<g id="edge11_Node000001_Node000012" class="edge">
<title>Node1&#45;&gt;Node12</title>
<g id="a_edge11_Node000001_Node000012"><a xlink:title=" ">
<path fill="none" stroke="#63b8ff" d="M67.71,-428.51C83.46,-433.38 101.49,-438.94 116.56,-443.6"/>
<polygon fill="#63b8ff" stroke="#63b8ff" points="68.76,-425.17 58.17,-425.56 66.69,-431.86 68.76,-425.17"/>
</a>
</g>
</g>
<!-- Node13 -->
<g id="Node000013" class="node">
<title>Node13</title>
<g id="a_Node000013"><a xlink:href="class_drive_radius_at_velocity.html" target="_top" xlink:title="Follow a constant&#45;radius arc until the odometry distance increases by _target_distance.">
<polygon fill="white" stroke="#666666" points="207.5,-426.25 92.5,-426.25 92.5,-407 207.5,-407 207.5,-426.25"/>
<text xml:space="preserve" text-anchor="middle" x="150" y="-412.75" font-family="Helvetica,sans-Serif" font-size="10.00">DriveRadiusAtVelocity</text>
</a>
</g>
</g>
<!-- Node1&#45;&gt;Node13 -->
<g id="edge12_Node000001_Node000013" class="edge">
<title>Node1&#45;&gt;Node13</title>
<g id="a_edge12_Node000001_Node000013"><a xlink:title=" ">
<path fill="none" stroke="#63b8ff" d="M68.02,-416.62C75.79,-416.62 84.11,-416.62 92.34,-416.62"/>
<polygon fill="#63b8ff" stroke="#63b8ff" points="68.24,-413.13 58.24,-416.63 68.24,-420.13 68.24,-413.13"/>
</a>
</g>
</g>
<!-- Node14 -->
<g id="Node000014" class="node">
<title>Node14</title>
<g id="a_Node000014"><a xlink:href="class_drive_to_wall_step.html" target="_top" xlink:title="Approach a wall using the front distance sensor until within 0.5 cm of _target.">
<polygon fill="white" stroke="#666666" points="194.38,-389.25 105.62,-389.25 105.62,-370 194.38,-370 194.38,-389.25"/>
<text xml:space="preserve" text-anchor="middle" x="150" y="-375.75" font-family="Helvetica,sans-Serif" font-size="10.00">DriveToWallStep</text>
</a>
</g>
</g>
<!-- Node1&#45;&gt;Node14 -->
<g id="edge13_Node000001_Node000014" class="edge">
<title>Node1&#45;&gt;Node14</title>
<g id="a_edge13_Node000001_Node000014"><a xlink:title=" ">
<path fill="none" stroke="#63b8ff" d="M67.71,-404.74C83.46,-399.87 101.49,-394.31 116.56,-389.65"/>
<polygon fill="#63b8ff" stroke="#63b8ff" points="66.69,-401.39 58.17,-407.69 68.76,-408.08 66.69,-401.39"/>
</a>
</g>
</g>
<!-- Node15 -->
<g id="Node000015" class="node">
<title>Node15</title>
<g id="a_Node000015"><a xlink:href="class_fire_step.html" target="_top" xlink:title="Triggers Shooter::fire() and holds for _time ms before calling Shooter::stop().">
<polygon fill="white" stroke="#666666" points="176.38,-352.25 123.62,-352.25 123.62,-333 176.38,-333 176.38,-352.25"/>
<text xml:space="preserve" text-anchor="middle" x="150" y="-338.75" font-family="Helvetica,sans-Serif" font-size="10.00">FireStep</text>
</a>
</g>
</g>
<!-- Node1&#45;&gt;Node15 -->
<g id="edge14_Node000001_Node000015" class="edge">
<title>Node1&#45;&gt;Node15</title>
<g id="a_edge14_Node000001_Node000015"><a xlink:title=" ">
<path fill="none" stroke="#63b8ff" d="M45.85,-398.38C57.8,-386.2 74.85,-370.65 92.5,-360.62 101.99,-355.24 113.31,-351.22 123.31,-348.37"/>
<polygon fill="#63b8ff" stroke="#63b8ff" points="43.51,-395.76 39.17,-405.42 48.59,-400.58 43.51,-395.76"/>
</a>
</g>
</g>
<!-- Node16 -->
<g id="Node000016" class="node">
<title>Node16</title>
<g id="a_Node000016"><a xlink:href="class_follow_line_step.html" target="_top" xlink:title="Follow the floor line at a fixed velocity for _target meters.">
<polygon fill="white" stroke="#666666" points="191.38,-315.25 108.62,-315.25 108.62,-296 191.38,-296 191.38,-315.25"/>
<text xml:space="preserve" text-anchor="middle" x="150" y="-301.75" font-family="Helvetica,sans-Serif" font-size="10.00">FollowLineStep</text>
</a>
</g>
</g>
<!-- Node1&#45;&gt;Node16 -->
<g id="edge15_Node000001_Node000016" class="edge">
<title>Node1&#45;&gt;Node16</title>
<g id="a_edge15_Node000001_Node000016"><a xlink:title=" ">
<path fill="none" stroke="#63b8ff" d="M38.16,-396.2C48.36,-375.09 67.01,-342.64 92.5,-323.62 97.2,-320.12 102.61,-317.28 108.18,-314.98"/>
<polygon fill="#63b8ff" stroke="#63b8ff" points="35,-394.67 34,-405.22 41.36,-397.6 35,-394.67"/>
</a>
</g>
</g>
<!-- Node17 -->
<g id="Node000017" class="node">
<title>Node17</title>
<g id="a_Node000017"><a xlink:href="class_index_block_step.html" target="_top" xlink:title="Push the block into the left or right slot of the hopper based on Strategy::IndexDirection.">
<polygon fill="white" stroke="#666666" points="192.5,-278.25 107.5,-278.25 107.5,-259 192.5,-259 192.5,-278.25"/>
<text xml:space="preserve" text-anchor="middle" x="150" y="-264.75" font-family="Helvetica,sans-Serif" font-size="10.00">IndexBlockStep</text>
</a>
</g>
</g>
<!-- Node1&#45;&gt;Node17 -->
<g id="edge16_Node000001_Node000017" class="edge">
<title>Node1&#45;&gt;Node17</title>
<g id="a_edge16_Node000001_Node000017"><a xlink:title=" ">
<path fill="none" stroke="#63b8ff" d="M34.03,-395.35C41.56,-366.61 58.93,-315.66 92.5,-286.62 96.78,-282.92 101.83,-279.98 107.12,-277.64"/>
<polygon fill="#63b8ff" stroke="#63b8ff" points="30.63,-394.49 31.66,-405.03 37.43,-396.15 30.63,-394.49"/>
</a>
</g>
</g>
<!-- Node18 -->
<g id="Node000018" class="node">
<title>Node18</title>
<g id="a_Node000018"><a xlink:href="class_mine_block.html" target="_top" xlink:title="Mine a block by executing a set number of servo press cycles.">
<polygon fill="white" stroke="#666666" points="180.88,-241.25 119.12,-241.25 119.12,-222 180.88,-222 180.88,-241.25"/>
<text xml:space="preserve" text-anchor="middle" x="150" y="-227.75" font-family="Helvetica,sans-Serif" font-size="10.00">MineBlock</text>
</a>
</g>
</g>
<!-- Node1&#45;&gt;Node18 -->
<g id="edge17_Node000001_Node000018" class="edge">
<title>Node1&#45;&gt;Node18</title>
<g id="a_edge17_Node000001_Node000018"><a xlink:title=" ">
<path fill="none" stroke="#63b8ff" d="M31.38,-395.48C36.06,-360.26 50.41,-289.51 92.5,-249.62 99.67,-242.83 109.41,-238.6 118.78,-235.96"/>
<polygon fill="#63b8ff" stroke="#63b8ff" points="27.93,-394.88 30.24,-405.22 34.88,-395.7 27.93,-394.88"/>
</a>
</g>
</g>
<!-- Node19 -->
<g id="Node000019" class="node">
<title>Node19</title>
<g id="a_Node000019"><a xlink:href="class_mine_block_autofire.html" target="_top" xlink:title="Runs the miner and shooter autofire concurrently for desiredSeconds seconds.">
<polygon fill="white" stroke="#666666" points="197.75,-204.25 102.25,-204.25 102.25,-185 197.75,-185 197.75,-204.25"/>
<text xml:space="preserve" text-anchor="middle" x="150" y="-190.75" font-family="Helvetica,sans-Serif" font-size="10.00">MineBlockAutofire</text>
</a>
</g>
</g>
<!-- Node1&#45;&gt;Node19 -->
<g id="edge18_Node000001_Node000019" class="edge">
<title>Node1&#45;&gt;Node19</title>
<g id="a_edge18_Node000001_Node000019"><a xlink:title=" ">
<path fill="none" stroke="#63b8ff" d="M29.68,-395.2C31.69,-354.06 41.96,-263.56 92.5,-212.62 95.62,-209.48 99.28,-206.89 103.22,-204.75"/>
<polygon fill="#63b8ff" stroke="#63b8ff" points="26.19,-394.87 29.34,-404.99 33.19,-395.12 26.19,-394.87"/>
</a>
</g>
</g>
<!-- Node20 -->
<g id="Node000020" class="node">
<title>Node20</title>
<g id="a_Node000020"><a xlink:href="class_parallel_step.html" target="_top" xlink:title="Runs a collection of AutoStep children in parallel each tick.">
<polygon fill="white" stroke="#666666" points="184.25,-167.25 115.75,-167.25 115.75,-148 184.25,-148 184.25,-167.25"/>
<text xml:space="preserve" text-anchor="middle" x="150" y="-153.75" font-family="Helvetica,sans-Serif" font-size="10.00">ParallelStep</text>
</a>
</g>
</g>
<!-- Node1&#45;&gt;Node20 -->
<g id="edge19_Node000001_Node000020" class="edge">
<title>Node1&#45;&gt;Node20</title>
<g id="a_edge19_Node000001_Node000020"><a xlink:title=" ">
<path fill="none" stroke="#63b8ff" d="M28.44,-395.25C27.9,-348.84 33.28,-237.99 92.5,-175.62 98.6,-169.2 106.97,-165.07 115.41,-162.4"/>
<polygon fill="#63b8ff" stroke="#63b8ff" points="24.94,-395.12 28.68,-405.03 31.94,-394.95 24.94,-395.12"/>
</a>
</g>
</g>
<!-- Node21 -->
<g id="Node000021" class="node">
<title>Node21</title>
<g id="a_Node000021"><a xlink:href="class_place_on_table_step.html" target="_top" xlink:title="Placeholder step for placing a block on the crafting table at the correct cycle position.">
<polygon fill="white" stroke="#666666" points="198.5,-130.25 101.5,-130.25 101.5,-111 198.5,-111 198.5,-130.25"/>
<text xml:space="preserve" text-anchor="middle" x="150" y="-116.75" font-family="Helvetica,sans-Serif" font-size="10.00">PlaceOnTableStep</text>
</a>
</g>
</g>
<!-- Node1&#45;&gt;Node21 -->
<g id="edge20_Node000001_Node000021" class="edge">
<title>Node1&#45;&gt;Node21</title>
<g id="a_edge20_Node000001_Node000021"><a xlink:title=" ">
<path fill="none" stroke="#63b8ff" d="M31.39,-395.18C37.64,-336.75 57.63,-176.58 92.5,-138.62 95.43,-135.44 98.91,-132.82 102.7,-130.66"/>
<polygon fill="#63b8ff" stroke="#63b8ff" points="27.91,-394.78 30.37,-405.09 34.88,-395.5 27.91,-394.78"/>
</a>
</g>
</g>
<!-- Node22 -->
<g id="Node000022" class="node">
<title>Node22</title>
<g id="a_Node000022"><a xlink:href="class_reject_block_step.html" target="_top" xlink:title="Placeholder step that discards an unwanted block (completes immediately).">
<polygon fill="white" stroke="#666666" points="194.75,-93.25 105.25,-93.25 105.25,-74 194.75,-74 194.75,-93.25"/>
<text xml:space="preserve" text-anchor="middle" x="150" y="-79.75" font-family="Helvetica,sans-Serif" font-size="10.00">RejectBlockStep</text>
</a>
</g>
</g>
<!-- Node1&#45;&gt;Node22 -->
<g id="edge21_Node000001_Node000022" class="edge">
<title>Node1&#45;&gt;Node22</title>
<g id="a_edge21_Node000001_Node000022"><a xlink:title=" ">
<path fill="none" stroke="#63b8ff" d="M30.76,-395.3C35.66,-331.79 53.16,-145.56 92.5,-101.62 95.93,-97.79 100.18,-94.77 104.79,-92.38"/>
<polygon fill="#63b8ff" stroke="#63b8ff" points="27.28,-394.86 30.03,-405.09 34.26,-395.37 27.28,-394.86"/>
</a>
</g>
</g>
<!-- Node23 -->
<g id="Node000023" class="node">
<title>Node23</title>
<g id="a_Node000023"><a xlink:href="class_replan_step.html" target="_top" xlink:title="Drives a looping planning function that supplies child steps on demand.">
<polygon fill="white" stroke="#666666" points="183.5,-56.25 116.5,-56.25 116.5,-37 183.5,-37 183.5,-56.25"/>
<text xml:space="preserve" text-anchor="middle" x="150" y="-42.75" font-family="Helvetica,sans-Serif" font-size="10.00">ReplanStep</text>
</a>
</g>
</g>
<!-- Node1&#45;&gt;Node23 -->
<g id="edge22_Node000001_Node000023" class="edge">
<title>Node1&#45;&gt;Node23</title>
<g id="a_edge22_Node000001_Node000023"><a xlink:title=" ">
<path fill="none" stroke="#63b8ff" d="M30.25,-395.53C33.9,-327.38 48.65,-114.61 92.5,-64.62 98.61,-57.66 107.41,-53.37 116.25,-50.73"/>
<polygon fill="#63b8ff" stroke="#63b8ff" points="26.77,-395.15 29.76,-405.31 33.76,-395.5 26.77,-395.15"/>
</a>
</g>
</g>
<!-- Node24 -->
<g id="Node000024" class="node">
<title>Node24</title>
<g id="a_Node000024"><a xlink:href="class_strategy_controller_step.html" target="_top" xlink:title="Inline strategy state machine that decides, scans, mines, stores, and crafts.">
<polygon fill="white" stroke="#666666" points="207.5,-19.25 92.5,-19.25 92.5,0 207.5,0 207.5,-19.25"/>
<text xml:space="preserve" text-anchor="middle" x="150" y="-5.75" font-family="Helvetica,sans-Serif" font-size="10.00">StrategyControllerStep</text>
</a>
</g>
</g>
<!-- Node1&#45;&gt;Node24 -->
<g id="edge23_Node000001_Node000024" class="edge">
<title>Node1&#45;&gt;Node24</title>
<g id="a_edge23_Node000001_Node000024"><a xlink:title=" ">
<path fill="none" stroke="#63b8ff" d="M29.86,-395.23C32.38,-322.11 44.23,-83.59 92.5,-27.62 95.26,-24.43 98.58,-21.79 102.22,-19.62"/>
<polygon fill="#63b8ff" stroke="#63b8ff" points="26.37,-394.92 29.55,-405.02 33.37,-395.14 26.37,-394.92"/>
</a>
</g>
</g>
</g>
</svg>
