<?xml version="1.0" encoding="UTF-8" standalone="no"?>
<!DOCTYPE svg PUBLIC "-//W3C//DTD SVG 1.1//EN"
 "http://www.w3.org/Graphics/SVG/1.1/DTD/svg11.dtd">
<!-- Generated by graphviz version 14.1.2 (20260124.0452)
 -->
<!-- Title: AdvanceCycleStep::start Pages: 1 -->
<svg width="469pt" height="64pt"
 viewBox="0.00 0.00 469.00 64.00" xmlns="http://www.w3.org/2000/svg" xmlns:xlink="http://www.w3.org/1999/xlink">
<g id="graph0" class="graph" transform="scale(1 1) rotate(0) translate(4 60.25)">
<title>AdvanceCycleStep::start</title>
<!-- Node1 -->
<g id="Node000001" class="node">
<title>Node1</title>
<g id="a_Node000001"><a xlink:title=" ">
<polygon fill="#999999" stroke="#666666" points="125.5,-37.25 0,-37.25 0,-18 125.5,-18 125.5,-37.25"/>
<text xml:space="preserve" text-anchor="middle" x="62.75" y="-23.75" font-family="Helvetica,sans-Serif" font-size="10.00">AdvanceCycleStep::start</text>
</a>
</g>
</g>
<!-- Node2 -->
<g id="Node000002" class="node">
<title>Node2</title>
<g id="a_Node000002"><a xlink:href="class_strategy.html#aedae1e448cc25d6ab2f6c7b4adef39fb" target="_top" xlink:title=" ">
<polygon fill="white" stroke="#666666" points="282.5,-56.25 161.5,-56.25 161.5,-37 282.5,-37 282.5,-56.25"/>
<text xml:space="preserve" text-anchor="middle" x="222" y="-42.75" font-family="Helvetica,sans-Serif" font-size="10.00">Strategy::advanceCycle</text>
</a>
</g>
</g>
<!-- Node1&#45;&gt;Node2 -->
<g id="edge1_Node000001_Node000002" class="edge">
<title>Node1&#45;&gt;Node2</title>
<g id="a_edge1_Node000001_Node000002"><a xlink:title=" ">
<path fill="none" stroke="#63b8ff" d="M125.9,-35.13C133.78,-36.09 141.88,-37.07 149.89,-38.03"/>
<polygon fill="#63b8ff" stroke="#63b8ff" points="149.25,-41.48 159.6,-39.21 150.09,-34.53 149.25,-41.48"/>
</a>
</g>
</g>
<!-- Node4 -->
<g id="Node000004" class="node">
<title>Node4</title>
<g id="a_Node000004"><a xlink:href="class_strategy.html#a2c7a2f138418db83f7854fe41ef5a608" target="_top" xlink:title=" ">
<polygon fill="white" stroke="#666666" points="276.88,-19.25 167.12,-19.25 167.12,0 276.88,0 276.88,-19.25"/>
<text xml:space="preserve" text-anchor="middle" x="222" y="-5.75" font-family="Helvetica,sans-Serif" font-size="10.00">Strategy::getInstance</text>
</a>
</g>
</g>
<!-- Node1&#45;&gt;Node4 -->
<g id="edge3_Node000001_Node000004" class="edge">
<title>Node1&#45;&gt;Node4</title>
<g id="a_edge3_Node000001_Node000004"><a xlink:title=" ">
<path fill="none" stroke="#63b8ff" d="M125.9,-20.51C135.59,-19.4 145.62,-18.25 155.39,-17.14"/>
<polygon fill="#63b8ff" stroke="#63b8ff" points="155.64,-20.63 165.18,-16.01 154.84,-13.67 155.64,-20.63"/>
</a>
</g>
</g>
<!-- Node3 -->
<g id="Node000003" class="node">
<title>Node3</title>
<g id="a_Node000003"><a xlink:href="class_strategy.html#a5fcf479ff2f81b1a527e2f018f37429e" target="_top" xlink:title=" ">
<polygon fill="white" stroke="#666666" points="460.5,-56.25 318.5,-56.25 318.5,-37 460.5,-37 460.5,-56.25"/>
<text xml:space="preserve" text-anchor="middle" x="389.5" y="-42.75" font-family="Helvetica,sans-Serif" font-size="10.00">Strategy::clearAllPossession</text>
</a>
</g>
</g>
<!-- Node2&#45;&gt;Node3 -->
<g id="edge2_Node000002_Node000003" class="edge">
<title>Node2&#45;&gt;Node3</title>
<g id="a_edge2_Node000002_Node000003"><a xlink:title=" ">
<path fill="none" stroke="#63b8ff" d="M282.75,-46.62C290.55,-46.62 298.65,-46.62 306.74,-46.62"/>
<polygon fill="#63b8ff" stroke="#63b8ff" points="306.62,-50.13 316.62,-46.63 306.62,-43.13 306.62,-50.13"/>
</a>
</g>
</g>
</g>
</svg>
