<?xml version="1.0" encoding="UTF-8" standalone="no"?>
<!DOCTYPE svg PUBLIC "-//W3C//DTD SVG 1.1//EN"
 "http://www.w3.org/Graphics/SVG/1.1/DTD/svg11.dtd">
<!-- Generated by graphviz version 14.1.2 (20260124.0452)
 -->
<!-- Title: Miner::update Pages: 1 -->
<svg width="563pt" height="179pt"
 viewBox="0.00 0.00 563.00 179.00" xmlns="http://www.w3.org/2000/svg" xmlns:xlink="http://www.w3.org/1999/xlink">
<g id="graph0" class="graph" transform="scale(1 1) rotate(0) translate(4 175.25)">
<title>Miner::update</title>
<!-- Node1 -->
<g id="Node000001" class="node">
<title>Node1</title>
<g id="a_Node000001"><a xlink:title=" ">
<polygon fill="#999999" stroke="#666666" points="75.25,-76.25 0,-76.25 0,-57 75.25,-57 75.25,-76.25"/>
<text xml:space="preserve" text-anchor="middle" x="37.62" y="-62.75" font-family="Helvetica,sans-Serif" font-size="10.00">Miner::update</text>
</a>
</g>
</g>
<!-- Node2 -->
<g id="Node000002" class="node">
<title>Node2</title>
<g id="a_Node000002"><a xlink:href="class_miner.html#acfbf4c865a8dc5b3b96e9e5322a51ae2" target="_top" xlink:title=" ">
<polygon fill="white" stroke="#666666" points="204.12,-133.25 137.12,-133.25 137.12,-114 204.12,-114 204.12,-133.25"/>
<text xml:space="preserve" text-anchor="middle" x="170.62" y="-119.75" font-family="Helvetica,sans-Serif" font-size="10.00">Miner::mine</text>
</a>
</g>
</g>
<!-- Node1&#45;&gt;Node2 -->
<g id="edge1_Node000001_Node000002" class="edge">
<title>Node1&#45;&gt;Node2</title>
<g id="a_edge1_Node000001_Node000002"><a xlink:title=" ">
<path fill="none" stroke="#63b8ff" d="M60.14,-76.65C74.55,-83.3 93.96,-92.15 111.25,-99.62 118.55,-102.78 126.4,-106.08 133.9,-109.18"/>
<polygon fill="#63b8ff" stroke="#63b8ff" points="132.56,-112.41 143.14,-112.97 135.22,-105.94 132.56,-112.41"/>
</a>
</g>
</g>
<!-- Node4 -->
<g id="Node000004" class="node">
<title>Node4</title>
<g id="a_Node000004"><a xlink:href="class_miner.html#a437a0fdc0f9be6b0ffc27da25ab928b1" target="_top" xlink:title=" ">
<polygon fill="white" stroke="#666666" points="555.25,-95.25 427.5,-95.25 427.5,-76 555.25,-76 555.25,-95.25"/>
<text xml:space="preserve" text-anchor="middle" x="491.38" y="-81.75" font-family="Helvetica,sans-Serif" font-size="10.00">Miner::setServoToRetract</text>
</a>
</g>
</g>
<!-- Node1&#45;&gt;Node4 -->
<g id="edge6_Node000001_Node000004" class="edge">
<title>Node1&#45;&gt;Node4</title>
<g id="a_edge6_Node000001_Node000004"><a xlink:title=" ">
<path fill="none" stroke="#63b8ff" d="M75.57,-64.33C139.92,-60.84 276.69,-55.69 391.5,-66.62 406.05,-68.01 421.65,-70.52 436.06,-73.27"/>
<polygon fill="#63b8ff" stroke="#63b8ff" points="435.34,-76.69 445.83,-75.21 436.71,-69.83 435.34,-76.69"/>
</a>
</g>
</g>
<!-- Node5 -->
<g id="Node000005" class="node">
<title>Node5</title>
<g id="a_Node000005"><a xlink:href="class_miner.html#a26f3ff0ceeae35f37c087bbb17767f17" target="_top" xlink:title=" ">
<polygon fill="white" stroke="#666666" points="391.5,-95.25 266,-95.25 266,-76 391.5,-76 391.5,-95.25"/>
<text xml:space="preserve" text-anchor="middle" x="328.75" y="-81.75" font-family="Helvetica,sans-Serif" font-size="10.00">Miner::stopMiningInternal</text>
</a>
</g>
</g>
<!-- Node1&#45;&gt;Node5 -->
<g id="edge8_Node000001_Node000005" class="edge">
<title>Node1&#45;&gt;Node5</title>
<g id="a_edge8_Node000001_Node000005"><a xlink:title=" ">
<path fill="none" stroke="#63b8ff" d="M75.54,-69.05C120.49,-72.01 197.5,-77.07 254.62,-80.82"/>
<polygon fill="#63b8ff" stroke="#63b8ff" points="254.05,-84.29 264.25,-81.45 254.51,-77.3 254.05,-84.29"/>
</a>
</g>
</g>
<!-- Node6 -->
<g id="Node000006" class="node">
<title>Node6</title>
<g id="a_Node000006"><a xlink:href="class_miner.html#a1e9e4d2f46296b496c59993039786eb4" target="_top" xlink:title=" ">
<polygon fill="white" stroke="#666666" points="230,-19.25 111.25,-19.25 111.25,0 230,0 230,-19.25"/>
<text xml:space="preserve" text-anchor="middle" x="170.62" y="-5.75" font-family="Helvetica,sans-Serif" font-size="10.00">Miner::setServoToStore</text>
</a>
</g>
</g>
<!-- Node1&#45;&gt;Node6 -->
<g id="edge7_Node000001_Node000006" class="edge">
<title>Node1&#45;&gt;Node6</title>
<g id="a_edge7_Node000001_Node000006"><a xlink:title=" ">
<path fill="none" stroke="#63b8ff" d="M60.14,-56.6C74.55,-49.95 93.96,-41.1 111.25,-33.62 118.55,-30.47 126.4,-27.17 133.9,-24.07"/>
<polygon fill="#63b8ff" stroke="#63b8ff" points="135.22,-27.31 143.14,-20.28 132.56,-20.84 135.22,-27.31"/>
</a>
</g>
</g>
<!-- Node3 -->
<g id="Node000003" class="node">
<title>Node3</title>
<g id="a_Node000003"><a xlink:href="class_miner.html#a9e800360111af4b673ba51eab5eace0a" target="_top" xlink:title=" ">
<polygon fill="white" stroke="#666666" points="389.25,-171.25 268.25,-171.25 268.25,-152 389.25,-152 389.25,-171.25"/>
<text xml:space="preserve" text-anchor="middle" x="328.75" y="-157.75" font-family="Helvetica,sans-Serif" font-size="10.00">Miner::setServoToPress</text>
</a>
</g>
</g>
<!-- Node2&#45;&gt;Node3 -->
<g id="edge2_Node000002_Node000003" class="edge">
<title>Node2&#45;&gt;Node3</title>
<g id="a_edge2_Node000002_Node000003"><a xlink:title=" ">
<path fill="none" stroke="#63b8ff" d="M204.35,-131.59C224.96,-136.61 252.03,-143.19 275.55,-148.92"/>
<polygon fill="#63b8ff" stroke="#63b8ff" points="274.41,-152.24 284.96,-151.21 276.07,-145.44 274.41,-152.24"/>
</a>
</g>
</g>
<!-- Node2&#45;&gt;Node4 -->
<g id="edge3_Node000002_Node000004" class="edge">
<title>Node2&#45;&gt;Node4</title>
<g id="a_edge3_Node000002_Node000004"><a xlink:title=" ">
<path fill="none" stroke="#63b8ff" d="M204.53,-121.85C247.62,-119.28 325.47,-113.8 391.5,-104.62 404.76,-102.78 418.93,-100.34 432.28,-97.83"/>
<polygon fill="#63b8ff" stroke="#63b8ff" points="432.62,-101.33 441.78,-96 431.3,-94.45 432.62,-101.33"/>
</a>
</g>
</g>
<!-- Node2&#45;&gt;Node5 -->
<g id="edge4_Node000002_Node000005" class="edge">
<title>Node2&#45;&gt;Node5</title>
<g id="a_edge4_Node000002_Node000005"><a xlink:title=" ">
<path fill="none" stroke="#63b8ff" d="M204.35,-115.66C224.96,-110.64 252.03,-104.06 275.55,-98.33"/>
<polygon fill="#63b8ff" stroke="#63b8ff" points="276.07,-101.81 284.96,-96.04 274.41,-95.01 276.07,-101.81"/>
</a>
</g>
</g>
<!-- Node5&#45;&gt;Node4 -->
<g id="edge5_Node000005_Node000004" class="edge">
<title>Node5&#45;&gt;Node4</title>
<g id="a_edge5_Node000005_Node000004"><a xlink:title=" ">
<path fill="none" stroke="#63b8ff" d="M391.85,-85.62C399.71,-85.62 407.82,-85.62 415.85,-85.62"/>
<polygon fill="#63b8ff" stroke="#63b8ff" points="415.6,-89.13 425.6,-85.63 415.6,-82.13 415.6,-89.13"/>
</a>
</g>
</g>
</g>
</svg>
