<?xml version="1.0" encoding="UTF-8" standalone="no"?>
<!DOCTYPE svg PUBLIC "-//W3C//DTD SVG 1.1//EN"
 "http://www.w3.org/Graphics/SVG/1.1/DTD/svg11.dtd">
<!-- Generated by graphviz version 14.1.2 (20260124.0452)
 -->
<!-- Title: Miner::update Pages: 1 -->
<svg width="645pt" height="253pt"
 viewBox="0.00 0.00 645.00 253.00" xmlns="http://www.w3.org/2000/svg" xmlns:xlink="http://www.w3.org/1999/xlink">
<g id="graph0" class="graph" transform="scale(1 1) rotate(0) translate(4 249.25)">
<title>Miner::update</title>
<!-- Node1 -->
<g id="Node000001" class="node">
<title>Node1</title>
<g id="a_Node000001"><a xlink:title="Update control outputs. Called every loop iteration.">
<polygon fill="#999999" stroke="#666666" points="75.25,-112.25 0,-112.25 0,-93 75.25,-93 75.25,-112.25"/>
<text xml:space="preserve" text-anchor="middle" x="37.62" y="-98.75" font-family="Helvetica,sans-Serif" font-size="10.00">Miner::update</text>
</a>
</g>
</g>
<!-- Node2 -->
<g id="Node000002" class="node">
<title>Node2</title>
<g id="a_Node000002"><a xlink:href="class_miner.html#acfbf4c865a8dc5b3b96e9e5322a51ae2" target="_top" xlink:title="Drive the miner servo to the press&#45;down angle.">
<polygon fill="white" stroke="#666666" points="223.25,-207.25 156.25,-207.25 156.25,-188 223.25,-188 223.25,-207.25"/>
<text xml:space="preserve" text-anchor="middle" x="189.75" y="-193.75" font-family="Helvetica,sans-Serif" font-size="10.00">Miner::mine</text>
</a>
</g>
</g>
<!-- Node1&#45;&gt;Node2 -->
<g id="edge1_Node000001_Node000002" class="edge">
<title>Node1&#45;&gt;Node2</title>
<g id="a_edge1_Node000001_Node000002"><a xlink:title=" ">
<path fill="none" stroke="#63b8ff" d="M46.21,-112.62C58.33,-127.93 83.53,-157.11 111.25,-173.62 121.61,-179.8 133.71,-184.53 145.23,-188.09"/>
<polygon fill="#63b8ff" stroke="#63b8ff" points="143.99,-191.37 154.56,-190.74 145.9,-184.64 143.99,-191.37"/>
</a>
</g>
</g>
<!-- Node4 -->
<g id="Node000004" class="node">
<title>Node4</title>
<g id="a_Node000004"><a xlink:href="class_miner.html#a9f02a17fa9cd96b2bdd5796b42cbb807" target="_top" xlink:title="Retract the miner servo to clear the dispenser for the next block.">
<polygon fill="white" stroke="#666666" points="637,-169.25 485.25,-169.25 485.25,-150 637,-150 637,-169.25"/>
<text xml:space="preserve" text-anchor="middle" x="561.12" y="-155.75" font-family="Helvetica,sans-Serif" font-size="10.00">Miner::setMinerServoToRetract</text>
</a>
</g>
</g>
<!-- Node1&#45;&gt;Node4 -->
<g id="edge6_Node000001_Node000004" class="edge">
<title>Node1&#45;&gt;Node4</title>
<g id="a_edge6_Node000001_Node000004"><a xlink:title=" ">
<path fill="none" stroke="#63b8ff" d="M75.54,-105.08C147.59,-110.08 311.9,-122.53 449.25,-140.62 464.06,-142.58 479.92,-145.06 494.88,-147.58"/>
<polygon fill="#63b8ff" stroke="#63b8ff" points="494.17,-151.01 504.62,-149.25 495.36,-144.11 494.17,-151.01"/>
</a>
</g>
</g>
<!-- Node5 -->
<g id="Node000005" class="node">
<title>Node5</title>
<g id="a_Node000005"><a xlink:href="class_miner.html#a26f3ff0ceeae35f37c087bbb17767f17" target="_top" xlink:title="Internal: transition to OFF mode, reset timers, and immediately retract the miner servo.">
<polygon fill="white" stroke="#666666" points="439.5,-169.25 314,-169.25 314,-150 439.5,-150 439.5,-169.25"/>
<text xml:space="preserve" text-anchor="middle" x="376.75" y="-155.75" font-family="Helvetica,sans-Serif" font-size="10.00">Miner::stopMiningInternal</text>
</a>
</g>
</g>
<!-- Node1&#45;&gt;Node5 -->
<g id="edge10_Node000001_Node000005" class="edge">
<title>Node1&#45;&gt;Node5</title>
<g id="a_edge10_Node000001_Node000005"><a xlink:title=" ">
<path fill="none" stroke="#63b8ff" d="M56.21,-112.65C70.54,-120.31 91.57,-130.42 111.25,-135.62 174.27,-152.29 248.35,-157.87 302.06,-159.52"/>
<polygon fill="#63b8ff" stroke="#63b8ff" points="301.94,-163.02 312.03,-159.78 302.12,-156.02 301.94,-163.02"/>
</a>
</g>
</g>
<!-- Node6 -->
<g id="Node000006" class="node">
<title>Node6</title>
<g id="a_Node000006"><a xlink:href="class_miner.html#a04f9db708e46ce49b08a98155ccaf251" target="_top" xlink:title="Raise the ramp to the block&#45;catching (LIFT) angle.">
<polygon fill="white" stroke="#666666" points="257.38,-93.25 122.12,-93.25 122.12,-74 257.38,-74 257.38,-93.25"/>
<text xml:space="preserve" text-anchor="middle" x="189.75" y="-79.75" font-family="Helvetica,sans-Serif" font-size="10.00">Miner::setRampServoToLift</text>
</a>
</g>
</g>
<!-- Node1&#45;&gt;Node6 -->
<g id="edge7_Node000001_Node000006" class="edge">
<title>Node1&#45;&gt;Node6</title>
<g id="a_edge7_Node000001_Node000006"><a xlink:title=" ">
<path fill="none" stroke="#63b8ff" d="M75.73,-97.93C86.37,-96.58 98.39,-95.06 110.51,-93.53"/>
<polygon fill="#63b8ff" stroke="#63b8ff" points="110.66,-97.04 120.14,-92.31 109.78,-90.09 110.66,-97.04"/>
</a>
</g>
</g>
<!-- Node7 -->
<g id="Node000007" class="node">
<title>Node7</title>
<g id="a_Node000007"><a xlink:href="class_miner.html#a9aebb2834badb2cc2bc151bcdccabfd0" target="_top" xlink:title="Lower the ramp to the passive (neutral) angle between mining cycles.">
<polygon fill="white" stroke="#666666" points="268.25,-56.25 111.25,-56.25 111.25,-37 268.25,-37 268.25,-56.25"/>
<text xml:space="preserve" text-anchor="middle" x="189.75" y="-42.75" font-family="Helvetica,sans-Serif" font-size="10.00">Miner::setRampServoToPassive</text>
</a>
</g>
</g>
<!-- Node1&#45;&gt;Node7 -->
<g id="edge8_Node000001_Node000007" class="edge">
<title>Node1&#45;&gt;Node7</title>
<g id="a_edge8_Node000001_Node000007"><a xlink:title=" ">
<path fill="none" stroke="#63b8ff" d="M54.8,-92.63C69.17,-84.13 90.97,-72.15 111.25,-64.62 115.97,-62.88 120.91,-61.26 125.92,-59.77"/>
<polygon fill="#63b8ff" stroke="#63b8ff" points="126.77,-63.17 135.47,-57.13 124.9,-56.42 126.77,-63.17"/>
</a>
</g>
</g>
<!-- Node8 -->
<g id="Node000008" class="node">
<title>Node8</title>
<g id="a_Node000008"><a xlink:href="class_miner.html#a0b5a31a12bfa80912aa22cd1e21cde84" target="_top" xlink:title="Stow both the miner servo and the ramp servo in the transport position.">
<polygon fill="white" stroke="#666666" points="251.75,-19.25 127.75,-19.25 127.75,0 251.75,0 251.75,-19.25"/>
<text xml:space="preserve" text-anchor="middle" x="189.75" y="-5.75" font-family="Helvetica,sans-Serif" font-size="10.00">Miner::setServosToStore</text>
</a>
</g>
</g>
<!-- Node1&#45;&gt;Node8 -->
<g id="edge9_Node000001_Node000008" class="edge">
<title>Node1&#45;&gt;Node8</title>
<g id="a_edge9_Node000001_Node000008"><a xlink:title=" ">
<path fill="none" stroke="#63b8ff" d="M45.36,-92.59C56.87,-76.3 81.91,-44.23 111.25,-27.62 113.72,-26.23 116.3,-24.94 118.94,-23.75"/>
<polygon fill="#63b8ff" stroke="#63b8ff" points="119.98,-27.1 128.02,-20.19 117.43,-20.58 119.98,-27.1"/>
</a>
</g>
</g>
<!-- Node3 -->
<g id="Node000003" class="node">
<title>Node3</title>
<g id="a_Node000003"><a xlink:href="class_miner.html#a6fbd323fb3ceceabde90ca2c3ecb5b16" target="_top" xlink:title=" ">
<polygon fill="white" stroke="#666666" points="449.25,-245.25 304.25,-245.25 304.25,-226 449.25,-226 449.25,-245.25"/>
<text xml:space="preserve" text-anchor="middle" x="376.75" y="-231.75" font-family="Helvetica,sans-Serif" font-size="10.00">Miner::setMinerServoToPress</text>
</a>
</g>
</g>
<!-- Node2&#45;&gt;Node3 -->
<g id="edge2_Node000002_Node000003" class="edge">
<title>Node2&#45;&gt;Node3</title>
<g id="a_edge2_Node000002_Node000003"><a xlink:title=" ">
<path fill="none" stroke="#63b8ff" d="M223.4,-204.33C248.9,-209.57 285.03,-216.99 315.71,-223.29"/>
<polygon fill="#63b8ff" stroke="#63b8ff" points="314.75,-226.67 325.25,-225.25 316.16,-219.81 314.75,-226.67"/>
</a>
</g>
</g>
<!-- Node2&#45;&gt;Node4 -->
<g id="edge3_Node000002_Node000004" class="edge">
<title>Node2&#45;&gt;Node4</title>
<g id="a_edge3_Node000002_Node000004"><a xlink:title=" ">
<path fill="none" stroke="#63b8ff" d="M223.49,-196.23C272.66,-193.91 368.4,-188.5 449.25,-178.62 464.62,-176.75 481.09,-174.21 496.53,-171.61"/>
<polygon fill="#63b8ff" stroke="#63b8ff" points="496.79,-175.11 506.05,-169.96 495.6,-168.21 496.79,-175.11"/>
</a>
</g>
</g>
<!-- Node2&#45;&gt;Node5 -->
<g id="edge4_Node000002_Node000005" class="edge">
<title>Node2&#45;&gt;Node5</title>
<g id="a_edge4_Node000002_Node000005"><a xlink:title=" ">
<path fill="none" stroke="#63b8ff" d="M223.4,-190.92C248.9,-185.68 285.03,-178.26 315.71,-171.96"/>
<polygon fill="#63b8ff" stroke="#63b8ff" points="316.16,-175.44 325.25,-170 314.75,-168.58 316.16,-175.44"/>
</a>
</g>
</g>
<!-- Node5&#45;&gt;Node4 -->
<g id="edge5_Node000005_Node000004" class="edge">
<title>Node5&#45;&gt;Node4</title>
<g id="a_edge5_Node000005_Node000004"><a xlink:title=" ">
<path fill="none" stroke="#63b8ff" d="M439.75,-159.62C450.67,-159.62 462.21,-159.62 473.66,-159.62"/>
<polygon fill="#63b8ff" stroke="#63b8ff" points="473.53,-163.13 483.53,-159.63 473.53,-156.13 473.53,-163.13"/>
</a>
</g>
</g>
</g>
</svg>
