<?xml version="1.0" encoding="UTF-8" standalone="no"?>
<!DOCTYPE svg PUBLIC "-//W3C//DTD SVG 1.1//EN"
 "http://www.w3.org/Graphics/SVG/1.1/DTD/svg11.dtd">
<!-- Generated by graphviz version 14.1.2 (20260124.0452)
 -->
<!-- Title: Planner Pages: 1 -->
<svg width="893pt" height="538pt"
 viewBox="0.00 0.00 893.00 538.00" xmlns="http://www.w3.org/2000/svg" xmlns:xlink="http://www.w3.org/1999/xlink">
<g id="graph0" class="graph" transform="scale(1 1) rotate(0) translate(4 533.81)">
<title>Planner</title>
<!-- Node1 -->
<g id="Node000001" class="node">
<title>Node1</title>
<g id="a_Node000001"><a xlink:title="Phase&#45;based autonomous planner compatible with ReplanStep.">
<polygon fill="#999999" stroke="#666666" points="885.25,-222.35 836.25,-222.35 836.25,-203.1 885.25,-203.1 885.25,-222.35"/>
<text xml:space="preserve" text-anchor="middle" x="860.75" y="-208.85" font-family="Helvetica,sans-Serif" font-size="10.00">Planner</text>
</a>
</g>
</g>
<!-- Node2 -->
<g id="Node000002" class="node">
<title>Node2</title>
<g id="a_Node000002"><a xlink:href="class_drive.html" target="_top" xlink:title=" ">
<polygon fill="white" stroke="#666666" points="548.38,-200.35 509.12,-200.35 509.12,-181.1 548.38,-181.1 548.38,-200.35"/>
<text xml:space="preserve" text-anchor="middle" x="528.75" y="-186.85" font-family="Helvetica,sans-Serif" font-size="10.00">Drive</text>
</a>
</g>
</g>
<!-- Node2&#45;&gt;Node1 -->
<g id="edge1_Node000001_Node000002" class="edge">
<title>Node2&#45;&gt;Node1</title>
<g id="a_edge1_Node000001_Node000002"><a xlink:title=" ">
<path fill="none" stroke="#9a32cd" stroke-dasharray="5,2" d="M535.75,-211.64C542.19,-229.82 554.4,-255.02 575,-266.73 618.08,-291.22 495.31,-379.64 818.25,-246.73 831.17,-241.41 843.2,-230.65 850.94,-222.65"/>
<polygon fill="#9a32cd" stroke="#9a32cd" points="539.08,-210.57 532.7,-202.12 532.41,-212.71 539.08,-210.57"/>
</a>
</g>
<text xml:space="preserve" text-anchor="start" x="662.12" y="-319.85" font-family="Helvetica,sans-Serif" font-size="10.00" fill="grey">_drive</text>
</g>
<!-- Node18 -->
<g id="Node000018" class="node">
<title>Node18</title>
<g id="a_Node000018"><a xlink:href="class_drive_distance.html" target="_top" xlink:title="Drive in a straight line for targetDistance meters at targetVelocity m/s.">
<polygon fill="white" stroke="#666666" points="714.38,-140.35 636.12,-140.35 636.12,-121.1 714.38,-121.1 714.38,-140.35"/>
<text xml:space="preserve" text-anchor="middle" x="675.25" y="-126.85" font-family="Helvetica,sans-Serif" font-size="10.00">DriveDistance</text>
</a>
</g>
</g>
<!-- Node2&#45;&gt;Node18 -->
<g id="edge24_Node000018_Node000002" class="edge">
<title>Node2&#45;&gt;Node18</title>
<g id="a_edge24_Node000018_Node000002"><a xlink:title=" ">
<path fill="none" stroke="#9a32cd" stroke-dasharray="5,2" d="M559.05,-177.41C564.34,-175.07 569.82,-172.67 575,-170.48 599.78,-159.98 628.33,-148.62 648.43,-140.74"/>
<polygon fill="#9a32cd" stroke="#9a32cd" points="557.69,-174.19 549.99,-181.47 560.55,-180.58 557.69,-174.19"/>
</a>
</g>
<text xml:space="preserve" text-anchor="start" x="578" y="-175.23" font-family="Helvetica,sans-Serif" font-size="10.00" fill="grey">_drive</text>
</g>
<!-- Node20 -->
<g id="Node000020" class="node">
<title>Node20</title>
<g id="a_Node000020"><a xlink:href="class_drive_arc.html" target="_top" xlink:title="Commands the drive to follow a radius&#45;constrained arc until an angle or distance target is met.">
<polygon fill="white" stroke="#666666" points="702.38,-202.35 648.12,-202.35 648.12,-183.1 702.38,-183.1 702.38,-202.35"/>
<text xml:space="preserve" text-anchor="middle" x="675.25" y="-188.85" font-family="Helvetica,sans-Serif" font-size="10.00">DriveArc</text>
</a>
</g>
</g>
<!-- Node2&#45;&gt;Node20 -->
<g id="edge27_Node000020_Node000002" class="edge">
<title>Node2&#45;&gt;Node20</title>
<g id="a_edge27_Node000020_Node000002"><a xlink:title=" ">
<path fill="none" stroke="#9a32cd" stroke-dasharray="5,2" d="M560.04,-191.15C585.98,-191.51 622.97,-192.02 647.75,-192.36"/>
<polygon fill="#9a32cd" stroke="#9a32cd" points="560.2,-187.65 550.15,-191.01 560.1,-194.65 560.2,-187.65"/>
</a>
</g>
<text xml:space="preserve" text-anchor="start" x="578" y="-196.54" font-family="Helvetica,sans-Serif" font-size="10.00" fill="grey">_drive</text>
</g>
<!-- Node21 -->
<g id="Node000021" class="node">
<title>Node21</title>
<g id="a_Node000021"><a xlink:href="class_follow_line_step.html" target="_top" xlink:title="Follow the floor line at a fixed velocity for _target meters.">
<polygon fill="white" stroke="#666666" points="716.62,-242.35 633.88,-242.35 633.88,-223.1 716.62,-223.1 716.62,-242.35"/>
<text xml:space="preserve" text-anchor="middle" x="675.25" y="-228.85" font-family="Helvetica,sans-Serif" font-size="10.00">FollowLineStep</text>
</a>
</g>
</g>
<!-- Node2&#45;&gt;Node21 -->
<g id="edge30_Node000021_Node000002" class="edge">
<title>Node2&#45;&gt;Node21</title>
<g id="a_edge30_Node000021_Node000002"><a xlink:title=" ">
<path fill="none" stroke="#9a32cd" stroke-dasharray="5,2" d="M542.13,-210.17C550.08,-220.76 561.45,-232.88 575,-238.73 594.34,-247.07 617.78,-246.1 637.03,-242.8"/>
<polygon fill="#9a32cd" stroke="#9a32cd" points="545.02,-208.2 536.45,-201.97 539.27,-212.19 545.02,-208.2"/>
</a>
</g>
<text xml:space="preserve" text-anchor="start" x="578" y="-249.89" font-family="Helvetica,sans-Serif" font-size="10.00" fill="grey">_drive</text>
</g>
<!-- Node3 -->
<g id="Node000003" class="node">
<title>Node3</title>
<g id="a_Node000003"><a xlink:href="class_subsystem.html" target="_top" xlink:title="Polymorphic interface for a robot subsystem.">
<polygon fill="white" stroke="#666666" points="360.25,-412.35 294.75,-412.35 294.75,-393.1 360.25,-393.1 360.25,-412.35"/>
<text xml:space="preserve" text-anchor="middle" x="327.5" y="-398.85" font-family="Helvetica,sans-Serif" font-size="10.00">Subsystem</text>
</a>
</g>
</g>
<!-- Node3&#45;&gt;Node2 -->
<g id="edge2_Node000002_Node000003" class="edge">
<title>Node3&#45;&gt;Node2</title>
<g id="a_edge2_Node000002_Node000003"><a xlink:title=" ">
<path fill="none" stroke="#63b8ff" d="M349.52,-385.97C362.6,-376.15 380.1,-364.08 397,-355.73 432.85,-338.02 454.19,-355.97 482.5,-327.73 518.86,-291.47 526,-225.43 527.41,-200.56"/>
<polygon fill="#63b8ff" stroke="#63b8ff" points="347.46,-383.15 341.67,-392.02 351.72,-388.69 347.46,-383.15"/>
</a>
</g>
</g>
<!-- Node14 -->
<g id="Node000014" class="node">
<title>Node14</title>
<g id="a_Node000014"><a xlink:href="class_miner.html" target="_top" xlink:title="Servo&#45;driven block&#45;mining and ramp&#45;deployment subsystem.">
<polygon fill="white" stroke="#666666" points="548.75,-477.35 508.75,-477.35 508.75,-458.1 548.75,-458.1 548.75,-477.35"/>
<text xml:space="preserve" text-anchor="middle" x="528.75" y="-463.85" font-family="Helvetica,sans-Serif" font-size="10.00">Miner</text>
</a>
</g>
</g>
<!-- Node3&#45;&gt;Node14 -->
<g id="edge15_Node000014_Node000003" class="edge">
<title>Node3&#45;&gt;Node14</title>
<g id="a_edge15_Node000014_Node000003"><a xlink:title=" ">
<path fill="none" stroke="#63b8ff" d="M370.82,-415.1C373.73,-416.75 376.5,-418.62 379,-420.73 391.48,-431.25 383.41,-443.7 397,-452.73 431.07,-475.36 481.42,-473.68 508.63,-470.62"/>
<polygon fill="#63b8ff" stroke="#63b8ff" points="372.44,-411.99 361.9,-410.9 369.46,-418.32 372.44,-411.99"/>
</a>
</g>
</g>
<!-- Node16 -->
<g id="Node000016" class="node">
<title>Node16</title>
<g id="a_Node000016"><a xlink:href="class_shooter.html" target="_top" xlink:title="Rack&#45;and&#45;pinion block shooter controlled by encoder feedback.">
<polygon fill="white" stroke="#666666" points="553.62,-415.35 503.88,-415.35 503.88,-396.1 553.62,-396.1 553.62,-415.35"/>
<text xml:space="preserve" text-anchor="middle" x="528.75" y="-401.85" font-family="Helvetica,sans-Serif" font-size="10.00">Shooter</text>
</a>
</g>
</g>
<!-- Node3&#45;&gt;Node16 -->
<g id="edge18_Node000016_Node000003" class="edge">
<title>Node3&#45;&gt;Node16</title>
<g id="a_edge18_Node000016_Node000003"><a xlink:title=" ">
<path fill="none" stroke="#63b8ff" d="M371.9,-403.38C412.3,-403.99 471.04,-404.88 503.65,-405.37"/>
<polygon fill="#63b8ff" stroke="#63b8ff" points="372.08,-399.89 362.03,-403.23 371.97,-406.88 372.08,-399.89"/>
</a>
</g>
</g>
<!-- Node4 -->
<g id="Node000004" class="node">
<title>Node4</title>
<g id="a_Node000004"><a xlink:href="class_encoder_wrapper.html" target="_top" xlink:title="Quadrature encoder driver with velocity and acceleration estimation.">
<polygon fill="white" stroke="#666666" points="371.5,-199.35 283.5,-199.35 283.5,-180.1 371.5,-180.1 371.5,-199.35"/>
<text xml:space="preserve" text-anchor="middle" x="327.5" y="-185.85" font-family="Helvetica,sans-Serif" font-size="10.00">EncoderWrapper</text>
</a>
</g>
</g>
<!-- Node4&#45;&gt;Node2 -->
<g id="edge3_Node000002_Node000004" class="edge">
<title>Node4&#45;&gt;Node2</title>
<g id="a_edge3_Node000002_Node000004"><a xlink:title=" ">
<path fill="none" stroke="#9a32cd" stroke-dasharray="5,2" d="M383.27,-189.8C412.69,-189.87 449.57,-189.99 482.5,-190.23 491.14,-190.29 500.71,-190.39 508.82,-190.49"/>
<polygon fill="#9a32cd" stroke="#9a32cd" points="383.5,-186.3 373.49,-189.78 383.49,-193.3 383.5,-186.3"/>
</a>
</g>
<text xml:space="preserve" text-anchor="start" x="409.75" y="-210.23" font-family="Helvetica,sans-Serif" font-size="10.00" fill="grey">_leftEncoder</text>
<text xml:space="preserve" text-anchor="start" x="409.75" y="-194.98" font-family="Helvetica,sans-Serif" font-size="10.00" fill="grey">_rightEncoder</text>
</g>
<!-- Node4&#45;&gt;Node16 -->
<g id="edge21_Node000016_Node000004" class="edge">
<title>Node4&#45;&gt;Node16</title>
<g id="a_edge21_Node000016_Node000004"><a xlink:title=" ">
<path fill="none" stroke="#9a32cd" stroke-dasharray="5,2" d="M360.56,-204.83C366.76,-207.96 373.14,-211.34 379,-214.73 387.33,-219.54 388.62,-222.02 397,-226.73 433.54,-247.25 454.71,-235.11 482.5,-266.48 516.88,-305.3 525.2,-370.67 527.16,-395.63"/>
<polygon fill="#9a32cd" stroke="#9a32cd" points="362.32,-201.79 351.8,-200.51 359.22,-208.07 362.32,-201.79"/>
</a>
</g>
<text xml:space="preserve" text-anchor="start" x="422.5" y="-271.23" font-family="Helvetica,sans-Serif" font-size="10.00" fill="grey">encoder</text>
</g>
<!-- Node5 -->
<g id="Node000005" class="node">
<title>Node5</title>
<g id="a_Node000005"><a xlink:href="class_line_sensor.html" target="_top" xlink:title="Pololu QTR&#45;MD&#45;08RC 8&#45;channel line sensor driver.">
<polygon fill="white" stroke="#666666" points="359.88,-62.35 295.12,-62.35 295.12,-43.1 359.88,-43.1 359.88,-62.35"/>
<text xml:space="preserve" text-anchor="middle" x="327.5" y="-48.85" font-family="Helvetica,sans-Serif" font-size="10.00">LineSensor</text>
</a>
</g>
</g>
<!-- Node5&#45;&gt;Node2 -->
<g id="edge4_Node000002_Node000005" class="edge">
<title>Node5&#45;&gt;Node2</title>
<g id="a_edge4_Node000002_Node000005"><a xlink:title=" ">
<path fill="none" stroke="#9a32cd" stroke-dasharray="5,2" d="M371.41,-46.06C405.05,-43.29 451.26,-45.19 482.5,-69.48 484.84,-71.3 514.06,-152.49 524.26,-180.98"/>
<polygon fill="#9a32cd" stroke="#9a32cd" points="371.17,-42.57 361.58,-47.06 371.88,-49.53 371.17,-42.57"/>
</a>
</g>
<text xml:space="preserve" text-anchor="start" x="414.25" y="-74.23" font-family="Helvetica,sans-Serif" font-size="10.00" fill="grey">_lineSensor</text>
</g>
<!-- Node6 -->
<g id="Node000006" class="node">
<title>Node6</title>
<g id="a_Node000006"><a xlink:href="class_dual_motor_controller.html" target="_top" xlink:title="Dual&#45;channel closed&#45;loop motor controller.">
<polygon fill="white" stroke="#666666" points="379,-327.35 276,-327.35 276,-308.1 379,-308.1 379,-327.35"/>
<text xml:space="preserve" text-anchor="middle" x="327.5" y="-313.85" font-family="Helvetica,sans-Serif" font-size="10.00">DualMotorController</text>
</a>
</g>
</g>
<!-- Node6&#45;&gt;Node2 -->
<g id="edge5_Node000002_Node000006" class="edge">
<title>Node6&#45;&gt;Node2</title>
<g id="a_edge5_Node000002_Node000006"><a xlink:title=" ">
<path fill="none" stroke="#9a32cd" stroke-dasharray="5,2" d="M390.46,-308.39C429.92,-301.97 475.01,-293.58 482.5,-287.73 511.05,-265.42 522.36,-220.81 526.13,-200.83"/>
<polygon fill="#9a32cd" stroke="#9a32cd" points="390.06,-304.91 380.74,-309.94 391.16,-311.82 390.06,-304.91"/>
</a>
</g>
<text xml:space="preserve" text-anchor="start" x="403.75" y="-311.5" font-family="Helvetica,sans-Serif" font-size="10.00" fill="grey">_motorController</text>
</g>
<!-- Node6&#45;&gt;Node16 -->
<g id="edge20_Node000016_Node000006" class="edge">
<title>Node6&#45;&gt;Node16</title>
<g id="a_edge20_Node000016_Node000006"><a xlink:title=" ">
<path fill="none" stroke="#9a32cd" stroke-dasharray="5,2" d="M364.55,-331.98C395.98,-344.61 442.64,-363.89 482.5,-382.48 491.31,-386.59 500.9,-391.46 508.98,-395.67"/>
<polygon fill="#9a32cd" stroke="#9a32cd" points="366.09,-328.82 355.51,-328.36 363.49,-335.32 366.09,-328.82"/>
</a>
</g>
<text xml:space="preserve" text-anchor="start" x="427.38" y="-387.23" font-family="Helvetica,sans-Serif" font-size="10.00" fill="grey">motor</text>
</g>
<!-- Node7 -->
<g id="Node000007" class="node">
<title>Node7</title>
<g id="a_Node000007"><a xlink:href="class_l298_n_motor_driver_mega.html" target="_top" xlink:title=" ">
<polygon fill="white" stroke="#666666" points="189.75,-335.35 70.25,-335.35 70.25,-316.1 189.75,-316.1 189.75,-335.35"/>
<text xml:space="preserve" text-anchor="middle" x="130" y="-321.85" font-family="Helvetica,sans-Serif" font-size="10.00">L298NMotorDriverMega</text>
</a>
</g>
</g>
<!-- Node7&#45;&gt;Node6 -->
<g id="edge6_Node000006_Node000007" class="edge">
<title>Node7&#45;&gt;Node6</title>
<g id="a_edge6_Node000006_Node000007"><a xlink:title=" ">
<path fill="none" stroke="#9a32cd" stroke-dasharray="5,2" d="M201.63,-322.84C226.16,-321.84 253.17,-320.73 275.77,-319.81"/>
<polygon fill="#9a32cd" stroke="#9a32cd" points="201.55,-319.34 191.7,-323.25 201.83,-326.33 201.55,-319.34"/>
</a>
</g>
<text xml:space="preserve" text-anchor="start" x="210.75" y="-327.2" font-family="Helvetica,sans-Serif" font-size="10.00" fill="grey">dualDriver</text>
</g>
<!-- Node8 -->
<g id="Node000008" class="node">
<title>Node8</title>
<g id="a_Node000008"><a xlink:href="class_p_i_d_controller.html" target="_top" xlink:title="Full&#45;featured PID controller with anti&#45;windup, output filtering, and optional nonlinear extensions.">
<polygon fill="white" stroke="#666666" points="167.62,-263.35 92.38,-263.35 92.38,-244.1 167.62,-244.1 167.62,-263.35"/>
<text xml:space="preserve" text-anchor="middle" x="130" y="-249.85" font-family="Helvetica,sans-Serif" font-size="10.00">PIDController</text>
</a>
</g>
</g>
<!-- Node8&#45;&gt;Node2 -->
<g id="edge13_Node000002_Node000008" class="edge">
<title>Node8&#45;&gt;Node2</title>
<g id="a_edge13_Node000002_Node000008"><a xlink:title=" ">
<path fill="none" stroke="#9a32cd" stroke-dasharray="5,2" d="M179.45,-257.26C248.87,-260.61 379.61,-260.49 482.5,-222.73 495.69,-217.89 508.55,-208.16 517.17,-200.7"/>
<polygon fill="#9a32cd" stroke="#9a32cd" points="179.72,-253.77 169.54,-256.73 179.34,-260.76 179.72,-253.77"/>
</a>
</g>
<text xml:space="preserve" text-anchor="start" x="282.5" y="-277.7" font-family="Helvetica,sans-Serif" font-size="10.00" fill="grey">_distanceSensorPID</text>
<text xml:space="preserve" text-anchor="start" x="282.5" y="-262.45" font-family="Helvetica,sans-Serif" font-size="10.00" fill="grey">_lineSensorPID</text>
</g>
<!-- Node8&#45;&gt;Node6 -->
<g id="edge7_Node000006_Node000008" class="edge">
<title>Node8&#45;&gt;Node6</title>
<g id="a_edge7_Node000006_Node000008"><a xlink:title=" ">
<path fill="none" stroke="#9a32cd" stroke-dasharray="5,2" d="M179.03,-262.67C203.1,-267.8 232.49,-275.05 258,-284.23 275.81,-290.64 295.1,-300.34 308.66,-307.66"/>
<polygon fill="#9a32cd" stroke="#9a32cd" points="180.01,-259.29 169.51,-260.7 178.59,-266.15 180.01,-259.29"/>
</a>
</g>
<text xml:space="preserve" text-anchor="start" x="221.25" y="-304.23" font-family="Helvetica,sans-Serif" font-size="10.00" fill="grey">_pid1</text>
<text xml:space="preserve" text-anchor="start" x="221.25" y="-288.98" font-family="Helvetica,sans-Serif" font-size="10.00" fill="grey">_pid2</text>
</g>
<!-- Node9 -->
<g id="Node000009" class="node">
<title>Node9</title>
<g id="a_Node000009"><a xlink:href="class_p_i_d.html" target="_top" xlink:title="Lightweight PID controller base class.">
<polygon fill="white" stroke="#666666" points="33.25,-263.35 0,-263.35 0,-244.1 33.25,-244.1 33.25,-263.35"/>
<text xml:space="preserve" text-anchor="middle" x="16.62" y="-249.85" font-family="Helvetica,sans-Serif" font-size="10.00">PID</text>
</a>
</g>
</g>
<!-- Node9&#45;&gt;Node8 -->
<g id="edge8_Node000008_Node000009" class="edge">
<title>Node9&#45;&gt;Node8</title>
<g id="a_edge8_Node000008_Node000009"><a xlink:title=" ">
<path fill="none" stroke="#63b8ff" d="M45.01,-253.73C59.14,-253.73 76.58,-253.73 91.9,-253.73"/>
<polygon fill="#63b8ff" stroke="#63b8ff" points="45.1,-250.23 35.1,-253.73 45.1,-257.23 45.1,-250.23"/>
</a>
</g>
</g>
<!-- Node10 -->
<g id="Node000010" class="node">
<title>Node10</title>
<g id="a_Node000010"><a xlink:href="class_sharp_g_p2_y0_a51.html" target="_top" xlink:title="Sharp GP2Y0A51 analog IR distance sensor driver.">
<polygon fill="white" stroke="#666666" points="372.62,-158.35 282.38,-158.35 282.38,-139.1 372.62,-139.1 372.62,-158.35"/>
<text xml:space="preserve" text-anchor="middle" x="327.5" y="-144.85" font-family="Helvetica,sans-Serif" font-size="10.00">SharpGP2Y0A51</text>
</a>
</g>
</g>
<!-- Node10&#45;&gt;Node2 -->
<g id="edge9_Node000002_Node000010" class="edge">
<title>Node10&#45;&gt;Node2</title>
<g id="a_edge9_Node000002_Node000010"><a xlink:title=" ">
<path fill="none" stroke="#9a32cd" stroke-dasharray="5,2" d="M384.51,-151.47C414.13,-154.02 450.83,-158.95 482.5,-168.48 492.22,-171.41 502.43,-176.25 510.68,-180.67"/>
<polygon fill="#9a32cd" stroke="#9a32cd" points="384.87,-147.98 374.62,-150.69 384.32,-154.96 384.87,-147.98"/>
</a>
</g>
<text xml:space="preserve" text-anchor="start" x="413.88" y="-173.23" font-family="Helvetica,sans-Serif" font-size="10.00" fill="grey">_distSensor</text>
</g>
<!-- Node11 -->
<g id="Node000011" class="node">
<title>Node11</title>
<g id="a_Node000011"><a xlink:href="class_odometry.html" target="_top" xlink:title="Tracks robot pose by integrating encoder wheel displacements.">
<polygon fill="white" stroke="#666666" points="356.88,-102.35 298.12,-102.35 298.12,-83.1 356.88,-83.1 356.88,-102.35"/>
<text xml:space="preserve" text-anchor="middle" x="327.5" y="-88.85" font-family="Helvetica,sans-Serif" font-size="10.00">Odometry</text>
</a>
</g>
</g>
<!-- Node11&#45;&gt;Node2 -->
<g id="edge10_Node000002_Node000011" class="edge">
<title>Node11&#45;&gt;Node2</title>
<g id="a_edge10_Node000002_Node000011"><a xlink:title=" ">
<path fill="none" stroke="#9a32cd" stroke-dasharray="5,2" d="M368.3,-89.9C401.5,-89.5 448.69,-93.68 482.5,-116.23 506.04,-131.93 519.34,-164.45 524.79,-180.83"/>
<polygon fill="#9a32cd" stroke="#9a32cd" points="368.59,-86.39 358.69,-90.17 368.79,-93.39 368.59,-86.39"/>
</a>
</g>
<text xml:space="preserve" text-anchor="start" x="400" y="-136.23" font-family="Helvetica,sans-Serif" font-size="10.00" fill="grey">_desiredOdometry</text>
<text xml:space="preserve" text-anchor="start" x="400" y="-120.98" font-family="Helvetica,sans-Serif" font-size="10.00" fill="grey">_odometry</text>
</g>
<!-- Node12 -->
<g id="Node000012" class="node">
<title>Node12</title>
<g id="a_Node000012"><a xlink:href="struct_odometry_1_1_pose2_d.html" target="_top" xlink:title="2&#45;D robot pose.">
<polygon fill="white" stroke="#666666" points="180,-102.35 80,-102.35 80,-83.1 180,-83.1 180,-102.35"/>
<text xml:space="preserve" text-anchor="middle" x="130" y="-88.85" font-family="Helvetica,sans-Serif" font-size="10.00">Odometry::Pose2D</text>
</a>
</g>
</g>
<!-- Node12&#45;&gt;Node11 -->
<g id="edge11_Node000011_Node000012" class="edge">
<title>Node12&#45;&gt;Node11</title>
<g id="a_edge11_Node000011_Node000012"><a xlink:title=" ">
<path fill="none" stroke="#9a32cd" stroke-dasharray="5,2" d="M191.53,-92.73C226.93,-92.73 270,-92.73 297.81,-92.73"/>
<polygon fill="#9a32cd" stroke="#9a32cd" points="191.85,-89.23 181.85,-92.73 191.85,-96.23 191.85,-89.23"/>
</a>
</g>
<text xml:space="preserve" text-anchor="start" x="219.75" y="-97.48" font-family="Helvetica,sans-Serif" font-size="10.00" fill="grey">_pose</text>
</g>
<!-- Node13 -->
<g id="Node000013" class="node">
<title>Node13</title>
<g id="a_Node000013"><a xlink:href="class_ramsete_controller.html" target="_top" xlink:title=" ">
<polygon fill="white" stroke="#666666" points="376.38,-22.35 278.62,-22.35 278.62,-3.1 376.38,-3.1 376.38,-22.35"/>
<text xml:space="preserve" text-anchor="middle" x="327.5" y="-8.85" font-family="Helvetica,sans-Serif" font-size="10.00">RamseteController</text>
</a>
</g>
</g>
<!-- Node13&#45;&gt;Node2 -->
<g id="edge12_Node000002_Node000013" class="edge">
<title>Node13&#45;&gt;Node2</title>
<g id="a_edge12_Node000002_Node000013"><a xlink:title=" ">
<path fill="none" stroke="#9a32cd" stroke-dasharray="5,2" d="M384.57,-1.26C416.95,1.96 456.32,-0.43 482.5,-23.48 513.2,-50.5 489.65,-74.29 500.5,-113.73 507.27,-138.34 517.99,-166.41 523.76,-180.91"/>
<polygon fill="#9a32cd" stroke="#9a32cd" points="384.46,2.25 374.95,-2.42 385.3,-4.7 384.46,2.25"/>
</a>
</g>
<text xml:space="preserve" text-anchor="start" x="419.5" y="-28.23" font-family="Helvetica,sans-Serif" font-size="10.00" fill="grey">_ramsete</text>
</g>
<!-- Node14&#45;&gt;Node1 -->
<g id="edge14_Node000001_Node000014" class="edge">
<title>Node14&#45;&gt;Node1</title>
<g id="a_edge14_Node000001_Node000014"><a xlink:title=" ">
<path fill="none" stroke="#9a32cd" stroke-dasharray="5,2" d="M560.19,-472.41C619.89,-479.66 752.24,-485.89 818.25,-411.73 843.83,-383 855.94,-258.89 858.97,-222.68"/>
<polygon fill="#9a32cd" stroke="#9a32cd" points="560.81,-468.96 550.43,-471.12 559.89,-475.9 560.81,-468.96"/>
</a>
</g>
<text xml:space="preserve" text-anchor="start" x="660.62" y="-481.27" font-family="Helvetica,sans-Serif" font-size="10.00" fill="grey">_miner</text>
</g>
<!-- Node22 -->
<g id="Node000022" class="node">
<title>Node22</title>
<g id="a_Node000022"><a xlink:href="class_mine_block.html" target="_top" xlink:title="Mine a block by executing a set number of servo press cycles.">
<polygon fill="white" stroke="#666666" points="706.12,-369.35 644.38,-369.35 644.38,-350.1 706.12,-350.1 706.12,-369.35"/>
<text xml:space="preserve" text-anchor="middle" x="675.25" y="-355.85" font-family="Helvetica,sans-Serif" font-size="10.00">MineBlock</text>
</a>
</g>
</g>
<!-- Node14&#45;&gt;Node22 -->
<g id="edge33_Node000022_Node000014" class="edge">
<title>Node14&#45;&gt;Node22</title>
<g id="a_edge33_Node000022_Node000014"><a xlink:title=" ">
<path fill="none" stroke="#9a32cd" stroke-dasharray="5,2" d="M547.33,-449.66C565.64,-431.49 595.73,-403.43 625.25,-383.73 633.13,-378.47 642.33,-373.66 650.62,-369.75"/>
<polygon fill="#9a32cd" stroke="#9a32cd" points="544.97,-447.07 540.4,-456.63 549.94,-452 544.97,-447.07"/>
</a>
</g>
<text xml:space="preserve" text-anchor="start" x="579.12" y="-427.18" font-family="Helvetica,sans-Serif" font-size="10.00" fill="grey">miner</text>
</g>
<!-- Node15 -->
<g id="Node000015" class="node">
<title>Node15</title>
<g id="a_Node000015"><a xlink:href="class_servo_control.html" target="_top" xlink:title="Servo driver with angle clamping, inversion, and deferred writes.">
<polygon fill="white" stroke="#666666" points="364,-514.35 291,-514.35 291,-495.1 364,-495.1 364,-514.35"/>
<text xml:space="preserve" text-anchor="middle" x="327.5" y="-500.85" font-family="Helvetica,sans-Serif" font-size="10.00">ServoControl</text>
</a>
</g>
</g>
<!-- Node15&#45;&gt;Node14 -->
<g id="edge16_Node000014_Node000015" class="edge">
<title>Node15&#45;&gt;Node14</title>
<g id="a_edge16_Node000014_Node000015"><a xlink:title=" ">
<path fill="none" stroke="#9a32cd" stroke-dasharray="5,2" d="M375.55,-500.21C406.26,-496.72 447.07,-491.06 482.5,-482.73 491.2,-480.68 500.61,-477.69 508.59,-474.92"/>
<polygon fill="#9a32cd" stroke="#9a32cd" points="375.38,-496.71 365.82,-501.28 376.14,-503.66 375.38,-496.71"/>
</a>
</g>
<text xml:space="preserve" text-anchor="start" x="415" y="-517.31" font-family="Helvetica,sans-Serif" font-size="10.00" fill="grey">minerServo</text>
<text xml:space="preserve" text-anchor="start" x="415" y="-502.06" font-family="Helvetica,sans-Serif" font-size="10.00" fill="grey">rampServo</text>
</g>
<!-- Node16&#45;&gt;Node1 -->
<g id="edge17_Node000001_Node000016" class="edge">
<title>Node16&#45;&gt;Node1</title>
<g id="a_edge17_Node000001_Node000016"><a xlink:title=" ">
<path fill="none" stroke="#9a32cd" stroke-dasharray="5,2" d="M564.84,-414.23C624.56,-426.44 746.47,-441.24 818.25,-379.73 842.64,-358.83 855.33,-255.24 858.77,-222.6"/>
<polygon fill="#9a32cd" stroke="#9a32cd" points="565.75,-410.84 555.23,-412.16 564.27,-417.69 565.75,-410.84"/>
</a>
</g>
<text xml:space="preserve" text-anchor="start" x="656.5" y="-429.9" font-family="Helvetica,sans-Serif" font-size="10.00" fill="grey">_shooter</text>
</g>
<!-- Node17 -->
<g id="Node000017" class="node">
<title>Node17</title>
<g id="a_Node000017"><a xlink:href="class_button.html" target="_top" xlink:title="Digital button / limit&#45;switch driver.">
<polygon fill="white" stroke="#666666" points="349.75,-449.35 305.25,-449.35 305.25,-430.1 349.75,-430.1 349.75,-449.35"/>
<text xml:space="preserve" text-anchor="middle" x="327.5" y="-435.85" font-family="Helvetica,sans-Serif" font-size="10.00">Button</text>
</a>
</g>
</g>
<!-- Node17&#45;&gt;Node16 -->
<g id="edge19_Node000016_Node000017" class="edge">
<title>Node17&#45;&gt;Node16</title>
<g id="a_edge19_Node000016_Node000017"><a xlink:title=" ">
<path fill="none" stroke="#9a32cd" stroke-dasharray="5,2" d="M361.17,-436.19C392.47,-432.53 440.96,-426.17 482.5,-417.73 489.35,-416.34 496.7,-414.53 503.45,-412.73"/>
<polygon fill="#9a32cd" stroke="#9a32cd" points="361.1,-432.67 351.57,-437.29 361.9,-439.63 361.1,-432.67"/>
</a>
</g>
<text xml:space="preserve" text-anchor="start" x="411.25" y="-436.17" font-family="Helvetica,sans-Serif" font-size="10.00" fill="grey">block_switch</text>
</g>
<!-- Node18&#45;&gt;Node1 -->
<g id="edge22_Node000001_Node000018" class="edge">
<title>Node18&#45;&gt;Node1</title>
<g id="a_edge22_Node000001_Node000018"><a xlink:title=" ">
<path fill="none" stroke="#9a32cd" stroke-dasharray="5,2" d="M726.2,-135.44C754.79,-139.91 790.4,-148.59 818.25,-165.48 833.75,-174.88 846.6,-191.95 853.72,-202.8"/>
<polygon fill="#9a32cd" stroke="#9a32cd" points="726.71,-131.98 716.32,-134.04 725.73,-138.91 726.71,-131.98"/>
</a>
</g>
<text xml:space="preserve" text-anchor="start" x="757.5" y="-170.23" font-family="Helvetica,sans-Serif" font-size="10.00" fill="grey">_driveStep</text>
</g>
<!-- Node19 -->
<g id="Node000019" class="node">
<title>Node19</title>
<g id="a_Node000019"><a xlink:href="class_auto_step.html" target="_top" xlink:title="Pure&#45;virtual base class for all autonomous steps.">
<polygon fill="white" stroke="#666666" points="557,-104.35 500.5,-104.35 500.5,-85.1 557,-85.1 557,-104.35"/>
<text xml:space="preserve" text-anchor="middle" x="528.75" y="-90.85" font-family="Helvetica,sans-Serif" font-size="10.00">AutoStep</text>
</a>
</g>
</g>
<!-- Node19&#45;&gt;Node18 -->
<g id="edge23_Node000018_Node000019" class="edge">
<title>Node19&#45;&gt;Node18</title>
<g id="a_edge23_Node000018_Node000019"><a xlink:title=" ">
<path fill="none" stroke="#63b8ff" d="M568.24,-100.6C580.76,-102.79 594.67,-105.54 607.25,-108.73 620.31,-112.03 634.51,-116.56 646.47,-120.65"/>
<polygon fill="#63b8ff" stroke="#63b8ff" points="569.14,-97.2 558.7,-98.99 567.98,-104.1 569.14,-97.2"/>
</a>
</g>
</g>
<!-- Node19&#45;&gt;Node20 -->
<g id="edge26_Node000020_Node000019" class="edge">
<title>Node19&#45;&gt;Node20</title>
<g id="a_edge26_Node000020_Node000019"><a xlink:title=" ">
<path fill="none" stroke="#63b8ff" d="M543.72,-113.95C551.96,-124.32 563.09,-136.79 575,-145.73 597.42,-162.55 626.82,-175.55 647.79,-183.57"/>
<polygon fill="#63b8ff" stroke="#63b8ff" points="546.53,-111.87 537.69,-106.04 540.96,-116.11 546.53,-111.87"/>
</a>
</g>
</g>
<!-- Node19&#45;&gt;Node21 -->
<g id="edge29_Node000021_Node000019" class="edge">
<title>Node19&#45;&gt;Node21</title>
<g id="a_edge29_Node000021_Node000019"><a xlink:title=" ">
<path fill="none" stroke="#63b8ff" d="M537.17,-115.2C548.99,-147.61 571.18,-207.46 575,-210.73 591.08,-224.51 613.89,-230.21 633.6,-232.37"/>
<polygon fill="#63b8ff" stroke="#63b8ff" points="540.56,-114.28 533.85,-106.07 533.98,-116.67 540.56,-114.28"/>
</a>
</g>
</g>
<!-- Node19&#45;&gt;Node22 -->
<g id="edge32_Node000022_Node000019" class="edge">
<title>Node19&#45;&gt;Node22</title>
<g id="a_edge32_Node000022_Node000019"><a xlink:title=" ">
<path fill="none" stroke="#63b8ff" d="M537.28,-115.08C542.93,-130.54 550.73,-152.38 557,-171.73 565.72,-198.62 560.32,-208.57 575,-232.73 585.32,-249.72 597.28,-246.53 607.25,-263.73 623.78,-292.27 604.51,-310.08 625.25,-335.73 630.14,-341.77 636.92,-346.4 643.88,-349.91"/>
<polygon fill="#63b8ff" stroke="#63b8ff" points="540.7,-114.24 533.97,-106.06 534.13,-116.65 540.7,-114.24"/>
</a>
</g>
</g>
<!-- Node23 -->
<g id="Node000023" class="node">
<title>Node23</title>
<g id="a_Node000023"><a xlink:href="class_index_block_step.html" target="_top" xlink:title="Push the block into the left or right slot of the hopper based on Strategy::IndexDirection.">
<polygon fill="white" stroke="#666666" points="717.75,-29.35 632.75,-29.35 632.75,-10.1 717.75,-10.1 717.75,-29.35"/>
<text xml:space="preserve" text-anchor="middle" x="675.25" y="-15.85" font-family="Helvetica,sans-Serif" font-size="10.00">IndexBlockStep</text>
</a>
</g>
</g>
<!-- Node19&#45;&gt;Node23 -->
<g id="edge35_Node000023_Node000019" class="edge">
<title>Node19&#45;&gt;Node23</title>
<g id="a_edge35_Node000023_Node000019"><a xlink:title=" ">
<path fill="none" stroke="#63b8ff" d="M554.02,-78.38C572.89,-66.14 600.02,-49.54 625.25,-37.73 631.32,-34.89 637.98,-32.18 644.38,-29.78"/>
<polygon fill="#63b8ff" stroke="#63b8ff" points="552.15,-75.43 545.72,-83.85 556,-81.28 552.15,-75.43"/>
</a>
</g>
</g>
<!-- Node24 -->
<g id="Node000024" class="node">
<title>Node24</title>
<g id="a_Node000024"><a xlink:href="class_place_on_table_step.html" target="_top" xlink:title="Placeholder step for placing a block on the crafting table at the correct cycle position.">
<polygon fill="white" stroke="#666666" points="723.75,-103.35 626.75,-103.35 626.75,-84.1 723.75,-84.1 723.75,-103.35"/>
<text xml:space="preserve" text-anchor="middle" x="675.25" y="-89.85" font-family="Helvetica,sans-Serif" font-size="10.00">PlaceOnTableStep</text>
</a>
</g>
</g>
<!-- Node19&#45;&gt;Node24 -->
<g id="edge37_Node000024_Node000019" class="edge">
<title>Node19&#45;&gt;Node24</title>
<g id="a_edge37_Node000024_Node000019"><a xlink:title=" ">
<path fill="none" stroke="#63b8ff" d="M568.39,-84.69C570.62,-84.32 572.83,-83.99 575,-83.73 591.68,-81.73 609.97,-82.68 626.25,-84.64"/>
<polygon fill="#63b8ff" stroke="#63b8ff" points="567.91,-81.22 558.8,-86.62 569.3,-88.08 567.91,-81.22"/>
</a>
</g>
</g>
<!-- Node25 -->
<g id="Node000025" class="node">
<title>Node25</title>
<g id="a_Node000025"><a xlink:href="class_advance_cycle_step.html" target="_top" xlink:title="Calls Strategy::advanceCycle() once in start() and immediately finishes.">
<polygon fill="white" stroke="#666666" points="725.25,-66.35 625.25,-66.35 625.25,-47.1 725.25,-47.1 725.25,-66.35"/>
<text xml:space="preserve" text-anchor="middle" x="675.25" y="-52.85" font-family="Helvetica,sans-Serif" font-size="10.00">AdvanceCycleStep</text>
</a>
</g>
</g>
<!-- Node19&#45;&gt;Node25 -->
<g id="edge39_Node000025_Node000019" class="edge">
<title>Node19&#45;&gt;Node25</title>
<g id="a_edge39_Node000025_Node000019"><a xlink:title=" ">
<path fill="none" stroke="#63b8ff" d="M567.15,-81.11C569.8,-80.27 572.43,-79.47 575,-78.73 591.12,-74.11 608.94,-69.89 624.98,-66.41"/>
<polygon fill="#63b8ff" stroke="#63b8ff" points="566.19,-77.74 557.81,-84.23 568.4,-84.38 566.19,-77.74"/>
</a>
</g>
</g>
<!-- Node20&#45;&gt;Node1 -->
<g id="edge25_Node000001_Node000020" class="edge">
<title>Node20&#45;&gt;Node1</title>
<g id="a_edge25_Node000001_Node000020"><a xlink:title=" ">
<path fill="none" stroke="#9a32cd" stroke-dasharray="5,2" d="M714.03,-188.6C742.93,-186.47 783.57,-185.73 818.25,-193.48 826.62,-195.35 835.32,-199.07 842.57,-202.74"/>
<polygon fill="#9a32cd" stroke="#9a32cd" points="713.98,-185.09 704.31,-189.41 714.56,-192.06 713.98,-185.09"/>
</a>
</g>
<text xml:space="preserve" text-anchor="start" x="750" y="-198.23" font-family="Helvetica,sans-Serif" font-size="10.00" fill="grey">_driveArcStep</text>
</g>
<!-- Node21&#45;&gt;Node1 -->
<g id="edge28_Node000001_Node000021" class="edge">
<title>Node21&#45;&gt;Node1</title>
<g id="a_edge28_Node000001_Node000021"><a xlink:title=" ">
<path fill="none" stroke="#9a32cd" stroke-dasharray="5,2" d="M728.09,-227.08C763.52,-223.22 808.81,-218.28 835.98,-215.32"/>
<polygon fill="#9a32cd" stroke="#9a32cd" points="728.04,-223.56 718.48,-228.13 728.8,-230.52 728.04,-223.56"/>
</a>
</g>
<text xml:space="preserve" text-anchor="start" x="746.25" y="-229.86" font-family="Helvetica,sans-Serif" font-size="10.00" fill="grey">_followLineStep</text>
</g>
<!-- Node22&#45;&gt;Node1 -->
<g id="edge31_Node000001_Node000022" class="edge">
<title>Node22&#45;&gt;Node1</title>
<g id="a_edge31_Node000001_Node000022"><a xlink:title=" ">
<path fill="none" stroke="#9a32cd" stroke-dasharray="5,2" d="M717.99,-360.91C749.13,-359.58 790.86,-352.81 818.25,-328.73 850.54,-300.35 857.71,-245.02 859.3,-222.56"/>
<polygon fill="#9a32cd" stroke="#9a32cd" points="718.05,-357.41 708.14,-361.14 718.22,-364.41 718.05,-357.41"/>
</a>
</g>
<text xml:space="preserve" text-anchor="start" x="757.5" y="-363.37" font-family="Helvetica,sans-Serif" font-size="10.00" fill="grey">_mineStep</text>
</g>
<!-- Node23&#45;&gt;Node1 -->
<g id="edge34_Node000001_Node000023" class="edge">
<title>Node23&#45;&gt;Node1</title>
<g id="a_edge34_Node000001_Node000023"><a xlink:title=" ">
<path fill="none" stroke="#9a32cd" stroke-dasharray="5,2" d="M727.51,-8.04C757.27,-4.4 793.63,-5.77 818.25,-26.48 845.75,-49.62 856.45,-167.36 859.07,-202.69"/>
<polygon fill="#9a32cd" stroke="#9a32cd" points="727.35,-4.53 717.96,-9.44 728.36,-11.45 727.35,-4.53"/>
</a>
</g>
<text xml:space="preserve" text-anchor="start" x="756.38" y="-31.23" font-family="Helvetica,sans-Serif" font-size="10.00" fill="grey">_indexStep</text>
</g>
<!-- Node24&#45;&gt;Node1 -->
<g id="edge36_Node000001_Node000024" class="edge">
<title>Node24&#45;&gt;Node1</title>
<g id="a_edge36_Node000001_Node000024"><a xlink:title=" ">
<path fill="none" stroke="#9a32cd" stroke-dasharray="5,2" d="M735.14,-91.16C762.9,-92.84 794.96,-99.3 818.25,-117.48 845.98,-139.12 855.54,-183.06 858.53,-202.77"/>
<polygon fill="#9a32cd" stroke="#9a32cd" points="735.58,-87.68 725.45,-90.78 735.31,-94.67 735.58,-87.68"/>
</a>
</g>
<text xml:space="preserve" text-anchor="start" x="756.38" y="-122.23" font-family="Helvetica,sans-Serif" font-size="10.00" fill="grey">_placeStep</text>
</g>
<!-- Node25&#45;&gt;Node1 -->
<g id="edge38_Node000001_Node000025" class="edge">
<title>Node25&#45;&gt;Node1</title>
<g id="a_edge38_Node000001_Node000025"><a xlink:title=" ">
<path fill="none" stroke="#9a32cd" stroke-dasharray="5,2" d="M736.72,-48.14C764.41,-47.54 795.95,-52.01 818.25,-70.48 859.26,-104.45 861.08,-176.49 860.28,-202.82"/>
<polygon fill="#9a32cd" stroke="#9a32cd" points="736.86,-44.63 727.03,-48.58 737.18,-51.62 736.86,-44.63"/>
</a>
</g>
<text xml:space="preserve" text-anchor="start" x="749.62" y="-75.23" font-family="Helvetica,sans-Serif" font-size="10.00" fill="grey">_advanceStep</text>
</g>
</g>
</svg>
