<?xml version="1.0" encoding="UTF-8" standalone="no"?>
<!DOCTYPE svg PUBLIC "-//W3C//DTD SVG 1.1//EN"
 "http://www.w3.org/Graphics/SVG/1.1/DTD/svg11.dtd">
<!-- Generated by graphviz version 14.1.2 (20260124.0452)
 -->
<!-- Title: Robot::init Pages: 1 -->
<svg width="322pt" height="27pt"
 viewBox="0.00 0.00 322.00 27.00" xmlns="http://www.w3.org/2000/svg" xmlns:xlink="http://www.w3.org/1999/xlink">
<g id="graph0" class="graph" transform="scale(1 1) rotate(0) translate(4 23.25)">
<title>Robot::init</title>
<!-- Node1 -->
<g id="Node000001" class="node">
<title>Node1</title>
<g id="a_Node000001"><a xlink:title="Initialise all subsystems — call once in setup().">
<polygon fill="#999999" stroke="#666666" points="61,-19.25 0,-19.25 0,0 61,0 61,-19.25"/>
<text xml:space="preserve" text-anchor="middle" x="30.5" y="-5.75" font-family="Helvetica,sans-Serif" font-size="10.00">Robot::init</text>
</a>
</g>
</g>
<!-- Node2 -->
<g id="Node000002" class="node">
<title>Node2</title>
<g id="a_Node000002"><a xlink:href="class_robot.html#a9e72bb50888e8247a9a55add640542ac" target="_top" xlink:title="Print the serial command reference to port (defaults to USB Serial).">
<polygon fill="white" stroke="#666666" points="209,-19.25 97,-19.25 97,0 209,0 209,-19.25"/>
<text xml:space="preserve" text-anchor="middle" x="153" y="-5.75" font-family="Helvetica,sans-Serif" font-size="10.00">Robot::printSerialHelp</text>
</a>
</g>
</g>
<!-- Node1&#45;&gt;Node2 -->
<g id="edge1_Node000001_Node000002" class="edge">
<title>Node1&#45;&gt;Node2</title>
<g id="a_edge1_Node000001_Node000002"><a xlink:title=" ">
<path fill="none" stroke="#63b8ff" d="M61.29,-9.62C68.67,-9.62 76.87,-9.62 85.25,-9.62"/>
<polygon fill="#63b8ff" stroke="#63b8ff" points="85.2,-13.13 95.2,-9.63 85.2,-6.13 85.2,-13.13"/>
</a>
</g>
</g>
<!-- Node3 -->
<g id="Node000003" class="node">
<title>Node3</title>
<g id="a_Node000003"><a xlink:href="class_robot.html#a3defa2b851d1a9267d6dbe251373ba7d" target="_top" xlink:title="Send a message to a serial port (defaults to USB Serial if port is null).">
<polygon fill="white" stroke="#666666" points="314.25,-19.25 245,-19.25 245,0 314.25,0 314.25,-19.25"/>
<text xml:space="preserve" text-anchor="middle" x="279.62" y="-5.75" font-family="Helvetica,sans-Serif" font-size="10.00">Robot::reply</text>
</a>
</g>
</g>
<!-- Node2&#45;&gt;Node3 -->
<g id="edge2_Node000002_Node000003" class="edge">
<title>Node2&#45;&gt;Node3</title>
<g id="a_edge2_Node000002_Node000003"><a xlink:title=" ">
<path fill="none" stroke="#63b8ff" d="M209.39,-9.62C217.33,-9.62 225.43,-9.62 233.15,-9.62"/>
<polygon fill="#63b8ff" stroke="#63b8ff" points="233,-13.13 243,-9.63 233,-6.13 233,-13.13"/>
</a>
</g>
</g>
</g>
</svg>
