<?xml version="1.0" encoding="UTF-8" standalone="no"?>
<!DOCTYPE svg PUBLIC "-//W3C//DTD SVG 1.1//EN"
 "http://www.w3.org/Graphics/SVG/1.1/DTD/svg11.dtd">
<!-- Generated by graphviz version 14.1.2 (20260124.0452)
 -->
<!-- Title: L298NMotorDriverMega::setSpeeds Pages: 1 -->
<svg width="283pt" height="88pt"
 viewBox="0.00 0.00 283.00 88.00" xmlns="http://www.w3.org/2000/svg" xmlns:xlink="http://www.w3.org/1999/xlink">
<g id="graph0" class="graph" transform="scale(1 1) rotate(0) translate(4 83.5)">
<title>L298NMotorDriverMega::setSpeeds</title>
<!-- Node1 -->
<g id="Node000001" class="node">
<title>Node1</title>
<g id="a_Node000001"><a xlink:title=" ">
<polygon fill="#999999" stroke="#666666" points="119.5,-54.5 0,-54.5 0,-24 119.5,-24 119.5,-54.5"/>
<text xml:space="preserve" text-anchor="start" x="8" y="-41" font-family="Helvetica,sans-Serif" font-size="10.00">L298NMotorDriverMega</text>
<text xml:space="preserve" text-anchor="middle" x="59.75" y="-29.75" font-family="Helvetica,sans-Serif" font-size="10.00">::setSpeeds</text>
</a>
</g>
</g>
<!-- Node2 -->
<g id="Node000002" class="node">
<title>Node2</title>
<g id="a_Node000002"><a xlink:href="class_l298_n_motor_driver_mega.html#a5edafd6034bb42bbe96bd1150a0e3e78" target="_top" xlink:title=" ">
<polygon fill="white" stroke="#666666" points="275,-79.5 155.5,-79.5 155.5,-49 275,-49 275,-79.5"/>
<text xml:space="preserve" text-anchor="start" x="163.5" y="-66" font-family="Helvetica,sans-Serif" font-size="10.00">L298NMotorDriverMega</text>
<text xml:space="preserve" text-anchor="middle" x="215.25" y="-54.75" font-family="Helvetica,sans-Serif" font-size="10.00">::setM1Speed</text>
</a>
</g>
</g>
<!-- Node1&#45;&gt;Node2 -->
<g id="edge1_Node000001_Node000002" class="edge">
<title>Node1&#45;&gt;Node2</title>
<g id="a_edge1_Node000001_Node000002"><a xlink:title=" ">
<path fill="none" stroke="#63b8ff" d="M119.66,-48.84C127.59,-50.14 135.79,-51.47 143.89,-52.79"/>
<polygon fill="#63b8ff" stroke="#63b8ff" points="143.32,-56.24 153.75,-54.4 144.44,-49.33 143.32,-56.24"/>
</a>
</g>
</g>
<!-- Node3 -->
<g id="Node000003" class="node">
<title>Node3</title>
<g id="a_Node000003"><a xlink:href="class_l298_n_motor_driver_mega.html#a9343deec0df45f65f8a58efde79d2480" target="_top" xlink:title=" ">
<polygon fill="white" stroke="#666666" points="275,-30.5 155.5,-30.5 155.5,0 275,0 275,-30.5"/>
<text xml:space="preserve" text-anchor="start" x="163.5" y="-17" font-family="Helvetica,sans-Serif" font-size="10.00">L298NMotorDriverMega</text>
<text xml:space="preserve" text-anchor="middle" x="215.25" y="-5.75" font-family="Helvetica,sans-Serif" font-size="10.00">::setM2Speed</text>
</a>
</g>
</g>
<!-- Node1&#45;&gt;Node3 -->
<g id="edge2_Node000001_Node000003" class="edge">
<title>Node1&#45;&gt;Node3</title>
<g id="a_edge2_Node000001_Node000003"><a xlink:title=" ">
<path fill="none" stroke="#63b8ff" d="M119.66,-30.04C127.59,-28.8 135.79,-27.52 143.89,-26.25"/>
<polygon fill="#63b8ff" stroke="#63b8ff" points="144.41,-29.71 153.75,-24.71 143.33,-22.8 144.41,-29.71"/>
</a>
</g>
</g>
</g>
</svg>
