<?xml version="1.0" encoding="UTF-8" standalone="no"?>
<!DOCTYPE svg PUBLIC "-//W3C//DTD SVG 1.1//EN"
 "http://www.w3.org/Graphics/SVG/1.1/DTD/svg11.dtd">
<!-- Generated by graphviz version 14.1.2 (20260124.0452)
 -->
<!-- Title: Planner Pages: 1 -->
<svg width="893pt" height="642pt"
 viewBox="0.00 0.00 893.00 642.00" xmlns="http://www.w3.org/2000/svg" xmlns:xlink="http://www.w3.org/1999/xlink">
<g id="graph0" class="graph" transform="scale(1 1) rotate(0) translate(4 637.86)">
<title>Planner</title>
<!-- Node1 -->
<g id="Node000001" class="node">
<title>Node1</title>
<g id="a_Node000001"><a xlink:title=" ">
<polygon fill="#999999" stroke="#666666" points="885.25,-443.28 836.25,-443.28 836.25,-424.03 885.25,-424.03 885.25,-443.28"/>
<text xml:space="preserve" text-anchor="middle" x="860.75" y="-429.78" font-family="Helvetica,sans-Serif" font-size="10.00">Planner</text>
</a>
</g>
</g>
<!-- Node2 -->
<g id="Node000002" class="node">
<title>Node2</title>
<g id="a_Node000002"><a xlink:href="class_drive.html" target="_top" xlink:title=" ">
<polygon fill="white" stroke="#666666" points="548.38,-306.28 509.12,-306.28 509.12,-287.03 548.38,-287.03 548.38,-306.28"/>
<text xml:space="preserve" text-anchor="middle" x="528.75" y="-292.78" font-family="Helvetica,sans-Serif" font-size="10.00">Drive</text>
</a>
</g>
</g>
<!-- Node2&#45;&gt;Node1 -->
<g id="edge1_Node000001_Node000002" class="edge">
<title>Node2&#45;&gt;Node1</title>
<g id="a_edge1_Node000001_Node000002"><a xlink:title=" ">
<path fill="none" stroke="#9a32cd" stroke-dasharray="5,2" d="M541.52,-277.54C549.46,-266.56 561.03,-253.77 575,-247.66 588.13,-241.91 593.26,-244.54 607.25,-247.66 708.35,-270.2 744.77,-273.65 818.25,-346.66 840.8,-369.07 852.74,-406.14 857.39,-423.76"/>
<polygon fill="#9a32cd" stroke="#9a32cd" points="538.77,-275.36 536.12,-285.62 544.59,-279.25 538.77,-275.36"/>
</a>
</g>
<text xml:space="preserve" text-anchor="start" x="662.12" y="-283.85" font-family="Helvetica,sans-Serif" font-size="10.00" fill="grey">_drive</text>
</g>
<!-- Node18 -->
<g id="Node000018" class="node">
<title>Node18</title>
<g id="a_Node000018"><a xlink:href="class_drive_distance.html" target="_top" xlink:title=" ">
<polygon fill="white" stroke="#666666" points="714.38,-432.28 636.12,-432.28 636.12,-413.03 714.38,-413.03 714.38,-432.28"/>
<text xml:space="preserve" text-anchor="middle" x="675.25" y="-418.78" font-family="Helvetica,sans-Serif" font-size="10.00">DriveDistance</text>
</a>
</g>
</g>
<!-- Node2&#45;&gt;Node18 -->
<g id="edge23_Node000018_Node000002" class="edge">
<title>Node2&#45;&gt;Node18</title>
<g id="a_edge23_Node000018_Node000002"><a xlink:title=" ">
<path fill="none" stroke="#9a32cd" stroke-dasharray="5,2" d="M559.61,-288.5C575.53,-286.04 594.41,-286.44 607.25,-297.41 644,-328.81 594.39,-367.46 625.25,-404.66 628.14,-408.15 631.78,-410.96 635.75,-413.23"/>
<polygon fill="#9a32cd" stroke="#9a32cd" points="559.29,-284.99 550.17,-290.38 560.66,-291.86 559.29,-284.99"/>
</a>
</g>
<text xml:space="preserve" text-anchor="start" x="578" y="-302.16" font-family="Helvetica,sans-Serif" font-size="10.00" fill="grey">_drive</text>
</g>
<!-- Node20 -->
<g id="Node000020" class="node">
<title>Node20</title>
<g id="a_Node000020"><a xlink:href="class_drive_arc.html" target="_top" xlink:title=" ">
<polygon fill="white" stroke="#666666" points="702.38,-469.28 648.12,-469.28 648.12,-450.03 702.38,-450.03 702.38,-469.28"/>
<text xml:space="preserve" text-anchor="middle" x="675.25" y="-455.78" font-family="Helvetica,sans-Serif" font-size="10.00">DriveArc</text>
</a>
</g>
</g>
<!-- Node2&#45;&gt;Node20 -->
<g id="edge26_Node000020_Node000002" class="edge">
<title>Node2&#45;&gt;Node20</title>
<g id="a_edge26_Node000020_Node000002"><a xlink:title=" ">
<path fill="none" stroke="#9a32cd" stroke-dasharray="5,2" d="M542.22,-316.3C566.77,-354.84 619.47,-437.08 625.25,-441.66 631.78,-446.84 639.95,-450.62 647.73,-453.34"/>
<polygon fill="#9a32cd" stroke="#9a32cd" points="545.24,-314.52 536.92,-307.96 539.33,-318.28 545.24,-314.52"/>
</a>
</g>
<text xml:space="preserve" text-anchor="start" x="578" y="-419.54" font-family="Helvetica,sans-Serif" font-size="10.00" fill="grey">_drive</text>
</g>
<!-- Node21 -->
<g id="Node000021" class="node">
<title>Node21</title>
<g id="a_Node000021"><a xlink:href="class_follow_line_step.html" target="_top" xlink:title=" ">
<polygon fill="white" stroke="#666666" points="716.62,-395.28 633.88,-395.28 633.88,-376.03 716.62,-376.03 716.62,-395.28"/>
<text xml:space="preserve" text-anchor="middle" x="675.25" y="-381.78" font-family="Helvetica,sans-Serif" font-size="10.00">FollowLineStep</text>
</a>
</g>
</g>
<!-- Node2&#45;&gt;Node21 -->
<g id="edge29_Node000021_Node000002" class="edge">
<title>Node2&#45;&gt;Node21</title>
<g id="a_edge29_Node000021_Node000002"><a xlink:title=" ">
<path fill="none" stroke="#9a32cd" stroke-dasharray="5,2" d="M545.67,-278.5C562.28,-261.73 588.49,-241.61 607.25,-257.41 643.21,-287.7 597.05,-324.03 625.25,-361.66 629.68,-367.57 635.96,-372.11 642.55,-375.56"/>
<polygon fill="#9a32cd" stroke="#9a32cd" points="543.25,-275.96 538.97,-285.66 548.36,-280.75 543.25,-275.96"/>
</a>
</g>
<text xml:space="preserve" text-anchor="start" x="578" y="-262.16" font-family="Helvetica,sans-Serif" font-size="10.00" fill="grey">_drive</text>
</g>
<!-- Node3 -->
<g id="Node000003" class="node">
<title>Node3</title>
<g id="a_Node000003"><a xlink:href="class_subsystem.html" target="_top" xlink:title=" ">
<polygon fill="white" stroke="#666666" points="360.25,-256.28 294.75,-256.28 294.75,-237.03 360.25,-237.03 360.25,-256.28"/>
<text xml:space="preserve" text-anchor="middle" x="327.5" y="-242.78" font-family="Helvetica,sans-Serif" font-size="10.00">Subsystem</text>
</a>
</g>
</g>
<!-- Node3&#45;&gt;Node2 -->
<g id="edge2_Node000002_Node000003" class="edge">
<title>Node3&#45;&gt;Node2</title>
<g id="a_edge2_Node000002_Node000003"><a xlink:title=" ">
<path fill="none" stroke="#63b8ff" d="M371.83,-244.08C403.57,-243.71 447.1,-246.47 482.5,-260.66 496.85,-266.41 510.31,-278.27 518.76,-286.81"/>
<polygon fill="#63b8ff" stroke="#63b8ff" points="372.14,-240.57 362.22,-244.3 372.3,-247.57 372.14,-240.57"/>
</a>
</g>
</g>
<!-- Node14 -->
<g id="Node000014" class="node">
<title>Node14</title>
<g id="a_Node000014"><a xlink:href="class_miner.html" target="_top" xlink:title=" ">
<polygon fill="white" stroke="#666666" points="548.75,-394.28 508.75,-394.28 508.75,-375.03 548.75,-375.03 548.75,-394.28"/>
<text xml:space="preserve" text-anchor="middle" x="528.75" y="-380.78" font-family="Helvetica,sans-Serif" font-size="10.00">Miner</text>
</a>
</g>
</g>
<!-- Node3&#45;&gt;Node14 -->
<g id="edge14_Node000014_Node000003" class="edge">
<title>Node3&#45;&gt;Node14</title>
<g id="a_edge14_Node000014_Node000003"><a xlink:title=" ">
<path fill="none" stroke="#63b8ff" d="M371.92,-256.18C411.3,-265.52 465.69,-280.4 482.5,-294.66 495.7,-305.86 515.55,-353.57 523.87,-374.62"/>
<polygon fill="#63b8ff" stroke="#63b8ff" points="372.75,-252.78 362.22,-253.93 371.16,-259.6 372.75,-252.78"/>
</a>
</g>
</g>
<!-- Node16 -->
<g id="Node000016" class="node">
<title>Node16</title>
<g id="a_Node000016"><a xlink:href="class_shooter.html" target="_top" xlink:title=" ">
<polygon fill="white" stroke="#666666" points="553.62,-159.28 503.88,-159.28 503.88,-140.03 553.62,-140.03 553.62,-159.28"/>
<text xml:space="preserve" text-anchor="middle" x="528.75" y="-145.78" font-family="Helvetica,sans-Serif" font-size="10.00">Shooter</text>
</a>
</g>
</g>
<!-- Node3&#45;&gt;Node16 -->
<g id="edge17_Node000016_Node000003" class="edge">
<title>Node3&#45;&gt;Node16</title>
<g id="a_edge17_Node000016_Node000003"><a xlink:title=" ">
<path fill="none" stroke="#63b8ff" d="M371.72,-243.3C404.38,-239.05 449.13,-229.43 482.5,-207.66 501.32,-195.38 515.65,-172.57 522.77,-159.51"/>
<polygon fill="#63b8ff" stroke="#63b8ff" points="371.74,-239.77 362.22,-244.41 372.56,-246.73 371.74,-239.77"/>
</a>
</g>
</g>
<!-- Node4 -->
<g id="Node000004" class="node">
<title>Node4</title>
<g id="a_Node000004"><a xlink:href="class_encoder_wrapper.html" target="_top" xlink:title=" ">
<polygon fill="white" stroke="#666666" points="371.5,-83.28 283.5,-83.28 283.5,-64.03 371.5,-64.03 371.5,-83.28"/>
<text xml:space="preserve" text-anchor="middle" x="327.5" y="-69.78" font-family="Helvetica,sans-Serif" font-size="10.00">EncoderWrapper</text>
</a>
</g>
</g>
<!-- Node4&#45;&gt;Node2 -->
<g id="edge3_Node000002_Node000004" class="edge">
<title>Node4&#45;&gt;Node2</title>
<g id="a_edge3_Node000002_Node000004"><a xlink:title=" ">
<path fill="none" stroke="#9a32cd" stroke-dasharray="5,2" d="M383.17,-73C416.14,-75.56 456.62,-84.42 482.5,-110.16 488.98,-116.61 517.61,-249.11 525.65,-286.76"/>
<polygon fill="#9a32cd" stroke="#9a32cd" points="383.56,-69.52 373.37,-72.43 383.15,-76.51 383.56,-69.52"/>
</a>
</g>
<text xml:space="preserve" text-anchor="start" x="409.75" y="-130.16" font-family="Helvetica,sans-Serif" font-size="10.00" fill="grey">_leftEncoder</text>
<text xml:space="preserve" text-anchor="start" x="409.75" y="-114.91" font-family="Helvetica,sans-Serif" font-size="10.00" fill="grey">_rightEncoder</text>
</g>
<!-- Node4&#45;&gt;Node16 -->
<g id="edge20_Node000016_Node000004" class="edge">
<title>Node4&#45;&gt;Node16</title>
<g id="a_edge20_Node000016_Node000004"><a xlink:title=" ">
<path fill="none" stroke="#9a32cd" stroke-dasharray="5,2" d="M358.88,-59.05C391.9,-45.5 444.95,-30.68 482.5,-54.41 512.83,-73.58 523.24,-119.23 526.46,-139.57"/>
<polygon fill="#9a32cd" stroke="#9a32cd" points="357.68,-55.76 349.89,-62.94 360.46,-62.18 357.68,-55.76"/>
</a>
</g>
<text xml:space="preserve" text-anchor="start" x="422.5" y="-59.16" font-family="Helvetica,sans-Serif" font-size="10.00" fill="grey">encoder</text>
</g>
<!-- Node5 -->
<g id="Node000005" class="node">
<title>Node5</title>
<g id="a_Node000005"><a xlink:href="class_line_sensor.html" target="_top" xlink:title=" ">
<polygon fill="white" stroke="#666666" points="359.88,-410.28 295.12,-410.28 295.12,-391.03 359.88,-391.03 359.88,-410.28"/>
<text xml:space="preserve" text-anchor="middle" x="327.5" y="-396.78" font-family="Helvetica,sans-Serif" font-size="10.00">LineSensor</text>
</a>
</g>
</g>
<!-- Node5&#45;&gt;Node2 -->
<g id="edge4_Node000002_Node000005" class="edge">
<title>Node5&#45;&gt;Node2</title>
<g id="a_edge4_Node000002_Node000005"><a xlink:title=" ">
<path fill="none" stroke="#9a32cd" stroke-dasharray="5,2" d="M371.52,-398.76C410.69,-396.29 464.99,-390.75 482.5,-378.66 507.92,-361.11 520.53,-324.44 525.35,-306.7"/>
<polygon fill="#9a32cd" stroke="#9a32cd" points="371.46,-395.26 361.68,-399.34 371.86,-402.25 371.46,-395.26"/>
</a>
</g>
<text xml:space="preserve" text-anchor="start" x="414.25" y="-401.4" font-family="Helvetica,sans-Serif" font-size="10.00" fill="grey">_lineSensor</text>
</g>
<!-- Node6 -->
<g id="Node000006" class="node">
<title>Node6</title>
<g id="a_Node000006"><a xlink:href="class_dual_motor_controller.html" target="_top" xlink:title=" ">
<polygon fill="white" stroke="#666666" points="379,-179.28 276,-179.28 276,-160.03 379,-160.03 379,-179.28"/>
<text xml:space="preserve" text-anchor="middle" x="327.5" y="-165.78" font-family="Helvetica,sans-Serif" font-size="10.00">DualMotorController</text>
</a>
</g>
</g>
<!-- Node6&#45;&gt;Node2 -->
<g id="edge5_Node000002_Node000006" class="edge">
<title>Node6&#45;&gt;Node2</title>
<g id="a_edge5_Node000002_Node000006"><a xlink:title=" ">
<path fill="none" stroke="#9a32cd" stroke-dasharray="5,2" d="M390.1,-180.99C420.37,-188.94 455.95,-202.09 482.5,-223.41 503.94,-240.63 517.94,-270.94 524.11,-286.62"/>
<polygon fill="#9a32cd" stroke="#9a32cd" points="391.23,-177.66 380.68,-178.65 389.55,-184.46 391.23,-177.66"/>
</a>
</g>
<text xml:space="preserve" text-anchor="start" x="403.75" y="-228.16" font-family="Helvetica,sans-Serif" font-size="10.00" fill="grey">_motorController</text>
</g>
<!-- Node6&#45;&gt;Node16 -->
<g id="edge19_Node000016_Node000006" class="edge">
<title>Node6&#45;&gt;Node16</title>
<g id="a_edge19_Node000016_Node000006"><a xlink:title=" ">
<path fill="none" stroke="#9a32cd" stroke-dasharray="5,2" d="M368.66,-156.44C377.87,-153.95 387.69,-151.72 397,-150.41 433.86,-145.22 477.16,-146.37 503.51,-147.87"/>
<polygon fill="#9a32cd" stroke="#9a32cd" points="367.9,-153.02 359.26,-159.14 369.83,-159.74 367.9,-153.02"/>
</a>
</g>
<text xml:space="preserve" text-anchor="start" x="427.38" y="-155.16" font-family="Helvetica,sans-Serif" font-size="10.00" fill="grey">motor</text>
</g>
<!-- Node7 -->
<g id="Node000007" class="node">
<title>Node7</title>
<g id="a_Node000007"><a xlink:href="class_l298_n_motor_driver_mega.html" target="_top" xlink:title=" ">
<polygon fill="white" stroke="#666666" points="189.75,-207.28 70.25,-207.28 70.25,-188.03 189.75,-188.03 189.75,-207.28"/>
<text xml:space="preserve" text-anchor="middle" x="130" y="-193.78" font-family="Helvetica,sans-Serif" font-size="10.00">L298NMotorDriverMega</text>
</a>
</g>
</g>
<!-- Node7&#45;&gt;Node6 -->
<g id="edge6_Node000006_Node000007" class="edge">
<title>Node7&#45;&gt;Node6</title>
<g id="a_edge6_Node000006_Node000007"><a xlink:title=" ">
<path fill="none" stroke="#9a32cd" stroke-dasharray="5,2" d="M201.3,-187.59C225.92,-184.07 253.07,-180.18 275.77,-176.92"/>
<polygon fill="#9a32cd" stroke="#9a32cd" points="201.09,-184.09 191.69,-188.97 202.08,-191.01 201.09,-184.09"/>
</a>
</g>
<text xml:space="preserve" text-anchor="start" x="210.75" y="-190.92" font-family="Helvetica,sans-Serif" font-size="10.00" fill="grey">dualDriver</text>
</g>
<!-- Node8 -->
<g id="Node000008" class="node">
<title>Node8</title>
<g id="a_Node000008"><a xlink:href="class_p_i_d_controller.html" target="_top" xlink:title=" ">
<polygon fill="white" stroke="#666666" points="167.62,-151.28 92.38,-151.28 92.38,-132.03 167.62,-132.03 167.62,-151.28"/>
<text xml:space="preserve" text-anchor="middle" x="130" y="-137.78" font-family="Helvetica,sans-Serif" font-size="10.00">PIDController</text>
</a>
</g>
</g>
<!-- Node8&#45;&gt;Node6 -->
<g id="edge7_Node000006_Node000008" class="edge">
<title>Node8&#45;&gt;Node6</title>
<g id="a_edge7_Node000006_Node000008"><a xlink:title=" ">
<path fill="none" stroke="#9a32cd" stroke-dasharray="5,2" d="M179.29,-138.21C203.18,-137.52 232.32,-138.21 258,-143.16 274.78,-146.39 292.76,-153.5 306.09,-159.54"/>
<polygon fill="#9a32cd" stroke="#9a32cd" points="179.4,-134.71 169.54,-138.59 179.67,-141.7 179.4,-134.71"/>
</a>
</g>
<text xml:space="preserve" text-anchor="start" x="221.25" y="-163.16" font-family="Helvetica,sans-Serif" font-size="10.00" fill="grey">_pid1</text>
<text xml:space="preserve" text-anchor="start" x="221.25" y="-147.91" font-family="Helvetica,sans-Serif" font-size="10.00" fill="grey">_pid2</text>
</g>
<!-- Node9 -->
<g id="Node000009" class="node">
<title>Node9</title>
<g id="a_Node000009"><a xlink:href="class_p_i_d.html" target="_top" xlink:title=" ">
<polygon fill="white" stroke="#666666" points="33.25,-151.28 0,-151.28 0,-132.03 33.25,-132.03 33.25,-151.28"/>
<text xml:space="preserve" text-anchor="middle" x="16.62" y="-137.78" font-family="Helvetica,sans-Serif" font-size="10.00">PID</text>
</a>
</g>
</g>
<!-- Node9&#45;&gt;Node8 -->
<g id="edge8_Node000008_Node000009" class="edge">
<title>Node9&#45;&gt;Node8</title>
<g id="a_edge8_Node000008_Node000009"><a xlink:title=" ">
<path fill="none" stroke="#63b8ff" d="M45.01,-141.66C59.14,-141.66 76.58,-141.66 91.9,-141.66"/>
<polygon fill="#63b8ff" stroke="#63b8ff" points="45.1,-138.16 35.1,-141.66 45.1,-145.16 45.1,-138.16"/>
</a>
</g>
</g>
<!-- Node10 -->
<g id="Node000010" class="node">
<title>Node10</title>
<g id="a_Node000010"><a xlink:href="class_sharp_g_p2_y0_a51.html" target="_top" xlink:title=" ">
<polygon fill="white" stroke="#666666" points="372.62,-370.28 282.38,-370.28 282.38,-351.03 372.62,-351.03 372.62,-370.28"/>
<text xml:space="preserve" text-anchor="middle" x="327.5" y="-356.78" font-family="Helvetica,sans-Serif" font-size="10.00">SharpGP2Y0A51</text>
</a>
</g>
</g>
<!-- Node10&#45;&gt;Node2 -->
<g id="edge9_Node000002_Node000010" class="edge">
<title>Node10&#45;&gt;Node2</title>
<g id="a_edge9_Node000002_Node000010"><a xlink:title=" ">
<path fill="none" stroke="#9a32cd" stroke-dasharray="5,2" d="M384.25,-360.69C414.58,-358.78 452.02,-353.2 482.5,-338.66 498.17,-331.18 512.13,-316.35 520.27,-306.47"/>
<polygon fill="#9a32cd" stroke="#9a32cd" points="384.33,-357.18 374.51,-361.18 384.68,-364.17 384.33,-357.18"/>
</a>
</g>
<text xml:space="preserve" text-anchor="start" x="413.88" y="-364.41" font-family="Helvetica,sans-Serif" font-size="10.00" fill="grey">_distSensor</text>
</g>
<!-- Node11 -->
<g id="Node000011" class="node">
<title>Node11</title>
<g id="a_Node000011"><a xlink:href="class_odometry.html" target="_top" xlink:title=" ">
<polygon fill="white" stroke="#666666" points="356.88,-314.28 298.12,-314.28 298.12,-295.03 356.88,-295.03 356.88,-314.28"/>
<text xml:space="preserve" text-anchor="middle" x="327.5" y="-300.78" font-family="Helvetica,sans-Serif" font-size="10.00">Odometry</text>
</a>
</g>
</g>
<!-- Node11&#45;&gt;Node2 -->
<g id="edge10_Node000002_Node000011" class="edge">
<title>Node11&#45;&gt;Node2</title>
<g id="a_edge10_Node000002_Node000011"><a xlink:title=" ">
<path fill="none" stroke="#9a32cd" stroke-dasharray="5,2" d="M368.41,-303.06C411.02,-301.35 476.74,-298.71 508.83,-297.42"/>
<polygon fill="#9a32cd" stroke="#9a32cd" points="368.41,-299.55 358.56,-303.45 368.69,-306.55 368.41,-299.55"/>
</a>
</g>
<text xml:space="preserve" text-anchor="start" x="400" y="-321.84" font-family="Helvetica,sans-Serif" font-size="10.00" fill="grey">_desiredOdometry</text>
<text xml:space="preserve" text-anchor="start" x="400" y="-306.59" font-family="Helvetica,sans-Serif" font-size="10.00" fill="grey">_odometry</text>
</g>
<!-- Node12 -->
<g id="Node000012" class="node">
<title>Node12</title>
<g id="a_Node000012"><a xlink:href="struct_odometry_1_1_pose2_d.html" target="_top" xlink:title=" ">
<polygon fill="white" stroke="#666666" points="180,-314.28 80,-314.28 80,-295.03 180,-295.03 180,-314.28"/>
<text xml:space="preserve" text-anchor="middle" x="130" y="-300.78" font-family="Helvetica,sans-Serif" font-size="10.00">Odometry::Pose2D</text>
</a>
</g>
</g>
<!-- Node12&#45;&gt;Node11 -->
<g id="edge11_Node000011_Node000012" class="edge">
<title>Node12&#45;&gt;Node11</title>
<g id="a_edge11_Node000011_Node000012"><a xlink:title=" ">
<path fill="none" stroke="#9a32cd" stroke-dasharray="5,2" d="M191.53,-304.66C226.93,-304.66 270,-304.66 297.81,-304.66"/>
<polygon fill="#9a32cd" stroke="#9a32cd" points="191.85,-301.16 181.85,-304.66 191.85,-308.16 191.85,-301.16"/>
</a>
</g>
<text xml:space="preserve" text-anchor="start" x="219.75" y="-309.41" font-family="Helvetica,sans-Serif" font-size="10.00" fill="grey">_pose</text>
</g>
<!-- Node13 -->
<g id="Node000013" class="node">
<title>Node13</title>
<g id="a_Node000013"><a xlink:href="class_ramsete_controller.html" target="_top" xlink:title=" ">
<polygon fill="white" stroke="#666666" points="376.38,-450.28 278.62,-450.28 278.62,-431.03 376.38,-431.03 376.38,-450.28"/>
<text xml:space="preserve" text-anchor="middle" x="327.5" y="-436.78" font-family="Helvetica,sans-Serif" font-size="10.00">RamseteController</text>
</a>
</g>
</g>
<!-- Node13&#45;&gt;Node2 -->
<g id="edge12_Node000002_Node000013" class="edge">
<title>Node13&#45;&gt;Node2</title>
<g id="a_edge12_Node000002_Node000013"><a xlink:title=" ">
<path fill="none" stroke="#9a32cd" stroke-dasharray="5,2" d="M387.92,-438.06C424.96,-435.27 468.22,-429.51 482.5,-417.66 501.32,-402.04 492.01,-388.59 500.5,-365.66 508.37,-344.4 518.3,-319.76 523.74,-306.44"/>
<polygon fill="#9a32cd" stroke="#9a32cd" points="387.9,-434.55 378.17,-438.73 388.38,-441.53 387.9,-434.55"/>
</a>
</g>
<text xml:space="preserve" text-anchor="start" x="419.5" y="-441.83" font-family="Helvetica,sans-Serif" font-size="10.00" fill="grey">_ramsete</text>
</g>
<!-- Node14&#45;&gt;Node1 -->
<g id="edge13_Node000001_Node000014" class="edge">
<title>Node14&#45;&gt;Node1</title>
<g id="a_edge13_Node000001_Node000014"><a xlink:title=" ">
<path fill="none" stroke="#9a32cd" stroke-dasharray="5,2" d="M559.87,-372.94C585.27,-363.15 618.54,-350.61 625.25,-349.41 669,-341.59 681.11,-344.2 725.25,-349.41 767.46,-354.39 783.36,-347.39 818.25,-371.66 837.18,-384.83 849.85,-409.66 855.81,-423.57"/>
<polygon fill="#9a32cd" stroke="#9a32cd" points="558.7,-369.64 550.63,-376.51 561.22,-376.17 558.7,-369.64"/>
</a>
</g>
<text xml:space="preserve" text-anchor="start" x="660.62" y="-354.16" font-family="Helvetica,sans-Serif" font-size="10.00" fill="grey">_miner</text>
</g>
<!-- Node22 -->
<g id="Node000022" class="node">
<title>Node22</title>
<g id="a_Node000022"><a xlink:href="class_mine_block_step.html" target="_top" xlink:title=" ">
<polygon fill="white" stroke="#666666" points="716.25,-506.28 634.25,-506.28 634.25,-487.03 716.25,-487.03 716.25,-506.28"/>
<text xml:space="preserve" text-anchor="middle" x="675.25" y="-492.78" font-family="Helvetica,sans-Serif" font-size="10.00">MineBlockStep</text>
</a>
</g>
</g>
<!-- Node14&#45;&gt;Node22 -->
<g id="edge32_Node000022_Node000014" class="edge">
<title>Node14&#45;&gt;Node22</title>
<g id="a_edge32_Node000022_Node000014"><a xlink:title=" ">
<path fill="none" stroke="#9a32cd" stroke-dasharray="5,2" d="M544.57,-403.45C561.93,-424.36 592.51,-457.91 625.25,-478.66 630.07,-481.72 635.49,-484.36 640.92,-486.6"/>
<polygon fill="#9a32cd" stroke="#9a32cd" points="547.34,-401.3 538.32,-395.74 541.9,-405.71 547.34,-401.3"/>
</a>
</g>
<text xml:space="preserve" text-anchor="start" x="579.12" y="-468.5" font-family="Helvetica,sans-Serif" font-size="10.00" fill="grey">miner</text>
</g>
<!-- Node15 -->
<g id="Node000015" class="node">
<title>Node15</title>
<g id="a_Node000015"><a xlink:href="class_servo_control.html" target="_top" xlink:title=" ">
<polygon fill="white" stroke="#666666" points="364,-490.28 291,-490.28 291,-471.03 364,-471.03 364,-490.28"/>
<text xml:space="preserve" text-anchor="middle" x="327.5" y="-476.78" font-family="Helvetica,sans-Serif" font-size="10.00">ServoControl</text>
</a>
</g>
</g>
<!-- Node15&#45;&gt;Node14 -->
<g id="edge15_Node000014_Node000015" class="edge">
<title>Node15&#45;&gt;Node14</title>
<g id="a_edge15_Node000014_Node000015"><a xlink:title=" ">
<path fill="none" stroke="#9a32cd" stroke-dasharray="5,2" d="M375.68,-484C408.2,-484.03 451.05,-479.35 482.5,-458.66 505.9,-443.26 519.18,-411.18 524.7,-394.78"/>
<polygon fill="#9a32cd" stroke="#9a32cd" points="375.78,-480.5 365.72,-483.83 375.66,-487.5 375.78,-480.5"/>
</a>
</g>
<text xml:space="preserve" text-anchor="start" x="427.75" y="-487.9" font-family="Helvetica,sans-Serif" font-size="10.00" fill="grey">servo</text>
</g>
<!-- Node16&#45;&gt;Node1 -->
<g id="edge16_Node000001_Node000016" class="edge">
<title>Node16&#45;&gt;Node1</title>
<g id="a_edge16_Node000001_Node000016"><a xlink:title=" ">
<path fill="none" stroke="#9a32cd" stroke-dasharray="5,2" d="M564.78,-155.31C626.45,-167.2 753.97,-200.89 818.25,-283.66 852.39,-327.62 858.46,-397.96 859.53,-423.76"/>
<polygon fill="#9a32cd" stroke="#9a32cd" points="565.67,-151.91 555.2,-153.54 564.4,-158.79 565.67,-151.91"/>
</a>
</g>
<text xml:space="preserve" text-anchor="start" x="656.5" y="-212.39" font-family="Helvetica,sans-Serif" font-size="10.00" fill="grey">_shooter</text>
</g>
<!-- Node17 -->
<g id="Node000017" class="node">
<title>Node17</title>
<g id="a_Node000017"><a xlink:href="class_button.html" target="_top" xlink:title=" ">
<polygon fill="white" stroke="#666666" points="349.75,-23.28 305.25,-23.28 305.25,-4.03 349.75,-4.03 349.75,-23.28"/>
<text xml:space="preserve" text-anchor="middle" x="327.5" y="-9.78" font-family="Helvetica,sans-Serif" font-size="10.00">Button</text>
</a>
</g>
</g>
<!-- Node17&#45;&gt;Node16 -->
<g id="edge18_Node000016_Node000017" class="edge">
<title>Node17&#45;&gt;Node16</title>
<g id="a_edge18_Node000016_Node000017"><a xlink:title=" ">
<path fill="none" stroke="#9a32cd" stroke-dasharray="5,2" d="M361.24,-5.31C395.04,1.26 447.62,5.5 482.5,-20.41 521.62,-49.47 527.11,-114.87 527.74,-139.77"/>
<polygon fill="#9a32cd" stroke="#9a32cd" points="360.66,-1.85 351.61,-7.37 362.12,-8.7 360.66,-1.85"/>
</a>
</g>
<text xml:space="preserve" text-anchor="start" x="411.25" y="-25.16" font-family="Helvetica,sans-Serif" font-size="10.00" fill="grey">block_switch</text>
</g>
<!-- Node18&#45;&gt;Node1 -->
<g id="edge21_Node000001_Node000018" class="edge">
<title>Node18&#45;&gt;Node1</title>
<g id="a_edge21_Node000001_Node000018"><a xlink:title=" ">
<path fill="none" stroke="#9a32cd" stroke-dasharray="5,2" d="M725.98,-413.18C753.48,-409.57 788.08,-407.75 818.25,-414.41 826.63,-416.26 835.32,-419.97 842.57,-423.65"/>
<polygon fill="#9a32cd" stroke="#9a32cd" points="725.57,-409.7 716.17,-414.59 726.57,-416.63 725.57,-409.7"/>
</a>
</g>
<text xml:space="preserve" text-anchor="start" x="757.5" y="-419.16" font-family="Helvetica,sans-Serif" font-size="10.00" fill="grey">_driveStep</text>
</g>
<!-- Node19 -->
<g id="Node000019" class="node">
<title>Node19</title>
<g id="a_Node000019"><a xlink:href="class_auto_step.html" target="_top" xlink:title=" ">
<polygon fill="white" stroke="#666666" points="557,-518.28 500.5,-518.28 500.5,-499.03 557,-499.03 557,-518.28"/>
<text xml:space="preserve" text-anchor="middle" x="528.75" y="-504.78" font-family="Helvetica,sans-Serif" font-size="10.00">AutoStep</text>
</a>
</g>
</g>
<!-- Node19&#45;&gt;Node18 -->
<g id="edge22_Node000018_Node000019" class="edge">
<title>Node19&#45;&gt;Node18</title>
<g id="a_edge22_Node000018_Node000019"><a xlink:title=" ">
<path fill="none" stroke="#63b8ff" d="M550.21,-491.63C568.87,-476.72 597.66,-455.22 625.25,-440.66 630.78,-437.74 636.89,-435.09 642.86,-432.77"/>
<polygon fill="#63b8ff" stroke="#63b8ff" points="548.17,-488.78 542.61,-497.8 552.58,-494.22 548.17,-488.78"/>
</a>
</g>
</g>
<!-- Node19&#45;&gt;Node20 -->
<g id="edge25_Node000020_Node000019" class="edge">
<title>Node19&#45;&gt;Node20</title>
<g id="a_edge25_Node000020_Node000019"><a xlink:title=" ">
<path fill="none" stroke="#63b8ff" d="M567.92,-495.72C593.1,-487.18 625.44,-476.21 647.81,-468.63"/>
<polygon fill="#63b8ff" stroke="#63b8ff" points="567.05,-492.32 558.7,-498.84 569.3,-498.94 567.05,-492.32"/>
</a>
</g>
</g>
<!-- Node19&#45;&gt;Node21 -->
<g id="edge28_Node000021_Node000019" class="edge">
<title>Node19&#45;&gt;Node21</title>
<g id="a_edge28_Node000021_Node000019"><a xlink:title=" ">
<path fill="none" stroke="#63b8ff" d="M542.53,-489.24C551.09,-476.82 562.96,-460.66 575,-447.66 587.9,-433.73 592.99,-432.19 607.25,-419.66 615.29,-412.6 616.07,-409.16 625.25,-403.66 630.3,-400.63 635.95,-397.98 641.56,-395.72"/>
<polygon fill="#63b8ff" stroke="#63b8ff" points="539.73,-487.14 537.04,-497.39 545.53,-491.05 539.73,-487.14"/>
</a>
</g>
</g>
<!-- Node19&#45;&gt;Node22 -->
<g id="edge31_Node000022_Node000019" class="edge">
<title>Node19&#45;&gt;Node22</title>
<g id="a_edge31_Node000022_Node000019"><a xlink:title=" ">
<path fill="none" stroke="#63b8ff" d="M568.6,-505.43C588.84,-503.75 613.56,-501.7 633.99,-500"/>
<polygon fill="#63b8ff" stroke="#63b8ff" points="568.45,-501.93 558.78,-506.25 569.03,-508.91 568.45,-501.93"/>
</a>
</g>
</g>
<!-- Node23 -->
<g id="Node000023" class="node">
<title>Node23</title>
<g id="a_Node000023"><a xlink:href="class_index_block_step.html" target="_top" xlink:title=" ">
<polygon fill="white" stroke="#666666" points="717.75,-622.28 632.75,-622.28 632.75,-603.03 717.75,-603.03 717.75,-622.28"/>
<text xml:space="preserve" text-anchor="middle" x="675.25" y="-608.78" font-family="Helvetica,sans-Serif" font-size="10.00">IndexBlockStep</text>
</a>
</g>
</g>
<!-- Node19&#45;&gt;Node23 -->
<g id="edge34_Node000023_Node000019" class="edge">
<title>Node19&#45;&gt;Node23</title>
<g id="a_edge34_Node000023_Node000019"><a xlink:title=" ">
<path fill="none" stroke="#63b8ff" d="M545.79,-526.83C554.13,-535.89 564.72,-546.77 575,-555.66 595.78,-573.63 601.32,-578.17 625.25,-591.66 632.35,-595.66 640.35,-599.39 647.81,-602.56"/>
<polygon fill="#63b8ff" stroke="#63b8ff" points="548.6,-524.72 539.3,-519.65 543.41,-529.42 548.6,-524.72"/>
</a>
</g>
</g>
<!-- Node24 -->
<g id="Node000024" class="node">
<title>Node24</title>
<g id="a_Node000024"><a xlink:href="class_place_on_table_step.html" target="_top" xlink:title=" ">
<polygon fill="white" stroke="#666666" points="723.75,-582.28 626.75,-582.28 626.75,-563.03 723.75,-563.03 723.75,-582.28"/>
<text xml:space="preserve" text-anchor="middle" x="675.25" y="-568.78" font-family="Helvetica,sans-Serif" font-size="10.00">PlaceOnTableStep</text>
</a>
</g>
</g>
<!-- Node19&#45;&gt;Node24 -->
<g id="edge36_Node000024_Node000019" class="edge">
<title>Node19&#45;&gt;Node24</title>
<g id="a_edge36_Node000024_Node000019"><a xlink:title=" ">
<path fill="none" stroke="#63b8ff" d="M555.66,-524.47C561.9,-528.01 568.6,-531.62 575,-534.66 597.66,-545.43 624.26,-555.48 644.21,-562.54"/>
<polygon fill="#63b8ff" stroke="#63b8ff" points="557.46,-521.47 547.06,-519.44 553.93,-527.51 557.46,-521.47"/>
</a>
</g>
</g>
<!-- Node25 -->
<g id="Node000025" class="node">
<title>Node25</title>
<g id="a_Node000025"><a xlink:href="class_advance_cycle_step.html" target="_top" xlink:title=" ">
<polygon fill="white" stroke="#666666" points="725.25,-543.28 625.25,-543.28 625.25,-524.03 725.25,-524.03 725.25,-543.28"/>
<text xml:space="preserve" text-anchor="middle" x="675.25" y="-529.78" font-family="Helvetica,sans-Serif" font-size="10.00">AdvanceCycleStep</text>
</a>
</g>
</g>
<!-- Node19&#45;&gt;Node25 -->
<g id="edge38_Node000025_Node000019" class="edge">
<title>Node19&#45;&gt;Node25</title>
<g id="a_edge38_Node000025_Node000019"><a xlink:title=" ">
<path fill="none" stroke="#63b8ff" d="M568.76,-516.51C570.87,-516.91 572.96,-517.29 575,-517.66 591.23,-520.58 609.01,-523.53 624.97,-526.08"/>
<polygon fill="#63b8ff" stroke="#63b8ff" points="569.45,-513.08 558.97,-514.63 568.12,-519.95 569.45,-513.08"/>
</a>
</g>
</g>
<!-- Node20&#45;&gt;Node1 -->
<g id="edge24_Node000001_Node000020" class="edge">
<title>Node20&#45;&gt;Node1</title>
<g id="a_edge24_Node000001_Node000020"><a xlink:title=" ">
<path fill="none" stroke="#9a32cd" stroke-dasharray="5,2" d="M713.73,-454.35C750.29,-449.17 804.8,-441.44 835.84,-437.05"/>
<polygon fill="#9a32cd" stroke="#9a32cd" points="713.45,-450.85 704.04,-455.72 714.43,-457.78 713.45,-450.85"/>
</a>
</g>
<text xml:space="preserve" text-anchor="start" x="750" y="-454.5" font-family="Helvetica,sans-Serif" font-size="10.00" fill="grey">_driveArcStep</text>
</g>
<!-- Node21&#45;&gt;Node1 -->
<g id="edge27_Node000001_Node000021" class="edge">
<title>Node21&#45;&gt;Node1</title>
<g id="a_edge27_Node000001_Node000021"><a xlink:title=" ">
<path fill="none" stroke="#9a32cd" stroke-dasharray="5,2" d="M728.1,-377.09C755.99,-374.79 790.3,-375.79 818.25,-388.41 834.57,-395.78 847.34,-412.96 854.2,-423.91"/>
<polygon fill="#9a32cd" stroke="#9a32cd" points="728.08,-373.57 718.48,-378.05 728.78,-380.54 728.08,-373.57"/>
</a>
</g>
<text xml:space="preserve" text-anchor="start" x="746.25" y="-393.16" font-family="Helvetica,sans-Serif" font-size="10.00" fill="grey">_followLineStep</text>
</g>
<!-- Node22&#45;&gt;Node1 -->
<g id="edge30_Node000001_Node000022" class="edge">
<title>Node22&#45;&gt;Node1</title>
<g id="a_edge30_Node000001_Node000022"><a xlink:title=" ">
<path fill="none" stroke="#9a32cd" stroke-dasharray="5,2" d="M727.77,-493.99C755.7,-490.92 790.15,-484.39 818.25,-470.66 831.61,-464.13 843.91,-452.07 851.6,-443.49"/>
<polygon fill="#9a32cd" stroke="#9a32cd" points="727.75,-490.48 718.13,-494.93 728.43,-497.45 727.75,-490.48"/>
</a>
</g>
<text xml:space="preserve" text-anchor="start" x="757.5" y="-496.73" font-family="Helvetica,sans-Serif" font-size="10.00" fill="grey">_mineStep</text>
</g>
<!-- Node23&#45;&gt;Node1 -->
<g id="edge33_Node000001_Node000023" class="edge">
<title>Node23&#45;&gt;Node1</title>
<g id="a_edge33_Node000001_Node000023"><a xlink:title=" ">
<path fill="none" stroke="#9a32cd" stroke-dasharray="5,2" d="M729.47,-617.25C759.05,-616.86 794.55,-611.11 818.25,-589.66 840.38,-569.63 854.41,-474.94 858.5,-443.69"/>
<polygon fill="#9a32cd" stroke="#9a32cd" points="729.59,-613.75 719.56,-617.16 729.53,-620.75 729.59,-613.75"/>
</a>
</g>
<text xml:space="preserve" text-anchor="start" x="756.38" y="-621.36" font-family="Helvetica,sans-Serif" font-size="10.00" fill="grey">_indexStep</text>
</g>
<!-- Node24&#45;&gt;Node1 -->
<g id="edge35_Node000001_Node000024" class="edge">
<title>Node24&#45;&gt;Node1</title>
<g id="a_edge35_Node000001_Node000024"><a xlink:title=" ">
<path fill="none" stroke="#9a32cd" stroke-dasharray="5,2" d="M735.29,-569.09C768.44,-565.95 805.62,-560.17 818.25,-549.66 851.3,-522.16 858.03,-466.33 859.4,-443.61"/>
<polygon fill="#9a32cd" stroke="#9a32cd" points="735.41,-565.57 725.75,-569.92 736.02,-572.54 735.41,-565.57"/>
</a>
</g>
<text xml:space="preserve" text-anchor="start" x="756.38" y="-572.76" font-family="Helvetica,sans-Serif" font-size="10.00" fill="grey">_placeStep</text>
</g>
<!-- Node25&#45;&gt;Node1 -->
<g id="edge37_Node000001_Node000025" class="edge">
<title>Node25&#45;&gt;Node1</title>
<g id="a_edge37_Node000001_Node000025"><a xlink:title=" ">
<path fill="none" stroke="#9a32cd" stroke-dasharray="5,2" d="M736.88,-529.66C769.28,-526.48 805.15,-520.97 818.25,-511.66 841.76,-494.96 853.12,-460.72 857.5,-443.71"/>
<polygon fill="#9a32cd" stroke="#9a32cd" points="736.75,-526.15 727.11,-530.55 737.38,-533.12 736.75,-526.15"/>
</a>
</g>
<text xml:space="preserve" text-anchor="start" x="749.62" y="-533.54" font-family="Helvetica,sans-Serif" font-size="10.00" fill="grey">_advanceStep</text>
</g>
</g>
</svg>
