<?xml version="1.0" encoding="UTF-8" standalone="no"?>
<!DOCTYPE svg PUBLIC "-//W3C//DTD SVG 1.1//EN"
 "http://www.w3.org/Graphics/SVG/1.1/DTD/svg11.dtd">
<!-- Generated by graphviz version 14.1.2 (20260124.0452)
 -->
<!-- Title: DualMotorController::update Pages: 1 -->
<svg width="414pt" height="39pt"
 viewBox="0.00 0.00 414.00 39.00" xmlns="http://www.w3.org/2000/svg" xmlns:xlink="http://www.w3.org/1999/xlink">
<g id="graph0" class="graph" transform="scale(1 1) rotate(0) translate(4 34.5)">
<title>DualMotorController::update</title>
<!-- Node1 -->
<g id="Node000001" class="node">
<title>Node1</title>
<g id="a_Node000001"><a xlink:title=" ">
<polygon fill="#999999" stroke="#666666" points="103,-30.5 0,-30.5 0,0 103,0 103,-30.5"/>
<text xml:space="preserve" text-anchor="start" x="8" y="-17" font-family="Helvetica,sans-Serif" font-size="10.00">DualMotorController</text>
<text xml:space="preserve" text-anchor="middle" x="51.5" y="-5.75" font-family="Helvetica,sans-Serif" font-size="10.00">::update</text>
</a>
</g>
</g>
<!-- Node2 -->
<g id="Node000002" class="node">
<title>Node2</title>
<g id="a_Node000002"><a xlink:href="class_p_i_d_controller.html#a13b6487783b1ed67b2a84010613edda1" target="_top" xlink:title=" ">
<polygon fill="white" stroke="#666666" points="249.5,-24.88 139,-24.88 139,-5.63 249.5,-5.63 249.5,-24.88"/>
<text xml:space="preserve" text-anchor="middle" x="194.25" y="-11.38" font-family="Helvetica,sans-Serif" font-size="10.00">PIDController::update</text>
</a>
</g>
</g>
<!-- Node1&#45;&gt;Node2 -->
<g id="edge1_Node000001_Node000002" class="edge">
<title>Node1&#45;&gt;Node2</title>
<g id="a_edge1_Node000001_Node000002"><a xlink:title=" ">
<path fill="none" stroke="#63b8ff" d="M103.31,-15.25C111.13,-15.25 119.29,-15.25 127.38,-15.25"/>
<polygon fill="#63b8ff" stroke="#63b8ff" points="127.19,-18.75 137.19,-15.25 127.19,-11.75 127.19,-18.75"/>
</a>
</g>
</g>
<!-- Node3 -->
<g id="Node000003" class="node">
<title>Node3</title>
<g id="a_Node000003"><a xlink:href="class_p_i_d_controller.html#ab1bfabf41170049cb2f179f3ca473dc2" target="_top" xlink:title=" ">
<polygon fill="white" stroke="#666666" points="405.75,-24.88 285.5,-24.88 285.5,-5.63 405.75,-5.63 405.75,-24.88"/>
<text xml:space="preserve" text-anchor="middle" x="345.62" y="-11.38" font-family="Helvetica,sans-Serif" font-size="10.00">PIDController::calculate</text>
</a>
</g>
</g>
<!-- Node2&#45;&gt;Node3 -->
<g id="edge2_Node000002_Node000003" class="edge">
<title>Node2&#45;&gt;Node3</title>
<g id="a_edge2_Node000002_Node000003"><a xlink:title=" ">
<path fill="none" stroke="#63b8ff" d="M249.6,-15.25C257.42,-15.25 265.57,-15.25 273.66,-15.25"/>
<polygon fill="#63b8ff" stroke="#63b8ff" points="273.5,-18.75 283.5,-15.25 273.5,-11.75 273.5,-18.75"/>
</a>
</g>
</g>
</g>
</svg>
