<?xml version="1.0" encoding="UTF-8" standalone="no"?>
<!DOCTYPE svg PUBLIC "-//W3C//DTD SVG 1.1//EN"
 "http://www.w3.org/Graphics/SVG/1.1/DTD/svg11.dtd">
<!-- Generated by graphviz version 14.1.2 (20260124.0452)
 -->
<!-- Title: Solenoid::toggle Pages: 1 -->
<svg width="201pt" height="64pt"
 viewBox="0.00 0.00 201.00 64.00" xmlns="http://www.w3.org/2000/svg" xmlns:xlink="http://www.w3.org/1999/xlink">
<g id="graph0" class="graph" transform="scale(1 1) rotate(0) translate(4 60.25)">
<title>Solenoid::toggle</title>
<!-- Node1 -->
<g id="Node000001" class="node">
<title>Node1</title>
<g id="a_Node000001"><a xlink:title=" ">
<polygon fill="#999999" stroke="#666666" points="85.75,-37.25 0,-37.25 0,-18 85.75,-18 85.75,-37.25"/>
<text xml:space="preserve" text-anchor="middle" x="42.88" y="-23.75" font-family="Helvetica,sans-Serif" font-size="10.00">Solenoid::toggle</text>
</a>
</g>
</g>
<!-- Node2 -->
<g id="Node000002" class="node">
<title>Node2</title>
<g id="a_Node000002"><a xlink:href="class_solenoid.html#aca24a4f068a95523f5bb8cfbea4957b3" target="_top" xlink:title=" ">
<polygon fill="white" stroke="#666666" points="192.5,-56.25 121.75,-56.25 121.75,-37 192.5,-37 192.5,-56.25"/>
<text xml:space="preserve" text-anchor="middle" x="157.12" y="-42.75" font-family="Helvetica,sans-Serif" font-size="10.00">Solenoid::off</text>
</a>
</g>
</g>
<!-- Node1&#45;&gt;Node2 -->
<g id="edge1_Node000001_Node000002" class="edge">
<title>Node1&#45;&gt;Node2</title>
<g id="a_edge1_Node000001_Node000002"><a xlink:title=" ">
<path fill="none" stroke="#63b8ff" d="M85.99,-34.75C93.94,-36.1 102.29,-37.51 110.35,-38.88"/>
<polygon fill="#63b8ff" stroke="#63b8ff" points="109.53,-42.29 119.97,-40.51 110.7,-35.39 109.53,-42.29"/>
</a>
</g>
</g>
<!-- Node3 -->
<g id="Node000003" class="node">
<title>Node3</title>
<g id="a_Node000003"><a xlink:href="class_solenoid.html#a0e3821263143d10fed1a474a9423164c" target="_top" xlink:title=" ">
<polygon fill="white" stroke="#666666" points="192.12,-19.25 122.12,-19.25 122.12,0 192.12,0 192.12,-19.25"/>
<text xml:space="preserve" text-anchor="middle" x="157.12" y="-5.75" font-family="Helvetica,sans-Serif" font-size="10.00">Solenoid::on</text>
</a>
</g>
</g>
<!-- Node1&#45;&gt;Node3 -->
<g id="edge2_Node000001_Node000003" class="edge">
<title>Node1&#45;&gt;Node3</title>
<g id="a_edge2_Node000001_Node000003"><a xlink:title=" ">
<path fill="none" stroke="#63b8ff" d="M85.99,-20.87C94.03,-19.58 102.47,-18.23 110.6,-16.92"/>
<polygon fill="#63b8ff" stroke="#63b8ff" points="111.01,-20.4 120.33,-15.37 109.9,-13.49 111.01,-20.4"/>
</a>
</g>
</g>
</g>
</svg>
