<?xml version="1.0" encoding="UTF-8" standalone="no"?>
<!DOCTYPE svg PUBLIC "-//W3C//DTD SVG 1.1//EN"
 "http://www.w3.org/Graphics/SVG/1.1/DTD/svg11.dtd">
<!-- Generated by graphviz version 14.1.2 (20260124.0452)
 -->
<!-- Title: Robot::handleSerialTestCommand Pages: 1 -->
<svg width="480pt" height="27pt"
 viewBox="0.00 0.00 480.00 27.00" xmlns="http://www.w3.org/2000/svg" xmlns:xlink="http://www.w3.org/1999/xlink">
<g id="graph0" class="graph" transform="scale(1 1) rotate(0) translate(4 23.25)">
<title>Robot::handleSerialTestCommand</title>
<!-- Node1 -->
<g id="Node000001" class="node">
<title>Node1</title>
<g id="a_Node000001"><a xlink:title=" ">
<polygon fill="#999999" stroke="#666666" points="165.25,-19.25 0,-19.25 0,0 165.25,0 165.25,-19.25"/>
<text xml:space="preserve" text-anchor="middle" x="82.62" y="-5.75" font-family="Helvetica,sans-Serif" font-size="10.00">Robot::handleSerialTestCommand</text>
</a>
</g>
</g>
<!-- Node2 -->
<g id="Node000002" class="node">
<title>Node2</title>
<g id="a_Node000002"><a xlink:href="class_robot.html#aa0975008ed9aee31a6ff43d8289bedb5" target="_top" xlink:title=" ">
<polygon fill="white" stroke="#666666" points="366.5,-19.25 201.25,-19.25 201.25,0 366.5,0 366.5,-19.25"/>
<text xml:space="preserve" text-anchor="middle" x="283.88" y="-5.75" font-family="Helvetica,sans-Serif" font-size="10.00">Robot::handleSerialTestCommand</text>
</a>
</g>
</g>
<!-- Node1&#45;&gt;Node2 -->
<g id="edge1_Node000001_Node000002" class="edge">
<title>Node1&#45;&gt;Node2</title>
<g id="a_edge1_Node000001_Node000002"><a xlink:title=" ">
<path fill="none" stroke="#63b8ff" d="M165.53,-9.62C173.48,-9.62 181.59,-9.62 189.64,-9.62"/>
<polygon fill="#63b8ff" stroke="#63b8ff" points="189.45,-13.13 199.45,-9.63 189.45,-6.13 189.45,-13.13"/>
</a>
</g>
</g>
<!-- Node3 -->
<g id="Node000003" class="node">
<title>Node3</title>
<g id="a_Node000003"><a xlink:href="class_robot.html#a3defa2b851d1a9267d6dbe251373ba7d" target="_top" xlink:title=" ">
<polygon fill="white" stroke="#666666" points="471.75,-19.25 402.5,-19.25 402.5,0 471.75,0 471.75,-19.25"/>
<text xml:space="preserve" text-anchor="middle" x="437.12" y="-5.75" font-family="Helvetica,sans-Serif" font-size="10.00">Robot::reply</text>
</a>
</g>
</g>
<!-- Node2&#45;&gt;Node3 -->
<g id="edge2_Node000002_Node000003" class="edge">
<title>Node2&#45;&gt;Node3</title>
<g id="a_edge2_Node000002_Node000003"><a xlink:title=" ">
<path fill="none" stroke="#63b8ff" d="M366.7,-9.62C375.02,-9.62 383.24,-9.62 390.95,-9.62"/>
<polygon fill="#63b8ff" stroke="#63b8ff" points="390.7,-13.13 400.7,-9.63 390.7,-6.13 390.7,-13.13"/>
</a>
</g>
</g>
</g>
</svg>
