<?xml version="1.0" encoding="UTF-8" standalone="no"?>
<!DOCTYPE svg PUBLIC "-//W3C//DTD SVG 1.1//EN"
 "http://www.w3.org/Graphics/SVG/1.1/DTD/svg11.dtd">
<!-- Generated by graphviz version 14.1.2 (20260124.0452)
 -->
<!-- Title: StrategyControllerStep::update Pages: 1 -->
<svg width="481pt" height="420pt"
 viewBox="0.00 0.00 481.00 420.00" xmlns="http://www.w3.org/2000/svg" xmlns:xlink="http://www.w3.org/1999/xlink">
<g id="graph0" class="graph" transform="scale(1 1) rotate(0) translate(4 416.25)">
<title>StrategyControllerStep::update</title>
<!-- Node1 -->
<g id="Node000001" class="node">
<title>Node1</title>
<g id="a_Node000001"><a xlink:title=" ">
<polygon fill="#999999" stroke="#666666" points="115,-217.88 0,-217.88 0,-187.38 115,-187.38 115,-217.88"/>
<text xml:space="preserve" text-anchor="start" x="8" y="-204.38" font-family="Helvetica,sans-Serif" font-size="10.00">StrategyControllerStep</text>
<text xml:space="preserve" text-anchor="middle" x="57.5" y="-193.12" font-family="Helvetica,sans-Serif" font-size="10.00">::update</text>
</a>
</g>
</g>
<!-- Node2 -->
<g id="Node000002" class="node">
<title>Node2</title>
<g id="a_Node000002"><a xlink:href="class_strategy.html#aedae1e448cc25d6ab2f6c7b4adef39fb" target="_top" xlink:title=" ">
<polygon fill="white" stroke="#666666" points="283.62,-412.25 162.62,-412.25 162.62,-393 283.62,-393 283.62,-412.25"/>
<text xml:space="preserve" text-anchor="middle" x="223.12" y="-398.75" font-family="Helvetica,sans-Serif" font-size="10.00">Strategy::advanceCycle</text>
</a>
</g>
</g>
<!-- Node1&#45;&gt;Node2 -->
<g id="edge1_Node000001_Node000002" class="edge">
<title>Node1&#45;&gt;Node2</title>
<g id="a_edge1_Node000001_Node000002"><a xlink:title=" ">
<path fill="none" stroke="#63b8ff" d="M61.9,-218.19C70.4,-253.31 95.97,-339.15 151,-383.62 152.54,-384.87 154.15,-386.03 155.82,-387.12"/>
<polygon fill="#63b8ff" stroke="#63b8ff" points="154.14,-390.19 164.6,-391.83 157.45,-384.02 154.14,-390.19"/>
</a>
</g>
</g>
<!-- Node4 -->
<g id="Node000004" class="node">
<title>Node4</title>
<g id="a_Node000004"><a xlink:href="class_strategy_controller_step.html#acbc89aa9212e7ea3b0123922544f7029" target="_top" xlink:title=" ">
<polygon fill="white" stroke="#666666" points="280.62,-374.88 165.62,-374.88 165.62,-344.38 280.62,-344.38 280.62,-374.88"/>
<text xml:space="preserve" text-anchor="start" x="173.62" y="-361.38" font-family="Helvetica,sans-Serif" font-size="10.00">StrategyControllerStep</text>
<text xml:space="preserve" text-anchor="middle" x="223.12" y="-350.12" font-family="Helvetica,sans-Serif" font-size="10.00">::detectBlock</text>
</a>
</g>
</g>
<!-- Node1&#45;&gt;Node4 -->
<g id="edge3_Node000001_Node000004" class="edge">
<title>Node1&#45;&gt;Node4</title>
<g id="a_edge3_Node000001_Node000004"><a xlink:title=" ">
<path fill="none" stroke="#63b8ff" d="M65.25,-218.19C78.02,-245.81 108.27,-303.53 151,-335.62 152.5,-336.76 154.07,-337.83 155.67,-338.86"/>
<polygon fill="#63b8ff" stroke="#63b8ff" points="153.53,-341.68 163.97,-343.5 156.95,-335.57 153.53,-341.68"/>
</a>
</g>
</g>
<!-- Node5 -->
<g id="Node000005" class="node">
<title>Node5</title>
<g id="a_Node000005"><a xlink:href="class_strategy.html#a7d2dd7244d23d87e8a92f71d4604f09c" target="_top" xlink:title=" ">
<polygon fill="white" stroke="#666666" points="279.5,-326.25 166.75,-326.25 166.75,-307 279.5,-307 279.5,-326.25"/>
<text xml:space="preserve" text-anchor="middle" x="223.12" y="-312.75" font-family="Helvetica,sans-Serif" font-size="10.00">Strategy::getNextItem</text>
</a>
</g>
</g>
<!-- Node1&#45;&gt;Node5 -->
<g id="edge4_Node000001_Node000005" class="edge">
<title>Node1&#45;&gt;Node5</title>
<g id="a_edge4_Node000001_Node000005"><a xlink:title=" ">
<path fill="none" stroke="#63b8ff" d="M69.45,-218.3C85.08,-239.5 115.84,-277.03 151,-297.62 153.99,-299.38 157.15,-300.97 160.4,-302.42"/>
<polygon fill="#63b8ff" stroke="#63b8ff" points="159.03,-305.64 169.62,-306.03 161.58,-299.13 159.03,-305.64"/>
</a>
</g>
</g>
<!-- Node6 -->
<g id="Node000006" class="node">
<title>Node6</title>
<g id="a_Node000006"><a xlink:href="class_strategy_controller_step.html#aaa8fbbb9d6aa599a122f28887c4ab40e" target="_top" xlink:title=" ">
<polygon fill="white" stroke="#666666" points="280.62,-288.88 165.62,-288.88 165.62,-258.38 280.62,-258.38 280.62,-288.88"/>
<text xml:space="preserve" text-anchor="start" x="173.62" y="-275.38" font-family="Helvetica,sans-Serif" font-size="10.00">StrategyControllerStep</text>
<text xml:space="preserve" text-anchor="middle" x="223.12" y="-264.12" font-family="Helvetica,sans-Serif" font-size="10.00">::indexBlock</text>
</a>
</g>
</g>
<!-- Node1&#45;&gt;Node6 -->
<g id="edge5_Node000001_Node000006" class="edge">
<title>Node1&#45;&gt;Node6</title>
<g id="a_edge5_Node000001_Node000006"><a xlink:title=" ">
<path fill="none" stroke="#63b8ff" d="M87.64,-218.28C105.64,-227.65 129.36,-239.48 151,-248.62 155.27,-250.43 159.73,-252.21 164.23,-253.95"/>
<polygon fill="#63b8ff" stroke="#63b8ff" points="162.74,-257.13 173.34,-257.36 165.2,-250.58 162.74,-257.13"/>
</a>
</g>
</g>
<!-- Node7 -->
<g id="Node000007" class="node">
<title>Node7</title>
<g id="a_Node000007"><a xlink:href="class_strategy_controller_step.html#a9f755ff051baa54d73831f29aec1fb31" target="_top" xlink:title=" ">
<polygon fill="white" stroke="#666666" points="280.62,-239.88 165.62,-239.88 165.62,-209.38 280.62,-209.38 280.62,-239.88"/>
<text xml:space="preserve" text-anchor="start" x="173.62" y="-226.38" font-family="Helvetica,sans-Serif" font-size="10.00">StrategyControllerStep</text>
<text xml:space="preserve" text-anchor="middle" x="223.12" y="-215.12" font-family="Helvetica,sans-Serif" font-size="10.00">::mineBlock</text>
</a>
</g>
</g>
<!-- Node1&#45;&gt;Node7 -->
<g id="edge6_Node000001_Node000007" class="edge">
<title>Node1&#45;&gt;Node7</title>
<g id="a_edge6_Node000001_Node000007"><a xlink:title=" ">
<path fill="none" stroke="#63b8ff" d="M115.27,-210.26C127.76,-211.94 141.12,-213.73 154.01,-215.47"/>
<polygon fill="#63b8ff" stroke="#63b8ff" points="153.3,-218.9 163.68,-216.77 154.24,-211.97 153.3,-218.9"/>
</a>
</g>
</g>
<!-- Node8 -->
<g id="Node000008" class="node">
<title>Node8</title>
<g id="a_Node000008"><a xlink:href="class_strategy.html#a092d38e843967a4aadeb79f42550acd9" target="_top" xlink:title=" ">
<polygon fill="white" stroke="#666666" points="282.5,-191.25 163.75,-191.25 163.75,-172 282.5,-172 282.5,-191.25"/>
<text xml:space="preserve" text-anchor="middle" x="223.12" y="-177.75" font-family="Helvetica,sans-Serif" font-size="10.00">Strategy::readyToScore</text>
</a>
</g>
</g>
<!-- Node1&#45;&gt;Node8 -->
<g id="edge7_Node000001_Node000008" class="edge">
<title>Node1&#45;&gt;Node8</title>
<g id="a_edge7_Node000001_Node000008"><a xlink:title=" ">
<path fill="none" stroke="#63b8ff" d="M115.27,-195.34C127.21,-193.81 139.94,-192.17 152.3,-190.59"/>
<polygon fill="#63b8ff" stroke="#63b8ff" points="152.54,-194.08 162.01,-189.34 151.65,-187.14 152.54,-194.08"/>
</a>
</g>
</g>
<!-- Node10 -->
<g id="Node000010" class="node">
<title>Node10</title>
<g id="a_Node000010"><a xlink:href="class_strategy_controller_step.html#ab4ecfbd0508c02276cc5cd957f05e004" target="_top" xlink:title=" ">
<polygon fill="white" stroke="#666666" points="280.62,-153.88 165.62,-153.88 165.62,-123.38 280.62,-123.38 280.62,-153.88"/>
<text xml:space="preserve" text-anchor="start" x="173.62" y="-140.38" font-family="Helvetica,sans-Serif" font-size="10.00">StrategyControllerStep</text>
<text xml:space="preserve" text-anchor="middle" x="223.12" y="-129.12" font-family="Helvetica,sans-Serif" font-size="10.00">::rejectBlock</text>
</a>
</g>
</g>
<!-- Node1&#45;&gt;Node10 -->
<g id="edge9_Node000001_Node000010" class="edge">
<title>Node1&#45;&gt;Node10</title>
<g id="a_edge9_Node000001_Node000010"><a xlink:title=" ">
<path fill="none" stroke="#63b8ff" d="M92.92,-186.93C110.21,-179.26 131.56,-170.09 151,-162.62 154.88,-161.14 158.89,-159.64 162.95,-158.18"/>
<polygon fill="#63b8ff" stroke="#63b8ff" points="164.04,-161.5 172.3,-154.86 161.7,-154.9 164.04,-161.5"/>
</a>
</g>
</g>
<!-- Node11 -->
<g id="Node000011" class="node">
<title>Node11</title>
<g id="a_Node000011"><a xlink:href="class_strategy_controller_step.html#a299fb3a5f394917b1e00b6b6ccd84f69" target="_top" xlink:title=" ">
<polygon fill="white" stroke="#666666" points="280.62,-104.88 165.62,-104.88 165.62,-74.38 280.62,-74.38 280.62,-104.88"/>
<text xml:space="preserve" text-anchor="start" x="173.62" y="-91.38" font-family="Helvetica,sans-Serif" font-size="10.00">StrategyControllerStep</text>
<text xml:space="preserve" text-anchor="middle" x="223.12" y="-80.12" font-family="Helvetica,sans-Serif" font-size="10.00">::runCraftSequence</text>
</a>
</g>
</g>
<!-- Node1&#45;&gt;Node11 -->
<g id="edge10_Node000001_Node000011" class="edge">
<title>Node1&#45;&gt;Node11</title>
<g id="a_edge10_Node000001_Node000011"><a xlink:title=" ">
<path fill="none" stroke="#63b8ff" d="M71.05,-187.18C87.55,-167.79 118.29,-134.64 151,-114.62 153.58,-113.05 156.27,-111.55 159.04,-110.13"/>
<polygon fill="#63b8ff" stroke="#63b8ff" points="160.35,-113.38 167.93,-105.98 157.38,-107.04 160.35,-113.38"/>
</a>
</g>
</g>
<!-- Node12 -->
<g id="Node000012" class="node">
<title>Node12</title>
<g id="a_Node000012"><a xlink:href="class_strategy.html#ad5e402d5ea2e01f82f79d1f6fb44898d" target="_top" xlink:title=" ">
<polygon fill="white" stroke="#666666" points="284.75,-56.25 161.5,-56.25 161.5,-37 284.75,-37 284.75,-56.25"/>
<text xml:space="preserve" text-anchor="middle" x="223.12" y="-42.75" font-family="Helvetica,sans-Serif" font-size="10.00">Strategy::setPossession</text>
</a>
</g>
</g>
<!-- Node1&#45;&gt;Node12 -->
<g id="edge11_Node000001_Node000012" class="edge">
<title>Node1&#45;&gt;Node12</title>
<g id="a_edge11_Node000001_Node000012"><a xlink:title=" ">
<path fill="none" stroke="#63b8ff" d="M64.54,-187.21C76.53,-158.67 106.12,-97.59 151,-65.62 153.07,-64.15 155.25,-62.79 157.51,-61.53"/>
<polygon fill="#63b8ff" stroke="#63b8ff" points="158.9,-64.75 166.46,-57.32 155.92,-58.41 158.9,-64.75"/>
</a>
</g>
</g>
<!-- Node13 -->
<g id="Node000013" class="node">
<title>Node13</title>
<g id="a_Node000013"><a xlink:href="class_strategy.html#ad42bcf18bf9f720b21d53201e03c9ba0" target="_top" xlink:title=" ">
<polygon fill="white" stroke="#666666" points="295.25,-19.25 151,-19.25 151,0 295.25,0 295.25,-19.25"/>
<text xml:space="preserve" text-anchor="middle" x="223.12" y="-5.75" font-family="Helvetica,sans-Serif" font-size="10.00">Strategy::whereToIndexBlock</text>
</a>
</g>
</g>
<!-- Node1&#45;&gt;Node13 -->
<g id="edge12_Node000001_Node000013" class="edge">
<title>Node1&#45;&gt;Node13</title>
<g id="a_edge12_Node000001_Node000013"><a xlink:title=" ">
<path fill="none" stroke="#63b8ff" d="M62.15,-187.01C71.03,-152.61 97.1,-69.99 151,-27.62 152.13,-26.74 153.29,-25.9 154.49,-25.1"/>
<polygon fill="#63b8ff" stroke="#63b8ff" points="155.84,-28.35 162.9,-20.45 152.45,-22.22 155.84,-28.35"/>
</a>
</g>
</g>
<!-- Node3 -->
<g id="Node000003" class="node">
<title>Node3</title>
<g id="a_Node000003"><a xlink:href="class_strategy.html#a5fcf479ff2f81b1a527e2f018f37429e" target="_top" xlink:title=" ">
<polygon fill="white" stroke="#666666" points="473.25,-412.25 331.25,-412.25 331.25,-393 473.25,-393 473.25,-412.25"/>
<text xml:space="preserve" text-anchor="middle" x="402.25" y="-398.75" font-family="Helvetica,sans-Serif" font-size="10.00">Strategy::clearAllPossession</text>
</a>
</g>
</g>
<!-- Node2&#45;&gt;Node3 -->
<g id="edge2_Node000002_Node000003" class="edge">
<title>Node2&#45;&gt;Node3</title>
<g id="a_edge2_Node000002_Node000003"><a xlink:title=" ">
<path fill="none" stroke="#63b8ff" d="M284.09,-402.62C295.5,-402.62 307.62,-402.62 319.57,-402.62"/>
<polygon fill="#63b8ff" stroke="#63b8ff" points="319.43,-406.13 329.43,-402.63 319.43,-399.13 319.43,-406.13"/>
</a>
</g>
</g>
<!-- Node9 -->
<g id="Node000009" class="node">
<title>Node9</title>
<g id="a_Node000009"><a xlink:href="class_strategy.html#a1943002dce146e4c4ab5aeebae9f9235" target="_top" xlink:title=" ">
<polygon fill="white" stroke="#666666" points="467.25,-110.88 337.25,-110.88 337.25,-80.38 467.25,-80.38 467.25,-110.88"/>
<text xml:space="preserve" text-anchor="start" x="345.25" y="-97.38" font-family="Helvetica,sans-Serif" font-size="10.00">Strategy::getMaxMineable</text>
<text xml:space="preserve" text-anchor="middle" x="402.25" y="-86.12" font-family="Helvetica,sans-Serif" font-size="10.00">Block</text>
</a>
</g>
</g>
<!-- Node8&#45;&gt;Node9 -->
<g id="edge8_Node000008_Node000009" class="edge">
<title>Node8&#45;&gt;Node9</title>
<g id="a_edge8_Node000008_Node000009"><a xlink:title=" ">
<path fill="none" stroke="#63b8ff" d="M269.98,-171.57C278.54,-169.08 287.29,-166.11 295.25,-162.62 322.63,-150.65 351.12,-132.25 371.66,-117.77"/>
<polygon fill="#63b8ff" stroke="#63b8ff" points="373.47,-120.77 379.56,-112.1 369.39,-115.09 373.47,-120.77"/>
</a>
</g>
</g>
<!-- Node13&#45;&gt;Node9 -->
<g id="edge13_Node000013_Node000009" class="edge">
<title>Node13&#45;&gt;Node9</title>
<g id="a_edge13_Node000013_Node000009"><a xlink:title=" ">
<path fill="none" stroke="#63b8ff" d="M272.65,-19.67C280.35,-21.89 288.12,-24.53 295.25,-27.62 322.96,-39.64 351.62,-58.48 372.15,-73.29"/>
<polygon fill="#63b8ff" stroke="#63b8ff" points="369.9,-75.98 380.03,-79.08 374.05,-70.34 369.9,-75.98"/>
</a>
</g>
</g>
</g>
</svg>
