<?xml version="1.0" encoding="UTF-8" standalone="no"?>
<!DOCTYPE svg PUBLIC "-//W3C//DTD SVG 1.1//EN"
 "http://www.w3.org/Graphics/SVG/1.1/DTD/svg11.dtd">
<!-- Generated by graphviz version 14.1.2 (20260124.0452)
 -->
<!-- Title: Miner Pages: 1 -->
<svg width="164pt" height="100pt"
 viewBox="0.00 0.00 164.00 100.00" xmlns="http://www.w3.org/2000/svg" xmlns:xlink="http://www.w3.org/1999/xlink">
<g id="graph0" class="graph" transform="scale(1 1) rotate(0) translate(4 95.75)">
<title>Miner</title>
<!-- Node1 -->
<g id="Node000001" class="node">
<title>Node1</title>
<g id="a_Node000001"><a xlink:title=" ">
<polygon fill="#999999" stroke="#666666" points="95.75,-19.25 55.75,-19.25 55.75,0 95.75,0 95.75,-19.25"/>
<text xml:space="preserve" text-anchor="middle" x="75.75" y="-5.75" font-family="Helvetica,sans-Serif" font-size="10.00">Miner</text>
</a>
</g>
</g>
<!-- Node2 -->
<g id="Node000002" class="node">
<title>Node2</title>
<g id="a_Node000002"><a xlink:href="class_subsystem.html" target="_top" xlink:title=" ">
<polygon fill="white" stroke="#666666" points="65.5,-91.75 0,-91.75 0,-72.5 65.5,-72.5 65.5,-91.75"/>
<text xml:space="preserve" text-anchor="middle" x="32.75" y="-78.25" font-family="Helvetica,sans-Serif" font-size="10.00">Subsystem</text>
</a>
</g>
</g>
<!-- Node2&#45;&gt;Node1 -->
<g id="edge1_Node000001_Node000002" class="edge">
<title>Node2&#45;&gt;Node1</title>
<g id="a_edge1_Node000001_Node000002"><a xlink:title=" ">
<path fill="none" stroke="#63b8ff" d="M43.99,-62.7C52.42,-48.87 63.61,-30.52 70.21,-19.7"/>
<polygon fill="#63b8ff" stroke="#63b8ff" points="41.2,-60.54 38.98,-70.9 47.18,-64.19 41.2,-60.54"/>
</a>
</g>
</g>
<!-- Node3 -->
<g id="Node000003" class="node">
<title>Node3</title>
<g id="a_Node000003"><a xlink:href="class_servo_control.html" target="_top" xlink:title=" ">
<polygon fill="white" stroke="#666666" points="156.25,-91.75 83.25,-91.75 83.25,-72.5 156.25,-72.5 156.25,-91.75"/>
<text xml:space="preserve" text-anchor="middle" x="119.75" y="-78.25" font-family="Helvetica,sans-Serif" font-size="10.00">ServoControl</text>
</a>
</g>
</g>
<!-- Node3&#45;&gt;Node1 -->
<g id="edge2_Node000001_Node000003" class="edge">
<title>Node3&#45;&gt;Node1</title>
<g id="a_edge2_Node000001_Node000003"><a xlink:title=" ">
<path fill="none" stroke="#9a32cd" stroke-dasharray="5,2" d="M108.25,-62.7C99.62,-48.87 88.17,-30.52 81.42,-19.7"/>
<polygon fill="#9a32cd" stroke="#9a32cd" points="105.11,-64.28 113.38,-70.91 111.05,-60.58 105.11,-64.28"/>
</a>
</g>
<text xml:space="preserve" text-anchor="start" x="105.98" y="-42" font-family="Helvetica,sans-Serif" font-size="10.00" fill="grey">servo</text>
</g>
</g>
</svg>
