<?xml version="1.0" encoding="UTF-8" standalone="no"?>
<!DOCTYPE svg PUBLIC "-//W3C//DTD SVG 1.1//EN"
 "http://www.w3.org/Graphics/SVG/1.1/DTD/svg11.dtd">
<!-- Generated by graphviz version 14.1.2 (20260124.0452)
 -->
<!-- Title: Miner Pages: 1 -->
<svg width="169pt" height="115pt"
 viewBox="0.00 0.00 169.00 115.00" xmlns="http://www.w3.org/2000/svg" xmlns:xlink="http://www.w3.org/1999/xlink">
<g id="graph0" class="graph" transform="scale(1 1) rotate(0) translate(4 111)">
<title>Miner</title>
<!-- Node1 -->
<g id="Node000001" class="node">
<title>Node1</title>
<g id="a_Node000001"><a xlink:title="Servo&#45;driven block&#45;mining and ramp&#45;deployment subsystem.">
<polygon fill="#999999" stroke="#666666" points="95.75,-19.25 55.75,-19.25 55.75,0 95.75,0 95.75,-19.25"/>
<text xml:space="preserve" text-anchor="middle" x="75.75" y="-5.75" font-family="Helvetica,sans-Serif" font-size="10.00">Miner</text>
</a>
</g>
</g>
<!-- Node2 -->
<g id="Node000002" class="node">
<title>Node2</title>
<g id="a_Node000002"><a xlink:href="class_subsystem.html" target="_top" xlink:title="Polymorphic interface for a robot subsystem.">
<polygon fill="white" stroke="#666666" points="65.5,-107 0,-107 0,-87.75 65.5,-87.75 65.5,-107"/>
<text xml:space="preserve" text-anchor="middle" x="32.75" y="-93.5" font-family="Helvetica,sans-Serif" font-size="10.00">Subsystem</text>
</a>
</g>
</g>
<!-- Node2&#45;&gt;Node1 -->
<g id="edge1_Node000001_Node000002" class="edge">
<title>Node2&#45;&gt;Node1</title>
<g id="a_edge1_Node000001_Node000002"><a xlink:title=" ">
<path fill="none" stroke="#63b8ff" d="M42.3,-77.33C51.32,-59.34 64.45,-33.15 71.27,-19.56"/>
<polygon fill="#63b8ff" stroke="#63b8ff" points="39.22,-75.66 37.87,-86.17 45.48,-78.8 39.22,-75.66"/>
</a>
</g>
</g>
<!-- Node3 -->
<g id="Node000003" class="node">
<title>Node3</title>
<g id="a_Node000003"><a xlink:href="class_servo_control.html" target="_top" xlink:title="Servo driver with angle clamping, inversion, and deferred writes.">
<polygon fill="white" stroke="#666666" points="156.25,-107 83.25,-107 83.25,-87.75 156.25,-87.75 156.25,-107"/>
<text xml:space="preserve" text-anchor="middle" x="119.75" y="-93.5" font-family="Helvetica,sans-Serif" font-size="10.00">ServoControl</text>
</a>
</g>
</g>
<!-- Node3&#45;&gt;Node1 -->
<g id="edge2_Node000001_Node000003" class="edge">
<title>Node3&#45;&gt;Node1</title>
<g id="a_edge2_Node000001_Node000003"><a xlink:title=" ">
<path fill="none" stroke="#9a32cd" stroke-dasharray="5,2" d="M109.98,-77.33C100.75,-59.34 87.31,-33.15 80.33,-19.56"/>
<polygon fill="#9a32cd" stroke="#9a32cd" points="106.84,-78.88 114.52,-86.17 113.06,-75.68 106.84,-78.88"/>
</a>
</g>
<text xml:space="preserve" text-anchor="start" x="108.52" y="-57.25" font-family="Helvetica,sans-Serif" font-size="10.00" fill="grey">minerServo</text>
<text xml:space="preserve" text-anchor="start" x="108.52" y="-42" font-family="Helvetica,sans-Serif" font-size="10.00" fill="grey">rampServo</text>
</g>
</g>
</svg>
