<?xml version="1.0" encoding="UTF-8" standalone="no"?>
<!DOCTYPE svg PUBLIC "-//W3C//DTD SVG 1.1//EN"
 "http://www.w3.org/Graphics/SVG/1.1/DTD/svg11.dtd">
<!-- Generated by graphviz version 14.1.2 (20260124.0452)
 -->
<!-- Title: Robot::handleGlobalCommand Pages: 1 -->
<svg width="411pt" height="46pt"
 viewBox="0.00 0.00 411.00 46.00" xmlns="http://www.w3.org/2000/svg" xmlns:xlink="http://www.w3.org/1999/xlink">
<g id="graph0" class="graph" transform="scale(1 1) rotate(0) translate(4 42.25)">
<title>Robot::handleGlobalCommand</title>
<!-- Node1 -->
<g id="Node000001" class="node">
<title>Node1</title>
<g id="a_Node000001"><a xlink:title="Handle commands that are valid in any operating mode.">
<polygon fill="#999999" stroke="#666666" points="149.5,-19.25 0,-19.25 0,0 149.5,0 149.5,-19.25"/>
<text xml:space="preserve" text-anchor="middle" x="74.75" y="-5.75" font-family="Helvetica,sans-Serif" font-size="10.00">Robot::handleGlobalCommand</text>
</a>
</g>
</g>
<!-- Node2 -->
<g id="Node000002" class="node">
<title>Node2</title>
<g id="a_Node000002"><a xlink:href="class_robot.html#a9e72bb50888e8247a9a55add640542ac" target="_top" xlink:title="Print the serial command reference to port (defaults to USB Serial).">
<polygon fill="white" stroke="#666666" points="297.5,-38.25 185.5,-38.25 185.5,-19 297.5,-19 297.5,-38.25"/>
<text xml:space="preserve" text-anchor="middle" x="241.5" y="-24.75" font-family="Helvetica,sans-Serif" font-size="10.00">Robot::printSerialHelp</text>
</a>
</g>
</g>
<!-- Node1&#45;&gt;Node2 -->
<g id="edge1_Node000001_Node000002" class="edge">
<title>Node1&#45;&gt;Node2</title>
<g id="a_edge1_Node000001_Node000002"><a xlink:title=" ">
<path fill="none" stroke="#63b8ff" d="M149.93,-18.18C158.06,-19.12 166.29,-20.07 174.31,-20.99"/>
<polygon fill="#63b8ff" stroke="#63b8ff" points="173.64,-24.44 183.98,-22.11 174.44,-17.48 173.64,-24.44"/>
</a>
</g>
</g>
<!-- Node3 -->
<g id="Node000003" class="node">
<title>Node3</title>
<g id="a_Node000003"><a xlink:href="class_robot.html#a3defa2b851d1a9267d6dbe251373ba7d" target="_top" xlink:title="Send a message to a serial port (defaults to USB Serial if port is null).">
<polygon fill="white" stroke="#666666" points="402.75,-19.25 333.5,-19.25 333.5,0 402.75,0 402.75,-19.25"/>
<text xml:space="preserve" text-anchor="middle" x="368.12" y="-5.75" font-family="Helvetica,sans-Serif" font-size="10.00">Robot::reply</text>
</a>
</g>
</g>
<!-- Node1&#45;&gt;Node3 -->
<g id="edge3_Node000001_Node000003" class="edge">
<title>Node1&#45;&gt;Node3</title>
<g id="a_edge3_Node000001_Node000003"><a xlink:title=" ">
<path fill="none" stroke="#63b8ff" d="M149.65,-9.62C203.94,-9.62 275.95,-9.62 321.92,-9.62"/>
<polygon fill="#63b8ff" stroke="#63b8ff" points="321.8,-13.13 331.8,-9.63 321.8,-6.13 321.8,-13.13"/>
</a>
</g>
</g>
<!-- Node2&#45;&gt;Node3 -->
<g id="edge2_Node000002_Node000003" class="edge">
<title>Node2&#45;&gt;Node3</title>
<g id="a_edge2_Node000002_Node000003"><a xlink:title=" ">
<path fill="none" stroke="#63b8ff" d="M297.89,-20.18C305.83,-18.97 313.93,-17.74 321.65,-16.56"/>
<polygon fill="#63b8ff" stroke="#63b8ff" points="322.16,-20.02 331.52,-15.05 321.1,-13.1 322.16,-20.02"/>
</a>
</g>
</g>
</g>
</svg>
