<?xml version="1.0" encoding="UTF-8" standalone="no"?>
<!DOCTYPE svg PUBLIC "-//W3C//DTD SVG 1.1//EN"
 "http://www.w3.org/Graphics/SVG/1.1/DTD/svg11.dtd">
<!-- Generated by graphviz version 14.1.2 (20260124.0452)
 -->
<!-- Title: StrategyControllerStep Pages: 1 -->
<svg width="935pt" height="601pt"
 viewBox="0.00 0.00 935.00 601.00" xmlns="http://www.w3.org/2000/svg" xmlns:xlink="http://www.w3.org/1999/xlink">
<g id="graph0" class="graph" transform="scale(1 1) rotate(0) translate(4 597.25)">
<title>StrategyControllerStep</title>
<!-- Node1 -->
<g id="Node000001" class="node">
<title>Node1</title>
<g id="a_Node000001"><a xlink:title=" ">
<polygon fill="#999999" stroke="#666666" points="926.5,-551.25 811.5,-551.25 811.5,-532 926.5,-532 926.5,-551.25"/>
<text xml:space="preserve" text-anchor="middle" x="869" y="-537.75" font-family="Helvetica,sans-Serif" font-size="10.00">StrategyControllerStep</text>
</a>
</g>
</g>
<!-- Node2 -->
<g id="Node000002" class="node">
<title>Node2</title>
<g id="a_Node000002"><a xlink:href="class_auto_step.html" target="_top" xlink:title=" ">
<polygon fill="white" stroke="#666666" points="355.75,-593.25 299.25,-593.25 299.25,-574 355.75,-574 355.75,-593.25"/>
<text xml:space="preserve" text-anchor="middle" x="327.5" y="-579.75" font-family="Helvetica,sans-Serif" font-size="10.00">AutoStep</text>
</a>
</g>
</g>
<!-- Node2&#45;&gt;Node1 -->
<g id="edge1_Node000001_Node000002" class="edge">
<title>Node2&#45;&gt;Node1</title>
<g id="a_edge1_Node000001_Node000002"><a xlink:title=" ">
<path fill="none" stroke="#63b8ff" d="M367.49,-585.63C377.13,-586.04 387.44,-586.42 397,-586.62 434.99,-587.46 444.51,-587.39 482.5,-586.62 571.33,-584.85 594.02,-589.11 682.25,-578.62 732.53,-572.65 789.54,-560.47 826.98,-551.72"/>
<polygon fill="#63b8ff" stroke="#63b8ff" points="367.82,-582.14 357.67,-585.18 367.5,-589.13 367.82,-582.14"/>
</a>
</g>
</g>
<!-- Node21 -->
<g id="Node000021" class="node">
<title>Node21</title>
<g id="a_Node000021"><a xlink:href="class_autonomous_routine.html" target="_top" xlink:title=" ">
<polygon fill="white" stroke="#666666" points="605,-572.25 500.5,-572.25 500.5,-553 605,-553 605,-572.25"/>
<text xml:space="preserve" text-anchor="middle" x="552.75" y="-558.75" font-family="Helvetica,sans-Serif" font-size="10.00">AutonomousRoutine</text>
</a>
</g>
</g>
<!-- Node2&#45;&gt;Node21 -->
<g id="edge26_Node000021_Node000002" class="edge">
<title>Node2&#45;&gt;Node21</title>
<g id="a_edge26_Node000021_Node000002"><a xlink:title=" ">
<path fill="none" stroke="#9a32cd" stroke-dasharray="5,2" d="M367,-574.48C376.74,-572.48 387.21,-570.6 397,-569.38 431.29,-565.09 470.15,-563.41 500.34,-562.79"/>
<polygon fill="#9a32cd" stroke="#9a32cd" points="366.51,-571 357.47,-576.53 367.99,-577.85 366.51,-571"/>
</a>
</g>
<text xml:space="preserve" text-anchor="start" x="425.12" y="-574.12" font-family="Helvetica,sans-Serif" font-size="10.00" fill="grey">_steps</text>
</g>
<!-- Node3 -->
<g id="Node000003" class="node">
<title>Node3</title>
<g id="a_Node000003"><a xlink:href="class_robot.html" target="_top" xlink:title=" ">
<polygon fill="white" stroke="#666666" points="742.5,-492.25 700.25,-492.25 700.25,-473 742.5,-473 742.5,-492.25"/>
<text xml:space="preserve" text-anchor="middle" x="721.38" y="-478.75" font-family="Helvetica,sans-Serif" font-size="10.00">Robot</text>
</a>
</g>
</g>
<!-- Node3&#45;&gt;Node1 -->
<g id="edge2_Node000001_Node000003" class="edge">
<title>Node3&#45;&gt;Node1</title>
<g id="a_edge2_Node000001_Node000003"><a xlink:title=" ">
<path fill="none" stroke="#9a32cd" stroke-dasharray="5,2" d="M753.28,-495.15C780.07,-506 818.33,-521.5 843.16,-531.56"/>
<polygon fill="#9a32cd" stroke="#9a32cd" points="754.92,-492.03 744.33,-491.52 752.29,-498.52 754.92,-492.03"/>
</a>
</g>
<text xml:space="preserve" text-anchor="start" x="763.5" y="-515.11" font-family="Helvetica,sans-Serif" font-size="10.00" fill="grey">_robot</text>
</g>
<!-- Node4 -->
<g id="Node000004" class="node">
<title>Node4</title>
<g id="a_Node000004"><a xlink:href="class_drive.html" target="_top" xlink:title=" ">
<polygon fill="white" stroke="#666666" points="572.38,-167.25 533.12,-167.25 533.12,-148 572.38,-148 572.38,-167.25"/>
<text xml:space="preserve" text-anchor="middle" x="552.75" y="-153.75" font-family="Helvetica,sans-Serif" font-size="10.00">Drive</text>
</a>
</g>
</g>
<!-- Node4&#45;&gt;Node3 -->
<g id="edge3_Node000003_Node000004" class="edge">
<title>Node4&#45;&gt;Node3</title>
<g id="a_edge3_Node000003_Node000004"><a xlink:title=" ">
<path fill="none" stroke="#9a32cd" stroke-dasharray="5,2" d="M567.67,-177.05C593.14,-213.25 647.75,-294.09 682.25,-368.38 699.43,-405.36 712.56,-452.29 717.84,-472.55"/>
<polygon fill="#9a32cd" stroke="#9a32cd" points="570.55,-175.06 561.91,-168.92 564.84,-179.1 570.55,-175.06"/>
</a>
</g>
<text xml:space="preserve" text-anchor="start" x="642.12" y="-373.12" font-family="Helvetica,sans-Serif" font-size="10.00" fill="grey">drive</text>
</g>
<!-- Node5 -->
<g id="Node000005" class="node">
<title>Node5</title>
<g id="a_Node000005"><a xlink:href="class_subsystem.html" target="_top" xlink:title=" ">
<polygon fill="white" stroke="#666666" points="360.25,-453.25 294.75,-453.25 294.75,-434 360.25,-434 360.25,-453.25"/>
<text xml:space="preserve" text-anchor="middle" x="327.5" y="-439.75" font-family="Helvetica,sans-Serif" font-size="10.00">Subsystem</text>
</a>
</g>
</g>
<!-- Node5&#45;&gt;Node3 -->
<g id="edge27_Node000003_Node000005" class="edge">
<title>Node5&#45;&gt;Node3</title>
<g id="a_edge27_Node000003_Node000005"><a xlink:title=" ">
<path fill="none" stroke="#9a32cd" stroke-dasharray="5,2" d="M371.97,-442C426.66,-440.64 523.3,-440.53 605,-452.38 638.81,-457.28 676.97,-468.43 699.82,-475.73"/>
<polygon fill="#9a32cd" stroke="#9a32cd" points="372.05,-438.5 362.15,-442.27 372.24,-445.49 372.05,-438.5"/>
</a>
</g>
<text xml:space="preserve" text-anchor="start" x="526.12" y="-457.12" font-family="Helvetica,sans-Serif" font-size="10.00" fill="grey">subsystems</text>
</g>
<!-- Node5&#45;&gt;Node4 -->
<g id="edge4_Node000004_Node000005" class="edge">
<title>Node5&#45;&gt;Node4</title>
<g id="a_edge4_Node000004_Node000005"><a xlink:title=" ">
<path fill="none" stroke="#63b8ff" d="M353.11,-427.1C361.7,-420.83 371.15,-413.33 379,-405.62 388.27,-396.53 386.96,-390.85 397,-382.62 429.9,-355.67 454,-371.2 482.5,-339.62 530.29,-286.67 546.35,-197.37 550.51,-167.61"/>
<polygon fill="#63b8ff" stroke="#63b8ff" points="351.29,-424.1 345.14,-432.73 355.33,-429.82 351.29,-424.1"/>
</a>
</g>
</g>
<!-- Node16 -->
<g id="Node000016" class="node">
<title>Node16</title>
<g id="a_Node000016"><a xlink:href="class_miner.html" target="_top" xlink:title=" ">
<polygon fill="white" stroke="#666666" points="572.75,-535.25 532.75,-535.25 532.75,-516 572.75,-516 572.75,-535.25"/>
<text xml:space="preserve" text-anchor="middle" x="552.75" y="-521.75" font-family="Helvetica,sans-Serif" font-size="10.00">Miner</text>
</a>
</g>
</g>
<!-- Node5&#45;&gt;Node16 -->
<g id="edge16_Node000016_Node000005" class="edge">
<title>Node5&#45;&gt;Node16</title>
<g id="a_edge16_Node000016_Node000005"><a xlink:title=" ">
<path fill="none" stroke="#63b8ff" d="M354.98,-459.09C367.45,-465.97 382.71,-473.81 397,-479.62 444.25,-498.85 502.53,-513.99 532.28,-521.14"/>
<polygon fill="#63b8ff" stroke="#63b8ff" points="356.98,-456.2 346.55,-454.34 353.55,-462.3 356.98,-456.2"/>
</a>
</g>
</g>
<!-- Node18 -->
<g id="Node000018" class="node">
<title>Node18</title>
<g id="a_Node000018"><a xlink:href="class_shooter.html" target="_top" xlink:title=" ">
<polygon fill="white" stroke="#666666" points="577.62,-396.25 527.88,-396.25 527.88,-377 577.62,-377 577.62,-396.25"/>
<text xml:space="preserve" text-anchor="middle" x="552.75" y="-382.75" font-family="Helvetica,sans-Serif" font-size="10.00">Shooter</text>
</a>
</g>
</g>
<!-- Node5&#45;&gt;Node18 -->
<g id="edge19_Node000018_Node000005" class="edge">
<title>Node5&#45;&gt;Node18</title>
<g id="a_edge19_Node000018_Node000005"><a xlink:title=" ">
<path fill="none" stroke="#63b8ff" d="M371.49,-432.82C402.38,-425.03 445.03,-414.24 482.5,-404.62 497.42,-400.8 514.13,-396.45 527.4,-392.99"/>
<polygon fill="#63b8ff" stroke="#63b8ff" points="370.97,-429.34 362.13,-435.17 372.68,-436.12 370.97,-429.34"/>
</a>
</g>
</g>
<!-- Node20 -->
<g id="Node000020" class="node">
<title>Node20</title>
<g id="a_Node000020"><a xlink:href="class_serial_coms.html" target="_top" xlink:title=" ">
<polygon fill="white" stroke="#666666" points="586.25,-498.25 519.25,-498.25 519.25,-479 586.25,-479 586.25,-498.25"/>
<text xml:space="preserve" text-anchor="middle" x="552.75" y="-484.75" font-family="Helvetica,sans-Serif" font-size="10.00">SerialComs</text>
</a>
</g>
</g>
<!-- Node5&#45;&gt;Node20 -->
<g id="edge24_Node000020_Node000005" class="edge">
<title>Node5&#45;&gt;Node20</title>
<g id="a_edge24_Node000020_Node000005"><a xlink:title=" ">
<path fill="none" stroke="#63b8ff" d="M371.75,-452.34C414.87,-461.04 480.14,-474.19 519.1,-482.04"/>
<polygon fill="#63b8ff" stroke="#63b8ff" points="372.46,-448.92 361.97,-450.37 371.08,-455.78 372.46,-448.92"/>
</a>
</g>
</g>
<!-- Node6 -->
<g id="Node000006" class="node">
<title>Node6</title>
<g id="a_Node000006"><a xlink:href="class_encoder_wrapper.html" target="_top" xlink:title=" ">
<polygon fill="white" stroke="#666666" points="371.5,-303.25 283.5,-303.25 283.5,-284 371.5,-284 371.5,-303.25"/>
<text xml:space="preserve" text-anchor="middle" x="327.5" y="-289.75" font-family="Helvetica,sans-Serif" font-size="10.00">EncoderWrapper</text>
</a>
</g>
</g>
<!-- Node6&#45;&gt;Node4 -->
<g id="edge5_Node000004_Node000006" class="edge">
<title>Node6&#45;&gt;Node4</title>
<g id="a_edge5_Node000004_Node000006"><a xlink:title=" ">
<path fill="none" stroke="#9a32cd" stroke-dasharray="5,2" d="M383.1,-283.98C414.22,-276.59 452.82,-264.08 482.5,-243.62 512.49,-222.96 536.11,-185.6 546.29,-167.71"/>
<polygon fill="#9a32cd" stroke="#9a32cd" points="382.46,-280.54 373.48,-286.15 384,-287.37 382.46,-280.54"/>
</a>
</g>
<text xml:space="preserve" text-anchor="start" x="409.75" y="-299.98" font-family="Helvetica,sans-Serif" font-size="10.00" fill="grey">_leftEncoder</text>
<text xml:space="preserve" text-anchor="start" x="409.75" y="-284.73" font-family="Helvetica,sans-Serif" font-size="10.00" fill="grey">_rightEncoder</text>
</g>
<!-- Node6&#45;&gt;Node18 -->
<g id="edge22_Node000018_Node000006" class="edge">
<title>Node6&#45;&gt;Node18</title>
<g id="a_edge22_Node000018_Node000006"><a xlink:title=" ">
<path fill="none" stroke="#9a32cd" stroke-dasharray="5,2" d="M362.96,-307.98C408.61,-327 487.99,-360.06 527.69,-376.6"/>
<polygon fill="#9a32cd" stroke="#9a32cd" points="364.37,-304.77 353.79,-304.16 361.67,-311.24 364.37,-304.77"/>
</a>
</g>
<text xml:space="preserve" text-anchor="start" x="422.5" y="-361.29" font-family="Helvetica,sans-Serif" font-size="10.00" fill="grey">encoder</text>
</g>
<!-- Node7 -->
<g id="Node000007" class="node">
<title>Node7</title>
<g id="a_Node000007"><a xlink:href="class_line_sensor.html" target="_top" xlink:title=" ">
<polygon fill="white" stroke="#666666" points="359.88,-99.25 295.12,-99.25 295.12,-80 359.88,-80 359.88,-99.25"/>
<text xml:space="preserve" text-anchor="middle" x="327.5" y="-85.75" font-family="Helvetica,sans-Serif" font-size="10.00">LineSensor</text>
</a>
</g>
</g>
<!-- Node7&#45;&gt;Node4 -->
<g id="edge6_Node000004_Node000007" class="edge">
<title>Node7&#45;&gt;Node4</title>
<g id="a_edge6_Node000004_Node000007"><a xlink:title=" ">
<path fill="none" stroke="#9a32cd" stroke-dasharray="5,2" d="M371.2,-87.04C402.97,-86.62 446.82,-89.26 482.5,-103.38 507.21,-113.15 530.32,-134.7 542.59,-147.5"/>
<polygon fill="#9a32cd" stroke="#9a32cd" points="371.5,-83.53 361.59,-87.28 371.68,-90.53 371.5,-83.53"/>
</a>
</g>
<text xml:space="preserve" text-anchor="start" x="414.25" y="-108.12" font-family="Helvetica,sans-Serif" font-size="10.00" fill="grey">_lineSensor</text>
</g>
<!-- Node8 -->
<g id="Node000008" class="node">
<title>Node8</title>
<g id="a_Node000008"><a xlink:href="class_dual_motor_controller.html" target="_top" xlink:title=" ">
<polygon fill="white" stroke="#666666" points="379,-221.25 276,-221.25 276,-202 379,-202 379,-221.25"/>
<text xml:space="preserve" text-anchor="middle" x="327.5" y="-207.75" font-family="Helvetica,sans-Serif" font-size="10.00">DualMotorController</text>
</a>
</g>
</g>
<!-- Node8&#45;&gt;Node4 -->
<g id="edge7_Node000004_Node000008" class="edge">
<title>Node8&#45;&gt;Node4</title>
<g id="a_edge7_Node000004_Node000008"><a xlink:title=" ">
<path fill="none" stroke="#9a32cd" stroke-dasharray="5,2" d="M363.23,-197.53C373.93,-193.53 385.84,-189.44 397,-186.38 445.22,-173.11 503.58,-164.12 532.94,-160.07"/>
<polygon fill="#9a32cd" stroke="#9a32cd" points="362.08,-194.22 354,-201.07 364.59,-200.75 362.08,-194.22"/>
</a>
</g>
<text xml:space="preserve" text-anchor="start" x="403.75" y="-191.12" font-family="Helvetica,sans-Serif" font-size="10.00" fill="grey">_motorController</text>
</g>
<!-- Node8&#45;&gt;Node18 -->
<g id="edge21_Node000018_Node000008" class="edge">
<title>Node8&#45;&gt;Node18</title>
<g id="a_edge21_Node000018_Node000008"><a xlink:title=" ">
<path fill="none" stroke="#9a32cd" stroke-dasharray="5,2" d="M390.87,-209.51C426.94,-209.51 467.99,-212 482.5,-222.38 535.62,-260.35 548.22,-347.31 551.01,-376.7"/>
<polygon fill="#9a32cd" stroke="#9a32cd" points="390.86,-206.01 380.89,-209.58 390.91,-213.01 390.86,-206.01"/>
</a>
</g>
<text xml:space="preserve" text-anchor="start" x="427.38" y="-227.12" font-family="Helvetica,sans-Serif" font-size="10.00" fill="grey">motor</text>
</g>
<!-- Node9 -->
<g id="Node000009" class="node">
<title>Node9</title>
<g id="a_Node000009"><a xlink:href="class_l298_n_motor_driver_mega.html" target="_top" xlink:title=" ">
<polygon fill="white" stroke="#666666" points="189.75,-263.25 70.25,-263.25 70.25,-244 189.75,-244 189.75,-263.25"/>
<text xml:space="preserve" text-anchor="middle" x="130" y="-249.75" font-family="Helvetica,sans-Serif" font-size="10.00">L298NMotorDriverMega</text>
</a>
</g>
</g>
<!-- Node9&#45;&gt;Node8 -->
<g id="edge8_Node000008_Node000009" class="edge">
<title>Node9&#45;&gt;Node8</title>
<g id="a_edge8_Node000008_Node000009"><a xlink:title=" ">
<path fill="none" stroke="#9a32cd" stroke-dasharray="5,2" d="M201.39,-242.88C219.89,-239.67 239.77,-235.85 258,-231.62 270.07,-228.83 283.16,-225.16 294.64,-221.74"/>
<polygon fill="#9a32cd" stroke="#9a32cd" points="200.84,-239.43 191.57,-244.56 202.02,-246.33 200.84,-239.43"/>
</a>
</g>
<text xml:space="preserve" text-anchor="start" x="210.75" y="-246.22" font-family="Helvetica,sans-Serif" font-size="10.00" fill="grey">dualDriver</text>
</g>
<!-- Node10 -->
<g id="Node000010" class="node">
<title>Node10</title>
<g id="a_Node000010"><a xlink:href="class_p_i_d_controller.html" target="_top" xlink:title=" ">
<polygon fill="white" stroke="#666666" points="167.62,-207.25 92.38,-207.25 92.38,-188 167.62,-188 167.62,-207.25"/>
<text xml:space="preserve" text-anchor="middle" x="130" y="-193.75" font-family="Helvetica,sans-Serif" font-size="10.00">PIDController</text>
</a>
</g>
</g>
<!-- Node10&#45;&gt;Node8 -->
<g id="edge9_Node000008_Node000010" class="edge">
<title>Node10&#45;&gt;Node8</title>
<g id="a_edge9_Node000008_Node000010"><a xlink:title=" ">
<path fill="none" stroke="#9a32cd" stroke-dasharray="5,2" d="M179.25,-196.29C203.01,-196.11 232.07,-196.62 258,-199.12 264.14,-199.72 270.55,-200.57 276.88,-201.55"/>
<polygon fill="#9a32cd" stroke="#9a32cd" points="179.52,-192.78 169.56,-196.4 179.6,-199.78 179.52,-192.78"/>
</a>
</g>
<text xml:space="preserve" text-anchor="start" x="221.25" y="-219.12" font-family="Helvetica,sans-Serif" font-size="10.00" fill="grey">_pid1</text>
<text xml:space="preserve" text-anchor="start" x="221.25" y="-203.88" font-family="Helvetica,sans-Serif" font-size="10.00" fill="grey">_pid2</text>
</g>
<!-- Node11 -->
<g id="Node000011" class="node">
<title>Node11</title>
<g id="a_Node000011"><a xlink:href="class_p_i_d.html" target="_top" xlink:title=" ">
<polygon fill="white" stroke="#666666" points="33.25,-207.25 0,-207.25 0,-188 33.25,-188 33.25,-207.25"/>
<text xml:space="preserve" text-anchor="middle" x="16.62" y="-193.75" font-family="Helvetica,sans-Serif" font-size="10.00">PID</text>
</a>
</g>
</g>
<!-- Node11&#45;&gt;Node10 -->
<g id="edge10_Node000010_Node000011" class="edge">
<title>Node11&#45;&gt;Node10</title>
<g id="a_edge10_Node000010_Node000011"><a xlink:title=" ">
<path fill="none" stroke="#63b8ff" d="M45.01,-197.62C59.14,-197.62 76.58,-197.62 91.9,-197.62"/>
<polygon fill="#63b8ff" stroke="#63b8ff" points="45.1,-194.13 35.1,-197.63 45.1,-201.13 45.1,-194.13"/>
</a>
</g>
</g>
<!-- Node12 -->
<g id="Node000012" class="node">
<title>Node12</title>
<g id="a_Node000012"><a xlink:href="class_sharp_g_p2_y0_a51.html" target="_top" xlink:title=" ">
<polygon fill="white" stroke="#666666" points="372.62,-19.25 282.38,-19.25 282.38,0 372.62,0 372.62,-19.25"/>
<text xml:space="preserve" text-anchor="middle" x="327.5" y="-5.75" font-family="Helvetica,sans-Serif" font-size="10.00">SharpGP2Y0A51</text>
</a>
</g>
</g>
<!-- Node12&#45;&gt;Node4 -->
<g id="edge11_Node000004_Node000012" class="edge">
<title>Node12&#45;&gt;Node4</title>
<g id="a_edge11_Node000004_Node000012"><a xlink:title=" ">
<path fill="none" stroke="#9a32cd" stroke-dasharray="5,2" d="M384.27,-2.57C415.62,-1.47 454.04,-5.18 482.5,-24.38 527.02,-54.41 544.73,-122.39 549.95,-147.8"/>
<polygon fill="#9a32cd" stroke="#9a32cd" points="384.38,0.94 374.58,-3.1 384.76,-6.05 384.38,0.94"/>
</a>
</g>
<text xml:space="preserve" text-anchor="start" x="413.88" y="-29.12" font-family="Helvetica,sans-Serif" font-size="10.00" fill="grey">_distSensor</text>
</g>
<!-- Node13 -->
<g id="Node000013" class="node">
<title>Node13</title>
<g id="a_Node000013"><a xlink:href="class_odometry.html" target="_top" xlink:title=" ">
<polygon fill="white" stroke="#666666" points="356.88,-139.25 298.12,-139.25 298.12,-120 356.88,-120 356.88,-139.25"/>
<text xml:space="preserve" text-anchor="middle" x="327.5" y="-125.75" font-family="Helvetica,sans-Serif" font-size="10.00">Odometry</text>
</a>
</g>
</g>
<!-- Node13&#45;&gt;Node4 -->
<g id="edge12_Node000004_Node000013" class="edge">
<title>Node13&#45;&gt;Node4</title>
<g id="a_edge12_Node000004_Node000013"><a xlink:title=" ">
<path fill="none" stroke="#9a32cd" stroke-dasharray="5,2" d="M368.49,-126.16C399.81,-124.38 444.3,-123.87 482.5,-131.12 500.21,-134.49 519.26,-142.1 532.89,-148.3"/>
<polygon fill="#9a32cd" stroke="#9a32cd" points="368.44,-122.66 358.69,-126.8 368.9,-129.64 368.44,-122.66"/>
</a>
</g>
<text xml:space="preserve" text-anchor="start" x="400" y="-151.12" font-family="Helvetica,sans-Serif" font-size="10.00" fill="grey">_desiredOdometry</text>
<text xml:space="preserve" text-anchor="start" x="400" y="-135.88" font-family="Helvetica,sans-Serif" font-size="10.00" fill="grey">_odometry</text>
</g>
<!-- Node14 -->
<g id="Node000014" class="node">
<title>Node14</title>
<g id="a_Node000014"><a xlink:href="struct_odometry_1_1_pose2_d.html" target="_top" xlink:title=" ">
<polygon fill="white" stroke="#666666" points="180,-139.25 80,-139.25 80,-120 180,-120 180,-139.25"/>
<text xml:space="preserve" text-anchor="middle" x="130" y="-125.75" font-family="Helvetica,sans-Serif" font-size="10.00">Odometry::Pose2D</text>
</a>
</g>
</g>
<!-- Node14&#45;&gt;Node13 -->
<g id="edge13_Node000013_Node000014" class="edge">
<title>Node14&#45;&gt;Node13</title>
<g id="a_edge13_Node000013_Node000014"><a xlink:title=" ">
<path fill="none" stroke="#9a32cd" stroke-dasharray="5,2" d="M191.53,-129.62C226.93,-129.62 270,-129.62 297.81,-129.62"/>
<polygon fill="#9a32cd" stroke="#9a32cd" points="191.85,-126.13 181.85,-129.63 191.85,-133.13 191.85,-126.13"/>
</a>
</g>
<text xml:space="preserve" text-anchor="start" x="219.75" y="-134.38" font-family="Helvetica,sans-Serif" font-size="10.00" fill="grey">_pose</text>
</g>
<!-- Node15 -->
<g id="Node000015" class="node">
<title>Node15</title>
<g id="a_Node000015"><a xlink:href="class_ramsete_controller.html" target="_top" xlink:title=" ">
<polygon fill="white" stroke="#666666" points="376.38,-59.25 278.62,-59.25 278.62,-40 376.38,-40 376.38,-59.25"/>
<text xml:space="preserve" text-anchor="middle" x="327.5" y="-45.75" font-family="Helvetica,sans-Serif" font-size="10.00">RamseteController</text>
</a>
</g>
</g>
<!-- Node15&#45;&gt;Node4 -->
<g id="edge14_Node000004_Node000015" class="edge">
<title>Node15&#45;&gt;Node4</title>
<g id="a_edge14_Node000004_Node000015"><a xlink:title=" ">
<path fill="none" stroke="#9a32cd" stroke-dasharray="5,2" d="M387.83,-45.31C417.94,-45.69 454.07,-50.28 482.5,-66.38 516.08,-85.38 538.53,-127.98 547.44,-147.5"/>
<polygon fill="#9a32cd" stroke="#9a32cd" points="388.11,-41.81 378.12,-45.35 388.13,-48.81 388.11,-41.81"/>
</a>
</g>
<text xml:space="preserve" text-anchor="start" x="419.5" y="-71.12" font-family="Helvetica,sans-Serif" font-size="10.00" fill="grey">_ramsete</text>
</g>
<!-- Node16&#45;&gt;Node3 -->
<g id="edge15_Node000003_Node000016" class="edge">
<title>Node16&#45;&gt;Node3</title>
<g id="a_edge15_Node000003_Node000016"><a xlink:title=" ">
<path fill="none" stroke="#9a32cd" stroke-dasharray="5,2" d="M584.01,-521.91C610.4,-518.16 649.47,-511.36 682.25,-500.62 688.65,-498.53 695.37,-495.61 701.36,-492.74"/>
<polygon fill="#9a32cd" stroke="#9a32cd" points="583.79,-518.41 574.35,-523.22 584.73,-525.34 583.79,-518.41"/>
</a>
</g>
<text xml:space="preserve" text-anchor="start" x="640.62" y="-520.13" font-family="Helvetica,sans-Serif" font-size="10.00" fill="grey">miner</text>
</g>
<!-- Node17 -->
<g id="Node000017" class="node">
<title>Node17</title>
<g id="a_Node000017"><a xlink:href="class_servo_control.html" target="_top" xlink:title=" ">
<polygon fill="white" stroke="#666666" points="364,-536.25 291,-536.25 291,-517 364,-517 364,-536.25"/>
<text xml:space="preserve" text-anchor="middle" x="327.5" y="-522.75" font-family="Helvetica,sans-Serif" font-size="10.00">ServoControl</text>
</a>
</g>
</g>
<!-- Node17&#45;&gt;Node16 -->
<g id="edge17_Node000016_Node000017" class="edge">
<title>Node17&#45;&gt;Node16</title>
<g id="a_edge17_Node000016_Node000017"><a xlink:title=" ">
<path fill="none" stroke="#9a32cd" stroke-dasharray="5,2" d="M375.87,-526.41C424.57,-526.19 497.99,-525.87 532.52,-525.71"/>
<polygon fill="#9a32cd" stroke="#9a32cd" points="375.87,-522.91 365.88,-526.46 375.9,-529.91 375.87,-522.91"/>
</a>
</g>
<text xml:space="preserve" text-anchor="start" x="427.75" y="-531.05" font-family="Helvetica,sans-Serif" font-size="10.00" fill="grey">servo</text>
</g>
<!-- Node18&#45;&gt;Node3 -->
<g id="edge18_Node000003_Node000018" class="edge">
<title>Node18&#45;&gt;Node3</title>
<g id="a_edge18_Node000003_Node000018"><a xlink:title=" ">
<path fill="none" stroke="#9a32cd" stroke-dasharray="5,2" d="M589.16,-385.85C616.96,-386.97 655.34,-392.52 682.25,-412.38 702.8,-427.53 713.5,-457.19 717.9,-472.68"/>
<polygon fill="#9a32cd" stroke="#9a32cd" points="589.55,-382.36 579.47,-385.65 589.4,-389.36 589.55,-382.36"/>
</a>
</g>
<text xml:space="preserve" text-anchor="start" x="636.5" y="-417.12" font-family="Helvetica,sans-Serif" font-size="10.00" fill="grey">shooter</text>
</g>
<!-- Node19 -->
<g id="Node000019" class="node">
<title>Node19</title>
<g id="a_Node000019"><a xlink:href="class_button.html" target="_top" xlink:title=" ">
<polygon fill="white" stroke="#666666" points="349.75,-396.25 305.25,-396.25 305.25,-377 349.75,-377 349.75,-396.25"/>
<text xml:space="preserve" text-anchor="middle" x="327.5" y="-382.75" font-family="Helvetica,sans-Serif" font-size="10.00">Button</text>
</a>
</g>
</g>
<!-- Node19&#45;&gt;Node18 -->
<g id="edge20_Node000018_Node000019" class="edge">
<title>Node19&#45;&gt;Node18</title>
<g id="a_edge20_Node000018_Node000019"><a xlink:title=" ">
<path fill="none" stroke="#9a32cd" stroke-dasharray="5,2" d="M361.41,-386.62C406.68,-386.62 487.13,-386.62 527.38,-386.62"/>
<polygon fill="#9a32cd" stroke="#9a32cd" points="361.42,-383.13 351.42,-386.63 361.42,-390.13 361.42,-383.13"/>
</a>
</g>
<text xml:space="preserve" text-anchor="start" x="411.25" y="-391.38" font-family="Helvetica,sans-Serif" font-size="10.00" fill="grey">block_switch</text>
</g>
<!-- Node20&#45;&gt;Node3 -->
<g id="edge23_Node000003_Node000020" class="edge">
<title>Node20&#45;&gt;Node3</title>
<g id="a_edge23_Node000003_Node000020"><a xlink:title=" ">
<path fill="none" stroke="#9a32cd" stroke-dasharray="5,2" d="M597.95,-484.82C606.26,-484.24 614.89,-483.71 623,-483.38 649.52,-482.27 680.14,-482.24 699.85,-482.38"/>
<polygon fill="#9a32cd" stroke="#9a32cd" points="597.7,-481.33 587.99,-485.57 598.23,-488.31 597.7,-481.33"/>
</a>
</g>
<text xml:space="preserve" text-anchor="start" x="627.88" y="-488.12" font-family="Helvetica,sans-Serif" font-size="10.00" fill="grey">serialComs</text>
</g>
<!-- Node21&#45;&gt;Node3 -->
<g id="edge25_Node000003_Node000021" class="edge">
<title>Node21&#45;&gt;Node3</title>
<g id="a_edge25_Node000003_Node000021"><a xlink:title=" ">
<path fill="none" stroke="#9a32cd" stroke-dasharray="5,2" d="M616.63,-559.42C638.77,-555.92 662.93,-549.22 682.25,-536.62 698.98,-525.72 710.58,-504.69 716.29,-492.34"/>
<polygon fill="#9a32cd" stroke="#9a32cd" points="616.21,-555.94 606.77,-560.76 617.15,-562.88 616.21,-555.94"/>
</a>
</g>
<text xml:space="preserve" text-anchor="start" x="626" y="-562.49" font-family="Helvetica,sans-Serif" font-size="10.00" fill="grey">autonomous</text>
</g>
</g>
</svg>
