<?xml version="1.0" encoding="UTF-8" standalone="no"?>
<!DOCTYPE svg PUBLIC "-//W3C//DTD SVG 1.1//EN"
 "http://www.w3.org/Graphics/SVG/1.1/DTD/svg11.dtd">
<!-- Generated by graphviz version 14.1.2 (20260124.0452)
 -->
<!-- Title: Miner::mine Pages: 1 -->
<svg width="400pt" height="103pt"
 viewBox="0.00 0.00 400.00 103.00" xmlns="http://www.w3.org/2000/svg" xmlns:xlink="http://www.w3.org/1999/xlink">
<g id="graph0" class="graph" transform="scale(1 1) rotate(0) translate(4 99.25)">
<title>Miner::mine</title>
<!-- Node1 -->
<g id="Node000001" class="node">
<title>Node1</title>
<g id="a_Node000001"><a xlink:title=" ">
<polygon fill="#999999" stroke="#666666" points="67,-57.25 0,-57.25 0,-38 67,-38 67,-57.25"/>
<text xml:space="preserve" text-anchor="middle" x="33.5" y="-43.75" font-family="Helvetica,sans-Serif" font-size="10.00">Miner::mine</text>
</a>
</g>
</g>
<!-- Node2 -->
<g id="Node000002" class="node">
<title>Node2</title>
<g id="a_Node000002"><a xlink:href="class_miner.html#a9e800360111af4b673ba51eab5eace0a" target="_top" xlink:title=" ">
<polygon fill="white" stroke="#666666" points="226.25,-95.25 105.25,-95.25 105.25,-76 226.25,-76 226.25,-95.25"/>
<text xml:space="preserve" text-anchor="middle" x="165.75" y="-81.75" font-family="Helvetica,sans-Serif" font-size="10.00">Miner::setServoToPress</text>
</a>
</g>
</g>
<!-- Node1&#45;&gt;Node2 -->
<g id="edge1_Node000001_Node000002" class="edge">
<title>Node1&#45;&gt;Node2</title>
<g id="a_edge1_Node000001_Node000002"><a xlink:title=" ">
<path fill="none" stroke="#63b8ff" d="M67.37,-57.21C83.07,-61.8 102.12,-67.35 119.19,-72.33"/>
<polygon fill="#63b8ff" stroke="#63b8ff" points="118.04,-75.64 128.62,-75.08 120,-68.92 118.04,-75.64"/>
</a>
</g>
</g>
<!-- Node3 -->
<g id="Node000003" class="node">
<title>Node3</title>
<g id="a_Node000003"><a xlink:href="class_miner.html#a437a0fdc0f9be6b0ffc27da25ab928b1" target="_top" xlink:title=" ">
<polygon fill="white" stroke="#666666" points="392.25,-38.25 264.5,-38.25 264.5,-19 392.25,-19 392.25,-38.25"/>
<text xml:space="preserve" text-anchor="middle" x="328.38" y="-24.75" font-family="Helvetica,sans-Serif" font-size="10.00">Miner::setServoToRetract</text>
</a>
</g>
</g>
<!-- Node1&#45;&gt;Node3 -->
<g id="edge2_Node000001_Node000003" class="edge">
<title>Node1&#45;&gt;Node3</title>
<g id="a_edge2_Node000001_Node000003"><a xlink:title=" ">
<path fill="none" stroke="#63b8ff" d="M67.24,-45.5C111.84,-42.61 192.95,-37.35 252.79,-33.46"/>
<polygon fill="#63b8ff" stroke="#63b8ff" points="252.82,-36.97 262.57,-32.83 252.36,-29.98 252.82,-36.97"/>
</a>
</g>
</g>
<!-- Node4 -->
<g id="Node000004" class="node">
<title>Node4</title>
<g id="a_Node000004"><a xlink:href="class_miner.html#a26f3ff0ceeae35f37c087bbb17767f17" target="_top" xlink:title=" ">
<polygon fill="white" stroke="#666666" points="228.5,-19.25 103,-19.25 103,0 228.5,0 228.5,-19.25"/>
<text xml:space="preserve" text-anchor="middle" x="165.75" y="-5.75" font-family="Helvetica,sans-Serif" font-size="10.00">Miner::stopMiningInternal</text>
</a>
</g>
</g>
<!-- Node1&#45;&gt;Node4 -->
<g id="edge3_Node000001_Node000004" class="edge">
<title>Node1&#45;&gt;Node4</title>
<g id="a_edge3_Node000001_Node000004"><a xlink:title=" ">
<path fill="none" stroke="#63b8ff" d="M67.37,-38.04C83.07,-33.45 102.12,-27.9 119.19,-22.92"/>
<polygon fill="#63b8ff" stroke="#63b8ff" points="120,-26.33 128.62,-20.17 118.04,-19.61 120,-26.33"/>
</a>
</g>
</g>
<!-- Node4&#45;&gt;Node3 -->
<g id="edge4_Node000004_Node000003" class="edge">
<title>Node4&#45;&gt;Node3</title>
<g id="a_edge4_Node000004_Node000003"><a xlink:title=" ">
<path fill="none" stroke="#63b8ff" d="M228.85,-16.97C236.71,-17.9 244.82,-18.86 252.85,-19.81"/>
<polygon fill="#63b8ff" stroke="#63b8ff" points="252.27,-23.26 262.61,-20.96 253.09,-16.31 252.27,-23.26"/>
</a>
</g>
</g>
</g>
</svg>
