<?xml version="1.0" encoding="UTF-8" standalone="no"?>
<!DOCTYPE svg PUBLIC "-//W3C//DTD SVG 1.1//EN"
 "http://www.w3.org/Graphics/SVG/1.1/DTD/svg11.dtd">
<!-- Generated by graphviz version 14.1.2 (20260124.0452)
 -->
<!-- Title: Planner::planNext Pages: 1 -->
<svg width="423pt" height="107pt"
 viewBox="0.00 0.00 423.00 107.00" xmlns="http://www.w3.org/2000/svg" xmlns:xlink="http://www.w3.org/1999/xlink">
<g id="graph0" class="graph" transform="scale(1 1) rotate(0) translate(4 102.88)">
<title>Planner::planNext</title>
<!-- Node1 -->
<g id="Node000001" class="node">
<title>Node1</title>
<g id="a_Node000001"><a xlink:title="Return the next step to execute, or nullptr when the routine is done.">
<polygon fill="#999999" stroke="#666666" points="94,-61.88 0,-61.88 0,-42.62 94,-42.62 94,-61.88"/>
<text xml:space="preserve" text-anchor="middle" x="47" y="-48.38" font-family="Helvetica,sans-Serif" font-size="10.00">Planner::planNext</text>
</a>
</g>
</g>
<!-- Node2 -->
<g id="Node000002" class="node">
<title>Node2</title>
<g id="a_Node000002"><a xlink:href="class_strategy.html#a2c7a2f138418db83f7854fe41ef5a608" target="_top" xlink:title="Access the global Strategy singleton.">
<polygon fill="white" stroke="#666666" points="244.25,-98.88 134.5,-98.88 134.5,-79.62 244.25,-79.62 244.25,-98.88"/>
<text xml:space="preserve" text-anchor="middle" x="189.38" y="-85.38" font-family="Helvetica,sans-Serif" font-size="10.00">Strategy::getInstance</text>
</a>
</g>
</g>
<!-- Node1&#45;&gt;Node2 -->
<g id="edge1_Node000001_Node000002" class="edge">
<title>Node1&#45;&gt;Node2</title>
<g id="a_edge1_Node000001_Node000002"><a xlink:title=" ">
<path fill="none" stroke="#63b8ff" d="M86.36,-62.36C102.61,-66.64 121.74,-71.69 139.02,-76.24"/>
<polygon fill="#63b8ff" stroke="#63b8ff" points="138.04,-79.6 148.6,-78.77 139.82,-72.83 138.04,-79.6"/>
</a>
</g>
</g>
<!-- Node3 -->
<g id="Node000003" class="node">
<title>Node3</title>
<g id="a_Node000003"><a xlink:href="class_strategy.html#a7d2dd7244d23d87e8a92f71d4604f09c" target="_top" xlink:title="Return the current scoring cycle target.">
<polygon fill="white" stroke="#666666" points="245.75,-61.88 133,-61.88 133,-42.62 245.75,-42.62 245.75,-61.88"/>
<text xml:space="preserve" text-anchor="middle" x="189.38" y="-48.38" font-family="Helvetica,sans-Serif" font-size="10.00">Strategy::getNextItem</text>
</a>
</g>
</g>
<!-- Node1&#45;&gt;Node3 -->
<g id="edge2_Node000001_Node000003" class="edge">
<title>Node1&#45;&gt;Node3</title>
<g id="a_edge2_Node000001_Node000003"><a xlink:title=" ">
<path fill="none" stroke="#63b8ff" d="M94.35,-52.25C103,-52.25 112.2,-52.25 121.32,-52.25"/>
<polygon fill="#63b8ff" stroke="#63b8ff" points="121.28,-55.75 131.28,-52.25 121.28,-48.75 121.28,-55.75"/>
</a>
</g>
</g>
<!-- Node4 -->
<g id="Node000004" class="node">
<title>Node4</title>
<g id="a_Node000004"><a xlink:href="class_strategy.html#a092d38e843967a4aadeb79f42550acd9" target="_top" xlink:title="Return whether the robot has collected the full set of blocks needed to score.">
<polygon fill="white" stroke="#666666" points="248.75,-24.88 130,-24.88 130,-5.63 248.75,-5.63 248.75,-24.88"/>
<text xml:space="preserve" text-anchor="middle" x="189.38" y="-11.38" font-family="Helvetica,sans-Serif" font-size="10.00">Strategy::readyToScore</text>
</a>
</g>
</g>
<!-- Node1&#45;&gt;Node4 -->
<g id="edge3_Node000001_Node000004" class="edge">
<title>Node1&#45;&gt;Node4</title>
<g id="a_edge3_Node000001_Node000004"><a xlink:title=" ">
<path fill="none" stroke="#63b8ff" d="M86.36,-42.14C102.61,-37.86 121.74,-32.81 139.02,-28.26"/>
<polygon fill="#63b8ff" stroke="#63b8ff" points="139.82,-31.67 148.6,-25.73 138.04,-24.9 139.82,-31.67"/>
</a>
</g>
</g>
<!-- Node5 -->
<g id="Node000005" class="node">
<title>Node5</title>
<g id="a_Node000005"><a xlink:href="class_strategy.html#a1943002dce146e4c4ab5aeebae9f9235" target="_top" xlink:title="Return the highest block type that can be mined with the current pickaxe.">
<polygon fill="white" stroke="#666666" points="414.75,-30.5 284.75,-30.5 284.75,0 414.75,0 414.75,-30.5"/>
<text xml:space="preserve" text-anchor="start" x="292.75" y="-17" font-family="Helvetica,sans-Serif" font-size="10.00">Strategy::getMaxMineable</text>
<text xml:space="preserve" text-anchor="middle" x="349.75" y="-5.75" font-family="Helvetica,sans-Serif" font-size="10.00">Block</text>
</a>
</g>
</g>
<!-- Node4&#45;&gt;Node5 -->
<g id="edge4_Node000004_Node000005" class="edge">
<title>Node4&#45;&gt;Node5</title>
<g id="a_edge4_Node000004_Node000005"><a xlink:title=" ">
<path fill="none" stroke="#63b8ff" d="M248.9,-15.25C256.74,-15.25 264.88,-15.25 272.97,-15.25"/>
<polygon fill="#63b8ff" stroke="#63b8ff" points="272.83,-18.75 282.83,-15.25 272.83,-11.75 272.83,-18.75"/>
</a>
</g>
</g>
</g>
</svg>
