<?xml version="1.0" encoding="UTF-8" standalone="no"?>
<!DOCTYPE svg PUBLIC "-//W3C//DTD SVG 1.1//EN"
 "http://www.w3.org/Graphics/SVG/1.1/DTD/svg11.dtd">
<!-- Generated by graphviz version 14.1.2 (20260124.0452)
 -->
<!-- Title: DualMotorController Pages: 1 -->
<svg width="220pt" height="171pt"
 viewBox="0.00 0.00 220.00 171.00" xmlns="http://www.w3.org/2000/svg" xmlns:xlink="http://www.w3.org/1999/xlink">
<g id="graph0" class="graph" transform="scale(1 1) rotate(0) translate(4 167.25)">
<title>DualMotorController</title>
<!-- Node1 -->
<g id="Node000001" class="node">
<title>Node1</title>
<g id="a_Node000001"><a xlink:title="Dual&#45;channel closed&#45;loop motor controller.">
<polygon fill="#999999" stroke="#666666" points="158.25,-19.25 55.25,-19.25 55.25,0 158.25,0 158.25,-19.25"/>
<text xml:space="preserve" text-anchor="middle" x="106.75" y="-5.75" font-family="Helvetica,sans-Serif" font-size="10.00">DualMotorController</text>
</a>
</g>
</g>
<!-- Node2 -->
<g id="Node000002" class="node">
<title>Node2</title>
<g id="a_Node000002"><a xlink:href="class_l298_n_motor_driver_mega.html" target="_top" xlink:title=" ">
<polygon fill="white" stroke="#666666" points="119.5,-107 0,-107 0,-87.75 119.5,-87.75 119.5,-107"/>
<text xml:space="preserve" text-anchor="middle" x="59.75" y="-93.5" font-family="Helvetica,sans-Serif" font-size="10.00">L298NMotorDriverMega</text>
</a>
</g>
</g>
<!-- Node2&#45;&gt;Node1 -->
<g id="edge1_Node000001_Node000002" class="edge">
<title>Node2&#45;&gt;Node1</title>
<g id="a_edge1_Node000001_Node000002"><a xlink:title=" ">
<path fill="none" stroke="#9a32cd" stroke-dasharray="5,2" d="M64.87,-76.46C68.45,-64.53 73.96,-49.39 81.5,-37.25 85.53,-30.76 91.33,-24.5 96.36,-19.69"/>
<polygon fill="#9a32cd" stroke="#9a32cd" points="61.52,-75.42 62.22,-85.99 68.27,-77.29 61.52,-75.42"/>
</a>
</g>
<text xml:space="preserve" text-anchor="start" x="84.5" y="-49.62" font-family="Helvetica,sans-Serif" font-size="10.00" fill="grey">dualDriver</text>
</g>
<!-- Node3 -->
<g id="Node000003" class="node">
<title>Node3</title>
<g id="a_Node000003"><a xlink:href="class_p_i_d_controller.html" target="_top" xlink:title="Full&#45;featured PID controller with anti&#45;windup, output filtering, and optional nonlinear extensions.">
<polygon fill="white" stroke="#666666" points="212.38,-107 137.12,-107 137.12,-87.75 212.38,-87.75 212.38,-107"/>
<text xml:space="preserve" text-anchor="middle" x="174.75" y="-93.5" font-family="Helvetica,sans-Serif" font-size="10.00">PIDController</text>
</a>
</g>
</g>
<!-- Node3&#45;&gt;Node1 -->
<g id="edge2_Node000001_Node000003" class="edge">
<title>Node3&#45;&gt;Node1</title>
<g id="a_edge2_Node000001_Node000003"><a xlink:title=" ">
<path fill="none" stroke="#9a32cd" stroke-dasharray="5,2" d="M162.26,-77.97C153.96,-66.07 142.64,-50.41 131.75,-37.25 126.74,-31.19 120.71,-24.76 115.84,-19.73"/>
<polygon fill="#9a32cd" stroke="#9a32cd" points="159.27,-79.8 167.82,-86.05 165.03,-75.83 159.27,-79.8"/>
</a>
</g>
<text xml:space="preserve" text-anchor="start" x="158.84" y="-57.25" font-family="Helvetica,sans-Serif" font-size="10.00" fill="grey">_pid1</text>
<text xml:space="preserve" text-anchor="start" x="158.84" y="-42" font-family="Helvetica,sans-Serif" font-size="10.00" fill="grey">_pid2</text>
</g>
<!-- Node4 -->
<g id="Node000004" class="node">
<title>Node4</title>
<g id="a_Node000004"><a xlink:href="class_p_i_d.html" target="_top" xlink:title="Lightweight PID controller base class.">
<polygon fill="white" stroke="#666666" points="191.38,-163.25 158.12,-163.25 158.12,-144 191.38,-144 191.38,-163.25"/>
<text xml:space="preserve" text-anchor="middle" x="174.75" y="-149.75" font-family="Helvetica,sans-Serif" font-size="10.00">PID</text>
</a>
</g>
</g>
<!-- Node4&#45;&gt;Node3 -->
<g id="edge3_Node000003_Node000004" class="edge">
<title>Node4&#45;&gt;Node3</title>
<g id="a_edge3_Node000003_Node000004"><a xlink:title=" ">
<path fill="none" stroke="#63b8ff" d="M174.75,-132.44C174.75,-123.73 174.75,-113.99 174.75,-107.17"/>
<polygon fill="#63b8ff" stroke="#63b8ff" points="171.25,-132.15 174.75,-142.15 178.25,-132.15 171.25,-132.15"/>
</a>
</g>
</g>
</g>
</svg>
