<?xml version="1.0" encoding="UTF-8" standalone="no"?>
<!DOCTYPE svg PUBLIC "-//W3C//DTD SVG 1.1//EN"
 "http://www.w3.org/Graphics/SVG/1.1/DTD/svg11.dtd">
<!-- Generated by graphviz version 14.1.2 (20260124.0452)
 -->
<!-- Title: Miner::stopMining Pages: 1 -->
<svg width="427pt" height="27pt"
 viewBox="0.00 0.00 427.00 27.00" xmlns="http://www.w3.org/2000/svg" xmlns:xlink="http://www.w3.org/1999/xlink">
<g id="graph0" class="graph" transform="scale(1 1) rotate(0) translate(4 23.25)">
<title>Miner::stopMining</title>
<!-- Node1 -->
<g id="Node000001" class="node">
<title>Node1</title>
<g id="a_Node000001"><a xlink:title=" ">
<polygon fill="#999999" stroke="#666666" points="93.25,-19.25 0,-19.25 0,0 93.25,0 93.25,-19.25"/>
<text xml:space="preserve" text-anchor="middle" x="46.62" y="-5.75" font-family="Helvetica,sans-Serif" font-size="10.00">Miner::stopMining</text>
</a>
</g>
</g>
<!-- Node2 -->
<g id="Node000002" class="node">
<title>Node2</title>
<g id="a_Node000002"><a xlink:href="class_miner.html#a26f3ff0ceeae35f37c087bbb17767f17" target="_top" xlink:title=" ">
<polygon fill="white" stroke="#666666" points="254.75,-19.25 129.25,-19.25 129.25,0 254.75,0 254.75,-19.25"/>
<text xml:space="preserve" text-anchor="middle" x="192" y="-5.75" font-family="Helvetica,sans-Serif" font-size="10.00">Miner::stopMiningInternal</text>
</a>
</g>
</g>
<!-- Node1&#45;&gt;Node2 -->
<g id="edge1_Node000001_Node000002" class="edge">
<title>Node1&#45;&gt;Node2</title>
<g id="a_edge1_Node000001_Node000002"><a xlink:title=" ">
<path fill="none" stroke="#63b8ff" d="M93.38,-9.62C101.16,-9.62 109.4,-9.62 117.68,-9.62"/>
<polygon fill="#63b8ff" stroke="#63b8ff" points="117.43,-13.13 127.43,-9.63 117.43,-6.13 117.43,-13.13"/>
</a>
</g>
</g>
<!-- Node3 -->
<g id="Node000003" class="node">
<title>Node3</title>
<g id="a_Node000003"><a xlink:href="class_miner.html#a437a0fdc0f9be6b0ffc27da25ab928b1" target="_top" xlink:title=" ">
<polygon fill="white" stroke="#666666" points="418.5,-19.25 290.75,-19.25 290.75,0 418.5,0 418.5,-19.25"/>
<text xml:space="preserve" text-anchor="middle" x="354.62" y="-5.75" font-family="Helvetica,sans-Serif" font-size="10.00">Miner::setServoToRetract</text>
</a>
</g>
</g>
<!-- Node2&#45;&gt;Node3 -->
<g id="edge2_Node000002_Node000003" class="edge">
<title>Node2&#45;&gt;Node3</title>
<g id="a_edge2_Node000002_Node000003"><a xlink:title=" ">
<path fill="none" stroke="#63b8ff" d="M255.1,-9.62C262.96,-9.62 271.07,-9.62 279.1,-9.62"/>
<polygon fill="#63b8ff" stroke="#63b8ff" points="278.85,-13.13 288.85,-9.63 278.85,-6.13 278.85,-13.13"/>
</a>
</g>
</g>
</g>
</svg>
