<?xml version="1.0" encoding="UTF-8" standalone="no"?>
<!DOCTYPE svg PUBLIC "-//W3C//DTD SVG 1.1//EN"
 "http://www.w3.org/Graphics/SVG/1.1/DTD/svg11.dtd">
<!-- Generated by graphviz version 14.1.2 (20260124.0452)
 -->
<!-- Title: Robot::processCommandString Pages: 1 -->
<svg width="659pt" height="190pt"
 viewBox="0.00 0.00 659.00 190.00" xmlns="http://www.w3.org/2000/svg" xmlns:xlink="http://www.w3.org/1999/xlink">
<g id="graph0" class="graph" transform="scale(1 1) rotate(0) translate(4 185.88)">
<title>Robot::processCommandString</title>
<!-- Node1 -->
<g id="Node000001" class="node">
<title>Node1</title>
<g id="a_Node000001"><a xlink:title="Parse and dispatch a raw command string to the appropriate handler.">
<polygon fill="#999999" stroke="#666666" points="153.25,-86.88 0,-86.88 0,-67.62 153.25,-67.62 153.25,-86.88"/>
<text xml:space="preserve" text-anchor="middle" x="76.62" y="-73.38" font-family="Helvetica,sans-Serif" font-size="10.00">Robot::processCommandString</text>
</a>
</g>
</g>
<!-- Node2 -->
<g id="Node000002" class="node">
<title>Node2</title>
<g id="a_Node000002"><a xlink:href="class_robot.html#a25277ec017ab37e4920908740e7f1ee9" target="_top" xlink:title="Handle commands that are valid in any operating mode.">
<polygon fill="white" stroke="#666666" points="341.38,-143.88 191.88,-143.88 191.88,-124.62 341.38,-124.62 341.38,-143.88"/>
<text xml:space="preserve" text-anchor="middle" x="266.62" y="-130.38" font-family="Helvetica,sans-Serif" font-size="10.00">Robot::handleGlobalCommand</text>
</a>
</g>
</g>
<!-- Node1&#45;&gt;Node2 -->
<g id="edge1_Node000001_Node000002" class="edge">
<title>Node1&#45;&gt;Node2</title>
<g id="a_edge1_Node000001_Node000002"><a xlink:title=" ">
<path fill="none" stroke="#63b8ff" d="M110.8,-87.31C141.58,-96.64 187.61,-110.6 221.48,-120.87"/>
<polygon fill="#63b8ff" stroke="#63b8ff" points="220.43,-124.2 231.01,-123.76 222.46,-117.51 220.43,-124.2"/>
</a>
</g>
</g>
<!-- Node4 -->
<g id="Node000004" class="node">
<title>Node4</title>
<g id="a_Node000004"><a xlink:href="class_robot.html#a3defa2b851d1a9267d6dbe251373ba7d" target="_top" xlink:title="Send a message to a serial port (defaults to USB Serial if port is null).">
<polygon fill="white" stroke="#666666" points="650.5,-124.88 581.25,-124.88 581.25,-105.62 650.5,-105.62 650.5,-124.88"/>
<text xml:space="preserve" text-anchor="middle" x="615.88" y="-111.38" font-family="Helvetica,sans-Serif" font-size="10.00">Robot::reply</text>
</a>
</g>
</g>
<!-- Node1&#45;&gt;Node4 -->
<g id="edge8_Node000001_Node000004" class="edge">
<title>Node1&#45;&gt;Node4</title>
<g id="a_edge8_Node000001_Node000004"><a xlink:title=" ">
<path fill="none" stroke="#63b8ff" d="M153.74,-82.63C267.17,-90.66 477.05,-105.5 569.33,-112.03"/>
<polygon fill="#63b8ff" stroke="#63b8ff" points="569.04,-115.52 579.26,-112.73 569.53,-108.53 569.04,-115.52"/>
</a>
</g>
</g>
<!-- Node5 -->
<g id="Node000005" class="node">
<title>Node5</title>
<g id="a_Node000005"><a xlink:href="class_robot.html#a701fe8e294bbf124925db433690174dd" target="_top" xlink:title="Handle SERIAL_TEST commands with no numeric parameters.">
<polygon fill="white" stroke="#666666" points="545.25,-67.88 380,-67.88 380,-48.62 545.25,-48.62 545.25,-67.88"/>
<text xml:space="preserve" text-anchor="middle" x="462.62" y="-54.38" font-family="Helvetica,sans-Serif" font-size="10.00">Robot::handleSerialTestCommand</text>
</a>
</g>
</g>
<!-- Node1&#45;&gt;Node5 -->
<g id="edge5_Node000001_Node000005" class="edge">
<title>Node1&#45;&gt;Node5</title>
<g id="a_edge5_Node000001_Node000005"><a xlink:title=" ">
<path fill="none" stroke="#63b8ff" d="M153.49,-73.5C215.17,-70.44 302.45,-66.13 368.39,-62.86"/>
<polygon fill="#63b8ff" stroke="#63b8ff" points="368.28,-66.37 378.09,-62.38 367.93,-59.38 368.28,-66.37"/>
</a>
</g>
</g>
<!-- Node6 -->
<g id="Node000006" class="node">
<title>Node6</title>
<g id="a_Node000006"><a xlink:href="class_robot.html#acf85577d12d881301a16f303f39efc05" target="_top" xlink:title="Parse a keyword + up to two float parameters from a command string.">
<polygon fill="white" stroke="#666666" points="344,-30.5 189.25,-30.5 189.25,0 344,0 344,-30.5"/>
<text xml:space="preserve" text-anchor="start" x="197.25" y="-17" font-family="Helvetica,sans-Serif" font-size="10.00">Robot::parseCmdWithUpToTwo</text>
<text xml:space="preserve" text-anchor="middle" x="266.62" y="-5.75" font-family="Helvetica,sans-Serif" font-size="10.00">Floats</text>
</a>
</g>
</g>
<!-- Node1&#45;&gt;Node6 -->
<g id="edge7_Node000001_Node000006" class="edge">
<title>Node1&#45;&gt;Node6</title>
<g id="a_edge7_Node000001_Node000006"><a xlink:title=" ">
<path fill="none" stroke="#63b8ff" d="M108.25,-67.15C134.98,-58.33 174.52,-45.29 207.28,-34.49"/>
<polygon fill="#63b8ff" stroke="#63b8ff" points="208.26,-37.85 216.66,-31.4 206.07,-31.21 208.26,-37.85"/>
</a>
</g>
</g>
<!-- Node3 -->
<g id="Node000003" class="node">
<title>Node3</title>
<g id="a_Node000003"><a xlink:href="class_robot.html#a9e72bb50888e8247a9a55add640542ac" target="_top" xlink:title="Print the serial command reference to port (defaults to USB Serial).">
<polygon fill="white" stroke="#666666" points="518.62,-181.88 406.62,-181.88 406.62,-162.62 518.62,-162.62 518.62,-181.88"/>
<text xml:space="preserve" text-anchor="middle" x="462.62" y="-168.38" font-family="Helvetica,sans-Serif" font-size="10.00">Robot::printSerialHelp</text>
</a>
</g>
</g>
<!-- Node2&#45;&gt;Node3 -->
<g id="edge2_Node000002_Node000003" class="edge">
<title>Node2&#45;&gt;Node3</title>
<g id="a_edge2_Node000002_Node000003"><a xlink:title=" ">
<path fill="none" stroke="#63b8ff" d="M319.1,-144.33C343.65,-149.14 373.22,-154.93 399.05,-159.99"/>
<polygon fill="#63b8ff" stroke="#63b8ff" points="398.27,-163.41 408.76,-161.89 399.62,-156.54 398.27,-163.41"/>
</a>
</g>
</g>
<!-- Node2&#45;&gt;Node4 -->
<g id="edge4_Node000002_Node000004" class="edge">
<title>Node2&#45;&gt;Node4</title>
<g id="a_edge4_Node000002_Node000004"><a xlink:title=" ">
<path fill="none" stroke="#63b8ff" d="M341.69,-130.2C410.83,-126.41 511.77,-120.89 569.63,-117.73"/>
<polygon fill="#63b8ff" stroke="#63b8ff" points="569.64,-121.23 579.43,-117.19 569.26,-114.24 569.64,-121.23"/>
</a>
</g>
</g>
<!-- Node3&#45;&gt;Node4 -->
<g id="edge3_Node000003_Node000004" class="edge">
<title>Node3&#45;&gt;Node4</title>
<g id="a_edge3_Node000003_Node000004"><a xlink:title=" ">
<path fill="none" stroke="#63b8ff" d="M502.24,-162.24C515.97,-158.33 531.45,-153.51 545.25,-148.25 558.78,-143.09 573.33,-136.39 585.6,-130.38"/>
<polygon fill="#63b8ff" stroke="#63b8ff" points="586.98,-133.6 594.37,-126 583.86,-127.34 586.98,-133.6"/>
</a>
</g>
</g>
<!-- Node5&#45;&gt;Node4 -->
<g id="edge6_Node000005_Node000004" class="edge">
<title>Node5&#45;&gt;Node4</title>
<g id="a_edge6_Node000005_Node000004"><a xlink:title=" ">
<path fill="none" stroke="#63b8ff" d="M502.24,-68.26C515.97,-72.17 531.45,-76.99 545.25,-82.25 558.78,-87.41 573.33,-94.11 585.6,-100.12"/>
<polygon fill="#63b8ff" stroke="#63b8ff" points="583.86,-103.16 594.37,-104.5 586.98,-96.9 583.86,-103.16"/>
</a>
</g>
</g>
</g>
</svg>
