<?xml version="1.0" encoding="UTF-8" standalone="no"?>
<!DOCTYPE svg PUBLIC "-//W3C//DTD SVG 1.1//EN"
 "http://www.w3.org/Graphics/SVG/1.1/DTD/svg11.dtd">
<!-- Generated by graphviz version 14.1.2 (20260124.0452)
 -->
<!-- Title: src/Autonomous/AutoStep.h Pages: 1 -->
<svg width="2586pt" height="282pt"
 viewBox="0.00 0.00 2586.00 282.00" xmlns="http://www.w3.org/2000/svg" xmlns:xlink="http://www.w3.org/1999/xlink">
<g id="graph0" class="graph" transform="scale(1 1) rotate(0) translate(4 278)">
<title>src/Autonomous/AutoStep.h</title>
<!-- Node1 -->
<g id="Node000001" class="node">
<title>Node1</title>
<g id="a_Node000001"><a xlink:title="Abstract interface that every autonomous step must implement.">
<polygon fill="#999999" stroke="#666666" points="1581.54,-274 1442.54,-274 1442.54,-254.75 1581.54,-254.75 1581.54,-274"/>
<text xml:space="preserve" text-anchor="middle" x="1512.04" y="-260.5" font-family="Helvetica,sans-Serif" font-size="10.00">src/Autonomous/AutoStep.h</text>
</a>
</g>
</g>
<!-- Node2 -->
<g id="Node000002" class="node">
<title>Node2</title>
<g id="a_Node000002"><a xlink:href="_autonomous_routine_8hpp.html" target="_top" xlink:title="Sequential container that drives an ordered list of AutoStep objects.">
<polygon fill="white" stroke="#666666" points="2577.54,-152.25 2432.54,-152.25 2432.54,-121.75 2577.54,-121.75 2577.54,-152.25"/>
<text xml:space="preserve" text-anchor="start" x="2440.54" y="-138.75" font-family="Helvetica,sans-Serif" font-size="10.00">src/Autonomous/Autonomous</text>
<text xml:space="preserve" text-anchor="middle" x="2505.04" y="-127.5" font-family="Helvetica,sans-Serif" font-size="10.00">Routine.hpp</text>
</a>
</g>
</g>
<!-- Node1&#45;&gt;Node2 -->
<g id="edge1_Node000001_Node000002" class="edge">
<title>Node1&#45;&gt;Node2</title>
<g id="a_edge1_Node000001_Node000002"><a xlink:title=" ">
<path fill="none" stroke="#63b8ff" d="M1593.3,-258.98C1693.35,-252.76 1857.02,-239.76 1914.04,-218.75 1936.71,-210.39 1936.24,-196.23 1959.04,-188.25 2154.71,-119.82 2218.39,-178.24 2424.04,-152.25 2426.74,-151.91 2429.47,-151.54 2432.24,-151.15"/>
<polygon fill="#63b8ff" stroke="#63b8ff" points="1593.31,-255.47 1583.54,-259.57 1593.73,-262.46 1593.31,-255.47"/>
</a>
</g>
</g>
<!-- Node4 -->
<g id="Node000004" class="node">
<title>Node4</title>
<g id="a_Node000004"><a xlink:href="_strategy_controller_step_8hpp.html" target="_top" xlink:title="High&#45;level AutoStep that runs the full strategy loop inline.">
<polygon fill="white" stroke="#666666" points="791.42,-30.5 654.67,-30.5 654.67,0 791.42,0 791.42,-30.5"/>
<text xml:space="preserve" text-anchor="start" x="662.67" y="-17" font-family="Helvetica,sans-Serif" font-size="10.00">src/Autonomous/Steps</text>
<text xml:space="preserve" text-anchor="middle" x="723.04" y="-5.75" font-family="Helvetica,sans-Serif" font-size="10.00">/StrategyControllerStep.hpp</text>
</a>
</g>
</g>
<!-- Node1&#45;&gt;Node4 -->
<g id="edge54_Node000001_Node000004" class="edge">
<title>Node1&#45;&gt;Node4</title>
<g id="a_edge54_Node000001_Node000004"><a xlink:title=" ">
<path fill="none" stroke="#63b8ff" d="M1431.4,-262.49C1123.23,-258.9 35.97,-244.43 11.04,-218.75 -83.11,-121.75 458.31,-47.42 654.29,-24.01"/>
<polygon fill="#63b8ff" stroke="#63b8ff" points="1430.91,-265.98 1440.95,-262.6 1430.99,-258.98 1430.91,-265.98"/>
</a>
</g>
</g>
<!-- Node6 -->
<g id="Node000006" class="node">
<title>Node6</title>
<g id="a_Node000006"><a xlink:href="_deferred_step_8hpp.html" target="_top" xlink:title="An AutoStep wrapper whose child step is chosen at runtime via a factory.">
<polygon fill="white" stroke="#666666" points="1034.42,-213.12 867.67,-213.12 867.67,-193.88 1034.42,-193.88 1034.42,-213.12"/>
<text xml:space="preserve" text-anchor="middle" x="951.04" y="-199.62" font-family="Helvetica,sans-Serif" font-size="10.00">src/Autonomous/DeferredStep.hpp</text>
</a>
</g>
</g>
<!-- Node1&#45;&gt;Node6 -->
<g id="edge5_Node000001_Node000006" class="edge">
<title>Node1&#45;&gt;Node6</title>
<g id="a_edge5_Node000001_Node000006"><a xlink:title=" ">
<path fill="none" stroke="#63b8ff" d="M1431.01,-257.12C1337.39,-249.56 1178.8,-235.71 1043.04,-218.75 1031.18,-217.27 1018.48,-215.45 1006.43,-213.62"/>
<polygon fill="#63b8ff" stroke="#63b8ff" points="1430.62,-260.6 1440.87,-257.91 1431.18,-253.62 1430.62,-260.6"/>
</a>
</g>
</g>
<!-- Node7 -->
<g id="Node000007" class="node">
<title>Node7</title>
<g id="a_Node000007"><a xlink:href="_planner_8hpp.html" target="_top" xlink:title="High&#45;level autonomous planner used with ReplanStep.">
<polygon fill="white" stroke="#666666" points="910.67,-146.62 769.42,-146.62 769.42,-127.38 910.67,-127.38 910.67,-146.62"/>
<text xml:space="preserve" text-anchor="middle" x="840.04" y="-133.12" font-family="Helvetica,sans-Serif" font-size="10.00">src/Autonomous/Planner.hpp</text>
</a>
</g>
</g>
<!-- Node1&#45;&gt;Node7 -->
<g id="edge9_Node000001_Node000007" class="edge">
<title>Node1&#45;&gt;Node7</title>
<g id="a_edge9_Node000001_Node000007"><a xlink:title=" ">
<path fill="none" stroke="#63b8ff" d="M1431.02,-263.13C1265.76,-261.88 901.72,-254.99 859.04,-218.75 837.86,-200.76 837.82,-164 839.08,-147"/>
<polygon fill="#63b8ff" stroke="#63b8ff" points="1430.55,-266.63 1440.57,-263.2 1430.6,-259.63 1430.55,-266.63"/>
</a>
</g>
</g>
<!-- Node9 -->
<g id="Node000009" class="node">
<title>Node9</title>
<g id="a_Node000009"><a xlink:href="_replan_step_8hpp.html" target="_top" xlink:title="An AutoStep that repeatedly queries a planner for the next child step.">
<polygon fill="white" stroke="#666666" points="1299.04,-146.62 1139.04,-146.62 1139.04,-127.38 1299.04,-127.38 1299.04,-146.62"/>
<text xml:space="preserve" text-anchor="middle" x="1219.04" y="-133.12" font-family="Helvetica,sans-Serif" font-size="10.00">src/Autonomous/ReplanStep.hpp</text>
</a>
</g>
</g>
<!-- Node1&#45;&gt;Node9 -->
<g id="edge10_Node000001_Node000009" class="edge">
<title>Node1&#45;&gt;Node9</title>
<g id="a_edge10_Node000001_Node000009"><a xlink:title=" ">
<path fill="none" stroke="#63b8ff" d="M1546.15,-249.24C1558.86,-242.1 1571.91,-232.07 1579.04,-218.75 1585.44,-206.8 1587.98,-198.45 1579.04,-188.25 1539.01,-142.55 1368.15,-161.05 1308.04,-152.25 1297.21,-150.66 1285.64,-148.88 1274.56,-147.12"/>
<polygon fill="#63b8ff" stroke="#63b8ff" points="1544.81,-245.99 1537.5,-253.66 1548,-252.22 1544.81,-245.99"/>
</a>
</g>
</g>
<!-- Node10 -->
<g id="Node000010" class="node">
<title>Node10</title>
<g id="a_Node000010"><a xlink:href="_accelerate_straight_line_8hpp.html" target="_top" xlink:title="AutoStep that drives straight while ramping speed up to a target velocity.">
<polygon fill="white" stroke="#666666" points="1453.04,-152.25 1317.04,-152.25 1317.04,-121.75 1453.04,-121.75 1453.04,-152.25"/>
<text xml:space="preserve" text-anchor="start" x="1325.04" y="-138.75" font-family="Helvetica,sans-Serif" font-size="10.00">src/Autonomous/Steps</text>
<text xml:space="preserve" text-anchor="middle" x="1385.04" y="-127.5" font-family="Helvetica,sans-Serif" font-size="10.00">/AccelerateStraightLine.hpp</text>
</a>
</g>
</g>
<!-- Node1&#45;&gt;Node10 -->
<g id="edge12_Node000001_Node000010" class="edge">
<title>Node1&#45;&gt;Node10</title>
<g id="a_edge12_Node000001_Node000010"><a xlink:title=" ">
<path fill="none" stroke="#63b8ff" d="M1569.85,-250.38C1586.28,-243.72 1602.32,-233.73 1612.04,-218.75 1619.42,-207.38 1620.53,-198.82 1612.04,-188.25 1606.96,-181.92 1518.49,-163.67 1453.52,-151.01"/>
<polygon fill="#63b8ff" stroke="#63b8ff" points="1568.7,-247.07 1560.49,-253.77 1571.08,-253.65 1568.7,-247.07"/>
</a>
</g>
</g>
<!-- Node11 -->
<g id="Node000011" class="node">
<title>Node11</title>
<g id="a_Node000011"><a xlink:href="_advance_cycle_step_8hpp.html" target="_top" xlink:title="Instantaneous AutoStep that advances the Strategy craft cycle by one.">
<polygon fill="white" stroke="#666666" points="141.92,-218.75 20.17,-218.75 20.17,-188.25 141.92,-188.25 141.92,-218.75"/>
<text xml:space="preserve" text-anchor="start" x="28.17" y="-205.25" font-family="Helvetica,sans-Serif" font-size="10.00">src/Autonomous/Steps</text>
<text xml:space="preserve" text-anchor="middle" x="81.04" y="-194" font-family="Helvetica,sans-Serif" font-size="10.00">/AdvanceCycleStep.hpp</text>
</a>
</g>
</g>
<!-- Node1&#45;&gt;Node11 -->
<g id="edge14_Node000001_Node000011" class="edge">
<title>Node1&#45;&gt;Node11</title>
<g id="a_edge14_Node000001_Node000011"><a xlink:title=" ">
<path fill="none" stroke="#63b8ff" d="M1430.83,-262.5C1177.07,-259.5 401.08,-248.09 151.04,-218.75 148.21,-218.42 145.32,-218.03 142.41,-217.6"/>
<polygon fill="#63b8ff" stroke="#63b8ff" points="1430.6,-266 1440.64,-262.62 1430.68,-259 1430.6,-266"/>
</a>
</g>
</g>
<!-- Node12 -->
<g id="Node000012" class="node">
<title>Node12</title>
<g id="a_Node000012"><a xlink:href="_composite_step_8hpp.html" target="_top" xlink:title="AutoStep that runs a heap&#45;owned sequence of child steps in order.">
<polygon fill="white" stroke="#666666" points="1569.92,-218.75 1454.17,-218.75 1454.17,-188.25 1569.92,-188.25 1569.92,-218.75"/>
<text xml:space="preserve" text-anchor="start" x="1462.17" y="-205.25" font-family="Helvetica,sans-Serif" font-size="10.00">src/Autonomous/Steps</text>
<text xml:space="preserve" text-anchor="middle" x="1512.04" y="-194" font-family="Helvetica,sans-Serif" font-size="10.00">/CompositeStep.hpp</text>
</a>
</g>
</g>
<!-- Node1&#45;&gt;Node12 -->
<g id="edge16_Node000001_Node000012" class="edge">
<title>Node1&#45;&gt;Node12</title>
<g id="a_edge16_Node000001_Node000012"><a xlink:title=" ">
<path fill="none" stroke="#63b8ff" d="M1512.04,-243.17C1512.04,-235.24 1512.04,-226.31 1512.04,-219.03"/>
<polygon fill="#63b8ff" stroke="#63b8ff" points="1508.54,-242.92 1512.04,-252.92 1515.54,-242.92 1508.54,-242.92"/>
</a>
</g>
</g>
<!-- Node13 -->
<g id="Node000013" class="node">
<title>Node13</title>
<g id="a_Node000013"><a xlink:href="_delay_step_8hpp.html" target="_top" xlink:title="AutoStep that blocks for a fixed number of milliseconds.">
<polygon fill="white" stroke="#666666" points="1586.92,-152.25 1471.17,-152.25 1471.17,-121.75 1586.92,-121.75 1586.92,-152.25"/>
<text xml:space="preserve" text-anchor="start" x="1479.17" y="-138.75" font-family="Helvetica,sans-Serif" font-size="10.00">src/Autonomous/Steps</text>
<text xml:space="preserve" text-anchor="middle" x="1529.04" y="-127.5" font-family="Helvetica,sans-Serif" font-size="10.00">/DelayStep.hpp</text>
</a>
</g>
</g>
<!-- Node1&#45;&gt;Node13 -->
<g id="edge19_Node000001_Node000013" class="edge">
<title>Node1&#45;&gt;Node13</title>
<g id="a_edge19_Node000001_Node000013"><a xlink:title=" ">
<path fill="none" stroke="#63b8ff" d="M1592.64,-254.95C1614.78,-248.5 1636.42,-237.47 1650.04,-218.75 1672.11,-188.42 1627.86,-166.11 1586.81,-152.72"/>
<polygon fill="#63b8ff" stroke="#63b8ff" points="1592.03,-251.49 1583.23,-257.38 1593.78,-258.27 1592.03,-251.49"/>
</a>
</g>
</g>
<!-- Node14 -->
<g id="Node000014" class="node">
<title>Node14</title>
<g id="a_Node000014"><a xlink:href="_deploy_ramp_8hpp.html" target="_top" xlink:title="Instantaneous AutoStep that deploys the miner&#39;s block&#45;collection ramp.">
<polygon fill="white" stroke="#666666" points="1720.92,-152.25 1605.17,-152.25 1605.17,-121.75 1720.92,-121.75 1720.92,-152.25"/>
<text xml:space="preserve" text-anchor="start" x="1613.17" y="-138.75" font-family="Helvetica,sans-Serif" font-size="10.00">src/Autonomous/Steps</text>
<text xml:space="preserve" text-anchor="middle" x="1663.04" y="-127.5" font-family="Helvetica,sans-Serif" font-size="10.00">/DeployRamp.hpp</text>
</a>
</g>
</g>
<!-- Node1&#45;&gt;Node14 -->
<g id="edge21_Node000001_Node000014" class="edge">
<title>Node1&#45;&gt;Node14</title>
<g id="a_edge21_Node000001_Node000014"><a xlink:title=" ">
<path fill="none" stroke="#63b8ff" d="M1580.11,-252.08C1616.55,-244.5 1656.13,-233.25 1667.04,-218.75 1681.48,-199.57 1674.84,-169.99 1668.85,-152.45"/>
<polygon fill="#63b8ff" stroke="#63b8ff" points="1579.55,-248.63 1570.43,-254.02 1580.92,-255.49 1579.55,-248.63"/>
</a>
</g>
</g>
<!-- Node15 -->
<g id="Node000015" class="node">
<title>Node15</title>
<g id="a_Node000015"><a xlink:href="_detect_block_8hpp.html" target="_top" xlink:title="AutoStep that samples the color sensor and updates Strategy with the detected block type.">
<polygon fill="white" stroke="#666666" points="275.92,-218.75 160.17,-218.75 160.17,-188.25 275.92,-188.25 275.92,-218.75"/>
<text xml:space="preserve" text-anchor="start" x="168.17" y="-205.25" font-family="Helvetica,sans-Serif" font-size="10.00">src/Autonomous/Steps</text>
<text xml:space="preserve" text-anchor="middle" x="218.04" y="-194" font-family="Helvetica,sans-Serif" font-size="10.00">/DetectBlock.hpp</text>
</a>
</g>
</g>
<!-- Node1&#45;&gt;Node15 -->
<g id="edge23_Node000001_Node000015" class="edge">
<title>Node1&#45;&gt;Node15</title>
<g id="a_edge23_Node000001_Node000015"><a xlink:title=" ">
<path fill="none" stroke="#63b8ff" d="M1430.82,-262.26C1194.13,-258.71 507.76,-246.27 285.04,-218.75 282.21,-218.4 279.32,-217.99 276.41,-217.54"/>
<polygon fill="#63b8ff" stroke="#63b8ff" points="1430.51,-265.75 1440.57,-262.4 1430.62,-258.75 1430.51,-265.75"/>
</a>
</g>
</g>
<!-- Node16 -->
<g id="Node000016" class="node">
<title>Node16</title>
<g id="a_Node000016"><a xlink:href="_drive_arc_8hpp.html" target="_top" xlink:title="AutoStep that drives the robot along a circular arc.">
<polygon fill="white" stroke="#666666" points="409.92,-218.75 294.17,-218.75 294.17,-188.25 409.92,-188.25 409.92,-218.75"/>
<text xml:space="preserve" text-anchor="start" x="302.17" y="-205.25" font-family="Helvetica,sans-Serif" font-size="10.00">src/Autonomous/Steps</text>
<text xml:space="preserve" text-anchor="middle" x="352.04" y="-194" font-family="Helvetica,sans-Serif" font-size="10.00">/DriveArc.hpp</text>
</a>
</g>
</g>
<!-- Node1&#45;&gt;Node16 -->
<g id="edge25_Node000001_Node000016" class="edge">
<title>Node1&#45;&gt;Node16</title>
<g id="a_edge25_Node000001_Node000016"><a xlink:title=" ">
<path fill="none" stroke="#63b8ff" d="M1430.77,-261.84C1212.12,-257.41 614.69,-243.37 419.04,-218.75 416.21,-218.39 413.32,-217.98 410.41,-217.52"/>
<polygon fill="#63b8ff" stroke="#63b8ff" points="1430.56,-265.33 1440.63,-262.03 1430.7,-258.33 1430.56,-265.33"/>
</a>
</g>
</g>
<!-- Node17 -->
<g id="Node000017" class="node">
<title>Node17</title>
<g id="a_Node000017"><a xlink:href="_drive_distance_8hpp.html" target="_top" xlink:title="AutoStep that drives straight for a specified distance at a fixed velocity.">
<polygon fill="white" stroke="#666666" points="1167.92,-218.75 1052.17,-218.75 1052.17,-188.25 1167.92,-188.25 1167.92,-218.75"/>
<text xml:space="preserve" text-anchor="start" x="1060.17" y="-205.25" font-family="Helvetica,sans-Serif" font-size="10.00">src/Autonomous/Steps</text>
<text xml:space="preserve" text-anchor="middle" x="1110.04" y="-194" font-family="Helvetica,sans-Serif" font-size="10.00">/DriveDistance.hpp</text>
</a>
</g>
</g>
<!-- Node1&#45;&gt;Node17 -->
<g id="edge27_Node000001_Node000017" class="edge">
<title>Node1&#45;&gt;Node17</title>
<g id="a_edge27_Node000001_Node000017"><a xlink:title=" ">
<path fill="none" stroke="#63b8ff" d="M1431.13,-254.37C1363.12,-246.38 1263.44,-233.67 1177.04,-218.75 1174.11,-218.24 1171.12,-217.7 1168.1,-217.13"/>
<polygon fill="#63b8ff" stroke="#63b8ff" points="1430.35,-257.8 1440.69,-255.49 1431.16,-250.85 1430.35,-257.8"/>
</a>
</g>
</g>
<!-- Node18 -->
<g id="Node000018" class="node">
<title>Node18</title>
<g id="a_Node000018"><a xlink:href="_drive_line_until_wall_8hpp.html" target="_top" xlink:title="AutoStep that follows a line until the distance sensor reads a target wall distance.">
<polygon fill="white" stroke="#666666" points="1857.04,-152.25 1739.04,-152.25 1739.04,-121.75 1857.04,-121.75 1857.04,-152.25"/>
<text xml:space="preserve" text-anchor="start" x="1747.04" y="-138.75" font-family="Helvetica,sans-Serif" font-size="10.00">src/Autonomous/Steps</text>
<text xml:space="preserve" text-anchor="middle" x="1798.04" y="-127.5" font-family="Helvetica,sans-Serif" font-size="10.00">/DriveLineUntilWall.hpp</text>
</a>
</g>
</g>
<!-- Node1&#45;&gt;Node18 -->
<g id="edge30_Node000001_Node000018" class="edge">
<title>Node1&#45;&gt;Node18</title>
<g id="a_edge30_Node000001_Node000018"><a xlink:title=" ">
<path fill="none" stroke="#63b8ff" d="M1579.25,-252.05C1612.13,-245.02 1651.71,-234.3 1685.04,-218.75 1722.63,-201.22 1760.72,-170.79 1781.67,-152.71"/>
<polygon fill="#63b8ff" stroke="#63b8ff" points="1578.94,-248.54 1569.86,-253.98 1580.36,-255.39 1578.94,-248.54"/>
</a>
</g>
</g>
<!-- Node19 -->
<g id="Node000019" class="node">
<title>Node19</title>
<g id="a_Node000019"><a xlink:href="_drive_radius_angle_8hpp.html" target="_top" xlink:title="AutoStep that drives along an arc for a specified heading change (degrees).">
<polygon fill="white" stroke="#666666" points="1991.29,-152.25 1874.79,-152.25 1874.79,-121.75 1991.29,-121.75 1991.29,-152.25"/>
<text xml:space="preserve" text-anchor="start" x="1882.79" y="-138.75" font-family="Helvetica,sans-Serif" font-size="10.00">src/Autonomous/Steps</text>
<text xml:space="preserve" text-anchor="middle" x="1933.04" y="-127.5" font-family="Helvetica,sans-Serif" font-size="10.00">/DriveRadiusAngle.hpp</text>
</a>
</g>
</g>
<!-- Node1&#45;&gt;Node19 -->
<g id="edge32_Node000001_Node000019" class="edge">
<title>Node1&#45;&gt;Node19</title>
<g id="a_edge32_Node000001_Node000019"><a xlink:title=" ">
<path fill="none" stroke="#63b8ff" d="M1578.35,-252.26C1620.5,-244.5 1675.98,-232.99 1724.04,-218.75 1757.52,-208.83 1846.8,-173.12 1897.18,-152.67"/>
<polygon fill="#63b8ff" stroke="#63b8ff" points="1577.82,-248.8 1568.6,-254.03 1579.07,-255.69 1577.82,-248.8"/>
</a>
</g>
</g>
<!-- Node20 -->
<g id="Node000020" class="node">
<title>Node20</title>
<g id="a_Node000020"><a xlink:href="_drive_radius_at_velocity_8hpp.html" target="_top" xlink:title="AutoStep that drives along a constant&#45;radius arc for a specified arc length.">
<polygon fill="white" stroke="#666666" points="2144.67,-152.25 2009.42,-152.25 2009.42,-121.75 2144.67,-121.75 2144.67,-152.25"/>
<text xml:space="preserve" text-anchor="start" x="2017.42" y="-138.75" font-family="Helvetica,sans-Serif" font-size="10.00">src/Autonomous/Steps</text>
<text xml:space="preserve" text-anchor="middle" x="2077.04" y="-127.5" font-family="Helvetica,sans-Serif" font-size="10.00">/DriveRadiusAtVelocity.hpp</text>
</a>
</g>
</g>
<!-- Node1&#45;&gt;Node20 -->
<g id="edge34_Node000001_Node000020" class="edge">
<title>Node1&#45;&gt;Node20</title>
<g id="a_edge34_Node000001_Node000020"><a xlink:title=" ">
<path fill="none" stroke="#63b8ff" d="M1593.09,-254.97C1646.61,-248.16 1717.9,-236.71 1779.04,-218.75 1812,-209.07 1817.36,-198.79 1850.04,-188.25 1879.14,-178.87 1953.3,-162.99 2009,-151.59"/>
<polygon fill="#63b8ff" stroke="#63b8ff" points="1592.94,-251.46 1583.45,-256.16 1593.8,-258.4 1592.94,-251.46"/>
</a>
</g>
</g>
<!-- Node21 -->
<g id="Node000021" class="node">
<title>Node21</title>
<g id="a_Node000021"><a xlink:href="_drive_until_wall_8hpp.html" target="_top" xlink:title="AutoStep that drives straight toward a wall until the distance sensor reaches a setpoint.">
<polygon fill="white" stroke="#666666" points="2083.92,-218.75 1968.17,-218.75 1968.17,-188.25 2083.92,-188.25 2083.92,-218.75"/>
<text xml:space="preserve" text-anchor="start" x="1976.17" y="-205.25" font-family="Helvetica,sans-Serif" font-size="10.00">src/Autonomous/Steps</text>
<text xml:space="preserve" text-anchor="middle" x="2026.04" y="-194" font-family="Helvetica,sans-Serif" font-size="10.00">/DriveUntilWall.hpp</text>
</a>
</g>
</g>
<!-- Node1&#45;&gt;Node21 -->
<g id="edge36_Node000001_Node000021" class="edge">
<title>Node1&#45;&gt;Node21</title>
<g id="a_edge36_Node000001_Node000021"><a xlink:title=" ">
<path fill="none" stroke="#63b8ff" d="M1593.31,-257.49C1682.2,-250.52 1828.71,-237.44 1954.04,-218.75 1958.58,-218.07 1963.27,-217.31 1967.97,-216.49"/>
<polygon fill="#63b8ff" stroke="#63b8ff" points="1593.17,-253.99 1583.47,-258.26 1593.71,-260.97 1593.17,-253.99"/>
</a>
</g>
</g>
<!-- Node22 -->
<g id="Node000022" class="node">
<title>Node22</title>
<g id="a_Node000022"><a xlink:href="_fire_step_8hpp.html" target="_top" xlink:title="AutoStep that fires the shooter for a fixed duration, then stops it.">
<polygon fill="white" stroke="#666666" points="2278.92,-152.25 2163.17,-152.25 2163.17,-121.75 2278.92,-121.75 2278.92,-152.25"/>
<text xml:space="preserve" text-anchor="start" x="2171.17" y="-138.75" font-family="Helvetica,sans-Serif" font-size="10.00">src/Autonomous/Steps</text>
<text xml:space="preserve" text-anchor="middle" x="2221.04" y="-127.5" font-family="Helvetica,sans-Serif" font-size="10.00">/FireStep.hpp</text>
</a>
</g>
</g>
<!-- Node1&#45;&gt;Node22 -->
<g id="edge37_Node000001_Node000022" class="edge">
<title>Node1&#45;&gt;Node22</title>
<g id="a_edge37_Node000001_Node000022"><a xlink:title=" ">
<path fill="none" stroke="#63b8ff" d="M1593.27,-259.48C1658.32,-254.58 1751.24,-243.54 1829.04,-218.75 1857.17,-209.79 1859.89,-197.14 1888.04,-188.25 2001.81,-152.33 2036.5,-172.67 2154.04,-152.25 2156.97,-151.74 2159.97,-151.2 2162.99,-150.63"/>
<polygon fill="#63b8ff" stroke="#63b8ff" points="1593.1,-255.98 1583.37,-260.19 1593.6,-262.96 1593.1,-255.98"/>
</a>
</g>
</g>
<!-- Node23 -->
<g id="Node000023" class="node">
<title>Node23</title>
<g id="a_Node000023"><a xlink:href="_follow_line_step_8hpp.html" target="_top" xlink:title="AutoStep that follows a line for a specified distance.">
<polygon fill="white" stroke="#666666" points="1301.92,-218.75 1186.17,-218.75 1186.17,-188.25 1301.92,-188.25 1301.92,-218.75"/>
<text xml:space="preserve" text-anchor="start" x="1194.17" y="-205.25" font-family="Helvetica,sans-Serif" font-size="10.00">src/Autonomous/Steps</text>
<text xml:space="preserve" text-anchor="middle" x="1244.04" y="-194" font-family="Helvetica,sans-Serif" font-size="10.00">/FollowLineStep.hpp</text>
</a>
</g>
</g>
<!-- Node1&#45;&gt;Node23 -->
<g id="edge39_Node000001_Node000023" class="edge">
<title>Node1&#45;&gt;Node23</title>
<g id="a_edge39_Node000001_Node000023"><a xlink:title=" ">
<path fill="none" stroke="#63b8ff" d="M1459.71,-251.88C1414.48,-241.94 1349.18,-227.6 1302.29,-217.3"/>
<polygon fill="#63b8ff" stroke="#63b8ff" points="1458.76,-255.25 1469.28,-253.98 1460.26,-248.42 1458.76,-255.25"/>
</a>
</g>
</g>
<!-- Node24 -->
<g id="Node000024" class="node">
<title>Node24</title>
<g id="a_Node000024"><a xlink:href="_index_block_8hpp.html" target="_top" xlink:title="AutoStep that routes a newly acquired block to the correct hopper slot.">
<polygon fill="white" stroke="#666666" points="543.92,-218.75 428.17,-218.75 428.17,-188.25 543.92,-188.25 543.92,-218.75"/>
<text xml:space="preserve" text-anchor="start" x="436.17" y="-205.25" font-family="Helvetica,sans-Serif" font-size="10.00">src/Autonomous/Steps</text>
<text xml:space="preserve" text-anchor="middle" x="486.04" y="-194" font-family="Helvetica,sans-Serif" font-size="10.00">/IndexBlock.hpp</text>
</a>
</g>
</g>
<!-- Node1&#45;&gt;Node24 -->
<g id="edge42_Node000001_Node000024" class="edge">
<title>Node1&#45;&gt;Node24</title>
<g id="a_edge42_Node000001_Node000024"><a xlink:title=" ">
<path fill="none" stroke="#63b8ff" d="M1431.16,-264.05C1265.6,-264.45 876.44,-260.38 553.04,-218.75 550.21,-218.39 547.32,-217.96 544.41,-217.5"/>
<polygon fill="#63b8ff" stroke="#63b8ff" points="1430.71,-267.55 1440.7,-264.02 1430.69,-260.55 1430.71,-267.55"/>
</a>
</g>
</g>
<!-- Node25 -->
<g id="Node000025" class="node">
<title>Node25</title>
<g id="a_Node000025"><a xlink:href="_mine_block_8hpp.html" target="_top" xlink:title="AutoStep that commands the Miner to complete a fixed number of press cycles.">
<polygon fill="white" stroke="#666666" points="1435.92,-218.75 1320.17,-218.75 1320.17,-188.25 1435.92,-188.25 1435.92,-218.75"/>
<text xml:space="preserve" text-anchor="start" x="1328.17" y="-205.25" font-family="Helvetica,sans-Serif" font-size="10.00">src/Autonomous/Steps</text>
<text xml:space="preserve" text-anchor="middle" x="1378.04" y="-194" font-family="Helvetica,sans-Serif" font-size="10.00">/MineBlock.hpp</text>
</a>
</g>
</g>
<!-- Node1&#45;&gt;Node25 -->
<g id="edge44_Node000001_Node000025" class="edge">
<title>Node1&#45;&gt;Node25</title>
<g id="a_edge44_Node000001_Node000025"><a xlink:title=" ">
<path fill="none" stroke="#63b8ff" d="M1480.89,-249.69C1460.09,-240.55 1432.75,-228.54 1411.49,-219.19"/>
<polygon fill="#63b8ff" stroke="#63b8ff" points="1479.45,-252.88 1490.01,-253.7 1482.27,-246.47 1479.45,-252.88"/>
</a>
</g>
</g>
<!-- Node26 -->
<g id="Node000026" class="node">
<title>Node26</title>
<g id="a_Node000026"><a xlink:href="_mine_block_autofire_8hpp.html" target="_top" xlink:title="AutoStep that mines and simultaneously autofires the shooter for a time window.">
<polygon fill="white" stroke="#666666" points="2414.67,-152.25 2297.42,-152.25 2297.42,-121.75 2414.67,-121.75 2414.67,-152.25"/>
<text xml:space="preserve" text-anchor="start" x="2305.42" y="-138.75" font-family="Helvetica,sans-Serif" font-size="10.00">src/Autonomous/Steps</text>
<text xml:space="preserve" text-anchor="middle" x="2356.04" y="-127.5" font-family="Helvetica,sans-Serif" font-size="10.00">/MineBlockAutofire.hpp</text>
</a>
</g>
</g>
<!-- Node1&#45;&gt;Node26 -->
<g id="edge47_Node000001_Node000026" class="edge">
<title>Node1&#45;&gt;Node26</title>
<g id="a_edge47_Node000001_Node000026"><a xlink:title=" ">
<path fill="none" stroke="#63b8ff" d="M1592.87,-262.51C1667.39,-259.6 1780.18,-249.79 1873.04,-218.75 1898.82,-210.13 1900.17,-196.56 1926.04,-188.25 2079.99,-138.83 2128.25,-176.87 2288.04,-152.25 2291.02,-151.79 2294.07,-151.29 2297.14,-150.75"/>
<polygon fill="#63b8ff" stroke="#63b8ff" points="1593.09,-259 1583.22,-262.85 1593.33,-266 1593.09,-259"/>
</a>
</g>
</g>
<!-- Node27 -->
<g id="Node000027" class="node">
<title>Node27</title>
<g id="a_Node000027"><a xlink:href="_parallel_step_8hpp.html" target="_top" xlink:title="AutoStep that runs multiple child steps concurrently.">
<polygon fill="white" stroke="#666666" points="2217.92,-218.75 2102.17,-218.75 2102.17,-188.25 2217.92,-188.25 2217.92,-218.75"/>
<text xml:space="preserve" text-anchor="start" x="2110.17" y="-205.25" font-family="Helvetica,sans-Serif" font-size="10.00">src/Autonomous/Steps</text>
<text xml:space="preserve" text-anchor="middle" x="2160.04" y="-194" font-family="Helvetica,sans-Serif" font-size="10.00">/ParallelStep.hpp</text>
</a>
</g>
</g>
<!-- Node1&#45;&gt;Node27 -->
<g id="edge49_Node000001_Node000027" class="edge">
<title>Node1&#45;&gt;Node27</title>
<g id="a_edge49_Node000001_Node000027"><a xlink:title=" ">
<path fill="none" stroke="#63b8ff" d="M1592.93,-260.56C1705.52,-255.87 1915.65,-244.31 2093.04,-218.75 2095.99,-218.33 2098.99,-217.85 2102.02,-217.33"/>
<polygon fill="#63b8ff" stroke="#63b8ff" points="1593.04,-257.05 1583.19,-260.96 1593.33,-264.04 1593.04,-257.05"/>
</a>
</g>
</g>
<!-- Node28 -->
<g id="Node000028" class="node">
<title>Node28</title>
<g id="a_Node000028"><a xlink:href="_place_on_table_8hpp.html" target="_top" xlink:title="AutoStep stub that places a block on the crafting table.">
<polygon fill="white" stroke="#666666" points="677.92,-218.75 562.17,-218.75 562.17,-188.25 677.92,-188.25 677.92,-218.75"/>
<text xml:space="preserve" text-anchor="start" x="570.17" y="-205.25" font-family="Helvetica,sans-Serif" font-size="10.00">src/Autonomous/Steps</text>
<text xml:space="preserve" text-anchor="middle" x="620.04" y="-194" font-family="Helvetica,sans-Serif" font-size="10.00">/PlaceOnTable.hpp</text>
</a>
</g>
</g>
<!-- Node1&#45;&gt;Node28 -->
<g id="edge50_Node000001_Node000028" class="edge">
<title>Node1&#45;&gt;Node28</title>
<g id="a_edge50_Node000001_Node000028"><a xlink:title=" ">
<path fill="none" stroke="#63b8ff" d="M1430.94,-263.16C1282.62,-261.84 957.98,-254.67 687.04,-218.75 684.21,-218.37 681.33,-217.94 678.42,-217.47"/>
<polygon fill="#63b8ff" stroke="#63b8ff" points="1430.63,-266.66 1440.66,-263.24 1430.68,-259.66 1430.63,-266.66"/>
</a>
</g>
</g>
<!-- Node29 -->
<g id="Node000029" class="node">
<title>Node29</title>
<g id="a_Node000029"><a xlink:href="_reject_sequence_8hpp.html" target="_top" xlink:title="AutoStep stub that executes the block&#45;rejection sequence.">
<polygon fill="white" stroke="#666666" points="811.92,-218.75 696.17,-218.75 696.17,-188.25 811.92,-188.25 811.92,-218.75"/>
<text xml:space="preserve" text-anchor="start" x="704.17" y="-205.25" font-family="Helvetica,sans-Serif" font-size="10.00">src/Autonomous/Steps</text>
<text xml:space="preserve" text-anchor="middle" x="754.04" y="-194" font-family="Helvetica,sans-Serif" font-size="10.00">/RejectSequence.hpp</text>
</a>
</g>
</g>
<!-- Node1&#45;&gt;Node29 -->
<g id="edge52_Node000001_Node000029" class="edge">
<title>Node1&#45;&gt;Node29</title>
<g id="a_edge52_Node000001_Node000029"><a xlink:title=" ">
<path fill="none" stroke="#63b8ff" d="M1430.83,-261.52C1302.08,-257.8 1043.44,-247.21 826.04,-218.75 821.5,-218.15 816.8,-217.44 812.09,-216.66"/>
<polygon fill="#63b8ff" stroke="#63b8ff" points="1430.52,-265.01 1440.61,-261.79 1430.72,-258.01 1430.52,-265.01"/>
</a>
</g>
</g>
<!-- Node3 -->
<g id="Node000003" class="node">
<title>Node3</title>
<g id="a_Node000003"><a xlink:href="_robot_8hpp.html" target="_top" xlink:title="Top&#45;level robot class that owns all subsystems and the autonomous scheduler.">
<polygon fill="white" stroke="#666666" points="1495.79,-85.75 1418.29,-85.75 1418.29,-66.5 1495.79,-66.5 1495.79,-85.75"/>
<text xml:space="preserve" text-anchor="middle" x="1457.04" y="-72.25" font-family="Helvetica,sans-Serif" font-size="10.00">src/Robot.hpp</text>
</a>
</g>
</g>
<!-- Node2&#45;&gt;Node3 -->
<g id="edge2_Node000002_Node000003" class="edge">
<title>Node2&#45;&gt;Node3</title>
<g id="a_edge2_Node000002_Node000003"><a xlink:title=" ">
<path fill="none" stroke="#63b8ff" d="M2420.93,-121.5C2055.95,-81.95 1625.6,-77.55 1495.87,-77.14"/>
<polygon fill="#63b8ff" stroke="#63b8ff" points="2420.42,-124.97 2430.74,-122.58 2421.19,-118.01 2420.42,-124.97"/>
</a>
</g>
</g>
<!-- Node3&#45;&gt;Node4 -->
<g id="edge3_Node000003_Node000004" class="edge">
<title>Node3&#45;&gt;Node4</title>
<g id="a_edge3_Node000003_Node000004"><a xlink:title=" ">
<path fill="none" stroke="#63b8ff" d="M1406.42,-71.06C1277.76,-60.74 938.11,-33.5 791.75,-21.76"/>
<polygon fill="#63b8ff" stroke="#63b8ff" points="1406.08,-74.55 1416.33,-71.86 1406.64,-67.57 1406.08,-74.55"/>
</a>
</g>
</g>
<!-- Node5 -->
<g id="Node000005" class="node">
<title>Node5</title>
<g id="a_Node000005"><a xlink:href="main_8cpp.html" target="_top" xlink:title="Arduino entry point — instantiates the Robot and drives the main loop.">
<polygon fill="white" stroke="#666666" points="1493.17,-24.88 1420.92,-24.88 1420.92,-5.63 1493.17,-5.63 1493.17,-24.88"/>
<text xml:space="preserve" text-anchor="middle" x="1457.04" y="-11.38" font-family="Helvetica,sans-Serif" font-size="10.00">src/main.cpp</text>
</a>
</g>
</g>
<!-- Node3&#45;&gt;Node5 -->
<g id="edge4_Node000003_Node000005" class="edge">
<title>Node3&#45;&gt;Node5</title>
<g id="a_edge4_Node000003_Node000005"><a xlink:title=" ">
<path fill="none" stroke="#63b8ff" d="M1457.04,-54.7C1457.04,-44.67 1457.04,-33.08 1457.04,-25.28"/>
<polygon fill="#63b8ff" stroke="#63b8ff" points="1453.54,-54.67 1457.04,-64.67 1460.54,-54.67 1453.54,-54.67"/>
</a>
</g>
</g>
<!-- Node6&#45;&gt;Node7 -->
<g id="edge6_Node000006_Node000007" class="edge">
<title>Node6&#45;&gt;Node7</title>
<g id="a_edge6_Node000006_Node000007"><a xlink:title=" ">
<path fill="none" stroke="#63b8ff" d="M925.82,-187.85C904.27,-175.32 873.93,-157.69 855.7,-147.1"/>
<polygon fill="#63b8ff" stroke="#63b8ff" points="923.9,-190.77 934.3,-192.77 927.41,-184.72 923.9,-190.77"/>
</a>
</g>
</g>
<!-- Node7&#45;&gt;Node3 -->
<g id="edge8_Node000007_Node000003" class="edge">
<title>Node7&#45;&gt;Node3</title>
<g id="a_edge8_Node000007_Node000003"><a xlink:title=" ">
<path fill="none" stroke="#63b8ff" d="M922.18,-127.74C942.1,-125.75 963.33,-123.66 983.04,-121.75 1144.5,-106.11 1336.97,-88.22 1418.02,-80.73"/>
<polygon fill="#63b8ff" stroke="#63b8ff" points="922.06,-124.23 912.46,-128.71 922.76,-131.2 922.06,-124.23"/>
</a>
</g>
</g>
<!-- Node8 -->
<g id="Node000008" class="node">
<title>Node8</title>
<g id="a_Node000008"><a xlink:href="_planner_8cpp.html" target="_top" xlink:title="Implementation of the autonomous Planner state machine.">
<polygon fill="white" stroke="#666666" points="910.67,-85.75 769.42,-85.75 769.42,-66.5 910.67,-66.5 910.67,-85.75"/>
<text xml:space="preserve" text-anchor="middle" x="840.04" y="-72.25" font-family="Helvetica,sans-Serif" font-size="10.00">src/Autonomous/Planner.cpp</text>
</a>
</g>
</g>
<!-- Node7&#45;&gt;Node8 -->
<g id="edge7_Node000007_Node000008" class="edge">
<title>Node7&#45;&gt;Node8</title>
<g id="a_edge7_Node000007_Node000008"><a xlink:title=" ">
<path fill="none" stroke="#63b8ff" d="M840.04,-115.57C840.04,-105.54 840.04,-93.96 840.04,-86.15"/>
<polygon fill="#63b8ff" stroke="#63b8ff" points="836.54,-115.54 840.04,-125.54 843.54,-115.54 836.54,-115.54"/>
</a>
</g>
</g>
<!-- Node9&#45;&gt;Node3 -->
<g id="edge11_Node000009_Node000003" class="edge">
<title>Node9&#45;&gt;Node3</title>
<g id="a_edge11_Node000009_Node000003"><a xlink:title=" ">
<path fill="none" stroke="#63b8ff" d="M1266.72,-124.21C1311.99,-113.01 1379.09,-96.41 1420.34,-86.21"/>
<polygon fill="#63b8ff" stroke="#63b8ff" points="1266.05,-120.77 1257.18,-126.57 1267.73,-127.56 1266.05,-120.77"/>
</a>
</g>
</g>
<!-- Node10&#45;&gt;Node3 -->
<g id="edge13_Node000010_Node000003" class="edge">
<title>Node10&#45;&gt;Node3</title>
<g id="a_edge13_Node000010_Node000003"><a xlink:title=" ">
<path fill="none" stroke="#63b8ff" d="M1411.54,-114.33C1423.42,-104.62 1436.79,-93.69 1445.94,-86.2"/>
<polygon fill="#63b8ff" stroke="#63b8ff" points="1409.54,-111.45 1404.01,-120.49 1413.97,-116.87 1409.54,-111.45"/>
</a>
</g>
</g>
<!-- Node11&#45;&gt;Node7 -->
<g id="edge15_Node000011_Node000007" class="edge">
<title>Node11&#45;&gt;Node7</title>
<g id="a_edge15_Node000011_Node000007"><a xlink:title=" ">
<path fill="none" stroke="#63b8ff" d="M153.36,-188.06C384.22,-156.93 646.15,-144.61 769.31,-140.17"/>
<polygon fill="#63b8ff" stroke="#63b8ff" points="152.98,-184.58 143.55,-189.4 153.93,-191.51 152.98,-184.58"/>
</a>
</g>
</g>
<!-- Node12&#45;&gt;Node3 -->
<g id="edge18_Node000012_Node000003" class="edge">
<title>Node12&#45;&gt;Node3</title>
<g id="a_edge18_Node000012_Node000003"><a xlink:title=" ">
<path fill="none" stroke="#63b8ff" d="M1442.72,-188.3C1357.97,-179.25 1174.84,-202.46 1130.04,-152.25 1121.02,-142.14 1121.13,-131.96 1130.04,-121.75 1167.01,-79.39 1339.47,-75.75 1417.96,-76.36"/>
<polygon fill="#63b8ff" stroke="#63b8ff" points="1442.13,-191.75 1452.5,-189.6 1443.05,-184.81 1442.13,-191.75"/>
</a>
</g>
</g>
<!-- Node12&#45;&gt;Node7 -->
<g id="edge17_Node000012_Node000007" class="edge">
<title>Node12&#45;&gt;Node7</title>
<g id="a_edge17_Node000012_Node000007"><a xlink:title=" ">
<path fill="none" stroke="#63b8ff" d="M1442.79,-188.09C1324.86,-171.98 1043.44,-151.82 910.99,-142.76"/>
<polygon fill="#63b8ff" stroke="#63b8ff" points="1442.13,-191.53 1452.52,-189.48 1443.11,-184.6 1442.13,-191.53"/>
</a>
</g>
</g>
<!-- Node13&#45;&gt;Node3 -->
<g id="edge20_Node000013_Node000003" class="edge">
<title>Node13&#45;&gt;Node3</title>
<g id="a_edge20_Node000013_Node000003"><a xlink:title=" ">
<path fill="none" stroke="#63b8ff" d="M1502.55,-114.33C1490.67,-104.62 1477.3,-93.69 1468.14,-86.2"/>
<polygon fill="#63b8ff" stroke="#63b8ff" points="1500.12,-116.87 1510.07,-120.49 1504.55,-111.45 1500.12,-116.87"/>
</a>
</g>
</g>
<!-- Node14&#45;&gt;Node3 -->
<g id="edge22_Node000014_Node000003" class="edge">
<title>Node14&#45;&gt;Node3</title>
<g id="a_edge22_Node000014_Node000003"><a xlink:title=" ">
<path fill="none" stroke="#63b8ff" d="M1600.93,-118.25C1564.01,-107.7 1518.73,-94.75 1488.94,-86.24"/>
<polygon fill="#63b8ff" stroke="#63b8ff" points="1599.56,-121.5 1610.14,-120.88 1601.48,-114.77 1599.56,-121.5"/>
</a>
</g>
</g>
<!-- Node15&#45;&gt;Node7 -->
<g id="edge24_Node000015_Node000007" class="edge">
<title>Node15&#45;&gt;Node7</title>
<g id="a_edge24_Node000015_Node000007"><a xlink:title=" ">
<path fill="none" stroke="#63b8ff" d="M287.29,-188.04C466.34,-161.55 665.54,-147.72 769.19,-141.7"/>
<polygon fill="#63b8ff" stroke="#63b8ff" points="286.94,-184.55 277.57,-189.49 287.98,-191.47 286.94,-184.55"/>
</a>
</g>
</g>
<!-- Node16&#45;&gt;Node7 -->
<g id="edge26_Node000016_Node000007" class="edge">
<title>Node16&#45;&gt;Node7</title>
<g id="a_edge26_Node000016_Node000007"><a xlink:title=" ">
<path fill="none" stroke="#63b8ff" d="M421.27,-187.98C549.5,-167.11 687.46,-152.39 769,-144.49"/>
<polygon fill="#63b8ff" stroke="#63b8ff" points="420.88,-184.5 411.58,-189.57 422.02,-191.4 420.88,-184.5"/>
</a>
</g>
</g>
<!-- Node17&#45;&gt;Node3 -->
<g id="edge29_Node000017_Node000003" class="edge">
<title>Node17&#45;&gt;Node3</title>
<g id="a_edge29_Node000017_Node000003"><a xlink:title=" ">
<path fill="none" stroke="#63b8ff" d="M1094.65,-178.16C1085.64,-160.51 1078.43,-137.12 1092.04,-121.75 1113.41,-97.61 1328.31,-83.78 1418.03,-79.02"/>
<polygon fill="#63b8ff" stroke="#63b8ff" points="1091.36,-179.44 1099.29,-186.47 1097.47,-176.03 1091.36,-179.44"/>
</a>
</g>
</g>
<!-- Node17&#45;&gt;Node7 -->
<g id="edge28_Node000017_Node000007" class="edge">
<title>Node17&#45;&gt;Node7</title>
<g id="a_edge28_Node000017_Node000007"><a xlink:title=" ">
<path fill="none" stroke="#63b8ff" d="M1040.7,-185.94C989.02,-173.59 920.36,-157.19 878.23,-147.12"/>
<polygon fill="#63b8ff" stroke="#63b8ff" points="1039.78,-189.31 1050.32,-188.23 1041.4,-182.5 1039.78,-189.31"/>
</a>
</g>
</g>
<!-- Node18&#45;&gt;Node3 -->
<g id="edge31_Node000018_Node000003" class="edge">
<title>Node18&#45;&gt;Node3</title>
<g id="a_edge31_Node000018_Node000003"><a xlink:title=" ">
<path fill="none" stroke="#63b8ff" d="M1727.69,-121.36C1639.19,-105.05 1546.95,-90.65 1496.02,-82.94"/>
<polygon fill="#63b8ff" stroke="#63b8ff" points="1726.78,-124.75 1737.25,-123.13 1728.05,-117.87 1726.78,-124.75"/>
</a>
</g>
</g>
<!-- Node19&#45;&gt;Node3 -->
<g id="edge33_Node000019_Node000003" class="edge">
<title>Node19&#45;&gt;Node3</title>
<g id="a_edge33_Node000019_Node000003"><a xlink:title=" ">
<path fill="none" stroke="#63b8ff" d="M1863.67,-121.47C1722.82,-99.36 1567.27,-85.71 1496.13,-80.07"/>
<polygon fill="#63b8ff" stroke="#63b8ff" points="1862.72,-124.86 1873.15,-122.98 1863.82,-117.95 1862.72,-124.86"/>
</a>
</g>
</g>
<!-- Node20&#45;&gt;Node3 -->
<g id="edge35_Node000020_Node000003" class="edge">
<title>Node20&#45;&gt;Node3</title>
<g id="a_edge35_Node000020_Node000003"><a xlink:title=" ">
<path fill="none" stroke="#63b8ff" d="M1997.8,-121.55C1803.47,-96.2 1583.75,-83.43 1496.04,-78.98"/>
<polygon fill="#63b8ff" stroke="#63b8ff" points="1997.21,-125 2007.58,-122.84 1998.13,-118.06 1997.21,-125"/>
</a>
</g>
</g>
<!-- Node22&#45;&gt;Node3 -->
<g id="edge38_Node000022_Node000003" class="edge">
<title>Node22&#45;&gt;Node3</title>
<g id="a_edge38_Node000022_Node000003"><a xlink:title=" ">
<path fill="none" stroke="#63b8ff" d="M2151.67,-121.57C1896.26,-87.26 1600.85,-79.43 1496.16,-77.64"/>
<polygon fill="#63b8ff" stroke="#63b8ff" points="2151.15,-125.03 2161.53,-122.92 2152.09,-118.1 2151.15,-125.03"/>
</a>
</g>
</g>
<!-- Node23&#45;&gt;Node3 -->
<g id="edge41_Node000023_Node000003" class="edge">
<title>Node23&#45;&gt;Node3</title>
<g id="a_edge41_Node000023_Node000003"><a xlink:title=" ">
<path fill="none" stroke="#63b8ff" d="M1174.66,-186.04C1143.27,-177.05 1111.16,-165.14 1102.04,-152.25 1094.22,-141.18 1093.08,-131.92 1102.04,-121.75 1122.72,-98.31 1330.28,-84.15 1418.11,-79.16"/>
<polygon fill="#63b8ff" stroke="#63b8ff" points="1173.66,-189.4 1184.23,-188.69 1175.53,-182.65 1173.66,-189.4"/>
</a>
</g>
</g>
<!-- Node23&#45;&gt;Node7 -->
<g id="edge40_Node000023_Node000007" class="edge">
<title>Node23&#45;&gt;Node7</title>
<g id="a_edge40_Node000023_Node000007"><a xlink:title=" ">
<path fill="none" stroke="#63b8ff" d="M1174.71,-187.9C1077.04,-170.48 975.38,-155.99 909.63,-147.1"/>
<polygon fill="#63b8ff" stroke="#63b8ff" points="1174.03,-191.33 1184.49,-189.65 1175.27,-184.44 1174.03,-191.33"/>
</a>
</g>
</g>
<!-- Node24&#45;&gt;Node7 -->
<g id="edge43_Node000024_Node000007" class="edge">
<title>Node24&#45;&gt;Node7</title>
<g id="a_edge43_Node000024_Node000007"><a xlink:title=" ">
<path fill="none" stroke="#63b8ff" d="M555.38,-187.84C641.15,-171.35 729.2,-156.32 784.65,-147.09"/>
<polygon fill="#63b8ff" stroke="#63b8ff" points="554.76,-184.39 545.61,-189.73 556.09,-191.27 554.76,-184.39"/>
</a>
</g>
</g>
<!-- Node25&#45;&gt;Node3 -->
<g id="edge46_Node000025_Node000003" class="edge">
<title>Node25&#45;&gt;Node3</title>
<g id="a_edge46_Node000025_Node000003"><a xlink:title=" ">
<path fill="none" stroke="#63b8ff" d="M1308.85,-188.04C1210.7,-171.83 1061.72,-187.14 1119.04,-121.75 1138.53,-99.52 1333.39,-84.81 1418.08,-79.42"/>
<polygon fill="#63b8ff" stroke="#63b8ff" points="1308,-191.44 1318.47,-189.78 1309.26,-184.55 1308,-191.44"/>
</a>
</g>
</g>
<!-- Node25&#45;&gt;Node7 -->
<g id="edge45_Node000025_Node000007" class="edge">
<title>Node25&#45;&gt;Node7</title>
<g id="a_edge45_Node000025_Node000007"><a xlink:title=" ">
<path fill="none" stroke="#63b8ff" d="M1308.99,-188.03C1161.85,-165.05 1001.15,-150.48 910.96,-143.27"/>
<polygon fill="#63b8ff" stroke="#63b8ff" points="1308.09,-191.43 1318.51,-189.54 1309.18,-184.52 1308.09,-191.43"/>
</a>
</g>
</g>
<!-- Node26&#45;&gt;Node3 -->
<g id="edge48_Node000026_Node000003" class="edge">
<title>Node26&#45;&gt;Node3</title>
<g id="a_edge48_Node000026_Node000003"><a xlink:title=" ">
<path fill="none" stroke="#63b8ff" d="M2286.17,-121.66C1976.43,-82 1614.1,-77.5 1496.18,-77.11"/>
<polygon fill="#63b8ff" stroke="#63b8ff" points="2285.3,-125.08 2295.66,-122.89 2286.2,-118.14 2285.3,-125.08"/>
</a>
</g>
</g>
<!-- Node28&#45;&gt;Node7 -->
<g id="edge51_Node000028_Node000007" class="edge">
<title>Node28&#45;&gt;Node7</title>
<g id="a_edge51_Node000028_Node000007"><a xlink:title=" ">
<path fill="none" stroke="#63b8ff" d="M681.08,-184.6C722.67,-172.41 775.98,-156.78 809.07,-147.08"/>
<polygon fill="#63b8ff" stroke="#63b8ff" points="680.3,-181.19 671.69,-187.36 682.27,-187.9 680.3,-181.19"/>
</a>
</g>
</g>
<!-- Node29&#45;&gt;Node7 -->
<g id="edge53_Node000029_Node000007" class="edge">
<title>Node29&#45;&gt;Node7</title>
<g id="a_edge53_Node000029_Node000007"><a xlink:title=" ">
<path fill="none" stroke="#63b8ff" d="M782.34,-181.28C797.95,-169.57 816.51,-155.65 828.28,-146.82"/>
<polygon fill="#63b8ff" stroke="#63b8ff" points="780.67,-178.16 774.77,-186.96 784.87,-183.76 780.67,-178.16"/>
</a>
</g>
</g>
</g>
</svg>
