<?xml version="1.0" encoding="UTF-8" standalone="no"?>
<!DOCTYPE svg PUBLIC "-//W3C//DTD SVG 1.1//EN"
 "http://www.w3.org/Graphics/SVG/1.1/DTD/svg11.dtd">
<!-- Generated by graphviz version 14.1.2 (20260124.0452)
 -->
<!-- Title: src/Autonomous/Steps/CompositeStep.hpp Pages: 1 -->
<svg width="529pt" height="260pt"
 viewBox="0.00 0.00 529.00 260.00" xmlns="http://www.w3.org/2000/svg" xmlns:xlink="http://www.w3.org/1999/xlink">
<g id="graph0" class="graph" transform="scale(1 1) rotate(0) translate(4 255.5)">
<title>src/Autonomous/Steps/CompositeStep.hpp</title>
<!-- Node1 -->
<g id="Node000001" class="node">
<title>Node1</title>
<g id="a_Node000001"><a xlink:title="AutoStep that runs a heap&#45;owned sequence of child steps in order.">
<polygon fill="#999999" stroke="#666666" points="174.12,-251.5 58.38,-251.5 58.38,-221 174.12,-221 174.12,-251.5"/>
<text xml:space="preserve" text-anchor="start" x="66.38" y="-238" font-family="Helvetica,sans-Serif" font-size="10.00">src/Autonomous/Steps</text>
<text xml:space="preserve" text-anchor="middle" x="116.25" y="-226.75" font-family="Helvetica,sans-Serif" font-size="10.00">/CompositeStep.hpp</text>
</a>
</g>
</g>
<!-- Node2 -->
<g id="Node000002" class="node">
<title>Node2</title>
<g id="a_Node000002"><a xlink:href="_auto_step_8h.html" target="_top" xlink:title="Abstract interface that every autonomous step must implement.">
<polygon fill="white" stroke="#666666" points="122.5,-185 0,-185 0,-165.75 122.5,-165.75 122.5,-185"/>
<text xml:space="preserve" text-anchor="middle" x="61.25" y="-171.5" font-family="Helvetica,sans-Serif" font-size="10.00">Autonomous/AutoStep.h</text>
</a>
</g>
</g>
<!-- Node1&#45;&gt;Node2 -->
<g id="edge1_Node000001_Node000002" class="edge">
<title>Node1&#45;&gt;Node2</title>
<g id="a_edge1_Node000001_Node000002"><a xlink:title=" ">
<path fill="none" stroke="#63b8ff" d="M102.65,-220.7C95.01,-212.51 85.41,-202.23 77.38,-193.64"/>
<polygon fill="#63b8ff" stroke="#63b8ff" points="80.15,-191.48 70.76,-186.56 75.03,-196.25 80.15,-191.48"/>
</a>
</g>
</g>
<!-- Node3 -->
<g id="Node000003" class="node">
<title>Node3</title>
<g id="a_Node000003"><a xlink:href="_config_8hpp.html" target="_top" xlink:title="Central configuration: pin assignments, physical constants, and PID gains.">
<polygon fill="white" stroke="#666666" points="203.88,-185 140.62,-185 140.62,-165.75 203.88,-165.75 203.88,-185"/>
<text xml:space="preserve" text-anchor="middle" x="172.25" y="-171.5" font-family="Helvetica,sans-Serif" font-size="10.00">Config.hpp</text>
</a>
</g>
</g>
<!-- Node1&#45;&gt;Node3 -->
<g id="edge2_Node000001_Node000003" class="edge">
<title>Node1&#45;&gt;Node3</title>
<g id="a_edge2_Node000001_Node000003"><a xlink:title=" ">
<path fill="none" stroke="#63b8ff" d="M130.09,-220.7C137.88,-212.51 147.65,-202.23 155.83,-193.64"/>
<polygon fill="#63b8ff" stroke="#63b8ff" points="158.22,-196.21 162.57,-186.55 153.15,-191.38 158.22,-196.21"/>
</a>
</g>
</g>
<!-- Node4 -->
<g id="Node000004" class="node">
<title>Node4</title>
<g id="a_Node000004"><a xlink:title=" ">
<polygon fill="#e0e0e0" stroke="#999999" points="192.88,-19.25 135.62,-19.25 135.62,0 192.88,0 192.88,-19.25"/>
<text xml:space="preserve" text-anchor="middle" x="164.25" y="-5.75" font-family="Helvetica,sans-Serif" font-size="10.00">Arduino.h</text>
</a>
</g>
</g>
<!-- Node3&#45;&gt;Node4 -->
<g id="edge3_Node000003_Node000004" class="edge">
<title>Node3&#45;&gt;Node4</title>
<g id="a_edge3_Node000003_Node000004"><a xlink:title=" ">
<path fill="none" stroke="#63b8ff" d="M159.85,-165.36C139.5,-149.65 99.91,-115.05 86.25,-74.5 83.52,-66.39 81.96,-62.65 86.25,-55.25 94.69,-40.7 109.86,-30.49 124.59,-23.54"/>
<polygon fill="#63b8ff" stroke="#63b8ff" points="125.92,-26.78 133.74,-19.64 123.17,-20.34 125.92,-26.78"/>
</a>
</g>
</g>
<!-- Node5 -->
<g id="Node000005" class="node">
<title>Node5</title>
<g id="a_Node000005"><a xlink:href="_dual_motor_controller_8hpp.html" target="_top" xlink:title="Dual closed&#45;loop motor controller wrapping an L298N driver with two independent PID loops.">
<polygon fill="white" stroke="#666666" points="306.25,-129.75 146.25,-129.75 146.25,-110.5 306.25,-110.5 306.25,-129.75"/>
<text xml:space="preserve" text-anchor="middle" x="226.25" y="-116.25" font-family="Helvetica,sans-Serif" font-size="10.00">Devices/DualMotorController.hpp</text>
</a>
</g>
</g>
<!-- Node3&#45;&gt;Node5 -->
<g id="edge4_Node000003_Node000005" class="edge">
<title>Node3&#45;&gt;Node5</title>
<g id="a_edge4_Node000003_Node000005"><a xlink:title=" ">
<path fill="none" stroke="#63b8ff" d="M181.17,-165.58C188.7,-158.15 199.72,-147.29 208.98,-138.16"/>
<polygon fill="#63b8ff" stroke="#63b8ff" points="211.4,-140.69 216.06,-131.17 206.48,-135.7 211.4,-140.69"/>
</a>
</g>
</g>
<!-- Node6 -->
<g id="Node000006" class="node">
<title>Node6</title>
<g id="a_Node000006"><a xlink:href="_p_i_d_8hpp.html" target="_top" xlink:title="PID controller classes with optional nonlinear extensions and feedforward support.">
<polygon fill="white" stroke="#666666" points="168.75,-74.5 95.75,-74.5 95.75,-55.25 168.75,-55.25 168.75,-74.5"/>
<text xml:space="preserve" text-anchor="middle" x="132.25" y="-61" font-family="Helvetica,sans-Serif" font-size="10.00">utils/PID.hpp</text>
</a>
</g>
</g>
<!-- Node3&#45;&gt;Node6 -->
<g id="edge11_Node000003_Node000006" class="edge">
<title>Node3&#45;&gt;Node6</title>
<g id="a_edge11_Node000003_Node000006"><a xlink:title=" ">
<path fill="none" stroke="#63b8ff" d="M162.63,-165.5C154.3,-157.16 142.76,-143.88 137.25,-129.75 131.86,-115.91 130.73,-99.14 130.88,-86.25"/>
<polygon fill="#63b8ff" stroke="#63b8ff" points="134.37,-86.56 131.29,-76.43 127.38,-86.27 134.37,-86.56"/>
</a>
</g>
</g>
<!-- Node9 -->
<g id="Node000009" class="node">
<title>Node9</title>
<g id="a_Node000009"><a xlink:title=" ">
<polygon fill="#e0e0e0" stroke="#999999" points="367.75,-129.75 324.75,-129.75 324.75,-110.5 367.75,-110.5 367.75,-129.75"/>
<text xml:space="preserve" text-anchor="middle" x="346.25" y="-116.25" font-family="Helvetica,sans-Serif" font-size="10.00">cmath</text>
</a>
</g>
</g>
<!-- Node3&#45;&gt;Node9 -->
<g id="edge12_Node000003_Node000009" class="edge">
<title>Node3&#45;&gt;Node9</title>
<g id="a_edge12_Node000003_Node000009"><a xlink:title=" ">
<path fill="none" stroke="#63b8ff" d="M201.77,-165.34C232.82,-155.84 281.55,-140.93 313.7,-131.09"/>
<polygon fill="#63b8ff" stroke="#63b8ff" points="314.33,-134.55 322.87,-128.28 312.29,-127.86 314.33,-134.55"/>
</a>
</g>
</g>
<!-- Node5&#45;&gt;Node4 -->
<g id="edge5_Node000005_Node000004" class="edge">
<title>Node5&#45;&gt;Node4</title>
<g id="a_edge5_Node000005_Node000004"><a xlink:title=" ">
<path fill="none" stroke="#63b8ff" d="M221.18,-110.25C211.14,-92.68 188.56,-53.16 175.04,-29.52"/>
<polygon fill="#63b8ff" stroke="#63b8ff" points="178.15,-27.89 170.14,-20.94 172.07,-31.36 178.15,-27.89"/>
</a>
</g>
</g>
<!-- Node5&#45;&gt;Node6 -->
<g id="edge6_Node000005_Node000006" class="edge">
<title>Node5&#45;&gt;Node6</title>
<g id="a_edge6_Node000005_Node000006"><a xlink:title=" ">
<path fill="none" stroke="#63b8ff" d="M210.3,-110.09C195.99,-101.98 174.72,-89.93 158,-80.46"/>
<polygon fill="#63b8ff" stroke="#63b8ff" points="160.02,-77.58 149.59,-75.7 156.57,-83.67 160.02,-77.58"/>
</a>
</g>
</g>
<!-- Node7 -->
<g id="Node000007" class="node">
<title>Node7</title>
<g id="a_Node000007"><a xlink:title=" ">
<polygon fill="#e0e0e0" stroke="#999999" points="375,-74.5 225.5,-74.5 225.5,-55.25 375,-55.25 375,-74.5"/>
<text xml:space="preserve" text-anchor="middle" x="300.25" y="-61" font-family="Helvetica,sans-Serif" font-size="10.00">DualTB9051FTGMotorShield.h</text>
</a>
</g>
</g>
<!-- Node5&#45;&gt;Node7 -->
<g id="edge8_Node000005_Node000007" class="edge">
<title>Node5&#45;&gt;Node7</title>
<g id="a_edge8_Node000005_Node000007"><a xlink:title=" ">
<path fill="none" stroke="#63b8ff" d="M238.8,-110.09C249.71,-102.24 265.75,-90.7 278.71,-81.37"/>
<polygon fill="#63b8ff" stroke="#63b8ff" points="280.58,-84.34 286.65,-75.66 276.49,-78.66 280.58,-84.34"/>
</a>
</g>
</g>
<!-- Node8 -->
<g id="Node000008" class="node">
<title>Node8</title>
<g id="a_Node000008"><a xlink:href="_l298_n_motor_driver_mega_8h.html" target="_top" xlink:title=" ">
<polygon fill="white" stroke="#666666" points="521.12,-74.5 393.38,-74.5 393.38,-55.25 521.12,-55.25 521.12,-74.5"/>
<text xml:space="preserve" text-anchor="middle" x="457.25" y="-61" font-family="Helvetica,sans-Serif" font-size="10.00">L298NMotorDriverMega.h</text>
</a>
</g>
</g>
<!-- Node5&#45;&gt;Node8 -->
<g id="edge9_Node000005_Node000008" class="edge">
<title>Node5&#45;&gt;Node8</title>
<g id="a_edge9_Node000005_Node000008"><a xlink:title=" ">
<path fill="none" stroke="#63b8ff" d="M265.7,-110.03C304.65,-101.05 364.38,-87.28 406.77,-77.51"/>
<polygon fill="#63b8ff" stroke="#63b8ff" points="407.53,-80.93 416.49,-75.27 405.96,-74.11 407.53,-80.93"/>
</a>
</g>
</g>
<!-- Node6&#45;&gt;Node4 -->
<g id="edge7_Node000006_Node000004" class="edge">
<title>Node6&#45;&gt;Node4</title>
<g id="a_edge7_Node000006_Node000004"><a xlink:title=" ">
<path fill="none" stroke="#63b8ff" d="M137.53,-55.08C141.72,-48.11 147.73,-38.12 152.98,-29.37"/>
<polygon fill="#63b8ff" stroke="#63b8ff" points="155.92,-31.28 158.07,-20.91 149.92,-27.68 155.92,-31.28"/>
</a>
</g>
</g>
<!-- Node8&#45;&gt;Node4 -->
<g id="edge10_Node000008_Node000004" class="edge">
<title>Node8&#45;&gt;Node4</title>
<g id="a_edge10_Node000008_Node000004"><a xlink:title=" ">
<path fill="none" stroke="#63b8ff" d="M407.21,-54.78C349.93,-44.37 257.22,-27.52 204.43,-17.93"/>
<polygon fill="#63b8ff" stroke="#63b8ff" points="205.12,-14.5 194.65,-16.15 203.87,-21.38 205.12,-14.5"/>
</a>
</g>
</g>
</g>
</svg>
