<?xml version="1.0" encoding="UTF-8" standalone="no"?>
<!DOCTYPE svg PUBLIC "-//W3C//DTD SVG 1.1//EN"
 "http://www.w3.org/Graphics/SVG/1.1/DTD/svg11.dtd">
<!-- Generated by graphviz version 14.1.2 (20260124.0452)
 -->
<!-- Title: include/Config.hpp Pages: 1 -->
<svg width="446pt" height="193pt"
 viewBox="0.00 0.00 446.00 193.00" xmlns="http://www.w3.org/2000/svg" xmlns:xlink="http://www.w3.org/1999/xlink">
<g id="graph0" class="graph" transform="scale(1 1) rotate(0) translate(4 189)">
<title>include/Config.hpp</title>
<!-- Node1 -->
<g id="Node000001" class="node">
<title>Node1</title>
<g id="a_Node000001"><a xlink:title=" ">
<polygon fill="#999999" stroke="#666666" points="137.33,-185 40.33,-185 40.33,-165.75 137.33,-165.75 137.33,-185"/>
<text xml:space="preserve" text-anchor="middle" x="88.83" y="-171.5" font-family="Helvetica,sans-Serif" font-size="10.00">include/Config.hpp</text>
</a>
</g>
</g>
<!-- Node2 -->
<g id="Node000002" class="node">
<title>Node2</title>
<g id="a_Node000002"><a xlink:title=" ">
<polygon fill="#e0e0e0" stroke="#999999" points="109.45,-19.25 52.2,-19.25 52.2,0 109.45,0 109.45,-19.25"/>
<text xml:space="preserve" text-anchor="middle" x="80.83" y="-5.75" font-family="Helvetica,sans-Serif" font-size="10.00">Arduino.h</text>
</a>
</g>
</g>
<!-- Node1&#45;&gt;Node2 -->
<g id="edge1_Node000001_Node000002" class="edge">
<title>Node1&#45;&gt;Node2</title>
<g id="a_edge1_Node000001_Node000002"><a xlink:title=" ">
<path fill="none" stroke="#63b8ff" d="M76.43,-165.36C56.08,-149.65 16.49,-115.05 2.83,-74.5 0.1,-66.39 -1.46,-62.65 2.83,-55.25 11.27,-40.7 26.44,-30.49 41.17,-23.54"/>
<polygon fill="#63b8ff" stroke="#63b8ff" points="42.5,-26.78 50.32,-19.64 39.75,-20.34 42.5,-26.78"/>
</a>
</g>
</g>
<!-- Node3 -->
<g id="Node000003" class="node">
<title>Node3</title>
<g id="a_Node000003"><a xlink:href="_dual_motor_controller_8hpp.html" target="_top" xlink:title=" ">
<polygon fill="white" stroke="#666666" points="222.83,-129.75 62.83,-129.75 62.83,-110.5 222.83,-110.5 222.83,-129.75"/>
<text xml:space="preserve" text-anchor="middle" x="142.83" y="-116.25" font-family="Helvetica,sans-Serif" font-size="10.00">Devices/DualMotorController.hpp</text>
</a>
</g>
</g>
<!-- Node1&#45;&gt;Node3 -->
<g id="edge2_Node000001_Node000003" class="edge">
<title>Node1&#45;&gt;Node3</title>
<g id="a_edge2_Node000001_Node000003"><a xlink:title=" ">
<path fill="none" stroke="#63b8ff" d="M97.75,-165.58C105.28,-158.15 116.3,-147.29 125.55,-138.16"/>
<polygon fill="#63b8ff" stroke="#63b8ff" points="127.98,-140.69 132.64,-131.17 123.06,-135.7 127.98,-140.69"/>
</a>
</g>
</g>
<!-- Node4 -->
<g id="Node000004" class="node">
<title>Node4</title>
<g id="a_Node000004"><a xlink:href="_p_i_d_8hpp.html" target="_top" xlink:title=" ">
<polygon fill="white" stroke="#666666" points="85.33,-74.5 12.33,-74.5 12.33,-55.25 85.33,-55.25 85.33,-74.5"/>
<text xml:space="preserve" text-anchor="middle" x="48.83" y="-61" font-family="Helvetica,sans-Serif" font-size="10.00">utils/PID.hpp</text>
</a>
</g>
</g>
<!-- Node1&#45;&gt;Node4 -->
<g id="edge9_Node000001_Node000004" class="edge">
<title>Node1&#45;&gt;Node4</title>
<g id="a_edge9_Node000001_Node000004"><a xlink:title=" ">
<path fill="none" stroke="#63b8ff" d="M79.21,-165.5C70.88,-157.16 59.34,-143.88 53.83,-129.75 48.44,-115.91 47.31,-99.14 47.46,-86.25"/>
<polygon fill="#63b8ff" stroke="#63b8ff" points="50.95,-86.56 47.87,-76.43 43.96,-86.27 50.95,-86.56"/>
</a>
</g>
</g>
<!-- Node7 -->
<g id="Node000007" class="node">
<title>Node7</title>
<g id="a_Node000007"><a xlink:title=" ">
<polygon fill="#e0e0e0" stroke="#999999" points="284.33,-129.75 241.33,-129.75 241.33,-110.5 284.33,-110.5 284.33,-129.75"/>
<text xml:space="preserve" text-anchor="middle" x="262.83" y="-116.25" font-family="Helvetica,sans-Serif" font-size="10.00">cmath</text>
</a>
</g>
</g>
<!-- Node1&#45;&gt;Node7 -->
<g id="edge10_Node000001_Node000007" class="edge">
<title>Node1&#45;&gt;Node7</title>
<g id="a_edge10_Node000001_Node000007"><a xlink:title=" ">
<path fill="none" stroke="#63b8ff" d="M118.35,-165.34C149.4,-155.84 198.13,-140.93 230.28,-131.09"/>
<polygon fill="#63b8ff" stroke="#63b8ff" points="230.91,-134.55 239.45,-128.28 228.87,-127.86 230.91,-134.55"/>
</a>
</g>
</g>
<!-- Node3&#45;&gt;Node2 -->
<g id="edge3_Node000003_Node000002" class="edge">
<title>Node3&#45;&gt;Node2</title>
<g id="a_edge3_Node000003_Node000002"><a xlink:title=" ">
<path fill="none" stroke="#63b8ff" d="M137.76,-110.25C127.72,-92.68 105.13,-53.16 91.62,-29.52"/>
<polygon fill="#63b8ff" stroke="#63b8ff" points="94.72,-27.89 86.72,-20.94 88.65,-31.36 94.72,-27.89"/>
</a>
</g>
</g>
<!-- Node3&#45;&gt;Node4 -->
<g id="edge4_Node000003_Node000004" class="edge">
<title>Node3&#45;&gt;Node4</title>
<g id="a_edge4_Node000003_Node000004"><a xlink:title=" ">
<path fill="none" stroke="#63b8ff" d="M126.88,-110.09C112.57,-101.98 91.3,-89.93 74.58,-80.46"/>
<polygon fill="#63b8ff" stroke="#63b8ff" points="76.6,-77.58 66.17,-75.7 73.15,-83.67 76.6,-77.58"/>
</a>
</g>
</g>
<!-- Node5 -->
<g id="Node000005" class="node">
<title>Node5</title>
<g id="a_Node000005"><a xlink:title=" ">
<polygon fill="#e0e0e0" stroke="#999999" points="291.58,-74.5 142.08,-74.5 142.08,-55.25 291.58,-55.25 291.58,-74.5"/>
<text xml:space="preserve" text-anchor="middle" x="216.83" y="-61" font-family="Helvetica,sans-Serif" font-size="10.00">DualTB9051FTGMotorShield.h</text>
</a>
</g>
</g>
<!-- Node3&#45;&gt;Node5 -->
<g id="edge6_Node000003_Node000005" class="edge">
<title>Node3&#45;&gt;Node5</title>
<g id="a_edge6_Node000003_Node000005"><a xlink:title=" ">
<path fill="none" stroke="#63b8ff" d="M155.38,-110.09C166.29,-102.24 182.33,-90.7 195.29,-81.37"/>
<polygon fill="#63b8ff" stroke="#63b8ff" points="197.16,-84.34 203.23,-75.66 193.07,-78.66 197.16,-84.34"/>
</a>
</g>
</g>
<!-- Node6 -->
<g id="Node000006" class="node">
<title>Node6</title>
<g id="a_Node000006"><a xlink:href="_l298_n_motor_driver_mega_8h.html" target="_top" xlink:title=" ">
<polygon fill="white" stroke="#666666" points="437.7,-74.5 309.95,-74.5 309.95,-55.25 437.7,-55.25 437.7,-74.5"/>
<text xml:space="preserve" text-anchor="middle" x="373.83" y="-61" font-family="Helvetica,sans-Serif" font-size="10.00">L298NMotorDriverMega.h</text>
</a>
</g>
</g>
<!-- Node3&#45;&gt;Node6 -->
<g id="edge7_Node000003_Node000006" class="edge">
<title>Node3&#45;&gt;Node6</title>
<g id="a_edge7_Node000003_Node000006"><a xlink:title=" ">
<path fill="none" stroke="#63b8ff" d="M182.28,-110.03C221.23,-101.05 280.96,-87.28 323.35,-77.51"/>
<polygon fill="#63b8ff" stroke="#63b8ff" points="324.11,-80.93 333.07,-75.27 322.54,-74.11 324.11,-80.93"/>
</a>
</g>
</g>
<!-- Node4&#45;&gt;Node2 -->
<g id="edge5_Node000004_Node000002" class="edge">
<title>Node4&#45;&gt;Node2</title>
<g id="a_edge5_Node000004_Node000002"><a xlink:title=" ">
<path fill="none" stroke="#63b8ff" d="M54.11,-55.08C58.3,-48.11 64.31,-38.12 69.56,-29.37"/>
<polygon fill="#63b8ff" stroke="#63b8ff" points="72.5,-31.28 74.65,-20.91 66.5,-27.68 72.5,-31.28"/>
</a>
</g>
</g>
<!-- Node6&#45;&gt;Node2 -->
<g id="edge8_Node000006_Node000002" class="edge">
<title>Node6&#45;&gt;Node2</title>
<g id="a_edge8_Node000006_Node000002"><a xlink:title=" ">
<path fill="none" stroke="#63b8ff" d="M323.79,-54.78C266.51,-44.37 173.8,-27.52 121,-17.93"/>
<polygon fill="#63b8ff" stroke="#63b8ff" points="121.7,-14.5 111.23,-16.15 120.45,-21.38 121.7,-14.5"/>
</a>
</g>
</g>
</g>
</svg>
