<?xml version="1.0" encoding="UTF-8" standalone="no"?>
<!DOCTYPE svg PUBLIC "-//W3C//DTD SVG 1.1//EN"
 "http://www.w3.org/Graphics/SVG/1.1/DTD/svg11.dtd">
<!-- Generated by graphviz version 14.1.2 (20260124.0452)
 -->
<!-- Title: src/Autonomous/Steps/DriveArc.hpp Pages: 1 -->
<svg width="303pt" height="216pt"
 viewBox="0.00 0.00 303.00 216.00" xmlns="http://www.w3.org/2000/svg" xmlns:xlink="http://www.w3.org/1999/xlink">
<g id="graph0" class="graph" transform="scale(1 1) rotate(0) translate(4 211.5)">
<title>src/Autonomous/Steps/DriveArc.hpp</title>
<!-- Node1 -->
<g id="Node000001" class="node">
<title>Node1</title>
<g id="a_Node000001"><a xlink:title=" ">
<polygon fill="#999999" stroke="#666666" points="191.5,-207.5 75.75,-207.5 75.75,-177 191.5,-177 191.5,-207.5"/>
<text xml:space="preserve" text-anchor="start" x="83.75" y="-194" font-family="Helvetica,sans-Serif" font-size="10.00">src/Autonomous/Steps</text>
<text xml:space="preserve" text-anchor="middle" x="133.62" y="-182.75" font-family="Helvetica,sans-Serif" font-size="10.00">/DriveArc.hpp</text>
</a>
</g>
</g>
<!-- Node2 -->
<g id="Node000002" class="node">
<title>Node2</title>
<g id="a_Node000002"><a xlink:href="_planner_8hpp.html" target="_top" xlink:title=" ">
<polygon fill="white" stroke="#666666" points="204.25,-141 63,-141 63,-121.75 204.25,-121.75 204.25,-141"/>
<text xml:space="preserve" text-anchor="middle" x="133.62" y="-127.5" font-family="Helvetica,sans-Serif" font-size="10.00">src/Autonomous/Planner.hpp</text>
</a>
</g>
</g>
<!-- Node1&#45;&gt;Node2 -->
<g id="edge1_Node000001_Node000002" class="edge">
<title>Node1&#45;&gt;Node2</title>
<g id="a_edge1_Node000001_Node000002"><a xlink:title=" ">
<path fill="none" stroke="#63b8ff" d="M133.62,-165.23C133.62,-156.73 133.62,-147.84 133.62,-141.45"/>
<polygon fill="#63b8ff" stroke="#63b8ff" points="130.13,-165.18 133.63,-175.18 137.13,-165.18 130.13,-165.18"/>
</a>
</g>
</g>
<!-- Node3 -->
<g id="Node000003" class="node">
<title>Node3</title>
<g id="a_Node000003"><a xlink:href="_planner_8cpp.html" target="_top" xlink:title=" ">
<polygon fill="white" stroke="#666666" points="141.25,-85.75 0,-85.75 0,-66.5 141.25,-66.5 141.25,-85.75"/>
<text xml:space="preserve" text-anchor="middle" x="70.62" y="-72.25" font-family="Helvetica,sans-Serif" font-size="10.00">src/Autonomous/Planner.cpp</text>
</a>
</g>
</g>
<!-- Node2&#45;&gt;Node3 -->
<g id="edge2_Node000002_Node000003" class="edge">
<title>Node2&#45;&gt;Node3</title>
<g id="a_edge2_Node000002_Node000003"><a xlink:title=" ">
<path fill="none" stroke="#63b8ff" d="M114.45,-114.16C103.51,-104.92 90.21,-93.68 81.15,-86.02"/>
<polygon fill="#63b8ff" stroke="#63b8ff" points="111.89,-116.58 121.78,-120.36 116.4,-111.24 111.89,-116.58"/>
</a>
</g>
</g>
<!-- Node4 -->
<g id="Node000004" class="node">
<title>Node4</title>
<g id="a_Node000004"><a xlink:href="_robot_8hpp.html" target="_top" xlink:title=" ">
<polygon fill="white" stroke="#666666" points="236.38,-85.75 158.88,-85.75 158.88,-66.5 236.38,-66.5 236.38,-85.75"/>
<text xml:space="preserve" text-anchor="middle" x="197.62" y="-72.25" font-family="Helvetica,sans-Serif" font-size="10.00">src/Robot.hpp</text>
</a>
</g>
</g>
<!-- Node2&#45;&gt;Node4 -->
<g id="edge3_Node000002_Node000004" class="edge">
<title>Node2&#45;&gt;Node4</title>
<g id="a_edge3_Node000002_Node000004"><a xlink:title=" ">
<path fill="none" stroke="#63b8ff" d="M153.11,-114.16C164.22,-104.92 177.73,-93.68 186.93,-86.02"/>
<polygon fill="#63b8ff" stroke="#63b8ff" points="151.09,-111.29 145.65,-120.37 155.57,-116.67 151.09,-111.29"/>
</a>
</g>
</g>
<!-- Node5 -->
<g id="Node000005" class="node">
<title>Node5</title>
<g id="a_Node000005"><a xlink:href="_strategy_controller_step_8hpp.html" target="_top" xlink:title=" ">
<polygon fill="white" stroke="#666666" points="204,-30.5 67.25,-30.5 67.25,0 204,0 204,-30.5"/>
<text xml:space="preserve" text-anchor="start" x="75.25" y="-17" font-family="Helvetica,sans-Serif" font-size="10.00">src/Autonomous/Steps</text>
<text xml:space="preserve" text-anchor="middle" x="135.62" y="-5.75" font-family="Helvetica,sans-Serif" font-size="10.00">/StrategyControllerStep.hpp</text>
</a>
</g>
</g>
<!-- Node4&#45;&gt;Node5 -->
<g id="edge4_Node000004_Node000005" class="edge">
<title>Node4&#45;&gt;Node5</title>
<g id="a_edge4_Node000004_Node000005"><a xlink:title=" ">
<path fill="none" stroke="#63b8ff" d="M180.14,-58.52C170.94,-49.79 159.78,-39.18 150.93,-30.78"/>
<polygon fill="#63b8ff" stroke="#63b8ff" points="177.45,-60.79 187.11,-65.14 182.27,-55.72 177.45,-60.79"/>
</a>
</g>
</g>
<!-- Node6 -->
<g id="Node000006" class="node">
<title>Node6</title>
<g id="a_Node000006"><a xlink:href="main_8cpp.html" target="_top" xlink:title=" ">
<polygon fill="white" stroke="#666666" points="294.75,-24.88 222.5,-24.88 222.5,-5.63 294.75,-5.63 294.75,-24.88"/>
<text xml:space="preserve" text-anchor="middle" x="258.62" y="-11.38" font-family="Helvetica,sans-Serif" font-size="10.00">src/main.cpp</text>
</a>
</g>
</g>
<!-- Node4&#45;&gt;Node6 -->
<g id="edge5_Node000004_Node000006" class="edge">
<title>Node4&#45;&gt;Node6</title>
<g id="a_edge5_Node000004_Node000006"><a xlink:title=" ">
<path fill="none" stroke="#63b8ff" d="M215.06,-58.3C226.19,-47.55 240.19,-34.04 249.27,-25.28"/>
<polygon fill="#63b8ff" stroke="#63b8ff" points="212.74,-55.67 207.98,-65.13 217.6,-60.71 212.74,-55.67"/>
</a>
</g>
</g>
</g>
</svg>
