<?xml version="1.0" encoding="UTF-8" standalone="no"?>
<!DOCTYPE svg PUBLIC "-//W3C//DTD SVG 1.1//EN"
 "http://www.w3.org/Graphics/SVG/1.1/DTD/svg11.dtd">
<!-- Generated by graphviz version 14.1.2 (20260124.0452)
 -->
<!-- Title: src/Autonomous/Steps/DriveArcFromInnerWheel.hpp Pages: 1 -->
<svg width="872pt" height="381pt"
 viewBox="0.00 0.00 872.00 381.00" xmlns="http://www.w3.org/2000/svg" xmlns:xlink="http://www.w3.org/1999/xlink">
<g id="graph0" class="graph" transform="scale(1 1) rotate(0) translate(4 377.25)">
<title>src/Autonomous/Steps/DriveArcFromInnerWheel.hpp</title>
<!-- Node1 -->
<g id="Node000001" class="node">
<title>Node1</title>
<g id="a_Node000001"><a xlink:title=" ">
<polygon fill="#999999" stroke="#666666" points="453.23,-373.25 305.23,-373.25 305.23,-342.75 453.23,-342.75 453.23,-373.25"/>
<text xml:space="preserve" text-anchor="start" x="313.23" y="-359.75" font-family="Helvetica,sans-Serif" font-size="10.00">src/Autonomous/Steps</text>
<text xml:space="preserve" text-anchor="middle" x="379.23" y="-348.5" font-family="Helvetica,sans-Serif" font-size="10.00">/DriveArcFromInnerWheel.hpp</text>
</a>
</g>
</g>
<!-- Node2 -->
<g id="Node000002" class="node">
<title>Node2</title>
<g id="a_Node000002"><a xlink:href="_auto_step_8h.html" target="_top" xlink:title=" ">
<polygon fill="white" stroke="#666666" points="372.48,-240.25 249.98,-240.25 249.98,-221 372.48,-221 372.48,-240.25"/>
<text xml:space="preserve" text-anchor="middle" x="311.23" y="-226.75" font-family="Helvetica,sans-Serif" font-size="10.00">Autonomous/AutoStep.h</text>
</a>
</g>
</g>
<!-- Node1&#45;&gt;Node2 -->
<g id="edge1_Node000001_Node000002" class="edge">
<title>Node1&#45;&gt;Node2</title>
<g id="a_edge1_Node000001_Node000002"><a xlink:title=" ">
<path fill="none" stroke="#63b8ff" d="M335.06,-342.39C318.6,-334.56 301.65,-323.07 292.23,-306.75 282.07,-289.14 290.53,-266.14 299.16,-250.25"/>
<polygon fill="#63b8ff" stroke="#63b8ff" points="302.06,-252.23 304.17,-241.84 296.04,-248.65 302.06,-252.23"/>
</a>
</g>
</g>
<!-- Node3 -->
<g id="Node000003" class="node">
<title>Node3</title>
<g id="a_Node000003"><a xlink:href="_drive_8hpp.html" target="_top" xlink:title=" ">
<polygon fill="white" stroke="#666666" points="523.36,-240.25 409.11,-240.25 409.11,-221 523.36,-221 523.36,-240.25"/>
<text xml:space="preserve" text-anchor="middle" x="466.23" y="-226.75" font-family="Helvetica,sans-Serif" font-size="10.00">subsystems/Drive.hpp</text>
</a>
</g>
</g>
<!-- Node1&#45;&gt;Node3 -->
<g id="edge2_Node000001_Node000003" class="edge">
<title>Node1&#45;&gt;Node3</title>
<g id="a_edge2_Node000001_Node000003"><a xlink:title=" ">
<path fill="none" stroke="#63b8ff" d="M423.4,-342.39C439.86,-334.56 456.81,-323.07 466.23,-306.75 475.9,-290.01 474.37,-267.47 471.37,-251.46"/>
<polygon fill="#63b8ff" stroke="#63b8ff" points="474.89,-251.16 469.28,-242.17 468.06,-252.69 474.89,-251.16"/>
</a>
</g>
</g>
<!-- Node18 -->
<g id="Node000018" class="node">
<title>Node18</title>
<g id="a_Node000018"><a xlink:href="_drive_radius_at_velocity_8hpp.html" target="_top" xlink:title=" ">
<polygon fill="white" stroke="#666666" points="457.36,-306.75 301.11,-306.75 301.11,-276.25 457.36,-276.25 457.36,-306.75"/>
<text xml:space="preserve" text-anchor="start" x="309.11" y="-293.25" font-family="Helvetica,sans-Serif" font-size="10.00">Autonomous/Steps/DriveRadius</text>
<text xml:space="preserve" text-anchor="middle" x="379.23" y="-282" font-family="Helvetica,sans-Serif" font-size="10.00">AtVelocity.hpp</text>
</a>
</g>
</g>
<!-- Node1&#45;&gt;Node18 -->
<g id="edge27_Node000001_Node000018" class="edge">
<title>Node1&#45;&gt;Node18</title>
<g id="a_edge27_Node000001_Node000018"><a xlink:title=" ">
<path fill="none" stroke="#63b8ff" d="M379.23,-342.36C379.23,-335.27 379.23,-326.54 379.23,-318.38"/>
<polygon fill="#63b8ff" stroke="#63b8ff" points="382.73,-318.59 379.23,-308.59 375.73,-318.59 382.73,-318.59"/>
</a>
</g>
</g>
<!-- Node4 -->
<g id="Node000004" class="node">
<title>Node4</title>
<g id="a_Node000004"><a xlink:title=" ">
<polygon fill="#e0e0e0" stroke="#999999" points="416.86,-19.25 359.61,-19.25 359.61,0 416.86,0 416.86,-19.25"/>
<text xml:space="preserve" text-anchor="middle" x="388.23" y="-5.75" font-family="Helvetica,sans-Serif" font-size="10.00">Arduino.h</text>
</a>
</g>
</g>
<!-- Node3&#45;&gt;Node4 -->
<g id="edge3_Node000003_Node000004" class="edge">
<title>Node3&#45;&gt;Node4</title>
<g id="a_edge3_Node000003_Node000004"><a xlink:title=" ">
<path fill="none" stroke="#63b8ff" d="M408.66,-223.08C319.65,-212.8 156.15,-193.19 130.23,-185 79.58,-168.98 59.53,-169.45 24.23,-129.75 6.78,-110.12 7.98,-100.34 3.23,-74.5 1.69,-66.09 -2.46,-61.64 3.23,-55.25 25.9,-29.8 253.79,-16.69 347.9,-12.32"/>
<polygon fill="#63b8ff" stroke="#63b8ff" points="347.88,-15.82 357.71,-11.88 347.56,-8.83 347.88,-15.82"/>
</a>
</g>
</g>
<!-- Node5 -->
<g id="Node000005" class="node">
<title>Node5</title>
<g id="a_Node000005"><a xlink:href="_config_8hpp.html" target="_top" xlink:title=" ">
<polygon fill="white" stroke="#666666" points="202.86,-185 139.61,-185 139.61,-165.75 202.86,-165.75 202.86,-185"/>
<text xml:space="preserve" text-anchor="middle" x="171.23" y="-171.5" font-family="Helvetica,sans-Serif" font-size="10.00">Config.hpp</text>
</a>
</g>
</g>
<!-- Node3&#45;&gt;Node5 -->
<g id="edge4_Node000003_Node000005" class="edge">
<title>Node3&#45;&gt;Node5</title>
<g id="a_edge4_Node000003_Node000005"><a xlink:title=" ">
<path fill="none" stroke="#63b8ff" d="M415.85,-220.53C359.13,-210.29 267.9,-193.83 214.35,-184.16"/>
<polygon fill="#63b8ff" stroke="#63b8ff" points="215.15,-180.75 204.68,-182.41 213.9,-187.63 215.15,-180.75"/>
</a>
</g>
</g>
<!-- Node11 -->
<g id="Node000011" class="node">
<title>Node11</title>
<g id="a_Node000011"><a xlink:href="_encoder_wrapper_8hpp.html" target="_top" xlink:title=" ">
<polygon fill="white" stroke="#666666" points="541.73,-129.75 396.73,-129.75 396.73,-110.5 541.73,-110.5 541.73,-129.75"/>
<text xml:space="preserve" text-anchor="middle" x="469.23" y="-116.25" font-family="Helvetica,sans-Serif" font-size="10.00">Devices/EncoderWrapper.hpp</text>
</a>
</g>
</g>
<!-- Node3&#45;&gt;Node11 -->
<g id="edge15_Node000003_Node000011" class="edge">
<title>Node3&#45;&gt;Node11</title>
<g id="a_edge15_Node000003_Node000011"><a xlink:title=" ">
<path fill="none" stroke="#63b8ff" d="M447.78,-220.69C427.09,-209.33 397.82,-188.46 409.23,-165.75 415.59,-153.1 427.42,-143.13 438.9,-135.85"/>
<polygon fill="#63b8ff" stroke="#63b8ff" points="440.55,-138.94 447.45,-130.91 437.04,-132.88 440.55,-138.94"/>
</a>
</g>
</g>
<!-- Node13 -->
<g id="Node000013" class="node">
<title>Node13</title>
<g id="a_Node000013"><a xlink:href="_line_sensor_8hpp.html" target="_top" xlink:title=" ">
<polygon fill="white" stroke="#666666" points="654.11,-185 532.36,-185 532.36,-165.75 654.11,-165.75 654.11,-185"/>
<text xml:space="preserve" text-anchor="middle" x="593.23" y="-171.5" font-family="Helvetica,sans-Serif" font-size="10.00">Devices/LineSensor.hpp</text>
</a>
</g>
</g>
<!-- Node3&#45;&gt;Node13 -->
<g id="edge18_Node000003_Node000013" class="edge">
<title>Node3&#45;&gt;Node13</title>
<g id="a_edge18_Node000003_Node000013"><a xlink:title=" ">
<path fill="none" stroke="#63b8ff" d="M487.78,-220.59C507.85,-212.18 538.04,-199.52 560.98,-189.9"/>
<polygon fill="#63b8ff" stroke="#63b8ff" points="562.32,-193.13 570.19,-186.04 559.61,-186.68 562.32,-193.13"/>
</a>
</g>
</g>
<!-- Node15 -->
<g id="Node000015" class="node">
<title>Node15</title>
<g id="a_Node000015"><a xlink:href="_distance_sensor_8hpp.html" target="_top" xlink:title=" ">
<polygon fill="white" stroke="#666666" points="814.61,-185 671.86,-185 671.86,-165.75 814.61,-165.75 814.61,-185"/>
<text xml:space="preserve" text-anchor="middle" x="743.23" y="-171.5" font-family="Helvetica,sans-Serif" font-size="10.00">Devices/DistanceSensor.hpp</text>
</a>
</g>
</g>
<!-- Node3&#45;&gt;Node15 -->
<g id="edge21_Node000003_Node000015" class="edge">
<title>Node3&#45;&gt;Node15</title>
<g id="a_edge21_Node000003_Node000015"><a xlink:title=" ">
<path fill="none" stroke="#63b8ff" d="M513.53,-220.53C560.94,-211.42 634.01,-197.37 684.96,-187.58"/>
<polygon fill="#63b8ff" stroke="#63b8ff" points="685.48,-191.04 694.64,-185.72 684.16,-184.17 685.48,-191.04"/>
</a>
</g>
</g>
<!-- Node16 -->
<g id="Node000016" class="node">
<title>Node16</title>
<g id="a_Node000016"><a xlink:href="_odometry_8hpp.html" target="_top" xlink:title=" ">
<polygon fill="white" stroke="#666666" points="514.73,-185 417.73,-185 417.73,-165.75 514.73,-165.75 514.73,-185"/>
<text xml:space="preserve" text-anchor="middle" x="466.23" y="-171.5" font-family="Helvetica,sans-Serif" font-size="10.00">utils/Odometry.hpp</text>
</a>
</g>
</g>
<!-- Node3&#45;&gt;Node16 -->
<g id="edge23_Node000003_Node000016" class="edge">
<title>Node3&#45;&gt;Node16</title>
<g id="a_edge23_Node000003_Node000016"><a xlink:title=" ">
<path fill="none" stroke="#63b8ff" d="M466.23,-220.83C466.23,-214.32 466.23,-205.17 466.23,-196.87"/>
<polygon fill="#63b8ff" stroke="#63b8ff" points="469.73,-196.87 466.23,-186.87 462.73,-196.87 469.73,-196.87"/>
</a>
</g>
</g>
<!-- Node17 -->
<g id="Node000017" class="node">
<title>Node17</title>
<g id="a_Node000017"><a xlink:href="_subsystem_8h.html" target="_top" xlink:title=" ">
<polygon fill="white" stroke="#666666" points="864.11,-129.75 790.36,-129.75 790.36,-110.5 864.11,-110.5 864.11,-129.75"/>
<text xml:space="preserve" text-anchor="middle" x="827.23" y="-116.25" font-family="Helvetica,sans-Serif" font-size="10.00">Subsystem.h</text>
</a>
</g>
</g>
<!-- Node3&#45;&gt;Node17 -->
<g id="edge25_Node000003_Node000017" class="edge">
<title>Node3&#45;&gt;Node17</title>
<g id="a_edge25_Node000003_Node000017"><a xlink:title=" ">
<path fill="none" stroke="#63b8ff" d="M523.78,-226.4C619.53,-220.47 803.1,-206.42 823.23,-185 834.06,-173.48 834.09,-155.03 831.97,-140.91"/>
<polygon fill="#63b8ff" stroke="#63b8ff" points="835.46,-140.51 830.08,-131.39 828.6,-141.88 835.46,-140.51"/>
</a>
</g>
</g>
<!-- Node5&#45;&gt;Node4 -->
<g id="edge5_Node000005_Node000004" class="edge">
<title>Node5&#45;&gt;Node4</title>
<g id="a_edge5_Node000005_Node000004"><a xlink:title=" ">
<path fill="none" stroke="#63b8ff" d="M140.42,-165.29C84.02,-147.2 -26.17,-104.18 17.23,-55.25 38.93,-30.78 256.66,-17.17 348.11,-12.5"/>
<polygon fill="#63b8ff" stroke="#63b8ff" points="348.06,-16 357.87,-12.01 347.71,-9.01 348.06,-16"/>
</a>
</g>
</g>
<!-- Node6 -->
<g id="Node000006" class="node">
<title>Node6</title>
<g id="a_Node000006"><a xlink:href="_dual_motor_controller_8hpp.html" target="_top" xlink:title=" ">
<polygon fill="white" stroke="#666666" points="251.23,-129.75 91.23,-129.75 91.23,-110.5 251.23,-110.5 251.23,-129.75"/>
<text xml:space="preserve" text-anchor="middle" x="171.23" y="-116.25" font-family="Helvetica,sans-Serif" font-size="10.00">Devices/DualMotorController.hpp</text>
</a>
</g>
</g>
<!-- Node5&#45;&gt;Node6 -->
<g id="edge6_Node000005_Node000006" class="edge">
<title>Node5&#45;&gt;Node6</title>
<g id="a_edge6_Node000005_Node000006"><a xlink:title=" ">
<path fill="none" stroke="#63b8ff" d="M171.23,-165.58C171.23,-159.07 171.23,-149.92 171.23,-141.62"/>
<polygon fill="#63b8ff" stroke="#63b8ff" points="174.73,-141.62 171.23,-131.62 167.73,-141.62 174.73,-141.62"/>
</a>
</g>
</g>
<!-- Node7 -->
<g id="Node000007" class="node">
<title>Node7</title>
<g id="a_Node000007"><a xlink:href="_p_i_d_8hpp.html" target="_top" xlink:title=" ">
<polygon fill="white" stroke="#666666" points="99.73,-74.5 26.73,-74.5 26.73,-55.25 99.73,-55.25 99.73,-74.5"/>
<text xml:space="preserve" text-anchor="middle" x="63.23" y="-61" font-family="Helvetica,sans-Serif" font-size="10.00">utils/PID.hpp</text>
</a>
</g>
</g>
<!-- Node5&#45;&gt;Node7 -->
<g id="edge13_Node000005_Node000007" class="edge">
<title>Node5&#45;&gt;Node7</title>
<g id="a_edge13_Node000005_Node000007"><a xlink:title=" ">
<path fill="none" stroke="#63b8ff" d="M139.13,-165.42C120.09,-158.55 96.89,-147.24 82.23,-129.75 71.88,-117.39 67.16,-99.56 65.02,-85.88"/>
<polygon fill="#63b8ff" stroke="#63b8ff" points="68.53,-85.77 63.87,-76.26 61.58,-86.6 68.53,-85.77"/>
</a>
</g>
</g>
<!-- Node10 -->
<g id="Node000010" class="node">
<title>Node10</title>
<g id="a_Node000010"><a xlink:title=" ">
<polygon fill="#e0e0e0" stroke="#999999" points="312.73,-129.75 269.73,-129.75 269.73,-110.5 312.73,-110.5 312.73,-129.75"/>
<text xml:space="preserve" text-anchor="middle" x="291.23" y="-116.25" font-family="Helvetica,sans-Serif" font-size="10.00">cmath</text>
</a>
</g>
</g>
<!-- Node5&#45;&gt;Node10 -->
<g id="edge14_Node000005_Node000010" class="edge">
<title>Node5&#45;&gt;Node10</title>
<g id="a_edge14_Node000005_Node000010"><a xlink:title=" ">
<path fill="none" stroke="#63b8ff" d="M191.59,-165.34C210.47,-156.97 238.82,-144.38 260.46,-134.78"/>
<polygon fill="#63b8ff" stroke="#63b8ff" points="261.67,-138.07 269.39,-130.82 258.83,-131.67 261.67,-138.07"/>
</a>
</g>
</g>
<!-- Node6&#45;&gt;Node4 -->
<g id="edge7_Node000006_Node000004" class="edge">
<title>Node6&#45;&gt;Node4</title>
<g id="a_edge7_Node000006_Node000004"><a xlink:title=" ">
<path fill="none" stroke="#63b8ff" d="M162.92,-110.35C151.39,-97.12 133.44,-71.83 147.23,-55.25 172.28,-25.13 285.98,-15.25 347.84,-12.08"/>
<polygon fill="#63b8ff" stroke="#63b8ff" points="347.78,-15.59 357.6,-11.62 347.45,-8.59 347.78,-15.59"/>
</a>
</g>
</g>
<!-- Node6&#45;&gt;Node7 -->
<g id="edge8_Node000006_Node000007" class="edge">
<title>Node6&#45;&gt;Node7</title>
<g id="a_edge8_Node000006_Node000007"><a xlink:title=" ">
<path fill="none" stroke="#63b8ff" d="M152.91,-110.09C136.15,-101.83 111.1,-89.48 91.73,-79.93"/>
<polygon fill="#63b8ff" stroke="#63b8ff" points="93.52,-76.9 83,-75.62 90.42,-83.18 93.52,-76.9"/>
</a>
</g>
</g>
<!-- Node8 -->
<g id="Node000008" class="node">
<title>Node8</title>
<g id="a_Node000008"><a xlink:title=" ">
<polygon fill="#e0e0e0" stroke="#999999" points="305.98,-74.5 156.48,-74.5 156.48,-55.25 305.98,-55.25 305.98,-74.5"/>
<text xml:space="preserve" text-anchor="middle" x="231.23" y="-61" font-family="Helvetica,sans-Serif" font-size="10.00">DualTB9051FTGMotorShield.h</text>
</a>
</g>
</g>
<!-- Node6&#45;&gt;Node8 -->
<g id="edge10_Node000006_Node000008" class="edge">
<title>Node6&#45;&gt;Node8</title>
<g id="a_edge10_Node000006_Node000008"><a xlink:title=" ">
<path fill="none" stroke="#63b8ff" d="M181.41,-110.09C190,-102.47 202.5,-91.37 212.83,-82.2"/>
<polygon fill="#63b8ff" stroke="#63b8ff" points="214.92,-85.04 220.07,-75.78 210.27,-79.8 214.92,-85.04"/>
</a>
</g>
</g>
<!-- Node9 -->
<g id="Node000009" class="node">
<title>Node9</title>
<g id="a_Node000009"><a xlink:href="_l298_n_motor_driver_mega_8h.html" target="_top" xlink:title=" ">
<polygon fill="white" stroke="#666666" points="452.11,-74.5 324.36,-74.5 324.36,-55.25 452.11,-55.25 452.11,-74.5"/>
<text xml:space="preserve" text-anchor="middle" x="388.23" y="-61" font-family="Helvetica,sans-Serif" font-size="10.00">L298NMotorDriverMega.h</text>
</a>
</g>
</g>
<!-- Node6&#45;&gt;Node9 -->
<g id="edge11_Node000006_Node000009" class="edge">
<title>Node6&#45;&gt;Node9</title>
<g id="a_edge11_Node000006_Node000009"><a xlink:title=" ">
<path fill="none" stroke="#63b8ff" d="M208.04,-110.09C244.44,-101.16 300.32,-87.45 340.19,-77.66"/>
<polygon fill="#63b8ff" stroke="#63b8ff" points="340.89,-81.1 349.77,-75.31 339.22,-74.3 340.89,-81.1"/>
</a>
</g>
</g>
<!-- Node7&#45;&gt;Node4 -->
<g id="edge9_Node000007_Node000004" class="edge">
<title>Node7&#45;&gt;Node4</title>
<g id="a_edge9_Node000007_Node000004"><a xlink:title=" ">
<path fill="none" stroke="#63b8ff" d="M100,-57.63C104.79,-56.82 109.63,-56.01 114.23,-55.25 197.33,-41.46 294.68,-25.7 348.09,-17.08"/>
<polygon fill="#63b8ff" stroke="#63b8ff" points="348.61,-20.54 357.93,-15.5 347.5,-13.63 348.61,-20.54"/>
</a>
</g>
</g>
<!-- Node9&#45;&gt;Node4 -->
<g id="edge12_Node000009_Node000004" class="edge">
<title>Node9&#45;&gt;Node4</title>
<g id="a_edge12_Node000009_Node000004"><a xlink:title=" ">
<path fill="none" stroke="#63b8ff" d="M388.23,-55.08C388.23,-48.57 388.23,-39.42 388.23,-31.12"/>
<polygon fill="#63b8ff" stroke="#63b8ff" points="391.73,-31.12 388.23,-21.12 384.73,-31.12 391.73,-31.12"/>
</a>
</g>
</g>
<!-- Node11&#45;&gt;Node4 -->
<g id="edge16_Node000011_Node000004" class="edge">
<title>Node11&#45;&gt;Node4</title>
<g id="a_edge16_Node000011_Node000004"><a xlink:title=" ">
<path fill="none" stroke="#63b8ff" d="M470.42,-110.05C471.67,-96.86 472.14,-72.15 461.23,-55.25 452.5,-41.73 438.08,-31.66 424.35,-24.54"/>
<polygon fill="#63b8ff" stroke="#63b8ff" points="425.99,-21.44 415.46,-20.31 422.99,-27.77 425.99,-21.44"/>
</a>
</g>
</g>
<!-- Node12 -->
<g id="Node000012" class="node">
<title>Node12</title>
<g id="a_Node000012"><a xlink:title=" ">
<polygon fill="#e0e0e0" stroke="#999999" points="567.98,-74.5 508.48,-74.5 508.48,-55.25 567.98,-55.25 567.98,-74.5"/>
<text xml:space="preserve" text-anchor="middle" x="538.23" y="-61" font-family="Helvetica,sans-Serif" font-size="10.00">Encoder.h</text>
</a>
</g>
</g>
<!-- Node11&#45;&gt;Node12 -->
<g id="edge17_Node000011_Node000012" class="edge">
<title>Node11&#45;&gt;Node12</title>
<g id="a_edge17_Node000011_Node000012"><a xlink:title=" ">
<path fill="none" stroke="#63b8ff" d="M480.94,-110.09C491.01,-102.32 505.77,-90.92 517.79,-81.65"/>
<polygon fill="#63b8ff" stroke="#63b8ff" points="519.72,-84.58 525.5,-75.7 515.45,-79.04 519.72,-84.58"/>
</a>
</g>
</g>
<!-- Node13&#45;&gt;Node4 -->
<g id="edge19_Node000013_Node000004" class="edge">
<title>Node13&#45;&gt;Node4</title>
<g id="a_edge19_Node000013_Node000004"><a xlink:title=" ">
<path fill="none" stroke="#63b8ff" d="M595.06,-165.53C599,-143.71 605.82,-86.79 577.23,-55.25 557.58,-33.57 477.68,-20.77 428.28,-14.78"/>
<polygon fill="#63b8ff" stroke="#63b8ff" points="428.87,-11.33 418.53,-13.64 428.06,-18.28 428.87,-11.33"/>
</a>
</g>
</g>
<!-- Node14 -->
<g id="Node000014" class="node">
<title>Node14</title>
<g id="a_Node000014"><a xlink:title=" ">
<polygon fill="#e0e0e0" stroke="#999999" points="705.86,-129.75 624.61,-129.75 624.61,-110.5 705.86,-110.5 705.86,-129.75"/>
<text xml:space="preserve" text-anchor="middle" x="665.23" y="-116.25" font-family="Helvetica,sans-Serif" font-size="10.00">QTRSensors.h</text>
</a>
</g>
</g>
<!-- Node13&#45;&gt;Node14 -->
<g id="edge20_Node000013_Node000014" class="edge">
<title>Node13&#45;&gt;Node14</title>
<g id="a_edge20_Node000013_Node000014"><a xlink:title=" ">
<path fill="none" stroke="#63b8ff" d="M605.45,-165.34C616.06,-157.49 631.67,-145.95 644.28,-136.62"/>
<polygon fill="#63b8ff" stroke="#63b8ff" points="646.02,-139.69 651.98,-130.92 641.86,-134.06 646.02,-139.69"/>
</a>
</g>
</g>
<!-- Node15&#45;&gt;Node4 -->
<g id="edge22_Node000015_Node000004" class="edge">
<title>Node15&#45;&gt;Node4</title>
<g id="a_edge22_Node000015_Node000004"><a xlink:title=" ">
<path fill="none" stroke="#63b8ff" d="M741.42,-165.4C738.28,-151.9 730.62,-126.27 715.23,-110.5 637.06,-30.37 496.6,-14.1 428.05,-11.08"/>
<polygon fill="#63b8ff" stroke="#63b8ff" points="428.53,-7.6 418.41,-10.74 428.28,-14.6 428.53,-7.6"/>
</a>
</g>
</g>
<!-- Node16&#45;&gt;Node11 -->
<g id="edge24_Node000016_Node000011" class="edge">
<title>Node16&#45;&gt;Node11</title>
<g id="a_edge24_Node000016_Node000011"><a xlink:title=" ">
<path fill="none" stroke="#63b8ff" d="M466.73,-165.58C467.1,-158.99 467.62,-149.71 468.09,-141.32"/>
<polygon fill="#63b8ff" stroke="#63b8ff" points="471.57,-141.8 468.64,-131.62 464.58,-141.41 471.57,-141.8"/>
</a>
</g>
</g>
<!-- Node17&#45;&gt;Node4 -->
<g id="edge26_Node000017_Node000004" class="edge">
<title>Node17&#45;&gt;Node4</title>
<g id="a_edge26_Node000017_Node000004"><a xlink:title=" ">
<path fill="none" stroke="#63b8ff" d="M820.26,-110.27C808.41,-95.96 782.83,-68.02 754.23,-55.25 696.71,-29.56 511.3,-16.99 428.64,-12.56"/>
<polygon fill="#63b8ff" stroke="#63b8ff" points="428.9,-9.07 418.73,-12.04 428.54,-16.06 428.9,-9.07"/>
</a>
</g>
</g>
<!-- Node18&#45;&gt;Node2 -->
<g id="edge28_Node000018_Node000002" class="edge">
<title>Node18&#45;&gt;Node2</title>
<g id="a_edge28_Node000018_Node000002"><a xlink:title=" ">
<path fill="none" stroke="#63b8ff" d="M362.42,-275.95C352.67,-267.5 340.35,-256.83 330.24,-248.08"/>
<polygon fill="#63b8ff" stroke="#63b8ff" points="332.71,-245.59 322.86,-241.69 328.13,-250.88 332.71,-245.59"/>
</a>
</g>
</g>
<!-- Node18&#45;&gt;Node3 -->
<g id="edge29_Node000018_Node000003" class="edge">
<title>Node18&#45;&gt;Node3</title>
<g id="a_edge29_Node000018_Node000003"><a xlink:title=" ">
<path fill="none" stroke="#63b8ff" d="M400.74,-275.95C413.73,-267.15 430.27,-255.96 443.48,-247.02"/>
<polygon fill="#63b8ff" stroke="#63b8ff" points="445.25,-250.05 451.57,-241.55 441.32,-244.26 445.25,-250.05"/>
</a>
</g>
</g>
</g>
</svg>
