<?xml version="1.0" encoding="UTF-8" standalone="no"?>
<!DOCTYPE svg PUBLIC "-//W3C//DTD SVG 1.1//EN"
 "http://www.w3.org/Graphics/SVG/1.1/DTD/svg11.dtd">
<!-- Generated by graphviz version 14.1.2 (20260124.0452)
 -->
<!-- Title: src/Autonomous/Steps/IndexBlock.hpp Pages: 1 -->
<svg width="1096pt" height="315pt"
 viewBox="0.00 0.00 1096.00 315.00" xmlns="http://www.w3.org/2000/svg" xmlns:xlink="http://www.w3.org/1999/xlink">
<g id="graph0" class="graph" transform="scale(1 1) rotate(0) translate(4 310.75)">
<title>src/Autonomous/Steps/IndexBlock.hpp</title>
<!-- Node1 -->
<g id="Node000001" class="node">
<title>Node1</title>
<g id="a_Node000001"><a xlink:title=" ">
<polygon fill="#999999" stroke="#666666" points="784.75,-306.75 669,-306.75 669,-276.25 784.75,-276.25 784.75,-306.75"/>
<text xml:space="preserve" text-anchor="start" x="677" y="-293.25" font-family="Helvetica,sans-Serif" font-size="10.00">src/Autonomous/Steps</text>
<text xml:space="preserve" text-anchor="middle" x="726.88" y="-282" font-family="Helvetica,sans-Serif" font-size="10.00">/IndexBlock.hpp</text>
</a>
</g>
</g>
<!-- Node2 -->
<g id="Node000002" class="node">
<title>Node2</title>
<g id="a_Node000002"><a xlink:href="_auto_step_8h.html" target="_top" xlink:title=" ">
<polygon fill="white" stroke="#666666" points="652.12,-240.25 529.62,-240.25 529.62,-221 652.12,-221 652.12,-240.25"/>
<text xml:space="preserve" text-anchor="middle" x="590.88" y="-226.75" font-family="Helvetica,sans-Serif" font-size="10.00">Autonomous/AutoStep.h</text>
</a>
</g>
</g>
<!-- Node1&#45;&gt;Node2 -->
<g id="edge1_Node000001_Node000002" class="edge">
<title>Node1&#45;&gt;Node2</title>
<g id="a_edge1_Node000001_Node000002"><a xlink:title=" ">
<path fill="none" stroke="#63b8ff" d="M692.91,-275.8C671.2,-266.4 643.26,-254.3 622.11,-245.14"/>
<polygon fill="#63b8ff" stroke="#63b8ff" points="623.69,-242.02 613.12,-241.26 620.91,-248.44 623.69,-242.02"/>
</a>
</g>
</g>
<!-- Node3 -->
<g id="Node000003" class="node">
<title>Node3</title>
<g id="a_Node000003"><a xlink:href="_drive_8hpp.html" target="_top" xlink:title=" ">
<polygon fill="white" stroke="#666666" points="784,-240.25 669.75,-240.25 669.75,-221 784,-221 784,-240.25"/>
<text xml:space="preserve" text-anchor="middle" x="726.88" y="-226.75" font-family="Helvetica,sans-Serif" font-size="10.00">subsystems/Drive.hpp</text>
</a>
</g>
</g>
<!-- Node1&#45;&gt;Node3 -->
<g id="edge2_Node000001_Node000003" class="edge">
<title>Node1&#45;&gt;Node3</title>
<g id="a_edge2_Node000001_Node000003"><a xlink:title=" ">
<path fill="none" stroke="#63b8ff" d="M726.88,-275.95C726.88,-268.71 726.88,-259.84 726.88,-251.94"/>
<polygon fill="#63b8ff" stroke="#63b8ff" points="730.38,-252.21 726.88,-242.21 723.38,-252.21 730.38,-252.21"/>
</a>
</g>
</g>
<!-- Node20 -->
<g id="Node000020" class="node">
<title>Node20</title>
<g id="a_Node000020"><a xlink:href="_strategy_8hpp.html" target="_top" xlink:title=" ">
<polygon fill="white" stroke="#666666" points="893.38,-240.25 802.38,-240.25 802.38,-221 893.38,-221 893.38,-240.25"/>
<text xml:space="preserve" text-anchor="middle" x="847.88" y="-226.75" font-family="Helvetica,sans-Serif" font-size="10.00">utils/Strategy.hpp</text>
</a>
</g>
</g>
<!-- Node1&#45;&gt;Node20 -->
<g id="edge32_Node000001_Node000020" class="edge">
<title>Node1&#45;&gt;Node20</title>
<g id="a_edge32_Node000001_Node000020"><a xlink:title=" ">
<path fill="none" stroke="#63b8ff" d="M757.1,-275.8C776.06,-266.57 800.36,-254.75 819.05,-245.65"/>
<polygon fill="#63b8ff" stroke="#63b8ff" points="820.5,-248.84 827.96,-241.32 817.43,-242.54 820.5,-248.84"/>
</a>
</g>
</g>
<!-- Node4 -->
<g id="Node000004" class="node">
<title>Node4</title>
<g id="a_Node000004"><a xlink:title=" ">
<polygon fill="#e0e0e0" stroke="#999999" points="679.5,-19.25 622.25,-19.25 622.25,0 679.5,0 679.5,-19.25"/>
<text xml:space="preserve" text-anchor="middle" x="650.88" y="-5.75" font-family="Helvetica,sans-Serif" font-size="10.00">Arduino.h</text>
</a>
</g>
</g>
<!-- Node3&#45;&gt;Node4 -->
<g id="edge3_Node000003_Node000004" class="edge">
<title>Node3&#45;&gt;Node4</title>
<g id="a_edge3_Node000003_Node000004"><a xlink:title=" ">
<path fill="none" stroke="#63b8ff" d="M723.8,-220.77C712.56,-188.37 673.49,-75.8 657.64,-30.12"/>
<polygon fill="#63b8ff" stroke="#63b8ff" points="660.98,-29.08 654.4,-20.78 654.37,-31.38 660.98,-29.08"/>
</a>
</g>
</g>
<!-- Node5 -->
<g id="Node000005" class="node">
<title>Node5</title>
<g id="a_Node000005"><a xlink:href="_config_8hpp.html" target="_top" xlink:title=" ">
<polygon fill="white" stroke="#666666" points="434.5,-185 371.25,-185 371.25,-165.75 434.5,-165.75 434.5,-185"/>
<text xml:space="preserve" text-anchor="middle" x="402.88" y="-171.5" font-family="Helvetica,sans-Serif" font-size="10.00">Config.hpp</text>
</a>
</g>
</g>
<!-- Node3&#45;&gt;Node5 -->
<g id="edge4_Node000003_Node000005" class="edge">
<title>Node3&#45;&gt;Node5</title>
<g id="a_edge4_Node000003_Node000005"><a xlink:title=" ">
<path fill="none" stroke="#63b8ff" d="M671.55,-220.53C607.8,-210.05 504.38,-193.06 446.2,-183.5"/>
<polygon fill="#63b8ff" stroke="#63b8ff" points="446.78,-180.04 436.34,-181.88 445.64,-186.95 446.78,-180.04"/>
</a>
</g>
</g>
<!-- Node11 -->
<g id="Node000011" class="node">
<title>Node11</title>
<g id="a_Node000011"><a xlink:href="_encoder_wrapper_8hpp.html" target="_top" xlink:title=" ">
<polygon fill="white" stroke="#666666" points="1088.38,-74.5 943.38,-74.5 943.38,-55.25 1088.38,-55.25 1088.38,-74.5"/>
<text xml:space="preserve" text-anchor="middle" x="1015.88" y="-61" font-family="Helvetica,sans-Serif" font-size="10.00">Devices/EncoderWrapper.hpp</text>
</a>
</g>
</g>
<!-- Node3&#45;&gt;Node11 -->
<g id="edge15_Node000003_Node000011" class="edge">
<title>Node3&#45;&gt;Node11</title>
<g id="a_edge15_Node000003_Node000011"><a xlink:title=" ">
<path fill="none" stroke="#63b8ff" d="M784.37,-221.71C864.3,-210.54 1000.34,-190.85 1009.88,-185 1041.91,-165.35 1061.89,-146.11 1049.88,-110.5 1046.46,-100.4 1039.75,-90.77 1033.19,-83.07"/>
<polygon fill="#63b8ff" stroke="#63b8ff" points="1035.86,-80.8 1026.51,-75.83 1030.72,-85.55 1035.86,-80.8"/>
</a>
</g>
</g>
<!-- Node13 -->
<g id="Node000013" class="node">
<title>Node13</title>
<g id="a_Node000013"><a xlink:href="_line_sensor_8hpp.html" target="_top" xlink:title=" ">
<polygon fill="white" stroke="#666666" points="660.75,-185 539,-185 539,-165.75 660.75,-165.75 660.75,-185"/>
<text xml:space="preserve" text-anchor="middle" x="599.88" y="-171.5" font-family="Helvetica,sans-Serif" font-size="10.00">Devices/LineSensor.hpp</text>
</a>
</g>
</g>
<!-- Node3&#45;&gt;Node13 -->
<g id="edge18_Node000003_Node000013" class="edge">
<title>Node3&#45;&gt;Node13</title>
<g id="a_edge18_Node000003_Node000013"><a xlink:title=" ">
<path fill="none" stroke="#63b8ff" d="M705.33,-220.59C685.26,-212.18 655.07,-199.52 632.13,-189.9"/>
<polygon fill="#63b8ff" stroke="#63b8ff" points="633.5,-186.68 622.92,-186.04 630.79,-193.13 633.5,-186.68"/>
</a>
</g>
</g>
<!-- Node15 -->
<g id="Node000015" class="node">
<title>Node15</title>
<g id="a_Node000015"><a xlink:href="_distance_sensor_8hpp.html" target="_top" xlink:title=" ">
<polygon fill="white" stroke="#666666" points="623.25,-74.5 480.5,-74.5 480.5,-55.25 623.25,-55.25 623.25,-74.5"/>
<text xml:space="preserve" text-anchor="middle" x="551.88" y="-61" font-family="Helvetica,sans-Serif" font-size="10.00">Devices/DistanceSensor.hpp</text>
</a>
</g>
</g>
<!-- Node3&#45;&gt;Node15 -->
<g id="edge21_Node000003_Node000015" class="edge">
<title>Node3&#45;&gt;Node15</title>
<g id="a_edge21_Node000003_Node000015"><a xlink:title=" ">
<path fill="none" stroke="#63b8ff" d="M670.54,-220.53C615.51,-211.07 538.75,-196.11 529.88,-185 506.66,-155.94 526.02,-110.19 540.2,-84.67"/>
<polygon fill="#63b8ff" stroke="#63b8ff" points="543.2,-86.49 545.24,-76.09 537.16,-82.94 543.2,-86.49"/>
</a>
</g>
</g>
<!-- Node16 -->
<g id="Node000016" class="node">
<title>Node16</title>
<g id="a_Node000016"><a xlink:href="_odometry_8hpp.html" target="_top" xlink:title=" ">
<polygon fill="white" stroke="#666666" points="1040.38,-129.75 943.38,-129.75 943.38,-110.5 1040.38,-110.5 1040.38,-129.75"/>
<text xml:space="preserve" text-anchor="middle" x="991.88" y="-116.25" font-family="Helvetica,sans-Serif" font-size="10.00">utils/Odometry.hpp</text>
</a>
</g>
</g>
<!-- Node3&#45;&gt;Node16 -->
<g id="edge23_Node000003_Node000016" class="edge">
<title>Node3&#45;&gt;Node16</title>
<g id="a_edge23_Node000003_Node000016"><a xlink:title=" ">
<path fill="none" stroke="#63b8ff" d="M784.46,-221.84C860.38,-211.3 985.19,-192.9 991.88,-185 1001.95,-173.08 1000.95,-154.96 998,-141.06"/>
<polygon fill="#63b8ff" stroke="#63b8ff" points="1001.46,-140.43 995.53,-131.65 994.69,-142.21 1001.46,-140.43"/>
</a>
</g>
</g>
<!-- Node17 -->
<g id="Node000017" class="node">
<title>Node17</title>
<g id="a_Node000017"><a xlink:href="_ramsete_controller_8hpp.html" target="_top" xlink:title=" ">
<polygon fill="white" stroke="#666666" points="983.25,-185 846.5,-185 846.5,-165.75 983.25,-165.75 983.25,-185"/>
<text xml:space="preserve" text-anchor="middle" x="914.88" y="-171.5" font-family="Helvetica,sans-Serif" font-size="10.00">utils/RamseteController.hpp</text>
</a>
</g>
</g>
<!-- Node3&#45;&gt;Node17 -->
<g id="edge25_Node000003_Node000017" class="edge">
<title>Node3&#45;&gt;Node17</title>
<g id="a_edge25_Node000003_Node000017"><a xlink:title=" ">
<path fill="none" stroke="#63b8ff" d="M758.77,-220.59C789.96,-211.76 837.67,-198.24 872.14,-188.48"/>
<polygon fill="#63b8ff" stroke="#63b8ff" points="872.7,-191.96 881.37,-185.86 870.8,-185.22 872.7,-191.96"/>
</a>
</g>
</g>
<!-- Node18 -->
<g id="Node000018" class="node">
<title>Node18</title>
<g id="a_Node000018"><a xlink:href="_odometry_plotting_8hpp.html" target="_top" xlink:title=" ">
<polygon fill="white" stroke="#666666" points="848.62,-129.75 717.12,-129.75 717.12,-110.5 848.62,-110.5 848.62,-129.75"/>
<text xml:space="preserve" text-anchor="middle" x="782.88" y="-116.25" font-family="Helvetica,sans-Serif" font-size="10.00">utils/OdometryPlotting.hpp</text>
</a>
</g>
</g>
<!-- Node3&#45;&gt;Node18 -->
<g id="edge28_Node000003_Node000018" class="edge">
<title>Node3&#45;&gt;Node18</title>
<g id="a_edge28_Node000003_Node000018"><a xlink:title=" ">
<path fill="none" stroke="#63b8ff" d="M728.39,-220.51C730.78,-207.7 736.17,-183.91 745.88,-165.75 751.12,-155.92 758.75,-146.25 765.72,-138.44"/>
<polygon fill="#63b8ff" stroke="#63b8ff" points="768.1,-141.02 772.38,-131.33 762.99,-136.23 768.1,-141.02"/>
</a>
</g>
</g>
<!-- Node19 -->
<g id="Node000019" class="node">
<title>Node19</title>
<g id="a_Node000019"><a xlink:href="_subsystem_8h.html" target="_top" xlink:title=" ">
<polygon fill="white" stroke="#666666" points="828.75,-185 755,-185 755,-165.75 828.75,-165.75 828.75,-185"/>
<text xml:space="preserve" text-anchor="middle" x="791.88" y="-171.5" font-family="Helvetica,sans-Serif" font-size="10.00">Subsystem.h</text>
</a>
</g>
</g>
<!-- Node3&#45;&gt;Node19 -->
<g id="edge30_Node000003_Node000019" class="edge">
<title>Node3&#45;&gt;Node19</title>
<g id="a_edge30_Node000003_Node000019"><a xlink:title=" ">
<path fill="none" stroke="#63b8ff" d="M737.9,-220.59C747.3,-212.9 761.02,-201.65 772.28,-192.43"/>
<polygon fill="#63b8ff" stroke="#63b8ff" points="774.32,-195.28 779.84,-186.23 769.89,-189.86 774.32,-195.28"/>
</a>
</g>
</g>
<!-- Node5&#45;&gt;Node4 -->
<g id="edge5_Node000005_Node000004" class="edge">
<title>Node5&#45;&gt;Node4</title>
<g id="a_edge5_Node000005_Node000004"><a xlink:title=" ">
<path fill="none" stroke="#63b8ff" d="M409.38,-165.33C415.67,-156.45 425.33,-142.42 432.88,-129.75 452,-97.64 442.5,-78.35 471.88,-55.25 511.91,-23.76 571.29,-14.17 610.53,-11.43"/>
<polygon fill="#63b8ff" stroke="#63b8ff" points="610.72,-14.92 620.5,-10.87 610.32,-7.94 610.72,-14.92"/>
</a>
</g>
</g>
<!-- Node6 -->
<g id="Node000006" class="node">
<title>Node6</title>
<g id="a_Node000006"><a xlink:href="_dual_motor_controller_8hpp.html" target="_top" xlink:title=" ">
<polygon fill="white" stroke="#666666" points="324.88,-129.75 164.88,-129.75 164.88,-110.5 324.88,-110.5 324.88,-129.75"/>
<text xml:space="preserve" text-anchor="middle" x="244.88" y="-116.25" font-family="Helvetica,sans-Serif" font-size="10.00">Devices/DualMotorController.hpp</text>
</a>
</g>
</g>
<!-- Node5&#45;&gt;Node6 -->
<g id="edge6_Node000005_Node000006" class="edge">
<title>Node5&#45;&gt;Node6</title>
<g id="a_edge6_Node000005_Node000006"><a xlink:title=" ">
<path fill="none" stroke="#63b8ff" d="M376.07,-165.34C350.42,-156.7 311.49,-143.57 282.69,-133.87"/>
<polygon fill="#63b8ff" stroke="#63b8ff" points="283.84,-130.56 273.24,-130.69 281.6,-137.2 283.84,-130.56"/>
</a>
</g>
</g>
<!-- Node7 -->
<g id="Node000007" class="node">
<title>Node7</title>
<g id="a_Node000007"><a xlink:href="_p_i_d_8hpp.html" target="_top" xlink:title=" ">
<polygon fill="white" stroke="#666666" points="424.38,-74.5 351.38,-74.5 351.38,-55.25 424.38,-55.25 424.38,-74.5"/>
<text xml:space="preserve" text-anchor="middle" x="387.88" y="-61" font-family="Helvetica,sans-Serif" font-size="10.00">utils/PID.hpp</text>
</a>
</g>
</g>
<!-- Node5&#45;&gt;Node7 -->
<g id="edge13_Node000005_Node000007" class="edge">
<title>Node5&#45;&gt;Node7</title>
<g id="a_edge13_Node000005_Node000007"><a xlink:title=" ">
<path fill="none" stroke="#63b8ff" d="M394.1,-165.37C386.55,-156.95 376.22,-143.61 371.88,-129.75 367.22,-114.88 372.05,-97.74 377.59,-84.96"/>
<polygon fill="#63b8ff" stroke="#63b8ff" points="380.73,-86.53 381.97,-76 374.44,-83.46 380.73,-86.53"/>
</a>
</g>
</g>
<!-- Node10 -->
<g id="Node000010" class="node">
<title>Node10</title>
<g id="a_Node000010"><a xlink:title=" ">
<polygon fill="#e0e0e0" stroke="#999999" points="424.38,-129.75 381.38,-129.75 381.38,-110.5 424.38,-110.5 424.38,-129.75"/>
<text xml:space="preserve" text-anchor="middle" x="402.88" y="-116.25" font-family="Helvetica,sans-Serif" font-size="10.00">cmath</text>
</a>
</g>
</g>
<!-- Node5&#45;&gt;Node10 -->
<g id="edge14_Node000005_Node000010" class="edge">
<title>Node5&#45;&gt;Node10</title>
<g id="a_edge14_Node000005_Node000010"><a xlink:title=" ">
<path fill="none" stroke="#63b8ff" d="M402.88,-165.58C402.88,-159.07 402.88,-149.92 402.88,-141.62"/>
<polygon fill="#63b8ff" stroke="#63b8ff" points="406.38,-141.62 402.88,-131.62 399.38,-141.62 406.38,-141.62"/>
</a>
</g>
</g>
<!-- Node6&#45;&gt;Node4 -->
<g id="edge7_Node000006_Node000004" class="edge">
<title>Node6&#45;&gt;Node4</title>
<g id="a_edge7_Node000006_Node000004"><a xlink:title=" ">
<path fill="none" stroke="#63b8ff" d="M222,-110.18C194.87,-98.32 155.6,-76.42 174.88,-55.25 203.99,-23.28 501.16,-13.79 610.65,-11.36"/>
<polygon fill="#63b8ff" stroke="#63b8ff" points="610.42,-14.87 620.34,-11.16 610.27,-7.87 610.42,-14.87"/>
</a>
</g>
</g>
<!-- Node6&#45;&gt;Node7 -->
<g id="edge8_Node000006_Node000007" class="edge">
<title>Node6&#45;&gt;Node7</title>
<g id="a_edge8_Node000006_Node000007"><a xlink:title=" ">
<path fill="none" stroke="#63b8ff" d="M269.13,-110.09C292.14,-101.52 326.97,-88.56 352.96,-78.88"/>
<polygon fill="#63b8ff" stroke="#63b8ff" points="353.93,-82.25 362.08,-75.48 351.49,-75.69 353.93,-82.25"/>
</a>
</g>
</g>
<!-- Node8 -->
<g id="Node000008" class="node">
<title>Node8</title>
<g id="a_Node000008"><a xlink:title=" ">
<polygon fill="#e0e0e0" stroke="#999999" points="333.62,-74.5 184.12,-74.5 184.12,-55.25 333.62,-55.25 333.62,-74.5"/>
<text xml:space="preserve" text-anchor="middle" x="258.88" y="-61" font-family="Helvetica,sans-Serif" font-size="10.00">DualTB9051FTGMotorShield.h</text>
</a>
</g>
</g>
<!-- Node6&#45;&gt;Node8 -->
<g id="edge10_Node000006_Node000008" class="edge">
<title>Node6&#45;&gt;Node8</title>
<g id="a_edge10_Node000006_Node000008"><a xlink:title=" ">
<path fill="none" stroke="#63b8ff" d="M247.19,-110.33C248.94,-103.67 251.42,-94.24 253.64,-85.78"/>
<polygon fill="#63b8ff" stroke="#63b8ff" points="256.97,-86.88 256.13,-76.32 250.2,-85.1 256.97,-86.88"/>
</a>
</g>
</g>
<!-- Node9 -->
<g id="Node000009" class="node">
<title>Node9</title>
<g id="a_Node000009"><a xlink:href="_l298_n_motor_driver_mega_8h.html" target="_top" xlink:title=" ">
<polygon fill="white" stroke="#666666" points="127.75,-74.5 0,-74.5 0,-55.25 127.75,-55.25 127.75,-74.5"/>
<text xml:space="preserve" text-anchor="middle" x="63.88" y="-61" font-family="Helvetica,sans-Serif" font-size="10.00">L298NMotorDriverMega.h</text>
</a>
</g>
</g>
<!-- Node6&#45;&gt;Node9 -->
<g id="edge11_Node000006_Node000009" class="edge">
<title>Node6&#45;&gt;Node9</title>
<g id="a_edge11_Node000006_Node000009"><a xlink:title=" ">
<path fill="none" stroke="#63b8ff" d="M214.17,-110.09C184.27,-101.29 138.6,-87.86 105.45,-78.11"/>
<polygon fill="#63b8ff" stroke="#63b8ff" points="106.76,-74.84 96.18,-75.38 104.79,-81.56 106.76,-74.84"/>
</a>
</g>
</g>
<!-- Node7&#45;&gt;Node4 -->
<g id="edge9_Node000007_Node000004" class="edge">
<title>Node7&#45;&gt;Node4</title>
<g id="a_edge9_Node000007_Node000004"><a xlink:title=" ">
<path fill="none" stroke="#63b8ff" d="M424.72,-56.41C473.77,-46.48 560.2,-28.98 610.82,-18.73"/>
<polygon fill="#63b8ff" stroke="#63b8ff" points="611.38,-22.19 620.48,-16.78 609.99,-15.33 611.38,-22.19"/>
</a>
</g>
</g>
<!-- Node9&#45;&gt;Node4 -->
<g id="edge12_Node000009_Node000004" class="edge">
<title>Node9&#45;&gt;Node4</title>
<g id="a_edge12_Node000009_Node000004"><a xlink:title=" ">
<path fill="none" stroke="#63b8ff" d="M128.14,-56.65C132.78,-56.17 137.4,-55.69 141.88,-55.25 316.18,-37.97 524.43,-20.8 610.55,-13.85"/>
<polygon fill="#63b8ff" stroke="#63b8ff" points="610.68,-17.35 620.36,-13.06 610.11,-10.37 610.68,-17.35"/>
</a>
</g>
</g>
<!-- Node11&#45;&gt;Node4 -->
<g id="edge16_Node000011_Node000004" class="edge">
<title>Node11&#45;&gt;Node4</title>
<g id="a_edge16_Node000011_Node000004"><a xlink:title=" ">
<path fill="none" stroke="#63b8ff" d="M953.54,-54.78C878.41,-43.82 754.34,-25.72 690.92,-16.47"/>
<polygon fill="#63b8ff" stroke="#63b8ff" points="691.7,-13.04 681.3,-15.06 690.69,-19.97 691.7,-13.04"/>
</a>
</g>
</g>
<!-- Node12 -->
<g id="Node000012" class="node">
<title>Node12</title>
<g id="a_Node000012"><a xlink:title=" ">
<polygon fill="#e0e0e0" stroke="#999999" points="1045.62,-19.25 986.12,-19.25 986.12,0 1045.62,0 1045.62,-19.25"/>
<text xml:space="preserve" text-anchor="middle" x="1015.88" y="-5.75" font-family="Helvetica,sans-Serif" font-size="10.00">Encoder.h</text>
</a>
</g>
</g>
<!-- Node11&#45;&gt;Node12 -->
<g id="edge17_Node000011_Node000012" class="edge">
<title>Node11&#45;&gt;Node12</title>
<g id="a_edge17_Node000011_Node000012"><a xlink:title=" ">
<path fill="none" stroke="#63b8ff" d="M1015.88,-55.08C1015.88,-48.57 1015.88,-39.42 1015.88,-31.12"/>
<polygon fill="#63b8ff" stroke="#63b8ff" points="1019.38,-31.12 1015.88,-21.12 1012.38,-31.12 1019.38,-31.12"/>
</a>
</g>
</g>
<!-- Node13&#45;&gt;Node4 -->
<g id="edge19_Node000013_Node000004" class="edge">
<title>Node13&#45;&gt;Node4</title>
<g id="a_edge19_Node000013_Node000004"><a xlink:title=" ">
<path fill="none" stroke="#63b8ff" d="M590.19,-165.46C577.75,-152.9 558.99,-129.4 569.88,-110.5 585.77,-82.89 612.16,-99.54 631.88,-74.5 641.85,-61.83 646.59,-44.03 648.85,-30.44"/>
<polygon fill="#63b8ff" stroke="#63b8ff" points="652.27,-31.27 650.1,-20.9 645.33,-30.36 652.27,-31.27"/>
</a>
</g>
</g>
<!-- Node14 -->
<g id="Node000014" class="node">
<title>Node14</title>
<g id="a_Node000014"><a xlink:title=" ">
<polygon fill="#e0e0e0" stroke="#999999" points="660.5,-129.75 579.25,-129.75 579.25,-110.5 660.5,-110.5 660.5,-129.75"/>
<text xml:space="preserve" text-anchor="middle" x="619.88" y="-116.25" font-family="Helvetica,sans-Serif" font-size="10.00">QTRSensors.h</text>
</a>
</g>
</g>
<!-- Node13&#45;&gt;Node14 -->
<g id="edge20_Node000013_Node000014" class="edge">
<title>Node13&#45;&gt;Node14</title>
<g id="a_edge20_Node000013_Node000014"><a xlink:title=" ">
<path fill="none" stroke="#63b8ff" d="M603.18,-165.58C605.71,-158.84 609.3,-149.27 612.51,-140.74"/>
<polygon fill="#63b8ff" stroke="#63b8ff" points="615.73,-142.12 615.97,-131.53 609.18,-139.66 615.73,-142.12"/>
</a>
</g>
</g>
<!-- Node15&#45;&gt;Node4 -->
<g id="edge22_Node000015_Node000004" class="edge">
<title>Node15&#45;&gt;Node4</title>
<g id="a_edge22_Node000015_Node000004"><a xlink:title=" ">
<path fill="none" stroke="#63b8ff" d="M568.67,-54.84C583.89,-46.66 606.57,-34.46 624.26,-24.94"/>
<polygon fill="#63b8ff" stroke="#63b8ff" points="625.52,-28.24 632.67,-20.42 622.2,-22.07 625.52,-28.24"/>
</a>
</g>
</g>
<!-- Node16&#45;&gt;Node11 -->
<g id="edge24_Node000016_Node000011" class="edge">
<title>Node16&#45;&gt;Node11</title>
<g id="a_edge24_Node000016_Node000011"><a xlink:title=" ">
<path fill="none" stroke="#63b8ff" d="M995.84,-110.33C998.91,-103.51 1003.29,-93.81 1007.16,-85.2"/>
<polygon fill="#63b8ff" stroke="#63b8ff" points="1010.29,-86.79 1011.2,-76.24 1003.9,-83.92 1010.29,-86.79"/>
</a>
</g>
</g>
<!-- Node17&#45;&gt;Node4 -->
<g id="edge26_Node000017_Node000004" class="edge">
<title>Node17&#45;&gt;Node4</title>
<g id="a_edge26_Node000017_Node000004"><a xlink:title=" ">
<path fill="none" stroke="#63b8ff" d="M911.05,-165.38C900.89,-142.71 870.92,-83.03 825.88,-55.25 784.33,-29.63 728.61,-18.67 691.31,-14.01"/>
<polygon fill="#63b8ff" stroke="#63b8ff" points="691.73,-10.54 681.39,-12.88 690.93,-17.49 691.73,-10.54"/>
</a>
</g>
</g>
<!-- Node17&#45;&gt;Node16 -->
<g id="edge27_Node000017_Node000016" class="edge">
<title>Node17&#45;&gt;Node16</title>
<g id="a_edge27_Node000017_Node000016"><a xlink:title=" ">
<path fill="none" stroke="#63b8ff" d="M927.94,-165.34C939.33,-157.46 956.1,-145.86 969.61,-136.52"/>
<polygon fill="#63b8ff" stroke="#63b8ff" points="971.27,-139.63 977.5,-131.06 967.29,-133.87 971.27,-139.63"/>
</a>
</g>
</g>
<!-- Node18&#45;&gt;Node4 -->
<g id="edge29_Node000018_Node000004" class="edge">
<title>Node18&#45;&gt;Node4</title>
<g id="a_edge29_Node000018_Node000004"><a xlink:title=" ">
<path fill="none" stroke="#63b8ff" d="M772.07,-110.25C749.83,-91.97 698.66,-49.9 670.44,-26.71"/>
<polygon fill="#63b8ff" stroke="#63b8ff" points="672.94,-24.23 663,-20.59 668.5,-29.64 672.94,-24.23"/>
</a>
</g>
</g>
<!-- Node19&#45;&gt;Node4 -->
<g id="edge31_Node000019_Node000004" class="edge">
<title>Node19&#45;&gt;Node4</title>
<g id="a_edge31_Node000019_Node000004"><a xlink:title=" ">
<path fill="none" stroke="#63b8ff" d="M814.1,-165.37C838.45,-154.09 872.29,-133.46 857.88,-110.5 821.34,-52.31 740.3,-27.21 691.16,-17.02"/>
<polygon fill="#63b8ff" stroke="#63b8ff" points="691.96,-13.61 681.48,-15.13 690.62,-20.48 691.96,-13.61"/>
</a>
</g>
</g>
</g>
</svg>
