<?xml version="1.0" encoding="UTF-8" standalone="no"?>
<!DOCTYPE svg PUBLIC "-//W3C//DTD SVG 1.1//EN"
 "http://www.w3.org/Graphics/SVG/1.1/DTD/svg11.dtd">
<!-- Generated by graphviz version 14.1.2 (20260124.0452)
 -->
<!-- Title: src/subsystems/Miner.hpp Pages: 1 -->
<svg width="303pt" height="271pt"
 viewBox="0.00 0.00 303.00 271.00" xmlns="http://www.w3.org/2000/svg" xmlns:xlink="http://www.w3.org/1999/xlink">
<g id="graph0" class="graph" transform="scale(1 1) rotate(0) translate(4 266.75)">
<title>src/subsystems/Miner.hpp</title>
<!-- Node1 -->
<g id="Node000001" class="node">
<title>Node1</title>
<g id="a_Node000001"><a xlink:title=" ">
<polygon fill="#999999" stroke="#666666" points="222,-262.75 91.25,-262.75 91.25,-243.5 222,-243.5 222,-262.75"/>
<text xml:space="preserve" text-anchor="middle" x="156.62" y="-249.25" font-family="Helvetica,sans-Serif" font-size="10.00">src/subsystems/Miner.hpp</text>
</a>
</g>
</g>
<!-- Node2 -->
<g id="Node000002" class="node">
<title>Node2</title>
<g id="a_Node000002"><a xlink:href="_planner_8hpp.html" target="_top" xlink:title=" ">
<polygon fill="white" stroke="#666666" points="155.25,-141 14,-141 14,-121.75 155.25,-121.75 155.25,-141"/>
<text xml:space="preserve" text-anchor="middle" x="84.62" y="-127.5" font-family="Helvetica,sans-Serif" font-size="10.00">src/Autonomous/Planner.hpp</text>
</a>
</g>
</g>
<!-- Node1&#45;&gt;Node2 -->
<g id="edge1_Node000001_Node000002" class="edge">
<title>Node1&#45;&gt;Node2</title>
<g id="a_edge1_Node000001_Node000002"><a xlink:title=" ">
<path fill="none" stroke="#63b8ff" d="M123.23,-237.9C110.51,-230.71 97.25,-220.67 89.62,-207.5 77.44,-186.46 80.32,-156.34 82.81,-141.43"/>
<polygon fill="#63b8ff" stroke="#63b8ff" points="121.37,-240.88 131.86,-242.36 124.59,-234.66 121.37,-240.88"/>
</a>
</g>
</g>
<!-- Node4 -->
<g id="Node000004" class="node">
<title>Node4</title>
<g id="a_Node000004"><a xlink:href="_robot_8hpp.html" target="_top" xlink:title=" ">
<polygon fill="white" stroke="#666666" points="236.38,-85.75 158.88,-85.75 158.88,-66.5 236.38,-66.5 236.38,-85.75"/>
<text xml:space="preserve" text-anchor="middle" x="197.62" y="-72.25" font-family="Helvetica,sans-Serif" font-size="10.00">src/Robot.hpp</text>
</a>
</g>
</g>
<!-- Node1&#45;&gt;Node4 -->
<g id="edge9_Node000001_Node000004" class="edge">
<title>Node1&#45;&gt;Node4</title>
<g id="a_edge9_Node000001_Node000004"><a xlink:title=" ">
<path fill="none" stroke="#63b8ff" d="M190.73,-237.99C203.44,-230.85 216.49,-220.82 223.62,-207.5 245.85,-165.99 216.14,-107.85 203.16,-85.94"/>
<polygon fill="#63b8ff" stroke="#63b8ff" points="189.39,-234.74 182.09,-242.41 192.58,-240.97 189.39,-234.74"/>
</a>
</g>
</g>
<!-- Node7 -->
<g id="Node000007" class="node">
<title>Node7</title>
<g id="a_Node000007"><a xlink:href="_mine_block_8hpp.html" target="_top" xlink:title=" ">
<polygon fill="white" stroke="#666666" points="214.5,-207.5 98.75,-207.5 98.75,-177 214.5,-177 214.5,-207.5"/>
<text xml:space="preserve" text-anchor="start" x="106.75" y="-194" font-family="Helvetica,sans-Serif" font-size="10.00">src/Autonomous/Steps</text>
<text xml:space="preserve" text-anchor="middle" x="156.62" y="-182.75" font-family="Helvetica,sans-Serif" font-size="10.00">/MineBlock.hpp</text>
</a>
</g>
</g>
<!-- Node1&#45;&gt;Node7 -->
<g id="edge6_Node000001_Node000007" class="edge">
<title>Node1&#45;&gt;Node7</title>
<g id="a_edge6_Node000001_Node000007"><a xlink:title=" ">
<path fill="none" stroke="#63b8ff" d="M156.62,-231.92C156.62,-223.99 156.62,-215.06 156.62,-207.78"/>
<polygon fill="#63b8ff" stroke="#63b8ff" points="153.13,-231.67 156.63,-241.67 160.13,-231.67 153.13,-231.67"/>
</a>
</g>
</g>
<!-- Node3 -->
<g id="Node000003" class="node">
<title>Node3</title>
<g id="a_Node000003"><a xlink:href="_planner_8cpp.html" target="_top" xlink:title=" ">
<polygon fill="white" stroke="#666666" points="141.25,-85.75 0,-85.75 0,-66.5 141.25,-66.5 141.25,-85.75"/>
<text xml:space="preserve" text-anchor="middle" x="70.62" y="-72.25" font-family="Helvetica,sans-Serif" font-size="10.00">src/Autonomous/Planner.cpp</text>
</a>
</g>
</g>
<!-- Node2&#45;&gt;Node3 -->
<g id="edge2_Node000002_Node000003" class="edge">
<title>Node2&#45;&gt;Node3</title>
<g id="a_edge2_Node000002_Node000003"><a xlink:title=" ">
<path fill="none" stroke="#63b8ff" d="M79.45,-110.71C77.24,-102.27 74.75,-92.83 72.99,-86.11"/>
<polygon fill="#63b8ff" stroke="#63b8ff" points="76,-111.34 81.93,-120.12 82.77,-109.56 76,-111.34"/>
</a>
</g>
</g>
<!-- Node2&#45;&gt;Node4 -->
<g id="edge3_Node000002_Node000004" class="edge">
<title>Node2&#45;&gt;Node4</title>
<g id="a_edge3_Node000002_Node000004"><a xlink:title=" ">
<path fill="none" stroke="#63b8ff" d="M114.05,-116.51C134.34,-106.95 160.72,-94.52 178.36,-86.2"/>
<polygon fill="#63b8ff" stroke="#63b8ff" points="112.72,-113.27 105.16,-120.7 115.7,-119.6 112.72,-113.27"/>
</a>
</g>
</g>
<!-- Node5 -->
<g id="Node000005" class="node">
<title>Node5</title>
<g id="a_Node000005"><a xlink:href="_strategy_controller_step_8hpp.html" target="_top" xlink:title=" ">
<polygon fill="white" stroke="#666666" points="204,-30.5 67.25,-30.5 67.25,0 204,0 204,-30.5"/>
<text xml:space="preserve" text-anchor="start" x="75.25" y="-17" font-family="Helvetica,sans-Serif" font-size="10.00">src/Autonomous/Steps</text>
<text xml:space="preserve" text-anchor="middle" x="135.62" y="-5.75" font-family="Helvetica,sans-Serif" font-size="10.00">/StrategyControllerStep.hpp</text>
</a>
</g>
</g>
<!-- Node4&#45;&gt;Node5 -->
<g id="edge4_Node000004_Node000005" class="edge">
<title>Node4&#45;&gt;Node5</title>
<g id="a_edge4_Node000004_Node000005"><a xlink:title=" ">
<path fill="none" stroke="#63b8ff" d="M180.14,-58.52C170.94,-49.79 159.78,-39.18 150.93,-30.78"/>
<polygon fill="#63b8ff" stroke="#63b8ff" points="177.45,-60.79 187.11,-65.14 182.27,-55.72 177.45,-60.79"/>
</a>
</g>
</g>
<!-- Node6 -->
<g id="Node000006" class="node">
<title>Node6</title>
<g id="a_Node000006"><a xlink:href="main_8cpp.html" target="_top" xlink:title=" ">
<polygon fill="white" stroke="#666666" points="294.75,-24.88 222.5,-24.88 222.5,-5.63 294.75,-5.63 294.75,-24.88"/>
<text xml:space="preserve" text-anchor="middle" x="258.62" y="-11.38" font-family="Helvetica,sans-Serif" font-size="10.00">src/main.cpp</text>
</a>
</g>
</g>
<!-- Node4&#45;&gt;Node6 -->
<g id="edge5_Node000004_Node000006" class="edge">
<title>Node4&#45;&gt;Node6</title>
<g id="a_edge5_Node000004_Node000006"><a xlink:title=" ">
<path fill="none" stroke="#63b8ff" d="M215.06,-58.3C226.19,-47.55 240.19,-34.04 249.27,-25.28"/>
<polygon fill="#63b8ff" stroke="#63b8ff" points="212.74,-55.67 207.98,-65.13 217.6,-60.71 212.74,-55.67"/>
</a>
</g>
</g>
<!-- Node7&#45;&gt;Node2 -->
<g id="edge7_Node000007_Node000002" class="edge">
<title>Node7&#45;&gt;Node2</title>
<g id="a_edge7_Node000007_Node000002"><a xlink:title=" ">
<path fill="none" stroke="#63b8ff" d="M130.13,-169.58C118.25,-159.87 104.88,-148.94 95.72,-141.45"/>
<polygon fill="#63b8ff" stroke="#63b8ff" points="127.7,-172.12 137.66,-175.74 132.13,-166.7 127.7,-172.12"/>
</a>
</g>
</g>
<!-- Node7&#45;&gt;Node4 -->
<g id="edge8_Node000007_Node000004" class="edge">
<title>Node7&#45;&gt;Node4</title>
<g id="a_edge8_Node000007_Node000004"><a xlink:title=" ">
<path fill="none" stroke="#63b8ff" d="M165.63,-166.18C174.7,-140.92 188.22,-103.32 194.37,-86.2"/>
<polygon fill="#63b8ff" stroke="#63b8ff" points="162.42,-164.78 162.33,-175.37 169,-167.14 162.42,-164.78"/>
</a>
</g>
</g>
</g>
</svg>
