<?xml version="1.0" encoding="UTF-8" standalone="no"?>
<!DOCTYPE svg PUBLIC "-//W3C//DTD SVG 1.1//EN"
 "http://www.w3.org/Graphics/SVG/1.1/DTD/svg11.dtd">
<!-- Generated by graphviz version 14.1.2 (20260124.0452)
 -->
<!-- Title: src/subsystems/Miner.hpp Pages: 1 -->
<svg width="825pt" height="248pt"
 viewBox="0.00 0.00 825.00 248.00" xmlns="http://www.w3.org/2000/svg" xmlns:xlink="http://www.w3.org/1999/xlink">
<g id="graph0" class="graph" transform="scale(1 1) rotate(0) translate(4 244.25)">
<title>src/subsystems/Miner.hpp</title>
<!-- Node1 -->
<g id="Node000001" class="node">
<title>Node1</title>
<g id="a_Node000001"><a xlink:title="Miner subsystem: servo&#45;driven block&#45;pressing mechanism and ramp deployment.">
<polygon fill="#999999" stroke="#666666" points="557.88,-240.25 427.12,-240.25 427.12,-221 557.88,-221 557.88,-240.25"/>
<text xml:space="preserve" text-anchor="middle" x="492.5" y="-226.75" font-family="Helvetica,sans-Serif" font-size="10.00">src/subsystems/Miner.hpp</text>
</a>
</g>
</g>
<!-- Node2 -->
<g id="Node000002" class="node">
<title>Node2</title>
<g id="a_Node000002"><a xlink:title=" ">
<polygon fill="#e0e0e0" stroke="#999999" points="462.12,-19.25 404.88,-19.25 404.88,0 462.12,0 462.12,-19.25"/>
<text xml:space="preserve" text-anchor="middle" x="433.5" y="-5.75" font-family="Helvetica,sans-Serif" font-size="10.00">Arduino.h</text>
</a>
</g>
</g>
<!-- Node1&#45;&gt;Node2 -->
<g id="edge1_Node000001_Node000002" class="edge">
<title>Node1&#45;&gt;Node2</title>
<g id="a_edge1_Node000001_Node000002"><a xlink:title=" ">
<path fill="none" stroke="#63b8ff" d="M558.12,-224.08C611,-218.09 679.28,-206.39 696.5,-185 701.86,-178.34 697.91,-174.19 696.5,-165.75 687.94,-114.53 697.62,-89.4 658.5,-55.25 631.42,-31.61 530.61,-19.12 473.55,-13.81"/>
<polygon fill="#63b8ff" stroke="#63b8ff" points="474.19,-10.35 463.92,-12.95 473.57,-17.32 474.19,-10.35"/>
</a>
</g>
</g>
<!-- Node3 -->
<g id="Node000003" class="node">
<title>Node3</title>
<g id="a_Node000003"><a xlink:href="_subsystem_8h.html" target="_top" xlink:title="Abstract base class for all robot subsystems.">
<polygon fill="white" stroke="#666666" points="817.38,-74.5 743.62,-74.5 743.62,-55.25 817.38,-55.25 817.38,-74.5"/>
<text xml:space="preserve" text-anchor="middle" x="780.5" y="-61" font-family="Helvetica,sans-Serif" font-size="10.00">Subsystem.h</text>
</a>
</g>
</g>
<!-- Node1&#45;&gt;Node3 -->
<g id="edge2_Node000001_Node000003" class="edge">
<title>Node1&#45;&gt;Node3</title>
<g id="a_edge2_Node000001_Node000003"><a xlink:title=" ">
<path fill="none" stroke="#63b8ff" d="M558.19,-224.17C618.94,-217.92 703.62,-205.77 729.5,-185 760.55,-160.08 773.04,-112.69 777.8,-85.8"/>
<polygon fill="#63b8ff" stroke="#63b8ff" points="781.21,-86.65 779.28,-76.23 774.29,-85.58 781.21,-86.65"/>
</a>
</g>
</g>
<!-- Node4 -->
<g id="Node000004" class="node">
<title>Node4</title>
<g id="a_Node000004"><a xlink:href="_servo_control_8hpp.html" target="_top" xlink:title="Buffered servo wrapper that defers writes until update() is called.">
<polygon fill="white" stroke="#666666" points="557.88,-185 427.12,-185 427.12,-165.75 557.88,-165.75 557.88,-185"/>
<text xml:space="preserve" text-anchor="middle" x="492.5" y="-171.5" font-family="Helvetica,sans-Serif" font-size="10.00">Devices/ServoControl.hpp</text>
</a>
</g>
</g>
<!-- Node1&#45;&gt;Node4 -->
<g id="edge4_Node000001_Node000004" class="edge">
<title>Node1&#45;&gt;Node4</title>
<g id="a_edge4_Node000001_Node000004"><a xlink:title=" ">
<path fill="none" stroke="#63b8ff" d="M492.5,-220.83C492.5,-214.32 492.5,-205.17 492.5,-196.87"/>
<polygon fill="#63b8ff" stroke="#63b8ff" points="496,-196.87 492.5,-186.87 489,-196.87 496,-196.87"/>
</a>
</g>
</g>
<!-- Node6 -->
<g id="Node000006" class="node">
<title>Node6</title>
<g id="a_Node000006"><a xlink:href="_encoder_wrapper_8hpp.html" target="_top" xlink:title="Quadrature encoder wrapper providing position, velocity, and acceleration.">
<polygon fill="white" stroke="#666666" points="145,-185 0,-185 0,-165.75 145,-165.75 145,-185"/>
<text xml:space="preserve" text-anchor="middle" x="72.5" y="-171.5" font-family="Helvetica,sans-Serif" font-size="10.00">Devices/EncoderWrapper.hpp</text>
</a>
</g>
</g>
<!-- Node1&#45;&gt;Node6 -->
<g id="edge7_Node000001_Node000006" class="edge">
<title>Node1&#45;&gt;Node6</title>
<g id="a_edge7_Node000001_Node000006"><a xlink:title=" ">
<path fill="none" stroke="#63b8ff" d="M426.88,-221.3C353.61,-212.02 234.9,-196.97 155.31,-186.87"/>
<polygon fill="#63b8ff" stroke="#63b8ff" points="156.2,-183.46 145.84,-185.67 155.32,-190.4 156.2,-183.46"/>
</a>
</g>
</g>
<!-- Node8 -->
<g id="Node000008" class="node">
<title>Node8</title>
<g id="a_Node000008"><a xlink:href="_p_i_d_8hpp.html" target="_top" xlink:title="PID controller classes with optional nonlinear extensions and feedforward support.">
<polygon fill="white" stroke="#666666" points="221,-74.5 148,-74.5 148,-55.25 221,-55.25 221,-74.5"/>
<text xml:space="preserve" text-anchor="middle" x="184.5" y="-61" font-family="Helvetica,sans-Serif" font-size="10.00">utils/PID.hpp</text>
</a>
</g>
</g>
<!-- Node1&#45;&gt;Node8 -->
<g id="edge10_Node000001_Node000008" class="edge">
<title>Node1&#45;&gt;Node8</title>
<g id="a_edge10_Node000001_Node000008"><a xlink:title=" ">
<path fill="none" stroke="#63b8ff" d="M426.64,-223.67C362.71,-214.36 267.38,-190.56 211.5,-129.75 200.15,-117.4 193.16,-99.57 189.14,-85.88"/>
<polygon fill="#63b8ff" stroke="#63b8ff" points="192.53,-85.02 186.63,-76.22 185.76,-86.78 192.53,-85.02"/>
</a>
</g>
</g>
<!-- Node9 -->
<g id="Node000009" class="node">
<title>Node9</title>
<g id="a_Node000009"><a xlink:href="_config_8hpp.html" target="_top" xlink:title="Central configuration: pin assignments, physical constants, and PID gains.">
<polygon fill="white" stroke="#666666" points="389.12,-185 325.88,-185 325.88,-165.75 389.12,-165.75 389.12,-185"/>
<text xml:space="preserve" text-anchor="middle" x="357.5" y="-171.5" font-family="Helvetica,sans-Serif" font-size="10.00">Config.hpp</text>
</a>
</g>
</g>
<!-- Node1&#45;&gt;Node9 -->
<g id="edge12_Node000001_Node000009" class="edge">
<title>Node1&#45;&gt;Node9</title>
<g id="a_edge12_Node000001_Node000009"><a xlink:title=" ">
<path fill="none" stroke="#63b8ff" d="M469.6,-220.59C448.07,-212.1 415.59,-199.29 391.12,-189.64"/>
<polygon fill="#63b8ff" stroke="#63b8ff" points="392.51,-186.42 381.92,-186.01 389.94,-192.93 392.51,-186.42"/>
</a>
</g>
</g>
<!-- Node14 -->
<g id="Node000014" class="node">
<title>Node14</title>
<g id="a_Node000014"><a xlink:href="_solenoid_8hpp.html" target="_top" xlink:title="Simple digital solenoid driver (currently unused in primary code path).">
<polygon fill="white" stroke="#666666" points="687.12,-185 575.88,-185 575.88,-165.75 687.12,-165.75 687.12,-185"/>
<text xml:space="preserve" text-anchor="middle" x="631.5" y="-171.5" font-family="Helvetica,sans-Serif" font-size="10.00">Devices/Solenoid.hpp</text>
</a>
</g>
</g>
<!-- Node1&#45;&gt;Node14 -->
<g id="edge22_Node000001_Node000014" class="edge">
<title>Node1&#45;&gt;Node14</title>
<g id="a_edge22_Node000001_Node000014"><a xlink:title=" ">
<path fill="none" stroke="#63b8ff" d="M516.08,-220.59C538.34,-212.06 571.99,-199.17 597.22,-189.51"/>
<polygon fill="#63b8ff" stroke="#63b8ff" points="598.31,-192.84 606.39,-185.99 595.8,-186.3 598.31,-192.84"/>
</a>
</g>
</g>
<!-- Node3&#45;&gt;Node2 -->
<g id="edge3_Node000003_Node000002" class="edge">
<title>Node3&#45;&gt;Node2</title>
<g id="a_edge3_Node000003_Node000002"><a xlink:title=" ">
<path fill="none" stroke="#63b8ff" d="M743.19,-57.49C738.58,-56.72 733.93,-55.96 729.5,-55.25 638.23,-40.65 530.91,-24.8 473.9,-16.48"/>
<polygon fill="#63b8ff" stroke="#63b8ff" points="474.41,-13.02 464.01,-15.04 473.41,-19.95 474.41,-13.02"/>
</a>
</g>
</g>
<!-- Node4&#45;&gt;Node2 -->
<g id="edge5_Node000004_Node000002" class="edge">
<title>Node4&#45;&gt;Node2</title>
<g id="a_edge5_Node000004_Node000002"><a xlink:title=" ">
<path fill="none" stroke="#63b8ff" d="M535.96,-165.28C557.85,-158.7 583.32,-147.71 600.5,-129.75 624.2,-104.97 641.74,-82.16 620.5,-55.25 602.55,-32.51 522.97,-20.09 473.58,-14.45"/>
<polygon fill="#63b8ff" stroke="#63b8ff" points="474.16,-11 463.84,-13.39 473.4,-17.95 474.16,-11"/>
</a>
</g>
</g>
<!-- Node5 -->
<g id="Node000005" class="node">
<title>Node5</title>
<g id="a_Node000005"><a xlink:title=" ">
<polygon fill="#e0e0e0" stroke="#999999" points="591.75,-129.75 517.25,-129.75 517.25,-110.5 591.75,-110.5 591.75,-129.75"/>
<text xml:space="preserve" text-anchor="middle" x="554.5" y="-116.25" font-family="Helvetica,sans-Serif" font-size="10.00">PWMServo.h</text>
</a>
</g>
</g>
<!-- Node4&#45;&gt;Node5 -->
<g id="edge6_Node000004_Node000005" class="edge">
<title>Node4&#45;&gt;Node5</title>
<g id="a_edge6_Node000004_Node000005"><a xlink:title=" ">
<path fill="none" stroke="#63b8ff" d="M503.02,-165.34C511.89,-157.72 524.81,-146.62 535.49,-137.45"/>
<polygon fill="#63b8ff" stroke="#63b8ff" points="537.68,-140.18 542.99,-131.01 533.12,-134.87 537.68,-140.18"/>
</a>
</g>
</g>
<!-- Node6&#45;&gt;Node2 -->
<g id="edge8_Node000006_Node000002" class="edge">
<title>Node6&#45;&gt;Node2</title>
<g id="a_edge8_Node000006_Node000002"><a xlink:title=" ">
<path fill="none" stroke="#63b8ff" d="M71.04,-165.58C69.33,-152.76 67.75,-128.49 76.5,-110.5 92.64,-77.31 105.09,-70.94 138.5,-55.25 182.93,-34.39 323.28,-19.95 393.16,-13.87"/>
<polygon fill="#63b8ff" stroke="#63b8ff" points="393.37,-17.36 403.04,-13.02 392.77,-10.39 393.37,-17.36"/>
</a>
</g>
</g>
<!-- Node7 -->
<g id="Node000007" class="node">
<title>Node7</title>
<g id="a_Node000007"><a xlink:title=" ">
<polygon fill="#e0e0e0" stroke="#999999" points="145.25,-129.75 85.75,-129.75 85.75,-110.5 145.25,-110.5 145.25,-129.75"/>
<text xml:space="preserve" text-anchor="middle" x="115.5" y="-116.25" font-family="Helvetica,sans-Serif" font-size="10.00">Encoder.h</text>
</a>
</g>
</g>
<!-- Node6&#45;&gt;Node7 -->
<g id="edge9_Node000006_Node000007" class="edge">
<title>Node6&#45;&gt;Node7</title>
<g id="a_edge9_Node000006_Node000007"><a xlink:title=" ">
<path fill="none" stroke="#63b8ff" d="M79.6,-165.58C85.42,-158.38 93.83,-147.96 101.06,-139.01"/>
<polygon fill="#63b8ff" stroke="#63b8ff" points="103.73,-141.27 107.29,-131.29 98.29,-136.87 103.73,-141.27"/>
</a>
</g>
</g>
<!-- Node8&#45;&gt;Node2 -->
<g id="edge11_Node000008_Node000002" class="edge">
<title>Node8&#45;&gt;Node2</title>
<g id="a_edge11_Node000008_Node000002"><a xlink:title=" ">
<path fill="none" stroke="#63b8ff" d="M221.24,-56.02C267.23,-46.18 345.73,-29.39 393.29,-19.22"/>
<polygon fill="#63b8ff" stroke="#63b8ff" points="393.86,-22.68 402.91,-17.17 392.4,-15.84 393.86,-22.68"/>
</a>
</g>
</g>
<!-- Node9&#45;&gt;Node2 -->
<g id="edge13_Node000009_Node000002" class="edge">
<title>Node9&#45;&gt;Node2</title>
<g id="a_edge13_Node000009_Node000002"><a xlink:title=" ">
<path fill="none" stroke="#63b8ff" d="M325.75,-167.47C305.55,-161.26 280.94,-149.9 268.5,-129.75 251.11,-101.57 248.37,-81.54 268.5,-55.25 283.61,-35.51 349.6,-22.5 393.42,-15.86"/>
<polygon fill="#63b8ff" stroke="#63b8ff" points="393.69,-19.36 403.08,-14.45 392.68,-12.43 393.69,-19.36"/>
</a>
</g>
</g>
<!-- Node9&#45;&gt;Node8 -->
<g id="edge20_Node000009_Node000008" class="edge">
<title>Node9&#45;&gt;Node8</title>
<g id="a_edge20_Node000009_Node000008"><a xlink:title=" ">
<path fill="none" stroke="#63b8ff" d="M325.41,-167.73C299.38,-161.2 262.68,-149.31 235.5,-129.75 218.61,-117.6 204.34,-98.41 195.23,-84.23"/>
<polygon fill="#63b8ff" stroke="#63b8ff" points="198.3,-82.56 190.1,-75.86 192.34,-86.22 198.3,-82.56"/>
</a>
</g>
</g>
<!-- Node10 -->
<g id="Node000010" class="node">
<title>Node10</title>
<g id="a_Node000010"><a xlink:href="_dual_motor_controller_8hpp.html" target="_top" xlink:title="Dual closed&#45;loop motor controller wrapping an L298N driver with two independent PID loops.">
<polygon fill="white" stroke="#666666" points="437.5,-129.75 277.5,-129.75 277.5,-110.5 437.5,-110.5 437.5,-129.75"/>
<text xml:space="preserve" text-anchor="middle" x="357.5" y="-116.25" font-family="Helvetica,sans-Serif" font-size="10.00">Devices/DualMotorController.hpp</text>
</a>
</g>
</g>
<!-- Node9&#45;&gt;Node10 -->
<g id="edge14_Node000009_Node000010" class="edge">
<title>Node9&#45;&gt;Node10</title>
<g id="a_edge14_Node000009_Node000010"><a xlink:title=" ">
<path fill="none" stroke="#63b8ff" d="M357.5,-165.58C357.5,-159.07 357.5,-149.92 357.5,-141.62"/>
<polygon fill="#63b8ff" stroke="#63b8ff" points="361,-141.62 357.5,-131.62 354,-141.62 361,-141.62"/>
</a>
</g>
</g>
<!-- Node13 -->
<g id="Node000013" class="node">
<title>Node13</title>
<g id="a_Node000013"><a xlink:title=" ">
<polygon fill="#e0e0e0" stroke="#999999" points="499,-129.75 456,-129.75 456,-110.5 499,-110.5 499,-129.75"/>
<text xml:space="preserve" text-anchor="middle" x="477.5" y="-116.25" font-family="Helvetica,sans-Serif" font-size="10.00">cmath</text>
</a>
</g>
</g>
<!-- Node9&#45;&gt;Node13 -->
<g id="edge21_Node000009_Node000013" class="edge">
<title>Node9&#45;&gt;Node13</title>
<g id="a_edge21_Node000009_Node000013"><a xlink:title=" ">
<path fill="none" stroke="#63b8ff" d="M377.86,-165.34C396.73,-156.97 425.09,-144.38 446.73,-134.78"/>
<polygon fill="#63b8ff" stroke="#63b8ff" points="447.94,-138.07 455.66,-130.82 445.1,-131.67 447.94,-138.07"/>
</a>
</g>
</g>
<!-- Node10&#45;&gt;Node2 -->
<g id="edge15_Node000010_Node000002" class="edge">
<title>Node10&#45;&gt;Node2</title>
<g id="a_edge15_Node000010_Node000002"><a xlink:title=" ">
<path fill="none" stroke="#63b8ff" d="M374.05,-110.05C386.85,-102.22 404.1,-89.77 414.5,-74.5 423.38,-61.46 428.19,-44.18 430.75,-30.88"/>
<polygon fill="#63b8ff" stroke="#63b8ff" points="434.19,-31.54 432.33,-21.11 427.28,-30.43 434.19,-31.54"/>
</a>
</g>
</g>
<!-- Node10&#45;&gt;Node8 -->
<g id="edge16_Node000010_Node000008" class="edge">
<title>Node10&#45;&gt;Node8</title>
<g id="a_edge16_Node000010_Node000008"><a xlink:title=" ">
<path fill="none" stroke="#63b8ff" d="M328.15,-110.09C299.7,-101.33 256.3,-87.98 224.65,-78.23"/>
<polygon fill="#63b8ff" stroke="#63b8ff" points="226.02,-74.99 215.44,-75.4 223.97,-81.68 226.02,-74.99"/>
</a>
</g>
</g>
<!-- Node11 -->
<g id="Node000011" class="node">
<title>Node11</title>
<g id="a_Node000011"><a xlink:title=" ">
<polygon fill="#e0e0e0" stroke="#999999" points="611.25,-74.5 461.75,-74.5 461.75,-55.25 611.25,-55.25 611.25,-74.5"/>
<text xml:space="preserve" text-anchor="middle" x="536.5" y="-61" font-family="Helvetica,sans-Serif" font-size="10.00">DualTB9051FTGMotorShield.h</text>
</a>
</g>
</g>
<!-- Node10&#45;&gt;Node11 -->
<g id="edge17_Node000010_Node000011" class="edge">
<title>Node10&#45;&gt;Node11</title>
<g id="a_edge17_Node000010_Node000011"><a xlink:title=" ">
<path fill="none" stroke="#63b8ff" d="M387.86,-110.09C417.31,-101.33 462.21,-87.98 494.96,-78.23"/>
<polygon fill="#63b8ff" stroke="#63b8ff" points="495.95,-81.59 504.54,-75.38 493.95,-74.88 495.95,-81.59"/>
</a>
</g>
</g>
<!-- Node12 -->
<g id="Node000012" class="node">
<title>Node12</title>
<g id="a_Node000012"><a xlink:href="_l298_n_motor_driver_mega_8h.html" target="_top" xlink:title=" ">
<polygon fill="white" stroke="#666666" points="405.38,-74.5 277.62,-74.5 277.62,-55.25 405.38,-55.25 405.38,-74.5"/>
<text xml:space="preserve" text-anchor="middle" x="341.5" y="-61" font-family="Helvetica,sans-Serif" font-size="10.00">L298NMotorDriverMega.h</text>
</a>
</g>
</g>
<!-- Node10&#45;&gt;Node12 -->
<g id="edge18_Node000010_Node000012" class="edge">
<title>Node10&#45;&gt;Node12</title>
<g id="a_edge18_Node000010_Node000012"><a xlink:title=" ">
<path fill="none" stroke="#63b8ff" d="M354.86,-110.33C352.86,-103.67 350.02,-94.24 347.48,-85.78"/>
<polygon fill="#63b8ff" stroke="#63b8ff" points="350.86,-84.88 344.64,-76.31 344.16,-86.89 350.86,-84.88"/>
</a>
</g>
</g>
<!-- Node12&#45;&gt;Node2 -->
<g id="edge19_Node000012_Node000002" class="edge">
<title>Node12&#45;&gt;Node2</title>
<g id="a_edge19_Node000012_Node000002"><a xlink:title=" ">
<path fill="none" stroke="#63b8ff" d="M357.11,-54.84C371.12,-46.73 391.93,-34.68 408.3,-25.21"/>
<polygon fill="#63b8ff" stroke="#63b8ff" points="409.61,-28.5 416.51,-20.46 406.1,-22.44 409.61,-28.5"/>
</a>
</g>
</g>
<!-- Node14&#45;&gt;Node2 -->
<g id="edge23_Node000014_Node000002" class="edge">
<title>Node14&#45;&gt;Node2</title>
<g id="a_edge23_Node000014_Node000002"><a xlink:title=" ">
<path fill="none" stroke="#63b8ff" d="M635.78,-165.38C645.41,-143.72 665.92,-88 639.5,-55.25 619.06,-29.91 527.51,-18.24 473.58,-13.47"/>
<polygon fill="#63b8ff" stroke="#63b8ff" points="474.12,-10.01 463.86,-12.66 473.54,-16.98 474.12,-10.01"/>
</a>
</g>
</g>
</g>
</svg>
