<?xml version="1.0" encoding="UTF-8" standalone="no"?>
<!DOCTYPE svg PUBLIC "-//W3C//DTD SVG 1.1//EN"
 "http://www.w3.org/Graphics/SVG/1.1/DTD/svg11.dtd">
<!-- Generated by graphviz version 14.1.2 (20260124.0452)
 -->
<!-- Title: src/Devices/MotorController.hpp Pages: 1 -->
<svg width="500pt" height="271pt"
 viewBox="0.00 0.00 500.00 271.00" xmlns="http://www.w3.org/2000/svg" xmlns:xlink="http://www.w3.org/1999/xlink">
<g id="graph0" class="graph" transform="scale(1 1) rotate(0) translate(4 266.75)">
<title>src/Devices/MotorController.hpp</title>
<!-- Node1 -->
<g id="Node000001" class="node">
<title>Node1</title>
<g id="a_Node000001"><a xlink:title=" ">
<polygon fill="#999999" stroke="#666666" points="156.25,-262.75 0,-262.75 0,-243.5 156.25,-243.5 156.25,-262.75"/>
<text xml:space="preserve" text-anchor="middle" x="78.12" y="-249.25" font-family="Helvetica,sans-Serif" font-size="10.00">src/Devices/MotorController.hpp</text>
</a>
</g>
</g>
<!-- Node2 -->
<g id="Node000002" class="node">
<title>Node2</title>
<g id="a_Node000002"><a xlink:href="_robot_8hpp.html" target="_top" xlink:title=" ">
<polygon fill="white" stroke="#666666" points="178.88,-85.75 101.38,-85.75 101.38,-66.5 178.88,-66.5 178.88,-85.75"/>
<text xml:space="preserve" text-anchor="middle" x="140.12" y="-72.25" font-family="Helvetica,sans-Serif" font-size="10.00">src/Robot.hpp</text>
</a>
</g>
</g>
<!-- Node1&#45;&gt;Node2 -->
<g id="edge1_Node000001_Node000002" class="edge">
<title>Node1&#45;&gt;Node2</title>
<g id="a_edge1_Node000001_Node000002"><a xlink:title=" ">
<path fill="none" stroke="#63b8ff" d="M69.14,-232.72C58.1,-205.76 43.24,-156.4 64.12,-121.75 74.55,-104.45 94.43,-93.13 111.24,-86.22"/>
<polygon fill="#63b8ff" stroke="#63b8ff" points="65.85,-233.94 73.05,-241.71 72.27,-231.14 65.85,-233.94"/>
</a>
</g>
</g>
<!-- Node5 -->
<g id="Node000005" class="node">
<title>Node5</title>
<g id="a_Node000005"><a xlink:href="_shooter_8hpp.html" target="_top" xlink:title=" ">
<polygon fill="white" stroke="#666666" points="210.38,-207.5 69.88,-207.5 69.88,-188.25 210.38,-188.25 210.38,-207.5"/>
<text xml:space="preserve" text-anchor="middle" x="140.12" y="-194" font-family="Helvetica,sans-Serif" font-size="10.00">src/subsystems/Shooter.hpp</text>
</a>
</g>
</g>
<!-- Node1&#45;&gt;Node5 -->
<g id="edge4_Node000001_Node000005" class="edge">
<title>Node1&#45;&gt;Node5</title>
<g id="a_edge4_Node000001_Node000005"><a xlink:title=" ">
<path fill="none" stroke="#63b8ff" d="M97.32,-235.64C108.03,-226.44 120.94,-215.35 129.76,-207.77"/>
<polygon fill="#63b8ff" stroke="#63b8ff" points="95.1,-232.94 89.79,-242.11 99.66,-238.25 95.1,-232.94"/>
</a>
</g>
</g>
<!-- Node3 -->
<g id="Node000003" class="node">
<title>Node3</title>
<g id="a_Node000003"><a xlink:href="_strategy_controller_step_8hpp.html" target="_top" xlink:title=" ">
<polygon fill="white" stroke="#666666" points="147.5,-30.5 10.75,-30.5 10.75,0 147.5,0 147.5,-30.5"/>
<text xml:space="preserve" text-anchor="start" x="18.75" y="-17" font-family="Helvetica,sans-Serif" font-size="10.00">src/Autonomous/Steps</text>
<text xml:space="preserve" text-anchor="middle" x="79.12" y="-5.75" font-family="Helvetica,sans-Serif" font-size="10.00">/StrategyControllerStep.hpp</text>
</a>
</g>
</g>
<!-- Node2&#45;&gt;Node3 -->
<g id="edge2_Node000002_Node000003" class="edge">
<title>Node2&#45;&gt;Node3</title>
<g id="a_edge2_Node000002_Node000003"><a xlink:title=" ">
<path fill="none" stroke="#63b8ff" d="M122.64,-58.25C113.65,-49.57 102.8,-39.1 94.18,-30.78"/>
<polygon fill="#63b8ff" stroke="#63b8ff" points="120.15,-60.71 129.77,-65.13 125.01,-55.67 120.15,-60.71"/>
</a>
</g>
</g>
<!-- Node4 -->
<g id="Node000004" class="node">
<title>Node4</title>
<g id="a_Node000004"><a xlink:href="main_8cpp.html" target="_top" xlink:title=" ">
<polygon fill="white" stroke="#666666" points="238.25,-24.88 166,-24.88 166,-5.63 238.25,-5.63 238.25,-24.88"/>
<text xml:space="preserve" text-anchor="middle" x="202.12" y="-11.38" font-family="Helvetica,sans-Serif" font-size="10.00">src/main.cpp</text>
</a>
</g>
</g>
<!-- Node2&#45;&gt;Node4 -->
<g id="edge3_Node000002_Node000004" class="edge">
<title>Node2&#45;&gt;Node4</title>
<g id="a_edge3_Node000002_Node000004"><a xlink:title=" ">
<path fill="none" stroke="#63b8ff" d="M157.84,-58.3C169.16,-47.55 183.39,-34.04 192.62,-25.28"/>
<polygon fill="#63b8ff" stroke="#63b8ff" points="155.48,-55.72 150.64,-65.14 160.3,-60.79 155.48,-55.72"/>
</a>
</g>
</g>
<!-- Node5&#45;&gt;Node2 -->
<g id="edge12_Node000005_Node000002" class="edge">
<title>Node5&#45;&gt;Node2</title>
<g id="a_edge12_Node000005_Node000002"><a xlink:title=" ">
<path fill="none" stroke="#63b8ff" d="M106.02,-182.74C93.31,-175.6 80.26,-165.57 73.12,-152.25 66.73,-140.3 66.73,-133.7 73.12,-121.75 82.16,-104.87 100.72,-93.28 116.01,-86.15"/>
<polygon fill="#63b8ff" stroke="#63b8ff" points="104.17,-185.72 114.66,-187.16 107.36,-179.49 104.17,-185.72"/>
</a>
</g>
</g>
<!-- Node6 -->
<g id="Node000006" class="node">
<title>Node6</title>
<g id="a_Node000006"><a xlink:href="_planner_8hpp.html" target="_top" xlink:title=" ">
<polygon fill="white" stroke="#666666" points="491.75,-146.62 350.5,-146.62 350.5,-127.38 491.75,-127.38 491.75,-146.62"/>
<text xml:space="preserve" text-anchor="middle" x="421.12" y="-133.12" font-family="Helvetica,sans-Serif" font-size="10.00">src/Autonomous/Planner.hpp</text>
</a>
</g>
</g>
<!-- Node5&#45;&gt;Node6 -->
<g id="edge5_Node000005_Node000006" class="edge">
<title>Node5&#45;&gt;Node6</title>
<g id="a_edge5_Node000005_Node000006"><a xlink:title=" ">
<path fill="none" stroke="#63b8ff" d="M194.39,-185.51C247.85,-174.31 328.47,-157.41 377.79,-147.08"/>
<polygon fill="#63b8ff" stroke="#63b8ff" points="193.97,-182.02 184.9,-187.49 195.4,-188.87 193.97,-182.02"/>
</a>
</g>
</g>
<!-- Node8 -->
<g id="Node000008" class="node">
<title>Node8</title>
<g id="a_Node000008"><a xlink:href="_delay_step_8hpp.html" target="_top" xlink:title=" ">
<polygon fill="white" stroke="#666666" points="198,-152.25 82.25,-152.25 82.25,-121.75 198,-121.75 198,-152.25"/>
<text xml:space="preserve" text-anchor="start" x="90.25" y="-138.75" font-family="Helvetica,sans-Serif" font-size="10.00">src/Autonomous/Steps</text>
<text xml:space="preserve" text-anchor="middle" x="140.12" y="-127.5" font-family="Helvetica,sans-Serif" font-size="10.00">/DelayStep.hpp</text>
</a>
</g>
</g>
<!-- Node5&#45;&gt;Node8 -->
<g id="edge8_Node000005_Node000008" class="edge">
<title>Node5&#45;&gt;Node8</title>
<g id="a_edge8_Node000005_Node000008"><a xlink:title=" ">
<path fill="none" stroke="#63b8ff" d="M140.12,-176.67C140.12,-168.74 140.12,-159.81 140.12,-152.53"/>
<polygon fill="#63b8ff" stroke="#63b8ff" points="136.63,-176.42 140.13,-186.42 143.63,-176.42 136.63,-176.42"/>
</a>
</g>
</g>
<!-- Node9 -->
<g id="Node000009" class="node">
<title>Node9</title>
<g id="a_Node000009"><a xlink:href="_fire_step_8hpp.html" target="_top" xlink:title=" ">
<polygon fill="white" stroke="#666666" points="332,-152.25 216.25,-152.25 216.25,-121.75 332,-121.75 332,-152.25"/>
<text xml:space="preserve" text-anchor="start" x="224.25" y="-138.75" font-family="Helvetica,sans-Serif" font-size="10.00">src/Autonomous/Steps</text>
<text xml:space="preserve" text-anchor="middle" x="274.12" y="-127.5" font-family="Helvetica,sans-Serif" font-size="10.00">/FireStep.hpp</text>
</a>
</g>
</g>
<!-- Node5&#45;&gt;Node9 -->
<g id="edge10_Node000005_Node000009" class="edge">
<title>Node5&#45;&gt;Node9</title>
<g id="a_edge10_Node000005_Node000009"><a xlink:title=" ">
<path fill="none" stroke="#63b8ff" d="M171.28,-183.19C192.08,-174.05 219.42,-162.04 240.68,-152.69"/>
<polygon fill="#63b8ff" stroke="#63b8ff" points="169.9,-179.97 162.15,-187.2 172.72,-186.38 169.9,-179.97"/>
</a>
</g>
</g>
<!-- Node6&#45;&gt;Node2 -->
<g id="edge7_Node000006_Node000002" class="edge">
<title>Node6&#45;&gt;Node2</title>
<g id="a_edge7_Node000006_Node000002"><a xlink:title=" ">
<path fill="none" stroke="#63b8ff" d="M366.87,-124.63C311.75,-113.08 227.73,-95.48 178.94,-85.26"/>
<polygon fill="#63b8ff" stroke="#63b8ff" points="365.85,-127.99 376.35,-126.62 367.28,-121.14 365.85,-127.99"/>
</a>
</g>
</g>
<!-- Node7 -->
<g id="Node000007" class="node">
<title>Node7</title>
<g id="a_Node000007"><a xlink:href="_planner_8cpp.html" target="_top" xlink:title=" ">
<polygon fill="white" stroke="#666666" points="491.75,-85.75 350.5,-85.75 350.5,-66.5 491.75,-66.5 491.75,-85.75"/>
<text xml:space="preserve" text-anchor="middle" x="421.12" y="-72.25" font-family="Helvetica,sans-Serif" font-size="10.00">src/Autonomous/Planner.cpp</text>
</a>
</g>
</g>
<!-- Node6&#45;&gt;Node7 -->
<g id="edge6_Node000006_Node000007" class="edge">
<title>Node6&#45;&gt;Node7</title>
<g id="a_edge6_Node000006_Node000007"><a xlink:title=" ">
<path fill="none" stroke="#63b8ff" d="M421.12,-115.57C421.12,-105.54 421.12,-93.96 421.12,-86.15"/>
<polygon fill="#63b8ff" stroke="#63b8ff" points="417.63,-115.54 421.13,-125.54 424.63,-115.54 417.63,-115.54"/>
</a>
</g>
</g>
<!-- Node8&#45;&gt;Node2 -->
<g id="edge9_Node000008_Node000002" class="edge">
<title>Node8&#45;&gt;Node2</title>
<g id="a_edge9_Node000008_Node000002"><a xlink:title=" ">
<path fill="none" stroke="#63b8ff" d="M140.12,-109.98C140.12,-101.48 140.12,-92.59 140.12,-86.2"/>
<polygon fill="#63b8ff" stroke="#63b8ff" points="136.63,-109.93 140.13,-119.93 143.63,-109.93 136.63,-109.93"/>
</a>
</g>
</g>
<!-- Node9&#45;&gt;Node2 -->
<g id="edge11_Node000009_Node000002" class="edge">
<title>Node9&#45;&gt;Node2</title>
<g id="a_edge11_Node000009_Node000002"><a xlink:title=" ">
<path fill="none" stroke="#63b8ff" d="M230.25,-116.72C206.84,-106.44 179.13,-94.26 160.68,-86.15"/>
<polygon fill="#63b8ff" stroke="#63b8ff" points="228.71,-119.87 239.27,-120.69 231.52,-113.46 228.71,-119.87"/>
</a>
</g>
</g>
</g>
</svg>
