<?xml version="1.0" encoding="UTF-8" standalone="no"?>
<!DOCTYPE svg PUBLIC "-//W3C//DTD SVG 1.1//EN"
 "http://www.w3.org/Graphics/SVG/1.1/DTD/svg11.dtd">
<!-- Generated by graphviz version 14.1.2 (20260124.0452)
 -->
<!-- Title: src/Devices/MotorController.hpp Pages: 1 -->
<svg width="164pt" height="138pt"
 viewBox="0.00 0.00 164.00 138.00" xmlns="http://www.w3.org/2000/svg" xmlns:xlink="http://www.w3.org/1999/xlink">
<g id="graph0" class="graph" transform="scale(1 1) rotate(0) translate(4 133.75)">
<title>src/Devices/MotorController.hpp</title>
<!-- Node1 -->
<g id="Node000001" class="node">
<title>Node1</title>
<g id="a_Node000001"><a xlink:title=" ">
<polygon fill="#999999" stroke="#666666" points="156.25,-129.75 0,-129.75 0,-110.5 156.25,-110.5 156.25,-129.75"/>
<text xml:space="preserve" text-anchor="middle" x="78.12" y="-116.25" font-family="Helvetica,sans-Serif" font-size="10.00">src/Devices/MotorController.hpp</text>
</a>
</g>
</g>
<!-- Node2 -->
<g id="Node000002" class="node">
<title>Node2</title>
<g id="a_Node000002"><a xlink:title=" ">
<polygon fill="#e0e0e0" stroke="#999999" points="106.75,-19.25 49.5,-19.25 49.5,0 106.75,0 106.75,-19.25"/>
<text xml:space="preserve" text-anchor="middle" x="78.12" y="-5.75" font-family="Helvetica,sans-Serif" font-size="10.00">Arduino.h</text>
</a>
</g>
</g>
<!-- Node1&#45;&gt;Node2 -->
<g id="edge1_Node000001_Node000002" class="edge">
<title>Node1&#45;&gt;Node2</title>
<g id="a_edge1_Node000001_Node000002"><a xlink:title=" ">
<path fill="none" stroke="#63b8ff" d="M74.66,-110.06C71.46,-101.16 66.93,-87.12 65.12,-74.5 62.99,-59.56 66.61,-42.85 70.57,-30.27"/>
<polygon fill="#63b8ff" stroke="#63b8ff" points="73.78,-31.69 73.78,-21.09 67.17,-29.37 73.78,-31.69"/>
</a>
</g>
</g>
<!-- Node3 -->
<g id="Node000003" class="node">
<title>Node3</title>
<g id="a_Node000003"><a xlink:href="_p_i_d_8hpp.html" target="_top" xlink:title=" ">
<polygon fill="white" stroke="#666666" points="147.62,-74.5 74.62,-74.5 74.62,-55.25 147.62,-55.25 147.62,-74.5"/>
<text xml:space="preserve" text-anchor="middle" x="111.12" y="-61" font-family="Helvetica,sans-Serif" font-size="10.00">utils/PID.hpp</text>
</a>
</g>
</g>
<!-- Node1&#45;&gt;Node3 -->
<g id="edge2_Node000001_Node000003" class="edge">
<title>Node1&#45;&gt;Node3</title>
<g id="a_edge2_Node000001_Node000003"><a xlink:title=" ">
<path fill="none" stroke="#63b8ff" d="M83.57,-110.33C87.9,-103.36 94.09,-93.37 99.51,-84.62"/>
<polygon fill="#63b8ff" stroke="#63b8ff" points="102.47,-86.49 104.76,-76.15 96.52,-82.8 102.47,-86.49"/>
</a>
</g>
</g>
<!-- Node3&#45;&gt;Node2 -->
<g id="edge3_Node000003_Node000002" class="edge">
<title>Node3&#45;&gt;Node2</title>
<g id="a_edge3_Node000003_Node000002"><a xlink:title=" ">
<path fill="none" stroke="#63b8ff" d="M105.68,-55.08C101.35,-48.11 95.16,-38.12 89.74,-29.37"/>
<polygon fill="#63b8ff" stroke="#63b8ff" points="92.73,-27.55 84.49,-20.9 86.78,-31.24 92.73,-27.55"/>
</a>
</g>
</g>
</g>
</svg>
