<?xml version="1.0" encoding="UTF-8" standalone="no"?>
<!DOCTYPE svg PUBLIC "-//W3C//DTD SVG 1.1//EN"
 "http://www.w3.org/Graphics/SVG/1.1/DTD/svg11.dtd">
<!-- Generated by graphviz version 14.1.2 (20260124.0452)
 -->
<!-- Title: src/utils/Odometry.cpp Pages: 1 -->
<svg width="635pt" height="248pt"
 viewBox="0.00 0.00 635.00 248.00" xmlns="http://www.w3.org/2000/svg" xmlns:xlink="http://www.w3.org/1999/xlink">
<g id="graph0" class="graph" transform="scale(1 1) rotate(0) translate(4 244.25)">
<title>src/utils/Odometry.cpp</title>
<!-- Node1 -->
<g id="Node000001" class="node">
<title>Node1</title>
<g id="a_Node000001"><a xlink:title="Implementation of the differential&#45;drive odometry integrator.">
<polygon fill="#999999" stroke="#666666" points="199.25,-240.25 85.75,-240.25 85.75,-221 199.25,-221 199.25,-240.25"/>
<text xml:space="preserve" text-anchor="middle" x="142.5" y="-226.75" font-family="Helvetica,sans-Serif" font-size="10.00">src/utils/Odometry.cpp</text>
</a>
</g>
</g>
<!-- Node2 -->
<g id="Node000002" class="node">
<title>Node2</title>
<g id="a_Node000002"><a xlink:href="_odometry_8hpp.html" target="_top" xlink:title="Differential&#45;drive pose tracker using wheel&#45;encoder odometry.">
<polygon fill="white" stroke="#666666" points="136.5,-185 60.5,-185 60.5,-165.75 136.5,-165.75 136.5,-185"/>
<text xml:space="preserve" text-anchor="middle" x="98.5" y="-171.5" font-family="Helvetica,sans-Serif" font-size="10.00">Odometry.hpp</text>
</a>
</g>
</g>
<!-- Node1&#45;&gt;Node2 -->
<g id="edge1_Node000001_Node000002" class="edge">
<title>Node1&#45;&gt;Node2</title>
<g id="a_edge1_Node000001_Node000002"><a xlink:title=" ">
<path fill="none" stroke="#63b8ff" d="M135.23,-220.83C129.22,-213.55 120.49,-202.98 113.04,-193.98"/>
<polygon fill="#63b8ff" stroke="#63b8ff" points="115.96,-192.01 106.89,-186.53 110.56,-196.46 115.96,-192.01"/>
</a>
</g>
</g>
<!-- Node6 -->
<g id="Node000006" class="node">
<title>Node6</title>
<g id="a_Node000006"><a xlink:href="_config_8hpp.html" target="_top" xlink:title="Central configuration: pin assignments, physical constants, and PID gains.">
<polygon fill="white" stroke="#666666" points="243.12,-185 179.88,-185 179.88,-165.75 243.12,-165.75 243.12,-185"/>
<text xml:space="preserve" text-anchor="middle" x="211.5" y="-171.5" font-family="Helvetica,sans-Serif" font-size="10.00">Config.hpp</text>
</a>
</g>
</g>
<!-- Node1&#45;&gt;Node6 -->
<g id="edge5_Node000001_Node000006" class="edge">
<title>Node1&#45;&gt;Node6</title>
<g id="a_edge5_Node000001_Node000006"><a xlink:title=" ">
<path fill="none" stroke="#63b8ff" d="M154.2,-220.59C164.28,-212.82 179.04,-201.42 191.06,-192.15"/>
<polygon fill="#63b8ff" stroke="#63b8ff" points="192.99,-195.08 198.77,-186.2 188.71,-189.54 192.99,-195.08"/>
</a>
</g>
</g>
<!-- Node3 -->
<g id="Node000003" class="node">
<title>Node3</title>
<g id="a_Node000003"><a xlink:href="_encoder_wrapper_8hpp.html" target="_top" xlink:title="Quadrature encoder wrapper providing position, velocity, and acceleration.">
<polygon fill="white" stroke="#666666" points="145,-129.75 0,-129.75 0,-110.5 145,-110.5 145,-129.75"/>
<text xml:space="preserve" text-anchor="middle" x="72.5" y="-116.25" font-family="Helvetica,sans-Serif" font-size="10.00">Devices/EncoderWrapper.hpp</text>
</a>
</g>
</g>
<!-- Node2&#45;&gt;Node3 -->
<g id="edge2_Node000002_Node000003" class="edge">
<title>Node2&#45;&gt;Node3</title>
<g id="a_edge2_Node000002_Node000003"><a xlink:title=" ">
<path fill="none" stroke="#63b8ff" d="M94.21,-165.58C90.88,-158.76 86.14,-149.06 81.94,-140.45"/>
<polygon fill="#63b8ff" stroke="#63b8ff" points="85.08,-138.92 77.55,-131.47 78.79,-141.99 85.08,-138.92"/>
</a>
</g>
</g>
<!-- Node4 -->
<g id="Node000004" class="node">
<title>Node4</title>
<g id="a_Node000004"><a xlink:title=" ">
<polygon fill="#e0e0e0" stroke="#999999" points="267.12,-19.25 209.88,-19.25 209.88,0 267.12,0 267.12,-19.25"/>
<text xml:space="preserve" text-anchor="middle" x="238.5" y="-5.75" font-family="Helvetica,sans-Serif" font-size="10.00">Arduino.h</text>
</a>
</g>
</g>
<!-- Node3&#45;&gt;Node4 -->
<g id="edge3_Node000003_Node000004" class="edge">
<title>Node3&#45;&gt;Node4</title>
<g id="a_edge3_Node000003_Node000004"><a xlink:title=" ">
<path fill="none" stroke="#63b8ff" d="M70.11,-110.13C67.11,-96.61 63.75,-70.95 76.5,-55.25 91.79,-36.43 155.55,-23.23 198.37,-16.29"/>
<polygon fill="#63b8ff" stroke="#63b8ff" points="198.73,-19.78 208.07,-14.78 197.65,-12.86 198.73,-19.78"/>
</a>
</g>
</g>
<!-- Node5 -->
<g id="Node000005" class="node">
<title>Node5</title>
<g id="a_Node000005"><a xlink:title=" ">
<polygon fill="#e0e0e0" stroke="#999999" points="145.25,-74.5 85.75,-74.5 85.75,-55.25 145.25,-55.25 145.25,-74.5"/>
<text xml:space="preserve" text-anchor="middle" x="115.5" y="-61" font-family="Helvetica,sans-Serif" font-size="10.00">Encoder.h</text>
</a>
</g>
</g>
<!-- Node3&#45;&gt;Node5 -->
<g id="edge4_Node000003_Node000005" class="edge">
<title>Node3&#45;&gt;Node5</title>
<g id="a_edge4_Node000003_Node000005"><a xlink:title=" ">
<path fill="none" stroke="#63b8ff" d="M79.6,-110.33C85.42,-103.13 93.83,-92.71 101.06,-83.76"/>
<polygon fill="#63b8ff" stroke="#63b8ff" points="103.73,-86.02 107.29,-76.04 98.29,-81.62 103.73,-86.02"/>
</a>
</g>
</g>
<!-- Node6&#45;&gt;Node4 -->
<g id="edge6_Node000006_Node000004" class="edge">
<title>Node6&#45;&gt;Node4</title>
<g id="a_edge6_Node000006_Node000004"><a xlink:title=" ">
<path fill="none" stroke="#63b8ff" d="M206.83,-165.31C196.96,-144.83 176.18,-93.82 192.5,-55.25 197.26,-43.99 206.41,-34.18 215.3,-26.65"/>
<polygon fill="#63b8ff" stroke="#63b8ff" points="217.34,-29.49 223.08,-20.58 213.04,-23.97 217.34,-29.49"/>
</a>
</g>
</g>
<!-- Node7 -->
<g id="Node000007" class="node">
<title>Node7</title>
<g id="a_Node000007"><a xlink:href="_dual_motor_controller_8hpp.html" target="_top" xlink:title="Dual closed&#45;loop motor controller wrapping an L298N driver with two independent PID loops.">
<polygon fill="white" stroke="#666666" points="399.5,-129.75 239.5,-129.75 239.5,-110.5 399.5,-110.5 399.5,-129.75"/>
<text xml:space="preserve" text-anchor="middle" x="319.5" y="-116.25" font-family="Helvetica,sans-Serif" font-size="10.00">Devices/DualMotorController.hpp</text>
</a>
</g>
</g>
<!-- Node6&#45;&gt;Node7 -->
<g id="edge7_Node000006_Node000007" class="edge">
<title>Node6&#45;&gt;Node7</title>
<g id="a_edge7_Node000006_Node000007"><a xlink:title=" ">
<path fill="none" stroke="#63b8ff" d="M229.82,-165.34C246.58,-157.08 271.63,-144.73 291,-135.18"/>
<polygon fill="#63b8ff" stroke="#63b8ff" points="292.31,-138.43 299.73,-130.87 289.22,-132.15 292.31,-138.43"/>
</a>
</g>
</g>
<!-- Node8 -->
<g id="Node000008" class="node">
<title>Node8</title>
<g id="a_Node000008"><a xlink:href="_p_i_d_8hpp.html" target="_top" xlink:title="PID controller classes with optional nonlinear extensions and feedforward support.">
<polygon fill="white" stroke="#666666" points="275,-74.5 202,-74.5 202,-55.25 275,-55.25 275,-74.5"/>
<text xml:space="preserve" text-anchor="middle" x="238.5" y="-61" font-family="Helvetica,sans-Serif" font-size="10.00">utils/PID.hpp</text>
</a>
</g>
</g>
<!-- Node6&#45;&gt;Node8 -->
<g id="edge14_Node000006_Node000008" class="edge">
<title>Node6&#45;&gt;Node8</title>
<g id="a_edge14_Node000006_Node000008"><a xlink:title=" ">
<path fill="none" stroke="#63b8ff" d="M213.71,-165.5C218.02,-148.17 227.65,-109.48 233.56,-85.74"/>
<polygon fill="#63b8ff" stroke="#63b8ff" points="236.88,-86.89 235.89,-76.35 230.08,-85.2 236.88,-86.89"/>
</a>
</g>
</g>
<!-- Node11 -->
<g id="Node000011" class="node">
<title>Node11</title>
<g id="a_Node000011"><a xlink:title=" ">
<polygon fill="#e0e0e0" stroke="#999999" points="461,-129.75 418,-129.75 418,-110.5 461,-110.5 461,-129.75"/>
<text xml:space="preserve" text-anchor="middle" x="439.5" y="-116.25" font-family="Helvetica,sans-Serif" font-size="10.00">cmath</text>
</a>
</g>
</g>
<!-- Node6&#45;&gt;Node11 -->
<g id="edge15_Node000006_Node000011" class="edge">
<title>Node6&#45;&gt;Node11</title>
<g id="a_edge15_Node000006_Node000011"><a xlink:title=" ">
<path fill="none" stroke="#63b8ff" d="M243.34,-167.66C280.25,-159.77 343.16,-145.99 406.52,-130.15"/>
<polygon fill="#63b8ff" stroke="#63b8ff" points="407.21,-133.59 416.05,-127.75 405.5,-126.8 407.21,-133.59"/>
</a>
</g>
</g>
<!-- Node7&#45;&gt;Node4 -->
<g id="edge8_Node000007_Node000004" class="edge">
<title>Node7&#45;&gt;Node4</title>
<g id="a_edge8_Node000007_Node000004"><a xlink:title=" ">
<path fill="none" stroke="#63b8ff" d="M315.72,-110.37C309.99,-97.58 298.29,-73.36 284.5,-55.25 276.79,-45.13 266.8,-35.15 258.1,-27.21"/>
<polygon fill="#63b8ff" stroke="#63b8ff" points="260.59,-24.74 250.78,-20.74 255.96,-29.99 260.59,-24.74"/>
</a>
</g>
</g>
<!-- Node7&#45;&gt;Node8 -->
<g id="edge9_Node000007_Node000008" class="edge">
<title>Node7&#45;&gt;Node8</title>
<g id="a_edge9_Node000007_Node000008"><a xlink:title=" ">
<path fill="none" stroke="#63b8ff" d="M305.76,-110.09C293.77,-102.21 276.13,-90.61 261.92,-81.27"/>
<polygon fill="#63b8ff" stroke="#63b8ff" points="263.85,-78.35 253.57,-75.78 260.01,-84.2 263.85,-78.35"/>
</a>
</g>
</g>
<!-- Node9 -->
<g id="Node000009" class="node">
<title>Node9</title>
<g id="a_Node000009"><a xlink:title=" ">
<polygon fill="#e0e0e0" stroke="#999999" points="481.25,-74.5 331.75,-74.5 331.75,-55.25 481.25,-55.25 481.25,-74.5"/>
<text xml:space="preserve" text-anchor="middle" x="406.5" y="-61" font-family="Helvetica,sans-Serif" font-size="10.00">DualTB9051FTGMotorShield.h</text>
</a>
</g>
</g>
<!-- Node7&#45;&gt;Node9 -->
<g id="edge11_Node000007_Node000009" class="edge">
<title>Node7&#45;&gt;Node9</title>
<g id="a_edge11_Node000007_Node000009"><a xlink:title=" ">
<path fill="none" stroke="#63b8ff" d="M334.26,-110.09C347.38,-102.06 366.82,-90.16 382.23,-80.73"/>
<polygon fill="#63b8ff" stroke="#63b8ff" points="383.68,-83.95 390.38,-75.74 380.02,-77.98 383.68,-83.95"/>
</a>
</g>
</g>
<!-- Node10 -->
<g id="Node000010" class="node">
<title>Node10</title>
<g id="a_Node000010"><a xlink:href="_l298_n_motor_driver_mega_8h.html" target="_top" xlink:title=" ">
<polygon fill="white" stroke="#666666" points="627.38,-74.5 499.62,-74.5 499.62,-55.25 627.38,-55.25 627.38,-74.5"/>
<text xml:space="preserve" text-anchor="middle" x="563.5" y="-61" font-family="Helvetica,sans-Serif" font-size="10.00">L298NMotorDriverMega.h</text>
</a>
</g>
</g>
<!-- Node7&#45;&gt;Node10 -->
<g id="edge12_Node000007_Node000010" class="edge">
<title>Node7&#45;&gt;Node10</title>
<g id="a_edge12_Node000007_Node000010"><a xlink:title=" ">
<path fill="none" stroke="#63b8ff" d="M361.17,-110.03C402.58,-100.99 466.21,-87.11 511.04,-77.32"/>
<polygon fill="#63b8ff" stroke="#63b8ff" points="511.5,-80.81 520.53,-75.25 510.01,-73.97 511.5,-80.81"/>
</a>
</g>
</g>
<!-- Node8&#45;&gt;Node4 -->
<g id="edge10_Node000008_Node000004" class="edge">
<title>Node8&#45;&gt;Node4</title>
<g id="a_edge10_Node000008_Node000004"><a xlink:title=" ">
<path fill="none" stroke="#63b8ff" d="M238.5,-55.08C238.5,-48.57 238.5,-39.42 238.5,-31.12"/>
<polygon fill="#63b8ff" stroke="#63b8ff" points="242,-31.12 238.5,-21.12 235,-31.12 242,-31.12"/>
</a>
</g>
</g>
<!-- Node10&#45;&gt;Node4 -->
<g id="edge13_Node000010_Node000004" class="edge">
<title>Node10&#45;&gt;Node4</title>
<g id="a_edge13_Node000010_Node000004"><a xlink:title=" ">
<path fill="none" stroke="#63b8ff" d="M508,-54.78C442.87,-44.11 336.46,-26.67 278.76,-17.22"/>
<polygon fill="#63b8ff" stroke="#63b8ff" points="279.48,-13.79 269.05,-15.63 278.35,-20.7 279.48,-13.79"/>
</a>
</g>
</g>
</g>
</svg>
