<?xml version="1.0" encoding="UTF-8" standalone="no"?>
<!DOCTYPE svg PUBLIC "-//W3C//DTD SVG 1.1//EN"
 "http://www.w3.org/Graphics/SVG/1.1/DTD/svg11.dtd">
<!-- Generated by graphviz version 14.1.2 (20260124.0452)
 -->
<!-- Title: src/Devices/Solenoid.hpp Pages: 1 -->
<svg width="714pt" height="337pt"
 viewBox="0.00 0.00 714.00 337.00" xmlns="http://www.w3.org/2000/svg" xmlns:xlink="http://www.w3.org/1999/xlink">
<g id="graph0" class="graph" transform="scale(1 1) rotate(0) translate(4 333.25)">
<title>src/Devices/Solenoid.hpp</title>
<!-- Node1 -->
<g id="Node000001" class="node">
<title>Node1</title>
<g id="a_Node000001"><a xlink:title="Simple digital solenoid driver (currently unused in primary code path).">
<polygon fill="#999999" stroke="#666666" points="311.01,-329.25 183.26,-329.25 183.26,-310 311.01,-310 311.01,-329.25"/>
<text xml:space="preserve" text-anchor="middle" x="247.13" y="-315.75" font-family="Helvetica,sans-Serif" font-size="10.00">src/Devices/Solenoid.hpp</text>
</a>
</g>
</g>
<!-- Node2 -->
<g id="Node000002" class="node">
<title>Node2</title>
<g id="a_Node000002"><a xlink:href="_miner_8hpp.html" target="_top" xlink:title="Miner subsystem: servo&#45;driven block&#45;pressing mechanism and ramp deployment.">
<polygon fill="white" stroke="#666666" points="266.51,-274 135.76,-274 135.76,-254.75 266.51,-254.75 266.51,-274"/>
<text xml:space="preserve" text-anchor="middle" x="201.13" y="-260.5" font-family="Helvetica,sans-Serif" font-size="10.00">src/subsystems/Miner.hpp</text>
</a>
</g>
</g>
<!-- Node1&#45;&gt;Node2 -->
<g id="edge1_Node000001_Node000002" class="edge">
<title>Node1&#45;&gt;Node2</title>
<g id="a_edge1_Node000001_Node000002"><a xlink:title=" ">
<path fill="none" stroke="#63b8ff" d="M232.13,-301.26C224.37,-292.28 215.23,-281.7 208.89,-274.36"/>
<polygon fill="#63b8ff" stroke="#63b8ff" points="229.36,-303.41 238.55,-308.69 234.66,-298.83 229.36,-303.41"/>
</a>
</g>
</g>
<!-- Node11 -->
<g id="Node000011" class="node">
<title>Node11</title>
<g id="a_Node000011"><a xlink:href="_shooter_8hpp.html" target="_top" xlink:title="Rack&#45;and&#45;pinion block shooter subsystem.">
<polygon fill="white" stroke="#666666" points="498.38,-213.12 357.88,-213.12 357.88,-193.88 498.38,-193.88 498.38,-213.12"/>
<text xml:space="preserve" text-anchor="middle" x="428.13" y="-199.62" font-family="Helvetica,sans-Serif" font-size="10.00">src/subsystems/Shooter.hpp</text>
</a>
</g>
</g>
<!-- Node1&#45;&gt;Node11 -->
<g id="edge15_Node000001_Node000011" class="edge">
<title>Node1&#45;&gt;Node11</title>
<g id="a_edge15_Node000001_Node000011"><a xlink:title=" ">
<path fill="none" stroke="#63b8ff" d="M270.62,-303.82C308.65,-279.84 382.59,-233.21 413.75,-213.57"/>
<polygon fill="#63b8ff" stroke="#63b8ff" points="269.21,-300.57 262.62,-308.86 272.94,-306.49 269.21,-300.57"/>
</a>
</g>
</g>
<!-- Node3 -->
<g id="Node000003" class="node">
<title>Node3</title>
<g id="a_Node000003"><a xlink:href="_planner_8hpp.html" target="_top" xlink:title="High&#45;level autonomous planner used with ReplanStep.">
<polygon fill="white" stroke="#666666" points="225.76,-146.62 84.51,-146.62 84.51,-127.38 225.76,-127.38 225.76,-146.62"/>
<text xml:space="preserve" text-anchor="middle" x="155.13" y="-133.12" font-family="Helvetica,sans-Serif" font-size="10.00">src/Autonomous/Planner.hpp</text>
</a>
</g>
</g>
<!-- Node2&#45;&gt;Node3 -->
<g id="edge2_Node000002_Node000003" class="edge">
<title>Node2&#45;&gt;Node3</title>
<g id="a_edge2_Node000002_Node000003"><a xlink:title=" ">
<path fill="none" stroke="#63b8ff" d="M189.8,-244.59C185.42,-236.79 180.64,-227.52 177.13,-218.75 167.01,-193.38 159.89,-161.72 156.82,-146.7"/>
<polygon fill="#63b8ff" stroke="#63b8ff" points="186.72,-246.25 194.78,-253.13 192.77,-242.73 186.72,-246.25"/>
</a>
</g>
</g>
<!-- Node5 -->
<g id="Node000005" class="node">
<title>Node5</title>
<g id="a_Node000005"><a xlink:href="_robot_8hpp.html" target="_top" xlink:title="Top&#45;level robot class that owns all subsystems and the autonomous scheduler.">
<polygon fill="white" stroke="#666666" points="349.88,-85.75 272.38,-85.75 272.38,-66.5 349.88,-66.5 349.88,-85.75"/>
<text xml:space="preserve" text-anchor="middle" x="311.13" y="-72.25" font-family="Helvetica,sans-Serif" font-size="10.00">src/Robot.hpp</text>
</a>
</g>
</g>
<!-- Node2&#45;&gt;Node5 -->
<g id="edge14_Node000002_Node000005" class="edge">
<title>Node2&#45;&gt;Node5</title>
<g id="a_edge14_Node000002_Node000005"><a xlink:title=" ">
<path fill="none" stroke="#63b8ff" d="M123.86,-255.63C75.7,-249.02 20.12,-237.53 5.13,-218.75 -3.32,-208.15 0.54,-201 5.13,-188.25 18.12,-152.16 27,-141.07 60.13,-121.75 78.18,-111.23 206.06,-91.96 272.01,-82.57"/>
<polygon fill="#63b8ff" stroke="#63b8ff" points="123.41,-259.1 133.78,-256.93 124.32,-252.16 123.41,-259.1"/>
</a>
</g>
</g>
<!-- Node8 -->
<g id="Node000008" class="node">
<title>Node8</title>
<g id="a_Node000008"><a xlink:href="_deploy_ramp_8hpp.html" target="_top" xlink:title="Instantaneous AutoStep that deploys the miner&#39;s block&#45;collection ramp.">
<polygon fill="white" stroke="#666666" points="130.01,-218.75 14.26,-218.75 14.26,-188.25 130.01,-188.25 130.01,-218.75"/>
<text xml:space="preserve" text-anchor="start" x="22.26" y="-205.25" font-family="Helvetica,sans-Serif" font-size="10.00">src/Autonomous/Steps</text>
<text xml:space="preserve" text-anchor="middle" x="72.13" y="-194" font-family="Helvetica,sans-Serif" font-size="10.00">/DeployRamp.hpp</text>
</a>
</g>
</g>
<!-- Node2&#45;&gt;Node8 -->
<g id="edge7_Node000002_Node000008" class="edge">
<title>Node2&#45;&gt;Node8</title>
<g id="a_edge7_Node000002_Node000008"><a xlink:title=" ">
<path fill="none" stroke="#63b8ff" d="M170.87,-249.56C150.87,-240.44 124.7,-228.49 104.33,-219.19"/>
<polygon fill="#63b8ff" stroke="#63b8ff" points="169.33,-252.71 179.88,-253.68 172.24,-246.34 169.33,-252.71"/>
</a>
</g>
</g>
<!-- Node9 -->
<g id="Node000009" class="node">
<title>Node9</title>
<g id="a_Node000009"><a xlink:href="_mine_block_8hpp.html" target="_top" xlink:title="AutoStep that commands the Miner to complete a fixed number of press cycles.">
<polygon fill="white" stroke="#666666" points="302.01,-218.75 186.26,-218.75 186.26,-188.25 302.01,-188.25 302.01,-218.75"/>
<text xml:space="preserve" text-anchor="start" x="194.26" y="-205.25" font-family="Helvetica,sans-Serif" font-size="10.00">src/Autonomous/Steps</text>
<text xml:space="preserve" text-anchor="middle" x="244.13" y="-194" font-family="Helvetica,sans-Serif" font-size="10.00">/MineBlock.hpp</text>
</a>
</g>
</g>
<!-- Node2&#45;&gt;Node9 -->
<g id="edge9_Node000002_Node000009" class="edge">
<title>Node2&#45;&gt;Node9</title>
<g id="a_edge9_Node000002_Node000009"><a xlink:title=" ">
<path fill="none" stroke="#63b8ff" d="M214.26,-245.4C220.43,-236.95 227.7,-227 233.52,-219.03"/>
<polygon fill="#63b8ff" stroke="#63b8ff" points="211.63,-243.07 208.56,-253.21 217.28,-247.2 211.63,-243.07"/>
</a>
</g>
</g>
<!-- Node10 -->
<g id="Node000010" class="node">
<title>Node10</title>
<g id="a_Node000010"><a xlink:href="_mine_block_autofire_8hpp.html" target="_top" xlink:title="AutoStep that mines and simultaneously autofires the shooter for a time window.">
<polygon fill="white" stroke="#666666" points="399.76,-152.25 282.51,-152.25 282.51,-121.75 399.76,-121.75 399.76,-152.25"/>
<text xml:space="preserve" text-anchor="start" x="290.51" y="-138.75" font-family="Helvetica,sans-Serif" font-size="10.00">src/Autonomous/Steps</text>
<text xml:space="preserve" text-anchor="middle" x="341.13" y="-127.5" font-family="Helvetica,sans-Serif" font-size="10.00">/MineBlockAutofire.hpp</text>
</a>
</g>
</g>
<!-- Node2&#45;&gt;Node10 -->
<g id="edge12_Node000002_Node000010" class="edge">
<title>Node2&#45;&gt;Node10</title>
<g id="a_edge12_Node000002_Node000010"><a xlink:title=" ">
<path fill="none" stroke="#63b8ff" d="M256.5,-250.82C275.87,-244.07 296.43,-233.9 311.13,-218.75 328.95,-200.4 336.35,-170.54 339.3,-152.73"/>
<polygon fill="#63b8ff" stroke="#63b8ff" points="255.5,-247.47 247.04,-253.86 257.64,-254.14 255.5,-247.47"/>
</a>
</g>
</g>
<!-- Node4 -->
<g id="Node000004" class="node">
<title>Node4</title>
<g id="a_Node000004"><a xlink:href="_planner_8cpp.html" target="_top" xlink:title="Implementation of the autonomous Planner state machine.">
<polygon fill="white" stroke="#666666" points="225.76,-85.75 84.51,-85.75 84.51,-66.5 225.76,-66.5 225.76,-85.75"/>
<text xml:space="preserve" text-anchor="middle" x="155.13" y="-72.25" font-family="Helvetica,sans-Serif" font-size="10.00">src/Autonomous/Planner.cpp</text>
</a>
</g>
</g>
<!-- Node3&#45;&gt;Node4 -->
<g id="edge3_Node000003_Node000004" class="edge">
<title>Node3&#45;&gt;Node4</title>
<g id="a_edge3_Node000003_Node000004"><a xlink:title=" ">
<path fill="none" stroke="#63b8ff" d="M155.13,-115.57C155.13,-105.54 155.13,-93.96 155.13,-86.15"/>
<polygon fill="#63b8ff" stroke="#63b8ff" points="151.63,-115.54 155.13,-125.54 158.63,-115.54 151.63,-115.54"/>
</a>
</g>
</g>
<!-- Node3&#45;&gt;Node5 -->
<g id="edge4_Node000003_Node000005" class="edge">
<title>Node3&#45;&gt;Node5</title>
<g id="a_edge4_Node000003_Node000005"><a xlink:title=" ">
<path fill="none" stroke="#63b8ff" d="M189.84,-122.9C219.39,-111.75 261.07,-96.02 287.07,-86.21"/>
<polygon fill="#63b8ff" stroke="#63b8ff" points="188.7,-119.59 180.58,-126.4 191.17,-126.14 188.7,-119.59"/>
</a>
</g>
</g>
<!-- Node6 -->
<g id="Node000006" class="node">
<title>Node6</title>
<g id="a_Node000006"><a xlink:href="_strategy_controller_step_8hpp.html" target="_top" xlink:title="High&#45;level AutoStep that runs the full strategy loop inline.">
<polygon fill="white" stroke="#666666" points="317.51,-30.5 180.76,-30.5 180.76,0 317.51,0 317.51,-30.5"/>
<text xml:space="preserve" text-anchor="start" x="188.76" y="-17" font-family="Helvetica,sans-Serif" font-size="10.00">src/Autonomous/Steps</text>
<text xml:space="preserve" text-anchor="middle" x="249.13" y="-5.75" font-family="Helvetica,sans-Serif" font-size="10.00">/StrategyControllerStep.hpp</text>
</a>
</g>
</g>
<!-- Node5&#45;&gt;Node6 -->
<g id="edge5_Node000005_Node000006" class="edge">
<title>Node5&#45;&gt;Node6</title>
<g id="a_edge5_Node000005_Node000006"><a xlink:title=" ">
<path fill="none" stroke="#63b8ff" d="M293.65,-58.52C284.45,-49.79 273.29,-39.18 264.44,-30.78"/>
<polygon fill="#63b8ff" stroke="#63b8ff" points="290.96,-60.79 300.62,-65.14 295.78,-55.72 290.96,-60.79"/>
</a>
</g>
</g>
<!-- Node7 -->
<g id="Node000007" class="node">
<title>Node7</title>
<g id="a_Node000007"><a xlink:href="main_8cpp.html" target="_top" xlink:title="Arduino entry point — instantiates the Robot and drives the main loop.">
<polygon fill="white" stroke="#666666" points="408.26,-24.88 336.01,-24.88 336.01,-5.63 408.26,-5.63 408.26,-24.88"/>
<text xml:space="preserve" text-anchor="middle" x="372.13" y="-11.38" font-family="Helvetica,sans-Serif" font-size="10.00">src/main.cpp</text>
</a>
</g>
</g>
<!-- Node5&#45;&gt;Node7 -->
<g id="edge6_Node000005_Node000007" class="edge">
<title>Node5&#45;&gt;Node7</title>
<g id="a_edge6_Node000005_Node000007"><a xlink:title=" ">
<path fill="none" stroke="#63b8ff" d="M328.57,-58.3C339.7,-47.55 353.7,-34.04 362.78,-25.28"/>
<polygon fill="#63b8ff" stroke="#63b8ff" points="326.25,-55.67 321.49,-65.13 331.11,-60.71 326.25,-55.67"/>
</a>
</g>
</g>
<!-- Node8&#45;&gt;Node5 -->
<g id="edge8_Node000008_Node000005" class="edge">
<title>Node8&#45;&gt;Node5</title>
<g id="a_edge8_Node000008_Node000005"><a xlink:title=" ">
<path fill="none" stroke="#63b8ff" d="M65.52,-176.86C62.63,-159.31 62.35,-136.61 75.13,-121.75 87.87,-106.95 208.23,-89.93 271.97,-81.85"/>
<polygon fill="#63b8ff" stroke="#63b8ff" points="62.07,-177.46 67.5,-186.55 68.92,-176.05 62.07,-177.46"/>
</a>
</g>
</g>
<!-- Node9&#45;&gt;Node3 -->
<g id="edge10_Node000009_Node000003" class="edge">
<title>Node9&#45;&gt;Node3</title>
<g id="a_edge10_Node000009_Node000003"><a xlink:title=" ">
<path fill="none" stroke="#63b8ff" d="M214.91,-181.32C198.85,-169.68 179.77,-155.86 167.57,-147.01"/>
<polygon fill="#63b8ff" stroke="#63b8ff" points="212.56,-183.94 222.71,-186.98 216.67,-178.27 212.56,-183.94"/>
</a>
</g>
</g>
<!-- Node9&#45;&gt;Node5 -->
<g id="edge11_Node000009_Node000005" class="edge">
<title>Node9&#45;&gt;Node5</title>
<g id="a_edge11_Node000009_Node000005"><a xlink:title=" ">
<path fill="none" stroke="#63b8ff" d="M250.76,-176.87C255.61,-160.46 263.1,-139.07 273.13,-121.75 281.09,-108.01 293.46,-94.45 301.91,-85.95"/>
<polygon fill="#63b8ff" stroke="#63b8ff" points="247.43,-175.78 248.1,-186.35 254.17,-177.67 247.43,-175.78"/>
</a>
</g>
</g>
<!-- Node10&#45;&gt;Node5 -->
<g id="edge13_Node000010_Node000005" class="edge">
<title>Node10&#45;&gt;Node5</title>
<g id="a_edge13_Node000010_Node000005"><a xlink:title=" ">
<path fill="none" stroke="#63b8ff" d="M328.62,-111.44C324.07,-102.51 319.2,-92.95 315.76,-86.2"/>
<polygon fill="#63b8ff" stroke="#63b8ff" points="325.37,-112.78 333.03,-120.1 331.61,-109.6 325.37,-112.78"/>
</a>
</g>
</g>
<!-- Node11&#45;&gt;Node3 -->
<g id="edge16_Node000011_Node000003" class="edge">
<title>Node11&#45;&gt;Node3</title>
<g id="a_edge16_Node000011_Node000003"><a xlink:title=" ">
<path fill="none" stroke="#63b8ff" d="M378.73,-190.83C325.5,-178.25 241.95,-158.51 193.47,-147.06"/>
<polygon fill="#63b8ff" stroke="#63b8ff" points="377.59,-194.15 388.13,-193.05 379.2,-187.34 377.59,-194.15"/>
</a>
</g>
</g>
<!-- Node11&#45;&gt;Node5 -->
<g id="edge22_Node000011_Node000005" class="edge">
<title>Node11&#45;&gt;Node5</title>
<g id="a_edge22_Node000011_Node000005"><a xlink:title=" ">
<path fill="none" stroke="#63b8ff" d="M428.17,-182.04C427.16,-164.26 423.1,-138.77 409.13,-121.75 394.31,-103.69 370.6,-92.62 350.21,-86.03"/>
<polygon fill="#63b8ff" stroke="#63b8ff" points="424.67,-181.96 428.42,-191.87 431.66,-181.78 424.67,-181.96"/>
</a>
</g>
</g>
<!-- Node11&#45;&gt;Node10 -->
<g id="edge21_Node000011_Node000010" class="edge">
<title>Node11&#45;&gt;Node10</title>
<g id="a_edge21_Node000011_Node000010"><a xlink:title=" ">
<path fill="none" stroke="#63b8ff" d="M407.09,-186.9C393.01,-176.46 374.6,-162.81 360.81,-152.59"/>
<polygon fill="#63b8ff" stroke="#63b8ff" points="404.7,-189.49 414.82,-192.63 408.87,-183.86 404.7,-189.49"/>
</a>
</g>
</g>
<!-- Node12 -->
<g id="Node000012" class="node">
<title>Node12</title>
<g id="a_Node000012"><a xlink:href="_delay_step_8hpp.html" target="_top" xlink:title="AutoStep that blocks for a fixed number of milliseconds.">
<polygon fill="white" stroke="#666666" points="572.01,-152.25 456.26,-152.25 456.26,-121.75 572.01,-121.75 572.01,-152.25"/>
<text xml:space="preserve" text-anchor="start" x="464.26" y="-138.75" font-family="Helvetica,sans-Serif" font-size="10.00">src/Autonomous/Steps</text>
<text xml:space="preserve" text-anchor="middle" x="514.13" y="-127.5" font-family="Helvetica,sans-Serif" font-size="10.00">/DelayStep.hpp</text>
</a>
</g>
</g>
<!-- Node11&#45;&gt;Node12 -->
<g id="edge17_Node000011_Node000012" class="edge">
<title>Node11&#45;&gt;Node12</title>
<g id="a_edge17_Node000011_Node000012"><a xlink:title=" ">
<path fill="none" stroke="#63b8ff" d="M448.94,-186.9C462.85,-176.46 481.05,-162.81 494.68,-152.59"/>
<polygon fill="#63b8ff" stroke="#63b8ff" points="447.2,-183.82 441.3,-192.62 451.4,-189.42 447.2,-183.82"/>
</a>
</g>
</g>
<!-- Node13 -->
<g id="Node000013" class="node">
<title>Node13</title>
<g id="a_Node000013"><a xlink:href="_fire_step_8hpp.html" target="_top" xlink:title="AutoStep that fires the shooter for a fixed duration, then stops it.">
<polygon fill="white" stroke="#666666" points="706.01,-152.25 590.26,-152.25 590.26,-121.75 706.01,-121.75 706.01,-152.25"/>
<text xml:space="preserve" text-anchor="start" x="598.26" y="-138.75" font-family="Helvetica,sans-Serif" font-size="10.00">src/Autonomous/Steps</text>
<text xml:space="preserve" text-anchor="middle" x="648.13" y="-127.5" font-family="Helvetica,sans-Serif" font-size="10.00">/FireStep.hpp</text>
</a>
</g>
</g>
<!-- Node11&#45;&gt;Node13 -->
<g id="edge19_Node000011_Node000013" class="edge">
<title>Node11&#45;&gt;Node13</title>
<g id="a_edge19_Node000011_Node000013"><a xlink:title=" ">
<path fill="none" stroke="#63b8ff" d="M469.95,-190.24C506.44,-179.54 559.45,-164 598.17,-152.65"/>
<polygon fill="#63b8ff" stroke="#63b8ff" points="469.25,-186.8 460.64,-192.97 471.22,-193.51 469.25,-186.8"/>
</a>
</g>
</g>
<!-- Node12&#45;&gt;Node5 -->
<g id="edge18_Node000012_Node000005" class="edge">
<title>Node12&#45;&gt;Node5</title>
<g id="a_edge18_Node000012_Node000005"><a xlink:title=" ">
<path fill="none" stroke="#63b8ff" d="M452.45,-118.11C416.16,-107.58 371.79,-94.72 342.56,-86.24"/>
<polygon fill="#63b8ff" stroke="#63b8ff" points="451.4,-121.45 461.98,-120.87 453.35,-114.73 451.4,-121.45"/>
</a>
</g>
</g>
<!-- Node13&#45;&gt;Node5 -->
<g id="edge20_Node000013_Node000005" class="edge">
<title>Node13&#45;&gt;Node5</title>
<g id="a_edge20_Node000013_Node000005"><a xlink:title=" ">
<path fill="none" stroke="#63b8ff" d="M578.86,-121.37C491.36,-105.04 400.56,-90.71 350.13,-83"/>
<polygon fill="#63b8ff" stroke="#63b8ff" points="578.1,-124.79 588.57,-123.2 579.39,-117.91 578.1,-124.79"/>
</a>
</g>
</g>
</g>
</svg>
