<?xml version="1.0" encoding="UTF-8" standalone="no"?>
<!DOCTYPE svg PUBLIC "-//W3C//DTD SVG 1.1//EN"
 "http://www.w3.org/Graphics/SVG/1.1/DTD/svg11.dtd">
<!-- Generated by graphviz version 14.1.2 (20260124.0452)
 -->
<!-- Title: src/utils/Strategy.hpp Pages: 1 -->
<svg width="507pt" height="271pt"
 viewBox="0.00 0.00 507.00 271.00" xmlns="http://www.w3.org/2000/svg" xmlns:xlink="http://www.w3.org/1999/xlink">
<g id="graph0" class="graph" transform="scale(1 1) rotate(0) translate(4 266.75)">
<title>src/utils/Strategy.hpp</title>
<!-- Node1 -->
<g id="Node000001" class="node">
<title>Node1</title>
<g id="a_Node000001"><a xlink:title="Game&#45;state singleton that tracks tool levels, block possession, and scoring logic.">
<polygon fill="#999999" stroke="#666666" points="263.93,-262.75 156.43,-262.75 156.43,-243.5 263.93,-243.5 263.93,-262.75"/>
<text xml:space="preserve" text-anchor="middle" x="210.18" y="-249.25" font-family="Helvetica,sans-Serif" font-size="10.00">src/utils/Strategy.hpp</text>
</a>
</g>
</g>
<!-- Node2 -->
<g id="Node000002" class="node">
<title>Node2</title>
<g id="a_Node000002"><a xlink:href="_planner_8hpp.html" target="_top" xlink:title="High&#45;level autonomous planner used with ReplanStep.">
<polygon fill="white" stroke="#666666" points="273.81,-141 132.56,-141 132.56,-121.75 273.81,-121.75 273.81,-141"/>
<text xml:space="preserve" text-anchor="middle" x="203.18" y="-127.5" font-family="Helvetica,sans-Serif" font-size="10.00">src/Autonomous/Planner.hpp</text>
</a>
</g>
</g>
<!-- Node1&#45;&gt;Node2 -->
<g id="edge1_Node000001_Node000002" class="edge">
<title>Node1&#45;&gt;Node2</title>
<g id="a_edge1_Node000001_Node000002"><a xlink:title=" ">
<path fill="none" stroke="#63b8ff" d="M144.92,-246.38C92.9,-240.28 26.06,-228.54 9.18,-207.5 -28,-161.16 62.71,-143.35 132.3,-136.55"/>
<polygon fill="#63b8ff" stroke="#63b8ff" points="144.28,-249.83 154.61,-247.46 145.06,-242.87 144.28,-249.83"/>
</a>
</g>
</g>
<!-- Node5 -->
<g id="Node000005" class="node">
<title>Node5</title>
<g id="a_Node000005"><a xlink:href="_strategy_controller_step_8hpp.html" target="_top" xlink:title="High&#45;level AutoStep that runs the full strategy loop inline.">
<polygon fill="white" stroke="#666666" points="498.56,-30.5 361.81,-30.5 361.81,0 498.56,0 498.56,-30.5"/>
<text xml:space="preserve" text-anchor="start" x="369.81" y="-17" font-family="Helvetica,sans-Serif" font-size="10.00">src/Autonomous/Steps</text>
<text xml:space="preserve" text-anchor="middle" x="430.18" y="-5.75" font-family="Helvetica,sans-Serif" font-size="10.00">/StrategyControllerStep.hpp</text>
</a>
</g>
</g>
<!-- Node1&#45;&gt;Node5 -->
<g id="edge12_Node000001_Node000005" class="edge">
<title>Node1&#45;&gt;Node5</title>
<g id="a_edge12_Node000001_Node000005"><a xlink:title=" ">
<path fill="none" stroke="#63b8ff" d="M275.73,-245.84C327.31,-239.45 393.37,-227.57 411.18,-207.5 456.13,-156.83 441.74,-66.26 433.86,-30.93"/>
<polygon fill="#63b8ff" stroke="#63b8ff" points="275.32,-242.37 265.8,-247.02 276.14,-249.32 275.32,-242.37"/>
</a>
</g>
</g>
<!-- Node7 -->
<g id="Node000007" class="node">
<title>Node7</title>
<g id="a_Node000007"><a xlink:href="_detect_block_8hpp.html" target="_top" xlink:title="AutoStep that samples the color sensor and updates Strategy with the detected block type.">
<polygon fill="white" stroke="#666666" points="134.06,-207.5 18.31,-207.5 18.31,-177 134.06,-177 134.06,-207.5"/>
<text xml:space="preserve" text-anchor="start" x="26.31" y="-194" font-family="Helvetica,sans-Serif" font-size="10.00">src/Autonomous/Steps</text>
<text xml:space="preserve" text-anchor="middle" x="76.18" y="-182.75" font-family="Helvetica,sans-Serif" font-size="10.00">/DetectBlock.hpp</text>
</a>
</g>
</g>
<!-- Node1&#45;&gt;Node7 -->
<g id="edge6_Node000001_Node000007" class="edge">
<title>Node1&#45;&gt;Node7</title>
<g id="a_edge6_Node000001_Node000007"><a xlink:title=" ">
<path fill="none" stroke="#63b8ff" d="M179.03,-238.44C158.22,-229.3 130.89,-217.29 109.63,-207.94"/>
<polygon fill="#63b8ff" stroke="#63b8ff" points="177.59,-241.63 188.15,-242.45 180.4,-235.22 177.59,-241.63"/>
</a>
</g>
</g>
<!-- Node8 -->
<g id="Node000008" class="node">
<title>Node8</title>
<g id="a_Node000008"><a xlink:href="_index_block_8hpp.html" target="_top" xlink:title="AutoStep that routes a newly acquired block to the correct hopper slot.">
<polygon fill="white" stroke="#666666" points="268.06,-207.5 152.31,-207.5 152.31,-177 268.06,-177 268.06,-207.5"/>
<text xml:space="preserve" text-anchor="start" x="160.31" y="-194" font-family="Helvetica,sans-Serif" font-size="10.00">src/Autonomous/Steps</text>
<text xml:space="preserve" text-anchor="middle" x="210.18" y="-182.75" font-family="Helvetica,sans-Serif" font-size="10.00">/IndexBlock.hpp</text>
</a>
</g>
</g>
<!-- Node1&#45;&gt;Node8 -->
<g id="edge8_Node000001_Node000008" class="edge">
<title>Node1&#45;&gt;Node8</title>
<g id="a_edge8_Node000001_Node000008"><a xlink:title=" ">
<path fill="none" stroke="#63b8ff" d="M210.18,-231.92C210.18,-223.99 210.18,-215.06 210.18,-207.78"/>
<polygon fill="#63b8ff" stroke="#63b8ff" points="206.68,-231.67 210.18,-241.67 213.68,-231.67 206.68,-231.67"/>
</a>
</g>
</g>
<!-- Node9 -->
<g id="Node000009" class="node">
<title>Node9</title>
<g id="a_Node000009"><a xlink:href="_place_on_table_8hpp.html" target="_top" xlink:title="AutoStep stub that places a block on the crafting table.">
<polygon fill="white" stroke="#666666" points="402.06,-207.5 286.31,-207.5 286.31,-177 402.06,-177 402.06,-207.5"/>
<text xml:space="preserve" text-anchor="start" x="294.31" y="-194" font-family="Helvetica,sans-Serif" font-size="10.00">src/Autonomous/Steps</text>
<text xml:space="preserve" text-anchor="middle" x="344.18" y="-182.75" font-family="Helvetica,sans-Serif" font-size="10.00">/PlaceOnTable.hpp</text>
</a>
</g>
</g>
<!-- Node1&#45;&gt;Node9 -->
<g id="edge10_Node000001_Node000009" class="edge">
<title>Node1&#45;&gt;Node9</title>
<g id="a_edge10_Node000001_Node000009"><a xlink:title=" ">
<path fill="none" stroke="#63b8ff" d="M241.34,-238.44C262.14,-229.3 289.48,-217.29 310.74,-207.94"/>
<polygon fill="#63b8ff" stroke="#63b8ff" points="239.96,-235.22 232.21,-242.45 242.77,-241.63 239.96,-235.22"/>
</a>
</g>
</g>
<!-- Node3 -->
<g id="Node000003" class="node">
<title>Node3</title>
<g id="a_Node000003"><a xlink:href="_planner_8cpp.html" target="_top" xlink:title="Implementation of the autonomous Planner state machine.">
<polygon fill="white" stroke="#666666" points="258.81,-85.75 117.56,-85.75 117.56,-66.5 258.81,-66.5 258.81,-85.75"/>
<text xml:space="preserve" text-anchor="middle" x="188.18" y="-72.25" font-family="Helvetica,sans-Serif" font-size="10.00">src/Autonomous/Planner.cpp</text>
</a>
</g>
</g>
<!-- Node2&#45;&gt;Node3 -->
<g id="edge2_Node000002_Node000003" class="edge">
<title>Node2&#45;&gt;Node3</title>
<g id="a_edge2_Node000002_Node000003"><a xlink:title=" ">
<path fill="none" stroke="#63b8ff" d="M197.64,-110.71C195.26,-102.27 192.6,-92.83 190.71,-86.11"/>
<polygon fill="#63b8ff" stroke="#63b8ff" points="194.21,-111.45 200.29,-120.13 200.95,-109.55 194.21,-111.45"/>
</a>
</g>
</g>
<!-- Node4 -->
<g id="Node000004" class="node">
<title>Node4</title>
<g id="a_Node000004"><a xlink:href="_robot_8hpp.html" target="_top" xlink:title="Top&#45;level robot class that owns all subsystems and the autonomous scheduler.">
<polygon fill="white" stroke="#666666" points="353.93,-85.75 276.43,-85.75 276.43,-66.5 353.93,-66.5 353.93,-85.75"/>
<text xml:space="preserve" text-anchor="middle" x="315.18" y="-72.25" font-family="Helvetica,sans-Serif" font-size="10.00">src/Robot.hpp</text>
</a>
</g>
</g>
<!-- Node2&#45;&gt;Node4 -->
<g id="edge3_Node000002_Node000004" class="edge">
<title>Node2&#45;&gt;Node4</title>
<g id="a_edge3_Node000002_Node000004"><a xlink:title=" ">
<path fill="none" stroke="#63b8ff" d="M232.35,-116.51C252.45,-106.95 278.6,-94.52 296.09,-86.2"/>
<polygon fill="#63b8ff" stroke="#63b8ff" points="231.08,-113.24 223.55,-120.69 234.08,-119.56 231.08,-113.24"/>
</a>
</g>
</g>
<!-- Node4&#45;&gt;Node5 -->
<g id="edge4_Node000004_Node000005" class="edge">
<title>Node4&#45;&gt;Node5</title>
<g id="a_edge4_Node000004_Node000005"><a xlink:title=" ">
<path fill="none" stroke="#63b8ff" d="M342.72,-61.03C360.57,-51.89 383.78,-40.01 401.8,-30.78"/>
<polygon fill="#63b8ff" stroke="#63b8ff" points="341.3,-57.82 333.99,-65.49 344.49,-64.05 341.3,-57.82"/>
</a>
</g>
</g>
<!-- Node6 -->
<g id="Node000006" class="node">
<title>Node6</title>
<g id="a_Node000006"><a xlink:href="main_8cpp.html" target="_top" xlink:title="Arduino entry point — instantiates the Robot and drives the main loop.">
<polygon fill="white" stroke="#666666" points="343.31,-24.88 271.06,-24.88 271.06,-5.63 343.31,-5.63 343.31,-24.88"/>
<text xml:space="preserve" text-anchor="middle" x="307.18" y="-11.38" font-family="Helvetica,sans-Serif" font-size="10.00">src/main.cpp</text>
</a>
</g>
</g>
<!-- Node4&#45;&gt;Node6 -->
<g id="edge5_Node000004_Node000006" class="edge">
<title>Node4&#45;&gt;Node6</title>
<g id="a_edge5_Node000004_Node000006"><a xlink:title=" ">
<path fill="none" stroke="#63b8ff" d="M312.45,-55.03C311.08,-44.92 309.48,-33.17 308.41,-25.28"/>
<polygon fill="#63b8ff" stroke="#63b8ff" points="308.95,-55.25 313.76,-64.68 315.88,-54.3 308.95,-55.25"/>
</a>
</g>
</g>
<!-- Node7&#45;&gt;Node2 -->
<g id="edge7_Node000007_Node000002" class="edge">
<title>Node7&#45;&gt;Node2</title>
<g id="a_edge7_Node000007_Node000002"><a xlink:title=" ">
<path fill="none" stroke="#63b8ff" d="M118.06,-171.83C140.19,-161.58 166.29,-149.47 183.7,-141.4"/>
<polygon fill="#63b8ff" stroke="#63b8ff" points="116.87,-168.53 109.27,-175.91 119.82,-174.88 116.87,-168.53"/>
</a>
</g>
</g>
<!-- Node8&#45;&gt;Node2 -->
<g id="edge9_Node000008_Node000002" class="edge">
<title>Node8&#45;&gt;Node2</title>
<g id="a_edge9_Node000008_Node000002"><a xlink:title=" ">
<path fill="none" stroke="#63b8ff" d="M207.12,-165.53C206.1,-156.93 205.03,-147.91 204.26,-141.45"/>
<polygon fill="#63b8ff" stroke="#63b8ff" points="203.62,-165.68 208.27,-175.19 210.57,-164.85 203.62,-165.68"/>
</a>
</g>
</g>
<!-- Node9&#45;&gt;Node2 -->
<g id="edge11_Node000009_Node000002" class="edge">
<title>Node9&#45;&gt;Node2</title>
<g id="a_edge11_Node000009_Node000002"><a xlink:title=" ">
<path fill="none" stroke="#63b8ff" d="M298.35,-172.11C273.64,-161.8 244.31,-149.55 224.81,-141.4"/>
<polygon fill="#63b8ff" stroke="#63b8ff" points="296.99,-175.34 307.57,-175.96 299.69,-168.88 296.99,-175.34"/>
</a>
</g>
</g>
</g>
</svg>
