<?xml version="1.0" encoding="UTF-8" standalone="no"?>
<!DOCTYPE svg PUBLIC "-//W3C//DTD SVG 1.1//EN"
 "http://www.w3.org/Graphics/SVG/1.1/DTD/svg11.dtd">
<!-- Generated by graphviz version 14.1.2 (20260124.0452)
 -->
<!-- Title: src/subsystems/Subsystem.h Pages: 1 -->
<svg width="2002pt" height="337pt"
 viewBox="0.00 0.00 2002.00 337.00" xmlns="http://www.w3.org/2000/svg" xmlns:xlink="http://www.w3.org/1999/xlink">
<g id="graph0" class="graph" transform="scale(1 1) rotate(0) translate(4 333.25)">
<title>src/subsystems/Subsystem.h</title>
<!-- Node1 -->
<g id="Node000001" class="node">
<title>Node1</title>
<g id="a_Node000001"><a xlink:title="Abstract base class for all robot subsystems.">
<polygon fill="#999999" stroke="#666666" points="1266.19,-329.25 1119.69,-329.25 1119.69,-310 1266.19,-310 1266.19,-329.25"/>
<text xml:space="preserve" text-anchor="middle" x="1192.94" y="-315.75" font-family="Helvetica,sans-Serif" font-size="10.00">src/subsystems/Subsystem.h</text>
</a>
</g>
</g>
<!-- Node2 -->
<g id="Node000002" class="node">
<title>Node2</title>
<g id="a_Node000002"><a xlink:href="_robot_8hpp.html" target="_top" xlink:title="Top&#45;level robot class that owns all subsystems and the autonomous scheduler.">
<polygon fill="white" stroke="#666666" points="903.69,-85.75 826.19,-85.75 826.19,-66.5 903.69,-66.5 903.69,-85.75"/>
<text xml:space="preserve" text-anchor="middle" x="864.94" y="-72.25" font-family="Helvetica,sans-Serif" font-size="10.00">src/Robot.hpp</text>
</a>
</g>
</g>
<!-- Node1&#45;&gt;Node2 -->
<g id="edge1_Node000001_Node000002" class="edge">
<title>Node1&#45;&gt;Node2</title>
<g id="a_edge1_Node000001_Node000002"><a xlink:title=" ">
<path fill="none" stroke="#63b8ff" d="M1108.14,-316.39C855.18,-309.03 118.08,-282.28 31.94,-218.75 6.27,-199.82 11.06,-183.56 4.94,-152.25 2.35,-138.95 -4.39,-131.58 4.94,-121.75 33.56,-91.61 661.38,-80.16 825.81,-77.67"/>
<polygon fill="#63b8ff" stroke="#63b8ff" points="1107.85,-319.88 1117.94,-316.67 1108.05,-312.88 1107.85,-319.88"/>
</a>
</g>
</g>
<!-- Node5 -->
<g id="Node000005" class="node">
<title>Node5</title>
<g id="a_Node000005"><a xlink:href="_drive_8hpp.html" target="_top" xlink:title="Differential&#45;drive subsystem: closed&#45;loop wheel control, line following, wall&#45;distance holding,...">
<polygon fill="white" stroke="#666666" points="839.32,-274 708.57,-274 708.57,-254.75 839.32,-254.75 839.32,-274"/>
<text xml:space="preserve" text-anchor="middle" x="773.94" y="-260.5" font-family="Helvetica,sans-Serif" font-size="10.00">src/subsystems/Drive.hpp</text>
</a>
</g>
</g>
<!-- Node1&#45;&gt;Node5 -->
<g id="edge4_Node000001_Node000005" class="edge">
<title>Node1&#45;&gt;Node5</title>
<g id="a_edge4_Node000001_Node000005"><a xlink:title=" ">
<path fill="none" stroke="#63b8ff" d="M1109.98,-308.08C1030.67,-298 912.68,-283.01 839.68,-273.73"/>
<polygon fill="#63b8ff" stroke="#63b8ff" points="1109.53,-311.55 1119.89,-309.34 1110.41,-304.61 1109.53,-311.55"/>
</a>
</g>
</g>
<!-- Node24 -->
<g id="Node000024" class="node">
<title>Node24</title>
<g id="a_Node000024"><a xlink:href="_miner_8hpp.html" target="_top" xlink:title="Miner subsystem: servo&#45;driven block&#45;pressing mechanism and ramp deployment.">
<polygon fill="white" stroke="#666666" points="1720.32,-274 1589.57,-274 1589.57,-254.75 1720.32,-254.75 1720.32,-274"/>
<text xml:space="preserve" text-anchor="middle" x="1654.94" y="-260.5" font-family="Helvetica,sans-Serif" font-size="10.00">src/subsystems/Miner.hpp</text>
</a>
</g>
</g>
<!-- Node1&#45;&gt;Node24 -->
<g id="edge43_Node000001_Node000024" class="edge">
<title>Node1&#45;&gt;Node24</title>
<g id="a_edge43_Node000001_Node000024"><a xlink:title=" ">
<path fill="none" stroke="#63b8ff" d="M1277.91,-308.83C1367.76,-298.48 1507.6,-282.36 1589.34,-272.94"/>
<polygon fill="#63b8ff" stroke="#63b8ff" points="1277.7,-305.33 1268.16,-309.96 1278.5,-312.29 1277.7,-305.33"/>
</a>
</g>
</g>
<!-- Node25 -->
<g id="Node000025" class="node">
<title>Node25</title>
<g id="a_Node000025"><a xlink:href="_shooter_8hpp.html" target="_top" xlink:title="Rack&#45;and&#45;pinion block shooter subsystem.">
<polygon fill="white" stroke="#666666" points="1990.19,-213.12 1849.69,-213.12 1849.69,-193.88 1990.19,-193.88 1990.19,-213.12"/>
<text xml:space="preserve" text-anchor="middle" x="1919.94" y="-199.62" font-family="Helvetica,sans-Serif" font-size="10.00">src/subsystems/Shooter.hpp</text>
</a>
</g>
</g>
<!-- Node1&#45;&gt;Node25 -->
<g id="edge49_Node000001_Node000025" class="edge">
<title>Node1&#45;&gt;Node25</title>
<g id="a_edge49_Node000001_Node000025"><a xlink:title=" ">
<path fill="none" stroke="#63b8ff" d="M1278.01,-318.48C1384.6,-316.71 1572.3,-308.37 1728.94,-274 1793.74,-259.78 1866.37,-228.96 1900.39,-213.6"/>
<polygon fill="#63b8ff" stroke="#63b8ff" points="1278.14,-314.97 1268.2,-318.62 1278.25,-321.97 1278.14,-314.97"/>
</a>
</g>
</g>
<!-- Node3 -->
<g id="Node000003" class="node">
<title>Node3</title>
<g id="a_Node000003"><a xlink:href="_strategy_controller_step_8hpp.html" target="_top" xlink:title="High&#45;level AutoStep that runs the full strategy loop inline.">
<polygon fill="white" stroke="#666666" points="872.32,-30.5 735.57,-30.5 735.57,0 872.32,0 872.32,-30.5"/>
<text xml:space="preserve" text-anchor="start" x="743.57" y="-17" font-family="Helvetica,sans-Serif" font-size="10.00">src/Autonomous/Steps</text>
<text xml:space="preserve" text-anchor="middle" x="803.94" y="-5.75" font-family="Helvetica,sans-Serif" font-size="10.00">/StrategyControllerStep.hpp</text>
</a>
</g>
</g>
<!-- Node2&#45;&gt;Node3 -->
<g id="edge2_Node000002_Node000003" class="edge">
<title>Node2&#45;&gt;Node3</title>
<g id="a_edge2_Node000002_Node000003"><a xlink:title=" ">
<path fill="none" stroke="#63b8ff" d="M847.46,-58.25C838.47,-49.57 827.62,-39.1 819,-30.78"/>
<polygon fill="#63b8ff" stroke="#63b8ff" points="844.96,-60.71 854.59,-65.13 849.83,-55.67 844.96,-60.71"/>
</a>
</g>
</g>
<!-- Node4 -->
<g id="Node000004" class="node">
<title>Node4</title>
<g id="a_Node000004"><a xlink:href="main_8cpp.html" target="_top" xlink:title="Arduino entry point — instantiates the Robot and drives the main loop.">
<polygon fill="white" stroke="#666666" points="963.07,-24.88 890.82,-24.88 890.82,-5.63 963.07,-5.63 963.07,-24.88"/>
<text xml:space="preserve" text-anchor="middle" x="926.94" y="-11.38" font-family="Helvetica,sans-Serif" font-size="10.00">src/main.cpp</text>
</a>
</g>
</g>
<!-- Node2&#45;&gt;Node4 -->
<g id="edge3_Node000002_Node000004" class="edge">
<title>Node2&#45;&gt;Node4</title>
<g id="a_edge3_Node000002_Node000004"><a xlink:title=" ">
<path fill="none" stroke="#63b8ff" d="M882.66,-58.3C893.98,-47.55 908.21,-34.04 917.44,-25.28"/>
<polygon fill="#63b8ff" stroke="#63b8ff" points="880.3,-55.72 875.46,-65.14 885.12,-60.79 880.3,-55.72"/>
</a>
</g>
</g>
<!-- Node5&#45;&gt;Node2 -->
<g id="edge42_Node000005_Node000002" class="edge">
<title>Node5&#45;&gt;Node2</title>
<g id="a_edge42_Node000005_Node000002"><a xlink:title=" ">
<path fill="none" stroke="#63b8ff" d="M696.59,-261.47C528.43,-256.88 140.24,-243.7 85.94,-218.75 38.79,-197.08 -14.77,-159.4 20.94,-121.75 48.97,-92.21 663.09,-80.34 825.72,-77.71"/>
<polygon fill="#63b8ff" stroke="#63b8ff" points="696.47,-264.97 706.56,-261.74 696.66,-257.97 696.47,-264.97"/>
</a>
</g>
</g>
<!-- Node6 -->
<g id="Node000006" class="node">
<title>Node6</title>
<g id="a_Node000006"><a xlink:href="_planner_8hpp.html" target="_top" xlink:title="High&#45;level autonomous planner used with ReplanStep.">
<polygon fill="white" stroke="#666666" points="1064.57,-146.62 923.32,-146.62 923.32,-127.38 1064.57,-127.38 1064.57,-146.62"/>
<text xml:space="preserve" text-anchor="middle" x="993.94" y="-133.12" font-family="Helvetica,sans-Serif" font-size="10.00">src/Autonomous/Planner.hpp</text>
</a>
</g>
</g>
<!-- Node5&#45;&gt;Node6 -->
<g id="edge5_Node000005_Node000006" class="edge">
<title>Node5&#45;&gt;Node6</title>
<g id="a_edge5_Node000005_Node000006"><a xlink:title=" ">
<path fill="none" stroke="#63b8ff" d="M851.01,-254.79C899.97,-247.77 957.33,-236.14 974.94,-218.75 994.62,-199.32 995.47,-163.61 994.66,-146.97"/>
<polygon fill="#63b8ff" stroke="#63b8ff" points="850.67,-251.3 841.24,-256.14 851.63,-258.24 850.67,-251.3"/>
</a>
</g>
</g>
<!-- Node8 -->
<g id="Node000008" class="node">
<title>Node8</title>
<g id="a_Node000008"><a xlink:href="_accelerate_straight_line_8hpp.html" target="_top" xlink:title="AutoStep that drives straight while ramping speed up to a target velocity.">
<polygon fill="white" stroke="#666666" points="775.94,-152.25 639.94,-152.25 639.94,-121.75 775.94,-121.75 775.94,-152.25"/>
<text xml:space="preserve" text-anchor="start" x="647.94" y="-138.75" font-family="Helvetica,sans-Serif" font-size="10.00">src/Autonomous/Steps</text>
<text xml:space="preserve" text-anchor="middle" x="707.94" y="-127.5" font-family="Helvetica,sans-Serif" font-size="10.00">/AccelerateStraightLine.hpp</text>
</a>
</g>
</g>
<!-- Node5&#45;&gt;Node8 -->
<g id="edge8_Node000005_Node000008" class="edge">
<title>Node5&#45;&gt;Node8</title>
<g id="a_edge8_Node000005_Node000008"><a xlink:title=" ">
<path fill="none" stroke="#63b8ff" d="M696.95,-263.39C542.39,-262.6 206.03,-256.53 170.94,-218.75 121.46,-165.47 46.75,-213.54 603.94,-152.25 615.45,-150.98 627.64,-149.47 639.48,-147.91"/>
<polygon fill="#63b8ff" stroke="#63b8ff" points="696.68,-266.89 706.69,-263.43 696.71,-259.89 696.68,-266.89"/>
</a>
</g>
</g>
<!-- Node9 -->
<g id="Node000009" class="node">
<title>Node9</title>
<g id="a_Node000009"><a xlink:href="_advance_cycle_step_8hpp.html" target="_top" xlink:title="Instantaneous AutoStep that advances the Strategy craft cycle by one.">
<polygon fill="white" stroke="#666666" points="1143.82,-218.75 1022.07,-218.75 1022.07,-188.25 1143.82,-188.25 1143.82,-218.75"/>
<text xml:space="preserve" text-anchor="start" x="1030.07" y="-205.25" font-family="Helvetica,sans-Serif" font-size="10.00">src/Autonomous/Steps</text>
<text xml:space="preserve" text-anchor="middle" x="1082.94" y="-194" font-family="Helvetica,sans-Serif" font-size="10.00">/AdvanceCycleStep.hpp</text>
</a>
</g>
</g>
<!-- Node5&#45;&gt;Node9 -->
<g id="edge10_Node000005_Node000009" class="edge">
<title>Node5&#45;&gt;Node9</title>
<g id="a_edge10_Node000005_Node000009"><a xlink:title=" ">
<path fill="none" stroke="#63b8ff" d="M832.68,-252.18C886.81,-241.87 966.81,-226.63 1021.71,-216.17"/>
<polygon fill="#63b8ff" stroke="#63b8ff" points="832.2,-248.71 823.03,-254.02 833.51,-255.59 832.2,-248.71"/>
</a>
</g>
</g>
<!-- Node10 -->
<g id="Node000010" class="node">
<title>Node10</title>
<g id="a_Node000010"><a xlink:href="_deploy_ramp_8hpp.html" target="_top" xlink:title="Instantaneous AutoStep that deploys the miner&#39;s block&#45;collection ramp.">
<polygon fill="white" stroke="#666666" points="1755.82,-218.75 1640.07,-218.75 1640.07,-188.25 1755.82,-188.25 1755.82,-218.75"/>
<text xml:space="preserve" text-anchor="start" x="1648.07" y="-205.25" font-family="Helvetica,sans-Serif" font-size="10.00">src/Autonomous/Steps</text>
<text xml:space="preserve" text-anchor="middle" x="1697.94" y="-194" font-family="Helvetica,sans-Serif" font-size="10.00">/DeployRamp.hpp</text>
</a>
</g>
</g>
<!-- Node5&#45;&gt;Node10 -->
<g id="edge12_Node000005_Node000010" class="edge">
<title>Node5&#45;&gt;Node10</title>
<g id="a_edge12_Node000005_Node000010"><a xlink:title=" ">
<path fill="none" stroke="#63b8ff" d="M851.11,-261.05C995.83,-256.26 1317.79,-243.62 1587.94,-218.75 1604.82,-217.2 1623.09,-215.03 1639.8,-212.85"/>
<polygon fill="#63b8ff" stroke="#63b8ff" points="851.14,-257.55 841.26,-261.37 851.37,-264.54 851.14,-257.55"/>
</a>
</g>
</g>
<!-- Node11 -->
<g id="Node000011" class="node">
<title>Node11</title>
<g id="a_Node000011"><a xlink:href="_detect_block_8hpp.html" target="_top" xlink:title="AutoStep that samples the color sensor and updates Strategy with the detected block type.">
<polygon fill="white" stroke="#666666" points="1277.82,-218.75 1162.07,-218.75 1162.07,-188.25 1277.82,-188.25 1277.82,-218.75"/>
<text xml:space="preserve" text-anchor="start" x="1170.07" y="-205.25" font-family="Helvetica,sans-Serif" font-size="10.00">src/Autonomous/Steps</text>
<text xml:space="preserve" text-anchor="middle" x="1219.94" y="-194" font-family="Helvetica,sans-Serif" font-size="10.00">/DetectBlock.hpp</text>
</a>
</g>
</g>
<!-- Node5&#45;&gt;Node11 -->
<g id="edge14_Node000005_Node000011" class="edge">
<title>Node5&#45;&gt;Node11</title>
<g id="a_edge14_Node000005_Node000011"><a xlink:title=" ">
<path fill="none" stroke="#63b8ff" d="M850.59,-256.45C927.35,-249.02 1048.74,-235.93 1152.94,-218.75 1155.88,-218.27 1158.88,-217.74 1161.9,-217.19"/>
<polygon fill="#63b8ff" stroke="#63b8ff" points="850.72,-252.92 841.1,-257.36 851.39,-259.89 850.72,-252.92"/>
</a>
</g>
</g>
<!-- Node12 -->
<g id="Node000012" class="node">
<title>Node12</title>
<g id="a_Node000012"><a xlink:href="_drive_arc_8hpp.html" target="_top" xlink:title="AutoStep that drives the robot along a circular arc.">
<polygon fill="white" stroke="#666666" points="1411.82,-218.75 1296.07,-218.75 1296.07,-188.25 1411.82,-188.25 1411.82,-218.75"/>
<text xml:space="preserve" text-anchor="start" x="1304.07" y="-205.25" font-family="Helvetica,sans-Serif" font-size="10.00">src/Autonomous/Steps</text>
<text xml:space="preserve" text-anchor="middle" x="1353.94" y="-194" font-family="Helvetica,sans-Serif" font-size="10.00">/DriveArc.hpp</text>
</a>
</g>
</g>
<!-- Node5&#45;&gt;Node12 -->
<g id="edge16_Node000005_Node000012" class="edge">
<title>Node5&#45;&gt;Node12</title>
<g id="a_edge16_Node000005_Node000012"><a xlink:title=" ">
<path fill="none" stroke="#63b8ff" d="M850.7,-259.64C951.3,-254.08 1133.06,-241.72 1286.94,-218.75 1289.88,-218.31 1292.89,-217.82 1295.92,-217.3"/>
<polygon fill="#63b8ff" stroke="#63b8ff" points="850.74,-256.14 840.95,-260.18 851.12,-263.13 850.74,-256.14"/>
</a>
</g>
</g>
<!-- Node13 -->
<g id="Node000013" class="node">
<title>Node13</title>
<g id="a_Node000013"><a xlink:href="_drive_distance_8hpp.html" target="_top" xlink:title="AutoStep that drives straight for a specified distance at a fixed velocity.">
<polygon fill="white" stroke="#666666" points="563.82,-218.75 448.07,-218.75 448.07,-188.25 563.82,-188.25 563.82,-218.75"/>
<text xml:space="preserve" text-anchor="start" x="456.07" y="-205.25" font-family="Helvetica,sans-Serif" font-size="10.00">src/Autonomous/Steps</text>
<text xml:space="preserve" text-anchor="middle" x="505.94" y="-194" font-family="Helvetica,sans-Serif" font-size="10.00">/DriveDistance.hpp</text>
</a>
</g>
</g>
<!-- Node5&#45;&gt;Node13 -->
<g id="edge18_Node000005_Node000013" class="edge">
<title>Node5&#45;&gt;Node13</title>
<g id="a_edge18_Node000005_Node000013"><a xlink:title=" ">
<path fill="none" stroke="#63b8ff" d="M721.61,-251.88C676.38,-241.94 611.08,-227.6 564.19,-217.3"/>
<polygon fill="#63b8ff" stroke="#63b8ff" points="720.66,-255.25 731.18,-253.98 722.16,-248.42 720.66,-255.25"/>
</a>
</g>
</g>
<!-- Node14 -->
<g id="Node000014" class="node">
<title>Node14</title>
<g id="a_Node000014"><a xlink:href="_drive_line_until_wall_8hpp.html" target="_top" xlink:title="AutoStep that follows a line until the distance sensor reads a target wall distance.">
<polygon fill="white" stroke="#666666" points="147.94,-152.25 29.94,-152.25 29.94,-121.75 147.94,-121.75 147.94,-152.25"/>
<text xml:space="preserve" text-anchor="start" x="37.94" y="-138.75" font-family="Helvetica,sans-Serif" font-size="10.00">src/Autonomous/Steps</text>
<text xml:space="preserve" text-anchor="middle" x="88.94" y="-127.5" font-family="Helvetica,sans-Serif" font-size="10.00">/DriveLineUntilWall.hpp</text>
</a>
</g>
</g>
<!-- Node5&#45;&gt;Node14 -->
<g id="edge21_Node000005_Node000014" class="edge">
<title>Node5&#45;&gt;Node14</title>
<g id="a_edge21_Node000005_Node000014"><a xlink:title=" ">
<path fill="none" stroke="#63b8ff" d="M697.03,-263.32C531.09,-262.48 150.85,-256.43 106.94,-218.75 87.98,-202.48 86.48,-171.02 87.46,-152.54"/>
<polygon fill="#63b8ff" stroke="#63b8ff" points="696.59,-266.82 706.61,-263.36 696.63,-259.82 696.59,-266.82"/>
</a>
</g>
</g>
<!-- Node15 -->
<g id="Node000015" class="node">
<title>Node15</title>
<g id="a_Node000015"><a xlink:href="_drive_radius_angle_8hpp.html" target="_top" xlink:title="AutoStep that drives along an arc for a specified heading change (degrees).">
<polygon fill="white" stroke="#666666" points="388.19,-152.25 271.69,-152.25 271.69,-121.75 388.19,-121.75 388.19,-152.25"/>
<text xml:space="preserve" text-anchor="start" x="279.69" y="-138.75" font-family="Helvetica,sans-Serif" font-size="10.00">src/Autonomous/Steps</text>
<text xml:space="preserve" text-anchor="middle" x="329.94" y="-127.5" font-family="Helvetica,sans-Serif" font-size="10.00">/DriveRadiusAngle.hpp</text>
</a>
</g>
</g>
<!-- Node5&#45;&gt;Node15 -->
<g id="edge23_Node000005_Node000015" class="edge">
<title>Node5&#45;&gt;Node15</title>
<g id="a_edge23_Node000005_Node000015"><a xlink:title=" ">
<path fill="none" stroke="#63b8ff" d="M696.73,-263.86C532.53,-264.08 160.44,-259.97 121.94,-218.75 74.75,-168.22 194.49,-148.89 271.32,-141.83"/>
<polygon fill="#63b8ff" stroke="#63b8ff" points="696.68,-267.36 706.67,-263.84 696.67,-260.36 696.68,-267.36"/>
</a>
</g>
</g>
<!-- Node16 -->
<g id="Node000016" class="node">
<title>Node16</title>
<g id="a_Node000016"><a xlink:href="_drive_radius_at_velocity_8hpp.html" target="_top" xlink:title="AutoStep that drives along a constant&#45;radius arc for a specified arc length.">
<polygon fill="white" stroke="#666666" points="594.57,-152.25 459.32,-152.25 459.32,-121.75 594.57,-121.75 594.57,-152.25"/>
<text xml:space="preserve" text-anchor="start" x="467.32" y="-138.75" font-family="Helvetica,sans-Serif" font-size="10.00">src/Autonomous/Steps</text>
<text xml:space="preserve" text-anchor="middle" x="526.94" y="-127.5" font-family="Helvetica,sans-Serif" font-size="10.00">/DriveRadiusAtVelocity.hpp</text>
</a>
</g>
</g>
<!-- Node5&#45;&gt;Node16 -->
<g id="edge25_Node000005_Node000016" class="edge">
<title>Node5&#45;&gt;Node16</title>
<g id="a_edge25_Node000005_Node000016"><a xlink:title=" ">
<path fill="none" stroke="#63b8ff" d="M696.84,-263.76C534.8,-263.76 170.68,-259.2 132.94,-218.75 123.7,-208.84 123.98,-198.42 132.94,-188.25 138.29,-182.18 347.72,-157.98 459,-145.52"/>
<polygon fill="#63b8ff" stroke="#63b8ff" points="696.64,-267.26 706.64,-263.75 696.63,-260.26 696.64,-267.26"/>
</a>
</g>
</g>
<!-- Node17 -->
<g id="Node000017" class="node">
<title>Node17</title>
<g id="a_Node000017"><a xlink:href="_drive_until_wall_8hpp.html" target="_top" xlink:title="AutoStep that drives straight toward a wall until the distance sensor reaches a setpoint.">
<polygon fill="white" stroke="#666666" points="295.82,-218.75 180.07,-218.75 180.07,-188.25 295.82,-188.25 295.82,-218.75"/>
<text xml:space="preserve" text-anchor="start" x="188.07" y="-205.25" font-family="Helvetica,sans-Serif" font-size="10.00">src/Autonomous/Steps</text>
<text xml:space="preserve" text-anchor="middle" x="237.94" y="-194" font-family="Helvetica,sans-Serif" font-size="10.00">/DriveUntilWall.hpp</text>
</a>
</g>
</g>
<!-- Node5&#45;&gt;Node17 -->
<g id="edge27_Node000005_Node000017" class="edge">
<title>Node5&#45;&gt;Node17</title>
<g id="a_edge27_Node000005_Node000017"><a xlink:title=" ">
<path fill="none" stroke="#63b8ff" d="M697.11,-258.78C603.94,-252.58 442.31,-239.82 304.94,-218.75 302,-218.3 299,-217.8 295.97,-217.27"/>
<polygon fill="#63b8ff" stroke="#63b8ff" points="696.68,-262.26 706.89,-259.42 697.14,-255.27 696.68,-262.26"/>
</a>
</g>
</g>
<!-- Node18 -->
<g id="Node000018" class="node">
<title>Node18</title>
<g id="a_Node000018"><a xlink:href="_follow_line_step_8hpp.html" target="_top" xlink:title="AutoStep that follows a line for a specified distance.">
<polygon fill="white" stroke="#666666" points="429.82,-218.75 314.07,-218.75 314.07,-188.25 429.82,-188.25 429.82,-218.75"/>
<text xml:space="preserve" text-anchor="start" x="322.07" y="-205.25" font-family="Helvetica,sans-Serif" font-size="10.00">src/Autonomous/Steps</text>
<text xml:space="preserve" text-anchor="middle" x="371.94" y="-194" font-family="Helvetica,sans-Serif" font-size="10.00">/FollowLineStep.hpp</text>
</a>
</g>
</g>
<!-- Node5&#45;&gt;Node18 -->
<g id="edge28_Node000005_Node000018" class="edge">
<title>Node5&#45;&gt;Node18</title>
<g id="a_edge28_Node000005_Node000018"><a xlink:title=" ">
<path fill="none" stroke="#63b8ff" d="M697.2,-254.86C629.13,-246.9 527.12,-233.98 438.94,-218.75 436.01,-218.24 433.02,-217.7 430,-217.13"/>
<polygon fill="#63b8ff" stroke="#63b8ff" points="696.4,-258.29 706.74,-255.97 697.21,-251.34 696.4,-258.29"/>
</a>
</g>
</g>
<!-- Node19 -->
<g id="Node000019" class="node">
<title>Node19</title>
<g id="a_Node000019"><a xlink:href="_index_block_8hpp.html" target="_top" xlink:title="AutoStep that routes a newly acquired block to the correct hopper slot.">
<polygon fill="white" stroke="#666666" points="697.82,-218.75 582.07,-218.75 582.07,-188.25 697.82,-188.25 697.82,-218.75"/>
<text xml:space="preserve" text-anchor="start" x="590.07" y="-205.25" font-family="Helvetica,sans-Serif" font-size="10.00">src/Autonomous/Steps</text>
<text xml:space="preserve" text-anchor="middle" x="639.94" y="-194" font-family="Helvetica,sans-Serif" font-size="10.00">/IndexBlock.hpp</text>
</a>
</g>
</g>
<!-- Node5&#45;&gt;Node19 -->
<g id="edge31_Node000005_Node000019" class="edge">
<title>Node5&#45;&gt;Node19</title>
<g id="a_edge31_Node000005_Node000019"><a xlink:title=" ">
<path fill="none" stroke="#63b8ff" d="M742.79,-249.69C721.99,-240.55 694.65,-228.54 673.39,-219.19"/>
<polygon fill="#63b8ff" stroke="#63b8ff" points="741.35,-252.88 751.91,-253.7 744.17,-246.47 741.35,-252.88"/>
</a>
</g>
</g>
<!-- Node20 -->
<g id="Node000020" class="node">
<title>Node20</title>
<g id="a_Node000020"><a xlink:href="_mine_block_8hpp.html" target="_top" xlink:title="AutoStep that commands the Miner to complete a fixed number of press cycles.">
<polygon fill="white" stroke="#666666" points="1545.82,-218.75 1430.07,-218.75 1430.07,-188.25 1545.82,-188.25 1545.82,-218.75"/>
<text xml:space="preserve" text-anchor="start" x="1438.07" y="-205.25" font-family="Helvetica,sans-Serif" font-size="10.00">src/Autonomous/Steps</text>
<text xml:space="preserve" text-anchor="middle" x="1487.94" y="-194" font-family="Helvetica,sans-Serif" font-size="10.00">/MineBlock.hpp</text>
</a>
</g>
</g>
<!-- Node5&#45;&gt;Node20 -->
<g id="edge33_Node000005_Node000020" class="edge">
<title>Node5&#45;&gt;Node20</title>
<g id="a_edge33_Node000005_Node000020"><a xlink:title=" ">
<path fill="none" stroke="#63b8ff" d="M850.84,-261.57C972.42,-257.93 1216.25,-247.43 1420.94,-218.75 1423.89,-218.34 1426.9,-217.87 1429.93,-217.36"/>
<polygon fill="#63b8ff" stroke="#63b8ff" points="850.87,-258.07 840.98,-261.86 851.07,-265.06 850.87,-258.07"/>
</a>
</g>
</g>
<!-- Node21 -->
<g id="Node000021" class="node">
<title>Node21</title>
<g id="a_Node000021"><a xlink:href="_mine_block_autofire_8hpp.html" target="_top" xlink:title="AutoStep that mines and simultaneously autofires the shooter for a time window.">
<polygon fill="white" stroke="#666666" points="1709.57,-152.25 1592.32,-152.25 1592.32,-121.75 1709.57,-121.75 1709.57,-152.25"/>
<text xml:space="preserve" text-anchor="start" x="1600.32" y="-138.75" font-family="Helvetica,sans-Serif" font-size="10.00">src/Autonomous/Steps</text>
<text xml:space="preserve" text-anchor="middle" x="1650.94" y="-127.5" font-family="Helvetica,sans-Serif" font-size="10.00">/MineBlockAutofire.hpp</text>
</a>
</g>
</g>
<!-- Node5&#45;&gt;Node21 -->
<g id="edge36_Node000005_Node000021" class="edge">
<title>Node5&#45;&gt;Node21</title>
<g id="a_edge36_Node000005_Node000021"><a xlink:title=" ">
<path fill="none" stroke="#63b8ff" d="M851.21,-261.73C1035.59,-257.4 1490.77,-244.25 1554.94,-218.75 1590.57,-204.6 1622.58,-171.74 1639.11,-152.58"/>
<polygon fill="#63b8ff" stroke="#63b8ff" points="851.16,-258.23 841.24,-261.96 851.32,-265.22 851.16,-258.23"/>
</a>
</g>
</g>
<!-- Node22 -->
<g id="Node000022" class="node">
<title>Node22</title>
<g id="a_Node000022"><a xlink:href="_place_on_table_8hpp.html" target="_top" xlink:title="AutoStep stub that places a block on the crafting table.">
<polygon fill="white" stroke="#666666" points="831.82,-218.75 716.07,-218.75 716.07,-188.25 831.82,-188.25 831.82,-218.75"/>
<text xml:space="preserve" text-anchor="start" x="724.07" y="-205.25" font-family="Helvetica,sans-Serif" font-size="10.00">src/Autonomous/Steps</text>
<text xml:space="preserve" text-anchor="middle" x="773.94" y="-194" font-family="Helvetica,sans-Serif" font-size="10.00">/PlaceOnTable.hpp</text>
</a>
</g>
</g>
<!-- Node5&#45;&gt;Node22 -->
<g id="edge38_Node000005_Node000022" class="edge">
<title>Node5&#45;&gt;Node22</title>
<g id="a_edge38_Node000005_Node000022"><a xlink:title=" ">
<path fill="none" stroke="#63b8ff" d="M773.94,-243.17C773.94,-235.24 773.94,-226.31 773.94,-219.03"/>
<polygon fill="#63b8ff" stroke="#63b8ff" points="770.44,-242.92 773.94,-252.92 777.44,-242.92 770.44,-242.92"/>
</a>
</g>
</g>
<!-- Node23 -->
<g id="Node000023" class="node">
<title>Node23</title>
<g id="a_Node000023"><a xlink:href="_reject_sequence_8hpp.html" target="_top" xlink:title="AutoStep stub that executes the block&#45;rejection sequence.">
<polygon fill="white" stroke="#666666" points="965.82,-218.75 850.07,-218.75 850.07,-188.25 965.82,-188.25 965.82,-218.75"/>
<text xml:space="preserve" text-anchor="start" x="858.07" y="-205.25" font-family="Helvetica,sans-Serif" font-size="10.00">src/Autonomous/Steps</text>
<text xml:space="preserve" text-anchor="middle" x="907.94" y="-194" font-family="Helvetica,sans-Serif" font-size="10.00">/RejectSequence.hpp</text>
</a>
</g>
</g>
<!-- Node5&#45;&gt;Node23 -->
<g id="edge40_Node000005_Node000023" class="edge">
<title>Node5&#45;&gt;Node23</title>
<g id="a_edge40_Node000005_Node000023"><a xlink:title=" ">
<path fill="none" stroke="#63b8ff" d="M805.1,-249.69C825.9,-240.55 853.24,-228.54 874.5,-219.19"/>
<polygon fill="#63b8ff" stroke="#63b8ff" points="803.72,-246.47 795.97,-253.7 806.54,-252.88 803.72,-246.47"/>
</a>
</g>
</g>
<!-- Node6&#45;&gt;Node2 -->
<g id="edge7_Node000006_Node000002" class="edge">
<title>Node6&#45;&gt;Node2</title>
<g id="a_edge7_Node000006_Node000002"><a xlink:title=" ">
<path fill="none" stroke="#63b8ff" d="M963.91,-122.29C939.49,-111.15 905.73,-95.74 884.63,-86.11"/>
<polygon fill="#63b8ff" stroke="#63b8ff" points="962.14,-125.33 972.69,-126.3 965.05,-118.97 962.14,-125.33"/>
</a>
</g>
</g>
<!-- Node7 -->
<g id="Node000007" class="node">
<title>Node7</title>
<g id="a_Node000007"><a xlink:href="_planner_8cpp.html" target="_top" xlink:title="Implementation of the autonomous Planner state machine.">
<polygon fill="white" stroke="#666666" points="1064.57,-85.75 923.32,-85.75 923.32,-66.5 1064.57,-66.5 1064.57,-85.75"/>
<text xml:space="preserve" text-anchor="middle" x="993.94" y="-72.25" font-family="Helvetica,sans-Serif" font-size="10.00">src/Autonomous/Planner.cpp</text>
</a>
</g>
</g>
<!-- Node6&#45;&gt;Node7 -->
<g id="edge6_Node000006_Node000007" class="edge">
<title>Node6&#45;&gt;Node7</title>
<g id="a_edge6_Node000006_Node000007"><a xlink:title=" ">
<path fill="none" stroke="#63b8ff" d="M993.94,-115.57C993.94,-105.54 993.94,-93.96 993.94,-86.15"/>
<polygon fill="#63b8ff" stroke="#63b8ff" points="990.44,-115.54 993.94,-125.54 997.44,-115.54 990.44,-115.54"/>
</a>
</g>
</g>
<!-- Node8&#45;&gt;Node2 -->
<g id="edge9_Node000008_Node000002" class="edge">
<title>Node8&#45;&gt;Node2</title>
<g id="a_edge9_Node000008_Node000002"><a xlink:title=" ">
<path fill="none" stroke="#63b8ff" d="M757.87,-117.28C785.61,-106.88 818.86,-94.41 840.87,-86.15"/>
<polygon fill="#63b8ff" stroke="#63b8ff" points="756.71,-113.98 748.57,-120.76 759.17,-120.53 756.71,-113.98"/>
</a>
</g>
</g>
<!-- Node9&#45;&gt;Node6 -->
<g id="edge11_Node000009_Node000006" class="edge">
<title>Node9&#45;&gt;Node6</title>
<g id="a_edge11_Node000009_Node000006"><a xlink:title=" ">
<path fill="none" stroke="#63b8ff" d="M1053.72,-181.32C1037.66,-169.68 1018.58,-155.86 1006.38,-147.01"/>
<polygon fill="#63b8ff" stroke="#63b8ff" points="1051.37,-183.94 1061.52,-186.98 1055.48,-178.27 1051.37,-183.94"/>
</a>
</g>
</g>
<!-- Node10&#45;&gt;Node2 -->
<g id="edge13_Node000010_Node000002" class="edge">
<title>Node10&#45;&gt;Node2</title>
<g id="a_edge13_Node000010_Node000002"><a xlink:title=" ">
<path fill="none" stroke="#63b8ff" d="M1628.65,-191.05C1530.15,-174.9 1343.94,-144.82 1184.94,-121.75 1064.7,-104.3 1034.02,-104.29 913.94,-85.75 910.7,-85.25 907.34,-84.71 903.97,-84.15"/>
<polygon fill="#63b8ff" stroke="#63b8ff" points="1628,-194.49 1638.43,-192.66 1629.13,-187.58 1628,-194.49"/>
</a>
</g>
</g>
<!-- Node11&#45;&gt;Node6 -->
<g id="edge15_Node000011_Node000006" class="edge">
<title>Node11&#45;&gt;Node6</title>
<g id="a_edge15_Node000011_Node000006"><a xlink:title=" ">
<path fill="none" stroke="#63b8ff" d="M1157.51,-184.68C1114.75,-172.48 1059.83,-156.8 1025.76,-147.08"/>
<polygon fill="#63b8ff" stroke="#63b8ff" points="1156.35,-187.99 1166.92,-187.37 1158.27,-181.26 1156.35,-187.99"/>
</a>
</g>
</g>
<!-- Node12&#45;&gt;Node6 -->
<g id="edge17_Node000012_Node000006" class="edge">
<title>Node12&#45;&gt;Node6</title>
<g id="a_edge17_Node000012_Node000006"><a xlink:title=" ">
<path fill="none" stroke="#63b8ff" d="M1284.69,-187.86C1197.48,-171.27 1107.77,-156.3 1051.06,-147.11"/>
<polygon fill="#63b8ff" stroke="#63b8ff" points="1283.9,-191.27 1294.38,-189.72 1285.22,-184.4 1283.9,-191.27"/>
</a>
</g>
</g>
<!-- Node13&#45;&gt;Node2 -->
<g id="edge20_Node000013_Node000002" class="edge">
<title>Node13&#45;&gt;Node2</title>
<g id="a_edge20_Node000013_Node000002"><a xlink:title=" ">
<path fill="none" stroke="#63b8ff" d="M575.14,-188.2C645.96,-179.02 787.03,-185.1 830.94,-152.25 852.84,-135.87 860.99,-102.11 863.72,-86.03"/>
<polygon fill="#63b8ff" stroke="#63b8ff" points="574.86,-184.71 565.5,-189.66 575.91,-191.63 574.86,-184.71"/>
</a>
</g>
</g>
<!-- Node13&#45;&gt;Node6 -->
<g id="edge19_Node000013_Node000006" class="edge">
<title>Node13&#45;&gt;Node6</title>
<g id="a_edge19_Node000013_Node000006"><a xlink:title=" ">
<path fill="none" stroke="#63b8ff" d="M575.06,-188C708.63,-166.23 744.84,-167.95 875.94,-152.25 891.21,-150.42 907.58,-148.45 923.12,-146.57"/>
<polygon fill="#63b8ff" stroke="#63b8ff" points="574.78,-184.49 565.48,-189.57 575.92,-191.4 574.78,-184.49"/>
</a>
</g>
</g>
<!-- Node14&#45;&gt;Node2 -->
<g id="edge22_Node000014_Node000002" class="edge">
<title>Node14&#45;&gt;Node2</title>
<g id="a_edge22_Node000014_Node000002"><a xlink:title=" ">
<path fill="none" stroke="#63b8ff" d="M159.49,-130.1C191.12,-127.48 228.9,-124.41 262.94,-121.75 475.31,-105.18 729.93,-86.79 825.85,-79.92"/>
<polygon fill="#63b8ff" stroke="#63b8ff" points="159.31,-126.6 149.64,-130.91 159.89,-133.58 159.31,-126.6"/>
</a>
</g>
</g>
<!-- Node15&#45;&gt;Node2 -->
<g id="edge24_Node000015_Node000002" class="edge">
<title>Node15&#45;&gt;Node2</title>
<g id="a_edge24_Node000015_Node000002"><a xlink:title=" ">
<path fill="none" stroke="#63b8ff" d="M399.73,-127.58C416.19,-125.63 433.68,-123.59 449.94,-121.75 588.01,-106.13 752.08,-88.87 825.73,-81.19"/>
<polygon fill="#63b8ff" stroke="#63b8ff" points="399.54,-124.08 390.03,-128.73 400.37,-131.03 399.54,-124.08"/>
</a>
</g>
</g>
<!-- Node16&#45;&gt;Node2 -->
<g id="edge26_Node000016_Node000002" class="edge">
<title>Node16&#45;&gt;Node2</title>
<g id="a_edge26_Node000016_Node000002"><a xlink:title=" ">
<path fill="none" stroke="#63b8ff" d="M606.2,-122.19C675.3,-110.16 772.6,-93.21 826.03,-83.9"/>
<polygon fill="#63b8ff" stroke="#63b8ff" points="605.68,-118.73 596.43,-123.9 606.88,-125.63 605.68,-118.73"/>
</a>
</g>
</g>
<!-- Node18&#45;&gt;Node2 -->
<g id="edge30_Node000018_Node000002" class="edge">
<title>Node18&#45;&gt;Node2</title>
<g id="a_edge30_Node000018_Node000002"><a xlink:title=" ">
<path fill="none" stroke="#63b8ff" d="M441.17,-188.09C594.18,-166.53 647.63,-215.03 784.94,-152.25 818.21,-137.04 846.58,-102.39 858.68,-86.01"/>
<polygon fill="#63b8ff" stroke="#63b8ff" points="440.85,-184.6 431.47,-189.54 441.88,-191.52 440.85,-184.6"/>
</a>
</g>
</g>
<!-- Node18&#45;&gt;Node6 -->
<g id="edge29_Node000018_Node000006" class="edge">
<title>Node18&#45;&gt;Node6</title>
<g id="a_edge29_Node000018_Node000006"><a xlink:title=" ">
<path fill="none" stroke="#63b8ff" d="M441.29,-188.28C507.27,-180.75 788.89,-155.94 922.85,-144.21"/>
<polygon fill="#63b8ff" stroke="#63b8ff" points="440.95,-184.8 431.47,-189.53 441.83,-191.74 440.95,-184.8"/>
</a>
</g>
</g>
<!-- Node19&#45;&gt;Node6 -->
<g id="edge32_Node000019_Node000006" class="edge">
<title>Node19&#45;&gt;Node6</title>
<g id="a_edge32_Node000019_Node000006"><a xlink:title=" ">
<path fill="none" stroke="#63b8ff" d="M709.28,-187.84C795.05,-171.35 883.09,-156.32 938.55,-147.09"/>
<polygon fill="#63b8ff" stroke="#63b8ff" points="708.66,-184.39 699.51,-189.73 709.99,-191.27 708.66,-184.39"/>
</a>
</g>
</g>
<!-- Node20&#45;&gt;Node2 -->
<g id="edge35_Node000020_Node000002" class="edge">
<title>Node20&#45;&gt;Node2</title>
<g id="a_edge35_Node000020_Node000002"><a xlink:title=" ">
<path fill="none" stroke="#63b8ff" d="M1418.83,-187.83C1218.82,-146.64 993.28,-102.25 904.07,-84.77"/>
<polygon fill="#63b8ff" stroke="#63b8ff" points="1417.86,-191.2 1428.37,-189.79 1419.28,-184.35 1417.86,-191.2"/>
</a>
</g>
</g>
<!-- Node20&#45;&gt;Node6 -->
<g id="edge34_Node000020_Node000006" class="edge">
<title>Node20&#45;&gt;Node6</title>
<g id="a_edge34_Node000020_Node000006"><a xlink:title=" ">
<path fill="none" stroke="#63b8ff" d="M1418.91,-188.01C1288.33,-166.87 1147.5,-152.14 1064.87,-144.32"/>
<polygon fill="#63b8ff" stroke="#63b8ff" points="1417.97,-191.41 1428.41,-189.57 1419.1,-184.5 1417.97,-191.41"/>
</a>
</g>
</g>
<!-- Node21&#45;&gt;Node2 -->
<g id="edge37_Node000021_Node000002" class="edge">
<title>Node21&#45;&gt;Node2</title>
<g id="a_edge37_Node000021_Node000002"><a xlink:title=" ">
<path fill="none" stroke="#63b8ff" d="M1580.99,-122.14C1579.97,-122.01 1578.95,-121.88 1577.94,-121.75 1284.65,-85.35 1207.56,-119.43 913.94,-85.75 910.68,-85.38 907.31,-84.92 903.93,-84.42"/>
<polygon fill="#63b8ff" stroke="#63b8ff" points="1580.19,-125.56 1590.59,-123.56 1581.21,-118.64 1580.19,-125.56"/>
</a>
</g>
</g>
<!-- Node22&#45;&gt;Node6 -->
<g id="edge39_Node000022_Node000006" class="edge">
<title>Node22&#45;&gt;Node6</title>
<g id="a_edge39_Node000022_Node000006"><a xlink:title=" ">
<path fill="none" stroke="#63b8ff" d="M834.98,-184.6C876.57,-172.41 929.88,-156.78 962.97,-147.08"/>
<polygon fill="#63b8ff" stroke="#63b8ff" points="834.2,-181.19 825.59,-187.36 836.17,-187.9 834.2,-181.19"/>
</a>
</g>
</g>
<!-- Node23&#45;&gt;Node6 -->
<g id="edge41_Node000023_Node000006" class="edge">
<title>Node23&#45;&gt;Node6</title>
<g id="a_edge41_Node000023_Node000006"><a xlink:title=" ">
<path fill="none" stroke="#63b8ff" d="M936.24,-181.28C951.85,-169.57 970.41,-155.65 982.18,-146.82"/>
<polygon fill="#63b8ff" stroke="#63b8ff" points="934.57,-178.16 928.67,-186.96 938.77,-183.76 934.57,-178.16"/>
</a>
</g>
</g>
<!-- Node24&#45;&gt;Node2 -->
<g id="edge48_Node000024_Node000002" class="edge">
<title>Node24&#45;&gt;Node2</title>
<g id="a_edge48_Node000024_Node000002"><a xlink:title=" ">
<path fill="none" stroke="#63b8ff" d="M1721.21,-250.61C1738.27,-244 1754.69,-233.97 1764.94,-218.75 1772.52,-207.51 1773.83,-198.49 1764.94,-188.25 1733.73,-152.28 961.14,-92.11 913.94,-85.75 910.69,-85.31 907.32,-84.81 903.95,-84.28"/>
<polygon fill="#63b8ff" stroke="#63b8ff" points="1720.29,-247.22 1711.98,-253.8 1722.58,-253.84 1720.29,-247.22"/>
</a>
</g>
</g>
<!-- Node24&#45;&gt;Node6 -->
<g id="edge44_Node000024_Node000006" class="edge">
<title>Node24&#45;&gt;Node6</title>
<g id="a_edge44_Node000024_Node000006"><a xlink:title=" ">
<path fill="none" stroke="#63b8ff" d="M1638.7,-246.52C1620.26,-228.59 1588.39,-201.1 1554.94,-188.25 1467.26,-154.56 1195.21,-143.14 1064.91,-139.53"/>
<polygon fill="#63b8ff" stroke="#63b8ff" points="1636,-248.77 1645.55,-253.37 1640.95,-243.82 1636,-248.77"/>
</a>
</g>
</g>
<!-- Node24&#45;&gt;Node10 -->
<g id="edge45_Node000024_Node000010" class="edge">
<title>Node24&#45;&gt;Node10</title>
<g id="a_edge45_Node000024_Node000010"><a xlink:title=" ">
<path fill="none" stroke="#63b8ff" d="M1668.07,-245.4C1674.24,-236.95 1681.51,-227 1687.33,-219.03"/>
<polygon fill="#63b8ff" stroke="#63b8ff" points="1665.44,-243.07 1662.37,-253.21 1671.09,-247.2 1665.44,-243.07"/>
</a>
</g>
</g>
<!-- Node24&#45;&gt;Node20 -->
<g id="edge46_Node000024_Node000020" class="edge">
<title>Node24&#45;&gt;Node20</title>
<g id="a_edge46_Node000024_Node000020"><a xlink:title=" ">
<path fill="none" stroke="#63b8ff" d="M1618.6,-250.56C1592.4,-241.32 1556.98,-228.84 1529.63,-219.19"/>
<polygon fill="#63b8ff" stroke="#63b8ff" points="1617.19,-253.78 1627.79,-253.8 1619.52,-247.18 1617.19,-253.78"/>
</a>
</g>
</g>
<!-- Node24&#45;&gt;Node21 -->
<g id="edge47_Node000024_Node000021" class="edge">
<title>Node24&#45;&gt;Node21</title>
<g id="a_edge47_Node000024_Node000021"><a xlink:title=" ">
<path fill="none" stroke="#63b8ff" d="M1725.73,-251.88C1772.65,-241.01 1821.57,-221.3 1797.94,-188.25 1787.2,-173.22 1745.85,-159.89 1709.74,-150.74"/>
<polygon fill="#63b8ff" stroke="#63b8ff" points="1725.03,-248.45 1716.01,-254.01 1726.52,-255.29 1725.03,-248.45"/>
</a>
</g>
</g>
<!-- Node25&#45;&gt;Node2 -->
<g id="edge56_Node000025_Node000002" class="edge">
<title>Node25&#45;&gt;Node2</title>
<g id="a_edge56_Node000025_Node000002"><a xlink:title=" ">
<path fill="none" stroke="#63b8ff" d="M1946.85,-187.58C1973.63,-170.93 2007.94,-143.46 1986.94,-121.75 1945.48,-78.87 973.27,-91.94 913.94,-85.75 910.76,-85.42 907.48,-85 904.19,-84.53"/>
<polygon fill="#63b8ff" stroke="#63b8ff" points="1945.18,-184.5 1938.38,-192.63 1948.76,-190.51 1945.18,-184.5"/>
</a>
</g>
</g>
<!-- Node25&#45;&gt;Node6 -->
<g id="edge50_Node000025_Node000006" class="edge">
<title>Node25&#45;&gt;Node6</title>
<g id="a_edge50_Node000025_Node000006"><a xlink:title=" ">
<path fill="none" stroke="#63b8ff" d="M1838,-194.56C1814.43,-192.38 1788.67,-190.11 1764.94,-188.25 1507.35,-168.02 1200.89,-149.78 1064.94,-141.99"/>
<polygon fill="#63b8ff" stroke="#63b8ff" points="1837.59,-198.03 1847.87,-195.47 1838.23,-191.06 1837.59,-198.03"/>
</a>
</g>
</g>
<!-- Node25&#45;&gt;Node21 -->
<g id="edge55_Node000025_Node000021" class="edge">
<title>Node25&#45;&gt;Node21</title>
<g id="a_edge55_Node000025_Node000021"><a xlink:title=" ">
<path fill="none" stroke="#63b8ff" d="M1870.96,-190.75C1825.66,-179.89 1758.25,-163.73 1709.99,-152.16"/>
<polygon fill="#63b8ff" stroke="#63b8ff" points="1869.96,-194.11 1880.5,-193.04 1871.59,-187.31 1869.96,-194.11"/>
</a>
</g>
</g>
<!-- Node26 -->
<g id="Node000026" class="node">
<title>Node26</title>
<g id="a_Node000026"><a xlink:href="_delay_step_8hpp.html" target="_top" xlink:title="AutoStep that blocks for a fixed number of milliseconds.">
<polygon fill="white" stroke="#666666" points="1843.82,-152.25 1728.07,-152.25 1728.07,-121.75 1843.82,-121.75 1843.82,-152.25"/>
<text xml:space="preserve" text-anchor="start" x="1736.07" y="-138.75" font-family="Helvetica,sans-Serif" font-size="10.00">src/Autonomous/Steps</text>
<text xml:space="preserve" text-anchor="middle" x="1785.94" y="-127.5" font-family="Helvetica,sans-Serif" font-size="10.00">/DelayStep.hpp</text>
</a>
</g>
</g>
<!-- Node25&#45;&gt;Node26 -->
<g id="edge51_Node000025_Node000026" class="edge">
<title>Node25&#45;&gt;Node26</title>
<g id="a_edge51_Node000025_Node000026"><a xlink:title=" ">
<path fill="none" stroke="#63b8ff" d="M1890.95,-188.54C1868.93,-177.95 1838.74,-163.41 1816.38,-152.65"/>
<polygon fill="#63b8ff" stroke="#63b8ff" points="1889.14,-191.56 1899.66,-192.74 1892.17,-185.25 1889.14,-191.56"/>
</a>
</g>
</g>
<!-- Node27 -->
<g id="Node000027" class="node">
<title>Node27</title>
<g id="a_Node000027"><a xlink:href="_fire_step_8hpp.html" target="_top" xlink:title="AutoStep that fires the shooter for a fixed duration, then stops it.">
<polygon fill="white" stroke="#666666" points="1977.82,-152.25 1862.07,-152.25 1862.07,-121.75 1977.82,-121.75 1977.82,-152.25"/>
<text xml:space="preserve" text-anchor="start" x="1870.07" y="-138.75" font-family="Helvetica,sans-Serif" font-size="10.00">src/Autonomous/Steps</text>
<text xml:space="preserve" text-anchor="middle" x="1919.94" y="-127.5" font-family="Helvetica,sans-Serif" font-size="10.00">/FireStep.hpp</text>
</a>
</g>
</g>
<!-- Node25&#45;&gt;Node27 -->
<g id="edge53_Node000025_Node000027" class="edge">
<title>Node25&#45;&gt;Node27</title>
<g id="a_edge53_Node000025_Node000027"><a xlink:title=" ">
<path fill="none" stroke="#63b8ff" d="M1919.94,-182.12C1919.94,-172.44 1919.94,-161.1 1919.94,-152.34"/>
<polygon fill="#63b8ff" stroke="#63b8ff" points="1916.44,-182.02 1919.94,-192.02 1923.44,-182.02 1916.44,-182.02"/>
</a>
</g>
</g>
<!-- Node26&#45;&gt;Node2 -->
<g id="edge52_Node000026_Node000002" class="edge">
<title>Node26&#45;&gt;Node2</title>
<g id="a_edge52_Node000026_Node000002"><a xlink:title=" ">
<path fill="none" stroke="#63b8ff" d="M1716.2,-121.56C1361.7,-77.35 1266.2,-124.46 913.94,-85.75 910.68,-85.39 907.31,-84.95 903.93,-84.46"/>
<polygon fill="#63b8ff" stroke="#63b8ff" points="1715.71,-125.02 1726.07,-122.8 1716.59,-118.08 1715.71,-125.02"/>
</a>
</g>
</g>
<!-- Node27&#45;&gt;Node2 -->
<g id="edge54_Node000027_Node000002" class="edge">
<title>Node27&#45;&gt;Node2</title>
<g id="a_edge54_Node000027_Node000002"><a xlink:title=" ">
<path fill="none" stroke="#63b8ff" d="M1850.19,-121.57C1436.51,-71.19 1325.48,-129.65 913.94,-85.75 910.77,-85.41 907.48,-84.99 904.19,-84.52"/>
<polygon fill="#63b8ff" stroke="#63b8ff" points="1849.72,-125.04 1860.08,-122.79 1850.58,-118.09 1849.72,-125.04"/>
</a>
</g>
</g>
</g>
</svg>
