<?xml version="1.0" encoding="UTF-8" standalone="no"?>
<!DOCTYPE svg PUBLIC "-//W3C//DTD SVG 1.1//EN"
 "http://www.w3.org/Graphics/SVG/1.1/DTD/svg11.dtd">
<!-- Generated by graphviz version 14.1.2 (20260124.0452)
 -->
<!-- Title: CompositeStep::update Pages: 1 -->
<svg width="272pt" height="138pt"
 viewBox="0.00 0.00 272.00 138.00" xmlns="http://www.w3.org/2000/svg" xmlns:xlink="http://www.w3.org/1999/xlink">
<g id="graph0" class="graph" transform="scale(1 1) rotate(0) translate(4 134.25)">
<title>CompositeStep::update</title>
<!-- Node1 -->
<g id="Node000001" class="node">
<title>Node1</title>
<g id="a_Node000001"><a xlink:title=" ">
<polygon fill="#999999" stroke="#666666" points="118.75,-74.25 0,-74.25 0,-55 118.75,-55 118.75,-74.25"/>
<text xml:space="preserve" text-anchor="middle" x="59.38" y="-60.75" font-family="Helvetica,sans-Serif" font-size="10.00">CompositeStep::update</text>
</a>
</g>
</g>
<!-- Node2 -->
<g id="Node000002" class="node">
<title>Node2</title>
<g id="a_Node000002"><a xlink:href="class_auto_step.html#a36d96a7aeb7e62c1ba43190cfefc332f" target="_top" xlink:title=" ">
<polygon fill="white" stroke="#666666" points="248.38,-130.25 170.12,-130.25 170.12,-111 248.38,-111 248.38,-130.25"/>
<text xml:space="preserve" text-anchor="middle" x="209.25" y="-116.75" font-family="Helvetica,sans-Serif" font-size="10.00">AutoStep::end</text>
</a>
</g>
</g>
<!-- Node1&#45;&gt;Node2 -->
<g id="edge1_Node000001_Node000002" class="edge">
<title>Node1&#45;&gt;Node2</title>
<g id="a_edge1_Node000001_Node000002"><a xlink:title=" ">
<path fill="none" stroke="#63b8ff" d="M84.27,-74.7C103.26,-82.59 130.56,-93.69 154.75,-102.62 158.61,-104.05 162.64,-105.49 166.68,-106.9"/>
<polygon fill="#63b8ff" stroke="#63b8ff" points="165.28,-110.12 175.87,-110.06 167.55,-103.5 165.28,-110.12"/>
</a>
</g>
</g>
<!-- Node3 -->
<g id="Node000003" class="node">
<title>Node3</title>
<g id="a_Node000003"><a xlink:href="class_auto_step.html#a1467cdd23fa5efe9204461f6ddbfbf13" target="_top" xlink:title=" ">
<polygon fill="white" stroke="#666666" points="262.62,-93.25 155.88,-93.25 155.88,-74 262.62,-74 262.62,-93.25"/>
<text xml:space="preserve" text-anchor="middle" x="209.25" y="-79.75" font-family="Helvetica,sans-Serif" font-size="10.00">AutoStep::isFinished</text>
</a>
</g>
</g>
<!-- Node1&#45;&gt;Node3 -->
<g id="edge2_Node000001_Node000003" class="edge">
<title>Node1&#45;&gt;Node3</title>
<g id="a_edge2_Node000001_Node000003"><a xlink:title=" ">
<path fill="none" stroke="#63b8ff" d="M119.24,-72.19C127.55,-73.26 136.12,-74.36 144.51,-75.44"/>
<polygon fill="#63b8ff" stroke="#63b8ff" points="143.94,-78.89 154.3,-76.69 144.83,-71.95 143.94,-78.89"/>
</a>
</g>
</g>
<!-- Node4 -->
<g id="Node000004" class="node">
<title>Node4</title>
<g id="a_Node000004"><a xlink:href="class_composite_step.html#a334a8511affc59f59e0015295bbf216b" target="_top" xlink:title=" ">
<polygon fill="white" stroke="#666666" points="263.75,-56.25 154.75,-56.25 154.75,-37 263.75,-37 263.75,-56.25"/>
<text xml:space="preserve" text-anchor="middle" x="209.25" y="-42.75" font-family="Helvetica,sans-Serif" font-size="10.00">CompositeStep::start</text>
</a>
</g>
</g>
<!-- Node1&#45;&gt;Node4 -->
<g id="edge3_Node000001_Node000004" class="edge">
<title>Node1&#45;&gt;Node4</title>
<g id="a_edge3_Node000001_Node000004"><a xlink:title=" ">
<path fill="none" stroke="#63b8ff" d="M119.24,-57.46C127.04,-56.51 135.06,-55.53 142.95,-54.57"/>
<polygon fill="#63b8ff" stroke="#63b8ff" points="143.37,-58.05 152.88,-53.37 142.53,-51.1 143.37,-58.05"/>
</a>
</g>
</g>
<!-- Node5 -->
<g id="Node000005" class="node">
<title>Node5</title>
<g id="a_Node000005"><a xlink:href="class_auto_step.html#a294cc7e911ef0300e62dd5df10f2eec9" target="_top" xlink:title=" ">
<polygon fill="white" stroke="#666666" points="255.12,-19.25 163.38,-19.25 163.38,0 255.12,0 255.12,-19.25"/>
<text xml:space="preserve" text-anchor="middle" x="209.25" y="-5.75" font-family="Helvetica,sans-Serif" font-size="10.00">AutoStep::update</text>
</a>
</g>
</g>
<!-- Node1&#45;&gt;Node5 -->
<g id="edge4_Node000001_Node000005" class="edge">
<title>Node1&#45;&gt;Node5</title>
<g id="a_edge4_Node000001_Node000005"><a xlink:title=" ">
<path fill="none" stroke="#63b8ff" d="M85.09,-54.55C104.05,-46.92 130.94,-36.29 154.75,-27.62 158.61,-26.22 162.65,-24.79 166.7,-23.38"/>
<polygon fill="#63b8ff" stroke="#63b8ff" points="167.56,-26.78 175.89,-20.23 165.3,-20.16 167.56,-26.78"/>
</a>
</g>
</g>
</g>
</svg>
