<?xml version="1.0" encoding="UTF-8" standalone="no"?>
<!DOCTYPE svg PUBLIC "-//W3C//DTD SVG 1.1//EN"
 "http://www.w3.org/Graphics/SVG/1.1/DTD/svg11.dtd">
<!-- Generated by graphviz version 14.1.2 (20260124.0452)
 -->
<!-- Title: DriveArcInnerWheel Pages: 1 -->
<svg width="590pt" height="388pt"
 viewBox="0.00 0.00 590.00 388.00" xmlns="http://www.w3.org/2000/svg" xmlns:xlink="http://www.w3.org/1999/xlink">
<g id="graph0" class="graph" transform="scale(1 1) rotate(0) translate(4 383.75)">
<title>DriveArcInnerWheel</title>
<!-- Node1 -->
<g id="Node000001" class="node">
<title>Node1</title>
<g id="a_Node000001"><a xlink:title=" ">
<polygon fill="#999999" stroke="#666666" points="285.62,-19.25 181.88,-19.25 181.88,0 285.62,0 285.62,-19.25"/>
<text xml:space="preserve" text-anchor="middle" x="233.75" y="-5.75" font-family="Helvetica,sans-Serif" font-size="10.00">DriveArcInnerWheel</text>
</a>
</g>
</g>
<!-- Node2 -->
<g id="Node000002" class="node">
<title>Node2</title>
<g id="a_Node000002"><a xlink:href="class_drive_radius_at_velocity.html" target="_top" xlink:title=" ">
<polygon fill="white" stroke="#666666" points="244.25,-75.5 129.25,-75.5 129.25,-56.25 244.25,-56.25 244.25,-75.5"/>
<text xml:space="preserve" text-anchor="middle" x="186.75" y="-62" font-family="Helvetica,sans-Serif" font-size="10.00">DriveRadiusAtVelocity</text>
</a>
</g>
</g>
<!-- Node2&#45;&gt;Node1 -->
<g id="edge1_Node000001_Node000002" class="edge">
<title>Node2&#45;&gt;Node1</title>
<g id="a_edge1_Node000001_Node000002"><a xlink:title=" ">
<path fill="none" stroke="#63b8ff" d="M201.92,-47.36C210.01,-38.03 219.61,-26.95 226.13,-19.42"/>
<polygon fill="#63b8ff" stroke="#63b8ff" points="199.4,-44.92 195.5,-54.77 204.7,-49.51 199.4,-44.92"/>
</a>
</g>
</g>
<!-- Node3 -->
<g id="Node000003" class="node">
<title>Node3</title>
<g id="a_Node000003"><a xlink:href="class_auto_step.html" target="_top" xlink:title=" ">
<polygon fill="white" stroke="#666666" points="215,-148 158.5,-148 158.5,-128.75 215,-128.75 215,-148"/>
<text xml:space="preserve" text-anchor="middle" x="186.75" y="-134.5" font-family="Helvetica,sans-Serif" font-size="10.00">AutoStep</text>
</a>
</g>
</g>
<!-- Node3&#45;&gt;Node2 -->
<g id="edge2_Node000002_Node000003" class="edge">
<title>Node3&#45;&gt;Node2</title>
<g id="a_edge2_Node000002_Node000003"><a xlink:title=" ">
<path fill="none" stroke="#63b8ff" d="M186.75,-117.3C186.75,-103.69 186.75,-86.35 186.75,-75.95"/>
<polygon fill="#63b8ff" stroke="#63b8ff" points="183.25,-116.93 186.75,-126.93 190.25,-116.93 183.25,-116.93"/>
</a>
</g>
</g>
<!-- Node4 -->
<g id="Node000004" class="node">
<title>Node4</title>
<g id="a_Node000004"><a xlink:href="class_drive.html" target="_top" xlink:title=" ">
<polygon fill="white" stroke="#666666" points="286.38,-148 247.12,-148 247.12,-128.75 286.38,-128.75 286.38,-148"/>
<text xml:space="preserve" text-anchor="middle" x="266.75" y="-134.5" font-family="Helvetica,sans-Serif" font-size="10.00">Drive</text>
</a>
</g>
</g>
<!-- Node4&#45;&gt;Node1 -->
<g id="edge14_Node000001_Node000004" class="edge">
<title>Node4&#45;&gt;Node1</title>
<g id="a_edge14_Node000001_Node000004"><a xlink:title=" ">
<path fill="none" stroke="#9a32cd" stroke-dasharray="5,2" d="M268.16,-117.27C268.31,-109.77 268.05,-101.2 266.75,-93.5 261.94,-65.1 246.7,-34.22 238.72,-19.46"/>
<polygon fill="#9a32cd" stroke="#9a32cd" points="264.67,-116.89 267.68,-127.05 271.66,-117.23 264.67,-116.89"/>
</a>
</g>
<text xml:space="preserve" text-anchor="start" x="265.4" y="-62" font-family="Helvetica,sans-Serif" font-size="10.00" fill="grey">_drive</text>
</g>
<!-- Node4&#45;&gt;Node2 -->
<g id="edge3_Node000002_Node000004" class="edge">
<title>Node4&#45;&gt;Node2</title>
<g id="a_edge3_Node000002_Node000004"><a xlink:title=" ">
<path fill="none" stroke="#9a32cd" stroke-dasharray="5,2" d="M246.97,-121.33C242.82,-117.88 238.49,-114.22 234.5,-110.75 220.92,-98.92 205.66,-84.74 196.13,-75.77"/>
<polygon fill="#9a32cd" stroke="#9a32cd" points="244.47,-123.8 254.41,-127.44 248.91,-118.39 244.47,-123.8"/>
</a>
</g>
<text xml:space="preserve" text-anchor="start" x="237.5" y="-98.25" font-family="Helvetica,sans-Serif" font-size="10.00" fill="grey">_drive</text>
</g>
<!-- Node5 -->
<g id="Node000005" class="node">
<title>Node5</title>
<g id="a_Node000005"><a xlink:href="class_subsystem.html" target="_top" xlink:title=" ">
<polygon fill="white" stroke="#666666" points="65.5,-235.75 0,-235.75 0,-216.5 65.5,-216.5 65.5,-235.75"/>
<text xml:space="preserve" text-anchor="middle" x="32.75" y="-222.25" font-family="Helvetica,sans-Serif" font-size="10.00">Subsystem</text>
</a>
</g>
</g>
<!-- Node5&#45;&gt;Node4 -->
<g id="edge4_Node000004_Node000005" class="edge">
<title>Node5&#45;&gt;Node4</title>
<g id="a_edge4_Node000004_Node000005"><a xlink:title=" ">
<path fill="none" stroke="#63b8ff" d="M53.39,-209.5C72.29,-195.97 101.52,-176.89 129.75,-166 169.43,-150.69 182.01,-156.18 223.75,-148 231.22,-146.54 239.42,-144.9 246.63,-143.45"/>
<polygon fill="#63b8ff" stroke="#63b8ff" points="51.49,-206.56 45.49,-215.29 55.63,-212.2 51.49,-206.56"/>
</a>
</g>
</g>
<!-- Node6 -->
<g id="Node000006" class="node">
<title>Node6</title>
<g id="a_Node000006"><a xlink:href="class_encoder_wrapper.html" target="_top" xlink:title=" ">
<polygon fill="white" stroke="#666666" points="171.75,-235.75 83.75,-235.75 83.75,-216.5 171.75,-216.5 171.75,-235.75"/>
<text xml:space="preserve" text-anchor="middle" x="127.75" y="-222.25" font-family="Helvetica,sans-Serif" font-size="10.00">EncoderWrapper</text>
</a>
</g>
</g>
<!-- Node6&#45;&gt;Node4 -->
<g id="edge5_Node000004_Node000006" class="edge">
<title>Node6&#45;&gt;Node4</title>
<g id="a_edge5_Node000004_Node000006"><a xlink:title=" ">
<path fill="none" stroke="#9a32cd" stroke-dasharray="5,2" d="M131.65,-205.31C135.24,-192.29 141.86,-175.89 153.75,-166 157.35,-163 215.37,-150.31 246.83,-143.59"/>
<polygon fill="#9a32cd" stroke="#9a32cd" points="128.26,-204.43 129.42,-214.96 135.08,-206 128.26,-204.43"/>
</a>
</g>
<text xml:space="preserve" text-anchor="start" x="156.75" y="-186" font-family="Helvetica,sans-Serif" font-size="10.00" fill="grey">_leftEncoder</text>
<text xml:space="preserve" text-anchor="start" x="156.75" y="-170.75" font-family="Helvetica,sans-Serif" font-size="10.00" fill="grey">_rightEncoder</text>
</g>
<!-- Node7 -->
<g id="Node000007" class="node">
<title>Node7</title>
<g id="a_Node000007"><a xlink:href="class_line_sensor.html" target="_top" xlink:title=" ">
<polygon fill="white" stroke="#666666" points="254.12,-235.75 189.38,-235.75 189.38,-216.5 254.12,-216.5 254.12,-235.75"/>
<text xml:space="preserve" text-anchor="middle" x="221.75" y="-222.25" font-family="Helvetica,sans-Serif" font-size="10.00">LineSensor</text>
</a>
</g>
</g>
<!-- Node7&#45;&gt;Node4 -->
<g id="edge6_Node000004_Node000007" class="edge">
<title>Node7&#45;&gt;Node4</title>
<g id="a_edge6_Node000004_Node000007"><a xlink:title=" ">
<path fill="none" stroke="#9a32cd" stroke-dasharray="5,2" d="M222.45,-204.88C223.67,-192.85 226.64,-177.69 233.75,-166 238.03,-158.95 244.88,-152.98 251.24,-148.48"/>
<polygon fill="#9a32cd" stroke="#9a32cd" points="218.98,-204.31 221.83,-214.52 225.97,-204.76 218.98,-204.31"/>
</a>
</g>
<text xml:space="preserve" text-anchor="start" x="236.75" y="-178.38" font-family="Helvetica,sans-Serif" font-size="10.00" fill="grey">_lineSensor</text>
</g>
<!-- Node8 -->
<g id="Node000008" class="node">
<title>Node8</title>
<g id="a_Node000008"><a xlink:href="class_dual_motor_controller.html" target="_top" xlink:title=" ">
<polygon fill="white" stroke="#666666" points="375.25,-235.75 272.25,-235.75 272.25,-216.5 375.25,-216.5 375.25,-235.75"/>
<text xml:space="preserve" text-anchor="middle" x="323.75" y="-222.25" font-family="Helvetica,sans-Serif" font-size="10.00">DualMotorController</text>
</a>
</g>
</g>
<!-- Node8&#45;&gt;Node4 -->
<g id="edge7_Node000004_Node000008" class="edge">
<title>Node8&#45;&gt;Node4</title>
<g id="a_edge7_Node000004_Node000008"><a xlink:title=" ">
<path fill="none" stroke="#9a32cd" stroke-dasharray="5,2" d="M314.57,-206.2C308.45,-194.26 299.88,-178.75 290.75,-166 286.26,-159.73 280.49,-153.28 275.73,-148.31"/>
<polygon fill="#9a32cd" stroke="#9a32cd" points="311.36,-207.6 318.95,-214.99 317.62,-204.47 311.36,-207.6"/>
</a>
</g>
<text xml:space="preserve" text-anchor="start" x="312.93" y="-178.38" font-family="Helvetica,sans-Serif" font-size="10.00" fill="grey">_motorController</text>
</g>
<!-- Node9 -->
<g id="Node000009" class="node">
<title>Node9</title>
<g id="a_Node000009"><a xlink:href="class_l298_n_motor_driver_mega.html" target="_top" xlink:title=" ">
<polygon fill="white" stroke="#666666" points="329.5,-323.5 210,-323.5 210,-304.25 329.5,-304.25 329.5,-323.5"/>
<text xml:space="preserve" text-anchor="middle" x="269.75" y="-310" font-family="Helvetica,sans-Serif" font-size="10.00">L298NMotorDriverMega</text>
</a>
</g>
</g>
<!-- Node9&#45;&gt;Node8 -->
<g id="edge8_Node000008_Node000009" class="edge">
<title>Node9&#45;&gt;Node8</title>
<g id="a_edge8_Node000008_Node000009"><a xlink:title=" ">
<path fill="none" stroke="#9a32cd" stroke-dasharray="5,2" d="M274.35,-292.61C277.75,-280.56 283.24,-265.41 291.5,-253.75 296.37,-246.88 303.45,-240.77 309.73,-236.14"/>
<polygon fill="#9a32cd" stroke="#9a32cd" points="270.95,-291.74 271.9,-302.3 277.74,-293.45 270.95,-291.74"/>
</a>
</g>
<text xml:space="preserve" text-anchor="start" x="294.5" y="-266.12" font-family="Helvetica,sans-Serif" font-size="10.00" fill="grey">dualDriver</text>
</g>
<!-- Node10 -->
<g id="Node000010" class="node">
<title>Node10</title>
<g id="a_Node000010"><a xlink:href="class_p_i_d_controller.html" target="_top" xlink:title=" ">
<polygon fill="white" stroke="#666666" points="422.38,-323.5 347.12,-323.5 347.12,-304.25 422.38,-304.25 422.38,-323.5"/>
<text xml:space="preserve" text-anchor="middle" x="384.75" y="-310" font-family="Helvetica,sans-Serif" font-size="10.00">PIDController</text>
</a>
</g>
</g>
<!-- Node10&#45;&gt;Node8 -->
<g id="edge9_Node000008_Node000010" class="edge">
<title>Node10&#45;&gt;Node8</title>
<g id="a_edge9_Node000008_Node000010"><a xlink:title=" ">
<path fill="none" stroke="#9a32cd" stroke-dasharray="5,2" d="M371.93,-294.85C359.12,-276.84 339.96,-249.91 330.11,-236.06"/>
<polygon fill="#9a32cd" stroke="#9a32cd" points="368.93,-296.67 377.57,-302.79 374.63,-292.61 368.93,-296.67"/>
</a>
</g>
<text xml:space="preserve" text-anchor="start" x="368.02" y="-273.75" font-family="Helvetica,sans-Serif" font-size="10.00" fill="grey">_pid1</text>
<text xml:space="preserve" text-anchor="start" x="368.02" y="-258.5" font-family="Helvetica,sans-Serif" font-size="10.00" fill="grey">_pid2</text>
</g>
<!-- Node11 -->
<g id="Node000011" class="node">
<title>Node11</title>
<g id="a_Node000011"><a xlink:href="class_p_i_d.html" target="_top" xlink:title=" ">
<polygon fill="white" stroke="#666666" points="401.38,-379.75 368.12,-379.75 368.12,-360.5 401.38,-360.5 401.38,-379.75"/>
<text xml:space="preserve" text-anchor="middle" x="384.75" y="-366.25" font-family="Helvetica,sans-Serif" font-size="10.00">PID</text>
</a>
</g>
</g>
<!-- Node11&#45;&gt;Node10 -->
<g id="edge10_Node000010_Node000011" class="edge">
<title>Node11&#45;&gt;Node10</title>
<g id="a_edge10_Node000010_Node000011"><a xlink:title=" ">
<path fill="none" stroke="#63b8ff" d="M384.75,-348.94C384.75,-340.23 384.75,-330.49 384.75,-323.67"/>
<polygon fill="#63b8ff" stroke="#63b8ff" points="381.25,-348.65 384.75,-358.65 388.25,-348.65 381.25,-348.65"/>
</a>
</g>
</g>
<!-- Node12 -->
<g id="Node000012" class="node">
<title>Node12</title>
<g id="a_Node000012"><a xlink:href="class_sharp_g_p2_y0_a51.html" target="_top" xlink:title=" ">
<polygon fill="white" stroke="#666666" points="483.88,-235.75 393.62,-235.75 393.62,-216.5 483.88,-216.5 483.88,-235.75"/>
<text xml:space="preserve" text-anchor="middle" x="438.75" y="-222.25" font-family="Helvetica,sans-Serif" font-size="10.00">SharpGP2Y0A51</text>
</a>
</g>
</g>
<!-- Node12&#45;&gt;Node4 -->
<g id="edge11_Node000004_Node000012" class="edge">
<title>Node12&#45;&gt;Node4</title>
<g id="a_edge11_Node000004_Node000012"><a xlink:title=" ">
<path fill="none" stroke="#9a32cd" stroke-dasharray="5,2" d="M428.78,-206.68C420.6,-193.31 407.76,-175.92 391.75,-166 358.74,-145.56 312.45,-140.62 286.46,-139.54"/>
<polygon fill="#9a32cd" stroke="#9a32cd" points="425.55,-208.07 433.57,-215 431.62,-204.58 425.55,-208.07"/>
</a>
</g>
<text xml:space="preserve" text-anchor="start" x="425.85" y="-178.38" font-family="Helvetica,sans-Serif" font-size="10.00" fill="grey">_distSensor</text>
</g>
<!-- Node13 -->
<g id="Node000013" class="node">
<title>Node13</title>
<g id="a_Node000013"><a xlink:href="class_odometry.html" target="_top" xlink:title=" ">
<polygon fill="white" stroke="#666666" points="561.12,-235.75 502.38,-235.75 502.38,-216.5 561.12,-216.5 561.12,-235.75"/>
<text xml:space="preserve" text-anchor="middle" x="531.75" y="-222.25" font-family="Helvetica,sans-Serif" font-size="10.00">Odometry</text>
</a>
</g>
</g>
<!-- Node13&#45;&gt;Node4 -->
<g id="edge12_Node000004_Node000013" class="edge">
<title>Node13&#45;&gt;Node4</title>
<g id="a_edge12_Node000004_Node000013"><a xlink:title=" ">
<path fill="none" stroke="#9a32cd" stroke-dasharray="5,2" d="M522.03,-206.26C513.97,-192.68 501.18,-175.2 484.75,-166 450.98,-147.1 333.69,-141.43 286.57,-139.9"/>
<polygon fill="#9a32cd" stroke="#9a32cd" points="518.82,-207.7 526.73,-214.76 524.95,-204.31 518.82,-207.7"/>
</a>
</g>
<text xml:space="preserve" text-anchor="start" x="519.17" y="-178.38" font-family="Helvetica,sans-Serif" font-size="10.00" fill="grey">_odometry</text>
</g>
<!-- Node14 -->
<g id="Node000014" class="node">
<title>Node14</title>
<g id="a_Node000014"><a xlink:href="struct_odometry_1_1_pose2_d.html" target="_top" xlink:title=" ">
<polygon fill="white" stroke="#666666" points="581.75,-323.5 481.75,-323.5 481.75,-304.25 581.75,-304.25 581.75,-323.5"/>
<text xml:space="preserve" text-anchor="middle" x="531.75" y="-310" font-family="Helvetica,sans-Serif" font-size="10.00">Odometry::Pose2D</text>
</a>
</g>
</g>
<!-- Node14&#45;&gt;Node13 -->
<g id="edge13_Node000013_Node000014" class="edge">
<title>Node14&#45;&gt;Node13</title>
<g id="a_edge13_Node000013_Node000014"><a xlink:title=" ">
<path fill="none" stroke="#9a32cd" stroke-dasharray="5,2" d="M531.75,-292.54C531.75,-274.61 531.75,-249.33 531.75,-236.06"/>
<polygon fill="#9a32cd" stroke="#9a32cd" points="528.25,-292.51 531.75,-302.51 535.25,-292.51 528.25,-292.51"/>
</a>
</g>
<text xml:space="preserve" text-anchor="start" x="534.75" y="-266.12" font-family="Helvetica,sans-Serif" font-size="10.00" fill="grey">_pose</text>
</g>
</g>
</svg>
