<?xml version="1.0" encoding="UTF-8" standalone="no"?>
<!DOCTYPE svg PUBLIC "-//W3C//DTD SVG 1.1//EN"
 "http://www.w3.org/Graphics/SVG/1.1/DTD/svg11.dtd">
<!-- Generated by graphviz version 14.1.2 (20260124.0452)
 -->
<!-- Title: MotorController Pages: 1 -->
<svg width="91pt" height="156pt"
 viewBox="0.00 0.00 91.00 156.00" xmlns="http://www.w3.org/2000/svg" xmlns:xlink="http://www.w3.org/1999/xlink">
<g id="graph0" class="graph" transform="scale(1 1) rotate(0) translate(4 152)">
<title>MotorController</title>
<!-- Node1 -->
<g id="Node000001" class="node">
<title>Node1</title>
<g id="a_Node000001"><a xlink:title="Single&#45;channel closed&#45;loop motor controller.">
<polygon fill="#999999" stroke="#666666" points="82.75,-19.25 0,-19.25 0,0 82.75,0 82.75,-19.25"/>
<text xml:space="preserve" text-anchor="middle" x="41.38" y="-5.75" font-family="Helvetica,sans-Serif" font-size="10.00">MotorController</text>
</a>
</g>
</g>
<!-- Node2 -->
<g id="Node000002" class="node">
<title>Node2</title>
<g id="a_Node000002"><a xlink:href="class_p_i_d_controller.html" target="_top" xlink:title="Full&#45;featured PID controller with anti&#45;windup, output filtering, and optional nonlinear extensions.">
<polygon fill="white" stroke="#666666" points="79,-91.75 3.75,-91.75 3.75,-72.5 79,-72.5 79,-91.75"/>
<text xml:space="preserve" text-anchor="middle" x="41.38" y="-78.25" font-family="Helvetica,sans-Serif" font-size="10.00">PIDController</text>
</a>
</g>
</g>
<!-- Node2&#45;&gt;Node1 -->
<g id="edge1_Node000001_Node000002" class="edge">
<title>Node2&#45;&gt;Node1</title>
<g id="a_edge1_Node000001_Node000002"><a xlink:title=" ">
<path fill="none" stroke="#9a32cd" stroke-dasharray="5,2" d="M41.38,-61.05C41.38,-47.44 41.38,-30.1 41.38,-19.7"/>
<polygon fill="#9a32cd" stroke="#9a32cd" points="37.88,-60.68 41.38,-70.68 44.88,-60.68 37.88,-60.68"/>
</a>
</g>
<text xml:space="preserve" text-anchor="start" x="44.38" y="-42" font-family="Helvetica,sans-Serif" font-size="10.00" fill="grey">_pid</text>
</g>
<!-- Node3 -->
<g id="Node000003" class="node">
<title>Node3</title>
<g id="a_Node000003"><a xlink:href="class_p_i_d.html" target="_top" xlink:title="Lightweight PID controller base class.">
<polygon fill="white" stroke="#666666" points="58,-148 24.75,-148 24.75,-128.75 58,-128.75 58,-148"/>
<text xml:space="preserve" text-anchor="middle" x="41.38" y="-134.5" font-family="Helvetica,sans-Serif" font-size="10.00">PID</text>
</a>
</g>
</g>
<!-- Node3&#45;&gt;Node2 -->
<g id="edge2_Node000002_Node000003" class="edge">
<title>Node3&#45;&gt;Node2</title>
<g id="a_edge2_Node000002_Node000003"><a xlink:title=" ">
<path fill="none" stroke="#63b8ff" d="M41.38,-117.19C41.38,-108.48 41.38,-98.74 41.38,-91.92"/>
<polygon fill="#63b8ff" stroke="#63b8ff" points="37.88,-116.9 41.38,-126.9 44.88,-116.9 37.88,-116.9"/>
</a>
</g>
</g>
</g>
</svg>
