<?xml version="1.0" encoding="UTF-8" standalone="no"?>
<!DOCTYPE svg PUBLIC "-//W3C//DTD SVG 1.1//EN"
 "http://www.w3.org/Graphics/SVG/1.1/DTD/svg11.dtd">
<!-- Generated by graphviz version 14.1.2 (20260124.0452)
 -->
<!-- Title: MineBlockAutofire Pages: 1 -->
<svg width="455pt" height="332pt"
 viewBox="0.00 0.00 455.00 332.00" xmlns="http://www.w3.org/2000/svg" xmlns:xlink="http://www.w3.org/1999/xlink">
<g id="graph0" class="graph" transform="scale(1 1) rotate(0) translate(4 327.5)">
<title>MineBlockAutofire</title>
<!-- Node1 -->
<g id="Node000001" class="node">
<title>Node1</title>
<g id="a_Node000001"><a xlink:title="Runs the miner and shooter autofire concurrently for desiredSeconds seconds.">
<polygon fill="#999999" stroke="#666666" points="276,-19.25 180.5,-19.25 180.5,0 276,0 276,-19.25"/>
<text xml:space="preserve" text-anchor="middle" x="228.25" y="-5.75" font-family="Helvetica,sans-Serif" font-size="10.00">MineBlockAutofire</text>
</a>
</g>
</g>
<!-- Node2 -->
<g id="Node000002" class="node">
<title>Node2</title>
<g id="a_Node000002"><a xlink:href="class_auto_step.html" target="_top" xlink:title="Pure&#45;virtual base class for all autonomous steps.">
<polygon fill="white" stroke="#666666" points="185.5,-91.75 129,-91.75 129,-72.5 185.5,-72.5 185.5,-91.75"/>
<text xml:space="preserve" text-anchor="middle" x="157.25" y="-78.25" font-family="Helvetica,sans-Serif" font-size="10.00">AutoStep</text>
</a>
</g>
</g>
<!-- Node2&#45;&gt;Node1 -->
<g id="edge1_Node000001_Node000002" class="edge">
<title>Node2&#45;&gt;Node1</title>
<g id="a_edge1_Node000001_Node000002"><a xlink:title=" ">
<path fill="none" stroke="#63b8ff" d="M174.19,-64.3C188.28,-50.32 207.79,-30.95 219.11,-19.7"/>
<polygon fill="#63b8ff" stroke="#63b8ff" points="171.95,-61.6 167.32,-71.13 176.88,-66.57 171.95,-61.6"/>
</a>
</g>
</g>
<!-- Node3 -->
<g id="Node000003" class="node">
<title>Node3</title>
<g id="a_Node000003"><a xlink:href="class_miner.html" target="_top" xlink:title="Servo&#45;driven block&#45;mining and ramp&#45;deployment subsystem.">
<polygon fill="white" stroke="#666666" points="343.25,-91.75 303.25,-91.75 303.25,-72.5 343.25,-72.5 343.25,-91.75"/>
<text xml:space="preserve" text-anchor="middle" x="323.25" y="-78.25" font-family="Helvetica,sans-Serif" font-size="10.00">Miner</text>
</a>
</g>
</g>
<!-- Node3&#45;&gt;Node1 -->
<g id="edge2_Node000001_Node000003" class="edge">
<title>Node3&#45;&gt;Node1</title>
<g id="a_edge2_Node000001_Node000003"><a xlink:title=" ">
<path fill="none" stroke="#9a32cd" stroke-dasharray="5,2" d="M304.77,-64.85C294.79,-56.31 282.11,-45.87 270.25,-37.25 261.59,-30.96 251.46,-24.51 243.33,-19.54"/>
<polygon fill="#9a32cd" stroke="#9a32cd" points="302.4,-67.43 312.25,-71.33 306.98,-62.14 302.4,-67.43"/>
</a>
</g>
<text xml:space="preserve" text-anchor="start" x="294.16" y="-42" font-family="Helvetica,sans-Serif" font-size="10.00" fill="grey">miner</text>
</g>
<!-- Node4 -->
<g id="Node000004" class="node">
<title>Node4</title>
<g id="a_Node000004"><a xlink:href="class_subsystem.html" target="_top" xlink:title="Polymorphic interface for a robot subsystem.">
<polygon fill="white" stroke="#666666" points="356,-179.5 290.5,-179.5 290.5,-160.25 356,-160.25 356,-179.5"/>
<text xml:space="preserve" text-anchor="middle" x="323.25" y="-166" font-family="Helvetica,sans-Serif" font-size="10.00">Subsystem</text>
</a>
</g>
</g>
<!-- Node4&#45;&gt;Node3 -->
<g id="edge3_Node000003_Node000004" class="edge">
<title>Node4&#45;&gt;Node3</title>
<g id="a_edge3_Node000003_Node000004"><a xlink:title=" ">
<path fill="none" stroke="#63b8ff" d="M323.25,-148.54C323.25,-130.61 323.25,-105.33 323.25,-92.06"/>
<polygon fill="#63b8ff" stroke="#63b8ff" points="319.75,-148.51 323.25,-158.51 326.75,-148.51 319.75,-148.51"/>
</a>
</g>
</g>
<!-- Node6 -->
<g id="Node000006" class="node">
<title>Node6</title>
<g id="a_Node000006"><a xlink:href="class_shooter.html" target="_top" xlink:title="Rack&#45;and&#45;pinion block shooter controlled by encoder feedback.">
<polygon fill="white" stroke="#666666" points="253.12,-91.75 203.38,-91.75 203.38,-72.5 253.12,-72.5 253.12,-91.75"/>
<text xml:space="preserve" text-anchor="middle" x="228.25" y="-78.25" font-family="Helvetica,sans-Serif" font-size="10.00">Shooter</text>
</a>
</g>
</g>
<!-- Node4&#45;&gt;Node6 -->
<g id="edge6_Node000006_Node000004" class="edge">
<title>Node4&#45;&gt;Node6</title>
<g id="a_edge6_Node000006_Node000004"><a xlink:title=" ">
<path fill="none" stroke="#63b8ff" d="M310.7,-151.06C301.32,-138.55 287.67,-121.94 273.25,-109.75 265.21,-102.95 255.21,-96.85 246.69,-92.21"/>
<polygon fill="#63b8ff" stroke="#63b8ff" points="307.64,-152.8 316.35,-158.83 313.3,-148.68 307.64,-152.8"/>
</a>
</g>
</g>
<!-- Node5 -->
<g id="Node000005" class="node">
<title>Node5</title>
<g id="a_Node000005"><a xlink:href="class_servo_control.html" target="_top" xlink:title="Servo driver with angle clamping, inversion, and deferred writes.">
<polygon fill="white" stroke="#666666" points="446.75,-179.5 373.75,-179.5 373.75,-160.25 446.75,-160.25 446.75,-179.5"/>
<text xml:space="preserve" text-anchor="middle" x="410.25" y="-166" font-family="Helvetica,sans-Serif" font-size="10.00">ServoControl</text>
</a>
</g>
</g>
<!-- Node5&#45;&gt;Node3 -->
<g id="edge4_Node000003_Node000005" class="edge">
<title>Node5&#45;&gt;Node3</title>
<g id="a_edge4_Node000003_Node000005"><a xlink:title=" ">
<path fill="none" stroke="#9a32cd" stroke-dasharray="5,2" d="M393.22,-152.09C374.97,-134.1 346.69,-106.23 332.31,-92.06"/>
<polygon fill="#9a32cd" stroke="#9a32cd" points="390.61,-154.43 400.19,-158.96 395.52,-149.45 390.61,-154.43"/>
</a>
</g>
<text xml:space="preserve" text-anchor="start" x="385.11" y="-129.75" font-family="Helvetica,sans-Serif" font-size="10.00" fill="grey">minerServo</text>
<text xml:space="preserve" text-anchor="start" x="385.11" y="-114.5" font-family="Helvetica,sans-Serif" font-size="10.00" fill="grey">rampServo</text>
</g>
<!-- Node6&#45;&gt;Node1 -->
<g id="edge5_Node000001_Node000006" class="edge">
<title>Node6&#45;&gt;Node1</title>
<g id="a_edge5_Node000001_Node000006"><a xlink:title=" ">
<path fill="none" stroke="#9a32cd" stroke-dasharray="5,2" d="M228.25,-61.05C228.25,-47.44 228.25,-30.1 228.25,-19.7"/>
<polygon fill="#9a32cd" stroke="#9a32cd" points="224.75,-60.68 228.25,-70.68 231.75,-60.68 224.75,-60.68"/>
</a>
</g>
<text xml:space="preserve" text-anchor="start" x="231.25" y="-42" font-family="Helvetica,sans-Serif" font-size="10.00" fill="grey">shooter</text>
</g>
<!-- Node7 -->
<g id="Node000007" class="node">
<title>Node7</title>
<g id="a_Node000007"><a xlink:href="class_button.html" target="_top" xlink:title="Digital button / limit&#45;switch driver.">
<polygon fill="white" stroke="#666666" points="44.5,-179.5 0,-179.5 0,-160.25 44.5,-160.25 44.5,-179.5"/>
<text xml:space="preserve" text-anchor="middle" x="22.25" y="-166" font-family="Helvetica,sans-Serif" font-size="10.00">Button</text>
</a>
</g>
</g>
<!-- Node7&#45;&gt;Node6 -->
<g id="edge7_Node000006_Node000007" class="edge">
<title>Node7&#45;&gt;Node6</title>
<g id="a_edge7_Node000006_Node000007"><a xlink:title=" ">
<path fill="none" stroke="#9a32cd" stroke-dasharray="5,2" d="M35.88,-150.99C47.27,-137.41 64.75,-119.46 84.25,-109.75 128.6,-87.67 145.75,-101.85 194.25,-91.75 197.11,-91.15 200.1,-90.48 203.06,-89.77"/>
<polygon fill="#9a32cd" stroke="#9a32cd" points="33.19,-148.76 29.67,-158.75 38.65,-153.13 33.19,-148.76"/>
</a>
</g>
<text xml:space="preserve" text-anchor="start" x="87.25" y="-122.12" font-family="Helvetica,sans-Serif" font-size="10.00" fill="grey">block_switch</text>
</g>
<!-- Node8 -->
<g id="Node000008" class="node">
<title>Node8</title>
<g id="a_Node000008"><a xlink:href="class_dual_motor_controller.html" target="_top" xlink:title="Dual&#45;channel closed&#45;loop motor controller.">
<polygon fill="white" stroke="#666666" points="165.75,-179.5 62.75,-179.5 62.75,-160.25 165.75,-160.25 165.75,-179.5"/>
<text xml:space="preserve" text-anchor="middle" x="114.25" y="-166" font-family="Helvetica,sans-Serif" font-size="10.00">DualMotorController</text>
</a>
</g>
</g>
<!-- Node8&#45;&gt;Node6 -->
<g id="edge8_Node000006_Node000008" class="edge">
<title>Node8&#45;&gt;Node6</title>
<g id="a_edge8_Node000006_Node000008"><a xlink:title=" ">
<path fill="none" stroke="#9a32cd" stroke-dasharray="5,2" d="M134.96,-153.3C158.79,-135.38 197.1,-106.55 216.37,-92.06"/>
<polygon fill="#9a32cd" stroke="#9a32cd" points="133.12,-150.3 127.23,-159.11 137.33,-155.9 133.12,-150.3"/>
</a>
</g>
<text xml:space="preserve" text-anchor="start" x="194.38" y="-122.12" font-family="Helvetica,sans-Serif" font-size="10.00" fill="grey">motor</text>
</g>
<!-- Node9 -->
<g id="Node000009" class="node">
<title>Node9</title>
<g id="a_Node000009"><a xlink:href="class_l298_n_motor_driver_mega.html" target="_top" xlink:title=" ">
<polygon fill="white" stroke="#666666" points="127,-267.25 7.5,-267.25 7.5,-248 127,-248 127,-267.25"/>
<text xml:space="preserve" text-anchor="middle" x="67.25" y="-253.75" font-family="Helvetica,sans-Serif" font-size="10.00">L298NMotorDriverMega</text>
</a>
</g>
</g>
<!-- Node9&#45;&gt;Node8 -->
<g id="edge9_Node000008_Node000009" class="edge">
<title>Node9&#45;&gt;Node8</title>
<g id="a_edge9_Node000008_Node000009"><a xlink:title=" ">
<path fill="none" stroke="#9a32cd" stroke-dasharray="5,2" d="M72.37,-236.71C75.95,-224.78 81.46,-209.64 89,-197.5 93.03,-191.01 98.83,-184.75 103.86,-179.94"/>
<polygon fill="#9a32cd" stroke="#9a32cd" points="69.02,-235.67 69.72,-246.24 75.77,-237.54 69.02,-235.67"/>
</a>
</g>
<text xml:space="preserve" text-anchor="start" x="92" y="-209.88" font-family="Helvetica,sans-Serif" font-size="10.00" fill="grey">dualDriver</text>
</g>
<!-- Node10 -->
<g id="Node000010" class="node">
<title>Node10</title>
<g id="a_Node000010"><a xlink:href="class_p_i_d_controller.html" target="_top" xlink:title="Full&#45;featured PID controller with anti&#45;windup, output filtering, and optional nonlinear extensions.">
<polygon fill="white" stroke="#666666" points="219.88,-267.25 144.62,-267.25 144.62,-248 219.88,-248 219.88,-267.25"/>
<text xml:space="preserve" text-anchor="middle" x="182.25" y="-253.75" font-family="Helvetica,sans-Serif" font-size="10.00">PIDController</text>
</a>
</g>
</g>
<!-- Node10&#45;&gt;Node8 -->
<g id="edge10_Node000008_Node000010" class="edge">
<title>Node10&#45;&gt;Node8</title>
<g id="a_edge10_Node000008_Node000010"><a xlink:title=" ">
<path fill="none" stroke="#9a32cd" stroke-dasharray="5,2" d="M169.76,-238.22C161.46,-226.32 150.14,-210.66 139.25,-197.5 134.24,-191.44 128.21,-185.01 123.34,-179.98"/>
<polygon fill="#9a32cd" stroke="#9a32cd" points="166.77,-240.05 175.32,-246.3 172.53,-236.08 166.77,-240.05"/>
</a>
</g>
<text xml:space="preserve" text-anchor="start" x="166.34" y="-217.5" font-family="Helvetica,sans-Serif" font-size="10.00" fill="grey">_pid1</text>
<text xml:space="preserve" text-anchor="start" x="166.34" y="-202.25" font-family="Helvetica,sans-Serif" font-size="10.00" fill="grey">_pid2</text>
</g>
<!-- Node11 -->
<g id="Node000011" class="node">
<title>Node11</title>
<g id="a_Node000011"><a xlink:href="class_p_i_d.html" target="_top" xlink:title="Lightweight PID controller base class.">
<polygon fill="white" stroke="#666666" points="198.88,-323.5 165.62,-323.5 165.62,-304.25 198.88,-304.25 198.88,-323.5"/>
<text xml:space="preserve" text-anchor="middle" x="182.25" y="-310" font-family="Helvetica,sans-Serif" font-size="10.00">PID</text>
</a>
</g>
</g>
<!-- Node11&#45;&gt;Node10 -->
<g id="edge11_Node000010_Node000011" class="edge">
<title>Node11&#45;&gt;Node10</title>
<g id="a_edge11_Node000010_Node000011"><a xlink:title=" ">
<path fill="none" stroke="#63b8ff" d="M182.25,-292.69C182.25,-283.98 182.25,-274.24 182.25,-267.42"/>
<polygon fill="#63b8ff" stroke="#63b8ff" points="178.75,-292.4 182.25,-302.4 185.75,-292.4 178.75,-292.4"/>
</a>
</g>
</g>
<!-- Node12 -->
<g id="Node000012" class="node">
<title>Node12</title>
<g id="a_Node000012"><a xlink:href="class_encoder_wrapper.html" target="_top" xlink:title="Quadrature encoder driver with velocity and acceleration estimation.">
<polygon fill="white" stroke="#666666" points="272.25,-179.5 184.25,-179.5 184.25,-160.25 272.25,-160.25 272.25,-179.5"/>
<text xml:space="preserve" text-anchor="middle" x="228.25" y="-166" font-family="Helvetica,sans-Serif" font-size="10.00">EncoderWrapper</text>
</a>
</g>
</g>
<!-- Node12&#45;&gt;Node6 -->
<g id="edge12_Node000006_Node000012" class="edge">
<title>Node12&#45;&gt;Node6</title>
<g id="a_edge12_Node000006_Node000012"><a xlink:title=" ">
<path fill="none" stroke="#9a32cd" stroke-dasharray="5,2" d="M228.25,-148.54C228.25,-130.61 228.25,-105.33 228.25,-92.06"/>
<polygon fill="#9a32cd" stroke="#9a32cd" points="224.75,-148.51 228.25,-158.51 231.75,-148.51 224.75,-148.51"/>
</a>
</g>
<text xml:space="preserve" text-anchor="start" x="231.25" y="-122.12" font-family="Helvetica,sans-Serif" font-size="10.00" fill="grey">encoder</text>
</g>
</g>
</svg>
