<?xml version="1.0" encoding="UTF-8" standalone="no"?>
<!DOCTYPE svg PUBLIC "-//W3C//DTD SVG 1.1//EN"
 "http://www.w3.org/Graphics/SVG/1.1/DTD/svg11.dtd">
<!-- Generated by graphviz version 14.1.2 (20260124.0452)
 -->
<!-- Title: DriveArc Pages: 1 -->
<svg width="688pt" height="291pt"
 viewBox="0.00 0.00 688.00 291.00" xmlns="http://www.w3.org/2000/svg" xmlns:xlink="http://www.w3.org/1999/xlink">
<g id="graph0" class="graph" transform="scale(1 1) rotate(0) translate(4 287.25)">
<title>DriveArc</title>
<!-- Node1 -->
<g id="Node000001" class="node">
<title>Node1</title>
<g id="a_Node000001"><a xlink:title=" ">
<polygon fill="#999999" stroke="#666666" points="679.5,-174.25 625.25,-174.25 625.25,-155 679.5,-155 679.5,-174.25"/>
<text xml:space="preserve" text-anchor="middle" x="652.38" y="-160.75" font-family="Helvetica,sans-Serif" font-size="10.00">DriveArc</text>
</a>
</g>
</g>
<!-- Node2 -->
<g id="Node000002" class="node">
<title>Node2</title>
<g id="a_Node000002"><a xlink:href="class_auto_step.html" target="_top" xlink:title=" ">
<polygon fill="white" stroke="#666666" points="557,-192.25 500.5,-192.25 500.5,-173 557,-173 557,-192.25"/>
<text xml:space="preserve" text-anchor="middle" x="528.75" y="-178.75" font-family="Helvetica,sans-Serif" font-size="10.00">AutoStep</text>
</a>
</g>
</g>
<!-- Node2&#45;&gt;Node1 -->
<g id="edge1_Node000001_Node000002" class="edge">
<title>Node2&#45;&gt;Node1</title>
<g id="a_edge1_Node000001_Node000002"><a xlink:title=" ">
<path fill="none" stroke="#63b8ff" d="M568.65,-176.87C587.1,-174.14 608.65,-170.95 625.14,-168.51"/>
<polygon fill="#63b8ff" stroke="#63b8ff" points="568.23,-173.39 558.85,-178.32 569.25,-180.32 568.23,-173.39"/>
</a>
</g>
</g>
<!-- Node3 -->
<g id="Node000003" class="node">
<title>Node3</title>
<g id="a_Node000003"><a xlink:href="class_drive.html" target="_top" xlink:title=" ">
<polygon fill="white" stroke="#666666" points="548.38,-155.25 509.12,-155.25 509.12,-136 548.38,-136 548.38,-155.25"/>
<text xml:space="preserve" text-anchor="middle" x="528.75" y="-141.75" font-family="Helvetica,sans-Serif" font-size="10.00">Drive</text>
</a>
</g>
</g>
<!-- Node3&#45;&gt;Node1 -->
<g id="edge2_Node000001_Node000003" class="edge">
<title>Node3&#45;&gt;Node1</title>
<g id="a_edge2_Node000001_Node000003"><a xlink:title=" ">
<path fill="none" stroke="#9a32cd" stroke-dasharray="5,2" d="M560,-145.72C574.41,-146.21 591.83,-147.46 607.25,-150.38 613.1,-151.48 619.26,-153.14 625.05,-154.94"/>
<polygon fill="#9a32cd" stroke="#9a32cd" points="560.3,-142.23 550.22,-145.5 560.14,-149.23 560.3,-142.23"/>
</a>
</g>
<text xml:space="preserve" text-anchor="start" x="578" y="-155.12" font-family="Helvetica,sans-Serif" font-size="10.00" fill="grey">_drive</text>
</g>
<!-- Node4 -->
<g id="Node000004" class="node">
<title>Node4</title>
<g id="a_Node000004"><a xlink:href="class_subsystem.html" target="_top" xlink:title=" ">
<polygon fill="white" stroke="#666666" points="360.25,-283.25 294.75,-283.25 294.75,-264 360.25,-264 360.25,-283.25"/>
<text xml:space="preserve" text-anchor="middle" x="327.5" y="-269.75" font-family="Helvetica,sans-Serif" font-size="10.00">Subsystem</text>
</a>
</g>
</g>
<!-- Node4&#45;&gt;Node3 -->
<g id="edge3_Node000003_Node000004" class="edge">
<title>Node4&#45;&gt;Node3</title>
<g id="a_edge3_Node000003_Node000004"><a xlink:title=" ">
<path fill="none" stroke="#63b8ff" d="M371.8,-281.49C406.18,-285.08 453.18,-283.65 482.5,-256.62 513.45,-228.09 477.11,-198.63 500.5,-163.62 502.64,-160.42 505.57,-157.65 508.71,-155.3"/>
<polygon fill="#63b8ff" stroke="#63b8ff" points="372.53,-278.05 362.18,-280.3 371.67,-285 372.53,-278.05"/>
</a>
</g>
</g>
<!-- Node5 -->
<g id="Node000005" class="node">
<title>Node5</title>
<g id="a_Node000005"><a xlink:href="class_encoder_wrapper.html" target="_top" xlink:title=" ">
<polygon fill="white" stroke="#666666" points="371.5,-235.25 283.5,-235.25 283.5,-216 371.5,-216 371.5,-235.25"/>
<text xml:space="preserve" text-anchor="middle" x="327.5" y="-221.75" font-family="Helvetica,sans-Serif" font-size="10.00">EncoderWrapper</text>
</a>
</g>
</g>
<!-- Node5&#45;&gt;Node3 -->
<g id="edge4_Node000003_Node000005" class="edge">
<title>Node5&#45;&gt;Node3</title>
<g id="a_edge4_Node000003_Node000005"><a xlink:title=" ">
<path fill="none" stroke="#9a32cd" stroke-dasharray="5,2" d="M383.15,-222.05C420.9,-218.6 466.99,-212.16 482.5,-200.62 497.17,-189.71 488.44,-177.37 500.5,-163.62 503.12,-160.64 506.34,-157.94 509.64,-155.6"/>
<polygon fill="#9a32cd" stroke="#9a32cd" points="382.92,-218.56 373.26,-222.89 383.52,-225.53 382.92,-218.56"/>
</a>
</g>
<text xml:space="preserve" text-anchor="start" x="409.75" y="-240.43" font-family="Helvetica,sans-Serif" font-size="10.00" fill="grey">_leftEncoder</text>
<text xml:space="preserve" text-anchor="start" x="409.75" y="-225.18" font-family="Helvetica,sans-Serif" font-size="10.00" fill="grey">_rightEncoder</text>
</g>
<!-- Node6 -->
<g id="Node000006" class="node">
<title>Node6</title>
<g id="a_Node000006"><a xlink:href="class_line_sensor.html" target="_top" xlink:title=" ">
<polygon fill="white" stroke="#666666" points="359.88,-195.25 295.12,-195.25 295.12,-176 359.88,-176 359.88,-195.25"/>
<text xml:space="preserve" text-anchor="middle" x="327.5" y="-181.75" font-family="Helvetica,sans-Serif" font-size="10.00">LineSensor</text>
</a>
</g>
</g>
<!-- Node6&#45;&gt;Node3 -->
<g id="edge5_Node000003_Node000006" class="edge">
<title>Node6&#45;&gt;Node3</title>
<g id="a_edge5_Node000003_Node000006"><a xlink:title=" ">
<path fill="none" stroke="#9a32cd" stroke-dasharray="5,2" d="M371.54,-182.23C402.73,-179.1 445.7,-173.42 482.5,-163.62 491.32,-161.28 500.76,-157.7 508.71,-154.36"/>
<polygon fill="#9a32cd" stroke="#9a32cd" points="371.33,-178.73 361.71,-183.16 371.99,-185.7 371.33,-178.73"/>
</a>
</g>
<text xml:space="preserve" text-anchor="start" x="414.25" y="-183.8" font-family="Helvetica,sans-Serif" font-size="10.00" fill="grey">_lineSensor</text>
</g>
<!-- Node7 -->
<g id="Node000007" class="node">
<title>Node7</title>
<g id="a_Node000007"><a xlink:href="class_dual_motor_controller.html" target="_top" xlink:title=" ">
<polygon fill="white" stroke="#666666" points="379,-155.25 276,-155.25 276,-136 379,-136 379,-155.25"/>
<text xml:space="preserve" text-anchor="middle" x="327.5" y="-141.75" font-family="Helvetica,sans-Serif" font-size="10.00">DualMotorController</text>
</a>
</g>
</g>
<!-- Node7&#45;&gt;Node3 -->
<g id="edge6_Node000003_Node000007" class="edge">
<title>Node7&#45;&gt;Node3</title>
<g id="a_edge6_Node000003_Node000007"><a xlink:title=" ">
<path fill="none" stroke="#9a32cd" stroke-dasharray="5,2" d="M390.75,-145.62C431.42,-145.62 481.81,-145.62 508.71,-145.62"/>
<polygon fill="#9a32cd" stroke="#9a32cd" points="390.81,-142.13 380.81,-145.63 390.81,-149.13 390.81,-142.13"/>
</a>
</g>
<text xml:space="preserve" text-anchor="start" x="403.75" y="-150.38" font-family="Helvetica,sans-Serif" font-size="10.00" fill="grey">_motorController</text>
</g>
<!-- Node8 -->
<g id="Node000008" class="node">
<title>Node8</title>
<g id="a_Node000008"><a xlink:href="class_l298_n_motor_driver_mega.html" target="_top" xlink:title=" ">
<polygon fill="white" stroke="#666666" points="189.75,-183.25 70.25,-183.25 70.25,-164 189.75,-164 189.75,-183.25"/>
<text xml:space="preserve" text-anchor="middle" x="130" y="-169.75" font-family="Helvetica,sans-Serif" font-size="10.00">L298NMotorDriverMega</text>
</a>
</g>
</g>
<!-- Node8&#45;&gt;Node7 -->
<g id="edge7_Node000007_Node000008" class="edge">
<title>Node8&#45;&gt;Node7</title>
<g id="a_edge7_Node000007_Node000008"><a xlink:title=" ">
<path fill="none" stroke="#9a32cd" stroke-dasharray="5,2" d="M201.3,-163.56C225.92,-160.03 253.07,-156.14 275.77,-152.89"/>
<polygon fill="#9a32cd" stroke="#9a32cd" points="201.09,-160.05 191.69,-164.93 202.08,-166.98 201.09,-160.05"/>
</a>
</g>
<text xml:space="preserve" text-anchor="start" x="210.75" y="-166.88" font-family="Helvetica,sans-Serif" font-size="10.00" fill="grey">dualDriver</text>
</g>
<!-- Node9 -->
<g id="Node000009" class="node">
<title>Node9</title>
<g id="a_Node000009"><a xlink:href="class_p_i_d_controller.html" target="_top" xlink:title=" ">
<polygon fill="white" stroke="#666666" points="167.62,-127.25 92.38,-127.25 92.38,-108 167.62,-108 167.62,-127.25"/>
<text xml:space="preserve" text-anchor="middle" x="130" y="-113.75" font-family="Helvetica,sans-Serif" font-size="10.00">PIDController</text>
</a>
</g>
</g>
<!-- Node9&#45;&gt;Node7 -->
<g id="edge8_Node000007_Node000009" class="edge">
<title>Node9&#45;&gt;Node7</title>
<g id="a_edge8_Node000007_Node000009"><a xlink:title=" ">
<path fill="none" stroke="#9a32cd" stroke-dasharray="5,2" d="M179.29,-114.18C203.18,-113.49 232.32,-114.17 258,-119.12 266.89,-120.84 286.99,-128.8 303.14,-135.56"/>
<polygon fill="#9a32cd" stroke="#9a32cd" points="179.4,-110.67 169.54,-114.56 179.67,-117.67 179.4,-110.67"/>
</a>
</g>
<text xml:space="preserve" text-anchor="start" x="221.25" y="-139.12" font-family="Helvetica,sans-Serif" font-size="10.00" fill="grey">_pid1</text>
<text xml:space="preserve" text-anchor="start" x="221.25" y="-123.88" font-family="Helvetica,sans-Serif" font-size="10.00" fill="grey">_pid2</text>
</g>
<!-- Node10 -->
<g id="Node000010" class="node">
<title>Node10</title>
<g id="a_Node000010"><a xlink:href="class_p_i_d.html" target="_top" xlink:title=" ">
<polygon fill="white" stroke="#666666" points="33.25,-127.25 0,-127.25 0,-108 33.25,-108 33.25,-127.25"/>
<text xml:space="preserve" text-anchor="middle" x="16.62" y="-113.75" font-family="Helvetica,sans-Serif" font-size="10.00">PID</text>
</a>
</g>
</g>
<!-- Node10&#45;&gt;Node9 -->
<g id="edge9_Node000009_Node000010" class="edge">
<title>Node10&#45;&gt;Node9</title>
<g id="a_edge9_Node000009_Node000010"><a xlink:title=" ">
<path fill="none" stroke="#63b8ff" d="M45.01,-117.62C59.14,-117.62 76.58,-117.62 91.9,-117.62"/>
<polygon fill="#63b8ff" stroke="#63b8ff" points="45.1,-114.13 35.1,-117.63 45.1,-121.13 45.1,-114.13"/>
</a>
</g>
</g>
<!-- Node11 -->
<g id="Node000011" class="node">
<title>Node11</title>
<g id="a_Node000011"><a xlink:href="class_sharp_g_p2_y0_a51.html" target="_top" xlink:title=" ">
<polygon fill="white" stroke="#666666" points="372.62,-115.25 282.38,-115.25 282.38,-96 372.62,-96 372.62,-115.25"/>
<text xml:space="preserve" text-anchor="middle" x="327.5" y="-101.75" font-family="Helvetica,sans-Serif" font-size="10.00">SharpGP2Y0A51</text>
</a>
</g>
</g>
<!-- Node11&#45;&gt;Node3 -->
<g id="edge10_Node000003_Node000011" class="edge">
<title>Node11&#45;&gt;Node3</title>
<g id="a_edge10_Node000003_Node000011"><a xlink:title=" ">
<path fill="none" stroke="#9a32cd" stroke-dasharray="5,2" d="M384.44,-108.15C414.04,-110.55 450.74,-115.24 482.5,-124.38 491.84,-127.06 501.67,-131.47 509.77,-135.57"/>
<polygon fill="#9a32cd" stroke="#9a32cd" points="384.79,-104.67 374.56,-107.42 384.28,-111.65 384.79,-104.67"/>
</a>
</g>
<text xml:space="preserve" text-anchor="start" x="413.88" y="-129.12" font-family="Helvetica,sans-Serif" font-size="10.00" fill="grey">_distSensor</text>
</g>
<!-- Node12 -->
<g id="Node000012" class="node">
<title>Node12</title>
<g id="a_Node000012"><a xlink:href="class_odometry.html" target="_top" xlink:title=" ">
<polygon fill="white" stroke="#666666" points="356.88,-59.25 298.12,-59.25 298.12,-40 356.88,-40 356.88,-59.25"/>
<text xml:space="preserve" text-anchor="middle" x="327.5" y="-45.75" font-family="Helvetica,sans-Serif" font-size="10.00">Odometry</text>
</a>
</g>
</g>
<!-- Node12&#45;&gt;Node3 -->
<g id="edge11_Node000003_Node000012" class="edge">
<title>Node12&#45;&gt;Node3</title>
<g id="a_edge11_Node000003_Node000012"><a xlink:title=" ">
<path fill="none" stroke="#9a32cd" stroke-dasharray="5,2" d="M368.23,-46.91C401.39,-46.57 448.55,-50.78 482.5,-73.12 505.55,-88.3 518.99,-119.69 524.62,-135.73"/>
<polygon fill="#9a32cd" stroke="#9a32cd" points="368.55,-43.4 358.64,-47.15 368.73,-50.39 368.55,-43.4"/>
</a>
</g>
<text xml:space="preserve" text-anchor="start" x="400" y="-93.12" font-family="Helvetica,sans-Serif" font-size="10.00" fill="grey">_desiredOdometry</text>
<text xml:space="preserve" text-anchor="start" x="400" y="-77.88" font-family="Helvetica,sans-Serif" font-size="10.00" fill="grey">_odometry</text>
</g>
<!-- Node13 -->
<g id="Node000013" class="node">
<title>Node13</title>
<g id="a_Node000013"><a xlink:href="struct_odometry_1_1_pose2_d.html" target="_top" xlink:title=" ">
<polygon fill="white" stroke="#666666" points="180,-59.25 80,-59.25 80,-40 180,-40 180,-59.25"/>
<text xml:space="preserve" text-anchor="middle" x="130" y="-45.75" font-family="Helvetica,sans-Serif" font-size="10.00">Odometry::Pose2D</text>
</a>
</g>
</g>
<!-- Node13&#45;&gt;Node12 -->
<g id="edge12_Node000012_Node000013" class="edge">
<title>Node13&#45;&gt;Node12</title>
<g id="a_edge12_Node000012_Node000013"><a xlink:title=" ">
<path fill="none" stroke="#9a32cd" stroke-dasharray="5,2" d="M191.53,-49.62C226.93,-49.62 270,-49.62 297.81,-49.62"/>
<polygon fill="#9a32cd" stroke="#9a32cd" points="191.85,-46.13 181.85,-49.63 191.85,-53.13 191.85,-46.13"/>
</a>
</g>
<text xml:space="preserve" text-anchor="start" x="219.75" y="-54.38" font-family="Helvetica,sans-Serif" font-size="10.00" fill="grey">_pose</text>
</g>
<!-- Node14 -->
<g id="Node000014" class="node">
<title>Node14</title>
<g id="a_Node000014"><a xlink:href="class_ramsete_controller.html" target="_top" xlink:title=" ">
<polygon fill="white" stroke="#666666" points="376.38,-19.25 278.62,-19.25 278.62,0 376.38,0 376.38,-19.25"/>
<text xml:space="preserve" text-anchor="middle" x="327.5" y="-5.75" font-family="Helvetica,sans-Serif" font-size="10.00">RamseteController</text>
</a>
</g>
</g>
<!-- Node14&#45;&gt;Node3 -->
<g id="edge13_Node000003_Node000014" class="edge">
<title>Node14&#45;&gt;Node3</title>
<g id="a_edge13_Node000003_Node000014"><a xlink:title=" ">
<path fill="none" stroke="#9a32cd" stroke-dasharray="5,2" d="M387.88,-2.13C419.02,-1.39 456.07,-5.94 482.5,-26.38 517.88,-53.74 525.6,-112.17 527.28,-135.6"/>
<polygon fill="#9a32cd" stroke="#9a32cd" points="388.06,1.39 378.22,-2.55 388.37,-5.61 388.06,1.39"/>
</a>
</g>
<text xml:space="preserve" text-anchor="start" x="419.5" y="-31.12" font-family="Helvetica,sans-Serif" font-size="10.00" fill="grey">_ramsete</text>
</g>
</g>
</svg>
