<?xml version="1.0" encoding="UTF-8" standalone="no"?>
<!DOCTYPE svg PUBLIC "-//W3C//DTD SVG 1.1//EN"
 "http://www.w3.org/Graphics/SVG/1.1/DTD/svg11.dtd">
<!-- Generated by graphviz version 14.1.2 (20260124.0452)
 -->
<!-- Title: MotorController::update Pages: 1 -->
<svg width="611pt" height="143pt"
 viewBox="0.00 0.00 611.00 143.00" xmlns="http://www.w3.org/2000/svg" xmlns:xlink="http://www.w3.org/1999/xlink">
<g id="graph0" class="graph" transform="scale(1 1) rotate(0) translate(4 139.25)">
<title>MotorController::update</title>
<!-- Node1 -->
<g id="Node000001" class="node">
<title>Node1</title>
<g id="a_Node000001"><a xlink:title=" ">
<polygon fill="#999999" stroke="#666666" points="118,-98.25 0,-98.25 0,-79 118,-79 118,-98.25"/>
<text xml:space="preserve" text-anchor="middle" x="59" y="-84.75" font-family="Helvetica,sans-Serif" font-size="10.00">MotorController::update</text>
</a>
</g>
</g>
<!-- Node2 -->
<g id="Node000002" class="node">
<title>Node2</title>
<g id="a_Node000002"><a xlink:href="class_motor_controller.html#a7ef4e66c4c2471b59f9bffe13ef745f0" target="_top" xlink:title=" ">
<polygon fill="white" stroke="#666666" points="278.75,-135.25 159.25,-135.25 159.25,-116 278.75,-116 278.75,-135.25"/>
<text xml:space="preserve" text-anchor="middle" x="219" y="-121.75" font-family="Helvetica,sans-Serif" font-size="10.00">MotorController::disable</text>
</a>
</g>
</g>
<!-- Node1&#45;&gt;Node2 -->
<g id="edge1_Node000001_Node000002" class="edge">
<title>Node1&#45;&gt;Node2</title>
<g id="a_edge1_Node000001_Node000002"><a xlink:title=" ">
<path fill="none" stroke="#63b8ff" d="M103.17,-98.74C121.9,-103.12 144.03,-108.3 163.84,-112.94"/>
<polygon fill="#63b8ff" stroke="#63b8ff" points="162.87,-116.31 173.4,-115.18 164.47,-109.49 162.87,-116.31"/>
</a>
</g>
</g>
<!-- Node3 -->
<g id="Node000003" class="node">
<title>Node3</title>
<g id="a_Node000003"><a xlink:href="class_motor_controller.html#a0459ba5cfeaf049e91a97333a52c7bf3" target="_top" xlink:title=" ">
<polygon fill="white" stroke="#666666" points="282.12,-98.25 155.88,-98.25 155.88,-79 282.12,-79 282.12,-98.25"/>
<text xml:space="preserve" text-anchor="middle" x="219" y="-84.75" font-family="Helvetica,sans-Serif" font-size="10.00">MotorController::hasFault</text>
</a>
</g>
</g>
<!-- Node1&#45;&gt;Node3 -->
<g id="edge2_Node000001_Node000003" class="edge">
<title>Node1&#45;&gt;Node3</title>
<g id="a_edge2_Node000001_Node000003"><a xlink:title=" ">
<path fill="none" stroke="#63b8ff" d="M118.38,-88.62C126.82,-88.62 135.59,-88.62 144.28,-88.62"/>
<polygon fill="#63b8ff" stroke="#63b8ff" points="144.1,-92.13 154.1,-88.63 144.1,-85.13 144.1,-92.13"/>
</a>
</g>
</g>
<!-- Node4 -->
<g id="Node000004" class="node">
<title>Node4</title>
<g id="a_Node000004"><a xlink:href="class_motor_controller.html#ad6537e115b5e5e671339b13181bfc991" target="_top" xlink:title=" ">
<polygon fill="white" stroke="#666666" points="284,-61.25 154,-61.25 154,-42 284,-42 284,-61.25"/>
<text xml:space="preserve" text-anchor="middle" x="219" y="-47.75" font-family="Helvetica,sans-Serif" font-size="10.00">MotorController::setSpeed</text>
</a>
</g>
</g>
<!-- Node1&#45;&gt;Node4 -->
<g id="edge3_Node000001_Node000004" class="edge">
<title>Node1&#45;&gt;Node4</title>
<g id="a_edge3_Node000001_Node000004"><a xlink:title=" ">
<path fill="none" stroke="#63b8ff" d="M103.17,-78.51C121.9,-74.13 144.03,-68.95 163.84,-64.31"/>
<polygon fill="#63b8ff" stroke="#63b8ff" points="164.47,-67.76 173.4,-62.07 162.87,-60.94 164.47,-67.76"/>
</a>
</g>
</g>
<!-- Node5 -->
<g id="Node000005" class="node">
<title>Node5</title>
<g id="a_Node000005"><a xlink:href="class_motor_controller.html#ae7f7a697a2d194eba4cba3fa5a395e1f" target="_top" xlink:title=" ">
<polygon fill="white" stroke="#666666" points="450,-91.88 320,-91.88 320,-61.38 450,-61.38 450,-91.88"/>
<text xml:space="preserve" text-anchor="start" x="328" y="-78.38" font-family="Helvetica,sans-Serif" font-size="10.00">MotorController::setSpeed</text>
<text xml:space="preserve" text-anchor="middle" x="385" y="-67.12" font-family="Helvetica,sans-Serif" font-size="10.00">L298N</text>
</a>
</g>
</g>
<!-- Node4&#45;&gt;Node5 -->
<g id="edge4_Node000004_Node000005" class="edge">
<title>Node4&#45;&gt;Node5</title>
<g id="a_edge4_Node000004_Node000005"><a xlink:title=" ">
<path fill="none" stroke="#63b8ff" d="M284.35,-61.43C292.21,-62.63 300.31,-63.87 308.33,-65.09"/>
<polygon fill="#63b8ff" stroke="#63b8ff" points="307.66,-68.53 318.07,-66.58 308.72,-61.61 307.66,-68.53"/>
</a>
</g>
</g>
<!-- Node6 -->
<g id="Node000006" class="node">
<title>Node6</title>
<g id="a_Node000006"><a xlink:href="class_motor_controller.html#aca9d68ab9cb3b64e6b2b33ff93f79664" target="_top" xlink:title=" ">
<polygon fill="white" stroke="#666666" points="450,-42.88 320,-42.88 320,-12.37 450,-12.37 450,-42.88"/>
<text xml:space="preserve" text-anchor="start" x="328" y="-29.38" font-family="Helvetica,sans-Serif" font-size="10.00">MotorController::setSpeed</text>
<text xml:space="preserve" text-anchor="middle" x="385" y="-18.12" font-family="Helvetica,sans-Serif" font-size="10.00">TB9051</text>
</a>
</g>
</g>
<!-- Node4&#45;&gt;Node6 -->
<g id="edge5_Node000004_Node000006" class="edge">
<title>Node4&#45;&gt;Node6</title>
<g id="a_edge5_Node000004_Node000006"><a xlink:title=" ">
<path fill="none" stroke="#63b8ff" d="M284.35,-42.21C292.21,-41.06 300.31,-39.87 308.33,-38.7"/>
<polygon fill="#63b8ff" stroke="#63b8ff" points="308.68,-42.18 318.07,-37.27 307.67,-35.26 308.68,-42.18"/>
</a>
</g>
</g>
<!-- Node7 -->
<g id="Node000007" class="node">
<title>Node7</title>
<g id="a_Node000007"><a xlink:href="class_motor_controller.html#a28b151f09bca93a7c300868d2947667f" target="_top" xlink:title=" ">
<polygon fill="white" stroke="#666666" points="601,-56.25 488.25,-56.25 488.25,-37 601,-37 601,-56.25"/>
<text xml:space="preserve" text-anchor="middle" x="544.62" y="-42.75" font-family="Helvetica,sans-Serif" font-size="10.00">MotorController::coast</text>
</a>
</g>
</g>
<!-- Node6&#45;&gt;Node7 -->
<g id="edge6_Node000006_Node000007" class="edge">
<title>Node6&#45;&gt;Node7</title>
<g id="a_edge6_Node000006_Node000007"><a xlink:title=" ">
<path fill="none" stroke="#63b8ff" d="M450.11,-35.35C458.98,-36.42 468.11,-37.52 477.02,-38.6"/>
<polygon fill="#63b8ff" stroke="#63b8ff" points="476.31,-42.04 486.66,-39.76 477.15,-35.09 476.31,-42.04"/>
</a>
</g>
</g>
<!-- Node8 -->
<g id="Node000008" class="node">
<title>Node8</title>
<g id="a_Node000008"><a xlink:href="class_motor_controller.html#ae86064872aabbe0df6df0c51828f3fd9" target="_top" xlink:title=" ">
<polygon fill="white" stroke="#666666" points="603.25,-19.25 486,-19.25 486,0 603.25,0 603.25,-19.25"/>
<text xml:space="preserve" text-anchor="middle" x="544.62" y="-5.75" font-family="Helvetica,sans-Serif" font-size="10.00">MotorController::enable</text>
</a>
</g>
</g>
<!-- Node6&#45;&gt;Node8 -->
<g id="edge7_Node000006_Node000008" class="edge">
<title>Node6&#45;&gt;Node8</title>
<g id="a_edge7_Node000006_Node000008"><a xlink:title=" ">
<path fill="none" stroke="#63b8ff" d="M450.11,-20.3C458.11,-19.39 466.31,-18.45 474.38,-17.53"/>
<polygon fill="#63b8ff" stroke="#63b8ff" points="474.62,-21.03 484.15,-16.42 473.82,-14.07 474.62,-21.03"/>
</a>
</g>
</g>
</g>
</svg>
