<?xml version="1.0" encoding="UTF-8" standalone="no"?>
<!DOCTYPE svg PUBLIC "-//W3C//DTD SVG 1.1//EN"
 "http://www.w3.org/Graphics/SVG/1.1/DTD/svg11.dtd">
<!-- Generated by graphviz version 14.1.2 (20260124.0452)
 -->
<!-- Title: StrategyControllerStep Pages: 1 -->
<svg width="935pt" height="675pt"
 viewBox="0.00 0.00 935.00 675.00" xmlns="http://www.w3.org/2000/svg" xmlns:xlink="http://www.w3.org/1999/xlink">
<g id="graph0" class="graph" transform="scale(1 1) rotate(0) translate(4 670.69)">
<title>StrategyControllerStep</title>
<!-- Node1 -->
<g id="Node000001" class="node">
<title>Node1</title>
<g id="a_Node000001"><a xlink:title="Inline strategy state machine that decides, scans, mines, stores, and crafts.">
<polygon fill="#999999" stroke="#666666" points="926.5,-618.69 811.5,-618.69 811.5,-599.44 926.5,-599.44 926.5,-618.69"/>
<text xml:space="preserve" text-anchor="middle" x="869" y="-605.19" font-family="Helvetica,sans-Serif" font-size="10.00">StrategyControllerStep</text>
</a>
</g>
</g>
<!-- Node2 -->
<g id="Node000002" class="node">
<title>Node2</title>
<g id="a_Node000002"><a xlink:href="class_auto_step.html" target="_top" xlink:title="Pure&#45;virtual base class for all autonomous steps.">
<polygon fill="white" stroke="#666666" points="355.75,-666.69 299.25,-666.69 299.25,-647.44 355.75,-647.44 355.75,-666.69"/>
<text xml:space="preserve" text-anchor="middle" x="327.5" y="-653.19" font-family="Helvetica,sans-Serif" font-size="10.00">AutoStep</text>
</a>
</g>
</g>
<!-- Node2&#45;&gt;Node1 -->
<g id="edge1_Node000001_Node000002" class="edge">
<title>Node2&#45;&gt;Node1</title>
<g id="a_edge1_Node000001_Node000002"><a xlink:title=" ">
<path fill="none" stroke="#63b8ff" d="M367.27,-658.54C398.42,-659.49 443.28,-660.34 482.5,-659.06 571.51,-656.16 594.09,-655.67 682.25,-643.06 728.82,-636.4 781.55,-626.52 818.89,-619.13"/>
<polygon fill="#63b8ff" stroke="#63b8ff" points="367.67,-655.05 357.56,-658.22 367.44,-662.05 367.67,-655.05"/>
</a>
</g>
</g>
<!-- Node21 -->
<g id="Node000021" class="node">
<title>Node21</title>
<g id="a_Node000021"><a xlink:href="class_autonomous_routine.html" target="_top" xlink:title="Drives an ordered sequence of AutoStep objects to completion.">
<polygon fill="white" stroke="#666666" points="605,-641.69 500.5,-641.69 500.5,-622.44 605,-622.44 605,-641.69"/>
<text xml:space="preserve" text-anchor="middle" x="552.75" y="-628.19" font-family="Helvetica,sans-Serif" font-size="10.00">AutonomousRoutine</text>
</a>
</g>
</g>
<!-- Node2&#45;&gt;Node21 -->
<g id="edge27_Node000021_Node000002" class="edge">
<title>Node2&#45;&gt;Node21</title>
<g id="a_edge27_Node000021_Node000002"><a xlink:title=" ">
<path fill="none" stroke="#9a32cd" stroke-dasharray="5,2" d="M366.99,-647.39C376.73,-645.24 387.2,-643.2 397,-641.81 431.25,-636.95 470.1,-634.51 500.31,-633.29"/>
<polygon fill="#9a32cd" stroke="#9a32cd" points="366.42,-643.92 357.46,-649.57 367.99,-650.75 366.42,-643.92"/>
</a>
</g>
<text xml:space="preserve" text-anchor="start" x="425.12" y="-646.56" font-family="Helvetica,sans-Serif" font-size="10.00" fill="grey">_steps</text>
</g>
<!-- Node3 -->
<g id="Node000003" class="node">
<title>Node3</title>
<g id="a_Node000003"><a xlink:href="class_robot.html" target="_top" xlink:title="Aggregates all robot subsystems and drives the main control loop.">
<polygon fill="white" stroke="#666666" points="742.5,-553.69 700.25,-553.69 700.25,-534.44 742.5,-534.44 742.5,-553.69"/>
<text xml:space="preserve" text-anchor="middle" x="721.38" y="-540.19" font-family="Helvetica,sans-Serif" font-size="10.00">Robot</text>
</a>
</g>
</g>
<!-- Node3&#45;&gt;Node1 -->
<g id="edge2_Node000001_Node000003" class="edge">
<title>Node3&#45;&gt;Node1</title>
<g id="a_edge2_Node000001_Node000003"><a xlink:title=" ">
<path fill="none" stroke="#9a32cd" stroke-dasharray="5,2" d="M753.25,-557.84C780.94,-570.2 820.92,-588.05 845.64,-599.08"/>
<polygon fill="#9a32cd" stroke="#9a32cd" points="754.87,-554.73 744.31,-553.85 752.02,-561.12 754.87,-554.73"/>
</a>
</g>
<text xml:space="preserve" text-anchor="start" x="763.5" y="-579.36" font-family="Helvetica,sans-Serif" font-size="10.00" fill="grey">_robot</text>
</g>
<!-- Node4 -->
<g id="Node000004" class="node">
<title>Node4</title>
<g id="a_Node000004"><a xlink:href="class_drive.html" target="_top" xlink:title=" ">
<polygon fill="white" stroke="#666666" points="572.38,-213.69 533.12,-213.69 533.12,-194.44 572.38,-194.44 572.38,-213.69"/>
<text xml:space="preserve" text-anchor="middle" x="552.75" y="-200.19" font-family="Helvetica,sans-Serif" font-size="10.00">Drive</text>
</a>
</g>
</g>
<!-- Node4&#45;&gt;Node3 -->
<g id="edge3_Node000003_Node000004" class="edge">
<title>Node4&#45;&gt;Node3</title>
<g id="a_edge3_Node000003_Node000004"><a xlink:title=" ">
<path fill="none" stroke="#9a32cd" stroke-dasharray="5,2" d="M567.55,-223.13C593.21,-259.31 648.69,-341.09 682.25,-416.81 700.85,-458.77 713.57,-512.39 718.31,-534.18"/>
<polygon fill="#9a32cd" stroke="#9a32cd" points="570.69,-221.5 562.03,-215.41 565,-225.58 570.69,-221.5"/>
</a>
</g>
<text xml:space="preserve" text-anchor="start" x="642.12" y="-421.56" font-family="Helvetica,sans-Serif" font-size="10.00" fill="grey">drive</text>
</g>
<!-- Node5 -->
<g id="Node000005" class="node">
<title>Node5</title>
<g id="a_Node000005"><a xlink:href="class_subsystem.html" target="_top" xlink:title="Polymorphic interface for a robot subsystem.">
<polygon fill="white" stroke="#666666" points="360.25,-511.69 294.75,-511.69 294.75,-492.44 360.25,-492.44 360.25,-511.69"/>
<text xml:space="preserve" text-anchor="middle" x="327.5" y="-498.19" font-family="Helvetica,sans-Serif" font-size="10.00">Subsystem</text>
</a>
</g>
</g>
<!-- Node5&#45;&gt;Node3 -->
<g id="edge28_Node000003_Node000005" class="edge">
<title>Node5&#45;&gt;Node3</title>
<g id="a_edge28_Node000003_Node000005"><a xlink:title=" ">
<path fill="none" stroke="#9a32cd" stroke-dasharray="5,2" d="M372.02,-500.12C426.76,-498.43 523.45,-497.97 605,-510.81 638.98,-516.16 677.08,-528.42 699.88,-536.47"/>
<polygon fill="#9a32cd" stroke="#9a32cd" points="372.06,-496.61 362.19,-500.45 372.3,-503.61 372.06,-496.61"/>
</a>
</g>
<text xml:space="preserve" text-anchor="start" x="526.12" y="-515.56" font-family="Helvetica,sans-Serif" font-size="10.00" fill="grey">subsystems</text>
</g>
<!-- Node5&#45;&gt;Node4 -->
<g id="edge4_Node000004_Node000005" class="edge">
<title>Node5&#45;&gt;Node4</title>
<g id="a_edge4_Node000004_Node000005"><a xlink:title=" ">
<path fill="none" stroke="#63b8ff" d="M355.31,-486.64C367.75,-479.83 382.89,-472.03 397,-466.06 433.83,-450.48 454.64,-466.74 482.5,-438.06 498.92,-421.16 539.11,-256.87 549.35,-214.16"/>
<polygon fill="#63b8ff" stroke="#63b8ff" points="353.92,-483.4 346.89,-491.33 357.33,-489.52 353.92,-483.4"/>
</a>
</g>
</g>
<!-- Node16 -->
<g id="Node000016" class="node">
<title>Node16</title>
<g id="a_Node000016"><a xlink:href="class_miner.html" target="_top" xlink:title="Servo&#45;driven block&#45;mining and ramp&#45;deployment subsystem.">
<polygon fill="white" stroke="#666666" points="572.75,-593.69 532.75,-593.69 532.75,-574.44 572.75,-574.44 572.75,-593.69"/>
<text xml:space="preserve" text-anchor="middle" x="552.75" y="-580.19" font-family="Helvetica,sans-Serif" font-size="10.00">Miner</text>
</a>
</g>
</g>
<!-- Node5&#45;&gt;Node16 -->
<g id="edge17_Node000016_Node000005" class="edge">
<title>Node5&#45;&gt;Node16</title>
<g id="a_edge17_Node000016_Node000005"><a xlink:title=" ">
<path fill="none" stroke="#63b8ff" d="M354.98,-517.52C367.45,-524.4 382.71,-532.25 397,-538.06 444.25,-557.28 502.53,-572.42 532.28,-579.57"/>
<polygon fill="#63b8ff" stroke="#63b8ff" points="356.98,-514.63 346.55,-512.78 353.55,-520.73 356.98,-514.63"/>
</a>
</g>
</g>
<!-- Node18 -->
<g id="Node000018" class="node">
<title>Node18</title>
<g id="a_Node000018"><a xlink:href="class_shooter.html" target="_top" xlink:title="Rack&#45;and&#45;pinion block shooter controlled by encoder feedback.">
<polygon fill="white" stroke="#666666" points="577.62,-429.69 527.88,-429.69 527.88,-410.44 577.62,-410.44 577.62,-429.69"/>
<text xml:space="preserve" text-anchor="middle" x="552.75" y="-416.19" font-family="Helvetica,sans-Serif" font-size="10.00">Shooter</text>
</a>
</g>
</g>
<!-- Node5&#45;&gt;Node18 -->
<g id="edge20_Node000018_Node000005" class="edge">
<title>Node5&#45;&gt;Node18</title>
<g id="a_edge20_Node000018_Node000005"><a xlink:title=" ">
<path fill="none" stroke="#63b8ff" d="M371.74,-494.81C403.25,-488.65 446.56,-478.34 482.5,-463.06 503.21,-454.26 524.91,-439.8 538.38,-430.11"/>
<polygon fill="#63b8ff" stroke="#63b8ff" points="371.36,-491.32 362.18,-496.61 372.65,-498.2 371.36,-491.32"/>
</a>
</g>
</g>
<!-- Node20 -->
<g id="Node000020" class="node">
<title>Node20</title>
<g id="a_Node000020"><a xlink:href="class_serial_coms.html" target="_top" xlink:title="Newline&#45;delimited ASCII command receiver for Arduino&#45;to&#45;Arduino comms.">
<polygon fill="white" stroke="#666666" points="586.25,-556.69 519.25,-556.69 519.25,-537.44 586.25,-537.44 586.25,-556.69"/>
<text xml:space="preserve" text-anchor="middle" x="552.75" y="-543.19" font-family="Helvetica,sans-Serif" font-size="10.00">SerialComs</text>
</a>
</g>
</g>
<!-- Node5&#45;&gt;Node20 -->
<g id="edge25_Node000020_Node000005" class="edge">
<title>Node5&#45;&gt;Node20</title>
<g id="a_edge25_Node000020_Node000005"><a xlink:title=" ">
<path fill="none" stroke="#63b8ff" d="M371.75,-510.78C414.87,-519.47 480.14,-532.63 519.1,-540.48"/>
<polygon fill="#63b8ff" stroke="#63b8ff" points="372.46,-507.35 361.97,-508.81 371.08,-514.21 372.46,-507.35"/>
</a>
</g>
</g>
<!-- Node6 -->
<g id="Node000006" class="node">
<title>Node6</title>
<g id="a_Node000006"><a xlink:href="class_encoder_wrapper.html" target="_top" xlink:title="Quadrature encoder driver with velocity and acceleration estimation.">
<polygon fill="white" stroke="#666666" points="371.5,-341.69 283.5,-341.69 283.5,-322.44 371.5,-322.44 371.5,-341.69"/>
<text xml:space="preserve" text-anchor="middle" x="327.5" y="-328.19" font-family="Helvetica,sans-Serif" font-size="10.00">EncoderWrapper</text>
</a>
</g>
</g>
<!-- Node6&#45;&gt;Node4 -->
<g id="edge5_Node000004_Node000006" class="edge">
<title>Node6&#45;&gt;Node4</title>
<g id="a_edge5_Node000004_Node000006"><a xlink:title=" ">
<path fill="none" stroke="#9a32cd" stroke-dasharray="5,2" d="M350.05,-315.17C363.09,-305.54 380.37,-293.78 397,-285.56 432.91,-267.81 447.11,-275.82 482.5,-257.06 505.24,-245 528.32,-225.59 541.25,-213.9"/>
<polygon fill="#9a32cd" stroke="#9a32cd" points="348.05,-312.29 342.19,-321.12 352.27,-317.87 348.05,-312.29"/>
</a>
</g>
<text xml:space="preserve" text-anchor="start" x="409.75" y="-305.56" font-family="Helvetica,sans-Serif" font-size="10.00" fill="grey">_leftEncoder</text>
<text xml:space="preserve" text-anchor="start" x="409.75" y="-290.31" font-family="Helvetica,sans-Serif" font-size="10.00" fill="grey">_rightEncoder</text>
</g>
<!-- Node6&#45;&gt;Node18 -->
<g id="edge23_Node000018_Node000006" class="edge">
<title>Node6&#45;&gt;Node18</title>
<g id="a_edge23_Node000018_Node000006"><a xlink:title=" ">
<path fill="none" stroke="#9a32cd" stroke-dasharray="5,2" d="M364.76,-346.35C410.58,-364.41 488.19,-395.01 527.46,-410.48"/>
<polygon fill="#9a32cd" stroke="#9a32cd" points="366.1,-343.12 355.52,-342.71 363.54,-349.63 366.1,-343.12"/>
</a>
</g>
<text xml:space="preserve" text-anchor="start" x="422.5" y="-396.35" font-family="Helvetica,sans-Serif" font-size="10.00" fill="grey">encoder</text>
</g>
<!-- Node7 -->
<g id="Node000007" class="node">
<title>Node7</title>
<g id="a_Node000007"><a xlink:href="class_line_sensor.html" target="_top" xlink:title="Pololu QTR&#45;MD&#45;08RC 8&#45;channel line sensor driver.">
<polygon fill="white" stroke="#666666" points="359.88,-215.69 295.12,-215.69 295.12,-196.44 359.88,-196.44 359.88,-215.69"/>
<text xml:space="preserve" text-anchor="middle" x="327.5" y="-202.19" font-family="Helvetica,sans-Serif" font-size="10.00">LineSensor</text>
</a>
</g>
</g>
<!-- Node7&#45;&gt;Node4 -->
<g id="edge6_Node000004_Node000007" class="edge">
<title>Node7&#45;&gt;Node4</title>
<g id="a_edge6_Node000004_Node000007"><a xlink:title=" ">
<path fill="none" stroke="#9a32cd" stroke-dasharray="5,2" d="M371.46,-205.19C379.92,-205.04 388.74,-204.91 397,-204.81 445.89,-204.25 503.48,-204.1 532.69,-204.07"/>
<polygon fill="#9a32cd" stroke="#9a32cd" points="371.66,-201.68 361.73,-205.37 371.79,-208.68 371.66,-201.68"/>
</a>
</g>
<text xml:space="preserve" text-anchor="start" x="414.25" y="-209.56" font-family="Helvetica,sans-Serif" font-size="10.00" fill="grey">_lineSensor</text>
</g>
<!-- Node8 -->
<g id="Node000008" class="node">
<title>Node8</title>
<g id="a_Node000008"><a xlink:href="class_dual_motor_controller.html" target="_top" xlink:title="Dual&#45;channel closed&#45;loop motor controller.">
<polygon fill="white" stroke="#666666" points="379,-253.69 276,-253.69 276,-234.44 379,-234.44 379,-253.69"/>
<text xml:space="preserve" text-anchor="middle" x="327.5" y="-240.19" font-family="Helvetica,sans-Serif" font-size="10.00">DualMotorController</text>
</a>
</g>
</g>
<!-- Node8&#45;&gt;Node4 -->
<g id="edge7_Node000004_Node000008" class="edge">
<title>Node8&#45;&gt;Node4</title>
<g id="a_edge7_Node000004_Node000008"><a xlink:title=" ">
<path fill="none" stroke="#9a32cd" stroke-dasharray="5,2" d="M390.68,-236.79C418.84,-233.09 452.48,-228.09 482.5,-222.06 499.67,-218.61 518.94,-213.5 532.78,-209.61"/>
<polygon fill="#9a32cd" stroke="#9a32cd" points="390.35,-233.31 380.88,-238.06 391.24,-240.25 390.35,-233.31"/>
</a>
</g>
<text xml:space="preserve" text-anchor="start" x="403.75" y="-240.43" font-family="Helvetica,sans-Serif" font-size="10.00" fill="grey">_motorController</text>
</g>
<!-- Node8&#45;&gt;Node18 -->
<g id="edge22_Node000018_Node000008" class="edge">
<title>Node8&#45;&gt;Node18</title>
<g id="a_edge22_Node000018_Node000008"><a xlink:title=" ">
<path fill="none" stroke="#9a32cd" stroke-dasharray="5,2" d="M341.03,-262.95C353.3,-279.94 373.53,-304.28 397,-318.06 430.72,-337.86 449.19,-318.32 482.5,-338.81 512.34,-357.17 535.86,-392.7 546.13,-410.05"/>
<polygon fill="#9a32cd" stroke="#9a32cd" points="344.21,-261.39 335.63,-255.18 338.46,-265.39 344.21,-261.39"/>
</a>
</g>
<text xml:space="preserve" text-anchor="start" x="427.38" y="-343.56" font-family="Helvetica,sans-Serif" font-size="10.00" fill="grey">motor</text>
</g>
<!-- Node9 -->
<g id="Node000009" class="node">
<title>Node9</title>
<g id="a_Node000009"><a xlink:href="class_l298_n_motor_driver_mega.html" target="_top" xlink:title=" ">
<polygon fill="white" stroke="#666666" points="189.75,-253.69 70.25,-253.69 70.25,-234.44 189.75,-234.44 189.75,-253.69"/>
<text xml:space="preserve" text-anchor="middle" x="130" y="-240.19" font-family="Helvetica,sans-Serif" font-size="10.00">L298NMotorDriverMega</text>
</a>
</g>
</g>
<!-- Node9&#45;&gt;Node8 -->
<g id="edge8_Node000008_Node000009" class="edge">
<title>Node9&#45;&gt;Node8</title>
<g id="a_edge8_Node000008_Node000009"><a xlink:title=" ">
<path fill="none" stroke="#9a32cd" stroke-dasharray="5,2" d="M201.63,-244.06C226.16,-244.06 253.17,-244.06 275.77,-244.06"/>
<polygon fill="#9a32cd" stroke="#9a32cd" points="201.7,-240.56 191.7,-244.06 201.7,-247.56 201.7,-240.56"/>
</a>
</g>
<text xml:space="preserve" text-anchor="start" x="210.75" y="-248.81" font-family="Helvetica,sans-Serif" font-size="10.00" fill="grey">dualDriver</text>
</g>
<!-- Node10 -->
<g id="Node000010" class="node">
<title>Node10</title>
<g id="a_Node000010"><a xlink:href="class_p_i_d_controller.html" target="_top" xlink:title="Full&#45;featured PID controller with anti&#45;windup, output filtering, and optional nonlinear extensions.">
<polygon fill="white" stroke="#666666" points="167.62,-139.69 92.38,-139.69 92.38,-120.44 167.62,-120.44 167.62,-139.69"/>
<text xml:space="preserve" text-anchor="middle" x="130" y="-126.19" font-family="Helvetica,sans-Serif" font-size="10.00">PIDController</text>
</a>
</g>
</g>
<!-- Node10&#45;&gt;Node4 -->
<g id="edge15_Node000004_Node000010" class="edge">
<title>Node10&#45;&gt;Node4</title>
<g id="a_edge15_Node000004_Node000010"><a xlink:title=" ">
<path fill="none" stroke="#9a32cd" stroke-dasharray="5,2" d="M179.34,-119.87C229.83,-111.01 311,-101.86 379,-117.56 442.73,-132.28 509.6,-174.76 537.85,-194.17"/>
<polygon fill="#9a32cd" stroke="#9a32cd" points="178.81,-116.4 169.6,-121.65 180.07,-123.29 178.81,-116.4"/>
</a>
</g>
<text xml:space="preserve" text-anchor="start" x="282.5" y="-137.56" font-family="Helvetica,sans-Serif" font-size="10.00" fill="grey">_distanceSensorPID</text>
<text xml:space="preserve" text-anchor="start" x="282.5" y="-122.31" font-family="Helvetica,sans-Serif" font-size="10.00" fill="grey">_lineSensorPID</text>
</g>
<!-- Node10&#45;&gt;Node8 -->
<g id="edge9_Node000008_Node000010" class="edge">
<title>Node10&#45;&gt;Node8</title>
<g id="a_edge9_Node000008_Node000010"><a xlink:title=" ">
<path fill="none" stroke="#9a32cd" stroke-dasharray="5,2" d="M160.19,-145.42C186.74,-159.94 226.47,-183.11 258,-207.56 266.82,-214.4 266.58,-219.08 276,-225.06 281.46,-228.52 287.64,-231.5 293.76,-234"/>
<polygon fill="#9a32cd" stroke="#9a32cd" points="162.16,-142.5 151.7,-140.83 158.83,-148.66 162.16,-142.5"/>
</a>
</g>
<text xml:space="preserve" text-anchor="start" x="221.25" y="-227.56" font-family="Helvetica,sans-Serif" font-size="10.00" fill="grey">_pid1</text>
<text xml:space="preserve" text-anchor="start" x="221.25" y="-212.31" font-family="Helvetica,sans-Serif" font-size="10.00" fill="grey">_pid2</text>
</g>
<!-- Node11 -->
<g id="Node000011" class="node">
<title>Node11</title>
<g id="a_Node000011"><a xlink:href="class_p_i_d.html" target="_top" xlink:title="Lightweight PID controller base class.">
<polygon fill="white" stroke="#666666" points="33.25,-139.69 0,-139.69 0,-120.44 33.25,-120.44 33.25,-139.69"/>
<text xml:space="preserve" text-anchor="middle" x="16.62" y="-126.19" font-family="Helvetica,sans-Serif" font-size="10.00">PID</text>
</a>
</g>
</g>
<!-- Node11&#45;&gt;Node10 -->
<g id="edge10_Node000010_Node000011" class="edge">
<title>Node11&#45;&gt;Node10</title>
<g id="a_edge10_Node000010_Node000011"><a xlink:title=" ">
<path fill="none" stroke="#63b8ff" d="M45.01,-130.06C59.14,-130.06 76.58,-130.06 91.9,-130.06"/>
<polygon fill="#63b8ff" stroke="#63b8ff" points="45.1,-126.56 35.1,-130.06 45.1,-133.56 45.1,-126.56"/>
</a>
</g>
</g>
<!-- Node12 -->
<g id="Node000012" class="node">
<title>Node12</title>
<g id="a_Node000012"><a xlink:href="class_sharp_g_p2_y0_a51.html" target="_top" xlink:title="Sharp GP2Y0A51 analog IR distance sensor driver.">
<polygon fill="white" stroke="#666666" points="372.62,-72.69 282.38,-72.69 282.38,-53.44 372.62,-53.44 372.62,-72.69"/>
<text xml:space="preserve" text-anchor="middle" x="327.5" y="-59.19" font-family="Helvetica,sans-Serif" font-size="10.00">SharpGP2Y0A51</text>
</a>
</g>
</g>
<!-- Node12&#45;&gt;Node4 -->
<g id="edge11_Node000004_Node000012" class="edge">
<title>Node12&#45;&gt;Node4</title>
<g id="a_edge11_Node000004_Node000012"><a xlink:title=" ">
<path fill="none" stroke="#9a32cd" stroke-dasharray="5,2" d="M384.11,-56.25C415.4,-55.23 453.83,-58.93 482.5,-77.81 525.09,-105.86 543.78,-169.37 549.61,-194.02"/>
<polygon fill="#9a32cd" stroke="#9a32cd" points="384.25,-52.74 374.44,-56.74 384.61,-59.73 384.25,-52.74"/>
</a>
</g>
<text xml:space="preserve" text-anchor="start" x="413.88" y="-82.56" font-family="Helvetica,sans-Serif" font-size="10.00" fill="grey">_distSensor</text>
</g>
<!-- Node13 -->
<g id="Node000013" class="node">
<title>Node13</title>
<g id="a_Node000013"><a xlink:href="class_odometry.html" target="_top" xlink:title="Tracks robot pose by integrating encoder wheel displacements.">
<polygon fill="white" stroke="#666666" points="356.88,-23.69 298.12,-23.69 298.12,-4.44 356.88,-4.44 356.88,-23.69"/>
<text xml:space="preserve" text-anchor="middle" x="327.5" y="-10.19" font-family="Helvetica,sans-Serif" font-size="10.00">Odometry</text>
</a>
</g>
</g>
<!-- Node13&#45;&gt;Node4 -->
<g id="edge12_Node000004_Node000013" class="edge">
<title>Node13&#45;&gt;Node4</title>
<g id="a_edge12_Node000004_Node000013"><a xlink:title=" ">
<path fill="none" stroke="#9a32cd" stroke-dasharray="5,2" d="M368.6,-4.14C402.19,1.72 449.77,3.99 482.5,-19.56 541.93,-62.32 550.39,-162.52 551.57,-194.24"/>
<polygon fill="#9a32cd" stroke="#9a32cd" points="367.99,-0.69 358.84,-6.03 369.32,-7.56 367.99,-0.69"/>
</a>
</g>
<text xml:space="preserve" text-anchor="start" x="400" y="-39.56" font-family="Helvetica,sans-Serif" font-size="10.00" fill="grey">_desiredOdometry</text>
<text xml:space="preserve" text-anchor="start" x="400" y="-24.31" font-family="Helvetica,sans-Serif" font-size="10.00" fill="grey">_odometry</text>
</g>
<!-- Node14 -->
<g id="Node000014" class="node">
<title>Node14</title>
<g id="a_Node000014"><a xlink:href="struct_odometry_1_1_pose2_d.html" target="_top" xlink:title="2&#45;D robot pose.">
<polygon fill="white" stroke="#666666" points="180,-23.69 80,-23.69 80,-4.44 180,-4.44 180,-23.69"/>
<text xml:space="preserve" text-anchor="middle" x="130" y="-10.19" font-family="Helvetica,sans-Serif" font-size="10.00">Odometry::Pose2D</text>
</a>
</g>
</g>
<!-- Node14&#45;&gt;Node13 -->
<g id="edge13_Node000013_Node000014" class="edge">
<title>Node14&#45;&gt;Node13</title>
<g id="a_edge13_Node000013_Node000014"><a xlink:title=" ">
<path fill="none" stroke="#9a32cd" stroke-dasharray="5,2" d="M191.53,-14.06C226.93,-14.06 270,-14.06 297.81,-14.06"/>
<polygon fill="#9a32cd" stroke="#9a32cd" points="191.85,-10.56 181.85,-14.06 191.85,-17.56 191.85,-10.56"/>
</a>
</g>
<text xml:space="preserve" text-anchor="start" x="219.75" y="-18.81" font-family="Helvetica,sans-Serif" font-size="10.00" fill="grey">_pose</text>
</g>
<!-- Node15 -->
<g id="Node000015" class="node">
<title>Node15</title>
<g id="a_Node000015"><a xlink:href="class_ramsete_controller.html" target="_top" xlink:title=" ">
<polygon fill="white" stroke="#666666" points="376.38,-178.69 278.62,-178.69 278.62,-159.44 376.38,-159.44 376.38,-178.69"/>
<text xml:space="preserve" text-anchor="middle" x="327.5" y="-165.19" font-family="Helvetica,sans-Serif" font-size="10.00">RamseteController</text>
</a>
</g>
</g>
<!-- Node15&#45;&gt;Node4 -->
<g id="edge14_Node000004_Node000015" class="edge">
<title>Node15&#45;&gt;Node4</title>
<g id="a_edge14_Node000004_Node000015"><a xlink:title=" ">
<path fill="none" stroke="#9a32cd" stroke-dasharray="5,2" d="M387.84,-171.46C416.62,-173.36 451.57,-176.75 482.5,-182.81 499.9,-186.22 519.14,-192.32 532.92,-197.11"/>
<polygon fill="#9a32cd" stroke="#9a32cd" points="388.43,-167.99 378.24,-170.87 388.01,-174.98 388.43,-167.99"/>
</a>
</g>
<text xml:space="preserve" text-anchor="start" x="419.5" y="-187.56" font-family="Helvetica,sans-Serif" font-size="10.00" fill="grey">_ramsete</text>
</g>
<!-- Node16&#45;&gt;Node3 -->
<g id="edge16_Node000003_Node000016" class="edge">
<title>Node16&#45;&gt;Node3</title>
<g id="a_edge16_Node000003_Node000016"><a xlink:title=" ">
<path fill="none" stroke="#9a32cd" stroke-dasharray="5,2" d="M584.02,-581.22C610.41,-578.2 649.49,-572.39 682.25,-562.06 688.81,-559.99 695.7,-557.02 701.78,-554.08"/>
<polygon fill="#9a32cd" stroke="#9a32cd" points="583.93,-577.71 574.36,-582.26 584.68,-584.67 583.93,-577.71"/>
</a>
</g>
<text xml:space="preserve" text-anchor="start" x="640.62" y="-580.45" font-family="Helvetica,sans-Serif" font-size="10.00" fill="grey">miner</text>
</g>
<!-- Node17 -->
<g id="Node000017" class="node">
<title>Node17</title>
<g id="a_Node000017"><a xlink:href="class_servo_control.html" target="_top" xlink:title="Servo driver with angle clamping, inversion, and deferred writes.">
<polygon fill="white" stroke="#666666" points="364,-594.69 291,-594.69 291,-575.44 364,-575.44 364,-594.69"/>
<text xml:space="preserve" text-anchor="middle" x="327.5" y="-581.19" font-family="Helvetica,sans-Serif" font-size="10.00">ServoControl</text>
</a>
</g>
</g>
<!-- Node17&#45;&gt;Node16 -->
<g id="edge18_Node000016_Node000017" class="edge">
<title>Node17&#45;&gt;Node16</title>
<g id="a_edge18_Node000016_Node000017"><a xlink:title=" ">
<path fill="none" stroke="#9a32cd" stroke-dasharray="5,2" d="M375.87,-584.85C424.57,-584.63 497.99,-584.3 532.52,-584.15"/>
<polygon fill="#9a32cd" stroke="#9a32cd" points="375.87,-581.35 365.88,-584.89 375.9,-588.35 375.87,-581.35"/>
</a>
</g>
<text xml:space="preserve" text-anchor="start" x="415" y="-604.74" font-family="Helvetica,sans-Serif" font-size="10.00" fill="grey">minerServo</text>
<text xml:space="preserve" text-anchor="start" x="415" y="-589.49" font-family="Helvetica,sans-Serif" font-size="10.00" fill="grey">rampServo</text>
</g>
<!-- Node18&#45;&gt;Node3 -->
<g id="edge19_Node000003_Node000018" class="edge">
<title>Node18&#45;&gt;Node3</title>
<g id="a_edge19_Node000003_Node000018"><a xlink:title=" ">
<path fill="none" stroke="#9a32cd" stroke-dasharray="5,2" d="M588.68,-426.77C616.77,-433.7 655.79,-446.96 682.25,-470.81 701.84,-488.47 712.97,-518.59 717.67,-534.13"/>
<polygon fill="#9a32cd" stroke="#9a32cd" points="589.76,-423.43 579.23,-424.6 588.19,-430.25 589.76,-423.43"/>
</a>
</g>
<text xml:space="preserve" text-anchor="start" x="636.5" y="-475.56" font-family="Helvetica,sans-Serif" font-size="10.00" fill="grey">shooter</text>
</g>
<!-- Node19 -->
<g id="Node000019" class="node">
<title>Node19</title>
<g id="a_Node000019"><a xlink:href="class_button.html" target="_top" xlink:title="Digital button / limit&#45;switch driver.">
<polygon fill="white" stroke="#666666" points="349.75,-429.69 305.25,-429.69 305.25,-410.44 349.75,-410.44 349.75,-429.69"/>
<text xml:space="preserve" text-anchor="middle" x="327.5" y="-416.19" font-family="Helvetica,sans-Serif" font-size="10.00">Button</text>
</a>
</g>
</g>
<!-- Node19&#45;&gt;Node18 -->
<g id="edge21_Node000018_Node000019" class="edge">
<title>Node19&#45;&gt;Node18</title>
<g id="a_edge21_Node000018_Node000019"><a xlink:title=" ">
<path fill="none" stroke="#9a32cd" stroke-dasharray="5,2" d="M361.41,-420.06C406.68,-420.06 487.13,-420.06 527.38,-420.06"/>
<polygon fill="#9a32cd" stroke="#9a32cd" points="361.42,-416.56 351.42,-420.06 361.42,-423.56 361.42,-416.56"/>
</a>
</g>
<text xml:space="preserve" text-anchor="start" x="411.25" y="-424.81" font-family="Helvetica,sans-Serif" font-size="10.00" fill="grey">block_switch</text>
</g>
<!-- Node20&#45;&gt;Node3 -->
<g id="edge24_Node000003_Node000020" class="edge">
<title>Node20&#45;&gt;Node3</title>
<g id="a_edge24_Node000003_Node000020"><a xlink:title=" ">
<path fill="none" stroke="#9a32cd" stroke-dasharray="5,2" d="M597.97,-545.46C606.28,-545.21 614.91,-544.97 623,-544.81 649.54,-544.28 680.15,-544.12 699.86,-544.07"/>
<polygon fill="#9a32cd" stroke="#9a32cd" points="597.9,-541.96 588.02,-545.78 598.13,-548.96 597.9,-541.96"/>
</a>
</g>
<text xml:space="preserve" text-anchor="start" x="627.88" y="-549.56" font-family="Helvetica,sans-Serif" font-size="10.00" fill="grey">serialComs</text>
</g>
<!-- Node21&#45;&gt;Node3 -->
<g id="edge26_Node000003_Node000021" class="edge">
<title>Node21&#45;&gt;Node3</title>
<g id="a_edge26_Node000003_Node000021"><a xlink:title=" ">
<path fill="none" stroke="#9a32cd" stroke-dasharray="5,2" d="M616.4,-623.87C638.63,-618.76 662.91,-610.48 682.25,-597.06 698.27,-585.95 709.97,-565.84 715.93,-553.84"/>
<polygon fill="#9a32cd" stroke="#9a32cd" points="615.89,-620.4 606.82,-625.88 617.33,-627.25 615.89,-620.4"/>
</a>
</g>
<text xml:space="preserve" text-anchor="start" x="626" y="-626.19" font-family="Helvetica,sans-Serif" font-size="10.00" fill="grey">autonomous</text>
</g>
</g>
</svg>
