<?xml version="1.0" encoding="UTF-8" standalone="no"?>
<!DOCTYPE svg PUBLIC "-//W3C//DTD SVG 1.1//EN"
 "http://www.w3.org/Graphics/SVG/1.1/DTD/svg11.dtd">
<!-- Generated by graphviz version 14.1.2 (20260124.0452)
 -->
<!-- Title: AutonomousRoutine::update Pages: 1 -->
<svg width="261pt" height="101pt"
 viewBox="0.00 0.00 261.00 101.00" xmlns="http://www.w3.org/2000/svg" xmlns:xlink="http://www.w3.org/1999/xlink">
<g id="graph0" class="graph" transform="scale(1 1) rotate(0) translate(4 97.25)">
<title>AutonomousRoutine::update</title>
<!-- Node1 -->
<g id="Node000001" class="node">
<title>Node1</title>
<g id="a_Node000001"><a xlink:title=" ">
<polygon fill="#999999" stroke="#666666" points="110.5,-61.88 0,-61.88 0,-31.38 110.5,-31.38 110.5,-61.88"/>
<text xml:space="preserve" text-anchor="start" x="8" y="-48.38" font-family="Helvetica,sans-Serif" font-size="10.00">AutonomousRoutine::</text>
<text xml:space="preserve" text-anchor="middle" x="55.25" y="-37.12" font-family="Helvetica,sans-Serif" font-size="10.00">update</text>
</a>
</g>
</g>
<!-- Node2 -->
<g id="Node000002" class="node">
<title>Node2</title>
<g id="a_Node000002"><a xlink:href="class_auto_step.html#a36d96a7aeb7e62c1ba43190cfefc332f" target="_top" xlink:title=" ">
<polygon fill="white" stroke="#666666" points="239,-93.25 160.75,-93.25 160.75,-74 239,-74 239,-93.25"/>
<text xml:space="preserve" text-anchor="middle" x="199.88" y="-79.75" font-family="Helvetica,sans-Serif" font-size="10.00">AutoStep::end</text>
</a>
</g>
</g>
<!-- Node1&#45;&gt;Node2 -->
<g id="edge1_Node000001_Node000002" class="edge">
<title>Node1&#45;&gt;Node2</title>
<g id="a_edge1_Node000001_Node000002"><a xlink:title=" ">
<path fill="none" stroke="#63b8ff" d="M110.98,-60.82C123.62,-64.1 136.98,-67.57 149.37,-70.78"/>
<polygon fill="#63b8ff" stroke="#63b8ff" points="148.41,-74.15 158.97,-73.27 150.17,-67.37 148.41,-74.15"/>
</a>
</g>
</g>
<!-- Node3 -->
<g id="Node000003" class="node">
<title>Node3</title>
<g id="a_Node000003"><a xlink:href="class_auto_step.html#a1467cdd23fa5efe9204461f6ddbfbf13" target="_top" xlink:title=" ">
<polygon fill="white" stroke="#666666" points="253.25,-56.25 146.5,-56.25 146.5,-37 253.25,-37 253.25,-56.25"/>
<text xml:space="preserve" text-anchor="middle" x="199.88" y="-42.75" font-family="Helvetica,sans-Serif" font-size="10.00">AutoStep::isFinished</text>
</a>
</g>
</g>
<!-- Node1&#45;&gt;Node3 -->
<g id="edge2_Node000001_Node000003" class="edge">
<title>Node1&#45;&gt;Node3</title>
<g id="a_edge2_Node000001_Node000003"><a xlink:title=" ">
<path fill="none" stroke="#63b8ff" d="M110.98,-46.62C118.89,-46.62 127.08,-46.62 135.14,-46.62"/>
<polygon fill="#63b8ff" stroke="#63b8ff" points="134.89,-50.13 144.89,-46.63 134.89,-43.13 134.89,-50.13"/>
</a>
</g>
</g>
<!-- Node4 -->
<g id="Node000004" class="node">
<title>Node4</title>
<g id="a_Node000004"><a xlink:href="class_auto_step.html#a294cc7e911ef0300e62dd5df10f2eec9" target="_top" xlink:title=" ">
<polygon fill="white" stroke="#666666" points="245.75,-19.25 154,-19.25 154,0 245.75,0 245.75,-19.25"/>
<text xml:space="preserve" text-anchor="middle" x="199.88" y="-5.75" font-family="Helvetica,sans-Serif" font-size="10.00">AutoStep::update</text>
</a>
</g>
</g>
<!-- Node1&#45;&gt;Node4 -->
<g id="edge3_Node000001_Node000004" class="edge">
<title>Node1&#45;&gt;Node4</title>
<g id="a_edge3_Node000001_Node000004"><a xlink:title=" ">
<path fill="none" stroke="#63b8ff" d="M110.98,-32.43C123.49,-29.18 136.73,-25.75 149.02,-22.56"/>
<polygon fill="#63b8ff" stroke="#63b8ff" points="149.73,-25.99 158.53,-20.09 147.97,-19.21 149.73,-25.99"/>
</a>
</g>
</g>
</g>
</svg>
