<?xml version="1.0" encoding="UTF-8" standalone="no"?>
<!DOCTYPE svg PUBLIC "-//W3C//DTD SVG 1.1//EN"
 "http://www.w3.org/Graphics/SVG/1.1/DTD/svg11.dtd">
<!-- Generated by graphviz version 14.1.2 (20260124.0452)
 -->
<!-- Title: Drive Pages: 1 -->
<svg width="548pt" height="291pt"
 viewBox="0.00 0.00 548.00 291.00" xmlns="http://www.w3.org/2000/svg" xmlns:xlink="http://www.w3.org/1999/xlink">
<g id="graph0" class="graph" transform="scale(1 1) rotate(0) translate(4 287.25)">
<title>Drive</title>
<!-- Node1 -->
<g id="Node000001" class="node">
<title>Node1</title>
<g id="a_Node000001"><a xlink:title=" ">
<polygon fill="#999999" stroke="#666666" points="539.75,-155.25 500.5,-155.25 500.5,-136 539.75,-136 539.75,-155.25"/>
<text xml:space="preserve" text-anchor="middle" x="520.12" y="-141.75" font-family="Helvetica,sans-Serif" font-size="10.00">Drive</text>
</a>
</g>
</g>
<!-- Node2 -->
<g id="Node000002" class="node">
<title>Node2</title>
<g id="a_Node000002"><a xlink:href="class_subsystem.html" target="_top" xlink:title=" ">
<polygon fill="white" stroke="#666666" points="360.25,-283.25 294.75,-283.25 294.75,-264 360.25,-264 360.25,-283.25"/>
<text xml:space="preserve" text-anchor="middle" x="327.5" y="-269.75" font-family="Helvetica,sans-Serif" font-size="10.00">Subsystem</text>
</a>
</g>
</g>
<!-- Node2&#45;&gt;Node1 -->
<g id="edge1_Node000001_Node000002" class="edge">
<title>Node2&#45;&gt;Node1</title>
<g id="a_edge1_Node000001_Node000002"><a xlink:title=" ">
<path fill="none" stroke="#63b8ff" d="M371.93,-281.61C405.68,-285.25 451.76,-284.25 482.5,-259.62 515.11,-233.5 519.09,-178.12 519.3,-155.53"/>
<polygon fill="#63b8ff" stroke="#63b8ff" points="372.42,-278.15 362.06,-280.36 371.54,-285.09 372.42,-278.15"/>
</a>
</g>
</g>
<!-- Node3 -->
<g id="Node000003" class="node">
<title>Node3</title>
<g id="a_Node000003"><a xlink:href="class_encoder_wrapper.html" target="_top" xlink:title=" ">
<polygon fill="white" stroke="#666666" points="371.5,-235.25 283.5,-235.25 283.5,-216 371.5,-216 371.5,-235.25"/>
<text xml:space="preserve" text-anchor="middle" x="327.5" y="-221.75" font-family="Helvetica,sans-Serif" font-size="10.00">EncoderWrapper</text>
</a>
</g>
</g>
<!-- Node3&#45;&gt;Node1 -->
<g id="edge2_Node000001_Node000003" class="edge">
<title>Node3&#45;&gt;Node1</title>
<g id="a_edge2_Node000001_Node000003"><a xlink:title=" ">
<path fill="none" stroke="#9a32cd" stroke-dasharray="5,2" d="M383.17,-227.73C414.48,-226.47 453.24,-220.51 482.5,-201.62 499.68,-190.54 510.55,-168.23 515.66,-155.37"/>
<polygon fill="#9a32cd" stroke="#9a32cd" points="383.42,-224.22 373.51,-227.96 383.59,-231.22 383.42,-224.22"/>
</a>
</g>
<text xml:space="preserve" text-anchor="start" x="409.75" y="-246.69" font-family="Helvetica,sans-Serif" font-size="10.00" fill="grey">_leftEncoder</text>
<text xml:space="preserve" text-anchor="start" x="409.75" y="-231.44" font-family="Helvetica,sans-Serif" font-size="10.00" fill="grey">_rightEncoder</text>
</g>
<!-- Node4 -->
<g id="Node000004" class="node">
<title>Node4</title>
<g id="a_Node000004"><a xlink:href="class_line_sensor.html" target="_top" xlink:title=" ">
<polygon fill="white" stroke="#666666" points="359.88,-195.25 295.12,-195.25 295.12,-176 359.88,-176 359.88,-195.25"/>
<text xml:space="preserve" text-anchor="middle" x="327.5" y="-181.75" font-family="Helvetica,sans-Serif" font-size="10.00">LineSensor</text>
</a>
</g>
</g>
<!-- Node4&#45;&gt;Node1 -->
<g id="edge3_Node000001_Node000004" class="edge">
<title>Node4&#45;&gt;Node1</title>
<g id="a_edge3_Node000001_Node000004"><a xlink:title=" ">
<path fill="none" stroke="#9a32cd" stroke-dasharray="5,2" d="M371.49,-183.12C402.83,-180.42 446,-174.89 482.5,-163.62 489,-161.62 495.77,-158.59 501.7,-155.58"/>
<polygon fill="#9a32cd" stroke="#9a32cd" points="371.31,-179.62 361.61,-183.9 371.86,-186.6 371.31,-179.62"/>
</a>
</g>
<text xml:space="preserve" text-anchor="start" x="414.25" y="-184.93" font-family="Helvetica,sans-Serif" font-size="10.00" fill="grey">_lineSensor</text>
</g>
<!-- Node5 -->
<g id="Node000005" class="node">
<title>Node5</title>
<g id="a_Node000005"><a xlink:href="class_dual_motor_controller.html" target="_top" xlink:title=" ">
<polygon fill="white" stroke="#666666" points="379,-155.25 276,-155.25 276,-136 379,-136 379,-155.25"/>
<text xml:space="preserve" text-anchor="middle" x="327.5" y="-141.75" font-family="Helvetica,sans-Serif" font-size="10.00">DualMotorController</text>
</a>
</g>
</g>
<!-- Node5&#45;&gt;Node1 -->
<g id="edge4_Node000001_Node000005" class="edge">
<title>Node5&#45;&gt;Node1</title>
<g id="a_edge4_Node000001_Node000005"><a xlink:title=" ">
<path fill="none" stroke="#9a32cd" stroke-dasharray="5,2" d="M390.39,-145.62C428.64,-145.62 475.11,-145.62 500.44,-145.62"/>
<polygon fill="#9a32cd" stroke="#9a32cd" points="390.85,-142.13 380.85,-145.63 390.85,-149.13 390.85,-142.13"/>
</a>
</g>
<text xml:space="preserve" text-anchor="start" x="403.75" y="-150.38" font-family="Helvetica,sans-Serif" font-size="10.00" fill="grey">_motorController</text>
</g>
<!-- Node6 -->
<g id="Node000006" class="node">
<title>Node6</title>
<g id="a_Node000006"><a xlink:href="class_l298_n_motor_driver_mega.html" target="_top" xlink:title=" ">
<polygon fill="white" stroke="#666666" points="189.75,-183.25 70.25,-183.25 70.25,-164 189.75,-164 189.75,-183.25"/>
<text xml:space="preserve" text-anchor="middle" x="130" y="-169.75" font-family="Helvetica,sans-Serif" font-size="10.00">L298NMotorDriverMega</text>
</a>
</g>
</g>
<!-- Node6&#45;&gt;Node5 -->
<g id="edge5_Node000005_Node000006" class="edge">
<title>Node6&#45;&gt;Node5</title>
<g id="a_edge5_Node000005_Node000006"><a xlink:title=" ">
<path fill="none" stroke="#9a32cd" stroke-dasharray="5,2" d="M201.3,-163.56C225.92,-160.03 253.07,-156.14 275.77,-152.89"/>
<polygon fill="#9a32cd" stroke="#9a32cd" points="201.09,-160.05 191.69,-164.93 202.08,-166.98 201.09,-160.05"/>
</a>
</g>
<text xml:space="preserve" text-anchor="start" x="210.75" y="-166.88" font-family="Helvetica,sans-Serif" font-size="10.00" fill="grey">dualDriver</text>
</g>
<!-- Node7 -->
<g id="Node000007" class="node">
<title>Node7</title>
<g id="a_Node000007"><a xlink:href="class_p_i_d_controller.html" target="_top" xlink:title=" ">
<polygon fill="white" stroke="#666666" points="167.62,-127.25 92.38,-127.25 92.38,-108 167.62,-108 167.62,-127.25"/>
<text xml:space="preserve" text-anchor="middle" x="130" y="-113.75" font-family="Helvetica,sans-Serif" font-size="10.00">PIDController</text>
</a>
</g>
</g>
<!-- Node7&#45;&gt;Node5 -->
<g id="edge6_Node000005_Node000007" class="edge">
<title>Node7&#45;&gt;Node5</title>
<g id="a_edge6_Node000005_Node000007"><a xlink:title=" ">
<path fill="none" stroke="#9a32cd" stroke-dasharray="5,2" d="M179.29,-114.18C203.18,-113.49 232.32,-114.17 258,-119.12 266.89,-120.84 286.99,-128.8 303.14,-135.56"/>
<polygon fill="#9a32cd" stroke="#9a32cd" points="179.4,-110.67 169.54,-114.56 179.67,-117.67 179.4,-110.67"/>
</a>
</g>
<text xml:space="preserve" text-anchor="start" x="221.25" y="-139.12" font-family="Helvetica,sans-Serif" font-size="10.00" fill="grey">_pid1</text>
<text xml:space="preserve" text-anchor="start" x="221.25" y="-123.88" font-family="Helvetica,sans-Serif" font-size="10.00" fill="grey">_pid2</text>
</g>
<!-- Node8 -->
<g id="Node000008" class="node">
<title>Node8</title>
<g id="a_Node000008"><a xlink:href="class_p_i_d.html" target="_top" xlink:title=" ">
<polygon fill="white" stroke="#666666" points="33.25,-127.25 0,-127.25 0,-108 33.25,-108 33.25,-127.25"/>
<text xml:space="preserve" text-anchor="middle" x="16.62" y="-113.75" font-family="Helvetica,sans-Serif" font-size="10.00">PID</text>
</a>
</g>
</g>
<!-- Node8&#45;&gt;Node7 -->
<g id="edge7_Node000007_Node000008" class="edge">
<title>Node8&#45;&gt;Node7</title>
<g id="a_edge7_Node000007_Node000008"><a xlink:title=" ">
<path fill="none" stroke="#63b8ff" d="M45.01,-117.62C59.14,-117.62 76.58,-117.62 91.9,-117.62"/>
<polygon fill="#63b8ff" stroke="#63b8ff" points="45.1,-114.13 35.1,-117.63 45.1,-121.13 45.1,-114.13"/>
</a>
</g>
</g>
<!-- Node9 -->
<g id="Node000009" class="node">
<title>Node9</title>
<g id="a_Node000009"><a xlink:href="class_sharp_g_p2_y0_a51.html" target="_top" xlink:title=" ">
<polygon fill="white" stroke="#666666" points="372.62,-115.25 282.38,-115.25 282.38,-96 372.62,-96 372.62,-115.25"/>
<text xml:space="preserve" text-anchor="middle" x="327.5" y="-101.75" font-family="Helvetica,sans-Serif" font-size="10.00">SharpGP2Y0A51</text>
</a>
</g>
</g>
<!-- Node9&#45;&gt;Node1 -->
<g id="edge8_Node000001_Node000009" class="edge">
<title>Node9&#45;&gt;Node1</title>
<g id="a_edge8_Node000001_Node000009"><a xlink:title=" ">
<path fill="none" stroke="#9a32cd" stroke-dasharray="5,2" d="M384.46,-107.02C414.22,-109.09 451.05,-113.83 482.5,-124.38 490.31,-126.99 498.29,-131.39 504.81,-135.5"/>
<polygon fill="#9a32cd" stroke="#9a32cd" points="384.72,-103.52 374.53,-106.41 384.3,-110.51 384.72,-103.52"/>
</a>
</g>
<text xml:space="preserve" text-anchor="start" x="413.88" y="-129.12" font-family="Helvetica,sans-Serif" font-size="10.00" fill="grey">_distSensor</text>
</g>
<!-- Node10 -->
<g id="Node000010" class="node">
<title>Node10</title>
<g id="a_Node000010"><a xlink:href="class_odometry.html" target="_top" xlink:title=" ">
<polygon fill="white" stroke="#666666" points="356.88,-59.25 298.12,-59.25 298.12,-40 356.88,-40 356.88,-59.25"/>
<text xml:space="preserve" text-anchor="middle" x="327.5" y="-45.75" font-family="Helvetica,sans-Serif" font-size="10.00">Odometry</text>
</a>
</g>
</g>
<!-- Node10&#45;&gt;Node1 -->
<g id="edge9_Node000001_Node000010" class="edge">
<title>Node10&#45;&gt;Node1</title>
<g id="a_edge9_Node000001_Node000010"><a xlink:title=" ">
<path fill="none" stroke="#9a32cd" stroke-dasharray="5,2" d="M368.47,-45.79C401.99,-44.68 449.51,-48.24 482.5,-72.12 503.98,-87.68 513.58,-119.43 517.22,-135.63"/>
<polygon fill="#9a32cd" stroke="#9a32cd" points="368.57,-42.28 358.76,-46.28 368.93,-49.27 368.57,-42.28"/>
</a>
</g>
<text xml:space="preserve" text-anchor="start" x="400" y="-92.12" font-family="Helvetica,sans-Serif" font-size="10.00" fill="grey">_desiredOdometry</text>
<text xml:space="preserve" text-anchor="start" x="400" y="-76.88" font-family="Helvetica,sans-Serif" font-size="10.00" fill="grey">_odometry</text>
</g>
<!-- Node11 -->
<g id="Node000011" class="node">
<title>Node11</title>
<g id="a_Node000011"><a xlink:href="struct_odometry_1_1_pose2_d.html" target="_top" xlink:title=" ">
<polygon fill="white" stroke="#666666" points="180,-59.25 80,-59.25 80,-40 180,-40 180,-59.25"/>
<text xml:space="preserve" text-anchor="middle" x="130" y="-45.75" font-family="Helvetica,sans-Serif" font-size="10.00">Odometry::Pose2D</text>
</a>
</g>
</g>
<!-- Node11&#45;&gt;Node10 -->
<g id="edge10_Node000010_Node000011" class="edge">
<title>Node11&#45;&gt;Node10</title>
<g id="a_edge10_Node000010_Node000011"><a xlink:title=" ">
<path fill="none" stroke="#9a32cd" stroke-dasharray="5,2" d="M191.53,-49.62C226.93,-49.62 270,-49.62 297.81,-49.62"/>
<polygon fill="#9a32cd" stroke="#9a32cd" points="191.85,-46.13 181.85,-49.63 191.85,-53.13 191.85,-46.13"/>
</a>
</g>
<text xml:space="preserve" text-anchor="start" x="219.75" y="-54.38" font-family="Helvetica,sans-Serif" font-size="10.00" fill="grey">_pose</text>
</g>
<!-- Node12 -->
<g id="Node000012" class="node">
<title>Node12</title>
<g id="a_Node000012"><a xlink:href="class_ramsete_controller.html" target="_top" xlink:title=" ">
<polygon fill="white" stroke="#666666" points="376.38,-19.25 278.62,-19.25 278.62,0 376.38,0 376.38,-19.25"/>
<text xml:space="preserve" text-anchor="middle" x="327.5" y="-5.75" font-family="Helvetica,sans-Serif" font-size="10.00">RamseteController</text>
</a>
</g>
</g>
<!-- Node12&#45;&gt;Node1 -->
<g id="edge11_Node000001_Node000012" class="edge">
<title>Node12&#45;&gt;Node1</title>
<g id="a_edge11_Node000001_Node000012"><a xlink:title=" ">
<path fill="none" stroke="#9a32cd" stroke-dasharray="5,2" d="M388.06,-1C419.42,0.21 456.62,-4.08 482.5,-25.38 516.54,-53.39 519.66,-112.06 519.47,-135.57"/>
<polygon fill="#9a32cd" stroke="#9a32cd" points="388.09,2.51 378.32,-1.58 388.51,-4.48 388.09,2.51"/>
</a>
</g>
<text xml:space="preserve" text-anchor="start" x="419.5" y="-30.12" font-family="Helvetica,sans-Serif" font-size="10.00" fill="grey">_ramsete</text>
</g>
</g>
</svg>
