<?xml version="1.0" encoding="UTF-8" standalone="no"?>
<!DOCTYPE svg PUBLIC "-//W3C//DTD SVG 1.1//EN"
 "http://www.w3.org/Graphics/SVG/1.1/DTD/svg11.dtd">
<!-- Generated by graphviz version 14.1.2 (20260124.0452)
 -->
<!-- Title: DriveLineToWallStep Pages: 1 -->
<svg width="740pt" height="346pt"
 viewBox="0.00 0.00 740.00 346.00" xmlns="http://www.w3.org/2000/svg" xmlns:xlink="http://www.w3.org/1999/xlink">
<g id="graph0" class="graph" transform="scale(1 1) rotate(0) translate(4 342.26)">
<title>DriveLineToWallStep</title>
<!-- Node1 -->
<g id="Node000001" class="node">
<title>Node1</title>
<g id="a_Node000001"><a xlink:title="Follow a line autonomously until the distance sensor indicates a wall at _target cm.">
<polygon fill="#999999" stroke="#666666" points="732,-200.97 625.25,-200.97 625.25,-181.72 732,-181.72 732,-200.97"/>
<text xml:space="preserve" text-anchor="middle" x="678.62" y="-187.47" font-family="Helvetica,sans-Serif" font-size="10.00">DriveLineToWallStep</text>
</a>
</g>
</g>
<!-- Node2 -->
<g id="Node000002" class="node">
<title>Node2</title>
<g id="a_Node000002"><a xlink:href="class_auto_step.html" target="_top" xlink:title="Pure&#45;virtual base class for all autonomous steps.">
<polygon fill="white" stroke="#666666" points="557,-218.97 500.5,-218.97 500.5,-199.72 557,-199.72 557,-218.97"/>
<text xml:space="preserve" text-anchor="middle" x="528.75" y="-205.47" font-family="Helvetica,sans-Serif" font-size="10.00">AutoStep</text>
</a>
</g>
</g>
<!-- Node2&#45;&gt;Node1 -->
<g id="edge1_Node000001_Node000002" class="edge">
<title>Node2&#45;&gt;Node1</title>
<g id="a_edge1_Node000001_Node000002"><a xlink:title=" ">
<path fill="none" stroke="#63b8ff" d="M568.54,-204.63C585.75,-202.53 606.28,-200.03 624.86,-197.77"/>
<polygon fill="#63b8ff" stroke="#63b8ff" points="568.22,-201.14 558.72,-205.82 569.07,-208.09 568.22,-201.14"/>
</a>
</g>
</g>
<!-- Node3 -->
<g id="Node000003" class="node">
<title>Node3</title>
<g id="a_Node000003"><a xlink:href="class_drive.html" target="_top" xlink:title=" ">
<polygon fill="white" stroke="#666666" points="548.38,-181.97 509.12,-181.97 509.12,-162.72 548.38,-162.72 548.38,-181.97"/>
<text xml:space="preserve" text-anchor="middle" x="528.75" y="-168.47" font-family="Helvetica,sans-Serif" font-size="10.00">Drive</text>
</a>
</g>
</g>
<!-- Node3&#45;&gt;Node1 -->
<g id="edge2_Node000001_Node000003" class="edge">
<title>Node3&#45;&gt;Node1</title>
<g id="a_edge2_Node000001_Node000003"><a xlink:title=" ">
<path fill="none" stroke="#9a32cd" stroke-dasharray="5,2" d="M559.84,-174.37C574.22,-175.49 591.66,-177.07 607.25,-179.1 613.03,-179.85 619.06,-180.74 625.05,-181.69"/>
<polygon fill="#9a32cd" stroke="#9a32cd" points="560.33,-170.89 550.1,-173.65 559.82,-177.87 560.33,-170.89"/>
</a>
</g>
<text xml:space="preserve" text-anchor="start" x="578" y="-183.85" font-family="Helvetica,sans-Serif" font-size="10.00" fill="grey">_drive</text>
</g>
<!-- Node4 -->
<g id="Node000004" class="node">
<title>Node4</title>
<g id="a_Node000004"><a xlink:href="class_subsystem.html" target="_top" xlink:title="Polymorphic interface for a robot subsystem.">
<polygon fill="white" stroke="#666666" points="360.25,-336.97 294.75,-336.97 294.75,-317.72 360.25,-317.72 360.25,-336.97"/>
<text xml:space="preserve" text-anchor="middle" x="327.5" y="-323.47" font-family="Helvetica,sans-Serif" font-size="10.00">Subsystem</text>
</a>
</g>
</g>
<!-- Node4&#45;&gt;Node3 -->
<g id="edge3_Node000003_Node000004" class="edge">
<title>Node4&#45;&gt;Node3</title>
<g id="a_edge3_Node000003_Node000004"><a xlink:title=" ">
<path fill="none" stroke="#63b8ff" d="M371.74,-336.17C406.29,-340.49 453.57,-339.88 482.5,-312.35 522.2,-274.56 471.07,-236.59 500.5,-190.35 502.63,-187 505.63,-184.14 508.87,-181.74"/>
<polygon fill="#63b8ff" stroke="#63b8ff" points="372.45,-332.73 362.05,-334.76 371.45,-339.66 372.45,-332.73"/>
</a>
</g>
</g>
<!-- Node5 -->
<g id="Node000005" class="node">
<title>Node5</title>
<g id="a_Node000005"><a xlink:href="class_encoder_wrapper.html" target="_top" xlink:title="Quadrature encoder driver with velocity and acceleration estimation.">
<polygon fill="white" stroke="#666666" points="371.5,-288.97 283.5,-288.97 283.5,-269.72 371.5,-269.72 371.5,-288.97"/>
<text xml:space="preserve" text-anchor="middle" x="327.5" y="-275.47" font-family="Helvetica,sans-Serif" font-size="10.00">EncoderWrapper</text>
</a>
</g>
</g>
<!-- Node5&#45;&gt;Node3 -->
<g id="edge4_Node000003_Node000005" class="edge">
<title>Node5&#45;&gt;Node3</title>
<g id="a_edge4_Node000003_Node000005"><a xlink:title=" ">
<path fill="none" stroke="#9a32cd" stroke-dasharray="5,2" d="M382.94,-277.41C421.17,-274.92 467.97,-269.26 482.5,-256.35 505.23,-236.15 482.67,-214.98 500.5,-190.35 502.69,-187.32 505.57,-184.65 508.63,-182.37"/>
<polygon fill="#9a32cd" stroke="#9a32cd" points="383.2,-273.88 373.42,-277.96 383.61,-280.87 383.2,-273.88"/>
</a>
</g>
<text xml:space="preserve" text-anchor="start" x="409.75" y="-296.11" font-family="Helvetica,sans-Serif" font-size="10.00" fill="grey">_leftEncoder</text>
<text xml:space="preserve" text-anchor="start" x="409.75" y="-280.86" font-family="Helvetica,sans-Serif" font-size="10.00" fill="grey">_rightEncoder</text>
</g>
<!-- Node6 -->
<g id="Node000006" class="node">
<title>Node6</title>
<g id="a_Node000006"><a xlink:href="class_line_sensor.html" target="_top" xlink:title="Pololu QTR&#45;MD&#45;08RC 8&#45;channel line sensor driver.">
<polygon fill="white" stroke="#666666" points="359.88,-251.97 295.12,-251.97 295.12,-232.72 359.88,-232.72 359.88,-251.97"/>
<text xml:space="preserve" text-anchor="middle" x="327.5" y="-238.47" font-family="Helvetica,sans-Serif" font-size="10.00">LineSensor</text>
</a>
</g>
</g>
<!-- Node6&#45;&gt;Node3 -->
<g id="edge5_Node000003_Node000006" class="edge">
<title>Node6&#45;&gt;Node3</title>
<g id="a_edge5_Node000003_Node000006"><a xlink:title=" ">
<path fill="none" stroke="#9a32cd" stroke-dasharray="5,2" d="M371.59,-238.45C410.54,-234.27 464.43,-226.68 482.5,-215.35 494.1,-208.07 490.63,-199.83 500.5,-190.35 503.53,-187.44 507.08,-184.71 510.6,-182.3"/>
<polygon fill="#9a32cd" stroke="#9a32cd" points="371.39,-234.95 361.8,-239.45 372.11,-241.91 371.39,-234.95"/>
</a>
</g>
<text xml:space="preserve" text-anchor="start" x="414.25" y="-239.98" font-family="Helvetica,sans-Serif" font-size="10.00" fill="grey">_lineSensor</text>
</g>
<!-- Node7 -->
<g id="Node000007" class="node">
<title>Node7</title>
<g id="a_Node000007"><a xlink:href="class_dual_motor_controller.html" target="_top" xlink:title="Dual&#45;channel closed&#45;loop motor controller.">
<polygon fill="white" stroke="#666666" points="379,-214.97 276,-214.97 276,-195.72 379,-195.72 379,-214.97"/>
<text xml:space="preserve" text-anchor="middle" x="327.5" y="-201.47" font-family="Helvetica,sans-Serif" font-size="10.00">DualMotorController</text>
</a>
</g>
</g>
<!-- Node7&#45;&gt;Node3 -->
<g id="edge6_Node000003_Node000007" class="edge">
<title>Node7&#45;&gt;Node3</title>
<g id="a_edge6_Node000003_Node000007"><a xlink:title=" ">
<path fill="none" stroke="#9a32cd" stroke-dasharray="5,2" d="M390.49,-195.08C431.21,-188.34 481.76,-179.96 508.71,-175.5"/>
<polygon fill="#9a32cd" stroke="#9a32cd" points="390.08,-191.6 380.79,-196.69 391.23,-198.51 390.08,-191.6"/>
</a>
</g>
<text xml:space="preserve" text-anchor="start" x="403.75" y="-198.48" font-family="Helvetica,sans-Serif" font-size="10.00" fill="grey">_motorController</text>
</g>
<!-- Node8 -->
<g id="Node000008" class="node">
<title>Node8</title>
<g id="a_Node000008"><a xlink:href="class_l298_n_motor_driver_mega.html" target="_top" xlink:title=" ">
<polygon fill="white" stroke="#666666" points="189.75,-243.97 70.25,-243.97 70.25,-224.72 189.75,-224.72 189.75,-243.97"/>
<text xml:space="preserve" text-anchor="middle" x="130" y="-230.47" font-family="Helvetica,sans-Serif" font-size="10.00">L298NMotorDriverMega</text>
</a>
</g>
</g>
<!-- Node8&#45;&gt;Node7 -->
<g id="edge7_Node000007_Node000008" class="edge">
<title>Node8&#45;&gt;Node7</title>
<g id="a_edge7_Node000007_Node000008"><a xlink:title=" ">
<path fill="none" stroke="#9a32cd" stroke-dasharray="5,2" d="M201.3,-223.92C225.92,-220.27 253.07,-216.24 275.77,-212.87"/>
<polygon fill="#9a32cd" stroke="#9a32cd" points="201.06,-220.42 191.68,-225.35 202.09,-227.34 201.06,-220.42"/>
</a>
</g>
<text xml:space="preserve" text-anchor="start" x="210.75" y="-227.19" font-family="Helvetica,sans-Serif" font-size="10.00" fill="grey">dualDriver</text>
</g>
<!-- Node9 -->
<g id="Node000009" class="node">
<title>Node9</title>
<g id="a_Node000009"><a xlink:href="class_p_i_d_controller.html" target="_top" xlink:title="Full&#45;featured PID controller with anti&#45;windup, output filtering, and optional nonlinear extensions.">
<polygon fill="white" stroke="#666666" points="167.62,-171.97 92.38,-171.97 92.38,-152.72 167.62,-152.72 167.62,-171.97"/>
<text xml:space="preserve" text-anchor="middle" x="130" y="-158.47" font-family="Helvetica,sans-Serif" font-size="10.00">PIDController</text>
</a>
</g>
</g>
<!-- Node9&#45;&gt;Node3 -->
<g id="edge14_Node000003_Node000009" class="edge">
<title>Node9&#45;&gt;Node3</title>
<g id="a_edge14_Node000003_Node000009"><a xlink:title=" ">
<path fill="none" stroke="#9a32cd" stroke-dasharray="5,2" d="M179.09,-158.82C207.3,-156.93 243.66,-154.79 276,-153.85 321.76,-152.51 333.31,-151.02 379,-153.85 426.01,-156.76 480.91,-164.8 509.03,-169.26"/>
<polygon fill="#9a32cd" stroke="#9a32cd" points="179.17,-155.31 169.43,-159.48 179.65,-162.29 179.17,-155.31"/>
</a>
</g>
<text xml:space="preserve" text-anchor="start" x="282.5" y="-173.85" font-family="Helvetica,sans-Serif" font-size="10.00" fill="grey">_distanceSensorPID</text>
<text xml:space="preserve" text-anchor="start" x="282.5" y="-158.6" font-family="Helvetica,sans-Serif" font-size="10.00" fill="grey">_lineSensorPID</text>
</g>
<!-- Node9&#45;&gt;Node7 -->
<g id="edge8_Node000007_Node000009" class="edge">
<title>Node9&#45;&gt;Node7</title>
<g id="a_edge8_Node000007_Node000009"><a xlink:title=" ">
<path fill="none" stroke="#9a32cd" stroke-dasharray="5,2" d="M179.4,-165.89C203.31,-168.33 232.45,-172.35 258,-178.85 273.94,-182.9 291.21,-189.6 304.42,-195.25"/>
<polygon fill="#9a32cd" stroke="#9a32cd" points="179.91,-162.42 169.63,-164.95 179.25,-169.39 179.91,-162.42"/>
</a>
</g>
<text xml:space="preserve" text-anchor="start" x="221.25" y="-198.85" font-family="Helvetica,sans-Serif" font-size="10.00" fill="grey">_pid1</text>
<text xml:space="preserve" text-anchor="start" x="221.25" y="-183.6" font-family="Helvetica,sans-Serif" font-size="10.00" fill="grey">_pid2</text>
</g>
<!-- Node10 -->
<g id="Node000010" class="node">
<title>Node10</title>
<g id="a_Node000010"><a xlink:href="class_p_i_d.html" target="_top" xlink:title="Lightweight PID controller base class.">
<polygon fill="white" stroke="#666666" points="33.25,-171.97 0,-171.97 0,-152.72 33.25,-152.72 33.25,-171.97"/>
<text xml:space="preserve" text-anchor="middle" x="16.62" y="-158.47" font-family="Helvetica,sans-Serif" font-size="10.00">PID</text>
</a>
</g>
</g>
<!-- Node10&#45;&gt;Node9 -->
<g id="edge9_Node000009_Node000010" class="edge">
<title>Node10&#45;&gt;Node9</title>
<g id="a_edge9_Node000009_Node000010"><a xlink:title=" ">
<path fill="none" stroke="#63b8ff" d="M45.01,-162.35C59.14,-162.35 76.58,-162.35 91.9,-162.35"/>
<polygon fill="#63b8ff" stroke="#63b8ff" points="45.1,-158.85 35.1,-162.35 45.1,-165.85 45.1,-158.85"/>
</a>
</g>
</g>
<!-- Node11 -->
<g id="Node000011" class="node">
<title>Node11</title>
<g id="a_Node000011"><a xlink:href="class_sharp_g_p2_y0_a51.html" target="_top" xlink:title="Sharp GP2Y0A51 analog IR distance sensor driver.">
<polygon fill="white" stroke="#666666" points="372.62,-108.97 282.38,-108.97 282.38,-89.72 372.62,-89.72 372.62,-108.97"/>
<text xml:space="preserve" text-anchor="middle" x="327.5" y="-95.47" font-family="Helvetica,sans-Serif" font-size="10.00">SharpGP2Y0A51</text>
</a>
</g>
</g>
<!-- Node11&#45;&gt;Node3 -->
<g id="edge10_Node000003_Node000011" class="edge">
<title>Node11&#45;&gt;Node3</title>
<g id="a_edge10_Node000003_Node000011"><a xlink:title=" ">
<path fill="none" stroke="#9a32cd" stroke-dasharray="5,2" d="M384.43,-94.28C415.13,-93.96 452.87,-97.8 482.5,-114.1 502.47,-125.08 516.55,-148.95 523.27,-162.48"/>
<polygon fill="#9a32cd" stroke="#9a32cd" points="384.45,-90.77 374.55,-94.54 384.64,-97.77 384.45,-90.77"/>
</a>
</g>
<text xml:space="preserve" text-anchor="start" x="413.88" y="-118.85" font-family="Helvetica,sans-Serif" font-size="10.00" fill="grey">_distSensor</text>
</g>
<!-- Node12 -->
<g id="Node000012" class="node">
<title>Node12</title>
<g id="a_Node000012"><a xlink:href="class_odometry.html" target="_top" xlink:title="Tracks robot pose by integrating encoder wheel displacements.">
<polygon fill="white" stroke="#666666" points="356.88,-66.97 298.12,-66.97 298.12,-47.72 356.88,-47.72 356.88,-66.97"/>
<text xml:space="preserve" text-anchor="middle" x="327.5" y="-53.47" font-family="Helvetica,sans-Serif" font-size="10.00">Odometry</text>
</a>
</g>
</g>
<!-- Node12&#45;&gt;Node3 -->
<g id="edge11_Node000003_Node000012" class="edge">
<title>Node12&#45;&gt;Node3</title>
<g id="a_edge11_Node000003_Node000012"><a xlink:title=" ">
<path fill="none" stroke="#9a32cd" stroke-dasharray="5,2" d="M368.32,-46.01C401.74,-38.99 449.21,-35.13 482.5,-57.85 518.16,-82.19 525.72,-139.4 527.32,-162.46"/>
<polygon fill="#9a32cd" stroke="#9a32cd" points="367.57,-42.59 358.61,-48.24 369.14,-49.41 367.57,-42.59"/>
</a>
</g>
<text xml:space="preserve" text-anchor="start" x="400" y="-77.85" font-family="Helvetica,sans-Serif" font-size="10.00" fill="grey">_desiredOdometry</text>
<text xml:space="preserve" text-anchor="start" x="400" y="-62.6" font-family="Helvetica,sans-Serif" font-size="10.00" fill="grey">_odometry</text>
</g>
<!-- Node13 -->
<g id="Node000013" class="node">
<title>Node13</title>
<g id="a_Node000013"><a xlink:href="struct_odometry_1_1_pose2_d.html" target="_top" xlink:title="2&#45;D robot pose.">
<polygon fill="white" stroke="#666666" points="180,-66.97 80,-66.97 80,-47.72 180,-47.72 180,-66.97"/>
<text xml:space="preserve" text-anchor="middle" x="130" y="-53.47" font-family="Helvetica,sans-Serif" font-size="10.00">Odometry::Pose2D</text>
</a>
</g>
</g>
<!-- Node13&#45;&gt;Node12 -->
<g id="edge12_Node000012_Node000013" class="edge">
<title>Node13&#45;&gt;Node12</title>
<g id="a_edge12_Node000012_Node000013"><a xlink:title=" ">
<path fill="none" stroke="#9a32cd" stroke-dasharray="5,2" d="M191.53,-57.35C226.93,-57.35 270,-57.35 297.81,-57.35"/>
<polygon fill="#9a32cd" stroke="#9a32cd" points="191.85,-53.85 181.85,-57.35 191.85,-60.85 191.85,-53.85"/>
</a>
</g>
<text xml:space="preserve" text-anchor="start" x="219.75" y="-62.1" font-family="Helvetica,sans-Serif" font-size="10.00" fill="grey">_pose</text>
</g>
<!-- Node14 -->
<g id="Node000014" class="node">
<title>Node14</title>
<g id="a_Node000014"><a xlink:href="class_ramsete_controller.html" target="_top" xlink:title=" ">
<polygon fill="white" stroke="#666666" points="376.38,-26.97 278.62,-26.97 278.62,-7.72 376.38,-7.72 376.38,-26.97"/>
<text xml:space="preserve" text-anchor="middle" x="327.5" y="-13.47" font-family="Helvetica,sans-Serif" font-size="10.00">RamseteController</text>
</a>
</g>
</g>
<!-- Node14&#45;&gt;Node3 -->
<g id="edge13_Node000003_Node000014" class="edge">
<title>Node14&#45;&gt;Node3</title>
<g id="a_edge13_Node000003_Node000014"><a xlink:title=" ">
<path fill="none" stroke="#9a32cd" stroke-dasharray="5,2" d="M372.74,-4.87C406.22,1.74 451.56,4.3 482.5,-19.1 528.74,-54.07 529.64,-134.08 528.41,-162.28"/>
<polygon fill="#9a32cd" stroke="#9a32cd" points="372.39,-1.37 363.36,-6.92 373.88,-8.21 372.39,-1.37"/>
</a>
</g>
<text xml:space="preserve" text-anchor="start" x="419.5" y="-23.85" font-family="Helvetica,sans-Serif" font-size="10.00" fill="grey">_ramsete</text>
</g>
</g>
</svg>
