<?xml version="1.0" encoding="UTF-8" standalone="no"?>
<!DOCTYPE svg PUBLIC "-//W3C//DTD SVG 1.1//EN"
 "http://www.w3.org/Graphics/SVG/1.1/DTD/svg11.dtd">
<!-- Generated by graphviz version 14.1.2 (20260124.0452)
 -->
<!-- Title: RamseteController::step Pages: 1 -->
<svg width="288pt" height="76pt"
 viewBox="0.00 0.00 288.00 76.00" xmlns="http://www.w3.org/2000/svg" xmlns:xlink="http://www.w3.org/1999/xlink">
<g id="graph0" class="graph" transform="scale(1 1) rotate(0) translate(4 71.88)">
<title>RamseteController::step</title>
<!-- Node1 -->
<g id="Node000001" class="node">
<title>Node1</title>
<g id="a_Node000001"><a xlink:title=" ">
<polygon fill="#999999" stroke="#666666" points="122.5,-45.88 0,-45.88 0,-26.62 122.5,-26.62 122.5,-45.88"/>
<text xml:space="preserve" text-anchor="middle" x="61.25" y="-32.38" font-family="Helvetica,sans-Serif" font-size="10.00">RamseteController::step</text>
</a>
</g>
</g>
<!-- Node2 -->
<g id="Node000002" class="node">
<title>Node2</title>
<g id="a_Node000002"><a xlink:href="class_ramsete_controller.html#a5922365f9fb64f3383bfbd2dbd65d5ec" target="_top" xlink:title=" ">
<polygon fill="white" stroke="#666666" points="280.25,-67.88 158.5,-67.88 158.5,-48.62 280.25,-48.62 280.25,-67.88"/>
<text xml:space="preserve" text-anchor="middle" x="219.38" y="-54.38" font-family="Helvetica,sans-Serif" font-size="10.00">RamseteController::sinc</text>
</a>
</g>
</g>
<!-- Node1&#45;&gt;Node2 -->
<g id="edge1_Node000001_Node000002" class="edge">
<title>Node1&#45;&gt;Node2</title>
<g id="a_edge1_Node000001_Node000002"><a xlink:title=" ">
<path fill="none" stroke="#63b8ff" d="M122.61,-44.76C130.54,-45.87 138.73,-47.03 146.83,-48.17"/>
<polygon fill="#63b8ff" stroke="#63b8ff" points="146.28,-51.63 156.67,-49.56 147.26,-44.69 146.28,-51.63"/>
</a>
</g>
</g>
<!-- Node3 -->
<g id="Node000003" class="node">
<title>Node3</title>
<g id="a_Node000003"><a xlink:href="class_ramsete_controller.html#a99544340c0db835ff99a9d37581f3616" target="_top" xlink:title=" ">
<polygon fill="white" stroke="#666666" points="271.25,-30.5 167.5,-30.5 167.5,0 271.25,0 271.25,-30.5"/>
<text xml:space="preserve" text-anchor="start" x="175.5" y="-17" font-family="Helvetica,sans-Serif" font-size="10.00">RamseteController::</text>
<text xml:space="preserve" text-anchor="middle" x="219.38" y="-5.75" font-family="Helvetica,sans-Serif" font-size="10.00">wrapPi</text>
</a>
</g>
</g>
<!-- Node1&#45;&gt;Node3 -->
<g id="edge2_Node000001_Node000003" class="edge">
<title>Node1&#45;&gt;Node3</title>
<g id="a_edge2_Node000001_Node000003"><a xlink:title=" ">
<path fill="none" stroke="#63b8ff" d="M122.61,-28.13C133.57,-26.66 145.01,-25.12 156.02,-23.64"/>
<polygon fill="#63b8ff" stroke="#63b8ff" points="156.35,-27.12 165.8,-22.32 155.42,-20.19 156.35,-27.12"/>
</a>
</g>
</g>
</g>
</svg>
