<?xml version="1.0" encoding="UTF-8" standalone="no"?>
<!DOCTYPE svg PUBLIC "-//W3C//DTD SVG 1.1//EN"
 "http://www.w3.org/Graphics/SVG/1.1/DTD/svg11.dtd">
<!-- Generated by graphviz version 14.1.2 (20260124.0452)
 -->
<!-- Title: DeployRamp Pages: 1 -->
<svg width="187pt" height="188pt"
 viewBox="0.00 0.00 187.00 188.00" xmlns="http://www.w3.org/2000/svg" xmlns:xlink="http://www.w3.org/1999/xlink">
<g id="graph0" class="graph" transform="scale(1 1) rotate(0) translate(4 183.5)">
<title>DeployRamp</title>
<!-- Node1 -->
<g id="Node000001" class="node">
<title>Node1</title>
<g id="a_Node000001"><a xlink:title="Calls Miner::deployRamp() in start() and finishes immediately.">
<polygon fill="#999999" stroke="#666666" points="88.75,-19.25 15.75,-19.25 15.75,0 88.75,0 88.75,-19.25"/>
<text xml:space="preserve" text-anchor="middle" x="52.25" y="-5.75" font-family="Helvetica,sans-Serif" font-size="10.00">DeployRamp</text>
</a>
</g>
</g>
<!-- Node2 -->
<g id="Node000002" class="node">
<title>Node2</title>
<g id="a_Node000002"><a xlink:href="class_auto_step.html" target="_top" xlink:title="Pure&#45;virtual base class for all autonomous steps.">
<polygon fill="white" stroke="#666666" points="56.5,-91.75 0,-91.75 0,-72.5 56.5,-72.5 56.5,-91.75"/>
<text xml:space="preserve" text-anchor="middle" x="28.25" y="-78.25" font-family="Helvetica,sans-Serif" font-size="10.00">AutoStep</text>
</a>
</g>
</g>
<!-- Node2&#45;&gt;Node1 -->
<g id="edge1_Node000001_Node000002" class="edge">
<title>Node2&#45;&gt;Node1</title>
<g id="a_edge1_Node000001_Node000002"><a xlink:title=" ">
<path fill="none" stroke="#63b8ff" d="M34.94,-61.47C39.6,-47.79 45.59,-30.2 49.16,-19.7"/>
<polygon fill="#63b8ff" stroke="#63b8ff" points="31.69,-60.17 31.78,-70.76 38.31,-62.42 31.69,-60.17"/>
</a>
</g>
</g>
<!-- Node3 -->
<g id="Node000003" class="node">
<title>Node3</title>
<g id="a_Node000003"><a xlink:href="class_miner.html" target="_top" xlink:title="Servo&#45;driven block&#45;mining and ramp&#45;deployment subsystem.">
<polygon fill="white" stroke="#666666" points="114.25,-91.75 74.25,-91.75 74.25,-72.5 114.25,-72.5 114.25,-91.75"/>
<text xml:space="preserve" text-anchor="middle" x="94.25" y="-78.25" font-family="Helvetica,sans-Serif" font-size="10.00">Miner</text>
</a>
</g>
</g>
<!-- Node3&#45;&gt;Node1 -->
<g id="edge2_Node000001_Node000003" class="edge">
<title>Node3&#45;&gt;Node1</title>
<g id="a_edge2_Node000001_Node000003"><a xlink:title=" ">
<path fill="none" stroke="#9a32cd" stroke-dasharray="5,2" d="M83.27,-62.7C75.03,-48.87 64.1,-30.52 57.66,-19.7"/>
<polygon fill="#9a32cd" stroke="#9a32cd" points="80.03,-64.1 88.16,-70.9 86.04,-60.51 80.03,-64.1"/>
</a>
</g>
<text xml:space="preserve" text-anchor="start" x="81.25" y="-42" font-family="Helvetica,sans-Serif" font-size="10.00" fill="grey">miner</text>
</g>
<!-- Node4 -->
<g id="Node000004" class="node">
<title>Node4</title>
<g id="a_Node000004"><a xlink:href="class_subsystem.html" target="_top" xlink:title="Polymorphic interface for a robot subsystem.">
<polygon fill="white" stroke="#666666" points="83,-179.5 17.5,-179.5 17.5,-160.25 83,-160.25 83,-179.5"/>
<text xml:space="preserve" text-anchor="middle" x="50.25" y="-166" font-family="Helvetica,sans-Serif" font-size="10.00">Subsystem</text>
</a>
</g>
</g>
<!-- Node4&#45;&gt;Node3 -->
<g id="edge3_Node000003_Node000004" class="edge">
<title>Node4&#45;&gt;Node3</title>
<g id="a_edge3_Node000003_Node000004"><a xlink:title=" ">
<path fill="none" stroke="#63b8ff" d="M60.02,-149.83C69.25,-131.84 82.69,-105.65 89.67,-92.06"/>
<polygon fill="#63b8ff" stroke="#63b8ff" points="56.94,-148.18 55.48,-158.67 63.16,-151.38 56.94,-148.18"/>
</a>
</g>
</g>
<!-- Node5 -->
<g id="Node000005" class="node">
<title>Node5</title>
<g id="a_Node000005"><a xlink:href="class_servo_control.html" target="_top" xlink:title="Servo driver with angle clamping, inversion, and deferred writes.">
<polygon fill="white" stroke="#666666" points="173.75,-179.5 100.75,-179.5 100.75,-160.25 173.75,-160.25 173.75,-179.5"/>
<text xml:space="preserve" text-anchor="middle" x="137.25" y="-166" font-family="Helvetica,sans-Serif" font-size="10.00">ServoControl</text>
</a>
</g>
</g>
<!-- Node5&#45;&gt;Node3 -->
<g id="edge4_Node000003_Node000005" class="edge">
<title>Node5&#45;&gt;Node3</title>
<g id="a_edge4_Node000003_Node000005"><a xlink:title=" ">
<path fill="none" stroke="#9a32cd" stroke-dasharray="5,2" d="M127.7,-149.83C118.68,-131.84 105.55,-105.65 98.73,-92.06"/>
<polygon fill="#9a32cd" stroke="#9a32cd" points="124.52,-151.3 132.13,-158.67 130.78,-148.16 124.52,-151.3"/>
</a>
</g>
<text xml:space="preserve" text-anchor="start" x="126.34" y="-129.75" font-family="Helvetica,sans-Serif" font-size="10.00" fill="grey">minerServo</text>
<text xml:space="preserve" text-anchor="start" x="126.34" y="-114.5" font-family="Helvetica,sans-Serif" font-size="10.00" fill="grey">rampServo</text>
</g>
</g>
</svg>
