<?xml version="1.0" encoding="UTF-8" standalone="no"?>
<!DOCTYPE svg PUBLIC "-//W3C//DTD SVG 1.1//EN"
 "http://www.w3.org/Graphics/SVG/1.1/DTD/svg11.dtd">
<!-- Generated by graphviz version 14.1.2 (20260124.0452)
 -->
<!-- Title: CompositeStep Pages: 1 -->
<svg width="95pt" height="100pt"
 viewBox="0.00 0.00 95.00 100.00" xmlns="http://www.w3.org/2000/svg" xmlns:xlink="http://www.w3.org/1999/xlink">
<g id="graph0" class="graph" transform="scale(1 1) rotate(0) translate(4 95.75)">
<title>CompositeStep</title>
<!-- Node1 -->
<g id="Node000001" class="node">
<title>Node1</title>
<g id="a_Node000001"><a xlink:title="Sequences heap&#45;allocated child AutoStep objects, deleting each upon completion.">
<polygon fill="#999999" stroke="#666666" points="83.5,-19.25 0,-19.25 0,0 83.5,0 83.5,-19.25"/>
<text xml:space="preserve" text-anchor="middle" x="41.75" y="-5.75" font-family="Helvetica,sans-Serif" font-size="10.00">CompositeStep</text>
</a>
</g>
</g>
<!-- Node2 -->
<g id="Node000002" class="node">
<title>Node2</title>
<g id="a_Node000002"><a xlink:href="class_auto_step.html" target="_top" xlink:title="Pure&#45;virtual base class for all autonomous steps.">
<polygon fill="white" stroke="#666666" points="70,-91.75 13.5,-91.75 13.5,-72.5 70,-72.5 70,-91.75"/>
<text xml:space="preserve" text-anchor="middle" x="41.75" y="-78.25" font-family="Helvetica,sans-Serif" font-size="10.00">AutoStep</text>
</a>
</g>
</g>
<!-- Node2&#45;&gt;Node1 -->
<g id="edge1_Node000001_Node000002" class="edge">
<title>Node2&#45;&gt;Node1</title>
<g id="a_edge1_Node000001_Node000002"><a xlink:title=" ">
<path fill="none" stroke="#63b8ff" d="M40.06,-60.78C39.94,-58.66 39.83,-56.54 39.75,-54.5 39.46,-46.84 39.46,-44.91 39.75,-37.25 39.97,-31.32 40.47,-24.66 40.92,-19.49"/>
<polygon fill="#63b8ff" stroke="#63b8ff" points="36.57,-61.04 40.8,-70.75 43.55,-60.52 36.57,-61.04"/>
</a>
</g>
</g>
<!-- Node2&#45;&gt;Node1 -->
<g id="edge2_Node000001_Node000002" class="edge">
<title>Node2&#45;&gt;Node1</title>
<g id="a_edge2_Node000001_Node000002"><a xlink:title=" ">
<path fill="none" stroke="#9a32cd" stroke-dasharray="5,2" d="M41.75,-61.05C41.75,-47.44 41.75,-30.1 41.75,-19.7"/>
<polygon fill="#9a32cd" stroke="#9a32cd" points="38.25,-60.68 41.75,-70.68 45.25,-60.68 38.25,-60.68"/>
</a>
</g>
<text xml:space="preserve" text-anchor="start" x="44.75" y="-42" font-family="Helvetica,sans-Serif" font-size="10.00" fill="grey">_children</text>
</g>
</g>
</svg>
