<?xml version="1.0" encoding="UTF-8" standalone="no"?>
<!DOCTYPE svg PUBLIC "-//W3C//DTD SVG 1.1//EN"
 "http://www.w3.org/Graphics/SVG/1.1/DTD/svg11.dtd">
<!-- Generated by graphviz version 14.1.2 (20260124.0452)
 -->
<!-- Title: Robot Pages: 1 -->
<svg width="751pt" height="631pt"
 viewBox="0.00 0.00 751.00 631.00" xmlns="http://www.w3.org/2000/svg" xmlns:xlink="http://www.w3.org/1999/xlink">
<g id="graph0" class="graph" transform="scale(1 1) rotate(0) translate(4 626.78)">
<title>Robot</title>
<!-- Node1 -->
<g id="Node000001" class="node">
<title>Node1</title>
<g id="a_Node000001"><a xlink:title="Aggregates all robot subsystems and drives the main control loop.">
<polygon fill="#999999" stroke="#666666" points="742.5,-479.11 700.25,-479.11 700.25,-459.86 742.5,-459.86 742.5,-479.11"/>
<text xml:space="preserve" text-anchor="middle" x="721.38" y="-465.61" font-family="Helvetica,sans-Serif" font-size="10.00">Robot</text>
</a>
</g>
</g>
<!-- Node2 -->
<g id="Node000002" class="node">
<title>Node2</title>
<g id="a_Node000002"><a xlink:href="class_drive.html" target="_top" xlink:title=" ">
<polygon fill="white" stroke="#666666" points="572.38,-223.11 533.12,-223.11 533.12,-203.86 572.38,-203.86 572.38,-223.11"/>
<text xml:space="preserve" text-anchor="middle" x="552.75" y="-209.61" font-family="Helvetica,sans-Serif" font-size="10.00">Drive</text>
</a>
</g>
</g>
<!-- Node2&#45;&gt;Node1 -->
<g id="edge1_Node000001_Node000002" class="edge">
<title>Node2&#45;&gt;Node1</title>
<g id="a_edge1_Node000001_Node000002"><a xlink:title=" ">
<path fill="none" stroke="#9a32cd" stroke-dasharray="5,2" d="M566.52,-233.11C599.94,-284.45 689.08,-421.4 713.89,-459.52"/>
<polygon fill="#9a32cd" stroke="#9a32cd" points="569.5,-231.26 561.11,-224.79 563.63,-235.08 569.5,-231.26"/>
</a>
</g>
<text xml:space="preserve" text-anchor="start" x="642.12" y="-412.37" font-family="Helvetica,sans-Serif" font-size="10.00" fill="grey">drive</text>
</g>
<!-- Node3 -->
<g id="Node000003" class="node">
<title>Node3</title>
<g id="a_Node000003"><a xlink:href="class_subsystem.html" target="_top" xlink:title="Polymorphic interface for a robot subsystem.">
<polygon fill="white" stroke="#666666" points="360.25,-521.11 294.75,-521.11 294.75,-501.86 360.25,-501.86 360.25,-521.11"/>
<text xml:space="preserve" text-anchor="middle" x="327.5" y="-507.61" font-family="Helvetica,sans-Serif" font-size="10.00">Subsystem</text>
</a>
</g>
</g>
<!-- Node3&#45;&gt;Node1 -->
<g id="edge26_Node000001_Node000003" class="edge">
<title>Node3&#45;&gt;Node1</title>
<g id="a_edge26_Node000001_Node000003"><a xlink:title=" ">
<path fill="none" stroke="#9a32cd" stroke-dasharray="5,2" d="M371.98,-514.4C380.28,-514.85 388.91,-515.25 397,-515.48 523.92,-519.19 564.02,-545.79 682.25,-499.48 693.39,-495.12 703.9,-486.37 711.05,-479.44"/>
<polygon fill="#9a32cd" stroke="#9a32cd" points="372.24,-510.91 362.05,-513.83 371.84,-517.9 372.24,-510.91"/>
</a>
</g>
<text xml:space="preserve" text-anchor="start" x="526.12" y="-531.18" font-family="Helvetica,sans-Serif" font-size="10.00" fill="grey">subsystems</text>
</g>
<!-- Node3&#45;&gt;Node2 -->
<g id="edge2_Node000002_Node000003" class="edge">
<title>Node3&#45;&gt;Node2</title>
<g id="a_edge2_Node000002_Node000003"><a xlink:title=" ">
<path fill="none" stroke="#63b8ff" d="M355.31,-496.06C367.75,-489.25 382.89,-481.45 397,-475.48 433.83,-459.9 454.64,-476.16 482.5,-447.48 498.92,-430.58 539.11,-266.29 549.35,-223.59"/>
<polygon fill="#63b8ff" stroke="#63b8ff" points="353.92,-492.83 346.89,-500.75 357.33,-498.94 353.92,-492.83"/>
</a>
</g>
</g>
<!-- Node14 -->
<g id="Node000014" class="node">
<title>Node14</title>
<g id="a_Node000014"><a xlink:href="class_miner.html" target="_top" xlink:title="Servo&#45;driven block&#45;mining and ramp&#45;deployment subsystem.">
<polygon fill="white" stroke="#666666" points="572.75,-591.11 532.75,-591.11 532.75,-571.86 572.75,-571.86 572.75,-591.11"/>
<text xml:space="preserve" text-anchor="middle" x="552.75" y="-577.61" font-family="Helvetica,sans-Serif" font-size="10.00">Miner</text>
</a>
</g>
</g>
<!-- Node3&#45;&gt;Node14 -->
<g id="edge15_Node000014_Node000003" class="edge">
<title>Node3&#45;&gt;Node14</title>
<g id="a_edge15_Node000014_Node000003"><a xlink:title=" ">
<path fill="none" stroke="#63b8ff" d="M354.29,-527.14C366.82,-534.19 382.31,-542.12 397,-547.48 444.28,-564.75 503.04,-574.7 532.71,-578.98"/>
<polygon fill="#63b8ff" stroke="#63b8ff" points="356.26,-524.24 345.85,-522.25 352.75,-530.29 356.26,-524.24"/>
</a>
</g>
</g>
<!-- Node16 -->
<g id="Node000016" class="node">
<title>Node16</title>
<g id="a_Node000016"><a xlink:href="class_shooter.html" target="_top" xlink:title="Rack&#45;and&#45;pinion block shooter controlled by encoder feedback.">
<polygon fill="white" stroke="#666666" points="577.62,-439.11 527.88,-439.11 527.88,-419.86 577.62,-419.86 577.62,-439.11"/>
<text xml:space="preserve" text-anchor="middle" x="552.75" y="-425.61" font-family="Helvetica,sans-Serif" font-size="10.00">Shooter</text>
</a>
</g>
</g>
<!-- Node3&#45;&gt;Node16 -->
<g id="edge18_Node000016_Node000003" class="edge">
<title>Node3&#45;&gt;Node16</title>
<g id="a_edge18_Node000016_Node000003"><a xlink:title=" ">
<path fill="none" stroke="#63b8ff" d="M371.74,-504.23C403.25,-498.07 446.56,-487.76 482.5,-472.48 503.21,-463.68 524.91,-449.23 538.38,-439.53"/>
<polygon fill="#63b8ff" stroke="#63b8ff" points="371.36,-500.74 362.18,-506.03 372.65,-507.62 371.36,-500.74"/>
</a>
</g>
</g>
<!-- Node18 -->
<g id="Node000018" class="node">
<title>Node18</title>
<g id="a_Node000018"><a xlink:href="class_serial_coms.html" target="_top" xlink:title="Newline&#45;delimited ASCII command receiver for Arduino&#45;to&#45;Arduino comms.">
<polygon fill="white" stroke="#666666" points="586.25,-495.11 519.25,-495.11 519.25,-475.86 586.25,-475.86 586.25,-495.11"/>
<text xml:space="preserve" text-anchor="middle" x="552.75" y="-481.61" font-family="Helvetica,sans-Serif" font-size="10.00">SerialComs</text>
</a>
</g>
</g>
<!-- Node3&#45;&gt;Node18 -->
<g id="edge23_Node000018_Node000003" class="edge">
<title>Node3&#45;&gt;Node18</title>
<g id="a_edge23_Node000018_Node000003"><a xlink:title=" ">
<path fill="none" stroke="#63b8ff" d="M371.98,-508.47C402.88,-506.1 445.33,-502.38 482.5,-497.48 494.48,-495.9 507.55,-493.75 519.07,-491.7"/>
<polygon fill="#63b8ff" stroke="#63b8ff" points="371.95,-504.97 362.24,-509.2 372.48,-511.95 371.95,-504.97"/>
</a>
</g>
</g>
<!-- Node4 -->
<g id="Node000004" class="node">
<title>Node4</title>
<g id="a_Node000004"><a xlink:href="class_encoder_wrapper.html" target="_top" xlink:title="Quadrature encoder driver with velocity and acceleration estimation.">
<polygon fill="white" stroke="#666666" points="371.5,-303.11 283.5,-303.11 283.5,-283.86 371.5,-283.86 371.5,-303.11"/>
<text xml:space="preserve" text-anchor="middle" x="327.5" y="-289.61" font-family="Helvetica,sans-Serif" font-size="10.00">EncoderWrapper</text>
</a>
</g>
</g>
<!-- Node4&#45;&gt;Node2 -->
<g id="edge3_Node000002_Node000004" class="edge">
<title>Node4&#45;&gt;Node2</title>
<g id="a_edge3_Node000002_Node000004"><a xlink:title=" ">
<path fill="none" stroke="#9a32cd" stroke-dasharray="5,2" d="M353.52,-277.42C366.17,-269.82 382,-261.1 397,-254.98 403.39,-252.38 492.91,-228.86 532.8,-218.43"/>
<polygon fill="#9a32cd" stroke="#9a32cd" points="351.69,-274.44 345.01,-282.66 355.36,-280.4 351.69,-274.44"/>
</a>
</g>
<text xml:space="preserve" text-anchor="start" x="409.75" y="-274.98" font-family="Helvetica,sans-Serif" font-size="10.00" fill="grey">_leftEncoder</text>
<text xml:space="preserve" text-anchor="start" x="409.75" y="-259.73" font-family="Helvetica,sans-Serif" font-size="10.00" fill="grey">_rightEncoder</text>
</g>
<!-- Node4&#45;&gt;Node16 -->
<g id="edge21_Node000016_Node000004" class="edge">
<title>Node4&#45;&gt;Node16</title>
<g id="a_edge21_Node000016_Node000004"><a xlink:title=" ">
<path fill="none" stroke="#9a32cd" stroke-dasharray="5,2" d="M383.16,-292.69C420.66,-293.13 466.44,-295.92 482.5,-306.23 524.63,-333.28 543.59,-395.49 549.55,-419.64"/>
<polygon fill="#9a32cd" stroke="#9a32cd" points="383.36,-289.19 373.34,-292.63 383.32,-296.19 383.36,-289.19"/>
</a>
</g>
<text xml:space="preserve" text-anchor="start" x="422.5" y="-310.98" font-family="Helvetica,sans-Serif" font-size="10.00" fill="grey">encoder</text>
</g>
<!-- Node5 -->
<g id="Node000005" class="node">
<title>Node5</title>
<g id="a_Node000005"><a xlink:href="class_line_sensor.html" target="_top" xlink:title="Pololu QTR&#45;MD&#45;08RC 8&#45;channel line sensor driver.">
<polygon fill="white" stroke="#666666" points="359.88,-62.11 295.12,-62.11 295.12,-42.86 359.88,-42.86 359.88,-62.11"/>
<text xml:space="preserve" text-anchor="middle" x="327.5" y="-48.61" font-family="Helvetica,sans-Serif" font-size="10.00">LineSensor</text>
</a>
</g>
</g>
<!-- Node5&#45;&gt;Node2 -->
<g id="edge4_Node000002_Node000005" class="edge">
<title>Node5&#45;&gt;Node2</title>
<g id="a_edge4_Node000002_Node000005"><a xlink:title=" ">
<path fill="none" stroke="#9a32cd" stroke-dasharray="5,2" d="M371.62,-42.56C405.18,-37.46 451.18,-36.54 482.5,-60.23 502.42,-75.3 490.78,-90.47 500.5,-113.48 514.85,-147.45 535.95,-185.77 546.01,-203.5"/>
<polygon fill="#9a32cd" stroke="#9a32cd" points="371.06,-39.1 361.8,-44.25 372.25,-46 371.06,-39.1"/>
</a>
</g>
<text xml:space="preserve" text-anchor="start" x="414.25" y="-64.98" font-family="Helvetica,sans-Serif" font-size="10.00" fill="grey">_lineSensor</text>
</g>
<!-- Node6 -->
<g id="Node000006" class="node">
<title>Node6</title>
<g id="a_Node000006"><a xlink:href="class_dual_motor_controller.html" target="_top" xlink:title="Dual&#45;channel closed&#45;loop motor controller.">
<polygon fill="white" stroke="#666666" points="379,-359.11 276,-359.11 276,-339.86 379,-339.86 379,-359.11"/>
<text xml:space="preserve" text-anchor="middle" x="327.5" y="-345.61" font-family="Helvetica,sans-Serif" font-size="10.00">DualMotorController</text>
</a>
</g>
</g>
<!-- Node6&#45;&gt;Node2 -->
<g id="edge5_Node000002_Node000006" class="edge">
<title>Node6&#45;&gt;Node2</title>
<g id="a_edge5_Node000002_Node000006"><a xlink:title=" ">
<path fill="none" stroke="#9a32cd" stroke-dasharray="5,2" d="M390.36,-352.54C420.36,-351.21 455.62,-345.23 482.5,-327.48 521.35,-301.84 541.88,-246.19 548.91,-223.46"/>
<polygon fill="#9a32cd" stroke="#9a32cd" points="390.57,-349.04 380.67,-352.8 390.76,-356.04 390.57,-349.04"/>
</a>
</g>
<text xml:space="preserve" text-anchor="start" x="403.75" y="-356.76" font-family="Helvetica,sans-Serif" font-size="10.00" fill="grey">_motorController</text>
</g>
<!-- Node6&#45;&gt;Node16 -->
<g id="edge20_Node000016_Node000006" class="edge">
<title>Node6&#45;&gt;Node16</title>
<g id="a_edge20_Node000016_Node000006"><a xlink:title=" ">
<path fill="none" stroke="#9a32cd" stroke-dasharray="5,2" d="M367.1,-363.32C413.27,-379.86 489.15,-407.05 527.68,-420.86"/>
<polygon fill="#9a32cd" stroke="#9a32cd" points="368.34,-360.04 357.75,-359.96 365.98,-366.63 368.34,-360.04"/>
</a>
</g>
<text xml:space="preserve" text-anchor="start" x="427.38" y="-408.36" font-family="Helvetica,sans-Serif" font-size="10.00" fill="grey">motor</text>
</g>
<!-- Node7 -->
<g id="Node000007" class="node">
<title>Node7</title>
<g id="a_Node000007"><a xlink:href="class_l298_n_motor_driver_mega.html" target="_top" xlink:title=" ">
<polygon fill="white" stroke="#666666" points="189.75,-359.11 70.25,-359.11 70.25,-339.86 189.75,-339.86 189.75,-359.11"/>
<text xml:space="preserve" text-anchor="middle" x="130" y="-345.61" font-family="Helvetica,sans-Serif" font-size="10.00">L298NMotorDriverMega</text>
</a>
</g>
</g>
<!-- Node7&#45;&gt;Node6 -->
<g id="edge6_Node000006_Node000007" class="edge">
<title>Node7&#45;&gt;Node6</title>
<g id="a_edge6_Node000006_Node000007"><a xlink:title=" ">
<path fill="none" stroke="#9a32cd" stroke-dasharray="5,2" d="M201.63,-349.48C226.16,-349.48 253.17,-349.48 275.77,-349.48"/>
<polygon fill="#9a32cd" stroke="#9a32cd" points="201.7,-345.98 191.7,-349.48 201.7,-352.98 201.7,-345.98"/>
</a>
</g>
<text xml:space="preserve" text-anchor="start" x="210.75" y="-354.23" font-family="Helvetica,sans-Serif" font-size="10.00" fill="grey">dualDriver</text>
</g>
<!-- Node8 -->
<g id="Node000008" class="node">
<title>Node8</title>
<g id="a_Node000008"><a xlink:href="class_p_i_d_controller.html" target="_top" xlink:title="Full&#45;featured PID controller with anti&#45;windup, output filtering, and optional nonlinear extensions.">
<polygon fill="white" stroke="#666666" points="167.62,-219.11 92.38,-219.11 92.38,-199.86 167.62,-199.86 167.62,-219.11"/>
<text xml:space="preserve" text-anchor="middle" x="130" y="-205.61" font-family="Helvetica,sans-Serif" font-size="10.00">PIDController</text>
</a>
</g>
</g>
<!-- Node8&#45;&gt;Node2 -->
<g id="edge13_Node000002_Node000008" class="edge">
<title>Node8&#45;&gt;Node2</title>
<g id="a_edge13_Node000002_Node000008"><a xlink:title=" ">
<path fill="none" stroke="#9a32cd" stroke-dasharray="5,2" d="M179.23,-200.93C207.36,-196.38 243.57,-191.26 276,-188.98 321.66,-185.77 333.34,-185.76 379,-188.98 435.2,-192.95 500.93,-204.08 532.67,-209.88"/>
<polygon fill="#9a32cd" stroke="#9a32cd" points="178.89,-197.44 169.59,-202.53 180.03,-204.35 178.89,-197.44"/>
</a>
</g>
<text xml:space="preserve" text-anchor="start" x="282.5" y="-208.98" font-family="Helvetica,sans-Serif" font-size="10.00" fill="grey">_distanceSensorPID</text>
<text xml:space="preserve" text-anchor="start" x="282.5" y="-193.73" font-family="Helvetica,sans-Serif" font-size="10.00" fill="grey">_lineSensorPID</text>
</g>
<!-- Node8&#45;&gt;Node6 -->
<g id="edge7_Node000006_Node000008" class="edge">
<title>Node8&#45;&gt;Node6</title>
<g id="a_edge7_Node000006_Node000008"><a xlink:title=" ">
<path fill="none" stroke="#9a32cd" stroke-dasharray="5,2" d="M154.28,-226.16C195.34,-255.55 279.37,-315.73 312.57,-339.51"/>
<polygon fill="#9a32cd" stroke="#9a32cd" points="156.46,-223.41 146.29,-220.43 152.38,-229.1 156.46,-223.41"/>
</a>
</g>
<text xml:space="preserve" text-anchor="start" x="221.25" y="-320.2" font-family="Helvetica,sans-Serif" font-size="10.00" fill="grey">_pid1</text>
<text xml:space="preserve" text-anchor="start" x="221.25" y="-304.95" font-family="Helvetica,sans-Serif" font-size="10.00" fill="grey">_pid2</text>
</g>
<!-- Node9 -->
<g id="Node000009" class="node">
<title>Node9</title>
<g id="a_Node000009"><a xlink:href="class_p_i_d.html" target="_top" xlink:title="Lightweight PID controller base class.">
<polygon fill="white" stroke="#666666" points="33.25,-219.11 0,-219.11 0,-199.86 33.25,-199.86 33.25,-219.11"/>
<text xml:space="preserve" text-anchor="middle" x="16.62" y="-205.61" font-family="Helvetica,sans-Serif" font-size="10.00">PID</text>
</a>
</g>
</g>
<!-- Node9&#45;&gt;Node8 -->
<g id="edge8_Node000008_Node000009" class="edge">
<title>Node9&#45;&gt;Node8</title>
<g id="a_edge8_Node000008_Node000009"><a xlink:title=" ">
<path fill="none" stroke="#63b8ff" d="M45.01,-209.48C59.14,-209.48 76.58,-209.48 91.9,-209.48"/>
<polygon fill="#63b8ff" stroke="#63b8ff" points="45.1,-205.98 35.1,-209.48 45.1,-212.98 45.1,-205.98"/>
</a>
</g>
</g>
<!-- Node10 -->
<g id="Node000010" class="node">
<title>Node10</title>
<g id="a_Node000010"><a xlink:href="class_sharp_g_p2_y0_a51.html" target="_top" xlink:title="Sharp GP2Y0A51 analog IR distance sensor driver.">
<polygon fill="white" stroke="#666666" points="372.62,-250.11 282.38,-250.11 282.38,-230.86 372.62,-230.86 372.62,-250.11"/>
<text xml:space="preserve" text-anchor="middle" x="327.5" y="-236.61" font-family="Helvetica,sans-Serif" font-size="10.00">SharpGP2Y0A51</text>
</a>
</g>
</g>
<!-- Node10&#45;&gt;Node2 -->
<g id="edge9_Node000002_Node000010" class="edge">
<title>Node10&#45;&gt;Node2</title>
<g id="a_edge9_Node000002_Node000010"><a xlink:title=" ">
<path fill="none" stroke="#9a32cd" stroke-dasharray="5,2" d="M359.34,-225.95C370.88,-221.24 384.29,-216.62 397,-214.23 445.32,-205.17 503.64,-208.68 532.96,-211.42"/>
<polygon fill="#9a32cd" stroke="#9a32cd" points="358.11,-222.67 350.31,-229.83 360.88,-229.1 358.11,-222.67"/>
</a>
</g>
<text xml:space="preserve" text-anchor="start" x="413.88" y="-218.98" font-family="Helvetica,sans-Serif" font-size="10.00" fill="grey">_distSensor</text>
</g>
<!-- Node11 -->
<g id="Node000011" class="node">
<title>Node11</title>
<g id="a_Node000011"><a xlink:href="class_odometry.html" target="_top" xlink:title="Tracks robot pose by integrating encoder wheel displacements.">
<polygon fill="white" stroke="#666666" points="356.88,-142.11 298.12,-142.11 298.12,-122.86 356.88,-122.86 356.88,-142.11"/>
<text xml:space="preserve" text-anchor="middle" x="327.5" y="-128.61" font-family="Helvetica,sans-Serif" font-size="10.00">Odometry</text>
</a>
</g>
</g>
<!-- Node11&#45;&gt;Node2 -->
<g id="edge10_Node000002_Node000011" class="edge">
<title>Node11&#45;&gt;Node2</title>
<g id="a_edge10_Node000002_Node000011"><a xlink:title=" ">
<path fill="none" stroke="#9a32cd" stroke-dasharray="5,2" d="M368.51,-124.2C400.8,-119.5 446.6,-117.43 482.5,-133.98 514.25,-148.62 537.17,-185.67 546.76,-203.54"/>
<polygon fill="#9a32cd" stroke="#9a32cd" points="368.08,-120.72 358.77,-125.78 369.2,-127.63 368.08,-120.72"/>
</a>
</g>
<text xml:space="preserve" text-anchor="start" x="400" y="-153.98" font-family="Helvetica,sans-Serif" font-size="10.00" fill="grey">_desiredOdometry</text>
<text xml:space="preserve" text-anchor="start" x="400" y="-138.73" font-family="Helvetica,sans-Serif" font-size="10.00" fill="grey">_odometry</text>
</g>
<!-- Node12 -->
<g id="Node000012" class="node">
<title>Node12</title>
<g id="a_Node000012"><a xlink:href="struct_odometry_1_1_pose2_d.html" target="_top" xlink:title="2&#45;D robot pose.">
<polygon fill="white" stroke="#666666" points="180,-142.11 80,-142.11 80,-122.86 180,-122.86 180,-142.11"/>
<text xml:space="preserve" text-anchor="middle" x="130" y="-128.61" font-family="Helvetica,sans-Serif" font-size="10.00">Odometry::Pose2D</text>
</a>
</g>
</g>
<!-- Node12&#45;&gt;Node11 -->
<g id="edge11_Node000011_Node000012" class="edge">
<title>Node12&#45;&gt;Node11</title>
<g id="a_edge11_Node000011_Node000012"><a xlink:title=" ">
<path fill="none" stroke="#9a32cd" stroke-dasharray="5,2" d="M191.53,-132.48C226.93,-132.48 270,-132.48 297.81,-132.48"/>
<polygon fill="#9a32cd" stroke="#9a32cd" points="191.85,-128.98 181.85,-132.48 191.85,-135.98 191.85,-128.98"/>
</a>
</g>
<text xml:space="preserve" text-anchor="start" x="219.75" y="-137.23" font-family="Helvetica,sans-Serif" font-size="10.00" fill="grey">_pose</text>
</g>
<!-- Node13 -->
<g id="Node000013" class="node">
<title>Node13</title>
<g id="a_Node000013"><a xlink:href="class_ramsete_controller.html" target="_top" xlink:title=" ">
<polygon fill="white" stroke="#666666" points="376.38,-102.11 278.62,-102.11 278.62,-82.86 376.38,-82.86 376.38,-102.11"/>
<text xml:space="preserve" text-anchor="middle" x="327.5" y="-88.61" font-family="Helvetica,sans-Serif" font-size="10.00">RamseteController</text>
</a>
</g>
</g>
<!-- Node13&#45;&gt;Node2 -->
<g id="edge12_Node000002_Node000013" class="edge">
<title>Node13&#45;&gt;Node2</title>
<g id="a_edge12_Node000002_Node000013"><a xlink:title=" ">
<path fill="none" stroke="#9a32cd" stroke-dasharray="5,2" d="M387.88,-82.41C418.16,-80.28 454.43,-82.6 482.5,-99.23 503.05,-111.41 535.37,-177.97 547.21,-203.5"/>
<polygon fill="#9a32cd" stroke="#9a32cd" points="387.75,-78.91 378.1,-83.29 388.37,-85.88 387.75,-78.91"/>
</a>
</g>
<text xml:space="preserve" text-anchor="start" x="419.5" y="-103.98" font-family="Helvetica,sans-Serif" font-size="10.00" fill="grey">_ramsete</text>
</g>
<!-- Node14&#45;&gt;Node1 -->
<g id="edge14_Node000001_Node000014" class="edge">
<title>Node14&#45;&gt;Node1</title>
<g id="a_edge14_Node000001_Node000014"><a xlink:title=" ">
<path fill="none" stroke="#9a32cd" stroke-dasharray="5,2" d="M584.21,-581.36C612.52,-579.72 654.39,-573.19 682.25,-550.48 705.02,-531.93 714.95,-496.62 718.59,-479.41"/>
<polygon fill="#9a32cd" stroke="#9a32cd" points="584.36,-577.85 574.5,-581.74 584.63,-584.85 584.36,-577.85"/>
</a>
</g>
<text xml:space="preserve" text-anchor="start" x="640.62" y="-580.81" font-family="Helvetica,sans-Serif" font-size="10.00" fill="grey">miner</text>
</g>
<!-- Node15 -->
<g id="Node000015" class="node">
<title>Node15</title>
<g id="a_Node000015"><a xlink:href="class_servo_control.html" target="_top" xlink:title="Servo driver with angle clamping, inversion, and deferred writes.">
<polygon fill="white" stroke="#666666" points="364,-604.11 291,-604.11 291,-584.86 364,-584.86 364,-604.11"/>
<text xml:space="preserve" text-anchor="middle" x="327.5" y="-590.61" font-family="Helvetica,sans-Serif" font-size="10.00">ServoControl</text>
</a>
</g>
</g>
<!-- Node15&#45;&gt;Node14 -->
<g id="edge16_Node000014_Node000015" class="edge">
<title>Node15&#45;&gt;Node14</title>
<g id="a_edge16_Node000014_Node000015"><a xlink:title=" ">
<path fill="none" stroke="#9a32cd" stroke-dasharray="5,2" d="M375.56,-591.74C424.25,-588.91 497.92,-584.62 532.52,-582.6"/>
<polygon fill="#9a32cd" stroke="#9a32cd" points="375.66,-588.23 365.88,-592.31 376.07,-595.22 375.66,-588.23"/>
</a>
</g>
<text xml:space="preserve" text-anchor="start" x="415" y="-610.28" font-family="Helvetica,sans-Serif" font-size="10.00" fill="grey">minerServo</text>
<text xml:space="preserve" text-anchor="start" x="415" y="-595.03" font-family="Helvetica,sans-Serif" font-size="10.00" fill="grey">rampServo</text>
</g>
<!-- Node16&#45;&gt;Node1 -->
<g id="edge17_Node000001_Node000016" class="edge">
<title>Node16&#45;&gt;Node1</title>
<g id="a_edge17_Node000001_Node000016"><a xlink:title=" ">
<path fill="none" stroke="#9a32cd" stroke-dasharray="5,2" d="M589.1,-433.33C615.23,-436.75 651.47,-442.71 682.25,-452.23 688.36,-454.12 694.77,-456.75 700.56,-459.39"/>
<polygon fill="#9a32cd" stroke="#9a32cd" points="589.71,-429.88 579.36,-432.12 588.85,-436.82 589.71,-429.88"/>
</a>
</g>
<text xml:space="preserve" text-anchor="start" x="636.5" y="-456.98" font-family="Helvetica,sans-Serif" font-size="10.00" fill="grey">shooter</text>
</g>
<!-- Node17 -->
<g id="Node000017" class="node">
<title>Node17</title>
<g id="a_Node000017"><a xlink:href="class_button.html" target="_top" xlink:title="Digital button / limit&#45;switch driver.">
<polygon fill="white" stroke="#666666" points="349.75,-439.11 305.25,-439.11 305.25,-419.86 349.75,-419.86 349.75,-439.11"/>
<text xml:space="preserve" text-anchor="middle" x="327.5" y="-425.61" font-family="Helvetica,sans-Serif" font-size="10.00">Button</text>
</a>
</g>
</g>
<!-- Node17&#45;&gt;Node16 -->
<g id="edge19_Node000016_Node000017" class="edge">
<title>Node17&#45;&gt;Node16</title>
<g id="a_edge19_Node000016_Node000017"><a xlink:title=" ">
<path fill="none" stroke="#9a32cd" stroke-dasharray="5,2" d="M361.41,-429.48C406.68,-429.48 487.13,-429.48 527.38,-429.48"/>
<polygon fill="#9a32cd" stroke="#9a32cd" points="361.42,-425.98 351.42,-429.48 361.42,-432.98 361.42,-425.98"/>
</a>
</g>
<text xml:space="preserve" text-anchor="start" x="411.25" y="-434.23" font-family="Helvetica,sans-Serif" font-size="10.00" fill="grey">block_switch</text>
</g>
<!-- Node18&#45;&gt;Node1 -->
<g id="edge22_Node000001_Node000018" class="edge">
<title>Node18&#45;&gt;Node1</title>
<g id="a_edge22_Node000001_Node000018"><a xlink:title=" ">
<path fill="none" stroke="#9a32cd" stroke-dasharray="5,2" d="M597.9,-481.24C631.03,-478.06 674.86,-473.85 700.1,-471.43"/>
<polygon fill="#9a32cd" stroke="#9a32cd" points="597.8,-477.74 588.18,-482.18 598.47,-484.7 597.8,-477.74"/>
</a>
</g>
<text xml:space="preserve" text-anchor="start" x="627.88" y="-483.19" font-family="Helvetica,sans-Serif" font-size="10.00" fill="grey">serialComs</text>
</g>
<!-- Node19 -->
<g id="Node000019" class="node">
<title>Node19</title>
<g id="a_Node000019"><a xlink:href="class_autonomous_routine.html" target="_top" xlink:title="Drives an ordered sequence of AutoStep objects to completion.">
<polygon fill="white" stroke="#666666" points="605,-104.11 500.5,-104.11 500.5,-84.86 605,-84.86 605,-104.11"/>
<text xml:space="preserve" text-anchor="middle" x="552.75" y="-90.61" font-family="Helvetica,sans-Serif" font-size="10.00">AutonomousRoutine</text>
</a>
</g>
</g>
<!-- Node19&#45;&gt;Node1 -->
<g id="edge24_Node000001_Node000019" class="edge">
<title>Node19&#45;&gt;Node1</title>
<g id="a_edge24_Node000001_Node000019"><a xlink:title=" ">
<path fill="none" stroke="#9a32cd" stroke-dasharray="5,2" d="M568.01,-113.16C594.44,-148.64 651.14,-229.08 682.25,-305.23 705.05,-361.06 715.84,-433.4 719.19,-459.52"/>
<polygon fill="#9a32cd" stroke="#9a32cd" points="571.13,-111.48 562.32,-105.59 565.54,-115.69 571.13,-111.48"/>
</a>
</g>
<text xml:space="preserve" text-anchor="start" x="626" y="-309.98" font-family="Helvetica,sans-Serif" font-size="10.00" fill="grey">autonomous</text>
</g>
<!-- Node20 -->
<g id="Node000020" class="node">
<title>Node20</title>
<g id="a_Node000020"><a xlink:href="class_auto_step.html" target="_top" xlink:title="Pure&#45;virtual base class for all autonomous steps.">
<polygon fill="white" stroke="#666666" points="355.75,-22.11 299.25,-22.11 299.25,-2.86 355.75,-2.86 355.75,-22.11"/>
<text xml:space="preserve" text-anchor="middle" x="327.5" y="-8.61" font-family="Helvetica,sans-Serif" font-size="10.00">AutoStep</text>
</a>
</g>
</g>
<!-- Node20&#45;&gt;Node19 -->
<g id="edge25_Node000019_Node000020" class="edge">
<title>Node20&#45;&gt;Node19</title>
<g id="a_edge25_Node000019_Node000020"><a xlink:title=" ">
<path fill="none" stroke="#9a32cd" stroke-dasharray="5,2" d="M367.38,-4.03C399.74,1.03 446.22,3.62 482.5,-13.23 514.77,-28.23 537.59,-66.43 546.98,-84.6"/>
<polygon fill="#9a32cd" stroke="#9a32cd" points="366.89,-0.57 357.63,-5.72 368.08,-7.46 366.89,-0.57"/>
</a>
</g>
<text xml:space="preserve" text-anchor="start" x="425.12" y="-17.98" font-family="Helvetica,sans-Serif" font-size="10.00" fill="grey">_steps</text>
</g>
</g>
</svg>
