<?xml version="1.0" encoding="UTF-8" standalone="no"?>
<!DOCTYPE svg PUBLIC "-//W3C//DTD SVG 1.1//EN"
 "http://www.w3.org/Graphics/SVG/1.1/DTD/svg11.dtd">
<!-- Generated by graphviz version 14.1.2 (20260124.0452)
 -->
<!-- Title: Shooter Pages: 1 -->
<svg width="364pt" height="244pt"
 viewBox="0.00 0.00 364.00 244.00" xmlns="http://www.w3.org/2000/svg" xmlns:xlink="http://www.w3.org/1999/xlink">
<g id="graph0" class="graph" transform="scale(1 1) rotate(0) translate(4 239.75)">
<title>Shooter</title>
<!-- Node1 -->
<g id="Node000001" class="node">
<title>Node1</title>
<g id="a_Node000001"><a xlink:title="Rack&#45;and&#45;pinion block shooter controlled by encoder feedback.">
<polygon fill="#999999" stroke="#666666" points="174.62,-19.25 124.88,-19.25 124.88,0 174.62,0 174.62,-19.25"/>
<text xml:space="preserve" text-anchor="middle" x="149.75" y="-5.75" font-family="Helvetica,sans-Serif" font-size="10.00">Shooter</text>
</a>
</g>
</g>
<!-- Node2 -->
<g id="Node000002" class="node">
<title>Node2</title>
<g id="a_Node000002"><a xlink:href="class_subsystem.html" target="_top" xlink:title="Polymorphic interface for a robot subsystem.">
<polygon fill="white" stroke="#666666" points="65.5,-91.75 0,-91.75 0,-72.5 65.5,-72.5 65.5,-91.75"/>
<text xml:space="preserve" text-anchor="middle" x="32.75" y="-78.25" font-family="Helvetica,sans-Serif" font-size="10.00">Subsystem</text>
</a>
</g>
</g>
<!-- Node2&#45;&gt;Node1 -->
<g id="edge1_Node000001_Node000002" class="edge">
<title>Node2&#45;&gt;Node1</title>
<g id="a_edge1_Node000001_Node000002"><a xlink:title=" ">
<path fill="none" stroke="#63b8ff" d="M55.69,-65.71C68.75,-57.09 85.49,-46.3 100.75,-37.25 111.08,-31.13 122.89,-24.69 132.34,-19.68"/>
<polygon fill="#63b8ff" stroke="#63b8ff" points="53.76,-62.79 47.37,-71.24 57.63,-68.62 53.76,-62.79"/>
</a>
</g>
</g>
<!-- Node3 -->
<g id="Node000003" class="node">
<title>Node3</title>
<g id="a_Node000003"><a xlink:href="class_button.html" target="_top" xlink:title="Digital button / limit&#45;switch driver.">
<polygon fill="white" stroke="#666666" points="128,-91.75 83.5,-91.75 83.5,-72.5 128,-72.5 128,-91.75"/>
<text xml:space="preserve" text-anchor="middle" x="105.75" y="-78.25" font-family="Helvetica,sans-Serif" font-size="10.00">Button</text>
</a>
</g>
</g>
<!-- Node3&#45;&gt;Node1 -->
<g id="edge2_Node000001_Node000003" class="edge">
<title>Node3&#45;&gt;Node1</title>
<g id="a_edge2_Node000001_Node000003"><a xlink:title=" ">
<path fill="none" stroke="#9a32cd" stroke-dasharray="5,2" d="M103.99,-60.55C104.23,-52.78 105.64,-44.15 109.75,-37.25 114.28,-29.65 121.91,-23.78 129.31,-19.51"/>
<polygon fill="#9a32cd" stroke="#9a32cd" points="100.49,-60.65 104.35,-70.52 107.49,-60.4 100.49,-60.65"/>
</a>
</g>
<text xml:space="preserve" text-anchor="start" x="112.75" y="-42" font-family="Helvetica,sans-Serif" font-size="10.00" fill="grey">block_switch</text>
</g>
<!-- Node4 -->
<g id="Node000004" class="node">
<title>Node4</title>
<g id="a_Node000004"><a xlink:href="class_dual_motor_controller.html" target="_top" xlink:title="Dual&#45;channel closed&#45;loop motor controller.">
<polygon fill="white" stroke="#666666" points="249.25,-91.75 146.25,-91.75 146.25,-72.5 249.25,-72.5 249.25,-91.75"/>
<text xml:space="preserve" text-anchor="middle" x="197.75" y="-78.25" font-family="Helvetica,sans-Serif" font-size="10.00">DualMotorController</text>
</a>
</g>
</g>
<!-- Node4&#45;&gt;Node1 -->
<g id="edge3_Node000001_Node000004" class="edge">
<title>Node4&#45;&gt;Node1</title>
<g id="a_edge3_Node000001_Node000004"><a xlink:title=" ">
<path fill="none" stroke="#9a32cd" stroke-dasharray="5,2" d="M187.91,-62C183.59,-54.12 178.25,-45.04 172.75,-37.25 168.38,-31.06 162.85,-24.62 158.3,-19.63"/>
<polygon fill="#9a32cd" stroke="#9a32cd" points="184.77,-63.54 192.55,-70.74 190.95,-60.26 184.77,-63.54"/>
</a>
</g>
<text xml:space="preserve" text-anchor="start" x="186.17" y="-42" font-family="Helvetica,sans-Serif" font-size="10.00" fill="grey">motor</text>
</g>
<!-- Node5 -->
<g id="Node000005" class="node">
<title>Node5</title>
<g id="a_Node000005"><a xlink:href="class_l298_n_motor_driver_mega.html" target="_top" xlink:title=" ">
<polygon fill="white" stroke="#666666" points="210.5,-179.5 91,-179.5 91,-160.25 210.5,-160.25 210.5,-179.5"/>
<text xml:space="preserve" text-anchor="middle" x="150.75" y="-166" font-family="Helvetica,sans-Serif" font-size="10.00">L298NMotorDriverMega</text>
</a>
</g>
</g>
<!-- Node5&#45;&gt;Node4 -->
<g id="edge4_Node000004_Node000005" class="edge">
<title>Node5&#45;&gt;Node4</title>
<g id="a_edge4_Node000004_Node000005"><a xlink:title=" ">
<path fill="none" stroke="#9a32cd" stroke-dasharray="5,2" d="M155.87,-148.96C159.45,-137.03 164.96,-121.89 172.5,-109.75 176.53,-103.26 182.33,-97 187.36,-92.19"/>
<polygon fill="#9a32cd" stroke="#9a32cd" points="152.52,-147.92 153.22,-158.49 159.27,-149.79 152.52,-147.92"/>
</a>
</g>
<text xml:space="preserve" text-anchor="start" x="175.5" y="-122.12" font-family="Helvetica,sans-Serif" font-size="10.00" fill="grey">dualDriver</text>
</g>
<!-- Node6 -->
<g id="Node000006" class="node">
<title>Node6</title>
<g id="a_Node000006"><a xlink:href="class_p_i_d_controller.html" target="_top" xlink:title="Full&#45;featured PID controller with anti&#45;windup, output filtering, and optional nonlinear extensions.">
<polygon fill="white" stroke="#666666" points="303.38,-179.5 228.12,-179.5 228.12,-160.25 303.38,-160.25 303.38,-179.5"/>
<text xml:space="preserve" text-anchor="middle" x="265.75" y="-166" font-family="Helvetica,sans-Serif" font-size="10.00">PIDController</text>
</a>
</g>
</g>
<!-- Node6&#45;&gt;Node4 -->
<g id="edge5_Node000004_Node000006" class="edge">
<title>Node6&#45;&gt;Node4</title>
<g id="a_edge5_Node000004_Node000006"><a xlink:title=" ">
<path fill="none" stroke="#9a32cd" stroke-dasharray="5,2" d="M253.26,-150.47C244.96,-138.57 233.64,-122.91 222.75,-109.75 217.74,-103.69 211.71,-97.26 206.84,-92.23"/>
<polygon fill="#9a32cd" stroke="#9a32cd" points="250.27,-152.3 258.82,-158.55 256.03,-148.33 250.27,-152.3"/>
</a>
</g>
<text xml:space="preserve" text-anchor="start" x="249.84" y="-129.75" font-family="Helvetica,sans-Serif" font-size="10.00" fill="grey">_pid1</text>
<text xml:space="preserve" text-anchor="start" x="249.84" y="-114.5" font-family="Helvetica,sans-Serif" font-size="10.00" fill="grey">_pid2</text>
</g>
<!-- Node7 -->
<g id="Node000007" class="node">
<title>Node7</title>
<g id="a_Node000007"><a xlink:href="class_p_i_d.html" target="_top" xlink:title="Lightweight PID controller base class.">
<polygon fill="white" stroke="#666666" points="282.38,-235.75 249.12,-235.75 249.12,-216.5 282.38,-216.5 282.38,-235.75"/>
<text xml:space="preserve" text-anchor="middle" x="265.75" y="-222.25" font-family="Helvetica,sans-Serif" font-size="10.00">PID</text>
</a>
</g>
</g>
<!-- Node7&#45;&gt;Node6 -->
<g id="edge6_Node000006_Node000007" class="edge">
<title>Node7&#45;&gt;Node6</title>
<g id="a_edge6_Node000006_Node000007"><a xlink:title=" ">
<path fill="none" stroke="#63b8ff" d="M265.75,-204.94C265.75,-196.23 265.75,-186.49 265.75,-179.67"/>
<polygon fill="#63b8ff" stroke="#63b8ff" points="262.25,-204.65 265.75,-214.65 269.25,-204.65 262.25,-204.65"/>
</a>
</g>
</g>
<!-- Node8 -->
<g id="Node000008" class="node">
<title>Node8</title>
<g id="a_Node000008"><a xlink:href="class_encoder_wrapper.html" target="_top" xlink:title="Quadrature encoder driver with velocity and acceleration estimation.">
<polygon fill="white" stroke="#666666" points="355.75,-91.75 267.75,-91.75 267.75,-72.5 355.75,-72.5 355.75,-91.75"/>
<text xml:space="preserve" text-anchor="middle" x="311.75" y="-78.25" font-family="Helvetica,sans-Serif" font-size="10.00">EncoderWrapper</text>
</a>
</g>
</g>
<!-- Node8&#45;&gt;Node1 -->
<g id="edge7_Node000001_Node000008" class="edge">
<title>Node8&#45;&gt;Node1</title>
<g id="a_edge7_Node000001_Node000008"><a xlink:title=" ">
<path fill="none" stroke="#9a32cd" stroke-dasharray="5,2" d="M283.06,-67.16C264.55,-58.29 239.89,-46.74 217.75,-37.25 203.42,-31.11 187.16,-24.72 174.14,-19.74"/>
<polygon fill="#9a32cd" stroke="#9a32cd" points="281.29,-70.19 291.82,-71.38 284.33,-63.88 281.29,-70.19"/>
</a>
</g>
<text xml:space="preserve" text-anchor="start" x="257.18" y="-42" font-family="Helvetica,sans-Serif" font-size="10.00" fill="grey">encoder</text>
</g>
</g>
</svg>
