<?xml version="1.0" encoding="UTF-8" standalone="no"?>
<!DOCTYPE svg PUBLIC "-//W3C//DTD SVG 1.1//EN"
 "http://www.w3.org/Graphics/SVG/1.1/DTD/svg11.dtd">
<!-- Generated by graphviz version 14.1.2 (20260124.0452)
 -->
<!-- Title: ReplanStep Pages: 1 -->
<svg width="75pt" height="115pt"
 viewBox="0.00 0.00 75.00 115.00" xmlns="http://www.w3.org/2000/svg" xmlns:xlink="http://www.w3.org/1999/xlink">
<g id="graph0" class="graph" transform="scale(1 1) rotate(0) translate(4 111)">
<title>ReplanStep</title>
<!-- Node1 -->
<g id="Node000001" class="node">
<title>Node1</title>
<g id="a_Node000001"><a xlink:title="Drives a looping planning function that supplies child steps on demand.">
<polygon fill="#999999" stroke="#666666" points="67,-19.25 0,-19.25 0,0 67,0 67,-19.25"/>
<text xml:space="preserve" text-anchor="middle" x="33.5" y="-5.75" font-family="Helvetica,sans-Serif" font-size="10.00">ReplanStep</text>
</a>
</g>
</g>
<!-- Node2 -->
<g id="Node000002" class="node">
<title>Node2</title>
<g id="a_Node000002"><a xlink:href="class_auto_step.html" target="_top" xlink:title="Pure&#45;virtual base class for all autonomous steps.">
<polygon fill="white" stroke="#666666" points="61.75,-107 5.25,-107 5.25,-87.75 61.75,-87.75 61.75,-107"/>
<text xml:space="preserve" text-anchor="middle" x="33.5" y="-93.5" font-family="Helvetica,sans-Serif" font-size="10.00">AutoStep</text>
</a>
</g>
</g>
<!-- Node2&#45;&gt;Node1 -->
<g id="edge1_Node000001_Node000002" class="edge">
<title>Node2&#45;&gt;Node1</title>
<g id="a_edge1_Node000001_Node000002"><a xlink:title=" ">
<path fill="none" stroke="#63b8ff" d="M31.81,-76.03C31.69,-73.91 31.58,-71.79 31.5,-69.75 30.96,-55.32 30.96,-51.68 31.5,-37.25 31.72,-31.32 32.22,-24.66 32.67,-19.49"/>
<polygon fill="#63b8ff" stroke="#63b8ff" points="28.32,-76.29 32.55,-86 35.3,-75.77 28.32,-76.29"/>
</a>
</g>
</g>
<!-- Node2&#45;&gt;Node1 -->
<g id="edge2_Node000001_Node000002" class="edge">
<title>Node2&#45;&gt;Node1</title>
<g id="a_edge2_Node000001_Node000002"><a xlink:title=" ">
<path fill="none" stroke="#9a32cd" stroke-dasharray="5,2" d="M33.5,-76.04C33.5,-58.11 33.5,-32.83 33.5,-19.56"/>
<polygon fill="#9a32cd" stroke="#9a32cd" points="30,-76.01 33.5,-86.01 37,-76.01 30,-76.01"/>
</a>
</g>
<text xml:space="preserve" text-anchor="start" x="36.5" y="-57.25" font-family="Helvetica,sans-Serif" font-size="10.00" fill="grey">_child</text>
<text xml:space="preserve" text-anchor="start" x="36.5" y="-42" font-family="Helvetica,sans-Serif" font-size="10.00" fill="grey">_plan</text>
</g>
</g>
</svg>
