<?xml version="1.0" encoding="UTF-8" standalone="no"?>
<!DOCTYPE svg PUBLIC "-//W3C//DTD SVG 1.1//EN"
 "http://www.w3.org/Graphics/SVG/1.1/DTD/svg11.dtd">
<!-- Generated by graphviz version 14.1.2 (20260124.0452)
 -->
<!-- Title: Miner::stop Pages: 1 -->
<svg width="422pt" height="64pt"
 viewBox="0.00 0.00 422.00 64.00" xmlns="http://www.w3.org/2000/svg" xmlns:xlink="http://www.w3.org/1999/xlink">
<g id="graph0" class="graph" transform="scale(1 1) rotate(0) translate(4 60.25)">
<title>Miner::stop</title>
<!-- Node1 -->
<g id="Node000001" class="node">
<title>Node1</title>
<g id="a_Node000001"><a xlink:title="Place subsystem in a safe, stopped state.">
<polygon fill="#999999" stroke="#666666" points="64.75,-37.25 0,-37.25 0,-18 64.75,-18 64.75,-37.25"/>
<text xml:space="preserve" text-anchor="middle" x="32.38" y="-23.75" font-family="Helvetica,sans-Serif" font-size="10.00">Miner::stop</text>
</a>
</g>
</g>
<!-- Node2 -->
<g id="Node000002" class="node">
<title>Node2</title>
<g id="a_Node000002"><a xlink:href="class_miner.html#a0b5a31a12bfa80912aa22cd1e21cde84" target="_top" xlink:title="Stow both the miner servo and the ramp servo in the transport position.">
<polygon fill="white" stroke="#666666" points="225.5,-56.25 101.5,-56.25 101.5,-37 225.5,-37 225.5,-56.25"/>
<text xml:space="preserve" text-anchor="middle" x="163.5" y="-42.75" font-family="Helvetica,sans-Serif" font-size="10.00">Miner::setServosToStore</text>
</a>
</g>
</g>
<!-- Node1&#45;&gt;Node2 -->
<g id="edge1_Node000001_Node000002" class="edge">
<title>Node1&#45;&gt;Node2</title>
<g id="a_edge1_Node000001_Node000002"><a xlink:title=" ">
<path fill="none" stroke="#63b8ff" d="M64.96,-32.27C72.68,-33.41 81.26,-34.67 90.03,-35.96"/>
<polygon fill="#63b8ff" stroke="#63b8ff" points="89.3,-39.39 99.7,-37.38 90.32,-32.47 89.3,-39.39"/>
</a>
</g>
</g>
<!-- Node3 -->
<g id="Node000003" class="node">
<title>Node3</title>
<g id="a_Node000003"><a xlink:href="class_miner.html#a26f3ff0ceeae35f37c087bbb17767f17" target="_top" xlink:title="Internal: transition to OFF mode, reset timers, and immediately retract the miner servo.">
<polygon fill="white" stroke="#666666" points="226.25,-19.25 100.75,-19.25 100.75,0 226.25,0 226.25,-19.25"/>
<text xml:space="preserve" text-anchor="middle" x="163.5" y="-5.75" font-family="Helvetica,sans-Serif" font-size="10.00">Miner::stopMiningInternal</text>
</a>
</g>
</g>
<!-- Node1&#45;&gt;Node3 -->
<g id="edge2_Node000001_Node000003" class="edge">
<title>Node1&#45;&gt;Node3</title>
<g id="a_edge2_Node000001_Node000003"><a xlink:title=" ">
<path fill="none" stroke="#63b8ff" d="M64.96,-23.22C72.44,-22.18 80.72,-21.03 89.21,-19.84"/>
<polygon fill="#63b8ff" stroke="#63b8ff" points="89.51,-23.33 98.93,-18.49 88.54,-16.4 89.51,-23.33"/>
</a>
</g>
</g>
<!-- Node4 -->
<g id="Node000004" class="node">
<title>Node4</title>
<g id="a_Node000004"><a xlink:href="class_miner.html#a9f02a17fa9cd96b2bdd5796b42cbb807" target="_top" xlink:title="Retract the miner servo to clear the dispenser for the next block.">
<polygon fill="white" stroke="#666666" points="414,-19.25 262.25,-19.25 262.25,0 414,0 414,-19.25"/>
<text xml:space="preserve" text-anchor="middle" x="338.12" y="-5.75" font-family="Helvetica,sans-Serif" font-size="10.00">Miner::setMinerServoToRetract</text>
</a>
</g>
</g>
<!-- Node3&#45;&gt;Node4 -->
<g id="edge3_Node000003_Node000004" class="edge">
<title>Node3&#45;&gt;Node4</title>
<g id="a_edge3_Node000003_Node000004"><a xlink:title=" ">
<path fill="none" stroke="#63b8ff" d="M226.33,-9.62C234.16,-9.62 242.28,-9.62 250.4,-9.62"/>
<polygon fill="#63b8ff" stroke="#63b8ff" points="250.34,-13.13 260.34,-9.63 250.34,-6.13 250.34,-13.13"/>
</a>
</g>
</g>
</g>
</svg>
