<?xml version="1.0" encoding="UTF-8" standalone="no"?>
<!DOCTYPE svg PUBLIC "-//W3C//DTD SVG 1.1//EN"
 "http://www.w3.org/Graphics/SVG/1.1/DTD/svg11.dtd">
<!-- Generated by graphviz version 14.1.2 (20260124.0452)
 -->
<!-- Title: Robot::update Pages: 1 -->
<svg width="772pt" height="190pt"
 viewBox="0.00 0.00 772.00 190.00" xmlns="http://www.w3.org/2000/svg" xmlns:xlink="http://www.w3.org/1999/xlink">
<g id="graph0" class="graph" transform="scale(1 1) rotate(0) translate(4 185.88)">
<title>Robot::update</title>
<!-- Node1 -->
<g id="Node000001" class="node">
<title>Node1</title>
<g id="a_Node000001"><a xlink:title="Tick the robot — call every loop() iteration.">
<polygon fill="#999999" stroke="#666666" points="77.5,-67.88 0,-67.88 0,-48.62 77.5,-48.62 77.5,-67.88"/>
<text xml:space="preserve" text-anchor="middle" x="38.75" y="-54.38" font-family="Helvetica,sans-Serif" font-size="10.00">Robot::update</text>
</a>
</g>
</g>
<!-- Node1&#45;&gt;Node1 -->
<g id="edge10_Node000001_Node000001" class="edge">
<title>Node1&#45;&gt;Node1</title>
<g id="a_edge10_Node000001_Node000001"><a xlink:title=" ">
<path fill="none" stroke="#63b8ff" d="M15.05,-68.16C4.24,-76.77 12.14,-85.88 38.75,-85.88 53.72,-85.88 62.77,-82.99 65.89,-78.94"/>
<polygon fill="#63b8ff" stroke="#63b8ff" points="69.29,-78.06 62.91,-69.6 62.62,-80.2 69.29,-78.06"/>
</a>
</g>
</g>
<!-- Node2 -->
<g id="Node000002" class="node">
<title>Node2</title>
<g id="a_Node000002"><a xlink:href="class_robot.html#aa5c02bb23e784c3d8198aad35b053492" target="_top" xlink:title="Parse and dispatch a raw command string to the appropriate handler.">
<polygon fill="white" stroke="#666666" points="266.75,-86.88 113.5,-86.88 113.5,-67.62 266.75,-67.62 266.75,-86.88"/>
<text xml:space="preserve" text-anchor="middle" x="190.12" y="-73.38" font-family="Helvetica,sans-Serif" font-size="10.00">Robot::processCommandString</text>
</a>
</g>
</g>
<!-- Node1&#45;&gt;Node2 -->
<g id="edge1_Node000001_Node000002" class="edge">
<title>Node1&#45;&gt;Node2</title>
<g id="a_edge1_Node000001_Node000002"><a xlink:title=" ">
<path fill="none" stroke="#63b8ff" d="M77.83,-63.09C85.26,-64.04 93.33,-65.06 101.62,-66.12"/>
<polygon fill="#63b8ff" stroke="#63b8ff" points="101.15,-69.59 111.51,-67.38 102.03,-62.64 101.15,-69.59"/>
</a>
</g>
</g>
<!-- Node8 -->
<g id="Node000008" class="node">
<title>Node8</title>
<g id="a_Node000008"><a xlink:href="class_robot.html#aa30787f35cda4828c6548061d6f5bb97" target="_top" xlink:title="Non&#45;blocking USB serial reader — appends to _usbBuffer until newline.">
<polygon fill="white" stroke="#666666" points="250.25,-49.88 130,-49.88 130,-30.62 250.25,-30.62 250.25,-49.88"/>
<text xml:space="preserve" text-anchor="middle" x="190.12" y="-36.38" font-family="Helvetica,sans-Serif" font-size="10.00">Robot::updateUsbSerial</text>
</a>
</g>
</g>
<!-- Node1&#45;&gt;Node8 -->
<g id="edge11_Node000001_Node000008" class="edge">
<title>Node1&#45;&gt;Node8</title>
<g id="a_edge11_Node000001_Node000008"><a xlink:title=" ">
<path fill="none" stroke="#63b8ff" d="M77.83,-53.66C90.24,-52.17 104.45,-50.45 118.46,-48.76"/>
<polygon fill="#63b8ff" stroke="#63b8ff" points="118.61,-52.27 128.12,-47.6 117.78,-45.32 118.61,-52.27"/>
</a>
</g>
</g>
<!-- Node3 -->
<g id="Node000003" class="node">
<title>Node3</title>
<g id="a_Node000003"><a xlink:href="class_robot.html#a25277ec017ab37e4920908740e7f1ee9" target="_top" xlink:title="Handle commands that are valid in any operating mode.">
<polygon fill="white" stroke="#666666" points="454.88,-143.88 305.38,-143.88 305.38,-124.62 454.88,-124.62 454.88,-143.88"/>
<text xml:space="preserve" text-anchor="middle" x="380.12" y="-130.38" font-family="Helvetica,sans-Serif" font-size="10.00">Robot::handleGlobalCommand</text>
</a>
</g>
</g>
<!-- Node2&#45;&gt;Node3 -->
<g id="edge2_Node000002_Node000003" class="edge">
<title>Node2&#45;&gt;Node3</title>
<g id="a_edge2_Node000002_Node000003"><a xlink:title=" ">
<path fill="none" stroke="#63b8ff" d="M224.3,-87.31C255.08,-96.64 301.11,-110.6 334.98,-120.87"/>
<polygon fill="#63b8ff" stroke="#63b8ff" points="333.93,-124.2 344.51,-123.76 335.96,-117.51 333.93,-124.2"/>
</a>
</g>
</g>
<!-- Node5 -->
<g id="Node000005" class="node">
<title>Node5</title>
<g id="a_Node000005"><a xlink:href="class_robot.html#a3defa2b851d1a9267d6dbe251373ba7d" target="_top" xlink:title="Send a message to a serial port (defaults to USB Serial if port is null).">
<polygon fill="white" stroke="#666666" points="764,-124.88 694.75,-124.88 694.75,-105.62 764,-105.62 764,-124.88"/>
<text xml:space="preserve" text-anchor="middle" x="729.38" y="-111.38" font-family="Helvetica,sans-Serif" font-size="10.00">Robot::reply</text>
</a>
</g>
</g>
<!-- Node2&#45;&gt;Node5 -->
<g id="edge9_Node000002_Node000005" class="edge">
<title>Node2&#45;&gt;Node5</title>
<g id="a_edge9_Node000002_Node000005"><a xlink:title=" ">
<path fill="none" stroke="#63b8ff" d="M267.24,-82.63C380.67,-90.66 590.55,-105.5 682.83,-112.03"/>
<polygon fill="#63b8ff" stroke="#63b8ff" points="682.54,-115.52 692.76,-112.73 683.03,-108.53 682.54,-115.52"/>
</a>
</g>
</g>
<!-- Node6 -->
<g id="Node000006" class="node">
<title>Node6</title>
<g id="a_Node000006"><a xlink:href="class_robot.html#a701fe8e294bbf124925db433690174dd" target="_top" xlink:title="Handle SERIAL_TEST commands with no numeric parameters.">
<polygon fill="white" stroke="#666666" points="658.75,-67.88 493.5,-67.88 493.5,-48.62 658.75,-48.62 658.75,-67.88"/>
<text xml:space="preserve" text-anchor="middle" x="576.12" y="-54.38" font-family="Helvetica,sans-Serif" font-size="10.00">Robot::handleSerialTestCommand</text>
</a>
</g>
</g>
<!-- Node2&#45;&gt;Node6 -->
<g id="edge6_Node000002_Node000006" class="edge">
<title>Node2&#45;&gt;Node6</title>
<g id="a_edge6_Node000002_Node000006"><a xlink:title=" ">
<path fill="none" stroke="#63b8ff" d="M266.99,-73.5C328.67,-70.44 415.95,-66.13 481.89,-62.86"/>
<polygon fill="#63b8ff" stroke="#63b8ff" points="481.78,-66.37 491.59,-62.38 481.43,-59.38 481.78,-66.37"/>
</a>
</g>
</g>
<!-- Node7 -->
<g id="Node000007" class="node">
<title>Node7</title>
<g id="a_Node000007"><a xlink:href="class_robot.html#acf85577d12d881301a16f303f39efc05" target="_top" xlink:title="Parse a keyword + up to two float parameters from a command string.">
<polygon fill="white" stroke="#666666" points="457.5,-30.5 302.75,-30.5 302.75,0 457.5,0 457.5,-30.5"/>
<text xml:space="preserve" text-anchor="start" x="310.75" y="-17" font-family="Helvetica,sans-Serif" font-size="10.00">Robot::parseCmdWithUpToTwo</text>
<text xml:space="preserve" text-anchor="middle" x="380.12" y="-5.75" font-family="Helvetica,sans-Serif" font-size="10.00">Floats</text>
</a>
</g>
</g>
<!-- Node2&#45;&gt;Node7 -->
<g id="edge8_Node000002_Node000007" class="edge">
<title>Node2&#45;&gt;Node7</title>
<g id="a_edge8_Node000002_Node000007"><a xlink:title=" ">
<path fill="none" stroke="#63b8ff" d="M238.65,-67.18C248.04,-64.84 257.77,-62.17 266.75,-59.25 283.23,-53.89 286.65,-50.66 302.75,-44.25 310.36,-41.22 318.42,-38.08 326.35,-35.04"/>
<polygon fill="#63b8ff" stroke="#63b8ff" points="327.51,-38.34 335.6,-31.5 325.01,-31.8 327.51,-38.34"/>
</a>
</g>
</g>
<!-- Node4 -->
<g id="Node000004" class="node">
<title>Node4</title>
<g id="a_Node000004"><a xlink:href="class_robot.html#a9e72bb50888e8247a9a55add640542ac" target="_top" xlink:title="Print the serial command reference to port (defaults to USB Serial).">
<polygon fill="white" stroke="#666666" points="632.12,-181.88 520.12,-181.88 520.12,-162.62 632.12,-162.62 632.12,-181.88"/>
<text xml:space="preserve" text-anchor="middle" x="576.12" y="-168.38" font-family="Helvetica,sans-Serif" font-size="10.00">Robot::printSerialHelp</text>
</a>
</g>
</g>
<!-- Node3&#45;&gt;Node4 -->
<g id="edge3_Node000003_Node000004" class="edge">
<title>Node3&#45;&gt;Node4</title>
<g id="a_edge3_Node000003_Node000004"><a xlink:title=" ">
<path fill="none" stroke="#63b8ff" d="M432.6,-144.33C457.15,-149.14 486.72,-154.93 512.55,-159.99"/>
<polygon fill="#63b8ff" stroke="#63b8ff" points="511.77,-163.41 522.26,-161.89 513.12,-156.54 511.77,-163.41"/>
</a>
</g>
</g>
<!-- Node3&#45;&gt;Node5 -->
<g id="edge5_Node000003_Node000005" class="edge">
<title>Node3&#45;&gt;Node5</title>
<g id="a_edge5_Node000003_Node000005"><a xlink:title=" ">
<path fill="none" stroke="#63b8ff" d="M455.19,-130.2C524.33,-126.41 625.27,-120.89 683.13,-117.73"/>
<polygon fill="#63b8ff" stroke="#63b8ff" points="683.14,-121.23 692.93,-117.19 682.76,-114.24 683.14,-121.23"/>
</a>
</g>
</g>
<!-- Node4&#45;&gt;Node5 -->
<g id="edge4_Node000004_Node000005" class="edge">
<title>Node4&#45;&gt;Node5</title>
<g id="a_edge4_Node000004_Node000005"><a xlink:title=" ">
<path fill="none" stroke="#63b8ff" d="M615.74,-162.24C629.47,-158.33 644.95,-153.51 658.75,-148.25 672.28,-143.09 686.83,-136.39 699.1,-130.38"/>
<polygon fill="#63b8ff" stroke="#63b8ff" points="700.48,-133.6 707.87,-126 697.36,-127.34 700.48,-133.6"/>
</a>
</g>
</g>
<!-- Node6&#45;&gt;Node5 -->
<g id="edge7_Node000006_Node000005" class="edge">
<title>Node6&#45;&gt;Node5</title>
<g id="a_edge7_Node000006_Node000005"><a xlink:title=" ">
<path fill="none" stroke="#63b8ff" d="M615.74,-68.26C629.47,-72.17 644.95,-76.99 658.75,-82.25 672.28,-87.41 686.83,-94.11 699.1,-100.12"/>
<polygon fill="#63b8ff" stroke="#63b8ff" points="697.36,-103.16 707.87,-104.5 700.48,-96.9 697.36,-103.16"/>
</a>
</g>
</g>
</g>
</svg>
