<?xml version="1.0" encoding="UTF-8" standalone="no"?>
<!DOCTYPE svg PUBLIC "-//W3C//DTD SVG 1.1//EN"
 "http://www.w3.org/Graphics/SVG/1.1/DTD/svg11.dtd">
<!-- Generated by graphviz version 14.1.2 (20260124.0452)
 -->
<!-- Title: Shooter::handleAutoFire Pages: 1 -->
<svg width="300pt" height="64pt"
 viewBox="0.00 0.00 300.00 64.00" xmlns="http://www.w3.org/2000/svg" xmlns:xlink="http://www.w3.org/1999/xlink">
<g id="graph0" class="graph" transform="scale(1 1) rotate(0) translate(4 60.25)">
<title>Shooter::handleAutoFire</title>
<!-- Node1 -->
<g id="Node000001" class="node">
<title>Node1</title>
<g id="a_Node000001"><a xlink:title="Run one tick of the autofire state machine (called inside update()).">
<polygon fill="#999999" stroke="#666666" points="121,-37.25 0,-37.25 0,-18 121,-18 121,-37.25"/>
<text xml:space="preserve" text-anchor="middle" x="60.5" y="-23.75" font-family="Helvetica,sans-Serif" font-size="10.00">Shooter::handleAutoFire</text>
</a>
</g>
</g>
<!-- Node2 -->
<g id="Node000002" class="node">
<title>Node2</title>
<g id="a_Node000002"><a xlink:href="class_shooter.html#a30a31145ab7b3148a0adb2d0c0152713" target="_top" xlink:title="Compute the encoder target for the fire (extended) position.">
<polygon fill="white" stroke="#666666" points="287.75,-56.25 161.5,-56.25 161.5,-37 287.75,-37 287.75,-56.25"/>
<text xml:space="preserve" text-anchor="middle" x="224.62" y="-42.75" font-family="Helvetica,sans-Serif" font-size="10.00">Shooter::nextFirePosition</text>
</a>
</g>
</g>
<!-- Node1&#45;&gt;Node2 -->
<g id="edge1_Node000001_Node000002" class="edge">
<title>Node1&#45;&gt;Node2</title>
<g id="a_edge1_Node000001_Node000002"><a xlink:title=" ">
<path fill="none" stroke="#63b8ff" d="M121.41,-34.65C130.74,-35.74 140.48,-36.88 150.08,-38.01"/>
<polygon fill="#63b8ff" stroke="#63b8ff" points="149.4,-41.45 159.74,-39.14 150.22,-34.5 149.4,-41.45"/>
</a>
</g>
</g>
<!-- Node3 -->
<g id="Node000003" class="node">
<title>Node3</title>
<g id="a_Node000003"><a xlink:href="class_shooter.html#a1ed9592886f4679cb2805c9857defcf9" target="_top" xlink:title="Compute the encoder target for the primed (pulled&#45;back) position.">
<polygon fill="white" stroke="#666666" points="292.25,-19.25 157,-19.25 157,0 292.25,0 292.25,-19.25"/>
<text xml:space="preserve" text-anchor="middle" x="224.62" y="-5.75" font-family="Helvetica,sans-Serif" font-size="10.00">Shooter::nextPrimePosition</text>
</a>
</g>
</g>
<!-- Node1&#45;&gt;Node3 -->
<g id="edge2_Node000001_Node000003" class="edge">
<title>Node1&#45;&gt;Node3</title>
<g id="a_edge2_Node000001_Node000003"><a xlink:title=" ">
<path fill="none" stroke="#63b8ff" d="M121.41,-20.97C129.19,-20.11 137.26,-19.21 145.29,-18.32"/>
<polygon fill="#63b8ff" stroke="#63b8ff" points="145.53,-21.82 155.08,-17.23 144.76,-14.86 145.53,-21.82"/>
</a>
</g>
</g>
</g>
</svg>
