<?xml version="1.0" encoding="UTF-8" standalone="no"?>
<!DOCTYPE svg PUBLIC "-//W3C//DTD SVG 1.1//EN"
 "http://www.w3.org/Graphics/SVG/1.1/DTD/svg11.dtd">
<!-- Generated by graphviz version 14.1.2 (20260124.0452)
 -->
<!-- Title: Subsystem Pages: 1 -->
<svg width="259pt" height="83pt"
 viewBox="0.00 0.00 259.00 83.00" xmlns="http://www.w3.org/2000/svg" xmlns:xlink="http://www.w3.org/1999/xlink">
<g id="graph0" class="graph" transform="scale(1 1) rotate(0) translate(4 78.5)">
<title>Subsystem</title>
<!-- Node1 -->
<g id="Node000001" class="node">
<title>Node1</title>
<g id="a_Node000001"><a xlink:title=" ">
<polygon fill="#999999" stroke="#666666" points="146.38,-74.5 80.88,-74.5 80.88,-55.25 146.38,-55.25 146.38,-74.5"/>
<text xml:space="preserve" text-anchor="middle" x="113.62" y="-61" font-family="Helvetica,sans-Serif" font-size="10.00">Subsystem</text>
</a>
</g>
</g>
<!-- Node2 -->
<g id="Node000002" class="node">
<title>Node2</title>
<g id="a_Node000002"><a xlink:href="class_drive.html" target="_top" xlink:title=" ">
<polygon fill="white" stroke="#666666" points="39.25,-19.25 0,-19.25 0,0 39.25,0 39.25,-19.25"/>
<text xml:space="preserve" text-anchor="middle" x="19.62" y="-5.75" font-family="Helvetica,sans-Serif" font-size="10.00">Drive</text>
</a>
</g>
</g>
<!-- Node1&#45;&gt;Node2 -->
<g id="edge1_Node000001_Node000002" class="edge">
<title>Node1&#45;&gt;Node2</title>
<g id="a_edge1_Node000001_Node000002"><a xlink:title=" ">
<path fill="none" stroke="#63b8ff" d="M87.97,-49.34C71.26,-39.88 49.99,-27.83 35.65,-19.7"/>
<polygon fill="#63b8ff" stroke="#63b8ff" points="85.94,-52.21 96.36,-54.1 89.39,-46.12 85.94,-52.21"/>
</a>
</g>
</g>
<!-- Node3 -->
<g id="Node000003" class="node">
<title>Node3</title>
<g id="a_Node000003"><a xlink:href="class_miner.html" target="_top" xlink:title=" ">
<polygon fill="white" stroke="#666666" points="97.62,-19.25 57.62,-19.25 57.62,0 97.62,0 97.62,-19.25"/>
<text xml:space="preserve" text-anchor="middle" x="77.62" y="-5.75" font-family="Helvetica,sans-Serif" font-size="10.00">Miner</text>
</a>
</g>
</g>
<!-- Node1&#45;&gt;Node3 -->
<g id="edge2_Node000001_Node000003" class="edge">
<title>Node1&#45;&gt;Node3</title>
<g id="a_edge2_Node000001_Node000003"><a xlink:title=" ">
<path fill="none" stroke="#63b8ff" d="M101.31,-45.65C95.36,-36.86 88.5,-26.71 83.7,-19.61"/>
<polygon fill="#63b8ff" stroke="#63b8ff" points="98.33,-47.5 106.83,-53.83 104.13,-43.58 98.33,-47.5"/>
</a>
</g>
</g>
<!-- Node4 -->
<g id="Node000004" class="node">
<title>Node4</title>
<g id="a_Node000004"><a xlink:href="class_serial_coms.html" target="_top" xlink:title=" ">
<polygon fill="white" stroke="#666666" points="183.12,-19.25 116.12,-19.25 116.12,0 183.12,0 183.12,-19.25"/>
<text xml:space="preserve" text-anchor="middle" x="149.62" y="-5.75" font-family="Helvetica,sans-Serif" font-size="10.00">SerialComs</text>
</a>
</g>
</g>
<!-- Node1&#45;&gt;Node4 -->
<g id="edge3_Node000001_Node000004" class="edge">
<title>Node1&#45;&gt;Node4</title>
<g id="a_edge3_Node000001_Node000004"><a xlink:title=" ">
<path fill="none" stroke="#63b8ff" d="M125.94,-45.65C131.89,-36.86 138.75,-26.71 143.55,-19.61"/>
<polygon fill="#63b8ff" stroke="#63b8ff" points="123.12,-43.58 120.42,-53.83 128.92,-47.5 123.12,-43.58"/>
</a>
</g>
</g>
<!-- Node5 -->
<g id="Node000005" class="node">
<title>Node5</title>
<g id="a_Node000005"><a xlink:href="class_shooter.html" target="_top" xlink:title=" ">
<polygon fill="white" stroke="#666666" points="250.5,-19.25 200.75,-19.25 200.75,0 250.5,0 250.5,-19.25"/>
<text xml:space="preserve" text-anchor="middle" x="225.62" y="-5.75" font-family="Helvetica,sans-Serif" font-size="10.00">Shooter</text>
</a>
</g>
</g>
<!-- Node1&#45;&gt;Node5 -->
<g id="edge4_Node000001_Node000005" class="edge">
<title>Node1&#45;&gt;Node5</title>
<g id="a_edge4_Node000001_Node000005"><a xlink:title=" ">
<path fill="none" stroke="#63b8ff" d="M142.79,-50.01C162.9,-40.45 189.04,-28.02 206.53,-19.7"/>
<polygon fill="#63b8ff" stroke="#63b8ff" points="141.52,-46.74 133.99,-54.19 144.53,-53.06 141.52,-46.74"/>
</a>
</g>
</g>
</g>
</svg>
