<?xml version="1.0" encoding="UTF-8" standalone="no"?>
<!DOCTYPE svg PUBLIC "-//W3C//DTD SVG 1.1//EN"
 "http://www.w3.org/Graphics/SVG/1.1/DTD/svg11.dtd">
<!-- Generated by graphviz version 14.1.2 (20260124.0452)
 -->
<!-- Title: src Pages: 1 -->
<svg width="282pt" height="320pt"
 viewBox="0.00 0.00 282.00 320.00" xmlns="http://www.w3.org/2000/svg" xmlns:xlink="http://www.w3.org/1999/xlink">
<g id="graph0" class="graph" transform="scale(1 1) rotate(0) translate(4 315.5)">
<title>src</title>
<g id="clust1" class="cluster">
<title>clusterdir_68267d1309a1af8e8297ef4c3efbcdba</title>
<g id="a_clust1"><a xlink:href="dir_68267d1309a1af8e8297ef4c3efbcdba.html" target="_top">
<polygon fill="#edf0f7" stroke="#404040" stroke-width="2" points="8,-47.25 8,-303.5 134,-303.5 134,-47.25 8,-47.25"/>
</a>
</g>
</g>
<!-- dir_68267d1309a1af8e8297ef4c3efbcdba -->
<g id="node1" class="node">
<title>dir_68267d1309a1af8e8297ef4c3efbcdba</title>
<text xml:space="preserve" text-anchor="middle" x="64" y="-282" font-family="Helvetica,sans-Serif" font-size="10.00">src</text>
</g>
<!-- dir_96137f7aaa8832ed26fabbeae498f460 -->
<g id="node2" class="node">
<title>dir_96137f7aaa8832ed26fabbeae498f460</title>
<g id="a_node2"><a xlink:href="dir_96137f7aaa8832ed26fabbeae498f460.html" target="_top" xlink:title="Autonomous">
<polygon fill="#a2b4d6" stroke="#404040" points="126.38,-240.25 55.62,-240.25 55.62,-221 126.38,-221 126.38,-240.25"/>
<text xml:space="preserve" text-anchor="middle" x="91" y="-226.75" font-family="Helvetica,sans-Serif" font-size="10.00">Autonomous</text>
</a>
</g>
</g>
<!-- dir_68267d1309a1af8e8297ef4c3efbcdba&#45;&gt;dir_96137f7aaa8832ed26fabbeae498f460 -->
<g id="edge3" class="edge">
<title>dir_68267d1309a1af8e8297ef4c3efbcdba&#45;&gt;dir_96137f7aaa8832ed26fabbeae498f460</title>
<g id="a_edge3"><a xlink:href="dir_000005_000000.html" target="_top">
<path fill="none" stroke="#63b8ff" d="M68.22,-276.55C71.72,-269.64 76.84,-259.54 81.34,-250.67"/>
<polygon fill="#63b8ff" stroke="#63b8ff" points="84.46,-252.27 85.86,-241.77 78.21,-249.1 84.46,-252.27"/>
</a>
</g>
<g id="a_edge3&#45;headlabel"><a xlink:href="dir_000005_000000.html" target="_top" xlink:title="25">
<text xml:space="preserve" text-anchor="middle" x="86.05" y="-251.54" font-family="Helvetica,sans-Serif" font-size="10.00" fill="#63b8ff">25</text>
</a>
</g>
</g>
<!-- dir_27b17494125eb78195473abe004504ab -->
<g id="node3" class="node">
<title>dir_27b17494125eb78195473abe004504ab</title>
<g id="a_node3"><a xlink:href="dir_27b17494125eb78195473abe004504ab.html" target="_top" xlink:title="Devices">
<polygon fill="#a2b4d6" stroke="#404040" points="122,-129.75 70,-129.75 70,-110.5 122,-110.5 122,-129.75"/>
<text xml:space="preserve" text-anchor="middle" x="96" y="-116.25" font-family="Helvetica,sans-Serif" font-size="10.00">Devices</text>
</a>
</g>
</g>
<!-- dir_68267d1309a1af8e8297ef4c3efbcdba&#45;&gt;dir_27b17494125eb78195473abe004504ab -->
<g id="edge1" class="edge">
<title>dir_68267d1309a1af8e8297ef4c3efbcdba&#45;&gt;dir_27b17494125eb78195473abe004504ab</title>
<g id="a_edge1"><a xlink:href="dir_000005_000001.html" target="_top">
<path fill="none" stroke="#63b8ff" d="M57.86,-276.51C51.95,-267.92 43.44,-253.9 40,-240.25 35.09,-220.75 43.2,-173.06 47,-165.75 52.89,-154.42 62.88,-144.52 72.31,-136.95"/>
<polygon fill="#63b8ff" stroke="#63b8ff" points="74.25,-139.87 80.17,-131.09 70.06,-134.26 74.25,-139.87"/>
</a>
</g>
<g id="a_edge1&#45;headlabel"><a xlink:href="dir_000005_000001.html" target="_top" xlink:title="13">
<text xml:space="preserve" text-anchor="middle" x="74.28" y="-139.52" font-family="Helvetica,sans-Serif" font-size="10.00" fill="#63b8ff">13</text>
</a>
</g>
</g>
<!-- dir_42a35307dcefecb9f25978d1dedb502f -->
<g id="node4" class="node">
<title>dir_42a35307dcefecb9f25978d1dedb502f</title>
<g id="a_node4"><a xlink:href="dir_42a35307dcefecb9f25978d1dedb502f.html" target="_top" xlink:title="subsystems">
<polygon fill="#a2b4d6" stroke="#404040" points="125.62,-185 56.38,-185 56.38,-165.75 125.62,-165.75 125.62,-185"/>
<text xml:space="preserve" text-anchor="middle" x="91" y="-171.5" font-family="Helvetica,sans-Serif" font-size="10.00">subsystems</text>
</a>
</g>
</g>
<!-- dir_68267d1309a1af8e8297ef4c3efbcdba&#45;&gt;dir_42a35307dcefecb9f25978d1dedb502f -->
<g id="edge2" class="edge">
<title>dir_68267d1309a1af8e8297ef4c3efbcdba&#45;&gt;dir_42a35307dcefecb9f25978d1dedb502f</title>
<g id="a_edge2"><a xlink:href="dir_000005_000007.html" target="_top">
<path fill="none" stroke="#63b8ff" d="M58.32,-276.38C50.75,-263.93 39.16,-240.11 47,-221 51.6,-209.79 60.52,-199.89 69.13,-192.28"/>
<polygon fill="#63b8ff" stroke="#63b8ff" points="71.08,-195.21 76.63,-186.18 66.66,-189.78 71.08,-195.21"/>
</a>
</g>
<g id="a_edge2&#45;headlabel"><a xlink:href="dir_000005_000007.html" target="_top" xlink:title="30">
<text xml:space="preserve" text-anchor="middle" x="71.26" y="-194.85" font-family="Helvetica,sans-Serif" font-size="10.00" fill="#63b8ff">30</text>
</a>
</g>
</g>
<!-- dir_d44c64559bbebec7f509842c48db8b23 -->
<g id="node7" class="node">
<title>dir_d44c64559bbebec7f509842c48db8b23</title>
<g id="a_node7"><a xlink:href="dir_d44c64559bbebec7f509842c48db8b23.html" target="_top" xlink:title="include">
<polygon fill="#edf0f7" stroke="#404040" points="240.38,-19.25 193.62,-19.25 193.62,0 240.38,0 240.38,-19.25"/>
<text xml:space="preserve" text-anchor="middle" x="217" y="-5.75" font-family="Helvetica,sans-Serif" font-size="10.00">include</text>
</a>
</g>
</g>
<!-- dir_68267d1309a1af8e8297ef4c3efbcdba&#45;&gt;dir_d44c64559bbebec7f509842c48db8b23 -->
<g id="edge4" class="edge">
<title>dir_68267d1309a1af8e8297ef4c3efbcdba&#45;&gt;dir_d44c64559bbebec7f509842c48db8b23</title>
<g id="a_edge4"><a xlink:href="dir_000005_000002.html" target="_top">
<path fill="none" stroke="#63b8ff" d="M78.43,-284.21C125.88,-281.17 274,-264.6 274,-176.38 274,-176.38 274,-176.38 274,-119.12 274,-83.67 249.86,-48.41 232.99,-28.1"/>
<polygon fill="#63b8ff" stroke="#63b8ff" points="235.84,-26.05 226.65,-20.79 230.56,-30.63 235.84,-26.05"/>
</a>
</g>
<g id="a_edge4&#45;headlabel"><a xlink:href="dir_000005_000002.html" target="_top" xlink:title="7">
<text xml:space="preserve" text-anchor="middle" x="239.35" y="-21.89" font-family="Helvetica,sans-Serif" font-size="10.00" fill="#63b8ff">7</text>
</a>
</g>
</g>
<!-- dir_96137f7aaa8832ed26fabbeae498f460&#45;&gt;dir_42a35307dcefecb9f25978d1dedb502f -->
<g id="edge6" class="edge">
<title>dir_96137f7aaa8832ed26fabbeae498f460&#45;&gt;dir_42a35307dcefecb9f25978d1dedb502f</title>
<g id="a_edge6"><a xlink:href="dir_000000_000007.html" target="_top">
<path fill="none" stroke="#63b8ff" d="M91,-220.83C91,-214.32 91,-205.17 91,-196.87"/>
<polygon fill="#63b8ff" stroke="#63b8ff" points="94.5,-196.87 91,-186.87 87.5,-196.87 94.5,-196.87"/>
</a>
</g>
<g id="a_edge6&#45;headlabel"><a xlink:href="dir_000000_000007.html" target="_top" xlink:title="25">
<text xml:space="preserve" text-anchor="middle" x="97.34" y="-195.08" font-family="Helvetica,sans-Serif" font-size="10.00" fill="#63b8ff">25</text>
</a>
</g>
</g>
<!-- dir_313caf1132e152dd9b58bea13a4052ca -->
<g id="node5" class="node">
<title>dir_313caf1132e152dd9b58bea13a4052ca</title>
<g id="a_node5"><a xlink:href="dir_313caf1132e152dd9b58bea13a4052ca.html" target="_top" xlink:title="utils">
<polygon fill="#a2b4d6" stroke="#404040" points="113,-74.5 79,-74.5 79,-55.25 113,-55.25 113,-74.5"/>
<text xml:space="preserve" text-anchor="middle" x="96" y="-61" font-family="Helvetica,sans-Serif" font-size="10.00">utils</text>
</a>
</g>
</g>
<!-- dir_96137f7aaa8832ed26fabbeae498f460&#45;&gt;dir_313caf1132e152dd9b58bea13a4052ca -->
<g id="edge5" class="edge">
<title>dir_96137f7aaa8832ed26fabbeae498f460&#45;&gt;dir_313caf1132e152dd9b58bea13a4052ca</title>
<g id="a_edge5"><a xlink:href="dir_000000_000008.html" target="_top">
<path fill="none" stroke="#63b8ff" d="M77.8,-220.77C67.23,-212.83 53.19,-200.1 47,-185 43.75,-177.08 46.39,-174.28 47,-165.75 48.78,-141 44.35,-132.91 55,-110.5 59.99,-100 68.3,-90.26 76.14,-82.57"/>
<polygon fill="#63b8ff" stroke="#63b8ff" points="78.47,-85.19 83.48,-75.86 73.74,-80.03 78.47,-85.19"/>
</a>
</g>
<g id="a_edge5&#45;headlabel"><a xlink:href="dir_000000_000008.html" target="_top" xlink:title="5">
<text xml:space="preserve" text-anchor="middle" x="78.85" y="-84.81" font-family="Helvetica,sans-Serif" font-size="10.00" fill="#63b8ff">5</text>
</a>
</g>
</g>
<!-- dir_96137f7aaa8832ed26fabbeae498f460&#45;&gt;dir_d44c64559bbebec7f509842c48db8b23 -->
<g id="edge7" class="edge">
<title>dir_96137f7aaa8832ed26fabbeae498f460&#45;&gt;dir_d44c64559bbebec7f509842c48db8b23</title>
<g id="a_edge7"><a xlink:href="dir_000000_000002.html" target="_top">
<path fill="none" stroke="#63b8ff" d="M101.12,-220.65C110.51,-212.03 124.57,-198.39 135,-185 170.29,-139.69 180.28,-127.67 202,-74.5 207.75,-60.42 211.58,-43.66 213.93,-30.84"/>
<polygon fill="#63b8ff" stroke="#63b8ff" points="217.37,-31.51 215.56,-21.07 210.47,-30.36 217.37,-31.51"/>
</a>
</g>
<g id="a_edge7&#45;headlabel"><a xlink:href="dir_000000_000002.html" target="_top" xlink:title="2">
<text xml:space="preserve" text-anchor="middle" x="219.83" y="-30.15" font-family="Helvetica,sans-Serif" font-size="10.00" fill="#63b8ff">2</text>
</a>
</g>
</g>
<!-- dir_27b17494125eb78195473abe004504ab&#45;&gt;dir_313caf1132e152dd9b58bea13a4052ca -->
<g id="edge8" class="edge">
<title>dir_27b17494125eb78195473abe004504ab&#45;&gt;dir_313caf1132e152dd9b58bea13a4052ca</title>
<g id="a_edge8"><a xlink:href="dir_000001_000008.html" target="_top">
<path fill="none" stroke="#63b8ff" d="M90.83,-110.33C89.42,-103.74 88.96,-94.46 89.43,-86.07"/>
<polygon fill="#63b8ff" stroke="#63b8ff" points="92.88,-86.71 90.61,-76.36 85.93,-85.87 92.88,-86.71"/>
</a>
</g>
<g id="a_edge8&#45;headlabel"><a xlink:href="dir_000001_000008.html" target="_top" xlink:title="2">
<text xml:space="preserve" text-anchor="middle" x="95.44" y="-85.25" font-family="Helvetica,sans-Serif" font-size="10.00" fill="#63b8ff">2</text>
</a>
</g>
</g>
<!-- dir_97aefd0d527b934f1d99a682da8fe6a9 -->
<g id="node6" class="node">
<title>dir_97aefd0d527b934f1d99a682da8fe6a9</title>
<g id="a_node6"><a xlink:href="dir_97aefd0d527b934f1d99a682da8fe6a9.html" target="_top" xlink:title="lib">
<polygon fill="#edf0f7" stroke="red" points="170.4,-74.5 141.6,-74.5 141.6,-55.25 170.4,-55.25 170.4,-74.5"/>
<text xml:space="preserve" text-anchor="middle" x="156" y="-61" font-family="Helvetica,sans-Serif" font-size="10.00">lib</text>
</a>
</g>
</g>
<!-- dir_27b17494125eb78195473abe004504ab&#45;&gt;dir_97aefd0d527b934f1d99a682da8fe6a9 -->
<g id="edge9" class="edge">
<title>dir_27b17494125eb78195473abe004504ab&#45;&gt;dir_97aefd0d527b934f1d99a682da8fe6a9</title>
<g id="a_edge9"><a xlink:href="dir_000001_000004.html" target="_top">
<path fill="none" stroke="#63b8ff" d="M106.18,-110.09C114.76,-102.47 127.27,-91.37 137.6,-82.2"/>
<polygon fill="#63b8ff" stroke="#63b8ff" points="139.68,-85.04 144.84,-75.78 135.04,-79.8 139.68,-85.04"/>
</a>
</g>
<g id="a_edge9&#45;headlabel"><a xlink:href="dir_000001_000004.html" target="_top" xlink:title="1">
<text xml:space="preserve" text-anchor="middle" x="140.01" y="-84.66" font-family="Helvetica,sans-Serif" font-size="10.00" fill="#63b8ff">1</text>
</a>
</g>
</g>
<!-- dir_42a35307dcefecb9f25978d1dedb502f&#45;&gt;dir_27b17494125eb78195473abe004504ab -->
<g id="edge10" class="edge">
<title>dir_42a35307dcefecb9f25978d1dedb502f&#45;&gt;dir_27b17494125eb78195473abe004504ab</title>
<g id="a_edge10"><a xlink:href="dir_000007_000001.html" target="_top">
<path fill="none" stroke="#63b8ff" d="M91.83,-165.58C92.44,-158.99 93.32,-149.71 94.1,-141.32"/>
<polygon fill="#63b8ff" stroke="#63b8ff" points="97.56,-141.9 95.01,-131.62 90.6,-141.25 97.56,-141.9"/>
</a>
</g>
<g id="a_edge10&#45;headlabel"><a xlink:href="dir_000007_000001.html" target="_top" xlink:title="11">
<text xml:space="preserve" text-anchor="middle" x="100.2" y="-140.36" font-family="Helvetica,sans-Serif" font-size="10.00" fill="#63b8ff">11</text>
</a>
</g>
</g>
<!-- dir_42a35307dcefecb9f25978d1dedb502f&#45;&gt;dir_313caf1132e152dd9b58bea13a4052ca -->
<g id="edge11" class="edge">
<title>dir_42a35307dcefecb9f25978d1dedb502f&#45;&gt;dir_313caf1132e152dd9b58bea13a4052ca</title>
<g id="a_edge11"><a xlink:href="dir_000007_000008.html" target="_top">
<path fill="none" stroke="#63b8ff" d="M81.98,-165.53C70.78,-153.43 53.96,-130.88 61,-110.5 64.47,-100.44 71.25,-90.93 77.92,-83.28"/>
<polygon fill="#63b8ff" stroke="#63b8ff" points="80.41,-85.75 84.74,-76.08 75.33,-80.94 80.41,-85.75"/>
</a>
</g>
<g id="a_edge11&#45;headlabel"><a xlink:href="dir_000007_000008.html" target="_top" xlink:title="5">
<text xml:space="preserve" text-anchor="middle" x="81.04" y="-85.34" font-family="Helvetica,sans-Serif" font-size="10.00" fill="#63b8ff">5</text>
</a>
</g>
</g>
<!-- dir_42a35307dcefecb9f25978d1dedb502f&#45;&gt;dir_d44c64559bbebec7f509842c48db8b23 -->
<g id="edge12" class="edge">
<title>dir_42a35307dcefecb9f25978d1dedb502f&#45;&gt;dir_d44c64559bbebec7f509842c48db8b23</title>
<g id="a_edge12"><a xlink:href="dir_000007_000002.html" target="_top">
<path fill="none" stroke="#63b8ff" d="M99.01,-165.52C107.11,-156.54 119.99,-142.23 131,-129.75 152.52,-105.36 159.94,-100.86 179,-74.5 189.41,-60.1 199.61,-42.72 206.82,-29.72"/>
<polygon fill="#63b8ff" stroke="#63b8ff" points="209.89,-31.4 211.59,-20.95 203.74,-28.06 209.89,-31.4"/>
</a>
</g>
<g id="a_edge12&#45;headlabel"><a xlink:href="dir_000007_000002.html" target="_top" xlink:title="3">
<text xml:space="preserve" text-anchor="middle" x="211.39" y="-30.71" font-family="Helvetica,sans-Serif" font-size="10.00" fill="#63b8ff">3</text>
</a>
</g>
</g>
<!-- dir_313caf1132e152dd9b58bea13a4052ca&#45;&gt;dir_27b17494125eb78195473abe004504ab -->
<g id="edge13" class="edge">
<title>dir_313caf1132e152dd9b58bea13a4052ca&#45;&gt;dir_27b17494125eb78195473abe004504ab</title>
<g id="a_edge13"><a xlink:href="dir_000008_000001.html" target="_top">
<path fill="none" stroke="#63b8ff" d="M101.21,-74.86C102.6,-81.5 103.05,-90.8 102.56,-99.17"/>
<polygon fill="#63b8ff" stroke="#63b8ff" points="99.12,-98.47 101.35,-108.83 106.06,-99.34 99.12,-98.47"/>
</a>
</g>
<g id="a_edge13&#45;headlabel"><a xlink:href="dir_000008_000001.html" target="_top" xlink:title="1">
<text xml:space="preserve" text-anchor="middle" x="96.56" y="-92.18" font-family="Helvetica,sans-Serif" font-size="10.00" fill="#63b8ff">1</text>
</a>
</g>
</g>
<!-- dir_313caf1132e152dd9b58bea13a4052ca&#45;&gt;dir_d44c64559bbebec7f509842c48db8b23 -->
<g id="edge14" class="edge">
<title>dir_313caf1132e152dd9b58bea13a4052ca&#45;&gt;dir_d44c64559bbebec7f509842c48db8b23</title>
<g id="a_edge14"><a xlink:href="dir_000008_000002.html" target="_top">
<path fill="none" stroke="#63b8ff" d="M113.3,-56.05C119.51,-53.26 126.56,-50.1 133,-47.25 150.38,-39.56 169.82,-31.07 185.63,-24.21"/>
<polygon fill="#63b8ff" stroke="#63b8ff" points="186.74,-27.54 194.53,-20.34 183.96,-21.11 186.74,-27.54"/>
</a>
</g>
<g id="a_edge14&#45;headlabel"><a xlink:href="dir_000008_000002.html" target="_top" xlink:title="1">
<text xml:space="preserve" text-anchor="middle" x="185.97" y="-27.09" font-family="Helvetica,sans-Serif" font-size="10.00" fill="#63b8ff">1</text>
</a>
</g>
</g>
</g>
</svg>
