<?xml version="1.0" encoding="UTF-8" standalone="no"?>
<!DOCTYPE svg PUBLIC "-//W3C//DTD SVG 1.1//EN"
 "http://www.w3.org/Graphics/SVG/1.1/DTD/svg11.dtd">
<!-- Generated by graphviz version 14.1.2 (20260124.0452)
 -->
<!-- Title: src/Autonomous/AutonomousRoutine.hpp Pages: 1 -->
<svg width="471pt" height="260pt"
 viewBox="0.00 0.00 471.00 260.00" xmlns="http://www.w3.org/2000/svg" xmlns:xlink="http://www.w3.org/1999/xlink">
<g id="graph0" class="graph" transform="scale(1 1) rotate(0) translate(4 255.5)">
<title>src/Autonomous/AutonomousRoutine.hpp</title>
<!-- Node1 -->
<g id="Node000001" class="node">
<title>Node1</title>
<g id="a_Node000001"><a xlink:title=" ">
<polygon fill="#999999" stroke="#666666" points="145.88,-251.5 0.88,-251.5 0.88,-221 145.88,-221 145.88,-251.5"/>
<text xml:space="preserve" text-anchor="start" x="8.88" y="-238" font-family="Helvetica,sans-Serif" font-size="10.00">src/Autonomous/Autonomous</text>
<text xml:space="preserve" text-anchor="middle" x="73.38" y="-226.75" font-family="Helvetica,sans-Serif" font-size="10.00">Routine.hpp</text>
</a>
</g>
</g>
<!-- Node2 -->
<g id="Node000002" class="node">
<title>Node2</title>
<g id="a_Node000002"><a xlink:href="_auto_step_8h.html" target="_top" xlink:title=" ">
<polygon fill="white" stroke="#666666" points="64.75,-185 0,-185 0,-165.75 64.75,-165.75 64.75,-185"/>
<text xml:space="preserve" text-anchor="middle" x="32.38" y="-171.5" font-family="Helvetica,sans-Serif" font-size="10.00">AutoStep.h</text>
</a>
</g>
</g>
<!-- Node1&#45;&gt;Node2 -->
<g id="edge1_Node000001_Node000002" class="edge">
<title>Node1&#45;&gt;Node2</title>
<g id="a_edge1_Node000001_Node000002"><a xlink:title=" ">
<path fill="none" stroke="#63b8ff" d="M63.24,-220.7C57.78,-212.85 50.98,-203.1 45.16,-194.74"/>
<polygon fill="#63b8ff" stroke="#63b8ff" points="48.15,-192.9 39.56,-186.69 42.4,-196.9 48.15,-192.9"/>
</a>
</g>
</g>
<!-- Node3 -->
<g id="Node000003" class="node">
<title>Node3</title>
<g id="a_Node000003"><a xlink:href="_config_8hpp.html" target="_top" xlink:title=" ">
<polygon fill="white" stroke="#666666" points="146,-185 82.75,-185 82.75,-165.75 146,-165.75 146,-185"/>
<text xml:space="preserve" text-anchor="middle" x="114.38" y="-171.5" font-family="Helvetica,sans-Serif" font-size="10.00">Config.hpp</text>
</a>
</g>
</g>
<!-- Node1&#45;&gt;Node3 -->
<g id="edge2_Node000001_Node000003" class="edge">
<title>Node1&#45;&gt;Node3</title>
<g id="a_edge2_Node000001_Node000003"><a xlink:title=" ">
<path fill="none" stroke="#63b8ff" d="M83.51,-220.7C88.97,-212.85 95.77,-203.1 101.59,-194.74"/>
<polygon fill="#63b8ff" stroke="#63b8ff" points="104.35,-196.9 107.19,-186.69 98.6,-192.9 104.35,-196.9"/>
</a>
</g>
</g>
<!-- Node4 -->
<g id="Node000004" class="node">
<title>Node4</title>
<g id="a_Node000004"><a xlink:title=" ">
<polygon fill="#e0e0e0" stroke="#999999" points="135,-19.25 77.75,-19.25 77.75,0 135,0 135,-19.25"/>
<text xml:space="preserve" text-anchor="middle" x="106.38" y="-5.75" font-family="Helvetica,sans-Serif" font-size="10.00">Arduino.h</text>
</a>
</g>
</g>
<!-- Node3&#45;&gt;Node4 -->
<g id="edge3_Node000003_Node000004" class="edge">
<title>Node3&#45;&gt;Node4</title>
<g id="a_edge3_Node000003_Node000004"><a xlink:title=" ">
<path fill="none" stroke="#63b8ff" d="M101.98,-165.36C81.63,-149.65 42.04,-115.05 28.38,-74.5 25.64,-66.39 24.08,-62.65 28.38,-55.25 36.81,-40.7 51.98,-30.49 66.71,-23.54"/>
<polygon fill="#63b8ff" stroke="#63b8ff" points="68.04,-26.78 75.87,-19.64 65.3,-20.34 68.04,-26.78"/>
</a>
</g>
</g>
<!-- Node5 -->
<g id="Node000005" class="node">
<title>Node5</title>
<g id="a_Node000005"><a xlink:href="_dual_motor_controller_8hpp.html" target="_top" xlink:title=" ">
<polygon fill="white" stroke="#666666" points="248.38,-129.75 88.38,-129.75 88.38,-110.5 248.38,-110.5 248.38,-129.75"/>
<text xml:space="preserve" text-anchor="middle" x="168.38" y="-116.25" font-family="Helvetica,sans-Serif" font-size="10.00">Devices/DualMotorController.hpp</text>
</a>
</g>
</g>
<!-- Node3&#45;&gt;Node5 -->
<g id="edge4_Node000003_Node000005" class="edge">
<title>Node3&#45;&gt;Node5</title>
<g id="a_edge4_Node000003_Node000005"><a xlink:title=" ">
<path fill="none" stroke="#63b8ff" d="M123.29,-165.58C130.83,-158.15 141.84,-147.29 151.1,-138.16"/>
<polygon fill="#63b8ff" stroke="#63b8ff" points="153.52,-140.69 158.19,-131.17 148.61,-135.7 153.52,-140.69"/>
</a>
</g>
</g>
<!-- Node6 -->
<g id="Node000006" class="node">
<title>Node6</title>
<g id="a_Node000006"><a xlink:href="_p_i_d_8hpp.html" target="_top" xlink:title=" ">
<polygon fill="white" stroke="#666666" points="110.88,-74.5 37.88,-74.5 37.88,-55.25 110.88,-55.25 110.88,-74.5"/>
<text xml:space="preserve" text-anchor="middle" x="74.38" y="-61" font-family="Helvetica,sans-Serif" font-size="10.00">utils/PID.hpp</text>
</a>
</g>
</g>
<!-- Node3&#45;&gt;Node6 -->
<g id="edge11_Node000003_Node000006" class="edge">
<title>Node3&#45;&gt;Node6</title>
<g id="a_edge11_Node000003_Node000006"><a xlink:title=" ">
<path fill="none" stroke="#63b8ff" d="M104.76,-165.5C96.43,-157.16 84.88,-143.88 79.38,-129.75 73.98,-115.91 72.85,-99.14 73.01,-86.25"/>
<polygon fill="#63b8ff" stroke="#63b8ff" points="76.5,-86.56 73.42,-76.43 69.51,-86.27 76.5,-86.56"/>
</a>
</g>
</g>
<!-- Node9 -->
<g id="Node000009" class="node">
<title>Node9</title>
<g id="a_Node000009"><a xlink:title=" ">
<polygon fill="#e0e0e0" stroke="#999999" points="309.88,-129.75 266.88,-129.75 266.88,-110.5 309.88,-110.5 309.88,-129.75"/>
<text xml:space="preserve" text-anchor="middle" x="288.38" y="-116.25" font-family="Helvetica,sans-Serif" font-size="10.00">cmath</text>
</a>
</g>
</g>
<!-- Node3&#45;&gt;Node9 -->
<g id="edge12_Node000003_Node000009" class="edge">
<title>Node3&#45;&gt;Node9</title>
<g id="a_edge12_Node000003_Node000009"><a xlink:title=" ">
<path fill="none" stroke="#63b8ff" d="M143.89,-165.34C174.94,-155.84 223.67,-140.93 255.82,-131.09"/>
<polygon fill="#63b8ff" stroke="#63b8ff" points="256.46,-134.55 265,-128.28 254.41,-127.86 256.46,-134.55"/>
</a>
</g>
</g>
<!-- Node5&#45;&gt;Node4 -->
<g id="edge5_Node000005_Node000004" class="edge">
<title>Node5&#45;&gt;Node4</title>
<g id="a_edge5_Node000005_Node000004"><a xlink:title=" ">
<path fill="none" stroke="#63b8ff" d="M163.3,-110.25C153.26,-92.68 130.68,-53.16 117.17,-29.52"/>
<polygon fill="#63b8ff" stroke="#63b8ff" points="120.27,-27.89 112.27,-20.94 114.19,-31.36 120.27,-27.89"/>
</a>
</g>
</g>
<!-- Node5&#45;&gt;Node6 -->
<g id="edge6_Node000005_Node000006" class="edge">
<title>Node5&#45;&gt;Node6</title>
<g id="a_edge6_Node000005_Node000006"><a xlink:title=" ">
<path fill="none" stroke="#63b8ff" d="M152.43,-110.09C138.11,-101.98 116.84,-89.93 100.12,-80.46"/>
<polygon fill="#63b8ff" stroke="#63b8ff" points="102.14,-77.58 91.72,-75.7 98.69,-83.67 102.14,-77.58"/>
</a>
</g>
</g>
<!-- Node7 -->
<g id="Node000007" class="node">
<title>Node7</title>
<g id="a_Node000007"><a xlink:title=" ">
<polygon fill="#e0e0e0" stroke="#999999" points="317.12,-74.5 167.62,-74.5 167.62,-55.25 317.12,-55.25 317.12,-74.5"/>
<text xml:space="preserve" text-anchor="middle" x="242.38" y="-61" font-family="Helvetica,sans-Serif" font-size="10.00">DualTB9051FTGMotorShield.h</text>
</a>
</g>
</g>
<!-- Node5&#45;&gt;Node7 -->
<g id="edge8_Node000005_Node000007" class="edge">
<title>Node5&#45;&gt;Node7</title>
<g id="a_edge8_Node000005_Node000007"><a xlink:title=" ">
<path fill="none" stroke="#63b8ff" d="M180.93,-110.09C191.84,-102.24 207.88,-90.7 220.84,-81.37"/>
<polygon fill="#63b8ff" stroke="#63b8ff" points="222.71,-84.34 228.78,-75.66 218.62,-78.66 222.71,-84.34"/>
</a>
</g>
</g>
<!-- Node8 -->
<g id="Node000008" class="node">
<title>Node8</title>
<g id="a_Node000008"><a xlink:href="_l298_n_motor_driver_mega_8h.html" target="_top" xlink:title=" ">
<polygon fill="white" stroke="#666666" points="463.25,-74.5 335.5,-74.5 335.5,-55.25 463.25,-55.25 463.25,-74.5"/>
<text xml:space="preserve" text-anchor="middle" x="399.38" y="-61" font-family="Helvetica,sans-Serif" font-size="10.00">L298NMotorDriverMega.h</text>
</a>
</g>
</g>
<!-- Node5&#45;&gt;Node8 -->
<g id="edge9_Node000005_Node000008" class="edge">
<title>Node5&#45;&gt;Node8</title>
<g id="a_edge9_Node000005_Node000008"><a xlink:title=" ">
<path fill="none" stroke="#63b8ff" d="M207.82,-110.03C246.78,-101.05 306.5,-87.28 348.9,-77.51"/>
<polygon fill="#63b8ff" stroke="#63b8ff" points="349.66,-80.93 358.61,-75.27 348.08,-74.11 349.66,-80.93"/>
</a>
</g>
</g>
<!-- Node6&#45;&gt;Node4 -->
<g id="edge7_Node000006_Node000004" class="edge">
<title>Node6&#45;&gt;Node4</title>
<g id="a_edge7_Node000006_Node000004"><a xlink:title=" ">
<path fill="none" stroke="#63b8ff" d="M79.66,-55.08C83.85,-48.11 89.85,-38.12 95.11,-29.37"/>
<polygon fill="#63b8ff" stroke="#63b8ff" points="98.05,-31.28 100.2,-20.91 92.05,-27.68 98.05,-31.28"/>
</a>
</g>
</g>
<!-- Node8&#45;&gt;Node4 -->
<g id="edge10_Node000008_Node000004" class="edge">
<title>Node8&#45;&gt;Node4</title>
<g id="a_edge10_Node000008_Node000004"><a xlink:title=" ">
<path fill="none" stroke="#63b8ff" d="M349.34,-54.78C292.05,-44.37 199.34,-27.52 146.55,-17.93"/>
<polygon fill="#63b8ff" stroke="#63b8ff" points="147.24,-14.5 136.78,-16.15 145.99,-21.38 147.24,-14.5"/>
</a>
</g>
</g>
</g>
</svg>
