<?xml version="1.0" encoding="UTF-8" standalone="no"?>
<!DOCTYPE svg PUBLIC "-//W3C//DTD SVG 1.1//EN"
 "http://www.w3.org/Graphics/SVG/1.1/DTD/svg11.dtd">
<!-- Generated by graphviz version 14.1.2 (20260124.0452)
 -->
<!-- Title: src/Devices/Button.hpp Pages: 1 -->
<svg width="456pt" height="271pt"
 viewBox="0.00 0.00 456.00 271.00" xmlns="http://www.w3.org/2000/svg" xmlns:xlink="http://www.w3.org/1999/xlink">
<g id="graph0" class="graph" transform="scale(1 1) rotate(0) translate(4 266.75)">
<title>src/Devices/Button.hpp</title>
<!-- Node1 -->
<g id="Node000001" class="node">
<title>Node1</title>
<g id="a_Node000001"><a xlink:title=" ">
<polygon fill="#999999" stroke="#666666" points="272,-262.75 153.25,-262.75 153.25,-243.5 272,-243.5 272,-262.75"/>
<text xml:space="preserve" text-anchor="middle" x="212.62" y="-249.25" font-family="Helvetica,sans-Serif" font-size="10.00">src/Devices/Button.hpp</text>
</a>
</g>
</g>
<!-- Node2 -->
<g id="Node000002" class="node">
<title>Node2</title>
<g id="a_Node000002"><a xlink:href="_shooter_8hpp.html" target="_top" xlink:title=" ">
<polygon fill="white" stroke="#666666" points="282.88,-207.5 142.38,-207.5 142.38,-188.25 282.88,-188.25 282.88,-207.5"/>
<text xml:space="preserve" text-anchor="middle" x="212.62" y="-194" font-family="Helvetica,sans-Serif" font-size="10.00">src/subsystems/Shooter.hpp</text>
</a>
</g>
</g>
<!-- Node1&#45;&gt;Node2 -->
<g id="edge1_Node000001_Node000002" class="edge">
<title>Node1&#45;&gt;Node2</title>
<g id="a_edge1_Node000001_Node000002"><a xlink:title=" ">
<path fill="none" stroke="#63b8ff" d="M212.62,-231.88C212.62,-223.59 212.62,-214.42 212.62,-207.86"/>
<polygon fill="#63b8ff" stroke="#63b8ff" points="209.13,-231.82 212.63,-241.82 216.13,-231.82 209.13,-231.82"/>
</a>
</g>
</g>
<!-- Node3 -->
<g id="Node000003" class="node">
<title>Node3</title>
<g id="a_Node000003"><a xlink:href="_planner_8hpp.html" target="_top" xlink:title=" ">
<polygon fill="white" stroke="#666666" points="141.25,-146.62 0,-146.62 0,-127.38 141.25,-127.38 141.25,-146.62"/>
<text xml:space="preserve" text-anchor="middle" x="70.62" y="-133.12" font-family="Helvetica,sans-Serif" font-size="10.00">src/Autonomous/Planner.hpp</text>
</a>
</g>
</g>
<!-- Node2&#45;&gt;Node3 -->
<g id="edge2_Node000002_Node000003" class="edge">
<title>Node2&#45;&gt;Node3</title>
<g id="a_edge2_Node000002_Node000003"><a xlink:title=" ">
<path fill="none" stroke="#63b8ff" d="M180.29,-183.47C153.35,-172.3 115.73,-156.7 92.29,-146.98"/>
<polygon fill="#63b8ff" stroke="#63b8ff" points="178.77,-186.63 189.35,-187.23 181.45,-180.16 178.77,-186.63"/>
</a>
</g>
</g>
<!-- Node5 -->
<g id="Node000005" class="node">
<title>Node5</title>
<g id="a_Node000005"><a xlink:href="_robot_8hpp.html" target="_top" xlink:title=" ">
<polygon fill="white" stroke="#666666" points="265.38,-85.75 187.88,-85.75 187.88,-66.5 265.38,-66.5 265.38,-85.75"/>
<text xml:space="preserve" text-anchor="middle" x="226.62" y="-72.25" font-family="Helvetica,sans-Serif" font-size="10.00">src/Robot.hpp</text>
</a>
</g>
</g>
<!-- Node2&#45;&gt;Node5 -->
<g id="edge11_Node000002_Node000005" class="edge">
<title>Node2&#45;&gt;Node5</title>
<g id="a_edge11_Node000002_Node000005"><a xlink:title=" ">
<path fill="none" stroke="#63b8ff" d="M199.95,-178.66C190.93,-163.35 181.55,-140.96 188.62,-121.75 193.97,-107.23 206.36,-94.22 215.55,-86.05"/>
<polygon fill="#63b8ff" stroke="#63b8ff" points="196.77,-180.19 205.12,-186.73 202.67,-176.42 196.77,-180.19"/>
</a>
</g>
</g>
<!-- Node8 -->
<g id="Node000008" class="node">
<title>Node8</title>
<g id="a_Node000008"><a xlink:href="_delay_step_8hpp.html" target="_top" xlink:title=" ">
<polygon fill="white" stroke="#666666" points="313.5,-152.25 197.75,-152.25 197.75,-121.75 313.5,-121.75 313.5,-152.25"/>
<text xml:space="preserve" text-anchor="start" x="205.75" y="-138.75" font-family="Helvetica,sans-Serif" font-size="10.00">src/Autonomous/Steps</text>
<text xml:space="preserve" text-anchor="middle" x="255.62" y="-127.5" font-family="Helvetica,sans-Serif" font-size="10.00">/DelayStep.hpp</text>
</a>
</g>
</g>
<!-- Node2&#45;&gt;Node8 -->
<g id="edge7_Node000002_Node000008" class="edge">
<title>Node2&#45;&gt;Node8</title>
<g id="a_edge7_Node000002_Node000008"><a xlink:title=" ">
<path fill="none" stroke="#63b8ff" d="M225.75,-178.9C231.92,-170.45 239.19,-160.5 245.01,-152.53"/>
<polygon fill="#63b8ff" stroke="#63b8ff" points="223.12,-176.57 220.05,-186.71 228.77,-180.7 223.12,-176.57"/>
</a>
</g>
</g>
<!-- Node9 -->
<g id="Node000009" class="node">
<title>Node9</title>
<g id="a_Node000009"><a xlink:href="_fire_step_8hpp.html" target="_top" xlink:title=" ">
<polygon fill="white" stroke="#666666" points="447.5,-152.25 331.75,-152.25 331.75,-121.75 447.5,-121.75 447.5,-152.25"/>
<text xml:space="preserve" text-anchor="start" x="339.75" y="-138.75" font-family="Helvetica,sans-Serif" font-size="10.00">src/Autonomous/Steps</text>
<text xml:space="preserve" text-anchor="middle" x="389.62" y="-127.5" font-family="Helvetica,sans-Serif" font-size="10.00">/FireStep.hpp</text>
</a>
</g>
</g>
<!-- Node2&#45;&gt;Node9 -->
<g id="edge9_Node000002_Node000009" class="edge">
<title>Node2&#45;&gt;Node9</title>
<g id="a_edge9_Node000002_Node000009"><a xlink:title=" ">
<path fill="none" stroke="#63b8ff" d="M250.77,-184.19C278.58,-174.94 316.33,-162.38 345.45,-152.69"/>
<polygon fill="#63b8ff" stroke="#63b8ff" points="249.71,-180.85 241.33,-187.33 251.92,-187.49 249.71,-180.85"/>
</a>
</g>
</g>
<!-- Node4 -->
<g id="Node000004" class="node">
<title>Node4</title>
<g id="a_Node000004"><a xlink:href="_planner_8cpp.html" target="_top" xlink:title=" ">
<polygon fill="white" stroke="#666666" points="141.25,-85.75 0,-85.75 0,-66.5 141.25,-66.5 141.25,-85.75"/>
<text xml:space="preserve" text-anchor="middle" x="70.62" y="-72.25" font-family="Helvetica,sans-Serif" font-size="10.00">src/Autonomous/Planner.cpp</text>
</a>
</g>
</g>
<!-- Node3&#45;&gt;Node4 -->
<g id="edge3_Node000003_Node000004" class="edge">
<title>Node3&#45;&gt;Node4</title>
<g id="a_edge3_Node000003_Node000004"><a xlink:title=" ">
<path fill="none" stroke="#63b8ff" d="M70.62,-115.57C70.62,-105.54 70.62,-93.96 70.62,-86.15"/>
<polygon fill="#63b8ff" stroke="#63b8ff" points="67.13,-115.54 70.63,-125.54 74.13,-115.54 67.13,-115.54"/>
</a>
</g>
</g>
<!-- Node3&#45;&gt;Node5 -->
<g id="edge4_Node000003_Node000005" class="edge">
<title>Node3&#45;&gt;Node5</title>
<g id="a_edge4_Node000003_Node000005"><a xlink:title=" ">
<path fill="none" stroke="#63b8ff" d="M105.33,-122.9C134.88,-111.75 176.56,-96.02 202.56,-86.21"/>
<polygon fill="#63b8ff" stroke="#63b8ff" points="104.19,-119.59 96.07,-126.4 106.67,-126.14 104.19,-119.59"/>
</a>
</g>
</g>
<!-- Node6 -->
<g id="Node000006" class="node">
<title>Node6</title>
<g id="a_Node000006"><a xlink:href="_strategy_controller_step_8hpp.html" target="_top" xlink:title=" ">
<polygon fill="white" stroke="#666666" points="233,-30.5 96.25,-30.5 96.25,0 233,0 233,-30.5"/>
<text xml:space="preserve" text-anchor="start" x="104.25" y="-17" font-family="Helvetica,sans-Serif" font-size="10.00">src/Autonomous/Steps</text>
<text xml:space="preserve" text-anchor="middle" x="164.62" y="-5.75" font-family="Helvetica,sans-Serif" font-size="10.00">/StrategyControllerStep.hpp</text>
</a>
</g>
</g>
<!-- Node5&#45;&gt;Node6 -->
<g id="edge5_Node000005_Node000006" class="edge">
<title>Node5&#45;&gt;Node6</title>
<g id="a_edge5_Node000005_Node000006"><a xlink:title=" ">
<path fill="none" stroke="#63b8ff" d="M209.14,-58.52C199.94,-49.79 188.78,-39.18 179.93,-30.78"/>
<polygon fill="#63b8ff" stroke="#63b8ff" points="206.45,-60.79 216.11,-65.14 211.27,-55.72 206.45,-60.79"/>
</a>
</g>
</g>
<!-- Node7 -->
<g id="Node000007" class="node">
<title>Node7</title>
<g id="a_Node000007"><a xlink:href="main_8cpp.html" target="_top" xlink:title=" ">
<polygon fill="white" stroke="#666666" points="323.75,-24.88 251.5,-24.88 251.5,-5.63 323.75,-5.63 323.75,-24.88"/>
<text xml:space="preserve" text-anchor="middle" x="287.62" y="-11.38" font-family="Helvetica,sans-Serif" font-size="10.00">src/main.cpp</text>
</a>
</g>
</g>
<!-- Node5&#45;&gt;Node7 -->
<g id="edge6_Node000005_Node000007" class="edge">
<title>Node5&#45;&gt;Node7</title>
<g id="a_edge6_Node000005_Node000007"><a xlink:title=" ">
<path fill="none" stroke="#63b8ff" d="M244.06,-58.3C255.19,-47.55 269.19,-34.04 278.27,-25.28"/>
<polygon fill="#63b8ff" stroke="#63b8ff" points="241.74,-55.67 236.98,-65.13 246.6,-60.71 241.74,-55.67"/>
</a>
</g>
</g>
<!-- Node8&#45;&gt;Node5 -->
<g id="edge8_Node000008_Node000005" class="edge">
<title>Node8&#45;&gt;Node5</title>
<g id="a_edge8_Node000008_Node000005"><a xlink:title=" ">
<path fill="none" stroke="#63b8ff" d="M243.39,-111.15C239.03,-102.3 234.39,-92.88 231.1,-86.2"/>
<polygon fill="#63b8ff" stroke="#63b8ff" points="240.23,-112.66 247.79,-120.09 246.51,-109.57 240.23,-112.66"/>
</a>
</g>
</g>
<!-- Node9&#45;&gt;Node5 -->
<g id="edge10_Node000009_Node000005" class="edge">
<title>Node9&#45;&gt;Node5</title>
<g id="a_edge10_Node000009_Node000005"><a xlink:title=" ">
<path fill="none" stroke="#63b8ff" d="M338.17,-117.41C309.3,-106.99 274.57,-94.44 251.62,-86.15"/>
<polygon fill="#63b8ff" stroke="#63b8ff" points="336.9,-120.68 347.49,-120.78 339.27,-114.09 336.9,-120.68"/>
</a>
</g>
</g>
</g>
</svg>
