<?xml version="1.0" encoding="UTF-8" standalone="no"?>
<!DOCTYPE svg PUBLIC "-//W3C//DTD SVG 1.1//EN"
 "http://www.w3.org/Graphics/SVG/1.1/DTD/svg11.dtd">
<!-- Generated by graphviz version 14.1.2 (20260124.0452)
 -->
<!-- Title: src/Devices/EncoderWrapper.hpp Pages: 1 -->
<svg width="1936pt" height="448pt"
 viewBox="0.00 0.00 1936.00 448.00" xmlns="http://www.w3.org/2000/svg" xmlns:xlink="http://www.w3.org/1999/xlink">
<g id="graph0" class="graph" transform="scale(1 1) rotate(0) translate(4 443.75)">
<title>src/Devices/EncoderWrapper.hpp</title>
<!-- Node1 -->
<g id="Node000001" class="node">
<title>Node1</title>
<g id="a_Node000001"><a xlink:title=" ">
<polygon fill="#999999" stroke="#666666" points="512.42,-439.75 350.92,-439.75 350.92,-420.5 512.42,-420.5 512.42,-439.75"/>
<text xml:space="preserve" text-anchor="middle" x="431.67" y="-426.25" font-family="Helvetica,sans-Serif" font-size="10.00">src/Devices/EncoderWrapper.hpp</text>
</a>
</g>
</g>
<!-- Node2 -->
<g id="Node000002" class="node">
<title>Node2</title>
<g id="a_Node000002"><a xlink:href="_drive_8hpp.html" target="_top" xlink:title=" ">
<polygon fill="white" stroke="#666666" points="1154.05,-274 1023.3,-274 1023.3,-254.75 1154.05,-254.75 1154.05,-274"/>
<text xml:space="preserve" text-anchor="middle" x="1088.67" y="-260.5" font-family="Helvetica,sans-Serif" font-size="10.00">src/subsystems/Drive.hpp</text>
</a>
</g>
</g>
<!-- Node1&#45;&gt;Node2 -->
<g id="edge1_Node000001_Node000002" class="edge">
<title>Node1&#45;&gt;Node2</title>
<g id="a_edge1_Node000001_Node000002"><a xlink:title=" ">
<path fill="none" stroke="#63b8ff" d="M472.51,-416.74C548.73,-393.87 718.06,-344.21 862.67,-310 922.03,-295.96 990.87,-282.81 1036.83,-274.47"/>
<polygon fill="#63b8ff" stroke="#63b8ff" points="471.54,-413.38 462.97,-419.61 473.55,-420.08 471.54,-413.38"/>
</a>
</g>
</g>
<!-- Node22 -->
<g id="Node000022" class="node">
<title>Node22</title>
<g id="a_Node000022"><a xlink:href="_miner_8hpp.html" target="_top" xlink:title=" ">
<polygon fill="white" stroke="#666666" points="336.05,-274 205.3,-274 205.3,-254.75 336.05,-254.75 336.05,-274"/>
<text xml:space="preserve" text-anchor="middle" x="270.67" y="-260.5" font-family="Helvetica,sans-Serif" font-size="10.00">src/subsystems/Miner.hpp</text>
</a>
</g>
</g>
<!-- Node1&#45;&gt;Node22 -->
<g id="edge38_Node000001_Node000022" class="edge">
<title>Node1&#45;&gt;Node22</title>
<g id="a_edge38_Node000001_Node000022"><a xlink:title=" ">
<path fill="none" stroke="#63b8ff" d="M415,-412.16C381.08,-377.67 305.09,-300.38 279.37,-274.22"/>
<polygon fill="#63b8ff" stroke="#63b8ff" points="412.45,-414.56 421.96,-419.24 417.44,-409.66 412.45,-414.56"/>
</a>
</g>
</g>
<!-- Node23 -->
<g id="Node000023" class="node">
<title>Node23</title>
<g id="a_Node000023"><a xlink:href="_shooter_8hpp.html" target="_top" xlink:title=" ">
<polygon fill="white" stroke="#666666" points="161.92,-213.12 21.42,-213.12 21.42,-193.88 161.92,-193.88 161.92,-213.12"/>
<text xml:space="preserve" text-anchor="middle" x="91.67" y="-199.62" font-family="Helvetica,sans-Serif" font-size="10.00">src/subsystems/Shooter.hpp</text>
</a>
</g>
</g>
<!-- Node1&#45;&gt;Node23 -->
<g id="edge42_Node000001_Node000023" class="edge">
<title>Node1&#45;&gt;Node23</title>
<g id="a_edge42_Node000001_Node000023"><a xlink:title=" ">
<path fill="none" stroke="#63b8ff" d="M408.53,-413.86C366.37,-386.06 274.29,-325.3 196.67,-274 163.85,-252.3 125.27,-226.76 105.26,-213.5"/>
<polygon fill="#63b8ff" stroke="#63b8ff" points="406.36,-416.62 416.63,-419.21 410.21,-410.78 406.36,-416.62"/>
</a>
</g>
</g>
<!-- Node26 -->
<g id="Node000026" class="node">
<title>Node26</title>
<g id="a_Node000026"><a xlink:href="_odometry_8hpp.html" target="_top" xlink:title=" ">
<polygon fill="white" stroke="#666666" points="951.42,-384.5 837.92,-384.5 837.92,-365.25 951.42,-365.25 951.42,-384.5"/>
<text xml:space="preserve" text-anchor="middle" x="894.67" y="-371" font-family="Helvetica,sans-Serif" font-size="10.00">src/utils/Odometry.hpp</text>
</a>
</g>
</g>
<!-- Node1&#45;&gt;Node26 -->
<g id="edge49_Node000001_Node000026" class="edge">
<title>Node1&#45;&gt;Node26</title>
<g id="a_edge49_Node000001_Node000026"><a xlink:title=" ">
<path fill="none" stroke="#63b8ff" d="M522.44,-418.69C615.93,-407.93 758.79,-391.5 837.56,-382.44"/>
<polygon fill="#63b8ff" stroke="#63b8ff" points="522.04,-415.21 512.51,-419.83 522.84,-422.16 522.04,-415.21"/>
</a>
</g>
</g>
<!-- Node3 -->
<g id="Node000003" class="node">
<title>Node3</title>
<g id="a_Node000003"><a xlink:href="_planner_8hpp.html" target="_top" xlink:title=" ">
<polygon fill="white" stroke="#666666" points="958.3,-146.62 817.05,-146.62 817.05,-127.38 958.3,-127.38 958.3,-146.62"/>
<text xml:space="preserve" text-anchor="middle" x="887.67" y="-133.12" font-family="Helvetica,sans-Serif" font-size="10.00">src/Autonomous/Planner.hpp</text>
</a>
</g>
</g>
<!-- Node2&#45;&gt;Node3 -->
<g id="edge2_Node000002_Node000003" class="edge">
<title>Node2&#45;&gt;Node3</title>
<g id="a_edge2_Node000002_Node000003"><a xlink:title=" ">
<path fill="none" stroke="#63b8ff" d="M1165.9,-260.25C1276.59,-254.98 1469.44,-242.47 1490.67,-218.75 1499.72,-208.65 1499.85,-198.23 1490.67,-188.25 1486.21,-183.39 1117.02,-155.19 958.6,-143.29"/>
<polygon fill="#63b8ff" stroke="#63b8ff" points="1165.81,-256.75 1155.98,-260.72 1166.13,-263.75 1165.81,-256.75"/>
</a>
</g>
</g>
<!-- Node5 -->
<g id="Node000005" class="node">
<title>Node5</title>
<g id="a_Node000005"><a xlink:href="_robot_8hpp.html" target="_top" xlink:title=" ">
<polygon fill="white" stroke="#666666" points="544.42,-85.75 466.92,-85.75 466.92,-66.5 544.42,-66.5 544.42,-85.75"/>
<text xml:space="preserve" text-anchor="middle" x="505.67" y="-72.25" font-family="Helvetica,sans-Serif" font-size="10.00">src/Robot.hpp</text>
</a>
</g>
</g>
<!-- Node2&#45;&gt;Node5 -->
<g id="edge37_Node000002_Node000005" class="edge">
<title>Node2&#45;&gt;Node5</title>
<g id="a_edge37_Node000002_Node000005"><a xlink:title=" ">
<path fill="none" stroke="#63b8ff" d="M1165.73,-263.51C1322.69,-262.97 1667.76,-257.37 1703.67,-218.75 1712.91,-208.82 1709.47,-200.5 1703.67,-188.25 1683.76,-146.14 1666.21,-138.32 1622.67,-121.75 1596.95,-111.96 739.53,-84.47 544.76,-78.35"/>
<polygon fill="#63b8ff" stroke="#63b8ff" points="1165.81,-260.01 1155.82,-263.54 1165.83,-267.01 1165.81,-260.01"/>
</a>
</g>
</g>
<!-- Node8 -->
<g id="Node000008" class="node">
<title>Node8</title>
<g id="a_Node000008"><a xlink:href="_accelerate_straight_line_8hpp.html" target="_top" xlink:title=" ">
<polygon fill="white" stroke="#666666" points="1927.67,-152.25 1791.67,-152.25 1791.67,-121.75 1927.67,-121.75 1927.67,-152.25"/>
<text xml:space="preserve" text-anchor="start" x="1799.67" y="-138.75" font-family="Helvetica,sans-Serif" font-size="10.00">src/Autonomous/Steps</text>
<text xml:space="preserve" text-anchor="middle" x="1859.67" y="-127.5" font-family="Helvetica,sans-Serif" font-size="10.00">/AccelerateStraightLine.hpp</text>
</a>
</g>
</g>
<!-- Node2&#45;&gt;Node8 -->
<g id="edge7_Node000002_Node000008" class="edge">
<title>Node2&#45;&gt;Node8</title>
<g id="a_edge7_Node000002_Node000008"><a xlink:title=" ">
<path fill="none" stroke="#63b8ff" d="M1165.79,-261.41C1333.97,-256.68 1723.03,-243.23 1777.67,-218.75 1809.77,-204.37 1836.49,-171.6 1850.06,-152.52"/>
<polygon fill="#63b8ff" stroke="#63b8ff" points="1165.73,-257.91 1155.83,-261.68 1165.92,-264.9 1165.73,-257.91"/>
</a>
</g>
</g>
<!-- Node9 -->
<g id="Node000009" class="node">
<title>Node9</title>
<g id="a_Node000009"><a xlink:href="_advance_cycle_step_8hpp.html" target="_top" xlink:title=" ">
<polygon fill="white" stroke="#666666" points="1659.55,-218.75 1537.8,-218.75 1537.8,-188.25 1659.55,-188.25 1659.55,-218.75"/>
<text xml:space="preserve" text-anchor="start" x="1545.8" y="-205.25" font-family="Helvetica,sans-Serif" font-size="10.00">src/Autonomous/Steps</text>
<text xml:space="preserve" text-anchor="middle" x="1598.67" y="-194" font-family="Helvetica,sans-Serif" font-size="10.00">/AdvanceCycleStep.hpp</text>
</a>
</g>
</g>
<!-- Node2&#45;&gt;Node9 -->
<g id="edge9_Node000002_Node000009" class="edge">
<title>Node2&#45;&gt;Node9</title>
<g id="a_edge9_Node000002_Node000009"><a xlink:title=" ">
<path fill="none" stroke="#63b8ff" d="M1165.86,-257.46C1253.01,-250.32 1398.94,-236.96 1523.67,-218.75 1528.13,-218.1 1532.73,-217.37 1537.35,-216.59"/>
<polygon fill="#63b8ff" stroke="#63b8ff" points="1165.67,-253.97 1155.99,-258.27 1166.24,-260.94 1165.67,-253.97"/>
</a>
</g>
</g>
<!-- Node10 -->
<g id="Node000010" class="node">
<title>Node10</title>
<g id="a_Node000010"><a xlink:href="_detect_block_8hpp.html" target="_top" xlink:title=" ">
<polygon fill="white" stroke="#666666" points="945.55,-218.75 829.8,-218.75 829.8,-188.25 945.55,-188.25 945.55,-218.75"/>
<text xml:space="preserve" text-anchor="start" x="837.8" y="-205.25" font-family="Helvetica,sans-Serif" font-size="10.00">src/Autonomous/Steps</text>
<text xml:space="preserve" text-anchor="middle" x="887.67" y="-194" font-family="Helvetica,sans-Serif" font-size="10.00">/DetectBlock.hpp</text>
</a>
</g>
</g>
<!-- Node2&#45;&gt;Node10 -->
<g id="edge11_Node000002_Node000010" class="edge">
<title>Node2&#45;&gt;Node10</title>
<g id="a_edge11_Node000002_Node000010"><a xlink:title=" ">
<path fill="none" stroke="#63b8ff" d="M1047.03,-251.18C1015.3,-241.88 971.5,-229.05 937.84,-219.19"/>
<polygon fill="#63b8ff" stroke="#63b8ff" points="1045.68,-254.43 1056.26,-253.88 1047.64,-247.71 1045.68,-254.43"/>
</a>
</g>
</g>
<!-- Node11 -->
<g id="Node000011" class="node">
<title>Node11</title>
<g id="a_Node000011"><a xlink:href="_drive_arc_8hpp.html" target="_top" xlink:title=" ">
<polygon fill="white" stroke="#666666" points="1079.55,-218.75 963.8,-218.75 963.8,-188.25 1079.55,-188.25 1079.55,-218.75"/>
<text xml:space="preserve" text-anchor="start" x="971.8" y="-205.25" font-family="Helvetica,sans-Serif" font-size="10.00">src/Autonomous/Steps</text>
<text xml:space="preserve" text-anchor="middle" x="1021.67" y="-194" font-family="Helvetica,sans-Serif" font-size="10.00">/DriveArc.hpp</text>
</a>
</g>
</g>
<!-- Node2&#45;&gt;Node11 -->
<g id="edge13_Node000002_Node000011" class="edge">
<title>Node2&#45;&gt;Node11</title>
<g id="a_edge13_Node000002_Node000011"><a xlink:title=" ">
<path fill="none" stroke="#63b8ff" d="M1070.08,-247.04C1060.09,-238.26 1047.87,-227.52 1038.21,-219.03"/>
<polygon fill="#63b8ff" stroke="#63b8ff" points="1067.54,-249.46 1077.36,-253.43 1072.16,-244.2 1067.54,-249.46"/>
</a>
</g>
</g>
<!-- Node12 -->
<g id="Node000012" class="node">
<title>Node12</title>
<g id="a_Node000012"><a xlink:href="_drive_distance_8hpp.html" target="_top" xlink:title=" ">
<polygon fill="white" stroke="#666666" points="677.55,-218.75 561.8,-218.75 561.8,-188.25 677.55,-188.25 677.55,-218.75"/>
<text xml:space="preserve" text-anchor="start" x="569.8" y="-205.25" font-family="Helvetica,sans-Serif" font-size="10.00">src/Autonomous/Steps</text>
<text xml:space="preserve" text-anchor="middle" x="619.67" y="-194" font-family="Helvetica,sans-Serif" font-size="10.00">/DriveDistance.hpp</text>
</a>
</g>
</g>
<!-- Node2&#45;&gt;Node12 -->
<g id="edge15_Node000002_Node000012" class="edge">
<title>Node2&#45;&gt;Node12</title>
<g id="a_edge15_Node000002_Node000012"><a xlink:title=" ">
<path fill="none" stroke="#63b8ff" d="M1011.85,-257.12C930.72,-249.99 799.23,-236.92 686.67,-218.75 683.74,-218.28 680.74,-217.76 677.71,-217.21"/>
<polygon fill="#63b8ff" stroke="#63b8ff" points="1011.18,-260.58 1021.45,-257.96 1011.79,-253.61 1011.18,-260.58"/>
</a>
</g>
</g>
<!-- Node13 -->
<g id="Node000013" class="node">
<title>Node13</title>
<g id="a_Node000013"><a xlink:href="_drive_line_until_wall_8hpp.html" target="_top" xlink:title=" ">
<polygon fill="white" stroke="#666666" points="477.67,-152.25 359.67,-152.25 359.67,-121.75 477.67,-121.75 477.67,-152.25"/>
<text xml:space="preserve" text-anchor="start" x="367.67" y="-138.75" font-family="Helvetica,sans-Serif" font-size="10.00">src/Autonomous/Steps</text>
<text xml:space="preserve" text-anchor="middle" x="418.67" y="-127.5" font-family="Helvetica,sans-Serif" font-size="10.00">/DriveLineUntilWall.hpp</text>
</a>
</g>
</g>
<!-- Node2&#45;&gt;Node13 -->
<g id="edge18_Node000002_Node000013" class="edge">
<title>Node2&#45;&gt;Node13</title>
<g id="a_edge18_Node000002_Node000013"><a xlink:title=" ">
<path fill="none" stroke="#63b8ff" d="M1011.44,-264.02C843.82,-264.6 458.43,-261.25 418.67,-218.75 402.2,-201.14 407.86,-170.74 413.35,-152.69"/>
<polygon fill="#63b8ff" stroke="#63b8ff" points="1011.39,-267.52 1021.37,-263.98 1011.36,-260.52 1011.39,-267.52"/>
</a>
</g>
</g>
<!-- Node14 -->
<g id="Node000014" class="node">
<title>Node14</title>
<g id="a_Node000014"><a xlink:href="_drive_radius_angle_8hpp.html" target="_top" xlink:title=" ">
<polygon fill="white" stroke="#666666" points="1215.92,-152.25 1099.42,-152.25 1099.42,-121.75 1215.92,-121.75 1215.92,-152.25"/>
<text xml:space="preserve" text-anchor="start" x="1107.42" y="-138.75" font-family="Helvetica,sans-Serif" font-size="10.00">src/Autonomous/Steps</text>
<text xml:space="preserve" text-anchor="middle" x="1157.67" y="-127.5" font-family="Helvetica,sans-Serif" font-size="10.00">/DriveRadiusAngle.hpp</text>
</a>
</g>
</g>
<!-- Node2&#45;&gt;Node14 -->
<g id="edge20_Node000002_Node000014" class="edge">
<title>Node2&#45;&gt;Node14</title>
<g id="a_edge20_Node000002_Node000014"><a xlink:title=" ">
<path fill="none" stroke="#63b8ff" d="M1165.69,-263.14C1315.67,-261.87 1635.19,-254.9 1668.67,-218.75 1677.88,-208.8 1677.78,-198.29 1668.67,-188.25 1653.63,-171.66 1347.19,-150.14 1216.22,-141.66"/>
<polygon fill="#63b8ff" stroke="#63b8ff" points="1165.81,-259.64 1155.84,-263.21 1165.87,-266.64 1165.81,-259.64"/>
</a>
</g>
</g>
<!-- Node15 -->
<g id="Node000015" class="node">
<title>Node15</title>
<g id="a_Node000015"><a xlink:href="_drive_radius_at_velocity_8hpp.html" target="_top" xlink:title=" ">
<polygon fill="white" stroke="#666666" points="1613.3,-152.25 1478.05,-152.25 1478.05,-121.75 1613.3,-121.75 1613.3,-152.25"/>
<text xml:space="preserve" text-anchor="start" x="1486.05" y="-138.75" font-family="Helvetica,sans-Serif" font-size="10.00">src/Autonomous/Steps</text>
<text xml:space="preserve" text-anchor="middle" x="1545.67" y="-127.5" font-family="Helvetica,sans-Serif" font-size="10.00">/DriveRadiusAtVelocity.hpp</text>
</a>
</g>
</g>
<!-- Node2&#45;&gt;Node15 -->
<g id="edge22_Node000002_Node000015" class="edge">
<title>Node2&#45;&gt;Node15</title>
<g id="a_edge22_Node000002_Node000015"><a xlink:title=" ">
<path fill="none" stroke="#63b8ff" d="M1165.47,-263.32C1318.76,-262.42 1650.99,-256.12 1685.67,-218.75 1714.11,-188.11 1662.02,-165.78 1613.51,-152.47"/>
<polygon fill="#63b8ff" stroke="#63b8ff" points="1165.8,-259.82 1155.82,-263.38 1165.84,-266.82 1165.8,-259.82"/>
</a>
</g>
</g>
<!-- Node16 -->
<g id="Node000016" class="node">
<title>Node16</title>
<g id="a_Node000016"><a xlink:href="_drive_until_wall_8hpp.html" target="_top" xlink:title=" ">
<polygon fill="white" stroke="#666666" points="811.55,-218.75 695.8,-218.75 695.8,-188.25 811.55,-188.25 811.55,-218.75"/>
<text xml:space="preserve" text-anchor="start" x="703.8" y="-205.25" font-family="Helvetica,sans-Serif" font-size="10.00">src/Autonomous/Steps</text>
<text xml:space="preserve" text-anchor="middle" x="753.67" y="-194" font-family="Helvetica,sans-Serif" font-size="10.00">/DriveUntilWall.hpp</text>
</a>
</g>
</g>
<!-- Node2&#45;&gt;Node16 -->
<g id="edge24_Node000002_Node000016" class="edge">
<title>Node2&#45;&gt;Node16</title>
<g id="a_edge24_Node000002_Node000016"><a xlink:title=" ">
<path fill="none" stroke="#63b8ff" d="M1018,-252.49C963.87,-243.94 887.41,-231.4 820.67,-218.75 817.75,-218.2 814.76,-217.62 811.75,-217.02"/>
<polygon fill="#63b8ff" stroke="#63b8ff" points="1017.28,-255.92 1027.7,-254.01 1018.37,-249 1017.28,-255.92"/>
</a>
</g>
</g>
<!-- Node17 -->
<g id="Node000017" class="node">
<title>Node17</title>
<g id="a_Node000017"><a xlink:href="_follow_line_step_8hpp.html" target="_top" xlink:title=" ">
<polygon fill="white" stroke="#666666" points="543.55,-218.75 427.8,-218.75 427.8,-188.25 543.55,-188.25 543.55,-218.75"/>
<text xml:space="preserve" text-anchor="start" x="435.8" y="-205.25" font-family="Helvetica,sans-Serif" font-size="10.00">src/Autonomous/Steps</text>
<text xml:space="preserve" text-anchor="middle" x="485.67" y="-194" font-family="Helvetica,sans-Serif" font-size="10.00">/FollowLineStep.hpp</text>
</a>
</g>
</g>
<!-- Node2&#45;&gt;Node17 -->
<g id="edge25_Node000002_Node000017" class="edge">
<title>Node2&#45;&gt;Node17</title>
<g id="a_edge25_Node000002_Node000017"><a xlink:title=" ">
<path fill="none" stroke="#63b8ff" d="M1011.82,-260.04C907.43,-254.8 715.18,-242.7 552.67,-218.75 549.73,-218.32 546.73,-217.83 543.7,-217.31"/>
<polygon fill="#63b8ff" stroke="#63b8ff" points="1011.52,-263.53 1021.68,-260.52 1011.86,-256.53 1011.52,-263.53"/>
</a>
</g>
</g>
<!-- Node18 -->
<g id="Node000018" class="node">
<title>Node18</title>
<g id="a_Node000018"><a xlink:href="_index_block_8hpp.html" target="_top" xlink:title=" ">
<polygon fill="white" stroke="#666666" points="1213.55,-218.75 1097.8,-218.75 1097.8,-188.25 1213.55,-188.25 1213.55,-218.75"/>
<text xml:space="preserve" text-anchor="start" x="1105.8" y="-205.25" font-family="Helvetica,sans-Serif" font-size="10.00">src/Autonomous/Steps</text>
<text xml:space="preserve" text-anchor="middle" x="1155.67" y="-194" font-family="Helvetica,sans-Serif" font-size="10.00">/IndexBlock.hpp</text>
</a>
</g>
</g>
<!-- Node2&#45;&gt;Node18 -->
<g id="edge28_Node000002_Node000018" class="edge">
<title>Node2&#45;&gt;Node18</title>
<g id="a_edge28_Node000002_Node000018"><a xlink:title=" ">
<path fill="none" stroke="#63b8ff" d="M1107.27,-247.04C1117.26,-238.26 1129.48,-227.52 1139.14,-219.03"/>
<polygon fill="#63b8ff" stroke="#63b8ff" points="1105.19,-244.2 1099.99,-253.43 1109.81,-249.46 1105.19,-244.2"/>
</a>
</g>
</g>
<!-- Node19 -->
<g id="Node000019" class="node">
<title>Node19</title>
<g id="a_Node000019"><a xlink:href="_mine_block_8hpp.html" target="_top" xlink:title=" ">
<polygon fill="white" stroke="#666666" points="371.55,-218.75 255.8,-218.75 255.8,-188.25 371.55,-188.25 371.55,-218.75"/>
<text xml:space="preserve" text-anchor="start" x="263.8" y="-205.25" font-family="Helvetica,sans-Serif" font-size="10.00">src/Autonomous/Steps</text>
<text xml:space="preserve" text-anchor="middle" x="313.67" y="-194" font-family="Helvetica,sans-Serif" font-size="10.00">/MineBlock.hpp</text>
</a>
</g>
</g>
<!-- Node2&#45;&gt;Node19 -->
<g id="edge30_Node000002_Node000019" class="edge">
<title>Node2&#45;&gt;Node19</title>
<g id="a_edge30_Node000002_Node000019"><a xlink:title=" ">
<path fill="none" stroke="#63b8ff" d="M1011.62,-261.81C881.93,-258.43 611.99,-248.2 385.67,-218.75 381.13,-218.16 376.43,-217.45 371.73,-216.67"/>
<polygon fill="#63b8ff" stroke="#63b8ff" points="1011.38,-265.3 1021.46,-262.06 1011.55,-258.3 1011.38,-265.3"/>
</a>
</g>
</g>
<!-- Node20 -->
<g id="Node000020" class="node">
<title>Node20</title>
<g id="a_Node000020"><a xlink:href="_place_on_table_8hpp.html" target="_top" xlink:title=" ">
<polygon fill="white" stroke="#666666" points="1347.55,-218.75 1231.8,-218.75 1231.8,-188.25 1347.55,-188.25 1347.55,-218.75"/>
<text xml:space="preserve" text-anchor="start" x="1239.8" y="-205.25" font-family="Helvetica,sans-Serif" font-size="10.00">src/Autonomous/Steps</text>
<text xml:space="preserve" text-anchor="middle" x="1289.67" y="-194" font-family="Helvetica,sans-Serif" font-size="10.00">/PlaceOnTable.hpp</text>
</a>
</g>
</g>
<!-- Node2&#45;&gt;Node20 -->
<g id="edge33_Node000002_Node000020" class="edge">
<title>Node2&#45;&gt;Node20</title>
<g id="a_edge33_Node000002_Node000020"><a xlink:title=" ">
<path fill="none" stroke="#63b8ff" d="M1130.32,-251.18C1162.05,-241.88 1205.85,-229.05 1239.51,-219.19"/>
<polygon fill="#63b8ff" stroke="#63b8ff" points="1129.71,-247.71 1121.09,-253.88 1131.67,-254.43 1129.71,-247.71"/>
</a>
</g>
</g>
<!-- Node21 -->
<g id="Node000021" class="node">
<title>Node21</title>
<g id="a_Node000021"><a xlink:href="_reject_sequence_8hpp.html" target="_top" xlink:title=" ">
<polygon fill="white" stroke="#666666" points="1481.55,-218.75 1365.8,-218.75 1365.8,-188.25 1481.55,-188.25 1481.55,-218.75"/>
<text xml:space="preserve" text-anchor="start" x="1373.8" y="-205.25" font-family="Helvetica,sans-Serif" font-size="10.00">src/Autonomous/Steps</text>
<text xml:space="preserve" text-anchor="middle" x="1423.67" y="-194" font-family="Helvetica,sans-Serif" font-size="10.00">/RejectSequence.hpp</text>
</a>
</g>
</g>
<!-- Node2&#45;&gt;Node21 -->
<g id="edge35_Node000002_Node000021" class="edge">
<title>Node2&#45;&gt;Node21</title>
<g id="a_edge35_Node000002_Node000021"><a xlink:title=" ">
<path fill="none" stroke="#63b8ff" d="M1159.35,-252.49C1213.48,-243.94 1289.94,-231.4 1356.67,-218.75 1359.6,-218.2 1362.59,-217.62 1365.6,-217.02"/>
<polygon fill="#63b8ff" stroke="#63b8ff" points="1158.98,-249 1149.65,-254.01 1160.07,-255.92 1158.98,-249"/>
</a>
</g>
</g>
<!-- Node4 -->
<g id="Node000004" class="node">
<title>Node4</title>
<g id="a_Node000004"><a xlink:href="_planner_8cpp.html" target="_top" xlink:title=" ">
<polygon fill="white" stroke="#666666" points="958.3,-85.75 817.05,-85.75 817.05,-66.5 958.3,-66.5 958.3,-85.75"/>
<text xml:space="preserve" text-anchor="middle" x="887.67" y="-72.25" font-family="Helvetica,sans-Serif" font-size="10.00">src/Autonomous/Planner.cpp</text>
</a>
</g>
</g>
<!-- Node3&#45;&gt;Node4 -->
<g id="edge3_Node000003_Node000004" class="edge">
<title>Node3&#45;&gt;Node4</title>
<g id="a_edge3_Node000003_Node000004"><a xlink:title=" ">
<path fill="none" stroke="#63b8ff" d="M887.67,-115.57C887.67,-105.54 887.67,-93.96 887.67,-86.15"/>
<polygon fill="#63b8ff" stroke="#63b8ff" points="884.17,-115.54 887.67,-125.54 891.17,-115.54 884.17,-115.54"/>
</a>
</g>
</g>
<!-- Node3&#45;&gt;Node5 -->
<g id="edge4_Node000003_Node000005" class="edge">
<title>Node3&#45;&gt;Node5</title>
<g id="a_edge4_Node000003_Node000005"><a xlink:title=" ">
<path fill="none" stroke="#63b8ff" d="M817.85,-125.24C737.68,-112.88 608.99,-93.05 544.77,-83.15"/>
<polygon fill="#63b8ff" stroke="#63b8ff" points="816.91,-128.64 827.33,-126.7 817.98,-121.72 816.91,-128.64"/>
</a>
</g>
</g>
<!-- Node6 -->
<g id="Node000006" class="node">
<title>Node6</title>
<g id="a_Node000006"><a xlink:href="_strategy_controller_step_8hpp.html" target="_top" xlink:title=" ">
<polygon fill="white" stroke="#666666" points="513.05,-30.5 376.3,-30.5 376.3,0 513.05,0 513.05,-30.5"/>
<text xml:space="preserve" text-anchor="start" x="384.3" y="-17" font-family="Helvetica,sans-Serif" font-size="10.00">src/Autonomous/Steps</text>
<text xml:space="preserve" text-anchor="middle" x="444.67" y="-5.75" font-family="Helvetica,sans-Serif" font-size="10.00">/StrategyControllerStep.hpp</text>
</a>
</g>
</g>
<!-- Node5&#45;&gt;Node6 -->
<g id="edge5_Node000005_Node000006" class="edge">
<title>Node5&#45;&gt;Node6</title>
<g id="a_edge5_Node000005_Node000006"><a xlink:title=" ">
<path fill="none" stroke="#63b8ff" d="M488.19,-58.25C479.2,-49.57 468.35,-39.1 459.73,-30.78"/>
<polygon fill="#63b8ff" stroke="#63b8ff" points="485.7,-60.71 495.32,-65.13 490.56,-55.67 485.7,-60.71"/>
</a>
</g>
</g>
<!-- Node7 -->
<g id="Node000007" class="node">
<title>Node7</title>
<g id="a_Node000007"><a xlink:href="main_8cpp.html" target="_top" xlink:title=" ">
<polygon fill="white" stroke="#666666" points="603.8,-24.88 531.55,-24.88 531.55,-5.63 603.8,-5.63 603.8,-24.88"/>
<text xml:space="preserve" text-anchor="middle" x="567.67" y="-11.38" font-family="Helvetica,sans-Serif" font-size="10.00">src/main.cpp</text>
</a>
</g>
</g>
<!-- Node5&#45;&gt;Node7 -->
<g id="edge6_Node000005_Node000007" class="edge">
<title>Node5&#45;&gt;Node7</title>
<g id="a_edge6_Node000005_Node000007"><a xlink:title=" ">
<path fill="none" stroke="#63b8ff" d="M523.39,-58.3C534.71,-47.55 548.94,-34.04 558.17,-25.28"/>
<polygon fill="#63b8ff" stroke="#63b8ff" points="521.03,-55.72 516.19,-65.14 525.85,-60.79 521.03,-55.72"/>
</a>
</g>
</g>
<!-- Node8&#45;&gt;Node5 -->
<g id="edge8_Node000008_Node000005" class="edge">
<title>Node8&#45;&gt;Node5</title>
<g id="a_edge8_Node000008_Node000005"><a xlink:title=" ">
<path fill="none" stroke="#63b8ff" d="M1780.19,-122.02C1779.35,-121.93 1778.51,-121.84 1777.67,-121.75 1714.93,-115.23 751.85,-84.83 544.72,-78.34"/>
<polygon fill="#63b8ff" stroke="#63b8ff" points="1779.46,-125.46 1789.81,-123.21 1780.32,-118.51 1779.46,-125.46"/>
</a>
</g>
</g>
<!-- Node9&#45;&gt;Node3 -->
<g id="edge10_Node000009_Node000003" class="edge">
<title>Node9&#45;&gt;Node3</title>
<g id="a_edge10_Node000009_Node000003"><a xlink:title=" ">
<path fill="none" stroke="#63b8ff" d="M1526.2,-188.6C1525.35,-188.48 1524.51,-188.36 1523.67,-188.25 1468.89,-180.9 1112.82,-154.46 958.65,-143.17"/>
<polygon fill="#63b8ff" stroke="#63b8ff" points="1525.46,-192.02 1535.87,-190.06 1526.51,-185.1 1525.46,-192.02"/>
</a>
</g>
</g>
<!-- Node10&#45;&gt;Node3 -->
<g id="edge12_Node000010_Node000003" class="edge">
<title>Node10&#45;&gt;Node3</title>
<g id="a_edge12_Node000010_Node000003"><a xlink:title=" ">
<path fill="none" stroke="#63b8ff" d="M887.67,-176.59C887.67,-166.01 887.67,-154.5 887.67,-146.82"/>
<polygon fill="#63b8ff" stroke="#63b8ff" points="884.17,-176.35 887.67,-186.35 891.17,-176.35 884.17,-176.35"/>
</a>
</g>
</g>
<!-- Node11&#45;&gt;Node3 -->
<g id="edge14_Node000011_Node000003" class="edge">
<title>Node11&#45;&gt;Node3</title>
<g id="a_edge14_Node000011_Node000003"><a xlink:title=" ">
<path fill="none" stroke="#63b8ff" d="M981.03,-182.94C956.2,-170.99 925.63,-156.27 906.39,-147.01"/>
<polygon fill="#63b8ff" stroke="#63b8ff" points="979.38,-186.02 989.9,-187.21 982.41,-179.72 979.38,-186.02"/>
</a>
</g>
</g>
<!-- Node12&#45;&gt;Node3 -->
<g id="edge16_Node000012_Node000003" class="edge">
<title>Node12&#45;&gt;Node3</title>
<g id="a_edge16_Node000012_Node000003"><a xlink:title=" ">
<path fill="none" stroke="#63b8ff" d="M688.83,-185.86C740.14,-173.51 808.15,-157.14 849.87,-147.1"/>
<polygon fill="#63b8ff" stroke="#63b8ff" points="688.2,-182.41 679.3,-188.15 689.84,-189.21 688.2,-182.41"/>
</a>
</g>
</g>
<!-- Node12&#45;&gt;Node5 -->
<g id="edge17_Node000012_Node000005" class="edge">
<title>Node12&#45;&gt;Node5</title>
<g id="a_edge17_Node000012_Node000005"><a xlink:title=" ">
<path fill="none" stroke="#63b8ff" d="M598.95,-179.71C573.46,-151.68 531.4,-105.42 513.81,-86.07"/>
<polygon fill="#63b8ff" stroke="#63b8ff" points="596.26,-181.95 605.58,-187 601.44,-177.24 596.26,-181.95"/>
</a>
</g>
</g>
<!-- Node13&#45;&gt;Node5 -->
<g id="edge19_Node000013_Node000005" class="edge">
<title>Node13&#45;&gt;Node5</title>
<g id="a_edge19_Node000013_Node000005"><a xlink:title=" ">
<path fill="none" stroke="#63b8ff" d="M449.43,-115.19C464.09,-105.26 480.87,-93.91 492.26,-86.2"/>
<polygon fill="#63b8ff" stroke="#63b8ff" points="447.75,-112.1 441.43,-120.6 451.68,-117.89 447.75,-112.1"/>
</a>
</g>
</g>
<!-- Node14&#45;&gt;Node5 -->
<g id="edge21_Node000014_Node000005" class="edge">
<title>Node14&#45;&gt;Node5</title>
<g id="a_edge21_Node000014_Node000005"><a xlink:title=" ">
<path fill="none" stroke="#63b8ff" d="M1087.81,-129.69C950.98,-117.34 651.72,-90.31 544.7,-80.65"/>
<polygon fill="#63b8ff" stroke="#63b8ff" points="1087.17,-133.15 1097.44,-130.56 1087.8,-126.18 1087.17,-133.15"/>
</a>
</g>
</g>
<!-- Node15&#45;&gt;Node5 -->
<g id="edge23_Node000015_Node000005" class="edge">
<title>Node15&#45;&gt;Node5</title>
<g id="a_edge23_Node000015_Node000005"><a xlink:title=" ">
<path fill="none" stroke="#63b8ff" d="M1466.37,-131.51C1257.53,-119.69 697.89,-88.01 544.83,-79.34"/>
<polygon fill="#63b8ff" stroke="#63b8ff" points="1466.15,-135 1476.33,-132.07 1466.54,-128.01 1466.15,-135"/>
</a>
</g>
</g>
<!-- Node17&#45;&gt;Node3 -->
<g id="edge26_Node000017_Node000003" class="edge">
<title>Node17&#45;&gt;Node3</title>
<g id="a_edge26_Node000017_Node000003"><a xlink:title=" ">
<path fill="none" stroke="#63b8ff" d="M554.97,-187.9C652.25,-170.51 753.48,-155.99 818.82,-147.08"/>
<polygon fill="#63b8ff" stroke="#63b8ff" points="554.45,-184.44 545.23,-189.66 555.69,-191.33 554.45,-184.44"/>
</a>
</g>
</g>
<!-- Node17&#45;&gt;Node5 -->
<g id="edge27_Node000017_Node000005" class="edge">
<title>Node17&#45;&gt;Node5</title>
<g id="a_edge27_Node000017_Node000005"><a xlink:title=" ">
<path fill="none" stroke="#63b8ff" d="M489.72,-177.11C494.23,-148.9 501.25,-104.83 504.25,-86.07"/>
<polygon fill="#63b8ff" stroke="#63b8ff" points="486.33,-176.2 488.21,-186.62 493.24,-177.3 486.33,-176.2"/>
</a>
</g>
</g>
<!-- Node18&#45;&gt;Node3 -->
<g id="edge29_Node000018_Node000003" class="edge">
<title>Node18&#45;&gt;Node3</title>
<g id="a_edge29_Node000018_Node000003"><a xlink:title=" ">
<path fill="none" stroke="#63b8ff" d="M1086.52,-185.86C1035.21,-173.51 967.2,-157.14 925.48,-147.1"/>
<polygon fill="#63b8ff" stroke="#63b8ff" points="1085.51,-189.21 1096.05,-188.15 1087.15,-182.41 1085.51,-189.21"/>
</a>
</g>
</g>
<!-- Node19&#45;&gt;Node3 -->
<g id="edge31_Node000019_Node000003" class="edge">
<title>Node19&#45;&gt;Node3</title>
<g id="a_edge31_Node000019_Node000003"><a xlink:title=" ">
<path fill="none" stroke="#63b8ff" d="M383.17,-192.79C395.01,-191.21 407.19,-189.64 418.67,-188.25 559.72,-171.13 725,-154.13 816.89,-144.96"/>
<polygon fill="#63b8ff" stroke="#63b8ff" points="382.9,-189.29 373.45,-194.09 383.83,-196.23 382.9,-189.29"/>
</a>
</g>
</g>
<!-- Node19&#45;&gt;Node5 -->
<g id="edge32_Node000019_Node000005" class="edge">
<title>Node19&#45;&gt;Node5</title>
<g id="a_edge32_Node000019_Node000005"><a xlink:title=" ">
<path fill="none" stroke="#63b8ff" d="M319.36,-176.93C324.61,-159.07 334.17,-135.96 350.67,-121.75 383.25,-93.71 432.49,-83.25 466.69,-79.37"/>
<polygon fill="#63b8ff" stroke="#63b8ff" points="315.99,-176 316.83,-186.56 322.76,-177.78 315.99,-176"/>
</a>
</g>
</g>
<!-- Node20&#45;&gt;Node3 -->
<g id="edge34_Node000020_Node000003" class="edge">
<title>Node20&#45;&gt;Node3</title>
<g id="a_edge34_Node000020_Node000003"><a xlink:title=" ">
<path fill="none" stroke="#63b8ff" d="M1220.38,-187.9C1123.1,-170.51 1021.87,-155.99 956.53,-147.08"/>
<polygon fill="#63b8ff" stroke="#63b8ff" points="1219.66,-191.33 1230.12,-189.66 1220.9,-184.44 1219.66,-191.33"/>
</a>
</g>
</g>
<!-- Node21&#45;&gt;Node3 -->
<g id="edge36_Node000021_Node000003" class="edge">
<title>Node21&#45;&gt;Node3</title>
<g id="a_edge36_Node000021_Node000003"><a xlink:title=" ">
<path fill="none" stroke="#63b8ff" d="M1354.68,-188.04C1208.33,-165.14 1048.57,-150.57 958.69,-143.32"/>
<polygon fill="#63b8ff" stroke="#63b8ff" points="1353.72,-191.43 1364.14,-189.54 1354.81,-184.52 1353.72,-191.43"/>
</a>
</g>
</g>
<!-- Node22&#45;&gt;Node3 -->
<g id="edge39_Node000022_Node000003" class="edge">
<title>Node22&#45;&gt;Node3</title>
<g id="a_edge39_Node000022_Node000003"><a xlink:title=" ">
<path fill="none" stroke="#63b8ff" d="M256.17,-245.49C244.44,-228.76 232.07,-204.05 246.67,-188.25 265.81,-167.56 653.85,-148.23 816.7,-141"/>
<polygon fill="#63b8ff" stroke="#63b8ff" points="253.07,-247.2 261.88,-253.08 258.67,-242.99 253.07,-247.2"/>
</a>
</g>
</g>
<!-- Node22&#45;&gt;Node5 -->
<g id="edge41_Node000022_Node000005" class="edge">
<title>Node22&#45;&gt;Node5</title>
<g id="a_edge41_Node000022_Node000005"><a xlink:title=" ">
<path fill="none" stroke="#63b8ff" d="M252.6,-245.97C245.93,-238.32 239.15,-228.81 235.67,-218.75 231.25,-205.94 229.57,-200.35 235.67,-188.25 241.27,-177.15 314.42,-127.04 325.67,-121.75 371.56,-100.17 429.12,-88.25 466.62,-82.27"/>
<polygon fill="#63b8ff" stroke="#63b8ff" points="250,-248.31 259.42,-253.17 255.08,-243.5 250,-248.31"/>
</a>
</g>
</g>
<!-- Node22&#45;&gt;Node19 -->
<g id="edge40_Node000022_Node000019" class="edge">
<title>Node22&#45;&gt;Node19</title>
<g id="a_edge40_Node000022_Node000019"><a xlink:title=" ">
<path fill="none" stroke="#63b8ff" d="M283.8,-245.4C289.97,-236.95 297.24,-227 303.06,-219.03"/>
<polygon fill="#63b8ff" stroke="#63b8ff" points="281.17,-243.07 278.1,-253.21 286.82,-247.2 281.17,-243.07"/>
</a>
</g>
</g>
<!-- Node23&#45;&gt;Node3 -->
<g id="edge43_Node000023_Node000003" class="edge">
<title>Node23&#45;&gt;Node3</title>
<g id="a_edge43_Node000023_Node000003"><a xlink:title=" ">
<path fill="none" stroke="#63b8ff" d="M173.44,-192.47C186.87,-190.96 200.66,-189.5 213.67,-188.25 433.27,-167.25 693.83,-149.99 816.75,-142.31"/>
<polygon fill="#63b8ff" stroke="#63b8ff" points="173.3,-188.96 163.77,-193.57 174.1,-195.92 173.3,-188.96"/>
</a>
</g>
</g>
<!-- Node23&#45;&gt;Node5 -->
<g id="edge48_Node000023_Node000005" class="edge">
<title>Node23&#45;&gt;Node5</title>
<g id="a_edge48_Node000023_Node000005"><a xlink:title=" ">
<path fill="none" stroke="#63b8ff" d="M59.11,-188.83C26.4,-173.24 -16.13,-146.69 6.67,-121.75 37.53,-88.01 354.29,-79.59 466.52,-77.66"/>
<polygon fill="#63b8ff" stroke="#63b8ff" points="57.36,-191.88 67.91,-192.86 60.27,-185.52 57.36,-191.88"/>
</a>
</g>
</g>
<!-- Node24 -->
<g id="Node000024" class="node">
<title>Node24</title>
<g id="a_Node000024"><a xlink:href="_delay_step_8hpp.html" target="_top" xlink:title=" ">
<polygon fill="white" stroke="#666666" points="131.55,-152.25 15.8,-152.25 15.8,-121.75 131.55,-121.75 131.55,-152.25"/>
<text xml:space="preserve" text-anchor="start" x="23.8" y="-138.75" font-family="Helvetica,sans-Serif" font-size="10.00">src/Autonomous/Steps</text>
<text xml:space="preserve" text-anchor="middle" x="73.67" y="-127.5" font-family="Helvetica,sans-Serif" font-size="10.00">/DelayStep.hpp</text>
</a>
</g>
</g>
<!-- Node23&#45;&gt;Node24 -->
<g id="edge44_Node000023_Node000024" class="edge">
<title>Node23&#45;&gt;Node24</title>
<g id="a_edge44_Node000023_Node000024"><a xlink:title=" ">
<path fill="none" stroke="#63b8ff" d="M86.08,-182.44C83.36,-172.69 80.15,-161.2 77.68,-152.34"/>
<polygon fill="#63b8ff" stroke="#63b8ff" points="82.71,-183.38 88.76,-192.07 89.45,-181.5 82.71,-183.38"/>
</a>
</g>
</g>
<!-- Node25 -->
<g id="Node000025" class="node">
<title>Node25</title>
<g id="a_Node000025"><a xlink:href="_fire_step_8hpp.html" target="_top" xlink:title=" ">
<polygon fill="white" stroke="#666666" points="265.55,-152.25 149.8,-152.25 149.8,-121.75 265.55,-121.75 265.55,-152.25"/>
<text xml:space="preserve" text-anchor="start" x="157.8" y="-138.75" font-family="Helvetica,sans-Serif" font-size="10.00">src/Autonomous/Steps</text>
<text xml:space="preserve" text-anchor="middle" x="207.67" y="-127.5" font-family="Helvetica,sans-Serif" font-size="10.00">/FireStep.hpp</text>
</a>
</g>
</g>
<!-- Node23&#45;&gt;Node25 -->
<g id="edge46_Node000023_Node000025" class="edge">
<title>Node23&#45;&gt;Node25</title>
<g id="a_edge46_Node000023_Node000025"><a xlink:title=" ">
<path fill="none" stroke="#63b8ff" d="M117.86,-187.94C136.85,-177.38 162.43,-163.16 181.43,-152.59"/>
<polygon fill="#63b8ff" stroke="#63b8ff" points="116.17,-184.88 109.13,-192.8 119.57,-191 116.17,-184.88"/>
</a>
</g>
</g>
<!-- Node24&#45;&gt;Node5 -->
<g id="edge45_Node000024_Node000005" class="edge">
<title>Node24&#45;&gt;Node5</title>
<g id="a_edge45_Node000024_Node000005"><a xlink:title=" ">
<path fill="none" stroke="#63b8ff" d="M142.92,-121.47C266.93,-101.16 401.62,-87.06 466.62,-80.76"/>
<polygon fill="#63b8ff" stroke="#63b8ff" points="142.51,-117.99 133.21,-123.08 143.65,-124.9 142.51,-117.99"/>
</a>
</g>
</g>
<!-- Node25&#45;&gt;Node5 -->
<g id="edge47_Node000025_Node000005" class="edge">
<title>Node25&#45;&gt;Node5</title>
<g id="a_edge47_Node000025_Node000005"><a xlink:title=" ">
<path fill="none" stroke="#63b8ff" d="M277.13,-122.25C277.98,-122.08 278.83,-121.92 279.67,-121.75 345.2,-108.8 421.41,-93.75 466.48,-84.86"/>
<polygon fill="#63b8ff" stroke="#63b8ff" points="276.45,-118.82 267.32,-124.19 277.81,-125.69 276.45,-118.82"/>
</a>
</g>
</g>
<!-- Node26&#45;&gt;Node2 -->
<g id="edge50_Node000026_Node000002" class="edge">
<title>Node26&#45;&gt;Node2</title>
<g id="a_edge50_Node000026_Node000002"><a xlink:title=" ">
<path fill="none" stroke="#63b8ff" d="M879.65,-356.15C869.87,-342.35 860.77,-323.38 871.67,-310 890.54,-286.86 966.33,-275.37 1023.07,-269.92"/>
<polygon fill="#63b8ff" stroke="#63b8ff" points="876.79,-358.17 885.69,-363.92 882.32,-353.88 876.79,-358.17"/>
</a>
</g>
</g>
<!-- Node27 -->
<g id="Node000027" class="node">
<title>Node27</title>
<g id="a_Node000027"><a xlink:href="_odometry_8cpp.html" target="_top" xlink:title=" ">
<polygon fill="white" stroke="#666666" points="994.42,-329.25 880.92,-329.25 880.92,-310 994.42,-310 994.42,-329.25"/>
<text xml:space="preserve" text-anchor="middle" x="937.67" y="-315.75" font-family="Helvetica,sans-Serif" font-size="10.00">src/utils/Odometry.cpp</text>
</a>
</g>
</g>
<!-- Node26&#45;&gt;Node27 -->
<g id="edge51_Node000026_Node000027" class="edge">
<title>Node26&#45;&gt;Node27</title>
<g id="a_edge51_Node000026_Node000027"><a xlink:title=" ">
<path fill="none" stroke="#63b8ff" d="M908.93,-356.22C916.13,-347.31 924.56,-336.87 930.42,-329.61"/>
<polygon fill="#63b8ff" stroke="#63b8ff" points="906.29,-353.93 902.73,-363.9 911.73,-358.32 906.29,-353.93"/>
</a>
</g>
</g>
<!-- Node28 -->
<g id="Node000028" class="node">
<title>Node28</title>
<g id="a_Node000028"><a xlink:href="_ramsete_controller_8hpp.html" target="_top" xlink:title=" ">
<polygon fill="white" stroke="#666666" points="1165.3,-329.25 1012.05,-329.25 1012.05,-310 1165.3,-310 1165.3,-329.25"/>
<text xml:space="preserve" text-anchor="middle" x="1088.67" y="-315.75" font-family="Helvetica,sans-Serif" font-size="10.00">src/utils/RamseteController.hpp</text>
</a>
</g>
</g>
<!-- Node26&#45;&gt;Node28 -->
<g id="edge52_Node000026_Node000028" class="edge">
<title>Node26&#45;&gt;Node28</title>
<g id="a_edge52_Node000026_Node000028"><a xlink:title=" ">
<path fill="none" stroke="#63b8ff" d="M938.6,-361.82C974.12,-352.07 1023.36,-338.55 1055.6,-329.7"/>
<polygon fill="#63b8ff" stroke="#63b8ff" points="937.76,-358.42 929.04,-364.44 939.61,-365.17 937.76,-358.42"/>
</a>
</g>
</g>
<!-- Node28&#45;&gt;Node2 -->
<g id="edge53_Node000028_Node000002" class="edge">
<title>Node28&#45;&gt;Node2</title>
<g id="a_edge53_Node000028_Node000002"><a xlink:title=" ">
<path fill="none" stroke="#63b8ff" d="M1088.67,-298.38C1088.67,-290.09 1088.67,-280.92 1088.67,-274.36"/>
<polygon fill="#63b8ff" stroke="#63b8ff" points="1085.17,-298.32 1088.67,-308.32 1092.17,-298.32 1085.17,-298.32"/>
</a>
</g>
</g>
</g>
</svg>
