<?xml version="1.0" encoding="UTF-8" standalone="no"?>
<!DOCTYPE svg PUBLIC "-//W3C//DTD SVG 1.1//EN"
 "http://www.w3.org/Graphics/SVG/1.1/DTD/svg11.dtd">
<!-- Generated by graphviz version 14.1.2 (20260124.0452)
 -->
<!-- Title: src/Devices/LineSensor.hpp Pages: 1 -->
<svg width="1776pt" height="337pt"
 viewBox="0.00 0.00 1776.00 337.00" xmlns="http://www.w3.org/2000/svg" xmlns:xlink="http://www.w3.org/1999/xlink">
<g id="graph0" class="graph" transform="scale(1 1) rotate(0) translate(4 333.25)">
<title>src/Devices/LineSensor.hpp</title>
<!-- Node1 -->
<g id="Node000001" class="node">
<title>Node1</title>
<g id="a_Node000001"><a xlink:title=" ">
<polygon fill="#999999" stroke="#666666" points="1042,-329.25 903.75,-329.25 903.75,-310 1042,-310 1042,-329.25"/>
<text xml:space="preserve" text-anchor="middle" x="972.88" y="-315.75" font-family="Helvetica,sans-Serif" font-size="10.00">src/Devices/LineSensor.hpp</text>
</a>
</g>
</g>
<!-- Node2 -->
<g id="Node000002" class="node">
<title>Node2</title>
<g id="a_Node000002"><a xlink:href="_drive_8hpp.html" target="_top" xlink:title=" ">
<polygon fill="white" stroke="#666666" points="1038.25,-274 907.5,-274 907.5,-254.75 1038.25,-254.75 1038.25,-274"/>
<text xml:space="preserve" text-anchor="middle" x="972.88" y="-260.5" font-family="Helvetica,sans-Serif" font-size="10.00">src/subsystems/Drive.hpp</text>
</a>
</g>
</g>
<!-- Node1&#45;&gt;Node2 -->
<g id="edge1_Node000001_Node000002" class="edge">
<title>Node1&#45;&gt;Node2</title>
<g id="a_edge1_Node000001_Node000002"><a xlink:title=" ">
<path fill="none" stroke="#63b8ff" d="M972.88,-298.38C972.88,-290.09 972.88,-280.92 972.88,-274.36"/>
<polygon fill="#63b8ff" stroke="#63b8ff" points="969.38,-298.32 972.88,-308.32 976.38,-298.32 969.38,-298.32"/>
</a>
</g>
</g>
<!-- Node3 -->
<g id="Node000003" class="node">
<title>Node3</title>
<g id="a_Node000003"><a xlink:href="_planner_8hpp.html" target="_top" xlink:title=" ">
<polygon fill="white" stroke="#666666" points="708.5,-146.62 567.25,-146.62 567.25,-127.38 708.5,-127.38 708.5,-146.62"/>
<text xml:space="preserve" text-anchor="middle" x="637.88" y="-133.12" font-family="Helvetica,sans-Serif" font-size="10.00">src/Autonomous/Planner.hpp</text>
</a>
</g>
</g>
<!-- Node2&#45;&gt;Node3 -->
<g id="edge2_Node000002_Node000003" class="edge">
<title>Node2&#45;&gt;Node3</title>
<g id="a_edge2_Node000002_Node000003"><a xlink:title=" ">
<path fill="none" stroke="#63b8ff" d="M895.87,-261.96C698.42,-257.97 187.84,-245.12 162.88,-218.75 153.56,-208.9 153.81,-198.33 162.88,-188.25 189.4,-158.78 441.39,-145.3 567.17,-140.36"/>
<polygon fill="#63b8ff" stroke="#63b8ff" points="895.71,-265.46 905.77,-262.16 895.85,-258.46 895.71,-265.46"/>
</a>
</g>
</g>
<!-- Node5 -->
<g id="Node000005" class="node">
<title>Node5</title>
<g id="a_Node000005"><a xlink:href="_robot_8hpp.html" target="_top" xlink:title=" ">
<polygon fill="white" stroke="#666666" points="1218.62,-85.75 1141.12,-85.75 1141.12,-66.5 1218.62,-66.5 1218.62,-85.75"/>
<text xml:space="preserve" text-anchor="middle" x="1179.88" y="-72.25" font-family="Helvetica,sans-Serif" font-size="10.00">src/Robot.hpp</text>
</a>
</g>
</g>
<!-- Node2&#45;&gt;Node5 -->
<g id="edge37_Node000002_Node000005" class="edge">
<title>Node2&#45;&gt;Node5</title>
<g id="a_edge37_Node000002_Node000005"><a xlink:title=" ">
<path fill="none" stroke="#63b8ff" d="M1050.1,-261.26C1120.4,-257.51 1216.79,-247.17 1240.88,-218.75 1249.64,-208.41 1246.54,-200.57 1240.88,-188.25 1230.6,-165.91 1211.83,-173.15 1198.88,-152.25 1185.69,-130.98 1181.63,-100.96 1180.4,-86.13"/>
<polygon fill="#63b8ff" stroke="#63b8ff" points="1049.94,-257.76 1040.13,-261.75 1050.29,-264.75 1049.94,-257.76"/>
</a>
</g>
</g>
<!-- Node8 -->
<g id="Node000008" class="node">
<title>Node8</title>
<g id="a_Node000008"><a xlink:href="_accelerate_straight_line_8hpp.html" target="_top" xlink:title=" ">
<polygon fill="white" stroke="#666666" points="1343.88,-152.25 1207.88,-152.25 1207.88,-121.75 1343.88,-121.75 1343.88,-152.25"/>
<text xml:space="preserve" text-anchor="start" x="1215.88" y="-138.75" font-family="Helvetica,sans-Serif" font-size="10.00">src/Autonomous/Steps</text>
<text xml:space="preserve" text-anchor="middle" x="1275.88" y="-127.5" font-family="Helvetica,sans-Serif" font-size="10.00">/AccelerateStraightLine.hpp</text>
</a>
</g>
</g>
<!-- Node2&#45;&gt;Node8 -->
<g id="edge7_Node000002_Node000008" class="edge">
<title>Node2&#45;&gt;Node8</title>
<g id="a_edge7_Node000002_Node000008"><a xlink:title=" ">
<path fill="none" stroke="#63b8ff" d="M1049.84,-262.82C1129.13,-260.43 1245.1,-251.28 1273.88,-218.75 1289.86,-200.68 1285.26,-170.44 1280.53,-152.54"/>
<polygon fill="#63b8ff" stroke="#63b8ff" points="1049.83,-259.32 1039.93,-263.08 1050.02,-266.31 1049.83,-259.32"/>
</a>
</g>
</g>
<!-- Node9 -->
<g id="Node000009" class="node">
<title>Node9</title>
<g id="a_Node000009"><a xlink:href="_advance_cycle_step_8hpp.html" target="_top" xlink:title=" ">
<polygon fill="white" stroke="#666666" points="293.75,-218.75 172,-218.75 172,-188.25 293.75,-188.25 293.75,-218.75"/>
<text xml:space="preserve" text-anchor="start" x="180" y="-205.25" font-family="Helvetica,sans-Serif" font-size="10.00">src/Autonomous/Steps</text>
<text xml:space="preserve" text-anchor="middle" x="232.88" y="-194" font-family="Helvetica,sans-Serif" font-size="10.00">/AdvanceCycleStep.hpp</text>
</a>
</g>
</g>
<!-- Node2&#45;&gt;Node9 -->
<g id="edge9_Node000002_Node000009" class="edge">
<title>Node2&#45;&gt;Node9</title>
<g id="a_edge9_Node000002_Node000009"><a xlink:title=" ">
<path fill="none" stroke="#63b8ff" d="M896.13,-261.61C771.26,-257.99 516.59,-247.49 302.88,-218.75 299.93,-218.35 296.91,-217.91 293.88,-217.42"/>
<polygon fill="#63b8ff" stroke="#63b8ff" points="895.83,-265.11 905.92,-261.89 896.03,-258.11 895.83,-265.11"/>
</a>
</g>
</g>
<!-- Node10 -->
<g id="Node000010" class="node">
<title>Node10</title>
<g id="a_Node000010"><a xlink:href="_detect_block_8hpp.html" target="_top" xlink:title=" ">
<polygon fill="white" stroke="#666666" points="427.75,-218.75 312,-218.75 312,-188.25 427.75,-188.25 427.75,-218.75"/>
<text xml:space="preserve" text-anchor="start" x="320" y="-205.25" font-family="Helvetica,sans-Serif" font-size="10.00">src/Autonomous/Steps</text>
<text xml:space="preserve" text-anchor="middle" x="369.88" y="-194" font-family="Helvetica,sans-Serif" font-size="10.00">/DetectBlock.hpp</text>
</a>
</g>
</g>
<!-- Node2&#45;&gt;Node10 -->
<g id="edge11_Node000002_Node000010" class="edge">
<title>Node2&#45;&gt;Node10</title>
<g id="a_edge11_Node000002_Node000010"><a xlink:title=" ">
<path fill="none" stroke="#63b8ff" d="M896.02,-260.04C791.63,-254.8 599.38,-242.7 436.88,-218.75 433.93,-218.32 430.93,-217.83 427.9,-217.31"/>
<polygon fill="#63b8ff" stroke="#63b8ff" points="895.72,-263.53 905.88,-260.52 896.06,-256.53 895.72,-263.53"/>
</a>
</g>
</g>
<!-- Node11 -->
<g id="Node000011" class="node">
<title>Node11</title>
<g id="a_Node000011"><a xlink:href="_drive_arc_8hpp.html" target="_top" xlink:title=" ">
<polygon fill="white" stroke="#666666" points="561.75,-218.75 446,-218.75 446,-188.25 561.75,-188.25 561.75,-218.75"/>
<text xml:space="preserve" text-anchor="start" x="454" y="-205.25" font-family="Helvetica,sans-Serif" font-size="10.00">src/Autonomous/Steps</text>
<text xml:space="preserve" text-anchor="middle" x="503.88" y="-194" font-family="Helvetica,sans-Serif" font-size="10.00">/DriveArc.hpp</text>
</a>
</g>
</g>
<!-- Node2&#45;&gt;Node11 -->
<g id="edge13_Node000002_Node000011" class="edge">
<title>Node2&#45;&gt;Node11</title>
<g id="a_edge13_Node000002_Node000011"><a xlink:title=" ">
<path fill="none" stroke="#63b8ff" d="M896.05,-257.12C814.92,-249.99 683.43,-236.92 570.88,-218.75 567.94,-218.28 564.94,-217.76 561.91,-217.21"/>
<polygon fill="#63b8ff" stroke="#63b8ff" points="895.38,-260.58 905.65,-257.96 895.99,-253.61 895.38,-260.58"/>
</a>
</g>
</g>
<!-- Node12 -->
<g id="Node000012" class="node">
<title>Node12</title>
<g id="a_Node000012"><a xlink:href="_drive_distance_8hpp.html" target="_top" xlink:title=" ">
<polygon fill="white" stroke="#666666" points="963.75,-218.75 848,-218.75 848,-188.25 963.75,-188.25 963.75,-218.75"/>
<text xml:space="preserve" text-anchor="start" x="856" y="-205.25" font-family="Helvetica,sans-Serif" font-size="10.00">src/Autonomous/Steps</text>
<text xml:space="preserve" text-anchor="middle" x="905.88" y="-194" font-family="Helvetica,sans-Serif" font-size="10.00">/DriveDistance.hpp</text>
</a>
</g>
</g>
<!-- Node2&#45;&gt;Node12 -->
<g id="edge15_Node000002_Node000012" class="edge">
<title>Node2&#45;&gt;Node12</title>
<g id="a_edge15_Node000002_Node000012"><a xlink:title=" ">
<path fill="none" stroke="#63b8ff" d="M954.28,-247.04C944.29,-238.26 932.07,-227.52 922.41,-219.03"/>
<polygon fill="#63b8ff" stroke="#63b8ff" points="951.74,-249.46 961.56,-253.43 956.36,-244.2 951.74,-249.46"/>
</a>
</g>
</g>
<!-- Node13 -->
<g id="Node000013" class="node">
<title>Node13</title>
<g id="a_Node000013"><a xlink:href="_drive_line_until_wall_8hpp.html" target="_top" xlink:title=" ">
<polygon fill="white" stroke="#666666" points="1479.88,-152.25 1361.88,-152.25 1361.88,-121.75 1479.88,-121.75 1479.88,-152.25"/>
<text xml:space="preserve" text-anchor="start" x="1369.88" y="-138.75" font-family="Helvetica,sans-Serif" font-size="10.00">src/Autonomous/Steps</text>
<text xml:space="preserve" text-anchor="middle" x="1420.88" y="-127.5" font-family="Helvetica,sans-Serif" font-size="10.00">/DriveLineUntilWall.hpp</text>
</a>
</g>
</g>
<!-- Node2&#45;&gt;Node13 -->
<g id="edge18_Node000002_Node000013" class="edge">
<title>Node2&#45;&gt;Node13</title>
<g id="a_edge18_Node000002_Node000013"><a xlink:title=" ">
<path fill="none" stroke="#63b8ff" d="M1049.74,-261.71C1115.97,-258.18 1213.2,-247.9 1292.88,-218.75 1335.81,-203.04 1379.51,-171.38 1403.11,-152.71"/>
<polygon fill="#63b8ff" stroke="#63b8ff" points="1049.89,-258.2 1040.08,-262.19 1050.24,-265.19 1049.89,-258.2"/>
</a>
</g>
</g>
<!-- Node14 -->
<g id="Node000014" class="node">
<title>Node14</title>
<g id="a_Node000014"><a xlink:href="_drive_radius_angle_8hpp.html" target="_top" xlink:title=" ">
<polygon fill="white" stroke="#666666" points="1614.12,-152.25 1497.62,-152.25 1497.62,-121.75 1614.12,-121.75 1614.12,-152.25"/>
<text xml:space="preserve" text-anchor="start" x="1505.62" y="-138.75" font-family="Helvetica,sans-Serif" font-size="10.00">src/Autonomous/Steps</text>
<text xml:space="preserve" text-anchor="middle" x="1555.88" y="-127.5" font-family="Helvetica,sans-Serif" font-size="10.00">/DriveRadiusAngle.hpp</text>
</a>
</g>
</g>
<!-- Node2&#45;&gt;Node14 -->
<g id="edge20_Node000002_Node000014" class="edge">
<title>Node2&#45;&gt;Node14</title>
<g id="a_edge20_Node000002_Node000014"><a xlink:title=" ">
<path fill="none" stroke="#63b8ff" d="M1049.62,-261.36C1124.15,-257.68 1239.8,-247.39 1335.88,-218.75 1365.3,-209.98 1369.39,-199.71 1397.88,-188.25 1432.19,-174.44 1471.86,-161.84 1502.87,-152.7"/>
<polygon fill="#63b8ff" stroke="#63b8ff" points="1049.81,-257.84 1039.98,-261.8 1050.14,-264.84 1049.81,-257.84"/>
</a>
</g>
</g>
<!-- Node15 -->
<g id="Node000015" class="node">
<title>Node15</title>
<g id="a_Node000015"><a xlink:href="_drive_radius_at_velocity_8hpp.html" target="_top" xlink:title=" ">
<polygon fill="white" stroke="#666666" points="1767.5,-152.25 1632.25,-152.25 1632.25,-121.75 1767.5,-121.75 1767.5,-152.25"/>
<text xml:space="preserve" text-anchor="start" x="1640.25" y="-138.75" font-family="Helvetica,sans-Serif" font-size="10.00">src/Autonomous/Steps</text>
<text xml:space="preserve" text-anchor="middle" x="1699.88" y="-127.5" font-family="Helvetica,sans-Serif" font-size="10.00">/DriveRadiusAtVelocity.hpp</text>
</a>
</g>
</g>
<!-- Node2&#45;&gt;Node15 -->
<g id="edge22_Node000002_Node000015" class="edge">
<title>Node2&#45;&gt;Node15</title>
<g id="a_edge22_Node000002_Node000015"><a xlink:title=" ">
<path fill="none" stroke="#63b8ff" d="M1049.76,-258.97C1150.53,-252.51 1321.45,-238.99 1380.88,-218.75 1405.51,-210.36 1406.57,-197.57 1430.88,-188.25 1432.07,-187.79 1552.74,-165.33 1632.03,-150.6"/>
<polygon fill="#63b8ff" stroke="#63b8ff" points="1049.7,-255.47 1039.94,-259.59 1050.14,-262.45 1049.7,-255.47"/>
</a>
</g>
</g>
<!-- Node16 -->
<g id="Node000016" class="node">
<title>Node16</title>
<g id="a_Node000016"><a xlink:href="_drive_until_wall_8hpp.html" target="_top" xlink:title=" ">
<polygon fill="white" stroke="#666666" points="1555.75,-218.75 1440,-218.75 1440,-188.25 1555.75,-188.25 1555.75,-218.75"/>
<text xml:space="preserve" text-anchor="start" x="1448" y="-205.25" font-family="Helvetica,sans-Serif" font-size="10.00">src/Autonomous/Steps</text>
<text xml:space="preserve" text-anchor="middle" x="1497.88" y="-194" font-family="Helvetica,sans-Serif" font-size="10.00">/DriveUntilWall.hpp</text>
</a>
</g>
</g>
<!-- Node2&#45;&gt;Node16 -->
<g id="edge24_Node000002_Node000016" class="edge">
<title>Node2&#45;&gt;Node16</title>
<g id="a_edge24_Node000002_Node000016"><a xlink:title=" ">
<path fill="none" stroke="#63b8ff" d="M1049.61,-258.1C1139.94,-251.37 1294.3,-238.2 1425.88,-218.75 1430.41,-218.08 1435.1,-217.31 1439.8,-216.5"/>
<polygon fill="#63b8ff" stroke="#63b8ff" points="1049.61,-254.59 1039.89,-258.82 1050.12,-261.57 1049.61,-254.59"/>
</a>
</g>
</g>
<!-- Node17 -->
<g id="Node000017" class="node">
<title>Node17</title>
<g id="a_Node000017"><a xlink:href="_follow_line_step_8hpp.html" target="_top" xlink:title=" ">
<polygon fill="white" stroke="#666666" points="1097.75,-218.75 982,-218.75 982,-188.25 1097.75,-188.25 1097.75,-218.75"/>
<text xml:space="preserve" text-anchor="start" x="990" y="-205.25" font-family="Helvetica,sans-Serif" font-size="10.00">src/Autonomous/Steps</text>
<text xml:space="preserve" text-anchor="middle" x="1039.88" y="-194" font-family="Helvetica,sans-Serif" font-size="10.00">/FollowLineStep.hpp</text>
</a>
</g>
</g>
<!-- Node2&#45;&gt;Node17 -->
<g id="edge25_Node000002_Node000017" class="edge">
<title>Node2&#45;&gt;Node17</title>
<g id="a_edge25_Node000002_Node000017"><a xlink:title=" ">
<path fill="none" stroke="#63b8ff" d="M991.47,-247.04C1001.46,-238.26 1013.68,-227.52 1023.34,-219.03"/>
<polygon fill="#63b8ff" stroke="#63b8ff" points="989.39,-244.2 984.19,-253.43 994.01,-249.46 989.39,-244.2"/>
</a>
</g>
</g>
<!-- Node18 -->
<g id="Node000018" class="node">
<title>Node18</title>
<g id="a_Node000018"><a xlink:href="_index_block_8hpp.html" target="_top" xlink:title=" ">
<polygon fill="white" stroke="#666666" points="695.75,-218.75 580,-218.75 580,-188.25 695.75,-188.25 695.75,-218.75"/>
<text xml:space="preserve" text-anchor="start" x="588" y="-205.25" font-family="Helvetica,sans-Serif" font-size="10.00">src/Autonomous/Steps</text>
<text xml:space="preserve" text-anchor="middle" x="637.88" y="-194" font-family="Helvetica,sans-Serif" font-size="10.00">/IndexBlock.hpp</text>
</a>
</g>
</g>
<!-- Node2&#45;&gt;Node18 -->
<g id="edge28_Node000002_Node000018" class="edge">
<title>Node2&#45;&gt;Node18</title>
<g id="a_edge28_Node000002_Node000018"><a xlink:title=" ">
<path fill="none" stroke="#63b8ff" d="M902.2,-252.49C848.07,-243.94 771.61,-231.4 704.88,-218.75 701.95,-218.2 698.96,-217.62 695.95,-217.02"/>
<polygon fill="#63b8ff" stroke="#63b8ff" points="901.48,-255.92 911.9,-254.01 902.57,-249 901.48,-255.92"/>
</a>
</g>
</g>
<!-- Node19 -->
<g id="Node000019" class="node">
<title>Node19</title>
<g id="a_Node000019"><a xlink:href="_mine_block_8hpp.html" target="_top" xlink:title=" ">
<polygon fill="white" stroke="#666666" points="1231.75,-218.75 1116,-218.75 1116,-188.25 1231.75,-188.25 1231.75,-218.75"/>
<text xml:space="preserve" text-anchor="start" x="1124" y="-205.25" font-family="Helvetica,sans-Serif" font-size="10.00">src/Autonomous/Steps</text>
<text xml:space="preserve" text-anchor="middle" x="1173.88" y="-194" font-family="Helvetica,sans-Serif" font-size="10.00">/MineBlock.hpp</text>
</a>
</g>
</g>
<!-- Node2&#45;&gt;Node19 -->
<g id="edge30_Node000002_Node000019" class="edge">
<title>Node2&#45;&gt;Node19</title>
<g id="a_edge30_Node000002_Node000019"><a xlink:title=" ">
<path fill="none" stroke="#63b8ff" d="M1014.52,-251.18C1046.25,-241.88 1090.05,-229.05 1123.71,-219.19"/>
<polygon fill="#63b8ff" stroke="#63b8ff" points="1013.91,-247.71 1005.29,-253.88 1015.87,-254.43 1013.91,-247.71"/>
</a>
</g>
</g>
<!-- Node20 -->
<g id="Node000020" class="node">
<title>Node20</title>
<g id="a_Node000020"><a xlink:href="_place_on_table_8hpp.html" target="_top" xlink:title=" ">
<polygon fill="white" stroke="#666666" points="829.75,-218.75 714,-218.75 714,-188.25 829.75,-188.25 829.75,-218.75"/>
<text xml:space="preserve" text-anchor="start" x="722" y="-205.25" font-family="Helvetica,sans-Serif" font-size="10.00">src/Autonomous/Steps</text>
<text xml:space="preserve" text-anchor="middle" x="771.88" y="-194" font-family="Helvetica,sans-Serif" font-size="10.00">/PlaceOnTable.hpp</text>
</a>
</g>
</g>
<!-- Node2&#45;&gt;Node20 -->
<g id="edge33_Node000002_Node000020" class="edge">
<title>Node2&#45;&gt;Node20</title>
<g id="a_edge33_Node000002_Node000020"><a xlink:title=" ">
<path fill="none" stroke="#63b8ff" d="M931.23,-251.18C899.5,-241.88 855.7,-229.05 822.04,-219.19"/>
<polygon fill="#63b8ff" stroke="#63b8ff" points="929.88,-254.43 940.46,-253.88 931.84,-247.71 929.88,-254.43"/>
</a>
</g>
</g>
<!-- Node21 -->
<g id="Node000021" class="node">
<title>Node21</title>
<g id="a_Node000021"><a xlink:href="_reject_sequence_8hpp.html" target="_top" xlink:title=" ">
<polygon fill="white" stroke="#666666" points="115.75,-218.75 0,-218.75 0,-188.25 115.75,-188.25 115.75,-218.75"/>
<text xml:space="preserve" text-anchor="start" x="8" y="-205.25" font-family="Helvetica,sans-Serif" font-size="10.00">src/Autonomous/Steps</text>
<text xml:space="preserve" text-anchor="middle" x="57.88" y="-194" font-family="Helvetica,sans-Serif" font-size="10.00">/RejectSequence.hpp</text>
</a>
</g>
</g>
<!-- Node2&#45;&gt;Node21 -->
<g id="edge35_Node000002_Node000021" class="edge">
<title>Node2&#45;&gt;Node21</title>
<g id="a_edge35_Node000002_Node000021"><a xlink:title=" ">
<path fill="none" stroke="#63b8ff" d="M895.77,-262.96C747.07,-261.35 410.52,-253.77 129.88,-218.75 125.32,-218.18 120.63,-217.49 115.92,-216.73"/>
<polygon fill="#63b8ff" stroke="#63b8ff" points="895.46,-266.46 905.5,-263.06 895.53,-259.46 895.46,-266.46"/>
</a>
</g>
</g>
<!-- Node4 -->
<g id="Node000004" class="node">
<title>Node4</title>
<g id="a_Node000004"><a xlink:href="_planner_8cpp.html" target="_top" xlink:title=" ">
<polygon fill="white" stroke="#666666" points="708.5,-85.75 567.25,-85.75 567.25,-66.5 708.5,-66.5 708.5,-85.75"/>
<text xml:space="preserve" text-anchor="middle" x="637.88" y="-72.25" font-family="Helvetica,sans-Serif" font-size="10.00">src/Autonomous/Planner.cpp</text>
</a>
</g>
</g>
<!-- Node3&#45;&gt;Node4 -->
<g id="edge3_Node000003_Node000004" class="edge">
<title>Node3&#45;&gt;Node4</title>
<g id="a_edge3_Node000003_Node000004"><a xlink:title=" ">
<path fill="none" stroke="#63b8ff" d="M637.88,-115.57C637.88,-105.54 637.88,-93.96 637.88,-86.15"/>
<polygon fill="#63b8ff" stroke="#63b8ff" points="634.38,-115.54 637.88,-125.54 641.38,-115.54 634.38,-115.54"/>
</a>
</g>
</g>
<!-- Node3&#45;&gt;Node5 -->
<g id="edge4_Node000003_Node000005" class="edge">
<title>Node3&#45;&gt;Node5</title>
<g id="a_edge4_Node000003_Node000005"><a xlink:title=" ">
<path fill="none" stroke="#63b8ff" d="M719.89,-127.09C838.33,-114.23 1052.7,-90.94 1140.63,-81.39"/>
<polygon fill="#63b8ff" stroke="#63b8ff" points="719.8,-123.58 710.24,-128.14 720.56,-130.54 719.8,-123.58"/>
</a>
</g>
</g>
<!-- Node6 -->
<g id="Node000006" class="node">
<title>Node6</title>
<g id="a_Node000006"><a xlink:href="_strategy_controller_step_8hpp.html" target="_top" xlink:title=" ">
<polygon fill="white" stroke="#666666" points="1186.25,-30.5 1049.5,-30.5 1049.5,0 1186.25,0 1186.25,-30.5"/>
<text xml:space="preserve" text-anchor="start" x="1057.5" y="-17" font-family="Helvetica,sans-Serif" font-size="10.00">src/Autonomous/Steps</text>
<text xml:space="preserve" text-anchor="middle" x="1117.88" y="-5.75" font-family="Helvetica,sans-Serif" font-size="10.00">/StrategyControllerStep.hpp</text>
</a>
</g>
</g>
<!-- Node5&#45;&gt;Node6 -->
<g id="edge5_Node000005_Node000006" class="edge">
<title>Node5&#45;&gt;Node6</title>
<g id="a_edge5_Node000005_Node000006"><a xlink:title=" ">
<path fill="none" stroke="#63b8ff" d="M1162.39,-58.52C1153.19,-49.79 1142.03,-39.18 1133.18,-30.78"/>
<polygon fill="#63b8ff" stroke="#63b8ff" points="1159.7,-60.79 1169.36,-65.14 1164.52,-55.72 1159.7,-60.79"/>
</a>
</g>
</g>
<!-- Node7 -->
<g id="Node000007" class="node">
<title>Node7</title>
<g id="a_Node000007"><a xlink:href="main_8cpp.html" target="_top" xlink:title=" ">
<polygon fill="white" stroke="#666666" points="1277,-24.88 1204.75,-24.88 1204.75,-5.63 1277,-5.63 1277,-24.88"/>
<text xml:space="preserve" text-anchor="middle" x="1240.88" y="-11.38" font-family="Helvetica,sans-Serif" font-size="10.00">src/main.cpp</text>
</a>
</g>
</g>
<!-- Node5&#45;&gt;Node7 -->
<g id="edge6_Node000005_Node000007" class="edge">
<title>Node5&#45;&gt;Node7</title>
<g id="a_edge6_Node000005_Node000007"><a xlink:title=" ">
<path fill="none" stroke="#63b8ff" d="M1197.31,-58.3C1208.44,-47.55 1222.44,-34.04 1231.52,-25.28"/>
<polygon fill="#63b8ff" stroke="#63b8ff" points="1194.99,-55.67 1190.23,-65.13 1199.85,-60.71 1194.99,-55.67"/>
</a>
</g>
</g>
<!-- Node8&#45;&gt;Node5 -->
<g id="edge8_Node000008_Node000005" class="edge">
<title>Node8&#45;&gt;Node5</title>
<g id="a_edge8_Node000008_Node000005"><a xlink:title=" ">
<path fill="none" stroke="#63b8ff" d="M1242.4,-115.47C1226.11,-105.48 1207.36,-93.98 1194.67,-86.2"/>
<polygon fill="#63b8ff" stroke="#63b8ff" points="1240.5,-118.41 1250.85,-120.66 1244.16,-112.44 1240.5,-118.41"/>
</a>
</g>
</g>
<!-- Node9&#45;&gt;Node3 -->
<g id="edge10_Node000009_Node000003" class="edge">
<title>Node9&#45;&gt;Node3</title>
<g id="a_edge10_Node000009_Node000003"><a xlink:title=" ">
<path fill="none" stroke="#63b8ff" d="M305.23,-187.89C403.16,-170.79 505.07,-156.09 570.33,-147.08"/>
<polygon fill="#63b8ff" stroke="#63b8ff" points="304.66,-184.44 295.41,-189.62 305.87,-191.33 304.66,-184.44"/>
</a>
</g>
</g>
<!-- Node10&#45;&gt;Node3 -->
<g id="edge12_Node000010_Node000003" class="edge">
<title>Node10&#45;&gt;Node3</title>
<g id="a_edge12_Node000010_Node000003"><a xlink:title=" ">
<path fill="none" stroke="#63b8ff" d="M439.03,-185.86C490.34,-173.51 558.35,-157.14 600.07,-147.1"/>
<polygon fill="#63b8ff" stroke="#63b8ff" points="438.4,-182.41 429.5,-188.15 440.04,-189.21 438.4,-182.41"/>
</a>
</g>
</g>
<!-- Node11&#45;&gt;Node3 -->
<g id="edge14_Node000011_Node000003" class="edge">
<title>Node11&#45;&gt;Node3</title>
<g id="a_edge14_Node000011_Node000003"><a xlink:title=" ">
<path fill="none" stroke="#63b8ff" d="M544.52,-182.94C569.35,-170.99 599.92,-156.27 619.16,-147.01"/>
<polygon fill="#63b8ff" stroke="#63b8ff" points="543.14,-179.72 535.65,-187.21 546.17,-186.02 543.14,-179.72"/>
</a>
</g>
</g>
<!-- Node12&#45;&gt;Node3 -->
<g id="edge16_Node000012_Node000003" class="edge">
<title>Node12&#45;&gt;Node3</title>
<g id="a_edge16_Node000012_Node000003"><a xlink:title=" ">
<path fill="none" stroke="#63b8ff" d="M836.72,-185.86C785.41,-173.51 717.4,-157.14 675.68,-147.1"/>
<polygon fill="#63b8ff" stroke="#63b8ff" points="835.71,-189.21 846.25,-188.15 837.35,-182.41 835.71,-189.21"/>
</a>
</g>
</g>
<!-- Node12&#45;&gt;Node5 -->
<g id="edge17_Node000012_Node000005" class="edge">
<title>Node12&#45;&gt;Node5</title>
<g id="a_edge17_Node000012_Node000005"><a xlink:title=" ">
<path fill="none" stroke="#63b8ff" d="M948.12,-183.17C1008.17,-155.69 1115.84,-106.43 1160.07,-86.19"/>
<polygon fill="#63b8ff" stroke="#63b8ff" points="946.86,-179.9 939.22,-187.24 949.77,-186.26 946.86,-179.9"/>
</a>
</g>
</g>
<!-- Node13&#45;&gt;Node5 -->
<g id="edge19_Node000013_Node000005" class="edge">
<title>Node13&#45;&gt;Node5</title>
<g id="a_edge19_Node000013_Node000005"><a xlink:title=" ">
<path fill="none" stroke="#63b8ff" d="M1350.48,-118.8C1306.86,-108.15 1252.59,-94.89 1217.12,-86.22"/>
<polygon fill="#63b8ff" stroke="#63b8ff" points="1349.6,-122.19 1360.14,-121.16 1351.26,-115.39 1349.6,-122.19"/>
</a>
</g>
</g>
<!-- Node14&#45;&gt;Node5 -->
<g id="edge21_Node000014_Node000005" class="edge">
<title>Node14&#45;&gt;Node5</title>
<g id="a_edge21_Node000014_Node000005"><a xlink:title=" ">
<path fill="none" stroke="#63b8ff" d="M1486.33,-121.37C1384.31,-103.47 1275.75,-89.09 1219.03,-81.94"/>
<polygon fill="#63b8ff" stroke="#63b8ff" points="1485.51,-124.77 1495.96,-123.07 1486.73,-117.88 1485.51,-124.77"/>
</a>
</g>
</g>
<!-- Node15&#45;&gt;Node5 -->
<g id="edge23_Node000015_Node000005" class="edge">
<title>Node15&#45;&gt;Node5</title>
<g id="a_edge23_Node000015_Node000005"><a xlink:title=" ">
<path fill="none" stroke="#63b8ff" d="M1620.8,-121.53C1466.14,-99.89 1294.75,-85.73 1219.12,-79.98"/>
<polygon fill="#63b8ff" stroke="#63b8ff" points="1620.01,-124.96 1630.41,-122.89 1621,-118.03 1620.01,-124.96"/>
</a>
</g>
</g>
<!-- Node17&#45;&gt;Node3 -->
<g id="edge26_Node000017_Node000003" class="edge">
<title>Node17&#45;&gt;Node3</title>
<g id="a_edge26_Node000017_Node000003"><a xlink:title=" ">
<path fill="none" stroke="#63b8ff" d="M970.58,-187.9C873.3,-170.51 772.07,-155.99 706.73,-147.08"/>
<polygon fill="#63b8ff" stroke="#63b8ff" points="969.86,-191.33 980.32,-189.66 971.1,-184.44 969.86,-191.33"/>
</a>
</g>
</g>
<!-- Node17&#45;&gt;Node5 -->
<g id="edge27_Node000017_Node000005" class="edge">
<title>Node17&#45;&gt;Node5</title>
<g id="a_edge27_Node000017_Node000005"><a xlink:title=" ">
<path fill="none" stroke="#63b8ff" d="M1064.41,-180.53C1095.64,-152.56 1148.14,-105.54 1169.93,-86.03"/>
<polygon fill="#63b8ff" stroke="#63b8ff" points="1062.45,-177.58 1057.34,-186.86 1067.12,-182.8 1062.45,-177.58"/>
</a>
</g>
</g>
<!-- Node18&#45;&gt;Node3 -->
<g id="edge29_Node000018_Node000003" class="edge">
<title>Node18&#45;&gt;Node3</title>
<g id="a_edge29_Node000018_Node000003"><a xlink:title=" ">
<path fill="none" stroke="#63b8ff" d="M637.88,-176.59C637.88,-166.01 637.88,-154.5 637.88,-146.82"/>
<polygon fill="#63b8ff" stroke="#63b8ff" points="634.38,-176.35 637.88,-186.35 641.38,-176.35 634.38,-176.35"/>
</a>
</g>
</g>
<!-- Node19&#45;&gt;Node3 -->
<g id="edge31_Node000019_Node000003" class="edge">
<title>Node19&#45;&gt;Node3</title>
<g id="a_edge31_Node000019_Node000003"><a xlink:title=" ">
<path fill="none" stroke="#63b8ff" d="M1104.88,-188.04C958.53,-165.14 798.77,-150.57 708.89,-143.32"/>
<polygon fill="#63b8ff" stroke="#63b8ff" points="1103.92,-191.43 1114.34,-189.54 1105.01,-184.52 1103.92,-191.43"/>
</a>
</g>
</g>
<!-- Node19&#45;&gt;Node5 -->
<g id="edge32_Node000019_Node000005" class="edge">
<title>Node19&#45;&gt;Node5</title>
<g id="a_edge32_Node000019_Node000005"><a xlink:title=" ">
<path fill="none" stroke="#63b8ff" d="M1168.05,-176.77C1165.26,-160.86 1163.07,-140.06 1165.88,-121.75 1167.82,-109.07 1172.7,-95.04 1176.14,-86.16"/>
<polygon fill="#63b8ff" stroke="#63b8ff" points="1164.57,-177.23 1169.93,-186.37 1171.44,-175.88 1164.57,-177.23"/>
</a>
</g>
</g>
<!-- Node20&#45;&gt;Node3 -->
<g id="edge34_Node000020_Node000003" class="edge">
<title>Node20&#45;&gt;Node3</title>
<g id="a_edge34_Node000020_Node000003"><a xlink:title=" ">
<path fill="none" stroke="#63b8ff" d="M731.23,-182.94C706.4,-170.99 675.83,-156.27 656.59,-147.01"/>
<polygon fill="#63b8ff" stroke="#63b8ff" points="729.58,-186.02 740.1,-187.21 732.61,-179.72 729.58,-186.02"/>
</a>
</g>
</g>
<!-- Node21&#45;&gt;Node3 -->
<g id="edge36_Node000021_Node000003" class="edge">
<title>Node21&#45;&gt;Node3</title>
<g id="a_edge36_Node000021_Node000003"><a xlink:title=" ">
<path fill="none" stroke="#63b8ff" d="M127.31,-188.64C128.17,-188.51 129.02,-188.38 129.88,-188.25 285.05,-165.27 468.49,-150.05 566.93,-142.84"/>
<polygon fill="#63b8ff" stroke="#63b8ff" points="126.74,-185.18 117.44,-190.26 127.88,-192.09 126.74,-185.18"/>
</a>
</g>
</g>
</g>
</svg>
