<?xml version="1.0" encoding="UTF-8" standalone="no"?>
<!DOCTYPE svg PUBLIC "-//W3C//DTD SVG 1.1//EN"
 "http://www.w3.org/Graphics/SVG/1.1/DTD/svg11.dtd">
<!-- Generated by graphviz version 14.1.2 (20260124.0452)
 -->
<!-- Title: src/Devices/LineSensor.hpp Pages: 1 -->
<svg width="164pt" height="83pt"
 viewBox="0.00 0.00 164.00 83.00" xmlns="http://www.w3.org/2000/svg" xmlns:xlink="http://www.w3.org/1999/xlink">
<g id="graph0" class="graph" transform="scale(1 1) rotate(0) translate(4 78.5)">
<title>src/Devices/LineSensor.hpp</title>
<!-- Node1 -->
<g id="Node000001" class="node">
<title>Node1</title>
<g id="a_Node000001"><a xlink:title=" ">
<polygon fill="#999999" stroke="#666666" points="140.75,-74.5 2.5,-74.5 2.5,-55.25 140.75,-55.25 140.75,-74.5"/>
<text xml:space="preserve" text-anchor="middle" x="71.62" y="-61" font-family="Helvetica,sans-Serif" font-size="10.00">src/Devices/LineSensor.hpp</text>
</a>
</g>
</g>
<!-- Node2 -->
<g id="Node000002" class="node">
<title>Node2</title>
<g id="a_Node000002"><a xlink:title=" ">
<polygon fill="#e0e0e0" stroke="#999999" points="57.25,-19.25 0,-19.25 0,0 57.25,0 57.25,-19.25"/>
<text xml:space="preserve" text-anchor="middle" x="28.62" y="-5.75" font-family="Helvetica,sans-Serif" font-size="10.00">Arduino.h</text>
</a>
</g>
</g>
<!-- Node1&#45;&gt;Node2 -->
<g id="edge1_Node000001_Node000002" class="edge">
<title>Node1&#45;&gt;Node2</title>
<g id="a_edge1_Node000001_Node000002"><a xlink:title=" ">
<path fill="none" stroke="#63b8ff" d="M64.52,-55.08C58.71,-47.88 50.29,-37.46 43.07,-28.51"/>
<polygon fill="#63b8ff" stroke="#63b8ff" points="45.84,-26.37 36.83,-20.79 40.39,-30.77 45.84,-26.37"/>
</a>
</g>
</g>
<!-- Node3 -->
<g id="Node000003" class="node">
<title>Node3</title>
<g id="a_Node000003"><a xlink:title=" ">
<polygon fill="#e0e0e0" stroke="#999999" points="156.25,-19.25 75,-19.25 75,0 156.25,0 156.25,-19.25"/>
<text xml:space="preserve" text-anchor="middle" x="115.62" y="-5.75" font-family="Helvetica,sans-Serif" font-size="10.00">QTRSensors.h</text>
</a>
</g>
</g>
<!-- Node1&#45;&gt;Node3 -->
<g id="edge2_Node000001_Node000003" class="edge">
<title>Node1&#45;&gt;Node3</title>
<g id="a_edge2_Node000001_Node000003"><a xlink:title=" ">
<path fill="none" stroke="#63b8ff" d="M78.89,-55.08C84.91,-47.8 93.64,-37.23 101.08,-28.23"/>
<polygon fill="#63b8ff" stroke="#63b8ff" points="103.57,-30.71 107.24,-20.78 98.17,-26.26 103.57,-30.71"/>
</a>
</g>
</g>
</g>
</svg>
