<?xml version="1.0" encoding="UTF-8" standalone="no"?>
<!DOCTYPE svg PUBLIC "-//W3C//DTD SVG 1.1//EN"
 "http://www.w3.org/Graphics/SVG/1.1/DTD/svg11.dtd">
<!-- Generated by graphviz version 14.1.2 (20260124.0452)
 -->
<!-- Title: src/Autonomous/Steps/MineBlock.hpp Pages: 1 -->
<svg width="1395pt" height="315pt"
 viewBox="0.00 0.00 1395.00 315.00" xmlns="http://www.w3.org/2000/svg" xmlns:xlink="http://www.w3.org/1999/xlink">
<g id="graph0" class="graph" transform="scale(1 1) rotate(0) translate(4 310.75)">
<title>src/Autonomous/Steps/MineBlock.hpp</title>
<!-- Node1 -->
<g id="Node000001" class="node">
<title>Node1</title>
<g id="a_Node000001"><a xlink:title=" ">
<polygon fill="#999999" stroke="#666666" points="440.38,-306.75 324.62,-306.75 324.62,-276.25 440.38,-276.25 440.38,-306.75"/>
<text xml:space="preserve" text-anchor="start" x="332.62" y="-293.25" font-family="Helvetica,sans-Serif" font-size="10.00">src/Autonomous/Steps</text>
<text xml:space="preserve" text-anchor="middle" x="382.5" y="-282" font-family="Helvetica,sans-Serif" font-size="10.00">/MineBlock.hpp</text>
</a>
</g>
</g>
<!-- Node2 -->
<g id="Node000002" class="node">
<title>Node2</title>
<g id="a_Node000002"><a xlink:href="_auto_step_8h.html" target="_top" xlink:title=" ">
<polygon fill="white" stroke="#666666" points="307.75,-240.25 185.25,-240.25 185.25,-221 307.75,-221 307.75,-240.25"/>
<text xml:space="preserve" text-anchor="middle" x="246.5" y="-226.75" font-family="Helvetica,sans-Serif" font-size="10.00">Autonomous/AutoStep.h</text>
</a>
</g>
</g>
<!-- Node1&#45;&gt;Node2 -->
<g id="edge1_Node000001_Node000002" class="edge">
<title>Node1&#45;&gt;Node2</title>
<g id="a_edge1_Node000001_Node000002"><a xlink:title=" ">
<path fill="none" stroke="#63b8ff" d="M348.53,-275.8C326.83,-266.4 298.88,-254.3 277.73,-245.14"/>
<polygon fill="#63b8ff" stroke="#63b8ff" points="279.31,-242.02 268.75,-241.26 276.53,-248.44 279.31,-242.02"/>
</a>
</g>
</g>
<!-- Node3 -->
<g id="Node000003" class="node">
<title>Node3</title>
<g id="a_Node000003"><a xlink:href="_drive_8hpp.html" target="_top" xlink:title=" ">
<polygon fill="white" stroke="#666666" points="439.62,-240.25 325.38,-240.25 325.38,-221 439.62,-221 439.62,-240.25"/>
<text xml:space="preserve" text-anchor="middle" x="382.5" y="-226.75" font-family="Helvetica,sans-Serif" font-size="10.00">subsystems/Drive.hpp</text>
</a>
</g>
</g>
<!-- Node1&#45;&gt;Node3 -->
<g id="edge2_Node000001_Node000003" class="edge">
<title>Node1&#45;&gt;Node3</title>
<g id="a_edge2_Node000001_Node000003"><a xlink:title=" ">
<path fill="none" stroke="#63b8ff" d="M382.5,-275.95C382.5,-268.71 382.5,-259.84 382.5,-251.94"/>
<polygon fill="#63b8ff" stroke="#63b8ff" points="386,-252.21 382.5,-242.21 379,-252.21 386,-252.21"/>
</a>
</g>
</g>
<!-- Node20 -->
<g id="Node000020" class="node">
<title>Node20</title>
<g id="a_Node000020"><a xlink:href="_miner_8hpp.html" target="_top" xlink:title=" ">
<polygon fill="white" stroke="#666666" points="1102.62,-240.25 988.38,-240.25 988.38,-221 1102.62,-221 1102.62,-240.25"/>
<text xml:space="preserve" text-anchor="middle" x="1045.5" y="-226.75" font-family="Helvetica,sans-Serif" font-size="10.00">subsystems/Miner.hpp</text>
</a>
</g>
</g>
<!-- Node1&#45;&gt;Node20 -->
<g id="edge32_Node000001_Node000020" class="edge">
<title>Node1&#45;&gt;Node20</title>
<g id="a_edge32_Node000001_Node000020"><a xlink:title=" ">
<path fill="none" stroke="#63b8ff" d="M440.76,-285.33C562.99,-274.47 845.71,-249.37 976.65,-237.74"/>
<polygon fill="#63b8ff" stroke="#63b8ff" points="976.93,-241.23 986.58,-236.86 976.31,-234.26 976.93,-241.23"/>
</a>
</g>
</g>
<!-- Node4 -->
<g id="Node000004" class="node">
<title>Node4</title>
<g id="a_Node000004"><a xlink:title=" ">
<polygon fill="#e0e0e0" stroke="#999999" points="645.12,-19.25 587.88,-19.25 587.88,0 645.12,0 645.12,-19.25"/>
<text xml:space="preserve" text-anchor="middle" x="616.5" y="-5.75" font-family="Helvetica,sans-Serif" font-size="10.00">Arduino.h</text>
</a>
</g>
</g>
<!-- Node3&#45;&gt;Node4 -->
<g id="edge3_Node000003_Node000004" class="edge">
<title>Node3&#45;&gt;Node4</title>
<g id="a_edge3_Node000003_Node000004"><a xlink:title=" ">
<path fill="none" stroke="#63b8ff" d="M326.45,-220.56C305.03,-214.2 282.43,-203.38 268.5,-185 233.55,-138.87 219.18,-98.62 257.5,-55.25 278.34,-31.66 486.75,-17.65 576.13,-12.68"/>
<polygon fill="#63b8ff" stroke="#63b8ff" points="576.12,-16.19 585.91,-12.15 575.74,-9.2 576.12,-16.19"/>
</a>
</g>
</g>
<!-- Node5 -->
<g id="Node000005" class="node">
<title>Node5</title>
<g id="a_Node000005"><a xlink:href="_config_8hpp.html" target="_top" xlink:title=" ">
<polygon fill="white" stroke="#666666" points="699.12,-185 635.88,-185 635.88,-165.75 699.12,-165.75 699.12,-185"/>
<text xml:space="preserve" text-anchor="middle" x="667.5" y="-171.5" font-family="Helvetica,sans-Serif" font-size="10.00">Config.hpp</text>
</a>
</g>
</g>
<!-- Node3&#45;&gt;Node5 -->
<g id="edge4_Node000003_Node000005" class="edge">
<title>Node3&#45;&gt;Node5</title>
<g id="a_edge4_Node000003_Node000005"><a xlink:title=" ">
<path fill="none" stroke="#63b8ff" d="M431.17,-220.53C485.41,-210.4 572.31,-194.16 624.25,-184.46"/>
<polygon fill="#63b8ff" stroke="#63b8ff" points="624.74,-187.93 633.92,-182.65 623.45,-181.04 624.74,-187.93"/>
</a>
</g>
</g>
<!-- Node11 -->
<g id="Node000011" class="node">
<title>Node11</title>
<g id="a_Node000011"><a xlink:href="_encoder_wrapper_8hpp.html" target="_top" xlink:title=" ">
<polygon fill="white" stroke="#666666" points="145,-74.5 0,-74.5 0,-55.25 145,-55.25 145,-74.5"/>
<text xml:space="preserve" text-anchor="middle" x="72.5" y="-61" font-family="Helvetica,sans-Serif" font-size="10.00">Devices/EncoderWrapper.hpp</text>
</a>
</g>
</g>
<!-- Node3&#45;&gt;Node11 -->
<g id="edge15_Node000003_Node000011" class="edge">
<title>Node3&#45;&gt;Node11</title>
<g id="a_edge15_Node000003_Node000011"><a xlink:title=" ">
<path fill="none" stroke="#63b8ff" d="M324.91,-222.08C322.07,-221.71 319.25,-221.35 316.5,-221 252.74,-212.84 78.03,-227.15 29.5,-185 4,-162.85 -0.42,-140.8 14.5,-110.5 20.66,-97.98 32.21,-87.99 43.39,-80.66"/>
<polygon fill="#63b8ff" stroke="#63b8ff" points="44.91,-83.84 51.68,-75.69 41.31,-77.83 44.91,-83.84"/>
</a>
</g>
</g>
<!-- Node13 -->
<g id="Node000013" class="node">
<title>Node13</title>
<g id="a_Node000013"><a xlink:href="_line_sensor_8hpp.html" target="_top" xlink:title=" ">
<polygon fill="white" stroke="#666666" points="399.38,-185 277.62,-185 277.62,-165.75 399.38,-165.75 399.38,-185"/>
<text xml:space="preserve" text-anchor="middle" x="338.5" y="-171.5" font-family="Helvetica,sans-Serif" font-size="10.00">Devices/LineSensor.hpp</text>
</a>
</g>
</g>
<!-- Node3&#45;&gt;Node13 -->
<g id="edge18_Node000003_Node000013" class="edge">
<title>Node3&#45;&gt;Node13</title>
<g id="a_edge18_Node000003_Node000013"><a xlink:title=" ">
<path fill="none" stroke="#63b8ff" d="M375.23,-220.83C369.22,-213.55 360.49,-202.98 353.04,-193.98"/>
<polygon fill="#63b8ff" stroke="#63b8ff" points="355.96,-192.01 346.89,-186.53 350.56,-196.46 355.96,-192.01"/>
</a>
</g>
</g>
<!-- Node15 -->
<g id="Node000015" class="node">
<title>Node15</title>
<g id="a_Node000015"><a xlink:href="_distance_sensor_8hpp.html" target="_top" xlink:title=" ">
<polygon fill="white" stroke="#666666" points="419.88,-74.5 277.12,-74.5 277.12,-55.25 419.88,-55.25 419.88,-74.5"/>
<text xml:space="preserve" text-anchor="middle" x="348.5" y="-61" font-family="Helvetica,sans-Serif" font-size="10.00">Devices/DistanceSensor.hpp</text>
</a>
</g>
</g>
<!-- Node3&#45;&gt;Node15 -->
<g id="edge21_Node000003_Node000015" class="edge">
<title>Node3&#45;&gt;Node15</title>
<g id="a_edge21_Node000003_Node000015"><a xlink:title=" ">
<path fill="none" stroke="#63b8ff" d="M389.63,-220.7C396,-212.12 404.85,-198.5 408.5,-185 413.67,-165.86 406.04,-118.85 401.5,-110.5 395.14,-98.81 384.37,-88.89 374.2,-81.39"/>
<polygon fill="#63b8ff" stroke="#63b8ff" points="376.28,-78.57 366.05,-75.82 372.33,-84.35 376.28,-78.57"/>
</a>
</g>
</g>
<!-- Node16 -->
<g id="Node000016" class="node">
<title>Node16</title>
<g id="a_Node000016"><a xlink:href="_odometry_8hpp.html" target="_top" xlink:title=" ">
<polygon fill="white" stroke="#666666" points="121,-129.75 24,-129.75 24,-110.5 121,-110.5 121,-129.75"/>
<text xml:space="preserve" text-anchor="middle" x="72.5" y="-116.25" font-family="Helvetica,sans-Serif" font-size="10.00">utils/Odometry.hpp</text>
</a>
</g>
</g>
<!-- Node3&#45;&gt;Node16 -->
<g id="edge23_Node000003_Node000016" class="edge">
<title>Node3&#45;&gt;Node16</title>
<g id="a_edge23_Node000003_Node000016"><a xlink:title=" ">
<path fill="none" stroke="#63b8ff" d="M324.91,-222.09C322.06,-221.72 319.25,-221.36 316.5,-221 254.73,-212.96 79.62,-231.79 38.5,-185 26.14,-170.93 39.7,-151.59 53.19,-137.89"/>
<polygon fill="#63b8ff" stroke="#63b8ff" points="55.38,-140.63 60.24,-131.22 50.57,-135.54 55.38,-140.63"/>
</a>
</g>
</g>
<!-- Node17 -->
<g id="Node000017" class="node">
<title>Node17</title>
<g id="a_Node000017"><a xlink:href="_ramsete_controller_8hpp.html" target="_top" xlink:title=" ">
<polygon fill="white" stroke="#666666" points="183.88,-185 47.12,-185 47.12,-165.75 183.88,-165.75 183.88,-185"/>
<text xml:space="preserve" text-anchor="middle" x="115.5" y="-171.5" font-family="Helvetica,sans-Serif" font-size="10.00">utils/RamseteController.hpp</text>
</a>
</g>
</g>
<!-- Node3&#45;&gt;Node17 -->
<g id="edge25_Node000003_Node000017" class="edge">
<title>Node3&#45;&gt;Node17</title>
<g id="a_edge25_Node000003_Node000017"><a xlink:title=" ">
<path fill="none" stroke="#63b8ff" d="M336.9,-220.53C291.31,-211.44 221.08,-197.43 171.98,-187.64"/>
<polygon fill="#63b8ff" stroke="#63b8ff" points="172.88,-184.25 162.39,-185.73 171.51,-191.12 172.88,-184.25"/>
</a>
</g>
</g>
<!-- Node18 -->
<g id="Node000018" class="node">
<title>Node18</title>
<g id="a_Node000018"><a xlink:href="_odometry_plotting_8hpp.html" target="_top" xlink:title=" ">
<polygon fill="white" stroke="#666666" points="569.25,-74.5 437.75,-74.5 437.75,-55.25 569.25,-55.25 569.25,-74.5"/>
<text xml:space="preserve" text-anchor="middle" x="503.5" y="-61" font-family="Helvetica,sans-Serif" font-size="10.00">utils/OdometryPlotting.hpp</text>
</a>
</g>
</g>
<!-- Node3&#45;&gt;Node18 -->
<g id="edge28_Node000003_Node000018" class="edge">
<title>Node3&#45;&gt;Node18</title>
<g id="a_edge28_Node000003_Node000018"><a xlink:title=" ">
<path fill="none" stroke="#63b8ff" d="M391.4,-220.75C400.01,-212 413.21,-198.06 423.5,-185 450.24,-151.06 477.47,-108.43 492.25,-84.46"/>
<polygon fill="#63b8ff" stroke="#63b8ff" points="495.1,-86.51 497.33,-76.15 489.12,-82.86 495.1,-86.51"/>
</a>
</g>
</g>
<!-- Node19 -->
<g id="Node000019" class="node">
<title>Node19</title>
<g id="a_Node000019"><a xlink:href="_subsystem_8h.html" target="_top" xlink:title=" ">
<polygon fill="white" stroke="#666666" points="1050.38,-185 976.62,-185 976.62,-165.75 1050.38,-165.75 1050.38,-185"/>
<text xml:space="preserve" text-anchor="middle" x="1013.5" y="-171.5" font-family="Helvetica,sans-Serif" font-size="10.00">Subsystem.h</text>
</a>
</g>
</g>
<!-- Node3&#45;&gt;Node19 -->
<g id="edge30_Node000003_Node000019" class="edge">
<title>Node3&#45;&gt;Node19</title>
<g id="a_edge30_Node000003_Node000019"><a xlink:title=" ">
<path fill="none" stroke="#63b8ff" d="M439.89,-224.78C562.96,-214.4 850.35,-190.14 965.01,-180.47"/>
<polygon fill="#63b8ff" stroke="#63b8ff" points="965.02,-183.98 974.69,-179.65 964.43,-177 965.02,-183.98"/>
</a>
</g>
</g>
<!-- Node5&#45;&gt;Node4 -->
<g id="edge5_Node000005_Node000004" class="edge">
<title>Node5&#45;&gt;Node4</title>
<g id="a_edge5_Node000005_Node000004"><a xlink:title=" ">
<path fill="none" stroke="#63b8ff" d="M663.47,-165.26C659.6,-156.32 653.74,-142.25 649.5,-129.75 637.88,-95.47 627.24,-54.64 621.34,-30.78"/>
<polygon fill="#63b8ff" stroke="#63b8ff" points="624.77,-30.05 619,-21.17 617.97,-31.71 624.77,-30.05"/>
</a>
</g>
</g>
<!-- Node6 -->
<g id="Node000006" class="node">
<title>Node6</title>
<g id="a_Node000006"><a xlink:href="_dual_motor_controller_8hpp.html" target="_top" xlink:title=" ">
<polygon fill="white" stroke="#666666" points="818.5,-129.75 658.5,-129.75 658.5,-110.5 818.5,-110.5 818.5,-129.75"/>
<text xml:space="preserve" text-anchor="middle" x="738.5" y="-116.25" font-family="Helvetica,sans-Serif" font-size="10.00">Devices/DualMotorController.hpp</text>
</a>
</g>
</g>
<!-- Node5&#45;&gt;Node6 -->
<g id="edge6_Node000005_Node000006" class="edge">
<title>Node5&#45;&gt;Node6</title>
<g id="a_edge6_Node000005_Node000006"><a xlink:title=" ">
<path fill="none" stroke="#63b8ff" d="M679.54,-165.34C689.91,-157.57 705.1,-146.17 717.47,-136.9"/>
<polygon fill="#63b8ff" stroke="#63b8ff" points="719.52,-139.73 725.42,-130.93 715.32,-134.13 719.52,-139.73"/>
</a>
</g>
</g>
<!-- Node7 -->
<g id="Node000007" class="node">
<title>Node7</title>
<g id="a_Node000007"><a xlink:href="_p_i_d_8hpp.html" target="_top" xlink:title=" ">
<polygon fill="white" stroke="#666666" points="1050,-74.5 977,-74.5 977,-55.25 1050,-55.25 1050,-74.5"/>
<text xml:space="preserve" text-anchor="middle" x="1013.5" y="-61" font-family="Helvetica,sans-Serif" font-size="10.00">utils/PID.hpp</text>
</a>
</g>
</g>
<!-- Node5&#45;&gt;Node7 -->
<g id="edge13_Node000005_Node000007" class="edge">
<title>Node5&#45;&gt;Node7</title>
<g id="a_edge13_Node000005_Node000007"><a xlink:title=" ">
<path fill="none" stroke="#63b8ff" d="M699.54,-166.03C731.95,-157.45 783.44,-143.45 827.5,-129.75 880.24,-113.35 940.6,-92.17 977.89,-78.8"/>
<polygon fill="#63b8ff" stroke="#63b8ff" points="979.03,-82.11 987.26,-75.43 976.66,-75.52 979.03,-82.11"/>
</a>
</g>
</g>
<!-- Node10 -->
<g id="Node000010" class="node">
<title>Node10</title>
<g id="a_Node000010"><a xlink:title=" ">
<polygon fill="#e0e0e0" stroke="#999999" points="569,-129.75 526,-129.75 526,-110.5 569,-110.5 569,-129.75"/>
<text xml:space="preserve" text-anchor="middle" x="547.5" y="-116.25" font-family="Helvetica,sans-Serif" font-size="10.00">cmath</text>
</a>
</g>
</g>
<!-- Node5&#45;&gt;Node10 -->
<g id="edge14_Node000005_Node000010" class="edge">
<title>Node5&#45;&gt;Node10</title>
<g id="a_edge14_Node000005_Node000010"><a xlink:title=" ">
<path fill="none" stroke="#63b8ff" d="M647.14,-165.34C628.27,-156.97 599.91,-144.38 578.27,-134.78"/>
<polygon fill="#63b8ff" stroke="#63b8ff" points="579.9,-131.67 569.34,-130.82 577.06,-138.07 579.9,-131.67"/>
</a>
</g>
</g>
<!-- Node6&#45;&gt;Node4 -->
<g id="edge7_Node000006_Node000004" class="edge">
<title>Node6&#45;&gt;Node4</title>
<g id="a_edge7_Node000006_Node000004"><a xlink:title=" ">
<path fill="none" stroke="#63b8ff" d="M713.46,-110.08C695.47,-102.64 671.48,-90.68 654.5,-74.5 641.22,-61.84 630.97,-43.54 624.48,-29.77"/>
<polygon fill="#63b8ff" stroke="#63b8ff" points="627.79,-28.6 620.54,-20.87 621.39,-31.44 627.79,-28.6"/>
</a>
</g>
</g>
<!-- Node6&#45;&gt;Node7 -->
<g id="edge8_Node000006_Node000007" class="edge">
<title>Node6&#45;&gt;Node7</title>
<g id="a_edge8_Node000006_Node000007"><a xlink:title=" ">
<path fill="none" stroke="#63b8ff" d="M785.46,-110.03C835.7,-100.3 914.97,-84.95 965.57,-75.16"/>
<polygon fill="#63b8ff" stroke="#63b8ff" points="966.21,-78.6 975.36,-73.26 964.88,-71.72 966.21,-78.6"/>
</a>
</g>
</g>
<!-- Node8 -->
<g id="Node000008" class="node">
<title>Node8</title>
<g id="a_Node000008"><a xlink:title=" ">
<polygon fill="#e0e0e0" stroke="#999999" points="813.25,-74.5 663.75,-74.5 663.75,-55.25 813.25,-55.25 813.25,-74.5"/>
<text xml:space="preserve" text-anchor="middle" x="738.5" y="-61" font-family="Helvetica,sans-Serif" font-size="10.00">DualTB9051FTGMotorShield.h</text>
</a>
</g>
</g>
<!-- Node6&#45;&gt;Node8 -->
<g id="edge10_Node000006_Node000008" class="edge">
<title>Node6&#45;&gt;Node8</title>
<g id="a_edge10_Node000006_Node000008"><a xlink:title=" ">
<path fill="none" stroke="#63b8ff" d="M738.5,-110.33C738.5,-103.82 738.5,-94.67 738.5,-86.37"/>
<polygon fill="#63b8ff" stroke="#63b8ff" points="742,-86.37 738.5,-76.37 735,-86.37 742,-86.37"/>
</a>
</g>
</g>
<!-- Node9 -->
<g id="Node000009" class="node">
<title>Node9</title>
<g id="a_Node000009"><a xlink:href="_l298_n_motor_driver_mega_8h.html" target="_top" xlink:title=" ">
<polygon fill="white" stroke="#666666" points="959.38,-74.5 831.62,-74.5 831.62,-55.25 959.38,-55.25 959.38,-74.5"/>
<text xml:space="preserve" text-anchor="middle" x="895.5" y="-61" font-family="Helvetica,sans-Serif" font-size="10.00">L298NMotorDriverMega.h</text>
</a>
</g>
</g>
<!-- Node6&#45;&gt;Node9 -->
<g id="edge11_Node000006_Node000009" class="edge">
<title>Node6&#45;&gt;Node9</title>
<g id="a_edge11_Node000006_Node000009"><a xlink:title=" ">
<path fill="none" stroke="#63b8ff" d="M765.13,-110.09C790.62,-101.45 829.31,-88.32 857.93,-78.62"/>
<polygon fill="#63b8ff" stroke="#63b8ff" points="858.96,-81.97 867.3,-75.44 856.71,-75.34 858.96,-81.97"/>
</a>
</g>
</g>
<!-- Node7&#45;&gt;Node4 -->
<g id="edge9_Node000007_Node000004" class="edge">
<title>Node7&#45;&gt;Node4</title>
<g id="a_edge9_Node000007_Node000004"><a xlink:title=" ">
<path fill="none" stroke="#63b8ff" d="M976.7,-56.62C973.93,-56.14 971.17,-55.67 968.5,-55.25 855.96,-37.35 722.27,-22.02 656.75,-14.89"/>
<polygon fill="#63b8ff" stroke="#63b8ff" points="657.16,-11.41 646.84,-13.82 656.4,-18.37 657.16,-11.41"/>
</a>
</g>
</g>
<!-- Node9&#45;&gt;Node4 -->
<g id="edge12_Node000009_Node000004" class="edge">
<title>Node9&#45;&gt;Node4</title>
<g id="a_edge12_Node000009_Node000004"><a xlink:title=" ">
<path fill="none" stroke="#63b8ff" d="M847.86,-54.78C794,-44.5 707.26,-27.95 656.69,-18.3"/>
<polygon fill="#63b8ff" stroke="#63b8ff" points="657.53,-14.89 647.05,-16.46 656.21,-21.77 657.53,-14.89"/>
</a>
</g>
</g>
<!-- Node11&#45;&gt;Node4 -->
<g id="edge16_Node000011_Node000004" class="edge">
<title>Node11&#45;&gt;Node4</title>
<g id="a_edge16_Node000011_Node000004"><a xlink:title=" ">
<path fill="none" stroke="#63b8ff" d="M145.13,-56.67C149.99,-56.19 154.82,-55.71 159.5,-55.25 313.44,-40.1 496.57,-22.28 576.2,-14.54"/>
<polygon fill="#63b8ff" stroke="#63b8ff" points="576.5,-18.03 586.12,-13.58 575.83,-11.06 576.5,-18.03"/>
</a>
</g>
</g>
<!-- Node12 -->
<g id="Node000012" class="node">
<title>Node12</title>
<g id="a_Node000012"><a xlink:title=" ">
<polygon fill="#e0e0e0" stroke="#999999" points="102.25,-19.25 42.75,-19.25 42.75,0 102.25,0 102.25,-19.25"/>
<text xml:space="preserve" text-anchor="middle" x="72.5" y="-5.75" font-family="Helvetica,sans-Serif" font-size="10.00">Encoder.h</text>
</a>
</g>
</g>
<!-- Node11&#45;&gt;Node12 -->
<g id="edge17_Node000011_Node000012" class="edge">
<title>Node11&#45;&gt;Node12</title>
<g id="a_edge17_Node000011_Node000012"><a xlink:title=" ">
<path fill="none" stroke="#63b8ff" d="M72.5,-55.08C72.5,-48.57 72.5,-39.42 72.5,-31.12"/>
<polygon fill="#63b8ff" stroke="#63b8ff" points="76,-31.12 72.5,-21.12 69,-31.12 76,-31.12"/>
</a>
</g>
</g>
<!-- Node13&#45;&gt;Node4 -->
<g id="edge19_Node000013_Node000004" class="edge">
<title>Node13&#45;&gt;Node4</title>
<g id="a_edge19_Node000013_Node000004"><a xlink:title=" ">
<path fill="none" stroke="#63b8ff" d="M348.22,-165.6C361.2,-152.79 381.18,-128.54 368.5,-110.5 339.3,-68.96 234.96,-93.37 268.5,-55.25 288.58,-32.43 488.85,-18.07 576.16,-12.85"/>
<polygon fill="#63b8ff" stroke="#63b8ff" points="576.17,-16.35 585.95,-12.27 575.76,-9.37 576.17,-16.35"/>
</a>
</g>
</g>
<!-- Node14 -->
<g id="Node000014" class="node">
<title>Node14</title>
<g id="a_Node000014"><a xlink:title=" ">
<polygon fill="#e0e0e0" stroke="#999999" points="359.12,-129.75 277.88,-129.75 277.88,-110.5 359.12,-110.5 359.12,-129.75"/>
<text xml:space="preserve" text-anchor="middle" x="318.5" y="-116.25" font-family="Helvetica,sans-Serif" font-size="10.00">QTRSensors.h</text>
</a>
</g>
</g>
<!-- Node13&#45;&gt;Node14 -->
<g id="edge20_Node000013_Node000014" class="edge">
<title>Node13&#45;&gt;Node14</title>
<g id="a_edge20_Node000013_Node000014"><a xlink:title=" ">
<path fill="none" stroke="#63b8ff" d="M335.2,-165.58C332.67,-158.84 329.07,-149.27 325.87,-140.74"/>
<polygon fill="#63b8ff" stroke="#63b8ff" points="329.2,-139.66 322.41,-131.53 322.65,-142.12 329.2,-139.66"/>
</a>
</g>
</g>
<!-- Node15&#45;&gt;Node4 -->
<g id="edge22_Node000015_Node000004" class="edge">
<title>Node15&#45;&gt;Node4</title>
<g id="a_edge22_Node000015_Node000004"><a xlink:title=" ">
<path fill="none" stroke="#63b8ff" d="M394.27,-54.78C445.48,-44.61 527.63,-28.28 576.41,-18.59"/>
<polygon fill="#63b8ff" stroke="#63b8ff" points="576.85,-22.07 585.98,-16.69 575.49,-15.21 576.85,-22.07"/>
</a>
</g>
</g>
<!-- Node16&#45;&gt;Node11 -->
<g id="edge24_Node000016_Node000011" class="edge">
<title>Node16&#45;&gt;Node11</title>
<g id="a_edge24_Node000016_Node000011"><a xlink:title=" ">
<path fill="none" stroke="#63b8ff" d="M72.5,-110.33C72.5,-103.82 72.5,-94.67 72.5,-86.37"/>
<polygon fill="#63b8ff" stroke="#63b8ff" points="76,-86.37 72.5,-76.37 69,-86.37 76,-86.37"/>
</a>
</g>
</g>
<!-- Node17&#45;&gt;Node4 -->
<g id="edge26_Node000017_Node000004" class="edge">
<title>Node17&#45;&gt;Node4</title>
<g id="a_edge26_Node000017_Node000004"><a xlink:title=" ">
<path fill="none" stroke="#63b8ff" d="M118.58,-165.55C127.04,-142.72 153.06,-81.71 197.5,-55.25 260.8,-17.56 483.88,-11.55 576.12,-10.71"/>
<polygon fill="#63b8ff" stroke="#63b8ff" points="575.98,-14.21 585.96,-10.63 575.93,-7.21 575.98,-14.21"/>
</a>
</g>
</g>
<!-- Node17&#45;&gt;Node16 -->
<g id="edge27_Node000017_Node000016" class="edge">
<title>Node17&#45;&gt;Node16</title>
<g id="a_edge27_Node000017_Node000016"><a xlink:title=" ">
<path fill="none" stroke="#63b8ff" d="M108.4,-165.58C102.58,-158.38 94.17,-147.96 86.94,-139.01"/>
<polygon fill="#63b8ff" stroke="#63b8ff" points="89.71,-136.87 80.71,-131.29 84.27,-141.27 89.71,-136.87"/>
</a>
</g>
</g>
<!-- Node18&#45;&gt;Node4 -->
<g id="edge29_Node000018_Node000004" class="edge">
<title>Node18&#45;&gt;Node4</title>
<g id="a_edge29_Node000018_Node000004"><a xlink:title=" ">
<path fill="none" stroke="#63b8ff" d="M522.67,-54.84C540.28,-46.54 566.66,-34.11 586.96,-24.54"/>
<polygon fill="#63b8ff" stroke="#63b8ff" points="588.31,-27.78 595.87,-20.35 585.33,-21.44 588.31,-27.78"/>
</a>
</g>
</g>
<!-- Node19&#45;&gt;Node4 -->
<g id="edge31_Node000019_Node000004" class="edge">
<title>Node19&#45;&gt;Node4</title>
<g id="a_edge31_Node000019_Node000004"><a xlink:title=" ">
<path fill="none" stroke="#63b8ff" d="M1022.48,-165.46C1043.07,-143.98 1089.69,-88.63 1059.5,-55.25 1032.73,-25.65 760.8,-14.76 656.72,-11.66"/>
<polygon fill="#63b8ff" stroke="#63b8ff" points="657.07,-8.17 646.97,-11.38 656.87,-15.17 657.07,-8.17"/>
</a>
</g>
</g>
<!-- Node20&#45;&gt;Node4 -->
<g id="edge33_Node000020_Node000004" class="edge">
<title>Node20&#45;&gt;Node4</title>
<g id="a_edge33_Node000020_Node000004"><a xlink:title=" ">
<path fill="none" stroke="#63b8ff" d="M1053.33,-220.81C1060.34,-212.31 1070.15,-198.74 1074.5,-185 1091.89,-129.99 1117.29,-97.96 1078.5,-55.25 1050.37,-24.27 763.74,-14.19 656.61,-11.48"/>
<polygon fill="#63b8ff" stroke="#63b8ff" points="656.93,-7.99 646.85,-11.25 656.76,-14.99 656.93,-7.99"/>
</a>
</g>
</g>
<!-- Node20&#45;&gt;Node5 -->
<g id="edge40_Node000020_Node000005" class="edge">
<title>Node20&#45;&gt;Node5</title>
<g id="a_edge40_Node000020_Node000005"><a xlink:title=" ">
<path fill="none" stroke="#63b8ff" d="M988.09,-221.54C911.75,-210.78 778.56,-192.02 710.38,-182.42"/>
<polygon fill="#63b8ff" stroke="#63b8ff" points="711.11,-178.98 700.72,-181.05 710.13,-185.92 711.11,-178.98"/>
</a>
</g>
</g>
<!-- Node20&#45;&gt;Node7 -->
<g id="edge39_Node000020_Node000007" class="edge">
<title>Node20&#45;&gt;Node7</title>
<g id="a_edge39_Node000020_Node000007"><a xlink:title=" ">
<path fill="none" stroke="#63b8ff" d="M1050,-220.53C1055.56,-208.14 1063.78,-185.27 1059.5,-165.75 1052.91,-135.68 1036.37,-103.87 1025.03,-84.44"/>
<polygon fill="#63b8ff" stroke="#63b8ff" points="1028.15,-82.83 1020,-76.06 1022.15,-86.44 1028.15,-82.83"/>
</a>
</g>
</g>
<!-- Node20&#45;&gt;Node11 -->
<g id="edge38_Node000020_Node000011" class="edge">
<title>Node20&#45;&gt;Node11</title>
<g id="a_edge38_Node000020_Node000011"><a xlink:title=" ">
<path fill="none" stroke="#63b8ff" d="M987.95,-229.91C831.76,-230.12 402.67,-226.76 268.5,-185 231.54,-173.5 137.68,-110.76 94.66,-81.24"/>
<polygon fill="#63b8ff" stroke="#63b8ff" points="96.81,-78.48 86.59,-75.69 92.84,-84.24 96.81,-78.48"/>
</a>
</g>
</g>
<!-- Node20&#45;&gt;Node19 -->
<g id="edge34_Node000020_Node000019" class="edge">
<title>Node20&#45;&gt;Node19</title>
<g id="a_edge34_Node000020_Node000019"><a xlink:title=" ">
<path fill="none" stroke="#63b8ff" d="M1040.22,-220.83C1036.03,-213.86 1030.02,-203.87 1024.77,-195.12"/>
<polygon fill="#63b8ff" stroke="#63b8ff" points="1027.83,-193.43 1019.68,-186.66 1021.83,-197.03 1027.83,-193.43"/>
</a>
</g>
</g>
<!-- Node21 -->
<g id="Node000021" class="node">
<title>Node21</title>
<g id="a_Node000021"><a xlink:href="_servo_control_8hpp.html" target="_top" xlink:title=" ">
<polygon fill="white" stroke="#666666" points="1349.88,-185 1219.12,-185 1219.12,-165.75 1349.88,-165.75 1349.88,-185"/>
<text xml:space="preserve" text-anchor="middle" x="1284.5" y="-171.5" font-family="Helvetica,sans-Serif" font-size="10.00">Devices/ServoControl.hpp</text>
</a>
</g>
</g>
<!-- Node20&#45;&gt;Node21 -->
<g id="edge35_Node000020_Node000021" class="edge">
<title>Node20&#45;&gt;Node21</title>
<g id="a_edge35_Node000020_Node000021"><a xlink:title=" ">
<path fill="none" stroke="#63b8ff" d="M1086.31,-220.53C1126.79,-211.51 1188.94,-197.67 1232.83,-187.89"/>
<polygon fill="#63b8ff" stroke="#63b8ff" points="1233.38,-191.35 1242.38,-185.76 1231.86,-184.52 1233.38,-191.35"/>
</a>
</g>
</g>
<!-- Node23 -->
<g id="Node000023" class="node">
<title>Node23</title>
<g id="a_Node000023"><a xlink:href="_solenoid_8hpp.html" target="_top" xlink:title=" ">
<polygon fill="white" stroke="#666666" points="1256.12,-129.75 1144.88,-129.75 1144.88,-110.5 1256.12,-110.5 1256.12,-129.75"/>
<text xml:space="preserve" text-anchor="middle" x="1200.5" y="-116.25" font-family="Helvetica,sans-Serif" font-size="10.00">Devices/Solenoid.hpp</text>
</a>
</g>
</g>
<!-- Node20&#45;&gt;Node23 -->
<g id="edge41_Node000020_Node000023" class="edge">
<title>Node20&#45;&gt;Node23</title>
<g id="a_edge41_Node000020_Node000023"><a xlink:title=" ">
<path fill="none" stroke="#63b8ff" d="M1066.27,-220.55C1084.02,-212.38 1109.89,-199.45 1130.5,-185 1150.39,-171.05 1170.62,-151.94 1184.19,-138.27"/>
<polygon fill="#63b8ff" stroke="#63b8ff" points="1186.54,-140.87 1191.01,-131.26 1181.53,-135.98 1186.54,-140.87"/>
</a>
</g>
</g>
<!-- Node21&#45;&gt;Node4 -->
<g id="edge36_Node000021_Node000004" class="edge">
<title>Node21&#45;&gt;Node4</title>
<g id="a_edge36_Node000021_Node000004"><a xlink:title=" ">
<path fill="none" stroke="#63b8ff" d="M1284.02,-165.51C1282.87,-152.16 1278.93,-126.72 1265.5,-110.5 1231.36,-69.28 1209.95,-70.01 1158.5,-55.25 1064.25,-28.21 766.12,-15.67 657.01,-11.9"/>
<polygon fill="#63b8ff" stroke="#63b8ff" points="657.19,-8.41 647.07,-11.57 656.95,-15.4 657.19,-8.41"/>
</a>
</g>
</g>
<!-- Node22 -->
<g id="Node000022" class="node">
<title>Node22</title>
<g id="a_Node000022"><a xlink:title=" ">
<polygon fill="#e0e0e0" stroke="#999999" points="1386.75,-129.75 1312.25,-129.75 1312.25,-110.5 1386.75,-110.5 1386.75,-129.75"/>
<text xml:space="preserve" text-anchor="middle" x="1349.5" y="-116.25" font-family="Helvetica,sans-Serif" font-size="10.00">PWMServo.h</text>
</a>
</g>
</g>
<!-- Node21&#45;&gt;Node22 -->
<g id="edge37_Node000021_Node000022" class="edge">
<title>Node21&#45;&gt;Node22</title>
<g id="a_edge37_Node000021_Node000022"><a xlink:title=" ">
<path fill="none" stroke="#63b8ff" d="M1295.53,-165.34C1304.92,-157.65 1318.65,-146.4 1329.91,-137.18"/>
<polygon fill="#63b8ff" stroke="#63b8ff" points="1331.95,-140.03 1337.47,-130.98 1327.51,-134.61 1331.95,-140.03"/>
</a>
</g>
</g>
<!-- Node23&#45;&gt;Node4 -->
<g id="edge42_Node000023_Node000004" class="edge">
<title>Node23&#45;&gt;Node4</title>
<g id="a_edge42_Node000023_Node000004"><a xlink:title=" ">
<path fill="none" stroke="#63b8ff" d="M1193.95,-110.17C1182.78,-95.69 1158.53,-67.54 1130.5,-55.25 1045.68,-18.07 762.53,-11.84 656.79,-10.82"/>
<polygon fill="#63b8ff" stroke="#63b8ff" points="656.92,-7.32 646.89,-10.73 656.86,-14.32 656.92,-7.32"/>
</a>
</g>
</g>
</g>
</svg>
