<?xml version="1.0" encoding="UTF-8" standalone="no"?>
<!DOCTYPE svg PUBLIC "-//W3C//DTD SVG 1.1//EN"
 "http://www.w3.org/Graphics/SVG/1.1/DTD/svg11.dtd">
<!-- Generated by graphviz version 14.1.2 (20260124.0452)
 -->
<!-- Title: src/utils/PID.hpp Pages: 1 -->
<svg width="2218pt" height="448pt"
 viewBox="0.00 0.00 2218.00 448.00" xmlns="http://www.w3.org/2000/svg" xmlns:xlink="http://www.w3.org/1999/xlink">
<g id="graph0" class="graph" transform="scale(1 1) rotate(0) translate(4 443.75)">
<title>src/utils/PID.hpp</title>
<!-- Node1 -->
<g id="Node000001" class="node">
<title>Node1</title>
<g id="a_Node000001"><a xlink:title=" ">
<polygon fill="#999999" stroke="#666666" points="1077.19,-439.75 987.69,-439.75 987.69,-420.5 1077.19,-420.5 1077.19,-439.75"/>
<text xml:space="preserve" text-anchor="middle" x="1032.44" y="-426.25" font-family="Helvetica,sans-Serif" font-size="10.00">src/utils/PID.hpp</text>
</a>
</g>
</g>
<!-- Node2 -->
<g id="Node000002" class="node">
<title>Node2</title>
<g id="a_Node000002"><a xlink:href="_config_8hpp.html" target="_top" xlink:title=" ">
<polygon fill="white" stroke="#666666" points="964.94,-329.25 867.94,-329.25 867.94,-310 964.94,-310 964.94,-329.25"/>
<text xml:space="preserve" text-anchor="middle" x="916.44" y="-315.75" font-family="Helvetica,sans-Serif" font-size="10.00">include/Config.hpp</text>
</a>
</g>
</g>
<!-- Node1&#45;&gt;Node2 -->
<g id="edge1_Node000001_Node000002" class="edge">
<title>Node1&#45;&gt;Node2</title>
<g id="a_edge1_Node000001_Node000002"><a xlink:title=" ">
<path fill="none" stroke="#63b8ff" d="M1030.78,-409.01C1028.7,-395.28 1024.01,-377.43 1013.44,-365.25 998.02,-347.46 974.03,-336.34 953.76,-329.65"/>
<polygon fill="#63b8ff" stroke="#63b8ff" points="1027.28,-409.14 1031.89,-418.68 1034.23,-408.35 1027.28,-409.14"/>
</a>
</g>
</g>
<!-- Node25 -->
<g id="Node000025" class="node">
<title>Node25</title>
<g id="a_Node000025"><a xlink:href="_miner_8hpp.html" target="_top" xlink:title=" ">
<polygon fill="white" stroke="#666666" points="223.82,-274 93.07,-274 93.07,-254.75 223.82,-254.75 223.82,-274"/>
<text xml:space="preserve" text-anchor="middle" x="158.44" y="-260.5" font-family="Helvetica,sans-Serif" font-size="10.00">src/subsystems/Miner.hpp</text>
</a>
</g>
</g>
<!-- Node1&#45;&gt;Node25 -->
<g id="edge62_Node000001_Node000025" class="edge">
<title>Node1&#45;&gt;Node25</title>
<g id="a_edge62_Node000001_Node000025"><a xlink:title=" ">
<path fill="none" stroke="#63b8ff" d="M976.27,-418.6C815.86,-388.55 357.63,-302.69 207.05,-274.48"/>
<polygon fill="#63b8ff" stroke="#63b8ff" points="975.33,-421.99 985.81,-420.39 976.62,-415.11 975.33,-421.99"/>
</a>
</g>
</g>
<!-- Node26 -->
<g id="Node000026" class="node">
<title>Node26</title>
<g id="a_Node000026"><a xlink:href="_shooter_8hpp.html" target="_top" xlink:title=" ">
<polygon fill="white" stroke="#666666" points="1979.69,-213.12 1839.19,-213.12 1839.19,-193.88 1979.69,-193.88 1979.69,-213.12"/>
<text xml:space="preserve" text-anchor="middle" x="1909.44" y="-199.62" font-family="Helvetica,sans-Serif" font-size="10.00">src/subsystems/Shooter.hpp</text>
</a>
</g>
</g>
<!-- Node1&#45;&gt;Node26 -->
<g id="edge63_Node000001_Node000026" class="edge">
<title>Node1&#45;&gt;Node26</title>
<g id="a_edge63_Node000001_Node000026"><a xlink:title=" ">
<path fill="none" stroke="#63b8ff" d="M1088.74,-423.59C1252.02,-406.74 1722.5,-352.43 1853.44,-274 1878.44,-259.03 1896.92,-228.57 1904.98,-213.44"/>
<polygon fill="#63b8ff" stroke="#63b8ff" points="1088.62,-420.08 1079.03,-424.58 1089.33,-427.05 1088.62,-420.08"/>
</a>
</g>
</g>
<!-- Node30 -->
<g id="Node000030" class="node">
<title>Node30</title>
<g id="a_Node000030"><a xlink:href="_dual_motor_controller_8hpp.html" target="_top" xlink:title=" ">
<polygon fill="white" stroke="#666666" points="1004.69,-384.5 828.19,-384.5 828.19,-365.25 1004.69,-365.25 1004.69,-384.5"/>
<text xml:space="preserve" text-anchor="middle" x="916.44" y="-371" font-family="Helvetica,sans-Serif" font-size="10.00">src/Devices/DualMotorController.hpp</text>
</a>
</g>
</g>
<!-- Node1&#45;&gt;Node30 -->
<g id="edge57_Node000001_Node000030" class="edge">
<title>Node1&#45;&gt;Node30</title>
<g id="a_edge57_Node000001_Node000030"><a xlink:title=" ">
<path fill="none" stroke="#63b8ff" d="M1002.52,-415.39C981.66,-405.81 954.42,-393.31 936.22,-384.95"/>
<polygon fill="#63b8ff" stroke="#63b8ff" points="1000.84,-418.47 1011.39,-419.46 1003.76,-412.11 1000.84,-418.47"/>
</a>
</g>
</g>
<!-- Node31 -->
<g id="Node000031" class="node">
<title>Node31</title>
<g id="a_Node000031"><a xlink:href="_motor_controller_8hpp.html" target="_top" xlink:title=" ">
<polygon fill="white" stroke="#666666" points="2068.57,-274 1912.32,-274 1912.32,-254.75 2068.57,-254.75 2068.57,-274"/>
<text xml:space="preserve" text-anchor="middle" x="1990.44" y="-260.5" font-family="Helvetica,sans-Serif" font-size="10.00">src/Devices/MotorController.hpp</text>
</a>
</g>
</g>
<!-- Node1&#45;&gt;Node31 -->
<g id="edge59_Node000001_Node000031" class="edge">
<title>Node1&#45;&gt;Node31</title>
<g id="a_edge59_Node000001_Node000031"><a xlink:title=" ">
<path fill="none" stroke="#63b8ff" d="M1088.84,-428.93C1269.62,-427.94 1827.07,-421.87 1898.44,-384.5 1946.13,-359.53 1976.65,-297.61 1986.74,-274.38"/>
<polygon fill="#63b8ff" stroke="#63b8ff" points="1088.98,-425.43 1079,-428.98 1089.01,-432.43 1088.98,-425.43"/>
</a>
</g>
</g>
<!-- Node3 -->
<g id="Node000003" class="node">
<title>Node3</title>
<g id="a_Node000003"><a xlink:href="_autonomous_routine_8hpp.html" target="_top" xlink:title=" ">
<polygon fill="white" stroke="#666666" points="1880.94,-152.25 1735.94,-152.25 1735.94,-121.75 1880.94,-121.75 1880.94,-152.25"/>
<text xml:space="preserve" text-anchor="start" x="1743.94" y="-138.75" font-family="Helvetica,sans-Serif" font-size="10.00">src/Autonomous/Autonomous</text>
<text xml:space="preserve" text-anchor="middle" x="1808.44" y="-127.5" font-family="Helvetica,sans-Serif" font-size="10.00">Routine.hpp</text>
</a>
</g>
</g>
<!-- Node2&#45;&gt;Node3 -->
<g id="edge2_Node000002_Node000003" class="edge">
<title>Node2&#45;&gt;Node3</title>
<g id="a_edge2_Node000002_Node000003"><a xlink:title=" ">
<path fill="none" stroke="#63b8ff" d="M976.5,-315.71C1163.84,-306.08 1728.69,-272.77 1789.44,-218.75 1808.06,-202.19 1810.19,-171.14 1809.62,-152.74"/>
<polygon fill="#63b8ff" stroke="#63b8ff" points="976.55,-312.2 966.74,-316.21 976.91,-319.19 976.55,-312.2"/>
</a>
</g>
</g>
<!-- Node4 -->
<g id="Node000004" class="node">
<title>Node4</title>
<g id="a_Node000004"><a xlink:href="_robot_8hpp.html" target="_top" xlink:title=" ">
<polygon fill="white" stroke="#666666" points="1265.19,-85.75 1187.69,-85.75 1187.69,-66.5 1265.19,-66.5 1265.19,-85.75"/>
<text xml:space="preserve" text-anchor="middle" x="1226.44" y="-72.25" font-family="Helvetica,sans-Serif" font-size="10.00">src/Robot.hpp</text>
</a>
</g>
</g>
<!-- Node2&#45;&gt;Node4 -->
<g id="edge11_Node000002_Node000004" class="edge">
<title>Node2&#45;&gt;Node4</title>
<g id="a_edge11_Node000002_Node000004"><a xlink:title=" ">
<path fill="none" stroke="#63b8ff" d="M856.1,-311.09C688.01,-289.96 225.98,-230.9 215.44,-218.75 206.56,-208.51 206.92,-198.79 215.44,-188.25 277.83,-111.17 1009.11,-83.8 1187.42,-78.25"/>
<polygon fill="#63b8ff" stroke="#63b8ff" points="855.59,-314.55 865.95,-312.33 856.47,-307.61 855.59,-314.55"/>
</a>
</g>
</g>
<!-- Node7 -->
<g id="Node000007" class="node">
<title>Node7</title>
<g id="a_Node000007"><a xlink:href="_composite_step_8hpp.html" target="_top" xlink:title=" ">
<polygon fill="white" stroke="#666666" points="130.32,-218.75 14.57,-218.75 14.57,-188.25 130.32,-188.25 130.32,-218.75"/>
<text xml:space="preserve" text-anchor="start" x="22.57" y="-205.25" font-family="Helvetica,sans-Serif" font-size="10.00">src/Autonomous/Steps</text>
<text xml:space="preserve" text-anchor="middle" x="72.44" y="-194" font-family="Helvetica,sans-Serif" font-size="10.00">/CompositeStep.hpp</text>
</a>
</g>
</g>
<!-- Node2&#45;&gt;Node7 -->
<g id="edge6_Node000002_Node000007" class="edge">
<title>Node2&#45;&gt;Node7</title>
<g id="a_edge6_Node000002_Node000007"><a xlink:title=" ">
<path fill="none" stroke="#63b8ff" d="M856.59,-317.53C718.25,-314.49 379.81,-304.14 270.44,-274 252.19,-268.97 249.98,-261.89 232.44,-254.75 198.06,-240.75 158.24,-228.23 126.92,-219.19"/>
<polygon fill="#63b8ff" stroke="#63b8ff" points="856.19,-321.02 866.26,-317.73 856.34,-314.02 856.19,-321.02"/>
</a>
</g>
</g>
<!-- Node10 -->
<g id="Node000010" class="node">
<title>Node10</title>
<g id="a_Node000010"><a xlink:href="_drive_8hpp.html" target="_top" xlink:title=" ">
<polygon fill="white" stroke="#666666" points="1195.82,-274 1065.07,-274 1065.07,-254.75 1195.82,-254.75 1195.82,-274"/>
<text xml:space="preserve" text-anchor="middle" x="1130.44" y="-260.5" font-family="Helvetica,sans-Serif" font-size="10.00">src/subsystems/Drive.hpp</text>
</a>
</g>
</g>
<!-- Node2&#45;&gt;Node10 -->
<g id="edge12_Node000002_Node000010" class="edge">
<title>Node2&#45;&gt;Node10</title>
<g id="a_edge12_Node000002_Node000010"><a xlink:title=" ">
<path fill="none" stroke="#63b8ff" d="M963.88,-306.82C1003.13,-297.05 1058.08,-283.38 1093.96,-274.45"/>
<polygon fill="#63b8ff" stroke="#63b8ff" points="963.07,-303.42 954.22,-309.23 964.76,-310.21 963.07,-303.42"/>
</a>
</g>
</g>
<!-- Node2&#45;&gt;Node25 -->
<g id="edge45_Node000002_Node000025" class="edge">
<title>Node2&#45;&gt;Node25</title>
<g id="a_edge45_Node000002_Node000025"><a xlink:title=" ">
<path fill="none" stroke="#63b8ff" d="M856.5,-315.56C738.08,-309.3 465.8,-293.96 237.44,-274 233.05,-273.62 228.51,-273.19 223.95,-272.75"/>
<polygon fill="#63b8ff" stroke="#63b8ff" points="856.13,-319.04 866.3,-316.07 856.5,-312.05 856.13,-319.04"/>
</a>
</g>
</g>
<!-- Node2&#45;&gt;Node26 -->
<g id="edge49_Node000002_Node000026" class="edge">
<title>Node2&#45;&gt;Node26</title>
<g id="a_edge49_Node000002_Node000026"><a xlink:title=" ">
<path fill="none" stroke="#63b8ff" d="M976.81,-317.8C1166.69,-314.9 1743.86,-303.73 1822.44,-274 1856.8,-261 1888.08,-229.02 1901.93,-213.39"/>
<polygon fill="#63b8ff" stroke="#63b8ff" points="976.86,-314.3 966.92,-317.95 976.97,-321.3 976.86,-314.3"/>
</a>
</g>
</g>
<!-- Node29 -->
<g id="Node000029" class="node">
<title>Node29</title>
<g id="a_Node000029"><a xlink:href="_odometry_8cpp.html" target="_top" xlink:title=" ">
<polygon fill="white" stroke="#666666" points="393.19,-274 279.69,-274 279.69,-254.75 393.19,-254.75 393.19,-274"/>
<text xml:space="preserve" text-anchor="middle" x="336.44" y="-260.5" font-family="Helvetica,sans-Serif" font-size="10.00">src/utils/Odometry.cpp</text>
</a>
</g>
</g>
<!-- Node2&#45;&gt;Node29 -->
<g id="edge56_Node000002_Node000029" class="edge">
<title>Node2&#45;&gt;Node29</title>
<g id="a_edge56_Node000002_Node000029"><a xlink:title=" ">
<path fill="none" stroke="#63b8ff" d="M856.19,-314C760.86,-306.53 569.42,-290.93 407.44,-274 402.88,-273.52 398.14,-273 393.39,-272.46"/>
<polygon fill="#63b8ff" stroke="#63b8ff" points="855.86,-317.48 866.1,-314.77 856.41,-310.5 855.86,-317.48"/>
</a>
</g>
</g>
<!-- Node3&#45;&gt;Node4 -->
<g id="edge3_Node000003_Node000004" class="edge">
<title>Node3&#45;&gt;Node4</title>
<g id="a_edge3_Node000003_Node000004"><a xlink:title=" ">
<path fill="none" stroke="#63b8ff" d="M1724.29,-121.4C1547.44,-98.48 1348.3,-84.67 1265.55,-79.47"/>
<polygon fill="#63b8ff" stroke="#63b8ff" points="1723.76,-124.86 1734.13,-122.69 1724.67,-117.92 1723.76,-124.86"/>
</a>
</g>
</g>
<!-- Node5 -->
<g id="Node000005" class="node">
<title>Node5</title>
<g id="a_Node000005"><a xlink:href="_strategy_controller_step_8hpp.html" target="_top" xlink:title=" ">
<polygon fill="white" stroke="#666666" points="1232.82,-30.5 1096.07,-30.5 1096.07,0 1232.82,0 1232.82,-30.5"/>
<text xml:space="preserve" text-anchor="start" x="1104.07" y="-17" font-family="Helvetica,sans-Serif" font-size="10.00">src/Autonomous/Steps</text>
<text xml:space="preserve" text-anchor="middle" x="1164.44" y="-5.75" font-family="Helvetica,sans-Serif" font-size="10.00">/StrategyControllerStep.hpp</text>
</a>
</g>
</g>
<!-- Node4&#45;&gt;Node5 -->
<g id="edge4_Node000004_Node000005" class="edge">
<title>Node4&#45;&gt;Node5</title>
<g id="a_edge4_Node000004_Node000005"><a xlink:title=" ">
<path fill="none" stroke="#63b8ff" d="M1208.96,-58.52C1199.76,-49.79 1188.6,-39.18 1179.75,-30.78"/>
<polygon fill="#63b8ff" stroke="#63b8ff" points="1206.27,-60.79 1215.93,-65.14 1211.09,-55.72 1206.27,-60.79"/>
</a>
</g>
</g>
<!-- Node6 -->
<g id="Node000006" class="node">
<title>Node6</title>
<g id="a_Node000006"><a xlink:href="main_8cpp.html" target="_top" xlink:title=" ">
<polygon fill="white" stroke="#666666" points="1323.57,-24.88 1251.32,-24.88 1251.32,-5.63 1323.57,-5.63 1323.57,-24.88"/>
<text xml:space="preserve" text-anchor="middle" x="1287.44" y="-11.38" font-family="Helvetica,sans-Serif" font-size="10.00">src/main.cpp</text>
</a>
</g>
</g>
<!-- Node4&#45;&gt;Node6 -->
<g id="edge5_Node000004_Node000006" class="edge">
<title>Node4&#45;&gt;Node6</title>
<g id="a_edge5_Node000004_Node000006"><a xlink:title=" ">
<path fill="none" stroke="#63b8ff" d="M1243.88,-58.3C1255.01,-47.55 1269.01,-34.04 1278.09,-25.28"/>
<polygon fill="#63b8ff" stroke="#63b8ff" points="1241.56,-55.67 1236.8,-65.13 1246.42,-60.71 1241.56,-55.67"/>
</a>
</g>
</g>
<!-- Node7&#45;&gt;Node4 -->
<g id="edge10_Node000007_Node000004" class="edge">
<title>Node7&#45;&gt;Node4</title>
<g id="a_edge10_Node000007_Node000004"><a xlink:title=" ">
<path fill="none" stroke="#63b8ff" d="M94.52,-180.02C115.21,-160.61 148.03,-133.85 182.44,-121.75 230.66,-104.8 1003.14,-83.11 1187.27,-78.16"/>
<polygon fill="#63b8ff" stroke="#63b8ff" points="92.29,-177.31 87.52,-186.77 97.15,-182.35 92.29,-177.31"/>
</a>
</g>
</g>
<!-- Node8 -->
<g id="Node000008" class="node">
<title>Node8</title>
<g id="a_Node000008"><a xlink:href="_planner_8hpp.html" target="_top" xlink:title=" ">
<polygon fill="white" stroke="#666666" points="866.07,-146.62 724.82,-146.62 724.82,-127.38 866.07,-127.38 866.07,-146.62"/>
<text xml:space="preserve" text-anchor="middle" x="795.44" y="-133.12" font-family="Helvetica,sans-Serif" font-size="10.00">src/Autonomous/Planner.hpp</text>
</a>
</g>
</g>
<!-- Node7&#45;&gt;Node8 -->
<g id="edge7_Node000007_Node000008" class="edge">
<title>Node7&#45;&gt;Node8</title>
<g id="a_edge7_Node000007_Node000008"><a xlink:title=" ">
<path fill="none" stroke="#63b8ff" d="M141.87,-188.61C142.74,-188.49 143.59,-188.37 144.44,-188.25 354.18,-159.5 604.35,-145.96 724.35,-140.73"/>
<polygon fill="#63b8ff" stroke="#63b8ff" points="141.34,-185.15 132,-190.16 142.42,-192.07 141.34,-185.15"/>
</a>
</g>
</g>
<!-- Node8&#45;&gt;Node4 -->
<g id="edge9_Node000008_Node000004" class="edge">
<title>Node8&#45;&gt;Node4</title>
<g id="a_edge9_Node000008_Node000004"><a xlink:title=" ">
<path fill="none" stroke="#63b8ff" d="M873.1,-125.39C965.6,-112.76 1116.47,-92.15 1187.34,-82.47"/>
<polygon fill="#63b8ff" stroke="#63b8ff" points="872.78,-121.9 863.34,-126.72 873.73,-128.84 872.78,-121.9"/>
</a>
</g>
</g>
<!-- Node9 -->
<g id="Node000009" class="node">
<title>Node9</title>
<g id="a_Node000009"><a xlink:href="_planner_8cpp.html" target="_top" xlink:title=" ">
<polygon fill="white" stroke="#666666" points="866.07,-85.75 724.82,-85.75 724.82,-66.5 866.07,-66.5 866.07,-85.75"/>
<text xml:space="preserve" text-anchor="middle" x="795.44" y="-72.25" font-family="Helvetica,sans-Serif" font-size="10.00">src/Autonomous/Planner.cpp</text>
</a>
</g>
</g>
<!-- Node8&#45;&gt;Node9 -->
<g id="edge8_Node000008_Node000009" class="edge">
<title>Node8&#45;&gt;Node9</title>
<g id="a_edge8_Node000008_Node000009"><a xlink:title=" ">
<path fill="none" stroke="#63b8ff" d="M795.44,-115.57C795.44,-105.54 795.44,-93.96 795.44,-86.15"/>
<polygon fill="#63b8ff" stroke="#63b8ff" points="791.94,-115.54 795.44,-125.54 798.94,-115.54 791.94,-115.54"/>
</a>
</g>
</g>
<!-- Node10&#45;&gt;Node4 -->
<g id="edge44_Node000010_Node000004" class="edge">
<title>Node10&#45;&gt;Node4</title>
<g id="a_edge44_Node000010_Node000004"><a xlink:title=" ">
<path fill="none" stroke="#63b8ff" d="M1207.54,-258.4C1301.15,-251.55 1448.7,-237.87 1465.44,-218.75 1474.37,-208.55 1474.47,-198.36 1465.44,-188.25 1371.32,-82.79 1243.57,-257.71 1149.44,-152.25 1140.42,-142.14 1142.68,-133.5 1149.44,-121.75 1159.55,-104.21 1179.48,-92.94 1196.53,-86.11"/>
<polygon fill="#63b8ff" stroke="#63b8ff" points="1207.35,-254.9 1197.63,-259.11 1207.86,-261.88 1207.35,-254.9"/>
</a>
</g>
</g>
<!-- Node10&#45;&gt;Node8 -->
<g id="edge13_Node000010_Node000008" class="edge">
<title>Node10&#45;&gt;Node8</title>
<g id="a_edge13_Node000010_Node000008"><a xlink:title=" ">
<path fill="none" stroke="#63b8ff" d="M1053.27,-263.45C897.43,-262.79 556.94,-256.94 521.44,-218.75 460,-152.64 624.41,-139.71 724.59,-137.77"/>
<polygon fill="#63b8ff" stroke="#63b8ff" points="1053.09,-266.95 1063.1,-263.48 1053.11,-259.95 1053.09,-266.95"/>
</a>
</g>
</g>
<!-- Node11 -->
<g id="Node000011" class="node">
<title>Node11</title>
<g id="a_Node000011"><a xlink:href="_accelerate_straight_line_8hpp.html" target="_top" xlink:title=" ">
<polygon fill="white" stroke="#666666" points="1294.44,-152.25 1158.44,-152.25 1158.44,-121.75 1294.44,-121.75 1294.44,-152.25"/>
<text xml:space="preserve" text-anchor="start" x="1166.44" y="-138.75" font-family="Helvetica,sans-Serif" font-size="10.00">src/Autonomous/Steps</text>
<text xml:space="preserve" text-anchor="middle" x="1226.44" y="-127.5" font-family="Helvetica,sans-Serif" font-size="10.00">/AccelerateStraightLine.hpp</text>
</a>
</g>
</g>
<!-- Node10&#45;&gt;Node11 -->
<g id="edge14_Node000010_Node000011" class="edge">
<title>Node10&#45;&gt;Node11</title>
<g id="a_edge14_Node000010_Node000011"><a xlink:title=" ">
<path fill="none" stroke="#63b8ff" d="M1207.11,-259.42C1309.28,-253.36 1479.47,-240.16 1498.44,-218.75 1596.51,-108.07 1667.71,-219.58 1303.44,-152.25 1300.64,-151.73 1297.77,-151.2 1294.88,-150.67"/>
<polygon fill="#63b8ff" stroke="#63b8ff" points="1207.21,-255.91 1197.43,-259.99 1207.62,-262.9 1207.21,-255.91"/>
</a>
</g>
</g>
<!-- Node12 -->
<g id="Node000012" class="node">
<title>Node12</title>
<g id="a_Node000012"><a xlink:href="_advance_cycle_step_8hpp.html" target="_top" xlink:title=" ">
<polygon fill="white" stroke="#666666" points="652.32,-218.75 530.57,-218.75 530.57,-188.25 652.32,-188.25 652.32,-218.75"/>
<text xml:space="preserve" text-anchor="start" x="538.57" y="-205.25" font-family="Helvetica,sans-Serif" font-size="10.00">src/Autonomous/Steps</text>
<text xml:space="preserve" text-anchor="middle" x="591.44" y="-194" font-family="Helvetica,sans-Serif" font-size="10.00">/AdvanceCycleStep.hpp</text>
</a>
</g>
</g>
<!-- Node10&#45;&gt;Node12 -->
<g id="edge16_Node000010_Node000012" class="edge">
<title>Node10&#45;&gt;Node12</title>
<g id="a_edge16_Node000010_Node000012"><a xlink:title=" ">
<path fill="none" stroke="#63b8ff" d="M1053.64,-258.58C960.5,-252.18 798.9,-239.22 661.44,-218.75 658.5,-218.31 655.49,-217.83 652.46,-217.32"/>
<polygon fill="#63b8ff" stroke="#63b8ff" points="1053.21,-262.05 1063.42,-259.24 1053.68,-255.07 1053.21,-262.05"/>
</a>
</g>
</g>
<!-- Node13 -->
<g id="Node000013" class="node">
<title>Node13</title>
<g id="a_Node000013"><a xlink:href="_detect_block_8hpp.html" target="_top" xlink:title=" ">
<polygon fill="white" stroke="#666666" points="786.32,-218.75 670.57,-218.75 670.57,-188.25 786.32,-188.25 786.32,-218.75"/>
<text xml:space="preserve" text-anchor="start" x="678.57" y="-205.25" font-family="Helvetica,sans-Serif" font-size="10.00">src/Autonomous/Steps</text>
<text xml:space="preserve" text-anchor="middle" x="728.44" y="-194" font-family="Helvetica,sans-Serif" font-size="10.00">/DetectBlock.hpp</text>
</a>
</g>
</g>
<!-- Node10&#45;&gt;Node13 -->
<g id="edge18_Node000010_Node000013" class="edge">
<title>Node10&#45;&gt;Node13</title>
<g id="a_edge18_Node000010_Node000013"><a xlink:title=" ">
<path fill="none" stroke="#63b8ff" d="M1053.7,-254.86C985.63,-246.9 883.62,-233.98 795.44,-218.75 792.51,-218.24 789.52,-217.7 786.5,-217.13"/>
<polygon fill="#63b8ff" stroke="#63b8ff" points="1052.9,-258.29 1063.24,-255.97 1053.71,-251.34 1052.9,-258.29"/>
</a>
</g>
</g>
<!-- Node14 -->
<g id="Node000014" class="node">
<title>Node14</title>
<g id="a_Node000014"><a xlink:href="_drive_arc_8hpp.html" target="_top" xlink:title=" ">
<polygon fill="white" stroke="#666666" points="920.32,-218.75 804.57,-218.75 804.57,-188.25 920.32,-188.25 920.32,-218.75"/>
<text xml:space="preserve" text-anchor="start" x="812.57" y="-205.25" font-family="Helvetica,sans-Serif" font-size="10.00">src/Autonomous/Steps</text>
<text xml:space="preserve" text-anchor="middle" x="862.44" y="-194" font-family="Helvetica,sans-Serif" font-size="10.00">/DriveArc.hpp</text>
</a>
</g>
</g>
<!-- Node10&#45;&gt;Node14 -->
<g id="edge20_Node000010_Node000014" class="edge">
<title>Node10&#45;&gt;Node14</title>
<g id="a_edge20_Node000010_Node000014"><a xlink:title=" ">
<path fill="none" stroke="#63b8ff" d="M1078.11,-251.88C1032.88,-241.94 967.58,-227.6 920.7,-217.3"/>
<polygon fill="#63b8ff" stroke="#63b8ff" points="1077.16,-255.25 1087.68,-253.98 1078.66,-248.42 1077.16,-255.25"/>
</a>
</g>
</g>
<!-- Node15 -->
<g id="Node000015" class="node">
<title>Node15</title>
<g id="a_Node000015"><a xlink:href="_drive_distance_8hpp.html" target="_top" xlink:title=" ">
<polygon fill="white" stroke="#666666" points="1322.32,-218.75 1206.57,-218.75 1206.57,-188.25 1322.32,-188.25 1322.32,-218.75"/>
<text xml:space="preserve" text-anchor="start" x="1214.57" y="-205.25" font-family="Helvetica,sans-Serif" font-size="10.00">src/Autonomous/Steps</text>
<text xml:space="preserve" text-anchor="middle" x="1264.44" y="-194" font-family="Helvetica,sans-Serif" font-size="10.00">/DriveDistance.hpp</text>
</a>
</g>
</g>
<!-- Node10&#45;&gt;Node15 -->
<g id="edge22_Node000010_Node000015" class="edge">
<title>Node10&#45;&gt;Node15</title>
<g id="a_edge22_Node000010_Node000015"><a xlink:title=" ">
<path fill="none" stroke="#63b8ff" d="M1161.6,-249.69C1182.4,-240.55 1209.74,-228.54 1231,-219.19"/>
<polygon fill="#63b8ff" stroke="#63b8ff" points="1160.22,-246.47 1152.47,-253.7 1163.04,-252.88 1160.22,-246.47"/>
</a>
</g>
</g>
<!-- Node16 -->
<g id="Node000016" class="node">
<title>Node16</title>
<g id="a_Node000016"><a xlink:href="_drive_line_until_wall_8hpp.html" target="_top" xlink:title=" ">
<polygon fill="white" stroke="#666666" points="1430.44,-152.25 1312.44,-152.25 1312.44,-121.75 1430.44,-121.75 1430.44,-152.25"/>
<text xml:space="preserve" text-anchor="start" x="1320.44" y="-138.75" font-family="Helvetica,sans-Serif" font-size="10.00">src/Autonomous/Steps</text>
<text xml:space="preserve" text-anchor="middle" x="1371.44" y="-127.5" font-family="Helvetica,sans-Serif" font-size="10.00">/DriveLineUntilWall.hpp</text>
</a>
</g>
</g>
<!-- Node10&#45;&gt;Node16 -->
<g id="edge25_Node000010_Node000016" class="edge">
<title>Node10&#45;&gt;Node16</title>
<g id="a_edge25_Node000010_Node000016"><a xlink:title=" ">
<path fill="none" stroke="#63b8ff" d="M1207.4,-260.13C1316.58,-254.71 1505.6,-242.07 1526.44,-218.75 1535.48,-208.64 1534.42,-199.21 1526.44,-188.25 1520.27,-179.76 1469.1,-164.21 1427.22,-152.65"/>
<polygon fill="#63b8ff" stroke="#63b8ff" points="1207.45,-256.62 1197.63,-260.6 1207.79,-263.61 1207.45,-256.62"/>
</a>
</g>
</g>
<!-- Node17 -->
<g id="Node000017" class="node">
<title>Node17</title>
<g id="a_Node000017"><a xlink:href="_drive_radius_angle_8hpp.html" target="_top" xlink:title=" ">
<polygon fill="white" stroke="#666666" points="1564.69,-152.25 1448.19,-152.25 1448.19,-121.75 1564.69,-121.75 1564.69,-152.25"/>
<text xml:space="preserve" text-anchor="start" x="1456.19" y="-138.75" font-family="Helvetica,sans-Serif" font-size="10.00">src/Autonomous/Steps</text>
<text xml:space="preserve" text-anchor="middle" x="1506.44" y="-127.5" font-family="Helvetica,sans-Serif" font-size="10.00">/DriveRadiusAngle.hpp</text>
</a>
</g>
</g>
<!-- Node10&#45;&gt;Node17 -->
<g id="edge27_Node000010_Node000017" class="edge">
<title>Node10&#45;&gt;Node17</title>
<g id="a_edge27_Node000010_Node000017"><a xlink:title=" ">
<path fill="none" stroke="#63b8ff" d="M1207.62,-260.51C1320.97,-255.49 1521.47,-243.23 1543.44,-218.75 1560.96,-199.24 1538.89,-170.03 1522.1,-152.61"/>
<polygon fill="#63b8ff" stroke="#63b8ff" points="1207.62,-257 1197.78,-260.93 1207.92,-264 1207.62,-257"/>
</a>
</g>
</g>
<!-- Node18 -->
<g id="Node000018" class="node">
<title>Node18</title>
<g id="a_Node000018"><a xlink:href="_drive_radius_at_velocity_8hpp.html" target="_top" xlink:title=" ">
<polygon fill="white" stroke="#666666" points="1718.07,-152.25 1582.82,-152.25 1582.82,-121.75 1718.07,-121.75 1718.07,-152.25"/>
<text xml:space="preserve" text-anchor="start" x="1590.82" y="-138.75" font-family="Helvetica,sans-Serif" font-size="10.00">src/Autonomous/Steps</text>
<text xml:space="preserve" text-anchor="middle" x="1650.44" y="-127.5" font-family="Helvetica,sans-Serif" font-size="10.00">/DriveRadiusAtVelocity.hpp</text>
</a>
</g>
</g>
<!-- Node10&#45;&gt;Node18 -->
<g id="edge29_Node000010_Node000018" class="edge">
<title>Node10&#45;&gt;Node18</title>
<g id="a_edge29_Node000010_Node000018"><a xlink:title=" ">
<path fill="none" stroke="#63b8ff" d="M1207.55,-261.06C1313.82,-256.91 1499.13,-245.94 1560.44,-218.75 1594.03,-203.86 1623.75,-171.59 1639.2,-152.66"/>
<polygon fill="#63b8ff" stroke="#63b8ff" points="1207.63,-257.56 1197.77,-261.43 1207.9,-264.55 1207.63,-257.56"/>
</a>
</g>
</g>
<!-- Node19 -->
<g id="Node000019" class="node">
<title>Node19</title>
<g id="a_Node000019"><a xlink:href="_drive_until_wall_8hpp.html" target="_top" xlink:title=" ">
<polygon fill="white" stroke="#666666" points="1780.32,-218.75 1664.57,-218.75 1664.57,-188.25 1780.32,-188.25 1780.32,-218.75"/>
<text xml:space="preserve" text-anchor="start" x="1672.57" y="-205.25" font-family="Helvetica,sans-Serif" font-size="10.00">src/Autonomous/Steps</text>
<text xml:space="preserve" text-anchor="middle" x="1722.44" y="-194" font-family="Helvetica,sans-Serif" font-size="10.00">/DriveUntilWall.hpp</text>
</a>
</g>
</g>
<!-- Node10&#45;&gt;Node19 -->
<g id="edge31_Node000010_Node000019" class="edge">
<title>Node10&#45;&gt;Node19</title>
<g id="a_edge31_Node000010_Node000019"><a xlink:title=" ">
<path fill="none" stroke="#63b8ff" d="M1207.35,-259.42C1309.1,-253.59 1493.87,-240.89 1650.44,-218.75 1654.99,-218.11 1659.68,-217.36 1664.38,-216.56"/>
<polygon fill="#63b8ff" stroke="#63b8ff" points="1207.26,-255.92 1197.48,-259.98 1207.66,-262.91 1207.26,-255.92"/>
</a>
</g>
</g>
<!-- Node20 -->
<g id="Node000020" class="node">
<title>Node20</title>
<g id="a_Node000020"><a xlink:href="_follow_line_step_8hpp.html" target="_top" xlink:title=" ">
<polygon fill="white" stroke="#666666" points="1456.32,-218.75 1340.57,-218.75 1340.57,-188.25 1456.32,-188.25 1456.32,-218.75"/>
<text xml:space="preserve" text-anchor="start" x="1348.57" y="-205.25" font-family="Helvetica,sans-Serif" font-size="10.00">src/Autonomous/Steps</text>
<text xml:space="preserve" text-anchor="middle" x="1398.44" y="-194" font-family="Helvetica,sans-Serif" font-size="10.00">/FollowLineStep.hpp</text>
</a>
</g>
</g>
<!-- Node10&#45;&gt;Node20 -->
<g id="edge32_Node000010_Node000020" class="edge">
<title>Node10&#45;&gt;Node20</title>
<g id="a_edge32_Node000010_Node000020"><a xlink:title=" ">
<path fill="none" stroke="#63b8ff" d="M1182.78,-251.88C1228.01,-241.94 1293.31,-227.6 1340.19,-217.3"/>
<polygon fill="#63b8ff" stroke="#63b8ff" points="1182.23,-248.42 1173.21,-253.98 1183.73,-255.25 1182.23,-248.42"/>
</a>
</g>
</g>
<!-- Node21 -->
<g id="Node000021" class="node">
<title>Node21</title>
<g id="a_Node000021"><a xlink:href="_index_block_8hpp.html" target="_top" xlink:title=" ">
<polygon fill="white" stroke="#666666" points="1054.32,-218.75 938.57,-218.75 938.57,-188.25 1054.32,-188.25 1054.32,-218.75"/>
<text xml:space="preserve" text-anchor="start" x="946.57" y="-205.25" font-family="Helvetica,sans-Serif" font-size="10.00">src/Autonomous/Steps</text>
<text xml:space="preserve" text-anchor="middle" x="996.44" y="-194" font-family="Helvetica,sans-Serif" font-size="10.00">/IndexBlock.hpp</text>
</a>
</g>
</g>
<!-- Node10&#45;&gt;Node21 -->
<g id="edge35_Node000010_Node000021" class="edge">
<title>Node10&#45;&gt;Node21</title>
<g id="a_edge35_Node000010_Node000021"><a xlink:title=" ">
<path fill="none" stroke="#63b8ff" d="M1099.29,-249.69C1078.49,-240.55 1051.15,-228.54 1029.89,-219.19"/>
<polygon fill="#63b8ff" stroke="#63b8ff" points="1097.85,-252.88 1108.42,-253.7 1100.67,-246.47 1097.85,-252.88"/>
</a>
</g>
</g>
<!-- Node22 -->
<g id="Node000022" class="node">
<title>Node22</title>
<g id="a_Node000022"><a xlink:href="_mine_block_8hpp.html" target="_top" xlink:title=" ">
<polygon fill="white" stroke="#666666" points="340.32,-218.75 224.57,-218.75 224.57,-188.25 340.32,-188.25 340.32,-218.75"/>
<text xml:space="preserve" text-anchor="start" x="232.57" y="-205.25" font-family="Helvetica,sans-Serif" font-size="10.00">src/Autonomous/Steps</text>
<text xml:space="preserve" text-anchor="middle" x="282.44" y="-194" font-family="Helvetica,sans-Serif" font-size="10.00">/MineBlock.hpp</text>
</a>
</g>
</g>
<!-- Node10&#45;&gt;Node22 -->
<g id="edge37_Node000010_Node000022" class="edge">
<title>Node10&#45;&gt;Node22</title>
<g id="a_edge37_Node000010_Node000022"><a xlink:title=" ">
<path fill="none" stroke="#63b8ff" d="M1053.36,-262.86C912.81,-261.05 605.73,-253.12 349.44,-218.75 346.62,-218.37 343.73,-217.94 340.82,-217.46"/>
<polygon fill="#63b8ff" stroke="#63b8ff" points="1053.26,-266.36 1063.3,-262.98 1053.34,-259.36 1053.26,-266.36"/>
</a>
</g>
</g>
<!-- Node23 -->
<g id="Node000023" class="node">
<title>Node23</title>
<g id="a_Node000023"><a xlink:href="_place_on_table_8hpp.html" target="_top" xlink:title=" ">
<polygon fill="white" stroke="#666666" points="1188.32,-218.75 1072.57,-218.75 1072.57,-188.25 1188.32,-188.25 1188.32,-218.75"/>
<text xml:space="preserve" text-anchor="start" x="1080.57" y="-205.25" font-family="Helvetica,sans-Serif" font-size="10.00">src/Autonomous/Steps</text>
<text xml:space="preserve" text-anchor="middle" x="1130.44" y="-194" font-family="Helvetica,sans-Serif" font-size="10.00">/PlaceOnTable.hpp</text>
</a>
</g>
</g>
<!-- Node10&#45;&gt;Node23 -->
<g id="edge40_Node000010_Node000023" class="edge">
<title>Node10&#45;&gt;Node23</title>
<g id="a_edge40_Node000010_Node000023"><a xlink:title=" ">
<path fill="none" stroke="#63b8ff" d="M1130.44,-243.17C1130.44,-235.24 1130.44,-226.31 1130.44,-219.03"/>
<polygon fill="#63b8ff" stroke="#63b8ff" points="1126.94,-242.92 1130.44,-252.92 1133.94,-242.92 1126.94,-242.92"/>
</a>
</g>
</g>
<!-- Node24 -->
<g id="Node000024" class="node">
<title>Node24</title>
<g id="a_Node000024"><a xlink:href="_reject_sequence_8hpp.html" target="_top" xlink:title=" ">
<polygon fill="white" stroke="#666666" points="474.32,-218.75 358.57,-218.75 358.57,-188.25 474.32,-188.25 474.32,-218.75"/>
<text xml:space="preserve" text-anchor="start" x="366.57" y="-205.25" font-family="Helvetica,sans-Serif" font-size="10.00">src/Autonomous/Steps</text>
<text xml:space="preserve" text-anchor="middle" x="416.44" y="-194" font-family="Helvetica,sans-Serif" font-size="10.00">/RejectSequence.hpp</text>
</a>
</g>
</g>
<!-- Node10&#45;&gt;Node24 -->
<g id="edge42_Node000010_Node000024" class="edge">
<title>Node10&#45;&gt;Node24</title>
<g id="a_edge42_Node000010_Node000024"><a xlink:title=" ">
<path fill="none" stroke="#63b8ff" d="M1053.71,-261.17C932.98,-256.99 691.49,-245.79 488.44,-218.75 483.9,-218.14 479.21,-217.43 474.5,-216.64"/>
<polygon fill="#63b8ff" stroke="#63b8ff" points="1053.39,-264.66 1063.5,-261.5 1053.62,-257.66 1053.39,-264.66"/>
</a>
</g>
</g>
<!-- Node11&#45;&gt;Node4 -->
<g id="edge15_Node000011_Node000004" class="edge">
<title>Node11&#45;&gt;Node4</title>
<g id="a_edge15_Node000011_Node000004"><a xlink:title=" ">
<path fill="none" stroke="#63b8ff" d="M1226.44,-109.98C1226.44,-101.48 1226.44,-92.59 1226.44,-86.2"/>
<polygon fill="#63b8ff" stroke="#63b8ff" points="1222.94,-109.93 1226.44,-119.93 1229.94,-109.93 1222.94,-109.93"/>
</a>
</g>
</g>
<!-- Node12&#45;&gt;Node8 -->
<g id="edge17_Node000012_Node000008" class="edge">
<title>Node12&#45;&gt;Node8</title>
<g id="a_edge17_Node000012_Node000008"><a xlink:title=" ">
<path fill="none" stroke="#63b8ff" d="M648.54,-184.45C687.02,-172.28 736.17,-156.74 766.72,-147.08"/>
<polygon fill="#63b8ff" stroke="#63b8ff" points="647.91,-180.98 639.43,-187.33 650.02,-187.65 647.91,-180.98"/>
</a>
</g>
</g>
<!-- Node13&#45;&gt;Node8 -->
<g id="edge19_Node000013_Node000008" class="edge">
<title>Node13&#45;&gt;Node8</title>
<g id="a_edge19_Node000013_Node000008"><a xlink:title=" ">
<path fill="none" stroke="#63b8ff" d="M751.86,-179.96C763.73,-168.53 777.45,-155.32 786.28,-146.82"/>
<polygon fill="#63b8ff" stroke="#63b8ff" points="749.52,-177.36 744.74,-186.81 754.37,-182.4 749.52,-177.36"/>
</a>
</g>
</g>
<!-- Node14&#45;&gt;Node8 -->
<g id="edge21_Node000014_Node000008" class="edge">
<title>Node14&#45;&gt;Node8</title>
<g id="a_edge21_Node000014_Node000008"><a xlink:title=" ">
<path fill="none" stroke="#63b8ff" d="M839.03,-179.96C827.16,-168.53 813.44,-155.32 804.61,-146.82"/>
<polygon fill="#63b8ff" stroke="#63b8ff" points="836.52,-182.4 846.15,-186.81 841.37,-177.36 836.52,-182.4"/>
</a>
</g>
</g>
<!-- Node15&#45;&gt;Node4 -->
<g id="edge24_Node000015_Node000004" class="edge">
<title>Node15&#45;&gt;Node4</title>
<g id="a_edge24_Node000015_Node000004"><a xlink:title=" ">
<path fill="none" stroke="#63b8ff" d="M1195.21,-185.87C1143.89,-173.22 1082.21,-157.17 1078.44,-152.25 1046.74,-110.84 1133.85,-90.43 1187.61,-82.03"/>
<polygon fill="#63b8ff" stroke="#63b8ff" points="1194.29,-189.25 1204.84,-188.24 1195.96,-182.45 1194.29,-189.25"/>
</a>
</g>
</g>
<!-- Node15&#45;&gt;Node8 -->
<g id="edge23_Node000015_Node000008" class="edge">
<title>Node15&#45;&gt;Node8</title>
<g id="a_edge23_Node000015_Node000008"><a xlink:title=" ">
<path fill="none" stroke="#63b8ff" d="M1195.08,-187.94C1074.01,-167.89 944.62,-153.18 866.51,-145.03"/>
<polygon fill="#63b8ff" stroke="#63b8ff" points="1194.46,-191.39 1204.91,-189.59 1195.62,-184.49 1194.46,-191.39"/>
</a>
</g>
</g>
<!-- Node16&#45;&gt;Node4 -->
<g id="edge26_Node000016_Node000004" class="edge">
<title>Node16&#45;&gt;Node4</title>
<g id="a_edge26_Node000016_Node000004"><a xlink:title=" ">
<path fill="none" stroke="#63b8ff" d="M1324.65,-117C1299.17,-106.66 1268.83,-94.33 1248.68,-86.15"/>
<polygon fill="#63b8ff" stroke="#63b8ff" points="1323.24,-120.21 1333.83,-120.73 1325.88,-113.72 1323.24,-120.21"/>
</a>
</g>
</g>
<!-- Node17&#45;&gt;Node4 -->
<g id="edge28_Node000017_Node000004" class="edge">
<title>Node17&#45;&gt;Node4</title>
<g id="a_edge28_Node000017_Node000004"><a xlink:title=" ">
<path fill="none" stroke="#63b8ff" d="M1437,-121.24C1371.26,-107.37 1305.77,-93.68 1265.32,-85.23"/>
<polygon fill="#63b8ff" stroke="#63b8ff" points="1435.99,-124.6 1446.5,-123.24 1437.44,-117.75 1435.99,-124.6"/>
</a>
</g>
</g>
<!-- Node18&#45;&gt;Node4 -->
<g id="edge30_Node000018_Node000004" class="edge">
<title>Node18&#45;&gt;Node4</title>
<g id="a_edge30_Node000018_Node000004"><a xlink:title=" ">
<path fill="none" stroke="#63b8ff" d="M1571.15,-121.45C1453.94,-103.34 1327.93,-88.48 1265.57,-81.45"/>
<polygon fill="#63b8ff" stroke="#63b8ff" points="1570.54,-124.89 1580.96,-122.98 1571.62,-117.98 1570.54,-124.89"/>
</a>
</g>
</g>
<!-- Node20&#45;&gt;Node4 -->
<g id="edge34_Node000020_Node000004" class="edge">
<title>Node20&#45;&gt;Node4</title>
<g id="a_edge34_Node000020_Node000004"><a xlink:title=" ">
<path fill="none" stroke="#63b8ff" d="M1329.27,-188.24C1267.75,-180.25 1145.85,-186.99 1116.44,-152.25 1107.69,-141.9 1108.87,-132.99 1116.44,-121.75 1132.22,-98.33 1162.61,-87.2 1187.46,-81.91"/>
<polygon fill="#63b8ff" stroke="#63b8ff" points="1328.45,-191.66 1338.88,-189.75 1329.54,-184.74 1328.45,-191.66"/>
</a>
</g>
</g>
<!-- Node20&#45;&gt;Node8 -->
<g id="edge33_Node000020_Node000008" class="edge">
<title>Node20&#45;&gt;Node8</title>
<g id="a_edge33_Node000020_Node000008"><a xlink:title=" ">
<path fill="none" stroke="#63b8ff" d="M1329.13,-188.02C1157.43,-162.34 967.14,-148.31 866.43,-142.02"/>
<polygon fill="#63b8ff" stroke="#63b8ff" points="1328.51,-191.46 1338.92,-189.5 1329.56,-184.54 1328.51,-191.46"/>
</a>
</g>
</g>
<!-- Node21&#45;&gt;Node8 -->
<g id="edge36_Node000021_Node000008" class="edge">
<title>Node21&#45;&gt;Node8</title>
<g id="a_edge36_Node000021_Node000008"><a xlink:title=" ">
<path fill="none" stroke="#63b8ff" d="M939.7,-184.29C901.86,-172.15 853.72,-156.7 823.74,-147.08"/>
<polygon fill="#63b8ff" stroke="#63b8ff" points="938.55,-187.6 949.14,-187.32 940.69,-180.93 938.55,-187.6"/>
</a>
</g>
</g>
<!-- Node22&#45;&gt;Node4 -->
<g id="edge39_Node000022_Node000004" class="edge">
<title>Node22&#45;&gt;Node4</title>
<g id="a_edge39_Node000022_Node000004"><a xlink:title=" ">
<path fill="none" stroke="#63b8ff" d="M351.38,-187.89C513.43,-155.73 555.1,-143.27 715.44,-121.75 890.64,-98.24 1101.38,-84.36 1187.2,-79.31"/>
<polygon fill="#63b8ff" stroke="#63b8ff" points="351.14,-184.37 342.01,-189.74 352.5,-191.23 351.14,-184.37"/>
</a>
</g>
</g>
<!-- Node22&#45;&gt;Node8 -->
<g id="edge38_Node000022_Node000008" class="edge">
<title>Node22&#45;&gt;Node8</title>
<g id="a_edge38_Node000022_Node000008"><a xlink:title=" ">
<path fill="none" stroke="#63b8ff" d="M351.64,-188C489.29,-166.08 638.56,-151.41 724.47,-143.85"/>
<polygon fill="#63b8ff" stroke="#63b8ff" points="351.29,-184.51 341.98,-189.55 352.41,-191.42 351.29,-184.51"/>
</a>
</g>
</g>
<!-- Node23&#45;&gt;Node8 -->
<g id="edge41_Node000023_Node000008" class="edge">
<title>Node23&#45;&gt;Node8</title>
<g id="a_edge41_Node000023_Node000008"><a xlink:title=" ">
<path fill="none" stroke="#63b8ff" d="M1061.44,-187.88C980.29,-171.73 897.5,-156.46 845.9,-147.08"/>
<polygon fill="#63b8ff" stroke="#63b8ff" points="1060.38,-191.23 1070.87,-189.76 1061.75,-184.37 1060.38,-191.23"/>
</a>
</g>
</g>
<!-- Node24&#45;&gt;Node8 -->
<g id="edge43_Node000024_Node000008" class="edge">
<title>Node24&#45;&gt;Node8</title>
<g id="a_edge43_Node000024_Node000008"><a xlink:title=" ">
<path fill="none" stroke="#63b8ff" d="M485.89,-188.71C486.75,-188.56 487.6,-188.4 488.44,-188.25 574.41,-172.71 674.3,-156.75 736.2,-147.1"/>
<polygon fill="#63b8ff" stroke="#63b8ff" points="485.25,-185.27 476.06,-190.55 486.53,-192.15 485.25,-185.27"/>
</a>
</g>
</g>
<!-- Node25&#45;&gt;Node4 -->
<g id="edge48_Node000025_Node000004" class="edge">
<title>Node25&#45;&gt;Node4</title>
<g id="a_edge48_Node000025_Node000004"><a xlink:title=" ">
<path fill="none" stroke="#63b8ff" d="M81.42,-253.41C33.27,-243.5 -15.9,-224.34 5.44,-188.25 36.68,-135.43 67.33,-138.21 126.44,-121.75 178.52,-107.25 997.74,-83.52 1187.44,-78.21"/>
<polygon fill="#63b8ff" stroke="#63b8ff" points="80.66,-256.82 91.14,-255.27 81.98,-249.95 80.66,-256.82"/>
</a>
</g>
</g>
<!-- Node25&#45;&gt;Node8 -->
<g id="edge46_Node000025_Node000008" class="edge">
<title>Node25&#45;&gt;Node8</title>
<g id="a_edge46_Node000025_Node000008"><a xlink:title=" ">
<path fill="none" stroke="#63b8ff" d="M167.11,-244.35C176.34,-226.51 192.76,-200.76 215.44,-188.25 301.18,-140.96 589.36,-136.47 724.45,-137.08"/>
<polygon fill="#63b8ff" stroke="#63b8ff" points="164.07,-242.6 162.85,-253.12 170.37,-245.65 164.07,-242.6"/>
</a>
</g>
</g>
<!-- Node25&#45;&gt;Node22 -->
<g id="edge47_Node000025_Node000022" class="edge">
<title>Node25&#45;&gt;Node22</title>
<g id="a_edge47_Node000025_Node000022"><a xlink:title=" ">
<path fill="none" stroke="#63b8ff" d="M187.81,-249.43C206.99,-240.33 232,-228.45 251.5,-219.19"/>
<polygon fill="#63b8ff" stroke="#63b8ff" points="186.45,-246.2 178.92,-253.66 189.45,-252.53 186.45,-246.2"/>
</a>
</g>
</g>
<!-- Node26&#45;&gt;Node4 -->
<g id="edge55_Node000026_Node000004" class="edge">
<title>Node26&#45;&gt;Node4</title>
<g id="a_edge55_Node000026_Node000004"><a xlink:title=" ">
<path fill="none" stroke="#63b8ff" d="M1910.85,-182.11C1910.92,-163.37 1907.67,-136.36 1890.44,-121.75 1842.75,-81.3 1400.83,-77.35 1265.58,-77.1"/>
<polygon fill="#63b8ff" stroke="#63b8ff" points="1907.36,-181.86 1910.47,-191.99 1914.36,-182.13 1907.36,-181.86"/>
</a>
</g>
</g>
<!-- Node26&#45;&gt;Node8 -->
<g id="edge50_Node000026_Node000008" class="edge">
<title>Node26&#45;&gt;Node8</title>
<g id="a_edge50_Node000026_Node000008"><a xlink:title=" ">
<path fill="none" stroke="#63b8ff" d="M1828.15,-192.09C1815.22,-190.65 1801.98,-189.31 1789.44,-188.25 1609.84,-173.06 1062.83,-149.26 866.52,-140.97"/>
<polygon fill="#63b8ff" stroke="#63b8ff" points="1827.57,-195.55 1837.91,-193.2 1828.37,-188.59 1827.57,-195.55"/>
</a>
</g>
</g>
<!-- Node27 -->
<g id="Node000027" class="node">
<title>Node27</title>
<g id="a_Node000027"><a xlink:href="_delay_step_8hpp.html" target="_top" xlink:title=" ">
<polygon fill="white" stroke="#666666" points="2053.32,-152.25 1937.57,-152.25 1937.57,-121.75 2053.32,-121.75 2053.32,-152.25"/>
<text xml:space="preserve" text-anchor="start" x="1945.57" y="-138.75" font-family="Helvetica,sans-Serif" font-size="10.00">src/Autonomous/Steps</text>
<text xml:space="preserve" text-anchor="middle" x="1995.44" y="-127.5" font-family="Helvetica,sans-Serif" font-size="10.00">/DelayStep.hpp</text>
</a>
</g>
</g>
<!-- Node26&#45;&gt;Node27 -->
<g id="edge51_Node000026_Node000027" class="edge">
<title>Node26&#45;&gt;Node27</title>
<g id="a_edge51_Node000026_Node000027"><a xlink:title=" ">
<path fill="none" stroke="#63b8ff" d="M1930.25,-186.9C1944.17,-176.46 1962.36,-162.81 1975.99,-152.59"/>
<polygon fill="#63b8ff" stroke="#63b8ff" points="1928.51,-183.82 1922.61,-192.62 1932.71,-189.42 1928.51,-183.82"/>
</a>
</g>
</g>
<!-- Node28 -->
<g id="Node000028" class="node">
<title>Node28</title>
<g id="a_Node000028"><a xlink:href="_fire_step_8hpp.html" target="_top" xlink:title=" ">
<polygon fill="white" stroke="#666666" points="2187.32,-152.25 2071.57,-152.25 2071.57,-121.75 2187.32,-121.75 2187.32,-152.25"/>
<text xml:space="preserve" text-anchor="start" x="2079.57" y="-138.75" font-family="Helvetica,sans-Serif" font-size="10.00">src/Autonomous/Steps</text>
<text xml:space="preserve" text-anchor="middle" x="2129.44" y="-127.5" font-family="Helvetica,sans-Serif" font-size="10.00">/FireStep.hpp</text>
</a>
</g>
</g>
<!-- Node26&#45;&gt;Node28 -->
<g id="edge53_Node000026_Node000028" class="edge">
<title>Node26&#45;&gt;Node28</title>
<g id="a_edge53_Node000026_Node000028"><a xlink:title=" ">
<path fill="none" stroke="#63b8ff" d="M1951.26,-190.24C1987.75,-179.54 2040.76,-164 2079.48,-152.65"/>
<polygon fill="#63b8ff" stroke="#63b8ff" points="1950.56,-186.8 1941.95,-192.97 1952.53,-193.51 1950.56,-186.8"/>
</a>
</g>
</g>
<!-- Node27&#45;&gt;Node4 -->
<g id="edge52_Node000027_Node000004" class="edge">
<title>Node27&#45;&gt;Node4</title>
<g id="a_edge52_Node000027_Node000004"><a xlink:title=" ">
<path fill="none" stroke="#63b8ff" d="M1926.02,-122.1C1925.16,-121.98 1924.3,-121.86 1923.44,-121.75 1674.25,-89.26 1371.72,-80.13 1265.54,-77.83"/>
<polygon fill="#63b8ff" stroke="#63b8ff" points="1925.48,-125.55 1935.9,-123.6 1926.54,-118.63 1925.48,-125.55"/>
</a>
</g>
</g>
<!-- Node28&#45;&gt;Node4 -->
<g id="edge54_Node000028_Node000004" class="edge">
<title>Node28&#45;&gt;Node4</title>
<g id="a_edge54_Node000028_Node000004"><a xlink:title=" ">
<path fill="none" stroke="#63b8ff" d="M2060.02,-121.58C1748.64,-81.31 1383.59,-77.27 1265.39,-77.05"/>
<polygon fill="#63b8ff" stroke="#63b8ff" points="2059.2,-125 2069.57,-122.83 2060.11,-118.06 2059.2,-125"/>
</a>
</g>
</g>
<!-- Node30&#45;&gt;Node2 -->
<g id="edge58_Node000030_Node000002" class="edge">
<title>Node30&#45;&gt;Node2</title>
<g id="a_edge58_Node000030_Node000002"><a xlink:title=" ">
<path fill="none" stroke="#63b8ff" d="M916.44,-353.63C916.44,-345.34 916.44,-336.17 916.44,-329.61"/>
<polygon fill="#63b8ff" stroke="#63b8ff" points="912.94,-353.57 916.44,-363.57 919.94,-353.57 912.94,-353.57"/>
</a>
</g>
</g>
<!-- Node31&#45;&gt;Node4 -->
<g id="edge60_Node000031_Node000004" class="edge">
<title>Node31&#45;&gt;Node4</title>
<g id="a_edge60_Node000031_Node000004"><a xlink:title=" ">
<path fill="none" stroke="#63b8ff" d="M2037.96,-251.28C2114.93,-229.6 2252.87,-180.83 2196.44,-121.75 2163.77,-87.54 1442.43,-79.01 1265.41,-77.43"/>
<polygon fill="#63b8ff" stroke="#63b8ff" points="2037.24,-247.85 2028.53,-253.88 2039.1,-254.59 2037.24,-247.85"/>
</a>
</g>
</g>
<!-- Node31&#45;&gt;Node26 -->
<g id="edge61_Node000031_Node000026" class="edge">
<title>Node31&#45;&gt;Node26</title>
<g id="a_edge61_Node000031_Node000026"><a xlink:title=" ">
<path fill="none" stroke="#63b8ff" d="M1969.04,-247.81C1953.99,-236.88 1934.39,-222.64 1921.86,-213.53"/>
<polygon fill="#63b8ff" stroke="#63b8ff" points="1966.77,-250.49 1976.92,-253.54 1970.89,-244.83 1966.77,-250.49"/>
</a>
</g>
</g>
</g>
</svg>
