<?xml version="1.0" encoding="UTF-8" standalone="no"?>
<!DOCTYPE svg PUBLIC "-//W3C//DTD SVG 1.1//EN"
 "http://www.w3.org/Graphics/SVG/1.1/DTD/svg11.dtd">
<!-- Generated by graphviz version 14.1.2 (20260124.0452)
 -->
<!-- Title: src/subsystems/Subsystem.h Pages: 1 -->
<svg width="1811pt" height="337pt"
 viewBox="0.00 0.00 1811.00 337.00" xmlns="http://www.w3.org/2000/svg" xmlns:xlink="http://www.w3.org/1999/xlink">
<g id="graph0" class="graph" transform="scale(1 1) rotate(0) translate(4 333.25)">
<title>src/subsystems/Subsystem.h</title>
<!-- Node1 -->
<g id="Node000001" class="node">
<title>Node1</title>
<g id="a_Node000001"><a xlink:title=" ">
<polygon fill="#999999" stroke="#666666" points="1724.12,-329.25 1577.62,-329.25 1577.62,-310 1724.12,-310 1724.12,-329.25"/>
<text xml:space="preserve" text-anchor="middle" x="1650.88" y="-315.75" font-family="Helvetica,sans-Serif" font-size="10.00">src/subsystems/Subsystem.h</text>
</a>
</g>
</g>
<!-- Node2 -->
<g id="Node000002" class="node">
<title>Node2</title>
<g id="a_Node000002"><a xlink:href="_robot_8hpp.html" target="_top" xlink:title=" ">
<polygon fill="white" stroke="#666666" points="868.62,-85.75 791.12,-85.75 791.12,-66.5 868.62,-66.5 868.62,-85.75"/>
<text xml:space="preserve" text-anchor="middle" x="829.88" y="-72.25" font-family="Helvetica,sans-Serif" font-size="10.00">src/Robot.hpp</text>
</a>
</g>
</g>
<!-- Node1&#45;&gt;Node2 -->
<g id="edge1_Node000001_Node000002" class="edge">
<title>Node1&#45;&gt;Node2</title>
<g id="a_edge1_Node000001_Node000002"><a xlink:title=" ">
<path fill="none" stroke="#63b8ff" d="M1688.22,-305.36C1723.93,-290.43 1775.67,-262.41 1798.88,-218.75 1813.22,-191.76 1778.59,-122.3 1777.88,-121.75 1738.16,-91.4 928.57,-91.09 878.88,-85.75 875.7,-85.41 872.41,-84.99 869.12,-84.51"/>
<polygon fill="#63b8ff" stroke="#63b8ff" points="1687.08,-302.04 1679.1,-309.01 1689.69,-308.54 1687.08,-302.04"/>
</a>
</g>
</g>
<!-- Node5 -->
<g id="Node000005" class="node">
<title>Node5</title>
<g id="a_Node000005"><a xlink:href="_drive_8hpp.html" target="_top" xlink:title=" ">
<polygon fill="white" stroke="#666666" points="715.25,-274 584.5,-274 584.5,-254.75 715.25,-254.75 715.25,-274"/>
<text xml:space="preserve" text-anchor="middle" x="649.88" y="-260.5" font-family="Helvetica,sans-Serif" font-size="10.00">src/subsystems/Drive.hpp</text>
</a>
</g>
</g>
<!-- Node1&#45;&gt;Node5 -->
<g id="edge4_Node000001_Node000005" class="edge">
<title>Node1&#45;&gt;Node5</title>
<g id="a_edge4_Node000001_Node000005"><a xlink:title=" ">
<path fill="none" stroke="#63b8ff" d="M1565.92,-314.11C1370.24,-303.7 891.11,-278.21 715.65,-268.87"/>
<polygon fill="#63b8ff" stroke="#63b8ff" points="1565.59,-317.59 1575.76,-314.63 1565.96,-310.6 1565.59,-317.59"/>
</a>
</g>
</g>
<!-- Node22 -->
<g id="Node000022" class="node">
<title>Node22</title>
<g id="a_Node000022"><a xlink:href="_miner_8hpp.html" target="_top" xlink:title=" ">
<polygon fill="white" stroke="#666666" points="1624.25,-274 1493.5,-274 1493.5,-254.75 1624.25,-254.75 1624.25,-274"/>
<text xml:space="preserve" text-anchor="middle" x="1558.88" y="-260.5" font-family="Helvetica,sans-Serif" font-size="10.00">src/subsystems/Miner.hpp</text>
</a>
</g>
</g>
<!-- Node1&#45;&gt;Node22 -->
<g id="edge39_Node000001_Node000022" class="edge">
<title>Node1&#45;&gt;Node22</title>
<g id="a_edge39_Node000001_Node000022"><a xlink:title=" ">
<path fill="none" stroke="#63b8ff" d="M1625.77,-304.09C1609.42,-294.63 1588.59,-282.58 1574.56,-274.45"/>
<polygon fill="#63b8ff" stroke="#63b8ff" points="1623.55,-306.85 1633.96,-308.83 1627.06,-300.79 1623.55,-306.85"/>
</a>
</g>
</g>
<!-- Node23 -->
<g id="Node000023" class="node">
<title>Node23</title>
<g id="a_Node000023"><a xlink:href="_shooter_8hpp.html" target="_top" xlink:title=" ">
<polygon fill="white" stroke="#666666" points="1790.12,-213.12 1649.62,-213.12 1649.62,-193.88 1790.12,-193.88 1790.12,-213.12"/>
<text xml:space="preserve" text-anchor="middle" x="1719.88" y="-199.62" font-family="Helvetica,sans-Serif" font-size="10.00">src/subsystems/Shooter.hpp</text>
</a>
</g>
</g>
<!-- Node1&#45;&gt;Node23 -->
<g id="edge43_Node000001_Node000023" class="edge">
<title>Node1&#45;&gt;Node23</title>
<g id="a_edge43_Node000001_Node000023"><a xlink:title=" ">
<path fill="none" stroke="#63b8ff" d="M1662.17,-299.95C1677.22,-275.05 1703.27,-231.96 1714.49,-213.41"/>
<polygon fill="#63b8ff" stroke="#63b8ff" points="1659.25,-298.01 1657.07,-308.37 1665.24,-301.63 1659.25,-298.01"/>
</a>
</g>
</g>
<!-- Node3 -->
<g id="Node000003" class="node">
<title>Node3</title>
<g id="a_Node000003"><a xlink:href="_strategy_controller_step_8hpp.html" target="_top" xlink:title=" ">
<polygon fill="white" stroke="#666666" points="837.25,-30.5 700.5,-30.5 700.5,0 837.25,0 837.25,-30.5"/>
<text xml:space="preserve" text-anchor="start" x="708.5" y="-17" font-family="Helvetica,sans-Serif" font-size="10.00">src/Autonomous/Steps</text>
<text xml:space="preserve" text-anchor="middle" x="768.88" y="-5.75" font-family="Helvetica,sans-Serif" font-size="10.00">/StrategyControllerStep.hpp</text>
</a>
</g>
</g>
<!-- Node2&#45;&gt;Node3 -->
<g id="edge2_Node000002_Node000003" class="edge">
<title>Node2&#45;&gt;Node3</title>
<g id="a_edge2_Node000002_Node000003"><a xlink:title=" ">
<path fill="none" stroke="#63b8ff" d="M812.39,-58.25C803.4,-49.57 792.55,-39.1 783.93,-30.78"/>
<polygon fill="#63b8ff" stroke="#63b8ff" points="809.9,-60.71 819.52,-65.13 814.76,-55.67 809.9,-60.71"/>
</a>
</g>
</g>
<!-- Node4 -->
<g id="Node000004" class="node">
<title>Node4</title>
<g id="a_Node000004"><a xlink:href="main_8cpp.html" target="_top" xlink:title=" ">
<polygon fill="white" stroke="#666666" points="928,-24.88 855.75,-24.88 855.75,-5.63 928,-5.63 928,-24.88"/>
<text xml:space="preserve" text-anchor="middle" x="891.88" y="-11.38" font-family="Helvetica,sans-Serif" font-size="10.00">src/main.cpp</text>
</a>
</g>
</g>
<!-- Node2&#45;&gt;Node4 -->
<g id="edge3_Node000002_Node000004" class="edge">
<title>Node2&#45;&gt;Node4</title>
<g id="a_edge3_Node000002_Node000004"><a xlink:title=" ">
<path fill="none" stroke="#63b8ff" d="M847.59,-58.3C858.91,-47.55 873.14,-34.04 882.37,-25.28"/>
<polygon fill="#63b8ff" stroke="#63b8ff" points="845.23,-55.72 840.39,-65.14 850.05,-60.79 845.23,-55.72"/>
</a>
</g>
</g>
<!-- Node5&#45;&gt;Node2 -->
<g id="edge38_Node000005_Node000002" class="edge">
<title>Node5&#45;&gt;Node2</title>
<g id="a_edge38_Node000005_Node000002"><a xlink:title=" ">
<path fill="none" stroke="#63b8ff" d="M572.79,-262.95C418.34,-259.64 94.7,-238.99 203.88,-121.75 243.88,-78.79 660.13,-76.54 790.83,-76.9"/>
<polygon fill="#63b8ff" stroke="#63b8ff" points="572.48,-266.44 582.55,-263.14 572.62,-259.44 572.48,-266.44"/>
</a>
</g>
</g>
<!-- Node6 -->
<g id="Node000006" class="node">
<title>Node6</title>
<g id="a_Node000006"><a xlink:href="_planner_8hpp.html" target="_top" xlink:title=" ">
<polygon fill="white" stroke="#666666" points="1029.5,-146.62 888.25,-146.62 888.25,-127.38 1029.5,-127.38 1029.5,-146.62"/>
<text xml:space="preserve" text-anchor="middle" x="958.88" y="-133.12" font-family="Helvetica,sans-Serif" font-size="10.00">src/Autonomous/Planner.hpp</text>
</a>
</g>
</g>
<!-- Node5&#45;&gt;Node6 -->
<g id="edge5_Node000005_Node000006" class="edge">
<title>Node5&#45;&gt;Node6</title>
<g id="a_edge5_Node000005_Node000006"><a xlink:title=" ">
<path fill="none" stroke="#63b8ff" d="M726.91,-254.71C765.51,-248.3 812.16,-237.33 850.88,-218.75 870.4,-209.38 871.63,-201.35 888.88,-188.25 908.41,-173.41 931.65,-156.96 945.82,-147.06"/>
<polygon fill="#63b8ff" stroke="#63b8ff" points="726.55,-251.22 717.22,-256.24 727.64,-258.14 726.55,-251.22"/>
</a>
</g>
</g>
<!-- Node8 -->
<g id="Node000008" class="node">
<title>Node8</title>
<g id="a_Node000008"><a xlink:href="_accelerate_straight_line_8hpp.html" target="_top" xlink:title=" ">
<polygon fill="white" stroke="#666666" points="348.88,-152.25 212.88,-152.25 212.88,-121.75 348.88,-121.75 348.88,-152.25"/>
<text xml:space="preserve" text-anchor="start" x="220.88" y="-138.75" font-family="Helvetica,sans-Serif" font-size="10.00">src/Autonomous/Steps</text>
<text xml:space="preserve" text-anchor="middle" x="280.88" y="-127.5" font-family="Helvetica,sans-Serif" font-size="10.00">/AccelerateStraightLine.hpp</text>
</a>
</g>
</g>
<!-- Node5&#45;&gt;Node8 -->
<g id="edge8_Node000005_Node000008" class="edge">
<title>Node5&#45;&gt;Node8</title>
<g id="a_edge8_Node000005_Node000008"><a xlink:title=" ">
<path fill="none" stroke="#63b8ff" d="M572.85,-258.85C473.04,-252.23 309.4,-238.52 289.88,-218.75 272.73,-201.39 274.64,-170.62 277.69,-152.49"/>
<polygon fill="#63b8ff" stroke="#63b8ff" points="572.38,-262.33 582.58,-259.49 572.83,-255.34 572.38,-262.33"/>
</a>
</g>
</g>
<!-- Node9 -->
<g id="Node000009" class="node">
<title>Node9</title>
<g id="a_Node000009"><a xlink:href="_advance_cycle_step_8hpp.html" target="_top" xlink:title=" ">
<polygon fill="white" stroke="#666666" points="1019.75,-218.75 898,-218.75 898,-188.25 1019.75,-188.25 1019.75,-218.75"/>
<text xml:space="preserve" text-anchor="start" x="906" y="-205.25" font-family="Helvetica,sans-Serif" font-size="10.00">src/Autonomous/Steps</text>
<text xml:space="preserve" text-anchor="middle" x="958.88" y="-194" font-family="Helvetica,sans-Serif" font-size="10.00">/AdvanceCycleStep.hpp</text>
</a>
</g>
</g>
<!-- Node5&#45;&gt;Node9 -->
<g id="edge10_Node000005_Node000009" class="edge">
<title>Node5&#45;&gt;Node9</title>
<g id="a_edge10_Node000005_Node000009"><a xlink:title=" ">
<path fill="none" stroke="#63b8ff" d="M708.62,-252.18C762.74,-241.87 842.74,-226.63 897.64,-216.17"/>
<polygon fill="#63b8ff" stroke="#63b8ff" points="708.13,-248.71 698.97,-254.02 709.44,-255.59 708.13,-248.71"/>
</a>
</g>
</g>
<!-- Node10 -->
<g id="Node000010" class="node">
<title>Node10</title>
<g id="a_Node000010"><a xlink:href="_detect_block_8hpp.html" target="_top" xlink:title=" ">
<polygon fill="white" stroke="#666666" points="1153.75,-218.75 1038,-218.75 1038,-188.25 1153.75,-188.25 1153.75,-218.75"/>
<text xml:space="preserve" text-anchor="start" x="1046" y="-205.25" font-family="Helvetica,sans-Serif" font-size="10.00">src/Autonomous/Steps</text>
<text xml:space="preserve" text-anchor="middle" x="1095.88" y="-194" font-family="Helvetica,sans-Serif" font-size="10.00">/DetectBlock.hpp</text>
</a>
</g>
</g>
<!-- Node5&#45;&gt;Node10 -->
<g id="edge12_Node000005_Node000010" class="edge">
<title>Node5&#45;&gt;Node10</title>
<g id="a_edge12_Node000005_Node000010"><a xlink:title=" ">
<path fill="none" stroke="#63b8ff" d="M726.52,-256.45C803.28,-249.02 924.67,-235.93 1028.88,-218.75 1031.81,-218.27 1034.81,-217.74 1037.83,-217.19"/>
<polygon fill="#63b8ff" stroke="#63b8ff" points="726.65,-252.92 717.03,-257.36 727.32,-259.89 726.65,-252.92"/>
</a>
</g>
</g>
<!-- Node11 -->
<g id="Node000011" class="node">
<title>Node11</title>
<g id="a_Node000011"><a xlink:href="_drive_arc_8hpp.html" target="_top" xlink:title=" ">
<polygon fill="white" stroke="#666666" points="1287.75,-218.75 1172,-218.75 1172,-188.25 1287.75,-188.25 1287.75,-218.75"/>
<text xml:space="preserve" text-anchor="start" x="1180" y="-205.25" font-family="Helvetica,sans-Serif" font-size="10.00">src/Autonomous/Steps</text>
<text xml:space="preserve" text-anchor="middle" x="1229.88" y="-194" font-family="Helvetica,sans-Serif" font-size="10.00">/DriveArc.hpp</text>
</a>
</g>
</g>
<!-- Node5&#45;&gt;Node11 -->
<g id="edge14_Node000005_Node000011" class="edge">
<title>Node5&#45;&gt;Node11</title>
<g id="a_edge14_Node000005_Node000011"><a xlink:title=" ">
<path fill="none" stroke="#63b8ff" d="M726.63,-259.64C827.23,-254.08 1008.99,-241.72 1162.88,-218.75 1165.82,-218.31 1168.82,-217.82 1171.85,-217.3"/>
<polygon fill="#63b8ff" stroke="#63b8ff" points="726.67,-256.14 716.88,-260.18 727.05,-263.13 726.67,-256.14"/>
</a>
</g>
</g>
<!-- Node12 -->
<g id="Node000012" class="node">
<title>Node12</title>
<g id="a_Node000012"><a xlink:href="_drive_distance_8hpp.html" target="_top" xlink:title=" ">
<polygon fill="white" stroke="#666666" points="439.75,-218.75 324,-218.75 324,-188.25 439.75,-188.25 439.75,-218.75"/>
<text xml:space="preserve" text-anchor="start" x="332" y="-205.25" font-family="Helvetica,sans-Serif" font-size="10.00">src/Autonomous/Steps</text>
<text xml:space="preserve" text-anchor="middle" x="381.88" y="-194" font-family="Helvetica,sans-Serif" font-size="10.00">/DriveDistance.hpp</text>
</a>
</g>
</g>
<!-- Node5&#45;&gt;Node12 -->
<g id="edge16_Node000005_Node000012" class="edge">
<title>Node5&#45;&gt;Node12</title>
<g id="a_edge16_Node000005_Node000012"><a xlink:title=" ">
<path fill="none" stroke="#63b8ff" d="M597.54,-251.88C552.31,-241.94 487.01,-227.6 440.13,-217.3"/>
<polygon fill="#63b8ff" stroke="#63b8ff" points="596.59,-255.25 607.11,-253.98 598.09,-248.42 596.59,-255.25"/>
</a>
</g>
</g>
<!-- Node13 -->
<g id="Node000013" class="node">
<title>Node13</title>
<g id="a_Node000013"><a xlink:href="_drive_line_until_wall_8hpp.html" target="_top" xlink:title=" ">
<polygon fill="white" stroke="#666666" points="559.88,-152.25 441.88,-152.25 441.88,-121.75 559.88,-121.75 559.88,-152.25"/>
<text xml:space="preserve" text-anchor="start" x="449.88" y="-138.75" font-family="Helvetica,sans-Serif" font-size="10.00">src/Autonomous/Steps</text>
<text xml:space="preserve" text-anchor="middle" x="500.88" y="-127.5" font-family="Helvetica,sans-Serif" font-size="10.00">/DriveLineUntilWall.hpp</text>
</a>
</g>
</g>
<!-- Node5&#45;&gt;Node13 -->
<g id="edge19_Node000005_Node000013" class="edge">
<title>Node5&#45;&gt;Node13</title>
<g id="a_edge19_Node000005_Node000013"><a xlink:title=" ">
<path fill="none" stroke="#63b8ff" d="M572.55,-258.74C476.01,-252.14 321.34,-238.61 303.88,-218.75 261.1,-170.1 369.21,-150.22 441.67,-142.51"/>
<polygon fill="#63b8ff" stroke="#63b8ff" points="572.3,-262.23 582.52,-259.4 572.77,-255.24 572.3,-262.23"/>
</a>
</g>
</g>
<!-- Node14 -->
<g id="Node000014" class="node">
<title>Node14</title>
<g id="a_Node000014"><a xlink:href="_drive_radius_angle_8hpp.html" target="_top" xlink:title=" ">
<polygon fill="white" stroke="#666666" points="731.12,-152.25 614.62,-152.25 614.62,-121.75 731.12,-121.75 731.12,-152.25"/>
<text xml:space="preserve" text-anchor="start" x="622.62" y="-138.75" font-family="Helvetica,sans-Serif" font-size="10.00">src/Autonomous/Steps</text>
<text xml:space="preserve" text-anchor="middle" x="672.88" y="-127.5" font-family="Helvetica,sans-Serif" font-size="10.00">/DriveRadiusAngle.hpp</text>
</a>
</g>
</g>
<!-- Node5&#45;&gt;Node14 -->
<g id="edge21_Node000005_Node000014" class="edge">
<title>Node5&#45;&gt;Node14</title>
<g id="a_edge21_Node000005_Node000014"><a xlink:title=" ">
<path fill="none" stroke="#63b8ff" d="M572.78,-258.4C479.17,-251.55 331.62,-237.87 314.88,-218.75 305.94,-208.55 305.98,-198.48 314.88,-188.25 315.49,-187.55 512.91,-160.14 614.28,-146.1"/>
<polygon fill="#63b8ff" stroke="#63b8ff" points="572.46,-261.88 582.69,-259.11 572.97,-254.9 572.46,-261.88"/>
</a>
</g>
</g>
<!-- Node15 -->
<g id="Node000015" class="node">
<title>Node15</title>
<g id="a_Node000015"><a xlink:href="_drive_radius_at_velocity_8hpp.html" target="_top" xlink:title=" ">
<polygon fill="white" stroke="#666666" points="153.5,-152.25 18.25,-152.25 18.25,-121.75 153.5,-121.75 153.5,-152.25"/>
<text xml:space="preserve" text-anchor="start" x="26.25" y="-138.75" font-family="Helvetica,sans-Serif" font-size="10.00">src/Autonomous/Steps</text>
<text xml:space="preserve" text-anchor="middle" x="85.88" y="-127.5" font-family="Helvetica,sans-Serif" font-size="10.00">/DriveRadiusAtVelocity.hpp</text>
</a>
</g>
</g>
<!-- Node5&#45;&gt;Node15 -->
<g id="edge23_Node000005_Node000015" class="edge">
<title>Node5&#45;&gt;Node15</title>
<g id="a_edge23_Node000005_Node000015"><a xlink:title=" ">
<path fill="none" stroke="#63b8ff" d="M572.88,-262.49C455.45,-260.1 237.85,-251.27 167.88,-218.75 136.17,-204.01 109.49,-171.69 95.78,-152.71"/>
<polygon fill="#63b8ff" stroke="#63b8ff" points="572.69,-265.99 582.76,-262.68 572.82,-258.99 572.69,-265.99"/>
</a>
</g>
</g>
<!-- Node16 -->
<g id="Node000016" class="node">
<title>Node16</title>
<g id="a_Node000016"><a xlink:href="_drive_until_wall_8hpp.html" target="_top" xlink:title=" ">
<polygon fill="white" stroke="#666666" points="115.75,-218.75 0,-218.75 0,-188.25 115.75,-188.25 115.75,-218.75"/>
<text xml:space="preserve" text-anchor="start" x="8" y="-205.25" font-family="Helvetica,sans-Serif" font-size="10.00">src/Autonomous/Steps</text>
<text xml:space="preserve" text-anchor="middle" x="57.88" y="-194" font-family="Helvetica,sans-Serif" font-size="10.00">/DriveUntilWall.hpp</text>
</a>
</g>
</g>
<!-- Node5&#45;&gt;Node16 -->
<g id="edge25_Node000005_Node000016" class="edge">
<title>Node5&#45;&gt;Node16</title>
<g id="a_edge25_Node000005_Node000016"><a xlink:title=" ">
<path fill="none" stroke="#63b8ff" d="M572.97,-259.42C471.22,-253.59 286.45,-240.89 129.88,-218.75 125.33,-218.11 120.64,-217.36 115.94,-216.56"/>
<polygon fill="#63b8ff" stroke="#63b8ff" points="572.66,-262.91 582.84,-259.98 573.06,-255.92 572.66,-262.91"/>
</a>
</g>
</g>
<!-- Node17 -->
<g id="Node000017" class="node">
<title>Node17</title>
<g id="a_Node000017"><a xlink:href="_follow_line_step_8hpp.html" target="_top" xlink:title=" ">
<polygon fill="white" stroke="#666666" points="573.75,-218.75 458,-218.75 458,-188.25 573.75,-188.25 573.75,-218.75"/>
<text xml:space="preserve" text-anchor="start" x="466" y="-205.25" font-family="Helvetica,sans-Serif" font-size="10.00">src/Autonomous/Steps</text>
<text xml:space="preserve" text-anchor="middle" x="515.88" y="-194" font-family="Helvetica,sans-Serif" font-size="10.00">/FollowLineStep.hpp</text>
</a>
</g>
</g>
<!-- Node5&#45;&gt;Node17 -->
<g id="edge26_Node000005_Node000017" class="edge">
<title>Node5&#45;&gt;Node17</title>
<g id="a_edge26_Node000005_Node000017"><a xlink:title=" ">
<path fill="none" stroke="#63b8ff" d="M618.72,-249.69C597.92,-240.55 570.58,-228.54 549.32,-219.19"/>
<polygon fill="#63b8ff" stroke="#63b8ff" points="617.28,-252.88 627.85,-253.7 620.1,-246.47 617.28,-252.88"/>
</a>
</g>
</g>
<!-- Node18 -->
<g id="Node000018" class="node">
<title>Node18</title>
<g id="a_Node000018"><a xlink:href="_index_block_8hpp.html" target="_top" xlink:title=" ">
<polygon fill="white" stroke="#666666" points="1421.75,-218.75 1306,-218.75 1306,-188.25 1421.75,-188.25 1421.75,-218.75"/>
<text xml:space="preserve" text-anchor="start" x="1314" y="-205.25" font-family="Helvetica,sans-Serif" font-size="10.00">src/Autonomous/Steps</text>
<text xml:space="preserve" text-anchor="middle" x="1363.88" y="-194" font-family="Helvetica,sans-Serif" font-size="10.00">/IndexBlock.hpp</text>
</a>
</g>
</g>
<!-- Node5&#45;&gt;Node18 -->
<g id="edge29_Node000005_Node000018" class="edge">
<title>Node5&#45;&gt;Node18</title>
<g id="a_edge29_Node000005_Node000018"><a xlink:title=" ">
<path fill="none" stroke="#63b8ff" d="M726.77,-261.57C848.35,-257.93 1092.18,-247.43 1296.88,-218.75 1299.82,-218.34 1302.83,-217.87 1305.86,-217.36"/>
<polygon fill="#63b8ff" stroke="#63b8ff" points="726.8,-258.07 716.91,-261.86 727,-265.06 726.8,-258.07"/>
</a>
</g>
</g>
<!-- Node19 -->
<g id="Node000019" class="node">
<title>Node19</title>
<g id="a_Node000019"><a xlink:href="_mine_block_8hpp.html" target="_top" xlink:title=" ">
<polygon fill="white" stroke="#666666" points="1593.75,-218.75 1478,-218.75 1478,-188.25 1593.75,-188.25 1593.75,-218.75"/>
<text xml:space="preserve" text-anchor="start" x="1486" y="-205.25" font-family="Helvetica,sans-Serif" font-size="10.00">src/Autonomous/Steps</text>
<text xml:space="preserve" text-anchor="middle" x="1535.88" y="-194" font-family="Helvetica,sans-Serif" font-size="10.00">/MineBlock.hpp</text>
</a>
</g>
</g>
<!-- Node5&#45;&gt;Node19 -->
<g id="edge31_Node000005_Node000019" class="edge">
<title>Node5&#45;&gt;Node19</title>
<g id="a_edge31_Node000005_Node000019"><a xlink:title=" ">
<path fill="none" stroke="#63b8ff" d="M727.01,-260.96C867.34,-256.12 1173.65,-243.52 1430.88,-218.75 1446.07,-217.29 1462.45,-215.27 1477.65,-213.22"/>
<polygon fill="#63b8ff" stroke="#63b8ff" points="726.96,-257.46 717.09,-261.3 727.2,-264.45 726.96,-257.46"/>
</a>
</g>
</g>
<!-- Node20 -->
<g id="Node000020" class="node">
<title>Node20</title>
<g id="a_Node000020"><a xlink:href="_place_on_table_8hpp.html" target="_top" xlink:title=" ">
<polygon fill="white" stroke="#666666" points="707.75,-218.75 592,-218.75 592,-188.25 707.75,-188.25 707.75,-218.75"/>
<text xml:space="preserve" text-anchor="start" x="600" y="-205.25" font-family="Helvetica,sans-Serif" font-size="10.00">src/Autonomous/Steps</text>
<text xml:space="preserve" text-anchor="middle" x="649.88" y="-194" font-family="Helvetica,sans-Serif" font-size="10.00">/PlaceOnTable.hpp</text>
</a>
</g>
</g>
<!-- Node5&#45;&gt;Node20 -->
<g id="edge34_Node000005_Node000020" class="edge">
<title>Node5&#45;&gt;Node20</title>
<g id="a_edge34_Node000005_Node000020"><a xlink:title=" ">
<path fill="none" stroke="#63b8ff" d="M649.88,-243.17C649.88,-235.24 649.88,-226.31 649.88,-219.03"/>
<polygon fill="#63b8ff" stroke="#63b8ff" points="646.38,-242.92 649.88,-252.92 653.38,-242.92 646.38,-242.92"/>
</a>
</g>
</g>
<!-- Node21 -->
<g id="Node000021" class="node">
<title>Node21</title>
<g id="a_Node000021"><a xlink:href="_reject_sequence_8hpp.html" target="_top" xlink:title=" ">
<polygon fill="white" stroke="#666666" points="841.75,-218.75 726,-218.75 726,-188.25 841.75,-188.25 841.75,-218.75"/>
<text xml:space="preserve" text-anchor="start" x="734" y="-205.25" font-family="Helvetica,sans-Serif" font-size="10.00">src/Autonomous/Steps</text>
<text xml:space="preserve" text-anchor="middle" x="783.88" y="-194" font-family="Helvetica,sans-Serif" font-size="10.00">/RejectSequence.hpp</text>
</a>
</g>
</g>
<!-- Node5&#45;&gt;Node21 -->
<g id="edge36_Node000005_Node000021" class="edge">
<title>Node5&#45;&gt;Node21</title>
<g id="a_edge36_Node000005_Node000021"><a xlink:title=" ">
<path fill="none" stroke="#63b8ff" d="M681.03,-249.69C701.83,-240.55 729.17,-228.54 750.43,-219.19"/>
<polygon fill="#63b8ff" stroke="#63b8ff" points="679.65,-246.47 671.9,-253.7 682.47,-252.88 679.65,-246.47"/>
</a>
</g>
</g>
<!-- Node6&#45;&gt;Node2 -->
<g id="edge7_Node000006_Node000002" class="edge">
<title>Node6&#45;&gt;Node2</title>
<g id="a_edge7_Node000006_Node000002"><a xlink:title=" ">
<path fill="none" stroke="#63b8ff" d="M928.84,-122.29C904.42,-111.15 870.66,-95.74 849.56,-86.11"/>
<polygon fill="#63b8ff" stroke="#63b8ff" points="927.07,-125.33 937.62,-126.3 929.98,-118.97 927.07,-125.33"/>
</a>
</g>
</g>
<!-- Node7 -->
<g id="Node000007" class="node">
<title>Node7</title>
<g id="a_Node000007"><a xlink:href="_planner_8cpp.html" target="_top" xlink:title=" ">
<polygon fill="white" stroke="#666666" points="1029.5,-85.75 888.25,-85.75 888.25,-66.5 1029.5,-66.5 1029.5,-85.75"/>
<text xml:space="preserve" text-anchor="middle" x="958.88" y="-72.25" font-family="Helvetica,sans-Serif" font-size="10.00">src/Autonomous/Planner.cpp</text>
</a>
</g>
</g>
<!-- Node6&#45;&gt;Node7 -->
<g id="edge6_Node000006_Node000007" class="edge">
<title>Node6&#45;&gt;Node7</title>
<g id="a_edge6_Node000006_Node000007"><a xlink:title=" ">
<path fill="none" stroke="#63b8ff" d="M958.88,-115.57C958.88,-105.54 958.88,-93.96 958.88,-86.15"/>
<polygon fill="#63b8ff" stroke="#63b8ff" points="955.38,-115.54 958.88,-125.54 962.38,-115.54 955.38,-115.54"/>
</a>
</g>
</g>
<!-- Node8&#45;&gt;Node2 -->
<g id="edge9_Node000008_Node000002" class="edge">
<title>Node8&#45;&gt;Node2</title>
<g id="a_edge9_Node000008_Node000002"><a xlink:title=" ">
<path fill="none" stroke="#63b8ff" d="M360.54,-127.46C480.13,-114.63 701.54,-90.89 790.93,-81.3"/>
<polygon fill="#63b8ff" stroke="#63b8ff" points="360.37,-123.95 350.8,-128.5 361.12,-130.91 360.37,-123.95"/>
</a>
</g>
</g>
<!-- Node9&#45;&gt;Node6 -->
<g id="edge11_Node000009_Node000006" class="edge">
<title>Node9&#45;&gt;Node6</title>
<g id="a_edge11_Node000009_Node000006"><a xlink:title=" ">
<path fill="none" stroke="#63b8ff" d="M958.88,-176.59C958.88,-166.01 958.88,-154.5 958.88,-146.82"/>
<polygon fill="#63b8ff" stroke="#63b8ff" points="955.38,-176.35 958.88,-186.35 962.38,-176.35 955.38,-176.35"/>
</a>
</g>
</g>
<!-- Node10&#45;&gt;Node6 -->
<g id="edge13_Node000010_Node000006" class="edge">
<title>Node10&#45;&gt;Node6</title>
<g id="a_edge13_Node000010_Node000006"><a xlink:title=" ">
<path fill="none" stroke="#63b8ff" d="M1054.66,-183.1C1029.22,-171.12 997.77,-156.31 978.01,-147.01"/>
<polygon fill="#63b8ff" stroke="#63b8ff" points="1052.88,-186.13 1063.42,-187.22 1055.86,-179.79 1052.88,-186.13"/>
</a>
</g>
</g>
<!-- Node11&#45;&gt;Node6 -->
<g id="edge15_Node000011_Node000006" class="edge">
<title>Node11&#45;&gt;Node6</title>
<g id="a_edge15_Node000011_Node000006"><a xlink:title=" ">
<path fill="none" stroke="#63b8ff" d="M1160.58,-186.01C1108.54,-173.62 1039.24,-157.13 996.9,-147.05"/>
<polygon fill="#63b8ff" stroke="#63b8ff" points="1159.73,-189.4 1170.27,-188.31 1161.35,-182.59 1159.73,-189.4"/>
</a>
</g>
</g>
<!-- Node12&#45;&gt;Node2 -->
<g id="edge18_Node000012_Node000002" class="edge">
<title>Node12&#45;&gt;Node2</title>
<g id="a_edge18_Node000012_Node000002"><a xlink:title=" ">
<path fill="none" stroke="#63b8ff" d="M450.99,-188.07C579.8,-168.66 623.59,-202.7 739.88,-152.25 775.54,-136.78 808.08,-102.57 822.31,-86.2"/>
<polygon fill="#63b8ff" stroke="#63b8ff" points="450.74,-184.56 441.42,-189.59 451.84,-191.47 450.74,-184.56"/>
</a>
</g>
</g>
<!-- Node12&#45;&gt;Node6 -->
<g id="edge17_Node000012_Node000006" class="edge">
<title>Node12&#45;&gt;Node6</title>
<g id="a_edge17_Node000012_Node000006"><a xlink:title=" ">
<path fill="none" stroke="#63b8ff" d="M451,-188.08C549.5,-173.82 773.01,-153.89 888.01,-144"/>
<polygon fill="#63b8ff" stroke="#63b8ff" points="450.77,-184.57 441.4,-189.52 451.81,-191.5 450.77,-184.57"/>
</a>
</g>
</g>
<!-- Node13&#45;&gt;Node2 -->
<g id="edge20_Node000013_Node000002" class="edge">
<title>Node13&#45;&gt;Node2</title>
<g id="a_edge20_Node000013_Node000002"><a xlink:title=" ">
<path fill="none" stroke="#63b8ff" d="M571.37,-123.38C638.39,-111.39 736.72,-93.8 790.74,-84.13"/>
<polygon fill="#63b8ff" stroke="#63b8ff" points="570.79,-119.93 561.56,-125.14 572.02,-126.82 570.79,-119.93"/>
</a>
</g>
</g>
<!-- Node14&#45;&gt;Node2 -->
<g id="edge22_Node000014_Node000002" class="edge">
<title>Node14&#45;&gt;Node2</title>
<g id="a_edge22_Node000014_Node000002"><a xlink:title=" ">
<path fill="none" stroke="#63b8ff" d="M722.8,-117.28C750.54,-106.88 783.79,-94.41 805.8,-86.15"/>
<polygon fill="#63b8ff" stroke="#63b8ff" points="721.64,-113.98 713.5,-120.76 724.1,-120.53 721.64,-113.98"/>
</a>
</g>
</g>
<!-- Node15&#45;&gt;Node2 -->
<g id="edge24_Node000015_Node000002" class="edge">
<title>Node15&#45;&gt;Node2</title>
<g id="a_edge24_Node000015_Node000002"><a xlink:title=" ">
<path fill="none" stroke="#63b8ff" d="M164.84,-122.12C165.86,-122 166.87,-121.87 167.88,-121.75 403.47,-93.42 688.56,-81.79 790.94,-78.32"/>
<polygon fill="#63b8ff" stroke="#63b8ff" points="164.74,-118.61 155.31,-123.43 165.69,-125.54 164.74,-118.61"/>
</a>
</g>
</g>
<!-- Node17&#45;&gt;Node2 -->
<g id="edge28_Node000017_Node000002" class="edge">
<title>Node17&#45;&gt;Node2</title>
<g id="a_edge28_Node000017_Node000002"><a xlink:title=" ">
<path fill="none" stroke="#63b8ff" d="M585.29,-188.01C678.58,-173.19 718.96,-206.14 791.88,-152.25 814.21,-135.74 824.32,-102.36 828.05,-86.24"/>
<polygon fill="#63b8ff" stroke="#63b8ff" points="584.68,-184.56 575.44,-189.74 585.9,-191.46 584.68,-184.56"/>
</a>
</g>
</g>
<!-- Node17&#45;&gt;Node6 -->
<g id="edge27_Node000017_Node000006" class="edge">
<title>Node17&#45;&gt;Node6</title>
<g id="a_edge27_Node000017_Node000006"><a xlink:title=" ">
<path fill="none" stroke="#63b8ff" d="M585.09,-187.98C656.17,-176.3 800.7,-157.77 888.01,-146.81"/>
<polygon fill="#63b8ff" stroke="#63b8ff" points="584.7,-184.5 575.42,-189.62 585.86,-191.4 584.7,-184.5"/>
</a>
</g>
</g>
<!-- Node18&#45;&gt;Node6 -->
<g id="edge30_Node000018_Node000006" class="edge">
<title>Node18&#45;&gt;Node6</title>
<g id="a_edge30_Node000018_Node000006"><a xlink:title=" ">
<path fill="none" stroke="#63b8ff" d="M1294.51,-187.89C1196.57,-170.45 1094.62,-155.97 1028.67,-147.09"/>
<polygon fill="#63b8ff" stroke="#63b8ff" points="1293.86,-191.33 1304.32,-189.65 1295.1,-184.44 1293.86,-191.33"/>
</a>
</g>
</g>
<!-- Node19&#45;&gt;Node2 -->
<g id="edge33_Node000019_Node000002" class="edge">
<title>Node19&#45;&gt;Node2</title>
<g id="a_edge33_Node000019_Node000002"><a xlink:title=" ">
<path fill="none" stroke="#63b8ff" d="M1466.43,-188.73C1465.57,-188.57 1464.72,-188.41 1463.88,-188.25 1204.39,-139.85 1138.86,-131.41 878.88,-85.75 875.64,-85.18 872.29,-84.59 868.92,-84"/>
<polygon fill="#63b8ff" stroke="#63b8ff" points="1465.77,-192.17 1476.25,-190.6 1467.08,-185.29 1465.77,-192.17"/>
</a>
</g>
</g>
<!-- Node19&#45;&gt;Node6 -->
<g id="edge32_Node000019_Node000006" class="edge">
<title>Node19&#45;&gt;Node6</title>
<g id="a_edge32_Node000019_Node000006"><a xlink:title=" ">
<path fill="none" stroke="#63b8ff" d="M1466.44,-188.64C1465.58,-188.51 1464.73,-188.38 1463.88,-188.25 1309.83,-165.4 1127.77,-150.15 1029.81,-142.89"/>
<polygon fill="#63b8ff" stroke="#63b8ff" points="1465.87,-192.09 1476.31,-190.26 1467.01,-185.18 1465.87,-192.09"/>
</a>
</g>
</g>
<!-- Node20&#45;&gt;Node6 -->
<g id="edge35_Node000020_Node000006" class="edge">
<title>Node20&#45;&gt;Node6</title>
<g id="a_edge35_Node000020_Node000006"><a xlink:title=" ">
<path fill="none" stroke="#63b8ff" d="M718.95,-187.82C793.4,-172.19 868.45,-156.65 914.7,-147.11"/>
<polygon fill="#63b8ff" stroke="#63b8ff" points="718.52,-184.33 709.46,-189.81 719.96,-191.18 718.52,-184.33"/>
</a>
</g>
</g>
<!-- Node21&#45;&gt;Node6 -->
<g id="edge37_Node000021_Node000006" class="edge">
<title>Node21&#45;&gt;Node6</title>
<g id="a_edge37_Node000021_Node000006"><a xlink:title=" ">
<path fill="none" stroke="#63b8ff" d="M834.33,-183.9C867.09,-171.83 908.35,-156.62 934.17,-147.1"/>
<polygon fill="#63b8ff" stroke="#63b8ff" points="833.18,-180.6 825.01,-187.34 835.6,-187.17 833.18,-180.6"/>
</a>
</g>
</g>
<!-- Node22&#45;&gt;Node2 -->
<g id="edge42_Node000022_Node000002" class="edge">
<title>Node22&#45;&gt;Node2</title>
<g id="a_edge42_Node000022_Node000002"><a xlink:title=" ">
<path fill="none" stroke="#63b8ff" d="M1579.46,-247.33C1597.49,-231.36 1618.54,-206.64 1602.88,-188.25 1576.54,-157.32 919.07,-91.6 878.88,-85.75 875.63,-85.28 872.26,-84.75 868.89,-84.21"/>
<polygon fill="#63b8ff" stroke="#63b8ff" points="1577.61,-244.32 1572.19,-253.42 1582.1,-249.68 1577.61,-244.32"/>
</a>
</g>
</g>
<!-- Node22&#45;&gt;Node6 -->
<g id="edge40_Node000022_Node000006" class="edge">
<title>Node22&#45;&gt;Node6</title>
<g id="a_edge40_Node000022_Node000006"><a xlink:title=" ">
<path fill="none" stroke="#63b8ff" d="M1527.1,-249.67C1509.44,-241.55 1487.38,-230.57 1468.88,-218.75 1450.62,-207.09 1450.9,-196.51 1430.88,-188.25 1360.03,-159.03 1142.96,-145.74 1029.56,-140.66"/>
<polygon fill="#63b8ff" stroke="#63b8ff" points="1525.51,-252.79 1536.06,-253.71 1528.39,-246.41 1525.51,-252.79"/>
</a>
</g>
</g>
<!-- Node22&#45;&gt;Node19 -->
<g id="edge41_Node000022_Node000019" class="edge">
<title>Node22&#45;&gt;Node19</title>
<g id="a_edge41_Node000022_Node000019"><a xlink:title=" ">
<path fill="none" stroke="#63b8ff" d="M1551.2,-243.73C1548.05,-235.66 1544.46,-226.48 1541.55,-219.03"/>
<polygon fill="#63b8ff" stroke="#63b8ff" points="1547.93,-244.98 1554.83,-253.02 1554.45,-242.44 1547.93,-244.98"/>
</a>
</g>
</g>
<!-- Node23&#45;&gt;Node2 -->
<g id="edge49_Node000023_Node000002" class="edge">
<title>Node23&#45;&gt;Node2</title>
<g id="a_edge49_Node000023_Node000002"><a xlink:title=" ">
<path fill="none" stroke="#63b8ff" d="M1739.11,-185.68C1757.07,-168.01 1778.65,-140.27 1760.88,-121.75 1726.91,-86.37 927.63,-91.01 878.88,-85.75 875.7,-85.41 872.41,-84.98 869.12,-84.51"/>
<polygon fill="#63b8ff" stroke="#63b8ff" points="1736.8,-183.05 1731.88,-192.43 1741.58,-188.17 1736.8,-183.05"/>
</a>
</g>
</g>
<!-- Node23&#45;&gt;Node6 -->
<g id="edge44_Node000023_Node000006" class="edge">
<title>Node23&#45;&gt;Node6</title>
<g id="a_edge44_Node000023_Node000006"><a xlink:title=" ">
<path fill="none" stroke="#63b8ff" d="M1638.15,-192.09C1626.32,-190.71 1614.29,-189.39 1602.88,-188.25 1395.04,-167.49 1148.74,-150.34 1029.96,-142.54"/>
<polygon fill="#63b8ff" stroke="#63b8ff" points="1637.55,-195.54 1647.9,-193.24 1638.37,-188.59 1637.55,-195.54"/>
</a>
</g>
</g>
<!-- Node24 -->
<g id="Node000024" class="node">
<title>Node24</title>
<g id="a_Node000024"><a xlink:href="_delay_step_8hpp.html" target="_top" xlink:title=" ">
<polygon fill="white" stroke="#666666" points="1617.75,-152.25 1502,-152.25 1502,-121.75 1617.75,-121.75 1617.75,-152.25"/>
<text xml:space="preserve" text-anchor="start" x="1510" y="-138.75" font-family="Helvetica,sans-Serif" font-size="10.00">src/Autonomous/Steps</text>
<text xml:space="preserve" text-anchor="middle" x="1559.88" y="-127.5" font-family="Helvetica,sans-Serif" font-size="10.00">/DelayStep.hpp</text>
</a>
</g>
</g>
<!-- Node23&#45;&gt;Node24 -->
<g id="edge45_Node000023_Node000024" class="edge">
<title>Node23&#45;&gt;Node24</title>
<g id="a_edge45_Node000023_Node000024"><a xlink:title=" ">
<path fill="none" stroke="#63b8ff" d="M1686.68,-189.12C1660.28,-178.48 1623.4,-163.61 1596.21,-152.65"/>
<polygon fill="#63b8ff" stroke="#63b8ff" points="1685.3,-192.34 1695.89,-192.83 1687.92,-185.84 1685.3,-192.34"/>
</a>
</g>
</g>
<!-- Node25 -->
<g id="Node000025" class="node">
<title>Node25</title>
<g id="a_Node000025"><a xlink:href="_fire_step_8hpp.html" target="_top" xlink:title=" ">
<polygon fill="white" stroke="#666666" points="1751.75,-152.25 1636,-152.25 1636,-121.75 1751.75,-121.75 1751.75,-152.25"/>
<text xml:space="preserve" text-anchor="start" x="1644" y="-138.75" font-family="Helvetica,sans-Serif" font-size="10.00">src/Autonomous/Steps</text>
<text xml:space="preserve" text-anchor="middle" x="1693.88" y="-127.5" font-family="Helvetica,sans-Serif" font-size="10.00">/FireStep.hpp</text>
</a>
</g>
</g>
<!-- Node23&#45;&gt;Node25 -->
<g id="edge47_Node000023_Node000025" class="edge">
<title>Node23&#45;&gt;Node25</title>
<g id="a_edge47_Node000023_Node000025"><a xlink:title=" ">
<path fill="none" stroke="#63b8ff" d="M1712.05,-183.09C1708.07,-173.21 1703.31,-161.4 1699.66,-152.34"/>
<polygon fill="#63b8ff" stroke="#63b8ff" points="1708.71,-184.16 1715.69,-192.13 1715.2,-181.54 1708.71,-184.16"/>
</a>
</g>
</g>
<!-- Node24&#45;&gt;Node2 -->
<g id="edge46_Node000024_Node000002" class="edge">
<title>Node24&#45;&gt;Node2</title>
<g id="a_edge46_Node000024_Node000002"><a xlink:title=" ">
<path fill="none" stroke="#63b8ff" d="M1490.45,-122.09C1489.59,-121.97 1488.73,-121.86 1487.88,-121.75 1218.93,-87.35 1148.17,-117.3 878.88,-85.75 875.61,-85.37 872.24,-84.91 868.86,-84.41"/>
<polygon fill="#63b8ff" stroke="#63b8ff" points="1489.92,-125.55 1500.33,-123.58 1490.96,-118.63 1489.92,-125.55"/>
</a>
</g>
</g>
<!-- Node25&#45;&gt;Node2 -->
<g id="edge48_Node000025_Node000002" class="edge">
<title>Node25&#45;&gt;Node2</title>
<g id="a_edge48_Node000025_Node000002"><a xlink:title=" ">
<path fill="none" stroke="#63b8ff" d="M1624.19,-121.56C1294.82,-79.96 1205.94,-122.26 878.88,-85.75 875.61,-85.39 872.24,-84.94 868.86,-84.44"/>
<polygon fill="#63b8ff" stroke="#63b8ff" points="1623.64,-125.01 1634,-122.81 1624.53,-118.07 1623.64,-125.01"/>
</a>
</g>
</g>
</g>
</svg>
