<?xml version="1.0" encoding="UTF-8" standalone="no"?>
<!DOCTYPE svg PUBLIC "-//W3C//DTD SVG 1.1//EN"
 "http://www.w3.org/Graphics/SVG/1.1/DTD/svg11.dtd">
<!-- Generated by graphviz version 14.1.2 (20260124.0452)
 -->
<!-- Title: FireStep Pages: 1 -->
<svg width="364pt" height="316pt"
 viewBox="0.00 0.00 364.00 316.00" xmlns="http://www.w3.org/2000/svg" xmlns:xlink="http://www.w3.org/1999/xlink">
<g id="graph0" class="graph" transform="scale(1 1) rotate(0) translate(4 312.25)">
<title>FireStep</title>
<!-- Node1 -->
<g id="Node000001" class="node">
<title>Node1</title>
<g id="a_Node000001"><a xlink:title=" ">
<polygon fill="#999999" stroke="#666666" points="121.12,-19.25 68.38,-19.25 68.38,0 121.12,0 121.12,-19.25"/>
<text xml:space="preserve" text-anchor="middle" x="94.75" y="-5.75" font-family="Helvetica,sans-Serif" font-size="10.00">FireStep</text>
</a>
</g>
</g>
<!-- Node2 -->
<g id="Node000002" class="node">
<title>Node2</title>
<g id="a_Node000002"><a xlink:href="class_auto_step.html" target="_top" xlink:title=" ">
<polygon fill="white" stroke="#666666" points="107,-91.75 50.5,-91.75 50.5,-72.5 107,-72.5 107,-91.75"/>
<text xml:space="preserve" text-anchor="middle" x="78.75" y="-78.25" font-family="Helvetica,sans-Serif" font-size="10.00">AutoStep</text>
</a>
</g>
</g>
<!-- Node2&#45;&gt;Node1 -->
<g id="edge1_Node000001_Node000002" class="edge">
<title>Node2&#45;&gt;Node1</title>
<g id="a_edge1_Node000001_Node000002"><a xlink:title=" ">
<path fill="none" stroke="#63b8ff" d="M83.31,-61.05C86.39,-47.44 90.33,-30.1 92.69,-19.7"/>
<polygon fill="#63b8ff" stroke="#63b8ff" points="79.91,-60.19 81.11,-70.72 86.74,-61.74 79.91,-60.19"/>
</a>
</g>
</g>
<!-- Node3 -->
<g id="Node000003" class="node">
<title>Node3</title>
<g id="a_Node000003"><a xlink:href="class_shooter.html" target="_top" xlink:title=" ">
<polygon fill="white" stroke="#666666" points="174.62,-91.75 124.88,-91.75 124.88,-72.5 174.62,-72.5 174.62,-91.75"/>
<text xml:space="preserve" text-anchor="middle" x="149.75" y="-78.25" font-family="Helvetica,sans-Serif" font-size="10.00">Shooter</text>
</a>
</g>
</g>
<!-- Node3&#45;&gt;Node1 -->
<g id="edge2_Node000001_Node000003" class="edge">
<title>Node3&#45;&gt;Node1</title>
<g id="a_edge2_Node000001_Node000003"><a xlink:title=" ">
<path fill="none" stroke="#9a32cd" stroke-dasharray="5,2" d="M136.01,-63.51C125.15,-49.59 110.44,-30.73 101.83,-19.7"/>
<polygon fill="#9a32cd" stroke="#9a32cd" points="132.94,-65.27 141.85,-71 138.46,-60.97 132.94,-65.27"/>
</a>
</g>
<text xml:space="preserve" text-anchor="start" x="131.79" y="-42" font-family="Helvetica,sans-Serif" font-size="10.00" fill="grey">_shooter</text>
</g>
<!-- Node4 -->
<g id="Node000004" class="node">
<title>Node4</title>
<g id="a_Node000004"><a xlink:href="class_subsystem.html" target="_top" xlink:title=" ">
<polygon fill="white" stroke="#666666" points="65.5,-164.25 0,-164.25 0,-145 65.5,-145 65.5,-164.25"/>
<text xml:space="preserve" text-anchor="middle" x="32.75" y="-150.75" font-family="Helvetica,sans-Serif" font-size="10.00">Subsystem</text>
</a>
</g>
</g>
<!-- Node4&#45;&gt;Node3 -->
<g id="edge3_Node000003_Node000004" class="edge">
<title>Node4&#45;&gt;Node3</title>
<g id="a_edge3_Node000003_Node000004"><a xlink:title=" ">
<path fill="none" stroke="#63b8ff" d="M55.69,-138.21C68.75,-129.59 85.49,-118.8 100.75,-109.75 111.08,-103.63 122.89,-97.19 132.34,-92.18"/>
<polygon fill="#63b8ff" stroke="#63b8ff" points="53.76,-135.29 47.37,-143.74 57.63,-141.12 53.76,-135.29"/>
</a>
</g>
</g>
<!-- Node5 -->
<g id="Node000005" class="node">
<title>Node5</title>
<g id="a_Node000005"><a xlink:href="class_button.html" target="_top" xlink:title=" ">
<polygon fill="white" stroke="#666666" points="128,-164.25 83.5,-164.25 83.5,-145 128,-145 128,-164.25"/>
<text xml:space="preserve" text-anchor="middle" x="105.75" y="-150.75" font-family="Helvetica,sans-Serif" font-size="10.00">Button</text>
</a>
</g>
</g>
<!-- Node5&#45;&gt;Node3 -->
<g id="edge4_Node000003_Node000005" class="edge">
<title>Node5&#45;&gt;Node3</title>
<g id="a_edge4_Node000003_Node000005"><a xlink:title=" ">
<path fill="none" stroke="#9a32cd" stroke-dasharray="5,2" d="M103.99,-133.05C104.23,-125.28 105.64,-116.65 109.75,-109.75 114.28,-102.15 121.91,-96.28 129.31,-92.01"/>
<polygon fill="#9a32cd" stroke="#9a32cd" points="100.49,-133.15 104.35,-143.02 107.49,-132.9 100.49,-133.15"/>
</a>
</g>
<text xml:space="preserve" text-anchor="start" x="112.75" y="-114.5" font-family="Helvetica,sans-Serif" font-size="10.00" fill="grey">block_switch</text>
</g>
<!-- Node6 -->
<g id="Node000006" class="node">
<title>Node6</title>
<g id="a_Node000006"><a xlink:href="class_dual_motor_controller.html" target="_top" xlink:title=" ">
<polygon fill="white" stroke="#666666" points="249.25,-164.25 146.25,-164.25 146.25,-145 249.25,-145 249.25,-164.25"/>
<text xml:space="preserve" text-anchor="middle" x="197.75" y="-150.75" font-family="Helvetica,sans-Serif" font-size="10.00">DualMotorController</text>
</a>
</g>
</g>
<!-- Node6&#45;&gt;Node3 -->
<g id="edge5_Node000003_Node000006" class="edge">
<title>Node6&#45;&gt;Node3</title>
<g id="a_edge5_Node000003_Node000006"><a xlink:title=" ">
<path fill="none" stroke="#9a32cd" stroke-dasharray="5,2" d="M187.91,-134.5C183.59,-126.62 178.25,-117.54 172.75,-109.75 168.38,-103.56 162.85,-97.12 158.3,-92.13"/>
<polygon fill="#9a32cd" stroke="#9a32cd" points="184.77,-136.04 192.55,-143.24 190.95,-132.76 184.77,-136.04"/>
</a>
</g>
<text xml:space="preserve" text-anchor="start" x="186.17" y="-114.5" font-family="Helvetica,sans-Serif" font-size="10.00" fill="grey">motor</text>
</g>
<!-- Node7 -->
<g id="Node000007" class="node">
<title>Node7</title>
<g id="a_Node000007"><a xlink:href="class_l298_n_motor_driver_mega.html" target="_top" xlink:title=" ">
<polygon fill="white" stroke="#666666" points="210.5,-252 91,-252 91,-232.75 210.5,-232.75 210.5,-252"/>
<text xml:space="preserve" text-anchor="middle" x="150.75" y="-238.5" font-family="Helvetica,sans-Serif" font-size="10.00">L298NMotorDriverMega</text>
</a>
</g>
</g>
<!-- Node7&#45;&gt;Node6 -->
<g id="edge6_Node000006_Node000007" class="edge">
<title>Node7&#45;&gt;Node6</title>
<g id="a_edge6_Node000006_Node000007"><a xlink:title=" ">
<path fill="none" stroke="#9a32cd" stroke-dasharray="5,2" d="M155.87,-221.46C159.45,-209.53 164.96,-194.39 172.5,-182.25 176.53,-175.76 182.33,-169.5 187.36,-164.69"/>
<polygon fill="#9a32cd" stroke="#9a32cd" points="152.52,-220.42 153.22,-230.99 159.27,-222.29 152.52,-220.42"/>
</a>
</g>
<text xml:space="preserve" text-anchor="start" x="175.5" y="-194.62" font-family="Helvetica,sans-Serif" font-size="10.00" fill="grey">dualDriver</text>
</g>
<!-- Node8 -->
<g id="Node000008" class="node">
<title>Node8</title>
<g id="a_Node000008"><a xlink:href="class_p_i_d_controller.html" target="_top" xlink:title=" ">
<polygon fill="white" stroke="#666666" points="303.38,-252 228.12,-252 228.12,-232.75 303.38,-232.75 303.38,-252"/>
<text xml:space="preserve" text-anchor="middle" x="265.75" y="-238.5" font-family="Helvetica,sans-Serif" font-size="10.00">PIDController</text>
</a>
</g>
</g>
<!-- Node8&#45;&gt;Node6 -->
<g id="edge7_Node000006_Node000008" class="edge">
<title>Node8&#45;&gt;Node6</title>
<g id="a_edge7_Node000006_Node000008"><a xlink:title=" ">
<path fill="none" stroke="#9a32cd" stroke-dasharray="5,2" d="M253.26,-222.97C244.96,-211.07 233.64,-195.41 222.75,-182.25 217.74,-176.19 211.71,-169.76 206.84,-164.73"/>
<polygon fill="#9a32cd" stroke="#9a32cd" points="250.27,-224.8 258.82,-231.05 256.03,-220.83 250.27,-224.8"/>
</a>
</g>
<text xml:space="preserve" text-anchor="start" x="249.84" y="-202.25" font-family="Helvetica,sans-Serif" font-size="10.00" fill="grey">_pid1</text>
<text xml:space="preserve" text-anchor="start" x="249.84" y="-187" font-family="Helvetica,sans-Serif" font-size="10.00" fill="grey">_pid2</text>
</g>
<!-- Node9 -->
<g id="Node000009" class="node">
<title>Node9</title>
<g id="a_Node000009"><a xlink:href="class_p_i_d.html" target="_top" xlink:title=" ">
<polygon fill="white" stroke="#666666" points="282.38,-308.25 249.12,-308.25 249.12,-289 282.38,-289 282.38,-308.25"/>
<text xml:space="preserve" text-anchor="middle" x="265.75" y="-294.75" font-family="Helvetica,sans-Serif" font-size="10.00">PID</text>
</a>
</g>
</g>
<!-- Node9&#45;&gt;Node8 -->
<g id="edge8_Node000008_Node000009" class="edge">
<title>Node9&#45;&gt;Node8</title>
<g id="a_edge8_Node000008_Node000009"><a xlink:title=" ">
<path fill="none" stroke="#63b8ff" d="M265.75,-277.44C265.75,-268.73 265.75,-258.99 265.75,-252.17"/>
<polygon fill="#63b8ff" stroke="#63b8ff" points="262.25,-277.15 265.75,-287.15 269.25,-277.15 262.25,-277.15"/>
</a>
</g>
</g>
<!-- Node10 -->
<g id="Node000010" class="node">
<title>Node10</title>
<g id="a_Node000010"><a xlink:href="class_encoder_wrapper.html" target="_top" xlink:title=" ">
<polygon fill="white" stroke="#666666" points="355.75,-164.25 267.75,-164.25 267.75,-145 355.75,-145 355.75,-164.25"/>
<text xml:space="preserve" text-anchor="middle" x="311.75" y="-150.75" font-family="Helvetica,sans-Serif" font-size="10.00">EncoderWrapper</text>
</a>
</g>
</g>
<!-- Node10&#45;&gt;Node3 -->
<g id="edge9_Node000003_Node000010" class="edge">
<title>Node10&#45;&gt;Node3</title>
<g id="a_edge9_Node000003_Node000010"><a xlink:title=" ">
<path fill="none" stroke="#9a32cd" stroke-dasharray="5,2" d="M283.06,-139.66C264.55,-130.79 239.89,-119.24 217.75,-109.75 203.42,-103.61 187.16,-97.22 174.14,-92.24"/>
<polygon fill="#9a32cd" stroke="#9a32cd" points="281.29,-142.69 291.82,-143.88 284.33,-136.38 281.29,-142.69"/>
</a>
</g>
<text xml:space="preserve" text-anchor="start" x="257.18" y="-114.5" font-family="Helvetica,sans-Serif" font-size="10.00" fill="grey">encoder</text>
</g>
</g>
</svg>
