<?xml version="1.0" encoding="UTF-8" standalone="no"?>
<!DOCTYPE svg PUBLIC "-//W3C//DTD SVG 1.1//EN"
 "http://www.w3.org/Graphics/SVG/1.1/DTD/svg11.dtd">
<!-- Generated by graphviz version 14.1.2 (20260124.0452)
 -->
<!-- Title: DeferredStep Pages: 1 -->
<svg width="82pt" height="115pt"
 viewBox="0.00 0.00 82.00 115.00" xmlns="http://www.w3.org/2000/svg" xmlns:xlink="http://www.w3.org/1999/xlink">
<g id="graph0" class="graph" transform="scale(1 1) rotate(0) translate(4 111)">
<title>DeferredStep</title>
<!-- Node1 -->
<g id="Node000001" class="node">
<title>Node1</title>
<g id="a_Node000001"><a xlink:title=" ">
<polygon fill="#999999" stroke="#666666" points="73.75,-19.25 0,-19.25 0,0 73.75,0 73.75,-19.25"/>
<text xml:space="preserve" text-anchor="middle" x="36.88" y="-5.75" font-family="Helvetica,sans-Serif" font-size="10.00">DeferredStep</text>
</a>
</g>
</g>
<!-- Node2 -->
<g id="Node000002" class="node">
<title>Node2</title>
<g id="a_Node000002"><a xlink:href="class_auto_step.html" target="_top" xlink:title=" ">
<polygon fill="white" stroke="#666666" points="65.12,-107 8.62,-107 8.62,-87.75 65.12,-87.75 65.12,-107"/>
<text xml:space="preserve" text-anchor="middle" x="36.88" y="-93.5" font-family="Helvetica,sans-Serif" font-size="10.00">AutoStep</text>
</a>
</g>
</g>
<!-- Node2&#45;&gt;Node1 -->
<g id="edge1_Node000001_Node000002" class="edge">
<title>Node2&#45;&gt;Node1</title>
<g id="a_edge1_Node000001_Node000002"><a xlink:title=" ">
<path fill="none" stroke="#63b8ff" d="M35.19,-76.03C35.06,-73.91 34.95,-71.79 34.88,-69.75 34.33,-55.32 34.33,-51.68 34.88,-37.25 35.1,-31.32 35.6,-24.66 36.04,-19.49"/>
<polygon fill="#63b8ff" stroke="#63b8ff" points="31.7,-76.29 35.93,-86 38.68,-75.77 31.7,-76.29"/>
</a>
</g>
</g>
<!-- Node2&#45;&gt;Node1 -->
<g id="edge2_Node000001_Node000002" class="edge">
<title>Node2&#45;&gt;Node1</title>
<g id="a_edge2_Node000001_Node000002"><a xlink:title=" ">
<path fill="none" stroke="#9a32cd" stroke-dasharray="5,2" d="M36.88,-76.04C36.88,-58.11 36.88,-32.83 36.88,-19.56"/>
<polygon fill="#9a32cd" stroke="#9a32cd" points="33.38,-76.01 36.88,-86.01 40.38,-76.01 33.38,-76.01"/>
</a>
</g>
<text xml:space="preserve" text-anchor="start" x="39.88" y="-57.25" font-family="Helvetica,sans-Serif" font-size="10.00" fill="grey">_child</text>
<text xml:space="preserve" text-anchor="start" x="39.88" y="-42" font-family="Helvetica,sans-Serif" font-size="10.00" fill="grey">_fn</text>
</g>
</g>
</svg>
