<?xml version="1.0" encoding="UTF-8" standalone="no"?>
<!DOCTYPE svg PUBLIC "-//W3C//DTD SVG 1.1//EN"
 "http://www.w3.org/Graphics/SVG/1.1/DTD/svg11.dtd">
<!-- Generated by graphviz version 14.1.2 (20260124.0452)
 -->
<!-- Title: MineBlockStep Pages: 1 -->
<svg width="182pt" height="172pt"
 viewBox="0.00 0.00 182.00 172.00" xmlns="http://www.w3.org/2000/svg" xmlns:xlink="http://www.w3.org/1999/xlink">
<g id="graph0" class="graph" transform="scale(1 1) rotate(0) translate(4 168.25)">
<title>MineBlockStep</title>
<!-- Node1 -->
<g id="Node000001" class="node">
<title>Node1</title>
<g id="a_Node000001"><a xlink:title=" ">
<polygon fill="#999999" stroke="#666666" points="93.25,-19.25 11.25,-19.25 11.25,0 93.25,0 93.25,-19.25"/>
<text xml:space="preserve" text-anchor="middle" x="52.25" y="-5.75" font-family="Helvetica,sans-Serif" font-size="10.00">MineBlockStep</text>
</a>
</g>
</g>
<!-- Node2 -->
<g id="Node000002" class="node">
<title>Node2</title>
<g id="a_Node000002"><a xlink:href="class_auto_step.html" target="_top" xlink:title=" ">
<polygon fill="white" stroke="#666666" points="56.5,-91.75 0,-91.75 0,-72.5 56.5,-72.5 56.5,-91.75"/>
<text xml:space="preserve" text-anchor="middle" x="28.25" y="-78.25" font-family="Helvetica,sans-Serif" font-size="10.00">AutoStep</text>
</a>
</g>
</g>
<!-- Node2&#45;&gt;Node1 -->
<g id="edge1_Node000001_Node000002" class="edge">
<title>Node2&#45;&gt;Node1</title>
<g id="a_edge1_Node000001_Node000002"><a xlink:title=" ">
<path fill="none" stroke="#63b8ff" d="M34.94,-61.47C39.6,-47.79 45.59,-30.2 49.16,-19.7"/>
<polygon fill="#63b8ff" stroke="#63b8ff" points="31.69,-60.17 31.78,-70.76 38.31,-62.42 31.69,-60.17"/>
</a>
</g>
</g>
<!-- Node3 -->
<g id="Node000003" class="node">
<title>Node3</title>
<g id="a_Node000003"><a xlink:href="class_miner.html" target="_top" xlink:title=" ">
<polygon fill="white" stroke="#666666" points="114.25,-91.75 74.25,-91.75 74.25,-72.5 114.25,-72.5 114.25,-91.75"/>
<text xml:space="preserve" text-anchor="middle" x="94.25" y="-78.25" font-family="Helvetica,sans-Serif" font-size="10.00">Miner</text>
</a>
</g>
</g>
<!-- Node3&#45;&gt;Node1 -->
<g id="edge2_Node000001_Node000003" class="edge">
<title>Node3&#45;&gt;Node1</title>
<g id="a_edge2_Node000001_Node000003"><a xlink:title=" ">
<path fill="none" stroke="#9a32cd" stroke-dasharray="5,2" d="M83.27,-62.7C75.03,-48.87 64.1,-30.52 57.66,-19.7"/>
<polygon fill="#9a32cd" stroke="#9a32cd" points="80.03,-64.1 88.16,-70.9 86.04,-60.51 80.03,-64.1"/>
</a>
</g>
<text xml:space="preserve" text-anchor="start" x="81.25" y="-42" font-family="Helvetica,sans-Serif" font-size="10.00" fill="grey">miner</text>
</g>
<!-- Node4 -->
<g id="Node000004" class="node">
<title>Node4</title>
<g id="a_Node000004"><a xlink:href="class_subsystem.html" target="_top" xlink:title=" ">
<polygon fill="white" stroke="#666666" points="83,-164.25 17.5,-164.25 17.5,-145 83,-145 83,-164.25"/>
<text xml:space="preserve" text-anchor="middle" x="50.25" y="-150.75" font-family="Helvetica,sans-Serif" font-size="10.00">Subsystem</text>
</a>
</g>
</g>
<!-- Node4&#45;&gt;Node3 -->
<g id="edge3_Node000003_Node000004" class="edge">
<title>Node4&#45;&gt;Node3</title>
<g id="a_edge3_Node000003_Node000004"><a xlink:title=" ">
<path fill="none" stroke="#63b8ff" d="M61.75,-135.2C70.38,-121.37 81.83,-103.02 88.58,-92.2"/>
<polygon fill="#63b8ff" stroke="#63b8ff" points="58.95,-133.08 56.62,-143.41 64.89,-136.78 58.95,-133.08"/>
</a>
</g>
</g>
<!-- Node5 -->
<g id="Node000005" class="node">
<title>Node5</title>
<g id="a_Node000005"><a xlink:href="class_servo_control.html" target="_top" xlink:title=" ">
<polygon fill="white" stroke="#666666" points="173.75,-164.25 100.75,-164.25 100.75,-145 173.75,-145 173.75,-164.25"/>
<text xml:space="preserve" text-anchor="middle" x="137.25" y="-150.75" font-family="Helvetica,sans-Serif" font-size="10.00">ServoControl</text>
</a>
</g>
</g>
<!-- Node5&#45;&gt;Node3 -->
<g id="edge4_Node000003_Node000005" class="edge">
<title>Node5&#45;&gt;Node3</title>
<g id="a_edge4_Node000003_Node000005"><a xlink:title=" ">
<path fill="none" stroke="#9a32cd" stroke-dasharray="5,2" d="M126.01,-135.2C117.58,-121.37 106.39,-103.02 99.79,-92.2"/>
<polygon fill="#9a32cd" stroke="#9a32cd" points="122.82,-136.69 131.02,-143.4 128.8,-133.04 122.82,-136.69"/>
</a>
</g>
<text xml:space="preserve" text-anchor="start" x="123.87" y="-114.5" font-family="Helvetica,sans-Serif" font-size="10.00" fill="grey">servo</text>
</g>
</g>
</svg>
