<?xml version="1.0" encoding="UTF-8" standalone="no"?>
<!DOCTYPE svg PUBLIC "-//W3C//DTD SVG 1.1//EN"
 "http://www.w3.org/Graphics/SVG/1.1/DTD/svg11.dtd">
<!-- Generated by graphviz version 14.1.2 (20260124.0452)
 -->
<!-- Title: MotorController::setSpeed Pages: 1 -->
<svg width="457pt" height="100pt"
 viewBox="0.00 0.00 457.00 100.00" xmlns="http://www.w3.org/2000/svg" xmlns:xlink="http://www.w3.org/1999/xlink">
<g id="graph0" class="graph" transform="scale(1 1) rotate(0) translate(4 95.88)">
<title>MotorController::setSpeed</title>
<!-- Node1 -->
<g id="Node000001" class="node">
<title>Node1</title>
<g id="a_Node000001"><a xlink:title=" ">
<polygon fill="#999999" stroke="#666666" points="130,-61.25 0,-61.25 0,-42 130,-42 130,-61.25"/>
<text xml:space="preserve" text-anchor="middle" x="65" y="-47.75" font-family="Helvetica,sans-Serif" font-size="10.00">MotorController::setSpeed</text>
</a>
</g>
</g>
<!-- Node2 -->
<g id="Node000002" class="node">
<title>Node2</title>
<g id="a_Node000002"><a xlink:href="class_motor_controller.html#ae7f7a697a2d194eba4cba3fa5a395e1f" target="_top" xlink:title=" ">
<polygon fill="white" stroke="#666666" points="296,-91.88 166,-91.88 166,-61.38 296,-61.38 296,-91.88"/>
<text xml:space="preserve" text-anchor="start" x="174" y="-78.38" font-family="Helvetica,sans-Serif" font-size="10.00">MotorController::setSpeed</text>
<text xml:space="preserve" text-anchor="middle" x="231" y="-67.12" font-family="Helvetica,sans-Serif" font-size="10.00">L298N</text>
</a>
</g>
</g>
<!-- Node1&#45;&gt;Node2 -->
<g id="edge1_Node000001_Node000002" class="edge">
<title>Node1&#45;&gt;Node2</title>
<g id="a_edge1_Node000001_Node000002"><a xlink:title=" ">
<path fill="none" stroke="#63b8ff" d="M130.35,-61.43C138.21,-62.63 146.31,-63.87 154.33,-65.09"/>
<polygon fill="#63b8ff" stroke="#63b8ff" points="153.66,-68.53 164.07,-66.58 154.72,-61.61 153.66,-68.53"/>
</a>
</g>
</g>
<!-- Node3 -->
<g id="Node000003" class="node">
<title>Node3</title>
<g id="a_Node000003"><a xlink:href="class_motor_controller.html#aca9d68ab9cb3b64e6b2b33ff93f79664" target="_top" xlink:title=" ">
<polygon fill="white" stroke="#666666" points="296,-42.88 166,-42.88 166,-12.37 296,-12.37 296,-42.88"/>
<text xml:space="preserve" text-anchor="start" x="174" y="-29.38" font-family="Helvetica,sans-Serif" font-size="10.00">MotorController::setSpeed</text>
<text xml:space="preserve" text-anchor="middle" x="231" y="-18.12" font-family="Helvetica,sans-Serif" font-size="10.00">TB9051</text>
</a>
</g>
</g>
<!-- Node1&#45;&gt;Node3 -->
<g id="edge2_Node000001_Node000003" class="edge">
<title>Node1&#45;&gt;Node3</title>
<g id="a_edge2_Node000001_Node000003"><a xlink:title=" ">
<path fill="none" stroke="#63b8ff" d="M130.35,-42.21C138.21,-41.06 146.31,-39.87 154.33,-38.7"/>
<polygon fill="#63b8ff" stroke="#63b8ff" points="154.68,-42.18 164.07,-37.27 153.67,-35.26 154.68,-42.18"/>
</a>
</g>
</g>
<!-- Node4 -->
<g id="Node000004" class="node">
<title>Node4</title>
<g id="a_Node000004"><a xlink:href="class_motor_controller.html#a28b151f09bca93a7c300868d2947667f" target="_top" xlink:title=" ">
<polygon fill="white" stroke="#666666" points="447,-56.25 334.25,-56.25 334.25,-37 447,-37 447,-56.25"/>
<text xml:space="preserve" text-anchor="middle" x="390.62" y="-42.75" font-family="Helvetica,sans-Serif" font-size="10.00">MotorController::coast</text>
</a>
</g>
</g>
<!-- Node3&#45;&gt;Node4 -->
<g id="edge3_Node000003_Node000004" class="edge">
<title>Node3&#45;&gt;Node4</title>
<g id="a_edge3_Node000003_Node000004"><a xlink:title=" ">
<path fill="none" stroke="#63b8ff" d="M296.11,-35.35C304.98,-36.42 314.11,-37.52 323.02,-38.6"/>
<polygon fill="#63b8ff" stroke="#63b8ff" points="322.31,-42.04 332.66,-39.76 323.15,-35.09 322.31,-42.04"/>
</a>
</g>
</g>
<!-- Node5 -->
<g id="Node000005" class="node">
<title>Node5</title>
<g id="a_Node000005"><a xlink:href="class_motor_controller.html#ae86064872aabbe0df6df0c51828f3fd9" target="_top" xlink:title=" ">
<polygon fill="white" stroke="#666666" points="449.25,-19.25 332,-19.25 332,0 449.25,0 449.25,-19.25"/>
<text xml:space="preserve" text-anchor="middle" x="390.62" y="-5.75" font-family="Helvetica,sans-Serif" font-size="10.00">MotorController::enable</text>
</a>
</g>
</g>
<!-- Node3&#45;&gt;Node5 -->
<g id="edge4_Node000003_Node000005" class="edge">
<title>Node3&#45;&gt;Node5</title>
<g id="a_edge4_Node000003_Node000005"><a xlink:title=" ">
<path fill="none" stroke="#63b8ff" d="M296.11,-20.3C304.11,-19.39 312.31,-18.45 320.38,-17.53"/>
<polygon fill="#63b8ff" stroke="#63b8ff" points="320.62,-21.03 330.15,-16.42 319.82,-14.07 320.62,-21.03"/>
</a>
</g>
</g>
</g>
</svg>
