<?xml version="1.0" encoding="UTF-8" standalone="no"?>
<!DOCTYPE svg PUBLIC "-//W3C//DTD SVG 1.1//EN"
 "http://www.w3.org/Graphics/SVG/1.1/DTD/svg11.dtd">
<!-- Generated by graphviz version 14.1.2 (20260124.0452)
 -->
<!-- Title: MotorController::setSpeedTB9051 Pages: 1 -->
<svg width="291pt" height="64pt"
 viewBox="0.00 0.00 291.00 64.00" xmlns="http://www.w3.org/2000/svg" xmlns:xlink="http://www.w3.org/1999/xlink">
<g id="graph0" class="graph" transform="scale(1 1) rotate(0) translate(4 60.25)">
<title>MotorController::setSpeedTB9051</title>
<!-- Node1 -->
<g id="Node000001" class="node">
<title>Node1</title>
<g id="a_Node000001"><a xlink:title=" ">
<polygon fill="#999999" stroke="#666666" points="130,-42.88 0,-42.88 0,-12.37 130,-12.37 130,-42.88"/>
<text xml:space="preserve" text-anchor="start" x="8" y="-29.38" font-family="Helvetica,sans-Serif" font-size="10.00">MotorController::setSpeed</text>
<text xml:space="preserve" text-anchor="middle" x="65" y="-18.12" font-family="Helvetica,sans-Serif" font-size="10.00">TB9051</text>
</a>
</g>
</g>
<!-- Node2 -->
<g id="Node000002" class="node">
<title>Node2</title>
<g id="a_Node000002"><a xlink:href="class_motor_controller.html#a28b151f09bca93a7c300868d2947667f" target="_top" xlink:title=" ">
<polygon fill="white" stroke="#666666" points="281,-56.25 168.25,-56.25 168.25,-37 281,-37 281,-56.25"/>
<text xml:space="preserve" text-anchor="middle" x="224.62" y="-42.75" font-family="Helvetica,sans-Serif" font-size="10.00">MotorController::coast</text>
</a>
</g>
</g>
<!-- Node1&#45;&gt;Node2 -->
<g id="edge1_Node000001_Node000002" class="edge">
<title>Node1&#45;&gt;Node2</title>
<g id="a_edge1_Node000001_Node000002"><a xlink:title=" ">
<path fill="none" stroke="#63b8ff" d="M130.11,-35.35C138.98,-36.42 148.11,-37.52 157.02,-38.6"/>
<polygon fill="#63b8ff" stroke="#63b8ff" points="156.31,-42.04 166.66,-39.76 157.15,-35.09 156.31,-42.04"/>
</a>
</g>
</g>
<!-- Node3 -->
<g id="Node000003" class="node">
<title>Node3</title>
<g id="a_Node000003"><a xlink:href="class_motor_controller.html#ae86064872aabbe0df6df0c51828f3fd9" target="_top" xlink:title=" ">
<polygon fill="white" stroke="#666666" points="283.25,-19.25 166,-19.25 166,0 283.25,0 283.25,-19.25"/>
<text xml:space="preserve" text-anchor="middle" x="224.62" y="-5.75" font-family="Helvetica,sans-Serif" font-size="10.00">MotorController::enable</text>
</a>
</g>
</g>
<!-- Node1&#45;&gt;Node3 -->
<g id="edge2_Node000001_Node000003" class="edge">
<title>Node1&#45;&gt;Node3</title>
<g id="a_edge2_Node000001_Node000003"><a xlink:title=" ">
<path fill="none" stroke="#63b8ff" d="M130.11,-20.3C138.11,-19.39 146.31,-18.45 154.38,-17.53"/>
<polygon fill="#63b8ff" stroke="#63b8ff" points="154.62,-21.03 164.15,-16.42 153.82,-14.07 154.62,-21.03"/>
</a>
</g>
</g>
</g>
</svg>
