<?xml version="1.0" encoding="UTF-8" standalone="no"?>
<!DOCTYPE svg PUBLIC "-//W3C//DTD SVG 1.1//EN"
 "http://www.w3.org/Graphics/SVG/1.1/DTD/svg11.dtd">
<!-- Generated by graphviz version 14.1.2 (20260124.0452)
 -->
<!-- Title: Graphical Class Hierarchy Pages: 1 -->
<svg width="216pt" height="767pt"
 viewBox="0.00 0.00 216.00 767.00" xmlns="http://www.w3.org/2000/svg" xmlns:xlink="http://www.w3.org/1999/xlink">
<g id="graph0" class="graph" transform="scale(1 1) rotate(0) translate(4 763.25)">
<title>Graphical Class Hierarchy</title>
<!-- Node0 -->
<g id="Node000000" class="node">
<title>Node0</title>
<g id="a_Node000000"><a xlink:href="class_auto_step.html" target="_top" xlink:title=" ">
<polygon fill="white" stroke="#666666" points="56.5,-389.25 0,-389.25 0,-370 56.5,-370 56.5,-389.25"/>
<text xml:space="preserve" text-anchor="middle" x="28.25" y="-375.75" font-family="Helvetica,sans-Serif" font-size="10.00">AutoStep</text>
</a>
</g>
</g>
<!-- Node1 -->
<g id="Node000001" class="node">
<title>Node1</title>
<g id="a_Node000001"><a xlink:href="class_accelerate_straight_line.html" target="_top" xlink:title=" ">
<polygon fill="white" stroke="#666666" points="207.12,-759.25 92.88,-759.25 92.88,-740 207.12,-740 207.12,-759.25"/>
<text xml:space="preserve" text-anchor="middle" x="150" y="-745.75" font-family="Helvetica,sans-Serif" font-size="10.00">AccelerateStraightLine</text>
</a>
</g>
</g>
<!-- Node0&#45;&gt;Node1 -->
<g id="edge1_Node000000_Node000001" class="edge">
<title>Node0&#45;&gt;Node1</title>
<g id="a_edge1_Node000000_Node000001"><a xlink:title=" ">
<path fill="none" stroke="#63b8ff" d="M30.25,-400.72C33.9,-468.87 48.65,-681.64 92.5,-731.62 95.28,-734.8 98.62,-737.42 102.27,-739.58"/>
<polygon fill="#63b8ff" stroke="#63b8ff" points="33.76,-400.75 29.76,-390.94 26.77,-401.1 33.76,-400.75"/>
</a>
</g>
</g>
<!-- Node2 -->
<g id="Node000002" class="node">
<title>Node2</title>
<g id="a_Node000002"><a xlink:href="class_advance_cycle_step.html" target="_top" xlink:title=" ">
<polygon fill="white" stroke="#666666" points="200,-722.25 100,-722.25 100,-703 200,-703 200,-722.25"/>
<text xml:space="preserve" text-anchor="middle" x="150" y="-708.75" font-family="Helvetica,sans-Serif" font-size="10.00">AdvanceCycleStep</text>
</a>
</g>
</g>
<!-- Node0&#45;&gt;Node2 -->
<g id="edge2_Node000000_Node000002" class="edge">
<title>Node0&#45;&gt;Node2</title>
<g id="a_edge2_Node000000_Node000002"><a xlink:title=" ">
<path fill="none" stroke="#63b8ff" d="M30.76,-400.95C35.66,-464.46 53.16,-650.69 92.5,-694.62 95.32,-697.77 98.68,-700.37 102.34,-702.52"/>
<polygon fill="#63b8ff" stroke="#63b8ff" points="34.26,-400.88 30.03,-391.16 27.28,-401.39 34.26,-400.88"/>
</a>
</g>
</g>
<!-- Node3 -->
<g id="Node000003" class="node">
<title>Node3</title>
<g id="a_Node000003"><a xlink:href="class_composite_step.html" target="_top" xlink:title=" ">
<polygon fill="white" stroke="#666666" points="191.75,-685.25 108.25,-685.25 108.25,-666 191.75,-666 191.75,-685.25"/>
<text xml:space="preserve" text-anchor="middle" x="150" y="-671.75" font-family="Helvetica,sans-Serif" font-size="10.00">CompositeStep</text>
</a>
</g>
</g>
<!-- Node0&#45;&gt;Node3 -->
<g id="edge3_Node000000_Node000003" class="edge">
<title>Node0&#45;&gt;Node3</title>
<g id="a_edge3_Node000000_Node000003"><a xlink:title=" ">
<path fill="none" stroke="#63b8ff" d="M31.39,-401.07C37.64,-459.5 57.63,-619.67 92.5,-657.62 96.75,-662.25 102.18,-665.69 107.99,-668.25"/>
<polygon fill="#63b8ff" stroke="#63b8ff" points="34.88,-400.75 30.37,-391.16 27.91,-401.47 34.88,-400.75"/>
</a>
</g>
</g>
<!-- Node4 -->
<g id="Node000004" class="node">
<title>Node4</title>
<g id="a_Node000004"><a xlink:href="class_deferred_step.html" target="_top" xlink:title=" ">
<polygon fill="white" stroke="#666666" points="186.88,-648.25 113.12,-648.25 113.12,-629 186.88,-629 186.88,-648.25"/>
<text xml:space="preserve" text-anchor="middle" x="150" y="-634.75" font-family="Helvetica,sans-Serif" font-size="10.00">DeferredStep</text>
</a>
</g>
</g>
<!-- Node0&#45;&gt;Node4 -->
<g id="edge4_Node000000_Node000004" class="edge">
<title>Node0&#45;&gt;Node4</title>
<g id="a_edge4_Node000000_Node000004"><a xlink:title=" ">
<path fill="none" stroke="#63b8ff" d="M28.44,-401C27.9,-447.41 33.28,-558.26 92.5,-620.62 97.96,-626.37 105.24,-630.29 112.77,-632.96"/>
<polygon fill="#63b8ff" stroke="#63b8ff" points="31.94,-401.3 28.68,-391.22 24.94,-401.13 31.94,-401.3"/>
</a>
</g>
</g>
<!-- Node5 -->
<g id="Node000005" class="node">
<title>Node5</title>
<g id="a_Node000005"><a xlink:href="class_delay_step.html" target="_top" xlink:title=" ">
<polygon fill="white" stroke="#666666" points="180.88,-611.25 119.12,-611.25 119.12,-592 180.88,-592 180.88,-611.25"/>
<text xml:space="preserve" text-anchor="middle" x="150" y="-597.75" font-family="Helvetica,sans-Serif" font-size="10.00">DelayStep</text>
</a>
</g>
</g>
<!-- Node0&#45;&gt;Node5 -->
<g id="edge5_Node000000_Node000005" class="edge">
<title>Node0&#45;&gt;Node5</title>
<g id="a_edge5_Node000000_Node000005"><a xlink:title=" ">
<path fill="none" stroke="#63b8ff" d="M29.68,-401.05C31.69,-442.19 41.96,-532.69 92.5,-583.62 99.53,-590.71 109.35,-595.01 118.83,-597.62"/>
<polygon fill="#63b8ff" stroke="#63b8ff" points="33.19,-401.13 29.34,-391.26 26.19,-401.38 33.19,-401.13"/>
</a>
</g>
</g>
<!-- Node6 -->
<g id="Node000006" class="node">
<title>Node6</title>
<g id="a_Node000006"><a xlink:href="class_detect_block_step.html" target="_top" xlink:title=" ">
<polygon fill="white" stroke="#666666" points="195.12,-574.25 104.88,-574.25 104.88,-555 195.12,-555 195.12,-574.25"/>
<text xml:space="preserve" text-anchor="middle" x="150" y="-560.75" font-family="Helvetica,sans-Serif" font-size="10.00">DetectBlockStep</text>
</a>
</g>
</g>
<!-- Node0&#45;&gt;Node6 -->
<g id="edge6_Node000000_Node000006" class="edge">
<title>Node0&#45;&gt;Node6</title>
<g id="a_edge6_Node000000_Node000006"><a xlink:title=" ">
<path fill="none" stroke="#63b8ff" d="M31.38,-400.77C36.06,-435.99 50.41,-506.74 92.5,-546.62 96.01,-549.95 100.14,-552.67 104.54,-554.88"/>
<polygon fill="#63b8ff" stroke="#63b8ff" points="34.88,-400.55 30.24,-391.03 27.93,-401.37 34.88,-400.55"/>
</a>
</g>
</g>
<!-- Node7 -->
<g id="Node000007" class="node">
<title>Node7</title>
<g id="a_Node000007"><a xlink:href="class_drive_arc.html" target="_top" xlink:title=" ">
<polygon fill="white" stroke="#666666" points="177.12,-537.25 122.88,-537.25 122.88,-518 177.12,-518 177.12,-537.25"/>
<text xml:space="preserve" text-anchor="middle" x="150" y="-523.75" font-family="Helvetica,sans-Serif" font-size="10.00">DriveArc</text>
</a>
</g>
</g>
<!-- Node0&#45;&gt;Node7 -->
<g id="edge7_Node000000_Node000007" class="edge">
<title>Node0&#45;&gt;Node7</title>
<g id="a_edge7_Node000000_Node000007"><a xlink:title=" ">
<path fill="none" stroke="#63b8ff" d="M34.03,-400.9C41.56,-429.64 58.93,-480.59 92.5,-509.62 100.91,-516.9 112.28,-521.24 122.61,-523.83"/>
<polygon fill="#63b8ff" stroke="#63b8ff" points="37.43,-400.1 31.66,-391.22 30.63,-401.76 37.43,-400.1"/>
</a>
</g>
</g>
<!-- Node8 -->
<g id="Node000008" class="node">
<title>Node8</title>
<g id="a_Node000008"><a xlink:href="class_drive_distance.html" target="_top" xlink:title=" ">
<polygon fill="white" stroke="#666666" points="189.12,-500.25 110.88,-500.25 110.88,-481 189.12,-481 189.12,-500.25"/>
<text xml:space="preserve" text-anchor="middle" x="150" y="-486.75" font-family="Helvetica,sans-Serif" font-size="10.00">DriveDistance</text>
</a>
</g>
</g>
<!-- Node0&#45;&gt;Node8 -->
<g id="edge8_Node000000_Node000008" class="edge">
<title>Node0&#45;&gt;Node8</title>
<g id="a_edge8_Node000000_Node000008"><a xlink:title=" ">
<path fill="none" stroke="#63b8ff" d="M38.16,-400.05C48.36,-421.16 67.01,-453.61 92.5,-472.62 97.86,-476.63 104.15,-479.76 110.53,-482.2"/>
<polygon fill="#63b8ff" stroke="#63b8ff" points="41.36,-398.65 34,-391.03 35,-401.58 41.36,-398.65"/>
</a>
</g>
</g>
<!-- Node9 -->
<g id="Node000009" class="node">
<title>Node9</title>
<g id="a_Node000009"><a xlink:href="class_drive_line_to_wall_step.html" target="_top" xlink:title=" ">
<polygon fill="white" stroke="#666666" points="203.38,-463.25 96.62,-463.25 96.62,-444 203.38,-444 203.38,-463.25"/>
<text xml:space="preserve" text-anchor="middle" x="150" y="-449.75" font-family="Helvetica,sans-Serif" font-size="10.00">DriveLineToWallStep</text>
</a>
</g>
</g>
<!-- Node0&#45;&gt;Node9 -->
<g id="edge9_Node000000_Node000009" class="edge">
<title>Node0&#45;&gt;Node9</title>
<g id="a_edge9_Node000000_Node000009"><a xlink:title=" ">
<path fill="none" stroke="#63b8ff" d="M45.85,-397.87C57.8,-410.05 74.85,-425.6 92.5,-435.62 97.96,-438.73 104.03,-441.37 110.1,-443.6"/>
<polygon fill="#63b8ff" stroke="#63b8ff" points="48.59,-395.67 39.17,-390.83 43.51,-400.49 48.59,-395.67"/>
</a>
</g>
</g>
<!-- Node10 -->
<g id="Node000010" class="node">
<title>Node10</title>
<g id="a_Node000010"><a xlink:href="class_drive_radius_angle.html" target="_top" xlink:title=" ">
<polygon fill="white" stroke="#666666" points="197.38,-426.25 102.62,-426.25 102.62,-407 197.38,-407 197.38,-426.25"/>
<text xml:space="preserve" text-anchor="middle" x="150" y="-412.75" font-family="Helvetica,sans-Serif" font-size="10.00">DriveRadiusAngle</text>
</a>
</g>
</g>
<!-- Node0&#45;&gt;Node10 -->
<g id="edge10_Node000000_Node000010" class="edge">
<title>Node0&#45;&gt;Node10</title>
<g id="a_edge10_Node000000_Node000010"><a xlink:title=" ">
<path fill="none" stroke="#63b8ff" d="M67.71,-391.51C83.46,-396.38 101.49,-401.94 116.56,-406.6"/>
<polygon fill="#63b8ff" stroke="#63b8ff" points="68.76,-388.17 58.17,-388.56 66.69,-394.86 68.76,-388.17"/>
</a>
</g>
</g>
<!-- Node11 -->
<g id="Node000011" class="node">
<title>Node11</title>
<g id="a_Node000011"><a xlink:href="class_drive_radius_at_velocity.html" target="_top" xlink:title=" ">
<polygon fill="white" stroke="#666666" points="207.5,-389.25 92.5,-389.25 92.5,-370 207.5,-370 207.5,-389.25"/>
<text xml:space="preserve" text-anchor="middle" x="150" y="-375.75" font-family="Helvetica,sans-Serif" font-size="10.00">DriveRadiusAtVelocity</text>
</a>
</g>
</g>
<!-- Node0&#45;&gt;Node11 -->
<g id="edge11_Node000000_Node000011" class="edge">
<title>Node0&#45;&gt;Node11</title>
<g id="a_edge11_Node000000_Node000011"><a xlink:title=" ">
<path fill="none" stroke="#63b8ff" d="M68.02,-379.62C75.79,-379.62 84.11,-379.62 92.34,-379.62"/>
<polygon fill="#63b8ff" stroke="#63b8ff" points="68.24,-376.13 58.24,-379.63 68.24,-383.13 68.24,-376.13"/>
</a>
</g>
</g>
<!-- Node12 -->
<g id="Node000012" class="node">
<title>Node12</title>
<g id="a_Node000012"><a xlink:href="class_drive_to_wall_step.html" target="_top" xlink:title=" ">
<polygon fill="white" stroke="#666666" points="194.38,-352.25 105.62,-352.25 105.62,-333 194.38,-333 194.38,-352.25"/>
<text xml:space="preserve" text-anchor="middle" x="150" y="-338.75" font-family="Helvetica,sans-Serif" font-size="10.00">DriveToWallStep</text>
</a>
</g>
</g>
<!-- Node0&#45;&gt;Node12 -->
<g id="edge12_Node000000_Node000012" class="edge">
<title>Node0&#45;&gt;Node12</title>
<g id="a_edge12_Node000000_Node000012"><a xlink:title=" ">
<path fill="none" stroke="#63b8ff" d="M67.71,-367.74C83.46,-362.87 101.49,-357.31 116.56,-352.65"/>
<polygon fill="#63b8ff" stroke="#63b8ff" points="66.69,-364.39 58.17,-370.69 68.76,-371.08 66.69,-364.39"/>
</a>
</g>
</g>
<!-- Node13 -->
<g id="Node000013" class="node">
<title>Node13</title>
<g id="a_Node000013"><a xlink:href="class_fire_step.html" target="_top" xlink:title=" ">
<polygon fill="white" stroke="#666666" points="176.38,-315.25 123.62,-315.25 123.62,-296 176.38,-296 176.38,-315.25"/>
<text xml:space="preserve" text-anchor="middle" x="150" y="-301.75" font-family="Helvetica,sans-Serif" font-size="10.00">FireStep</text>
</a>
</g>
</g>
<!-- Node0&#45;&gt;Node13 -->
<g id="edge13_Node000000_Node000013" class="edge">
<title>Node0&#45;&gt;Node13</title>
<g id="a_edge13_Node000000_Node000013"><a xlink:title=" ">
<path fill="none" stroke="#63b8ff" d="M45.85,-361.38C57.8,-349.2 74.85,-333.65 92.5,-323.62 101.99,-318.24 113.31,-314.22 123.31,-311.37"/>
<polygon fill="#63b8ff" stroke="#63b8ff" points="43.51,-358.76 39.17,-368.42 48.59,-363.58 43.51,-358.76"/>
</a>
</g>
</g>
<!-- Node14 -->
<g id="Node000014" class="node">
<title>Node14</title>
<g id="a_Node000014"><a xlink:href="class_follow_line_step.html" target="_top" xlink:title=" ">
<polygon fill="white" stroke="#666666" points="191.38,-278.25 108.62,-278.25 108.62,-259 191.38,-259 191.38,-278.25"/>
<text xml:space="preserve" text-anchor="middle" x="150" y="-264.75" font-family="Helvetica,sans-Serif" font-size="10.00">FollowLineStep</text>
</a>
</g>
</g>
<!-- Node0&#45;&gt;Node14 -->
<g id="edge14_Node000000_Node000014" class="edge">
<title>Node0&#45;&gt;Node14</title>
<g id="a_edge14_Node000000_Node000014"><a xlink:title=" ">
<path fill="none" stroke="#63b8ff" d="M38.16,-359.2C48.36,-338.09 67.01,-305.64 92.5,-286.62 97.2,-283.12 102.61,-280.28 108.18,-277.98"/>
<polygon fill="#63b8ff" stroke="#63b8ff" points="35,-357.67 34,-368.22 41.36,-360.6 35,-357.67"/>
</a>
</g>
</g>
<!-- Node15 -->
<g id="Node000015" class="node">
<title>Node15</title>
<g id="a_Node000015"><a xlink:href="class_index_block_step.html" target="_top" xlink:title=" ">
<polygon fill="white" stroke="#666666" points="192.5,-241.25 107.5,-241.25 107.5,-222 192.5,-222 192.5,-241.25"/>
<text xml:space="preserve" text-anchor="middle" x="150" y="-227.75" font-family="Helvetica,sans-Serif" font-size="10.00">IndexBlockStep</text>
</a>
</g>
</g>
<!-- Node0&#45;&gt;Node15 -->
<g id="edge15_Node000000_Node000015" class="edge">
<title>Node0&#45;&gt;Node15</title>
<g id="a_edge15_Node000000_Node000015"><a xlink:title=" ">
<path fill="none" stroke="#63b8ff" d="M34.03,-358.35C41.56,-329.61 58.93,-278.66 92.5,-249.62 96.78,-245.92 101.83,-242.98 107.12,-240.64"/>
<polygon fill="#63b8ff" stroke="#63b8ff" points="30.63,-357.49 31.66,-368.03 37.43,-359.15 30.63,-357.49"/>
</a>
</g>
</g>
<!-- Node16 -->
<g id="Node000016" class="node">
<title>Node16</title>
<g id="a_Node000016"><a xlink:href="class_mine_block_step.html" target="_top" xlink:title=" ">
<polygon fill="white" stroke="#666666" points="191,-204.25 109,-204.25 109,-185 191,-185 191,-204.25"/>
<text xml:space="preserve" text-anchor="middle" x="150" y="-190.75" font-family="Helvetica,sans-Serif" font-size="10.00">MineBlockStep</text>
</a>
</g>
</g>
<!-- Node0&#45;&gt;Node16 -->
<g id="edge16_Node000000_Node000016" class="edge">
<title>Node0&#45;&gt;Node16</title>
<g id="a_edge16_Node000000_Node000016"><a xlink:title=" ">
<path fill="none" stroke="#63b8ff" d="M31.38,-358.48C36.06,-323.26 50.41,-252.51 92.5,-212.62 97.06,-208.31 102.65,-205.02 108.53,-202.53"/>
<polygon fill="#63b8ff" stroke="#63b8ff" points="27.93,-357.88 30.24,-368.22 34.88,-358.7 27.93,-357.88"/>
</a>
</g>
</g>
<!-- Node17 -->
<g id="Node000017" class="node">
<title>Node17</title>
<g id="a_Node000017"><a xlink:href="class_parallel_step.html" target="_top" xlink:title=" ">
<polygon fill="white" stroke="#666666" points="184.25,-167.25 115.75,-167.25 115.75,-148 184.25,-148 184.25,-167.25"/>
<text xml:space="preserve" text-anchor="middle" x="150" y="-153.75" font-family="Helvetica,sans-Serif" font-size="10.00">ParallelStep</text>
</a>
</g>
</g>
<!-- Node0&#45;&gt;Node17 -->
<g id="edge17_Node000000_Node000017" class="edge">
<title>Node0&#45;&gt;Node17</title>
<g id="a_edge17_Node000000_Node000017"><a xlink:title=" ">
<path fill="none" stroke="#63b8ff" d="M29.68,-358.2C31.69,-317.06 41.96,-226.56 92.5,-175.62 98.66,-169.41 106.96,-165.34 115.3,-162.68"/>
<polygon fill="#63b8ff" stroke="#63b8ff" points="26.19,-357.87 29.34,-367.99 33.19,-358.12 26.19,-357.87"/>
</a>
</g>
</g>
<!-- Node18 -->
<g id="Node000018" class="node">
<title>Node18</title>
<g id="a_Node000018"><a xlink:href="class_place_on_table_step.html" target="_top" xlink:title=" ">
<polygon fill="white" stroke="#666666" points="198.5,-130.25 101.5,-130.25 101.5,-111 198.5,-111 198.5,-130.25"/>
<text xml:space="preserve" text-anchor="middle" x="150" y="-116.75" font-family="Helvetica,sans-Serif" font-size="10.00">PlaceOnTableStep</text>
</a>
</g>
</g>
<!-- Node0&#45;&gt;Node18 -->
<g id="edge18_Node000000_Node000018" class="edge">
<title>Node0&#45;&gt;Node18</title>
<g id="a_edge18_Node000000_Node000018"><a xlink:title=" ">
<path fill="none" stroke="#63b8ff" d="M28.44,-358.25C27.9,-311.84 33.28,-200.99 92.5,-138.62 95.55,-135.41 99.17,-132.78 103.08,-130.61"/>
<polygon fill="#63b8ff" stroke="#63b8ff" points="24.94,-358.12 28.68,-368.03 31.94,-357.95 24.94,-358.12"/>
</a>
</g>
</g>
<!-- Node19 -->
<g id="Node000019" class="node">
<title>Node19</title>
<g id="a_Node000019"><a xlink:href="class_reject_block_step.html" target="_top" xlink:title=" ">
<polygon fill="white" stroke="#666666" points="194.75,-93.25 105.25,-93.25 105.25,-74 194.75,-74 194.75,-93.25"/>
<text xml:space="preserve" text-anchor="middle" x="150" y="-79.75" font-family="Helvetica,sans-Serif" font-size="10.00">RejectBlockStep</text>
</a>
</g>
</g>
<!-- Node0&#45;&gt;Node19 -->
<g id="edge19_Node000000_Node000019" class="edge">
<title>Node0&#45;&gt;Node19</title>
<g id="a_edge19_Node000000_Node000019"><a xlink:title=" ">
<path fill="none" stroke="#63b8ff" d="M31.39,-358.18C37.64,-299.75 57.63,-139.58 92.5,-101.62 95.98,-97.83 100.26,-94.84 104.89,-92.47"/>
<polygon fill="#63b8ff" stroke="#63b8ff" points="27.91,-357.78 30.37,-368.09 34.88,-358.5 27.91,-357.78"/>
</a>
</g>
</g>
<!-- Node20 -->
<g id="Node000020" class="node">
<title>Node20</title>
<g id="a_Node000020"><a xlink:href="class_replan_step.html" target="_top" xlink:title=" ">
<polygon fill="white" stroke="#666666" points="183.5,-56.25 116.5,-56.25 116.5,-37 183.5,-37 183.5,-56.25"/>
<text xml:space="preserve" text-anchor="middle" x="150" y="-42.75" font-family="Helvetica,sans-Serif" font-size="10.00">ReplanStep</text>
</a>
</g>
</g>
<!-- Node0&#45;&gt;Node20 -->
<g id="edge20_Node000000_Node000020" class="edge">
<title>Node0&#45;&gt;Node20</title>
<g id="a_edge20_Node000000_Node000020"><a xlink:title=" ">
<path fill="none" stroke="#63b8ff" d="M30.76,-358.3C35.66,-294.79 53.16,-108.56 92.5,-64.62 98.61,-57.8 107.3,-53.54 116.04,-50.9"/>
<polygon fill="#63b8ff" stroke="#63b8ff" points="27.28,-357.86 30.03,-368.09 34.26,-358.37 27.28,-357.86"/>
</a>
</g>
</g>
<!-- Node21 -->
<g id="Node000021" class="node">
<title>Node21</title>
<g id="a_Node000021"><a xlink:href="class_strategy_controller_step.html" target="_top" xlink:title=" ">
<polygon fill="white" stroke="#666666" points="207.5,-19.25 92.5,-19.25 92.5,0 207.5,0 207.5,-19.25"/>
<text xml:space="preserve" text-anchor="middle" x="150" y="-5.75" font-family="Helvetica,sans-Serif" font-size="10.00">StrategyControllerStep</text>
</a>
</g>
</g>
<!-- Node0&#45;&gt;Node21 -->
<g id="edge21_Node000000_Node000021" class="edge">
<title>Node0&#45;&gt;Node21</title>
<g id="a_edge21_Node000000_Node000021"><a xlink:title=" ">
<path fill="none" stroke="#63b8ff" d="M30.25,-358.53C33.9,-290.38 48.65,-77.61 92.5,-27.62 95.28,-24.45 98.62,-21.83 102.27,-19.67"/>
<polygon fill="#63b8ff" stroke="#63b8ff" points="26.77,-358.15 29.76,-368.31 33.76,-358.5 26.77,-358.15"/>
</a>
</g>
</g>
</g>
</svg>
